<svg width="209" height="33" viewBox="0 0 209 33" fill="none" xmlns="http://www.w3.org/2000/svg">
<path d="M52.6998 21.6244C52.4064 21.8644 51.7064 22.1644 50.5998 22.5244C49.5064 22.8844 48.3731 23.0644 47.1998 23.0644C44.9331 23.0644 43.0998 22.3377 41.6998 20.8844C40.2998 19.4311 39.5998 17.6177 39.5998 15.4444C39.5998 13.2977 40.3531 11.4911 41.8598 10.0244C43.3664 8.55774 45.2731 7.8244 47.5798 7.8244C49.3264 7.8244 51.0064 8.1444 52.6198 8.7844L53.0198 12.0644L52.8598 12.1244C51.8198 10.6577 50.9131 9.6444 50.1398 9.0844C49.3798 8.51107 48.4398 8.2244 47.3198 8.2244C45.5598 8.2244 44.2531 8.87774 43.3998 10.1844C42.5598 11.4911 42.1398 13.2444 42.1398 15.4444C42.1398 17.6311 42.5598 19.3844 43.3998 20.7044C44.2398 22.0111 45.5064 22.6644 47.1998 22.6644C48.5198 22.6644 49.6131 22.2644 50.4798 21.4644C51.3464 20.6644 52.1664 19.4777 52.9398 17.9044L53.0998 17.9644L52.6998 21.6244ZM63.1588 23.0644C61.2255 23.0644 59.4855 22.3177 57.9388 20.8244C56.4055 19.3177 55.6388 17.5311 55.6388 15.4644C55.6388 13.3977 56.4055 11.6111 57.9388 10.1044C59.4855 8.5844 61.2255 7.8244 63.1588 7.8244C64.4122 7.8244 65.6188 8.1644 66.7788 8.8444C67.9388 9.51107 68.8855 10.4377 69.6188 11.6244C70.3522 12.8111 70.7188 14.0911 70.7188 15.4644C70.7188 16.8377 70.3522 18.1177 69.6188 19.3044C68.8855 20.4777 67.9388 21.3977 66.7788 22.0644C65.6188 22.7311 64.4122 23.0644 63.1588 23.0644ZM63.1588 22.6644C64.8255 22.6644 66.0788 22.0111 66.9188 20.7044C67.7588 19.3977 68.1788 17.6511 68.1788 15.4644C68.1788 13.2911 67.7522 11.5444 66.8988 10.2244C66.0588 8.89107 64.8122 8.2244 63.1588 8.2244C61.5055 8.2244 60.2588 8.89107 59.4188 10.2244C58.5922 11.5444 58.1788 13.2911 58.1788 15.4644C58.1788 17.6244 58.5922 19.3644 59.4188 20.6844C60.2588 22.0044 61.5055 22.6644 63.1588 22.6644ZM74.5079 10.2244L74.5879 18.7844C74.5879 19.6777 74.6745 20.3844 74.8479 20.9044C75.0345 21.4111 75.4079 22.0177 75.9679 22.7244V22.7644H72.8879V22.7244C73.3812 22.0444 73.7079 21.4444 73.8679 20.9244C74.0279 20.3911 74.1079 19.6777 74.1079 18.7844V10.9444C74.0545 10.2911 73.9212 9.77774 73.7079 9.4044C73.4945 9.03107 73.1079 8.61774 72.5479 8.1644V8.1244H75.7479L84.1279 19.5044L84.0679 12.1044C84.0679 11.2244 83.9812 10.5244 83.8079 10.0044C83.6479 9.47107 83.3279 8.85774 82.8479 8.1644V8.1244H85.7279V8.1644C85.2345 8.87107 84.9079 9.4844 84.7479 10.0044C84.5879 10.5244 84.5079 11.2244 84.5079 12.1044V22.7644L83.7879 22.8244L74.5079 10.2244ZM96.4993 12.0244L96.3193 12.0844C95.6526 10.6711 94.986 9.67774 94.3193 9.1044C93.6526 8.51774 92.9393 8.2244 92.1793 8.2244C91.4993 8.2244 90.966 8.43107 90.5793 8.8444C90.1926 9.2444 89.9993 9.7844 89.9993 10.4644C89.9993 10.8244 90.066 11.1644 90.1993 11.4844C90.346 11.8044 90.506 12.0711 90.6793 12.2844C90.8526 12.4977 91.1193 12.7244 91.4793 12.9644C91.8526 13.2044 92.1526 13.3844 92.3793 13.5044C92.6193 13.6244 92.9793 13.7977 93.4593 14.0244C93.966 14.2777 94.366 14.4844 94.6593 14.6444C94.9526 14.7911 95.2993 15.0177 95.6993 15.3244C96.1126 15.6177 96.426 15.9111 96.6393 16.2044C96.866 16.4977 97.0593 16.8711 97.2193 17.3244C97.3926 17.7777 97.4793 18.2711 97.4793 18.8044C97.4793 20.2177 96.986 21.2844 95.9993 22.0044C95.0126 22.7111 93.7593 23.0644 92.2393 23.0644C90.8926 23.0644 89.5193 22.8044 88.1193 22.2844L87.7193 18.5844L87.8793 18.5244C88.6393 19.9511 89.4193 20.9977 90.2193 21.6644C91.0193 22.3311 91.8793 22.6644 92.7993 22.6644C93.666 22.6644 94.3326 22.4044 94.7993 21.8844C95.266 21.3511 95.4993 20.6977 95.4993 19.9244C95.4993 19.0577 95.226 18.3511 94.6793 17.8044C94.146 17.2577 93.386 16.7444 92.3993 16.2644C91.986 16.0644 91.686 15.9177 91.4993 15.8244C91.3126 15.7311 91.0393 15.5777 90.6793 15.3644C90.3193 15.1511 90.046 14.9711 89.8593 14.8244C89.686 14.6777 89.4726 14.4844 89.2193 14.2444C88.966 13.9911 88.7793 13.7511 88.6593 13.5244C88.5526 13.2844 88.4526 13.0044 88.3593 12.6844C88.266 12.3511 88.2193 12.0044 88.2193 11.6444C88.2193 10.3511 88.6593 9.39107 89.5393 8.7644C90.4193 8.13774 91.5193 7.8244 92.8393 7.8244C93.946 7.8244 95.0326 8.01774 96.0993 8.4044L96.4993 12.0244ZM105.941 23.0644C104.341 23.0644 103.028 22.6511 102.001 21.8244C100.988 20.9844 100.481 19.7111 100.481 18.0044V11.7444C100.481 10.9044 100.428 10.2511 100.321 9.7844C100.228 9.31774 100.014 8.77774 99.681 8.1644V8.1244H103.581V8.1644C103.048 9.17774 102.781 10.3711 102.781 11.7444V17.9444C102.781 21.0244 104.021 22.5644 106.501 22.5644C107.888 22.5644 108.908 22.1111 109.561 21.2044C110.214 20.2977 110.541 19.1511 110.541 17.7644V12.1044C110.541 11.1977 110.448 10.4844 110.261 9.9644C110.074 9.4444 109.688 8.8444 109.101 8.1644V8.1244H112.341L112.441 8.1644C111.854 8.8444 111.468 9.4444 111.281 9.9644C111.094 10.4844 111.001 11.1977 111.001 12.1044V17.7444C111.001 19.3311 110.601 20.6177 109.801 21.6044C109.014 22.5777 107.728 23.0644 105.941 23.0644ZM114.687 22.7644V22.7244C115.007 22.1111 115.22 21.5644 115.327 21.0844C115.433 20.6044 115.487 19.9577 115.487 19.1444V11.7444C115.487 10.9311 115.433 10.2844 115.327 9.8044C115.22 9.3244 115.007 8.77774 114.687 8.1644V8.1244H118.587V8.1644C118.253 8.77774 118.033 9.31774 117.927 9.7844C117.833 10.2511 117.787 10.9044 117.787 11.7444V22.4844L120.807 22.3644C122.14 22.3111 123.58 21.1044 125.127 18.7444L125.287 18.8044L124.407 22.7644H114.687ZM133.787 22.7644H129.887V22.7244C130.207 22.1111 130.421 21.5644 130.527 21.0844C130.634 20.6044 130.687 19.9577 130.687 19.1444V8.4644L128.507 8.5444C128.254 8.55774 127.927 8.7644 127.527 9.1644C127.141 9.5644 126.794 9.97107 126.487 10.3844C126.181 10.7977 125.814 11.3111 125.387 11.9244C125.267 12.0977 125.181 12.2244 125.127 12.3044L124.967 12.2444L125.727 8.1244H137.947L138.707 12.2444L138.547 12.3044C138.414 12.1311 138.194 11.8244 137.887 11.3844C137.581 10.9444 137.327 10.5977 137.127 10.3444C136.941 10.0911 136.714 9.81107 136.447 9.5044C136.194 9.1844 135.961 8.95107 135.747 8.8044C135.534 8.6444 135.341 8.55774 135.167 8.5444L132.987 8.4644V19.1444C132.987 19.9844 133.034 20.6377 133.127 21.1044C133.234 21.5711 133.454 22.1111 133.787 22.7244V22.7644ZM140.866 22.7244C141.2 22.1111 141.413 21.5711 141.506 21.1044C141.613 20.6377 141.666 19.9844 141.666 19.1444V11.7444C141.666 10.9044 141.613 10.2511 141.506 9.7844C141.413 9.31774 141.2 8.77774 140.866 8.1644V8.1244H144.766V8.1644C144.433 8.77774 144.213 9.31774 144.106 9.7844C144.013 10.2511 143.966 10.9044 143.966 11.7444V19.1444C143.966 19.9844 144.013 20.6377 144.106 21.1044C144.213 21.5711 144.433 22.1111 144.766 22.7244V22.7644H140.866V22.7244ZM160.446 21.6244C160.153 21.8644 159.453 22.1644 158.346 22.5244C157.253 22.8844 156.119 23.0644 154.946 23.0644C152.679 23.0644 150.846 22.3377 149.446 20.8844C148.046 19.4311 147.346 17.6177 147.346 15.4444C147.346 13.2977 148.099 11.4911 149.606 10.0244C151.113 8.55774 153.019 7.8244 155.326 7.8244C157.073 7.8244 158.753 8.1444 160.366 8.7844L160.766 12.0644L160.606 12.1244C159.566 10.6577 158.659 9.6444 157.886 9.0844C157.126 8.51107 156.186 8.2244 155.066 8.2244C153.306 8.2244 151.999 8.87774 151.146 10.1844C150.306 11.4911 149.886 13.2444 149.886 15.4444C149.886 17.6311 150.306 19.3844 151.146 20.7044C151.986 22.0111 153.253 22.6644 154.946 22.6644C156.266 22.6644 157.359 22.2644 158.226 21.4644C159.093 20.6644 159.913 19.4777 160.686 17.9044L160.846 17.9644L160.446 21.6244ZM176.283 22.7644H172.383V22.7244C172.703 22.1111 172.917 21.5644 173.023 21.0844C173.13 20.6044 173.183 19.9577 173.183 19.1444V8.4644L171.003 8.5444C170.75 8.55774 170.423 8.7644 170.023 9.1644C169.637 9.5644 169.29 9.97107 168.983 10.3844C168.677 10.7977 168.31 11.3111 167.883 11.9244C167.763 12.0977 167.677 12.2244 167.623 12.3044L167.463 12.2444L168.223 8.1244H180.443L181.203 12.2444L181.043 12.3044C180.91 12.1311 180.69 11.8244 180.383 11.3844C180.077 10.9444 179.823 10.5977 179.623 10.3444C179.437 10.0911 179.21 9.81107 178.943 9.5044C178.69 9.1844 178.457 8.95107 178.243 8.8044C178.03 8.6444 177.837 8.55774 177.663 8.5444L175.483 8.4644V19.1444C175.483 19.9844 175.53 20.6377 175.623 21.1044C175.73 21.5711 175.95 22.1111 176.283 22.7244V22.7644ZM186.279 11.0644L184.079 16.8444H188.459L186.279 11.0644ZM183.539 22.7644H180.839V22.7244C181.279 22.2577 181.619 21.7911 181.859 21.3244C182.112 20.8444 182.405 20.1644 182.739 19.2844L187.039 7.9644H187.439L191.819 19.5044C192.365 20.9844 192.972 22.0577 193.639 22.7244V22.7644H189.659V22.7244C189.845 22.4711 189.919 22.0377 189.879 21.4244C189.852 20.7977 189.705 20.1244 189.439 19.4044L188.619 17.2444H183.919L183.499 18.3644C182.805 20.1644 182.819 21.6177 183.539 22.7244V22.7644ZM197.763 22.7644H194.363V22.7244C195.376 22.0311 196.356 20.9977 197.303 19.6244L200.143 15.5444L197.343 10.8844C196.916 10.1777 196.523 9.61774 196.163 9.2044C195.816 8.77774 195.416 8.43107 194.963 8.1644V8.1244H199.623V8.1644C199.423 8.3644 199.35 8.7244 199.403 9.2444C199.47 9.75107 199.656 10.2577 199.963 10.7644L201.823 13.8444L203.303 11.7244C203.85 10.9511 204.163 10.2844 204.243 9.7244C204.323 9.1644 204.216 8.6444 203.923 8.1644V8.1244H207.323V8.1644C206.163 8.91107 205.116 9.9444 204.183 11.2644L202.063 14.2444L205.543 19.9844C206.356 21.3444 207.15 22.2577 207.923 22.7244V22.7644H203.263V22.7244C203.463 22.5244 203.53 22.1711 203.463 21.6644C203.41 21.1444 203.23 20.6311 202.923 20.1244L200.403 15.9444L198.183 19.1644C197.823 19.6844 197.59 20.1777 197.483 20.6444C197.39 21.1111 197.37 21.4644 197.423 21.7044C197.476 21.9311 197.59 22.2711 197.763 22.7244V22.7644Z" fill="white"/>
<circle cx="15.9998" cy="16.7644" r="16" fill="#FFDE11"/>
<g clip-path="url(#clip0_14_380)">
<path d="M22.9082 18.7144L18.6082 19.536" stroke="#272937" stroke-width="1.5" stroke-linecap="round" stroke-linejoin="round"/>
<path d="M18.0132 13.8294L15.1232 14.7844C14.8995 14.858 14.6566 14.8468 14.4407 14.7529C14.2248 14.659 14.051 14.489 13.9524 14.2752C13.846 14.047 13.8326 13.7864 13.9148 13.5485C13.9971 13.3106 14.1686 13.114 14.3932 13.0002L17.1923 11.5927C17.4309 11.4724 17.6917 11.4023 17.9584 11.3868C18.2252 11.3713 18.4923 11.4108 18.7432 11.5027L22.8873 13.0185" stroke="#272937" stroke-width="1.5" stroke-linecap="round" stroke-linejoin="round"/>
<path d="M9.07056 18.7211H11.1081L14.0347 22.0011C14.1838 22.1738 14.3821 22.2968 14.603 22.3536C14.824 22.4104 15.057 22.3983 15.2708 22.3188C15.4847 22.2394 15.6691 22.0964 15.7994 21.9092C15.9297 21.7219 15.9996 21.4992 15.9997 21.2711V20.7586L16.1456 20.817C16.3549 20.9007 16.5816 20.9319 16.8058 20.9077C17.03 20.8836 17.2448 20.8049 17.4315 20.6785C17.6183 20.5521 17.7712 20.3819 17.8769 20.1828C17.9827 19.9836 18.038 19.7616 18.0381 19.5361H18.4456C18.6726 19.536 18.8951 19.4726 19.0882 19.3532C19.2813 19.2338 19.4374 19.063 19.5389 18.8599C19.6404 18.6568 19.6835 18.4295 19.6632 18.2033C19.6428 17.9772 19.56 17.7612 19.4239 17.5794L16.8081 14.2278" stroke="#272937" stroke-width="1.5" stroke-linecap="round" stroke-linejoin="round"/>
<path d="M14.8189 12.7852L14.5206 12.5393C14.22 12.3179 13.8564 12.1985 13.4831 12.1985C13.2606 12.1984 13.0402 12.2411 12.8339 12.3243L9.12476 13.8077" stroke="#272937" stroke-width="1.5" stroke-linecap="round" stroke-linejoin="round"/>
<path d="M6.62476 12.3894H8.29142C8.50303 12.3805 8.70952 12.4559 8.8657 12.599C9.02187 12.742 9.11502 12.9411 9.12476 13.1527V18.5002C9.11502 18.7118 9.0219 18.911 8.86575 19.0542C8.7096 19.1974 8.50311 19.273 8.29142 19.2644H6.62476" stroke="#272937" stroke-width="1.5" stroke-linecap="round" stroke-linejoin="round"/>
<path d="M25.3748 19.2644H23.7081C23.4964 19.273 23.2899 19.1974 23.1338 19.0542C22.9776 18.911 22.8845 18.7118 22.8748 18.5002V13.1527C22.8845 12.9411 22.9776 12.742 23.1338 12.599C23.29 12.4559 23.4965 12.3805 23.7081 12.3894H25.3748" stroke="#272937" stroke-width="1.5" stroke-linecap="round" stroke-linejoin="round"/>
<path d="M15.9998 20.7586L15.1848 19.9436" stroke="#272937" stroke-width="1.5" stroke-linecap="round" stroke-linejoin="round"/>
<path d="M18.038 19.5361L16.8147 18.3127" stroke="#272937" stroke-width="1.5" stroke-linecap="round" stroke-linejoin="round"/>
</g>
<defs>
<clipPath id="clip0_14_380">
<rect width="20" height="20" fill="white" transform="translate(5.99976 6.7644)"/>
</clipPath>
</defs>
</svg>
