<svg width="206" height="33" viewBox="0 0 206 33" fill="none" xmlns="http://www.w3.org/2000/svg">
<path d="M52.7 21.0709C52.4067 21.3109 51.7067 21.6109 50.6 21.9709C49.5067 22.3309 48.3733 22.5109 47.2 22.5109C44.9333 22.5109 43.1 21.7843 41.7 20.3309C40.3 18.8776 39.6 17.0643 39.6 14.8909C39.6 12.7443 40.3533 10.9376 41.86 9.47094C43.3667 8.00427 45.2733 7.27094 47.58 7.27094C49.3267 7.27094 51.0067 7.59094 52.62 8.23094L53.02 11.5109L52.86 11.5709C51.82 10.1043 50.9133 9.09094 50.14 8.53094C49.38 7.9576 48.44 7.67094 47.32 7.67094C45.56 7.67094 44.2533 8.32427 43.4 9.63094C42.56 10.9376 42.14 12.6909 42.14 14.8909C42.14 17.0776 42.56 18.8309 43.4 20.1509C44.24 21.4576 45.5067 22.1109 47.2 22.1109C48.52 22.1109 49.6133 21.7109 50.48 20.9109C51.3467 20.1109 52.1667 18.9243 52.94 17.3509L53.1 17.4109L52.7 21.0709ZM63.1591 22.5109C61.2257 22.5109 59.4857 21.7643 57.9391 20.2709C56.4057 18.7643 55.6391 16.9776 55.6391 14.9109C55.6391 12.8443 56.4057 11.0576 57.9391 9.55094C59.4857 8.03094 61.2257 7.27094 63.1591 7.27094C64.4124 7.27094 65.6191 7.61094 66.7791 8.29094C67.9391 8.9576 68.8857 9.88427 69.6191 11.0709C70.3524 12.2576 70.7191 13.5376 70.7191 14.9109C70.7191 16.2843 70.3524 17.5643 69.6191 18.7509C68.8857 19.9243 67.9391 20.8443 66.7791 21.5109C65.6191 22.1776 64.4124 22.5109 63.1591 22.5109ZM63.1591 22.1109C64.8257 22.1109 66.0791 21.4576 66.9191 20.1509C67.7591 18.8443 68.1791 17.0976 68.1791 14.9109C68.1791 12.7376 67.7524 10.9909 66.8991 9.67094C66.0591 8.3376 64.8124 7.67094 63.1591 7.67094C61.5057 7.67094 60.2591 8.3376 59.4191 9.67094C58.5924 10.9909 58.1791 12.7376 58.1791 14.9109C58.1791 17.0709 58.5924 18.8109 59.4191 20.1309C60.2591 21.4509 61.5057 22.1109 63.1591 22.1109ZM74.5081 9.67094L74.5881 18.2309C74.5881 19.1243 74.6748 19.8309 74.8481 20.3509C75.0348 20.8576 75.4081 21.4643 75.9681 22.1709V22.2109H72.8881V22.1709C73.3815 21.4909 73.7081 20.8909 73.8681 20.3709C74.0281 19.8376 74.1081 19.1243 74.1081 18.2309V10.3909C74.0548 9.7376 73.9215 9.22427 73.7081 8.85094C73.4948 8.4776 73.1081 8.06427 72.5481 7.61094V7.57094H75.7481L84.1281 18.9509L84.0681 11.5509C84.0681 10.6709 83.9815 9.97094 83.8081 9.45094C83.6481 8.9176 83.3281 8.30427 82.8481 7.61094V7.57094H85.7281V7.61094C85.2348 8.3176 84.9081 8.93094 84.7481 9.45094C84.5881 9.97094 84.5081 10.6709 84.5081 11.5509V22.2109L83.7881 22.2709L74.5081 9.67094ZM96.4995 11.4709L96.3195 11.5309C95.6529 10.1176 94.9862 9.12427 94.3195 8.55094C93.6529 7.96427 92.9395 7.67094 92.1795 7.67094C91.4995 7.67094 90.9662 7.8776 90.5795 8.29094C90.1929 8.69094 89.9995 9.23094 89.9995 9.91094C89.9995 10.2709 90.0662 10.6109 90.1995 10.9309C90.3462 11.2509 90.5062 11.5176 90.6795 11.7309C90.8529 11.9443 91.1195 12.1709 91.4795 12.4109C91.8529 12.6509 92.1529 12.8309 92.3795 12.9509C92.6195 13.0709 92.9795 13.2443 93.4595 13.4709C93.9662 13.7243 94.3662 13.9309 94.6595 14.0909C94.9529 14.2376 95.2995 14.4643 95.6995 14.7709C96.1129 15.0643 96.4262 15.3576 96.6395 15.6509C96.8662 15.9443 97.0595 16.3176 97.2195 16.7709C97.3929 17.2243 97.4795 17.7176 97.4795 18.2509C97.4795 19.6643 96.9862 20.7309 95.9995 21.4509C95.0129 22.1576 93.7595 22.5109 92.2395 22.5109C90.8929 22.5109 89.5195 22.2509 88.1195 21.7309L87.7195 18.0309L87.8795 17.9709C88.6395 19.3976 89.4195 20.4443 90.2195 21.1109C91.0195 21.7776 91.8795 22.1109 92.7995 22.1109C93.6662 22.1109 94.3329 21.8509 94.7995 21.3309C95.2662 20.7976 95.4995 20.1443 95.4995 19.3709C95.4995 18.5043 95.2262 17.7976 94.6795 17.2509C94.1462 16.7043 93.3862 16.1909 92.3995 15.7109C91.9862 15.5109 91.6862 15.3643 91.4995 15.2709C91.3129 15.1776 91.0395 15.0243 90.6795 14.8109C90.3195 14.5976 90.0462 14.4176 89.8595 14.2709C89.6862 14.1243 89.4729 13.9309 89.2195 13.6909C88.9662 13.4376 88.7795 13.1976 88.6595 12.9709C88.5529 12.7309 88.4529 12.4509 88.3595 12.1309C88.2662 11.7976 88.2195 11.4509 88.2195 11.0909C88.2195 9.7976 88.6595 8.8376 89.5395 8.21094C90.4195 7.58427 91.5195 7.27094 92.8395 7.27094C93.9462 7.27094 95.0329 7.46427 96.0995 7.85094L96.4995 11.4709ZM105.941 22.5109C104.341 22.5109 103.028 22.0976 102.001 21.2709C100.988 20.4309 100.481 19.1576 100.481 17.4509V11.1909C100.481 10.3509 100.428 9.6976 100.321 9.23094C100.228 8.76427 100.015 8.22427 99.6813 7.61094V7.57094H103.581V7.61094C103.048 8.62427 102.781 9.8176 102.781 11.1909V17.3909C102.781 20.4709 104.021 22.0109 106.501 22.0109C107.888 22.0109 108.908 21.5576 109.561 20.6509C110.215 19.7443 110.541 18.5976 110.541 17.2109V11.5509C110.541 10.6443 110.448 9.93094 110.261 9.41094C110.075 8.89094 109.688 8.29094 109.101 7.61094V7.57094H112.341L112.441 7.61094C111.855 8.29094 111.468 8.89094 111.281 9.41094C111.095 9.93094 111.001 10.6443 111.001 11.5509V17.1909C111.001 18.7776 110.601 20.0643 109.801 21.0509C109.015 22.0243 107.728 22.5109 105.941 22.5109ZM114.687 22.2109V22.1709C115.007 21.5576 115.22 21.0109 115.327 20.5309C115.434 20.0509 115.487 19.4043 115.487 18.5909V11.1909C115.487 10.3776 115.434 9.73094 115.327 9.25094C115.22 8.77094 115.007 8.22427 114.687 7.61094V7.57094H118.587V7.61094C118.254 8.22427 118.034 8.76427 117.927 9.23094C117.834 9.6976 117.787 10.3509 117.787 11.1909V21.9309L120.807 21.8109C122.14 21.7576 123.58 20.5509 125.127 18.1909L125.287 18.2509L124.407 22.2109H114.687ZM133.788 22.2109H129.888V22.1709C130.208 21.5576 130.421 21.0109 130.528 20.5309C130.634 20.0509 130.688 19.4043 130.688 18.5909V7.91094L128.508 7.99094C128.254 8.00427 127.928 8.21094 127.528 8.61094C127.141 9.01094 126.794 9.4176 126.488 9.83094C126.181 10.2443 125.814 10.7576 125.388 11.3709C125.268 11.5443 125.181 11.6709 125.128 11.7509L124.968 11.6909L125.728 7.57094H137.948L138.708 11.6909L138.548 11.7509C138.414 11.5776 138.194 11.2709 137.888 10.8309C137.581 10.3909 137.328 10.0443 137.128 9.79094C136.941 9.5376 136.714 9.2576 136.447 8.95094C136.194 8.63094 135.961 8.3976 135.748 8.25094C135.534 8.09094 135.341 8.00427 135.168 7.99094L132.988 7.91094V18.5909C132.988 19.4309 133.034 20.0843 133.128 20.5509C133.234 21.0176 133.454 21.5576 133.788 22.1709V22.2109ZM140.867 22.1709C141.2 21.5576 141.413 21.0176 141.507 20.5509C141.613 20.0843 141.667 19.4309 141.667 18.5909V11.1909C141.667 10.3509 141.613 9.6976 141.507 9.23094C141.413 8.76427 141.2 8.22427 140.867 7.61094V7.57094H144.767V7.61094C144.433 8.22427 144.213 8.76427 144.107 9.23094C144.013 9.6976 143.967 10.3509 143.967 11.1909V18.5909C143.967 19.4309 144.013 20.0843 144.107 20.5509C144.213 21.0176 144.433 21.5576 144.767 22.1709V22.2109H140.867V22.1709ZM152.146 10.5109L149.946 16.2909H154.326L152.146 10.5109ZM149.406 22.2109H146.706V22.1709C147.146 21.7043 147.486 21.2376 147.726 20.7709C147.979 20.2909 148.273 19.6109 148.606 18.7309L152.906 7.41094H153.306L157.686 18.9509C158.233 20.4309 158.839 21.5043 159.506 22.1709V22.2109H155.526V22.1709C155.713 21.9176 155.786 21.4843 155.746 20.8709C155.719 20.2443 155.573 19.5709 155.306 18.8509L154.486 16.6909H149.786L149.366 17.8109C148.673 19.6109 148.686 21.0643 149.406 22.1709V22.2109ZM173.959 22.2109H170.059V22.1709C170.379 21.5576 170.593 21.0109 170.699 20.5309C170.806 20.0509 170.859 19.4043 170.859 18.5909V7.91094L168.679 7.99094C168.426 8.00427 168.099 8.21094 167.699 8.61094C167.313 9.01094 166.966 9.4176 166.659 9.83094C166.353 10.2443 165.986 10.7576 165.559 11.3709C165.439 11.5443 165.353 11.6709 165.299 11.7509L165.139 11.6909L165.899 7.57094H178.119L178.879 11.6909L178.719 11.7509C178.586 11.5776 178.366 11.2709 178.059 10.8309C177.753 10.3909 177.499 10.0443 177.299 9.79094C177.113 9.5376 176.886 9.2576 176.619 8.95094C176.366 8.63094 176.133 8.3976 175.919 8.25094C175.706 8.09094 175.513 8.00427 175.339 7.99094L173.159 7.91094V18.5909C173.159 19.4309 173.206 20.0843 173.299 20.5509C173.406 21.0176 173.626 21.5576 173.959 22.1709V22.2109ZM183.955 10.5109L181.755 16.2909H186.135L183.955 10.5109ZM181.215 22.2109H178.515V22.1709C178.955 21.7043 179.295 21.2376 179.535 20.7709C179.788 20.2909 180.081 19.6109 180.415 18.7309L184.715 7.41094H185.115L189.495 18.9509C190.041 20.4309 190.648 21.5043 191.315 22.1709V22.2109H187.335V22.1709C187.521 21.9176 187.595 21.4843 187.555 20.8709C187.528 20.2443 187.381 19.5709 187.115 18.8509L186.295 16.6909H181.595L181.175 17.8109C180.481 19.6109 180.495 21.0643 181.215 22.1709V22.2109ZM195.439 22.2109H192.039V22.1709C193.052 21.4776 194.032 20.4443 194.979 19.0709L197.819 14.9909L195.019 10.3309C194.592 9.62427 194.199 9.06427 193.839 8.65094C193.492 8.22427 193.092 7.8776 192.639 7.61094V7.57094H197.299V7.61094C197.099 7.81094 197.026 8.17094 197.079 8.69094C197.146 9.1976 197.332 9.70427 197.639 10.2109L199.499 13.2909L200.979 11.1709C201.526 10.3976 201.839 9.73094 201.919 9.17094C201.999 8.61094 201.892 8.09094 201.599 7.61094V7.57094H204.999V7.61094C203.839 8.3576 202.792 9.39094 201.859 10.7109L199.739 13.6909L203.219 19.4309C204.032 20.7909 204.826 21.7043 205.599 22.1709V22.2109H200.939V22.1709C201.139 21.9709 201.206 21.6176 201.139 21.1109C201.086 20.5909 200.906 20.0776 200.599 19.5709L198.079 15.3909L195.859 18.6109C195.499 19.1309 195.266 19.6243 195.159 20.0909C195.066 20.5576 195.046 20.9109 195.099 21.1509C195.152 21.3776 195.266 21.7176 195.439 22.1709V22.2109Z" fill="#243D31"/>
<circle cx="16" cy="16.2109" r="16" fill="#FFDE11"/>
<g clip-path="url(#clip0_14_85)">
<path d="M22.9084 18.1611L18.6084 18.9828" stroke="#272937" stroke-width="1.5" stroke-linecap="round" stroke-linejoin="round"/>
<path d="M18.0134 13.2759L15.1234 14.2309C14.8998 14.3045 14.6569 14.2933 14.441 14.1994C14.2251 14.1055 14.0512 13.9355 13.9526 13.7217C13.8463 13.4935 13.8328 13.233 13.9151 12.995C13.9973 12.7571 14.1689 12.5605 14.3934 12.4467L17.1926 11.0392C17.4312 10.9189 17.6919 10.8488 17.9587 10.8334C18.2254 10.8179 18.4925 10.8573 18.7434 10.9492L22.8876 12.4651" stroke="#272937" stroke-width="1.5" stroke-linecap="round" stroke-linejoin="round"/>
<path d="M9.0708 18.1676H11.1083L14.035 21.4476C14.184 21.6204 14.3823 21.7434 14.6033 21.8001C14.8242 21.8569 15.0572 21.8448 15.2711 21.7653C15.4849 21.6859 15.6694 21.543 15.7997 21.3557C15.9299 21.1684 15.9998 20.9458 16 20.7177V20.2051L16.1458 20.2635C16.3552 20.3472 16.5818 20.3784 16.806 20.3542C17.0302 20.3301 17.2451 20.2514 17.4318 20.125C17.6185 19.9987 17.7714 19.8284 17.8772 19.6293C17.9829 19.4301 18.0382 19.2081 18.0383 18.9826H18.4458C18.6728 18.9825 18.8954 18.9192 19.0885 18.7997C19.2816 18.6803 19.4376 18.5095 19.5392 18.3064C19.6407 18.1033 19.6837 17.876 19.6634 17.6499C19.6431 17.4237 19.5602 17.2077 19.4241 17.026L16.8083 13.6743" stroke="#272937" stroke-width="1.5" stroke-linecap="round" stroke-linejoin="round"/>
<path d="M14.8192 12.2317L14.5208 11.9859C14.2202 11.7645 13.8567 11.6451 13.4833 11.645C13.2609 11.6449 13.0405 11.6877 12.8342 11.7709L9.125 13.2542" stroke="#272937" stroke-width="1.5" stroke-linecap="round" stroke-linejoin="round"/>
<path d="M6.625 11.8361H8.29167C8.50328 11.8273 8.70976 11.9027 8.86594 12.0457C9.02212 12.1888 9.11527 12.3879 9.125 12.5995V17.947C9.11526 18.1586 9.02214 18.3578 8.86599 18.501C8.70984 18.6442 8.50336 18.7197 8.29167 18.7111H6.625" stroke="#272937" stroke-width="1.5" stroke-linecap="round" stroke-linejoin="round"/>
<path d="M25.375 18.7111H23.7083C23.4966 18.7197 23.2902 18.6442 23.134 18.501C22.9779 18.3578 22.8847 18.1586 22.875 17.947V12.5995C22.8847 12.3879 22.9779 12.1888 23.1341 12.0457C23.2902 11.9027 23.4967 11.8273 23.7083 11.8361H25.375" stroke="#272937" stroke-width="1.5" stroke-linecap="round" stroke-linejoin="round"/>
<path d="M16.0001 20.2051L15.1851 19.3901" stroke="#272937" stroke-width="1.5" stroke-linecap="round" stroke-linejoin="round"/>
<path d="M18.0383 18.9826L16.8149 17.7593" stroke="#272937" stroke-width="1.5" stroke-linecap="round" stroke-linejoin="round"/>
</g>
<defs>
<clipPath id="clip0_14_85">
<rect width="20" height="20" fill="white" transform="translate(6 6.21094)"/>
</clipPath>
</defs>
</svg>
