<svg width="205" height="32" viewBox="0 0 205 32" fill="none" xmlns="http://www.w3.org/2000/svg">
<path d="M50.6969 16.92L52.7169 18.4C52.1035 19.2667 51.3102 19.9533 50.3369 20.46C49.3635 20.9533 48.2902 21.2 47.1169 21.2C45.1702 21.2 43.5235 20.5133 42.1769 19.14C40.8435 17.7533 40.1769 16.0867 40.1769 14.14C40.1769 12.1667 40.8435 10.4933 42.1769 9.12C43.5235 7.74667 45.1702 7.06 47.1169 7.06C48.2635 7.06 49.3169 7.30667 50.2769 7.8C51.2502 8.28 52.0435 8.94 52.6569 9.78L50.6169 11.24C49.7102 10.0667 48.5435 9.48 47.1169 9.48C45.8769 9.48 44.8369 9.93333 43.9969 10.84C43.1569 11.7467 42.7369 12.8467 42.7369 14.14C42.7369 15.4333 43.1569 16.5333 43.9969 17.44C44.8369 18.3333 45.8769 18.78 47.1169 18.78C47.8369 18.78 48.5102 18.6133 49.1369 18.28C49.7635 17.9467 50.2835 17.4933 50.6969 16.92ZM56.0841 18.12C56.5507 18.5733 57.1307 18.8 57.8241 18.8C58.5174 18.8 59.0974 18.5733 59.5641 18.12C60.0307 17.6533 60.2641 17.0467 60.2641 16.3C60.2641 15.58 60.0307 14.9933 59.5641 14.54C59.0974 14.0867 58.5174 13.86 57.8241 13.86C57.1307 13.86 56.5507 14.0867 56.0841 14.54C55.6174 14.9933 55.3841 15.58 55.3841 16.3C55.3841 17.0467 55.6174 17.6533 56.0841 18.12ZM61.2641 19.82C60.3307 20.7267 59.1841 21.18 57.8241 21.18C56.4641 21.18 55.3107 20.7267 54.3641 19.82C53.4307 18.9133 52.9641 17.74 52.9641 16.3C52.9641 14.86 53.4307 13.6933 54.3641 12.8C55.3107 11.9067 56.4641 11.46 57.8241 11.46C59.1841 11.46 60.3307 11.9067 61.2641 12.8C62.2107 13.6933 62.6841 14.86 62.6841 16.3C62.6841 17.74 62.2107 18.9133 61.2641 19.82ZM66.3122 16.02V21H63.8722V11.66H66.3122V13.04C66.5655 12.56 66.9522 12.18 67.4722 11.9C67.9922 11.6067 68.5322 11.46 69.0922 11.46C70.1989 11.46 71.0522 11.8067 71.6522 12.5C72.2655 13.18 72.5722 14.1733 72.5722 15.48V21H70.1322V15.92C70.1322 15.2533 69.9722 14.74 69.6522 14.38C69.3322 14.02 68.8989 13.84 68.3522 13.84C67.7522 13.84 67.2589 14.0133 66.8722 14.36C66.4989 14.7067 66.3122 15.26 66.3122 16.02ZM76.4798 17.1C75.9065 16.94 75.4332 16.7533 75.0598 16.54C74.6865 16.3267 74.4132 16.0867 74.2398 15.82C74.0798 15.5533 73.9732 15.3067 73.9198 15.08C73.8665 14.84 73.8398 14.56 73.8398 14.24C73.8398 13.4933 74.1798 12.8467 74.8598 12.3C75.5398 11.74 76.3465 11.46 77.2798 11.46C78.2665 11.46 79.1065 11.7 79.7998 12.18C80.5065 12.66 80.8798 13.4 80.9198 14.4H78.5998C78.5865 14.08 78.4532 13.84 78.1998 13.68C77.9465 13.52 77.6598 13.44 77.3398 13.44C76.5532 13.44 76.1598 13.7467 76.1598 14.36C76.1598 14.7067 76.4865 14.9667 77.1398 15.14L78.6998 15.52C79.2065 15.6533 79.6332 15.84 79.9798 16.08C80.3265 16.32 80.5732 16.5867 80.7198 16.88C80.8798 17.16 80.9865 17.4133 81.0398 17.64C81.1065 17.8667 81.1398 18.0933 81.1398 18.32C81.1398 19.2267 80.7598 19.9333 79.9998 20.44C79.2532 20.9467 78.3598 21.2 77.3198 21.2C76.3332 21.2 75.4598 20.92 74.6998 20.36C73.9532 19.7867 73.5732 19.02 73.5598 18.06H75.8398C75.8665 18.3933 76.0465 18.68 76.3798 18.92C76.7265 19.1467 77.1198 19.2533 77.5598 19.24C77.9065 19.2267 78.1932 19.1333 78.4198 18.96C78.6598 18.7867 78.7798 18.5667 78.7798 18.3C78.7932 18.0733 78.7132 17.8933 78.5398 17.76C78.3798 17.6133 78.1198 17.5 77.7598 17.42L76.4798 17.1ZM88.4419 16.64V11.66H90.8819V21H88.4419V19.68C88.1885 20.16 87.8152 20.5333 87.3219 20.8C86.8419 21.0667 86.3552 21.2 85.8619 21.2C84.7285 21.2 83.8285 20.8533 83.1619 20.16C82.5085 19.4667 82.1819 18.4733 82.1819 17.18V11.66H84.6419V16.74C84.6419 17.4467 84.8152 17.9733 85.1619 18.32C85.5085 18.6533 85.9285 18.82 86.4219 18.82C86.9952 18.82 87.4752 18.6467 87.8619 18.3C88.2485 17.94 88.4419 17.3867 88.4419 16.64ZM92.6495 21V6.58H95.0895V21H92.6495ZM100.045 8.1V11.66H102.025V13.62H100.045V21H97.6248V13.62H95.9248V11.66H97.6248V8.1H100.045ZM105.277 11.66V21H102.857V11.66H105.277ZM102.957 9.1C102.65 8.80667 102.497 8.45333 102.497 8.04C102.497 7.62667 102.65 7.28 102.957 7C103.277 6.72 103.65 6.58 104.077 6.58C104.503 6.58 104.863 6.72 105.157 7C105.463 7.28 105.617 7.62667 105.617 8.04C105.617 8.45333 105.463 8.80667 105.157 9.1C104.863 9.38 104.503 9.52 104.077 9.52C103.637 9.52 103.263 9.38 102.957 9.1ZM114.112 21V19.8C113.832 20.24 113.406 20.58 112.832 20.82C112.272 21.06 111.732 21.18 111.212 21.18C109.932 21.18 108.819 20.7333 107.872 19.84C106.926 18.9333 106.452 17.76 106.452 16.32C106.452 14.88 106.919 13.7133 107.852 12.82C108.799 11.9133 109.919 11.46 111.212 11.46C111.732 11.46 112.266 11.5733 112.812 11.8C113.372 12.0133 113.806 12.3533 114.112 12.82V11.66H116.552V21H114.112ZM109.732 14.52C109.226 14.9867 108.972 15.5867 108.972 16.32C108.972 17.0533 109.226 17.66 109.732 18.14C110.252 18.6067 110.859 18.84 111.552 18.84C112.246 18.84 112.846 18.6133 113.352 18.16C113.859 17.6933 114.112 17.08 114.112 16.32C114.112 15.5467 113.852 14.9333 113.332 14.48C112.826 14.0267 112.232 13.8 111.552 13.8C110.859 13.8 110.252 14.04 109.732 14.52ZM122.618 21V7.22H125.158V21H122.618ZM129.695 16.02V21H127.255V11.66H129.695V13.04C129.948 12.56 130.335 12.18 130.855 11.9C131.375 11.6067 131.915 11.46 132.475 11.46C133.582 11.46 134.435 11.8067 135.035 12.5C135.648 13.18 135.955 14.1733 135.955 15.48V21H133.515V15.92C133.515 15.2533 133.355 14.74 133.035 14.38C132.715 14.02 132.282 13.84 131.735 13.84C131.135 13.84 130.642 14.0133 130.255 14.36C129.882 14.7067 129.695 15.26 129.695 16.02ZM139.863 17.1C139.289 16.94 138.816 16.7533 138.443 16.54C138.069 16.3267 137.796 16.0867 137.623 15.82C137.463 15.5533 137.356 15.3067 137.303 15.08C137.249 14.84 137.223 14.56 137.223 14.24C137.223 13.4933 137.563 12.8467 138.243 12.3C138.923 11.74 139.729 11.46 140.663 11.46C141.649 11.46 142.489 11.7 143.183 12.18C143.889 12.66 144.263 13.4 144.303 14.4H141.983C141.969 14.08 141.836 13.84 141.583 13.68C141.329 13.52 141.043 13.44 140.723 13.44C139.936 13.44 139.543 13.7467 139.543 14.36C139.543 14.7067 139.869 14.9667 140.523 15.14L142.083 15.52C142.589 15.6533 143.016 15.84 143.363 16.08C143.709 16.32 143.956 16.5867 144.103 16.88C144.263 17.16 144.369 17.4133 144.423 17.64C144.489 17.8667 144.523 18.0933 144.523 18.32C144.523 19.2267 144.143 19.9333 143.383 20.44C142.636 20.9467 141.743 21.2 140.703 21.2C139.716 21.2 138.843 20.92 138.083 20.36C137.336 19.7867 136.956 19.02 136.943 18.06H139.223C139.249 18.3933 139.429 18.68 139.763 18.92C140.109 19.1467 140.503 19.2533 140.943 19.24C141.289 19.2267 141.576 19.1333 141.803 18.96C142.043 18.7867 142.163 18.5667 142.163 18.3C142.176 18.0733 142.096 17.8933 141.923 17.76C141.763 17.6133 141.503 17.5 141.143 17.42L139.863 17.1ZM151.825 16.64V11.66H154.265V21H151.825V19.68C151.571 20.16 151.198 20.5333 150.705 20.8C150.225 21.0667 149.738 21.2 149.245 21.2C148.111 21.2 147.211 20.8533 146.545 20.16C145.891 19.4667 145.565 18.4733 145.565 17.18V11.66H148.025V16.74C148.025 17.4467 148.198 17.9733 148.545 18.32C148.891 18.6533 149.311 18.82 149.805 18.82C150.378 18.82 150.858 18.6467 151.245 18.3C151.631 17.94 151.825 17.3867 151.825 16.64ZM158.472 17.7V21H156.032V11.66H158.472V13.86C158.699 13.06 159.052 12.46 159.532 12.06C160.012 11.66 160.539 11.46 161.112 11.46C161.712 11.46 162.226 11.5733 162.652 11.8L162.232 14C161.846 13.8267 161.372 13.74 160.812 13.74C159.252 13.74 158.472 15.06 158.472 17.7ZM170.14 21V19.8C169.86 20.24 169.433 20.58 168.86 20.82C168.3 21.06 167.76 21.18 167.24 21.18C165.96 21.18 164.846 20.7333 163.9 19.84C162.953 18.9333 162.48 17.76 162.48 16.32C162.48 14.88 162.946 13.7133 163.88 12.82C164.826 11.9133 165.946 11.46 167.24 11.46C167.76 11.46 168.293 11.5733 168.84 11.8C169.4 12.0133 169.833 12.3533 170.14 12.82V11.66H172.58V21H170.14ZM165.76 14.52C165.253 14.9867 165 15.5867 165 16.32C165 17.0533 165.253 17.66 165.76 18.14C166.28 18.6067 166.886 18.84 167.58 18.84C168.273 18.84 168.873 18.6133 169.38 18.16C169.886 17.6933 170.14 17.08 170.14 16.32C170.14 15.5467 169.88 14.9333 169.36 14.48C168.853 14.0267 168.26 13.8 167.58 13.8C166.886 13.8 166.28 14.04 165.76 14.52ZM176.785 16.02V21H174.345V11.66H176.785V13.04C177.038 12.56 177.425 12.18 177.945 11.9C178.465 11.6067 179.005 11.46 179.565 11.46C180.672 11.46 181.525 11.8067 182.125 12.5C182.738 13.18 183.045 14.1733 183.045 15.48V21H180.605V15.92C180.605 15.2533 180.445 14.74 180.125 14.38C179.805 14.02 179.372 13.84 178.825 13.84C178.225 13.84 177.732 14.0133 177.345 14.36C176.972 14.7067 176.785 15.26 176.785 16.02ZM185.573 19.82C184.586 18.9 184.093 17.7267 184.093 16.3C184.093 14.8733 184.586 13.7133 185.573 12.82C186.559 11.9133 187.746 11.46 189.133 11.46C189.919 11.46 190.653 11.62 191.333 11.94C192.013 12.26 192.573 12.7067 193.013 13.28L191.073 14.74C190.619 14.1267 189.973 13.82 189.133 13.82C188.426 13.82 187.813 14.0533 187.293 14.52C186.773 14.9733 186.513 15.5667 186.513 16.3C186.513 17.0333 186.773 17.6467 187.293 18.14C187.813 18.62 188.426 18.86 189.133 18.86C189.973 18.86 190.619 18.5467 191.073 17.92L193.033 19.36C192.593 19.9467 192.026 20.4 191.333 20.72C190.653 21.04 189.919 21.2 189.133 21.2C187.746 21.2 186.559 20.74 185.573 19.82ZM202.946 16.3C202.946 16.5667 202.933 16.8467 202.906 17.14H195.786C195.866 17.7533 196.14 18.24 196.606 18.6C197.086 18.96 197.673 19.14 198.366 19.14C198.86 19.14 199.32 19.04 199.746 18.84C200.173 18.6267 200.493 18.3267 200.706 17.94C201 18.1 201.62 18.4333 202.566 18.94C202.166 19.7 201.573 20.2667 200.786 20.64C200 21.0133 199.14 21.2 198.206 21.2C196.846 21.2 195.7 20.7467 194.766 19.84C193.833 18.92 193.366 17.74 193.366 16.3C193.366 14.86 193.833 13.6933 194.766 12.8C195.7 11.9067 196.846 11.46 198.206 11.46C199.566 11.46 200.693 11.9067 201.586 12.8C202.493 13.6933 202.946 14.86 202.946 16.3ZM195.766 15.48H200.566C200.473 14.8533 200.213 14.3667 199.786 14.02C199.36 13.6733 198.84 13.5 198.226 13.5C197.573 13.5 197.02 13.68 196.566 14.04C196.126 14.3867 195.86 14.8667 195.766 15.48Z" fill="#192533"/>
<circle cx="16.2969" cy="16" r="16" fill="#1456DA"/>
<g clip-path="url(#clip0_1_56)">
<path d="M23.2052 17.9502L18.9052 18.7719" stroke="white" stroke-width="1.5" stroke-linecap="round" stroke-linejoin="round"/>
<path d="M18.3098 13.065L15.4198 14.02C15.1962 14.0936 14.9533 14.0824 14.7374 13.9885C14.5215 13.8946 14.3476 13.7246 14.249 13.5108C14.1426 13.2826 14.1292 13.022 14.2115 12.7841C14.2937 12.5462 14.4653 12.3496 14.6898 12.2358L17.489 10.8283C17.7276 10.708 17.9883 10.6379 18.2551 10.6224C18.5218 10.6069 18.7889 10.6464 19.0398 10.7383L23.184 12.2541" stroke="white" stroke-width="1.5" stroke-linecap="round" stroke-linejoin="round"/>
<path d="M9.36816 17.9567H11.4057L14.3323 21.2367C14.4814 21.4094 14.6797 21.5324 14.9006 21.5892C15.1216 21.646 15.3546 21.6339 15.5685 21.5544C15.7823 21.475 15.9667 21.332 16.097 21.1447C16.2273 20.9575 16.2972 20.7348 16.2973 20.5067V19.9942L16.4432 20.0525C16.6525 20.1363 16.8792 20.1674 17.1034 20.1433C17.3276 20.1192 17.5424 20.0405 17.7291 19.9141C17.9159 19.7877 18.0688 19.6175 18.1745 19.4184C18.2803 19.2192 18.3356 18.9972 18.3357 18.7717H18.7432C18.9702 18.7716 19.1927 18.7082 19.3858 18.5888C19.5789 18.4694 19.735 18.2985 19.8365 18.0955C19.9381 17.8924 19.9811 17.6651 19.9608 17.4389C19.9404 17.2128 19.8576 16.9968 19.7215 16.815L17.1057 13.4634" stroke="white" stroke-width="1.5" stroke-linecap="round" stroke-linejoin="round"/>
<path d="M15.116 12.0207L14.8177 11.7749C14.5171 11.5535 14.1535 11.4341 13.7802 11.4341C13.5578 11.434 13.3374 11.4767 13.131 11.5599L9.42188 13.0432" stroke="white" stroke-width="1.5" stroke-linecap="round" stroke-linejoin="round"/>
<path d="M6.92188 11.6252H8.58854C8.80015 11.6164 9.00664 11.6918 9.16282 11.8348C9.31899 11.9779 9.41214 12.177 9.42187 12.3885V17.736C9.41214 17.9477 9.31902 18.1469 9.16287 18.2901C9.00672 18.4332 8.80023 18.5088 8.58854 18.5002H6.92188" stroke="white" stroke-width="1.5" stroke-linecap="round" stroke-linejoin="round"/>
<path d="M25.6719 18.5002H24.0052C23.7935 18.5088 23.587 18.4332 23.4309 18.2901C23.2747 18.1469 23.1816 17.9477 23.1719 17.736V12.3885C23.1816 12.177 23.2748 11.9779 23.4309 11.8348C23.5871 11.6918 23.7936 11.6164 24.0052 11.6252H25.6719" stroke="white" stroke-width="1.5" stroke-linecap="round" stroke-linejoin="round"/>
<path d="M16.2964 19.9942L15.4814 19.1792" stroke="white" stroke-width="1.5" stroke-linecap="round" stroke-linejoin="round"/>
<path d="M18.3356 18.7717L17.1123 17.5483" stroke="white" stroke-width="1.5" stroke-linecap="round" stroke-linejoin="round"/>
</g>
<defs>
<clipPath id="clip0_1_56">
<rect width="20" height="20" fill="white" transform="translate(6.29688 6)"/>
</clipPath>
</defs>
</svg>
