<svg width="259" height="32" viewBox="0 0 259 32" fill="none" xmlns="http://www.w3.org/2000/svg">
<path d="M52.9969 20.86C52.7035 21.1 52.0035 21.4 50.8969 21.76C49.8035 22.12 48.6702 22.3 47.4969 22.3C45.2302 22.3 43.3969 21.5733 41.9969 20.12C40.5969 18.6667 39.8969 16.8533 39.8969 14.68C39.8969 12.5333 40.6502 10.7267 42.1569 9.26C43.6635 7.79333 45.5702 7.06 47.8769 7.06C49.6235 7.06 51.3035 7.38 52.9169 8.02L53.3169 11.3L53.1569 11.36C52.1169 9.89333 51.2102 8.88 50.4369 8.32C49.6769 7.74667 48.7369 7.46 47.6169 7.46C45.8569 7.46 44.5502 8.11333 43.6969 9.42C42.8569 10.7267 42.4369 12.48 42.4369 14.68C42.4369 16.8667 42.8569 18.62 43.6969 19.94C44.5369 21.2467 45.8035 21.9 47.4969 21.9C48.8169 21.9 49.9102 21.5 50.7769 20.7C51.6435 19.9 52.4635 18.7133 53.2369 17.14L53.3969 17.2L52.9969 20.86ZM63.4559 22.3C61.5226 22.3 59.7826 21.5533 58.2359 20.06C56.7026 18.5533 55.9359 16.7667 55.9359 14.7C55.9359 12.6333 56.7026 10.8467 58.2359 9.34C59.7826 7.82 61.5226 7.06 63.4559 7.06C64.7093 7.06 65.9159 7.4 67.0759 8.08C68.2359 8.74667 69.1826 9.67333 69.9159 10.86C70.6493 12.0467 71.0159 13.3267 71.0159 14.7C71.0159 16.0733 70.6493 17.3533 69.9159 18.54C69.1826 19.7133 68.2359 20.6333 67.0759 21.3C65.9159 21.9667 64.7093 22.3 63.4559 22.3ZM63.4559 21.9C65.1226 21.9 66.3759 21.2467 67.2159 19.94C68.0559 18.6333 68.4759 16.8867 68.4759 14.7C68.4759 12.5267 68.0493 10.78 67.1959 9.46C66.3559 8.12667 65.1093 7.46 63.4559 7.46C61.8026 7.46 60.5559 8.12667 59.7159 9.46C58.8893 10.78 58.4759 12.5267 58.4759 14.7C58.4759 16.86 58.8893 18.6 59.7159 19.92C60.5559 21.24 61.8026 21.9 63.4559 21.9ZM74.805 9.46L74.885 18.02C74.885 18.9133 74.9717 19.62 75.145 20.14C75.3317 20.6467 75.705 21.2533 76.265 21.96V22H73.185V21.96C73.6783 21.28 74.005 20.68 74.165 20.16C74.325 19.6267 74.405 18.9133 74.405 18.02V10.18C74.3517 9.52667 74.2183 9.01333 74.005 8.64C73.7917 8.26667 73.405 7.85333 72.845 7.4V7.36H76.045L84.425 18.74L84.365 11.34C84.365 10.46 84.2783 9.76 84.105 9.24C83.945 8.70667 83.625 8.09333 83.145 7.4V7.36H86.025V7.4C85.5317 8.10667 85.205 8.72 85.045 9.24C84.885 9.76 84.805 10.46 84.805 11.34V22L84.085 22.06L74.805 9.46ZM96.7964 11.26L96.6164 11.32C95.9497 9.90667 95.2831 8.91333 94.6164 8.34C93.9497 7.75333 93.2364 7.46 92.4764 7.46C91.7964 7.46 91.2631 7.66667 90.8764 8.08C90.4897 8.48 90.2964 9.02 90.2964 9.7C90.2964 10.06 90.3631 10.4 90.4964 10.72C90.6431 11.04 90.8031 11.3067 90.9764 11.52C91.1497 11.7333 91.4164 11.96 91.7764 12.2C92.1497 12.44 92.4497 12.62 92.6764 12.74C92.9164 12.86 93.2764 13.0333 93.7564 13.26C94.2631 13.5133 94.6631 13.72 94.9564 13.88C95.2497 14.0267 95.5964 14.2533 95.9964 14.56C96.4097 14.8533 96.7231 15.1467 96.9364 15.44C97.1631 15.7333 97.3564 16.1067 97.5164 16.56C97.6897 17.0133 97.7764 17.5067 97.7764 18.04C97.7764 19.4533 97.2831 20.52 96.2964 21.24C95.3097 21.9467 94.0564 22.3 92.5364 22.3C91.1897 22.3 89.8164 22.04 88.4164 21.52L88.0164 17.82L88.1764 17.76C88.9364 19.1867 89.7164 20.2333 90.5164 20.9C91.3164 21.5667 92.1764 21.9 93.0964 21.9C93.9631 21.9 94.6297 21.64 95.0964 21.12C95.5631 20.5867 95.7964 19.9333 95.7964 19.16C95.7964 18.2933 95.5231 17.5867 94.9764 17.04C94.4431 16.4933 93.6831 15.98 92.6964 15.5C92.2831 15.3 91.9831 15.1533 91.7964 15.06C91.6097 14.9667 91.3364 14.8133 90.9764 14.6C90.6164 14.3867 90.3431 14.2067 90.1564 14.06C89.9831 13.9133 89.7697 13.72 89.5164 13.48C89.2631 13.2267 89.0764 12.9867 88.9564 12.76C88.8497 12.52 88.7497 12.24 88.6564 11.92C88.5631 11.5867 88.5164 11.24 88.5164 10.88C88.5164 9.58667 88.9564 8.62667 89.8364 8C90.7164 7.37333 91.8164 7.06 93.1364 7.06C94.2431 7.06 95.3297 7.25333 96.3964 7.64L96.7964 11.26ZM106.238 22.3C104.638 22.3 103.325 21.8867 102.298 21.06C101.285 20.22 100.778 18.9467 100.778 17.24V10.98C100.778 10.14 100.725 9.48667 100.618 9.02C100.525 8.55333 100.311 8.01333 99.9781 7.4V7.36H103.878V7.4C103.345 8.41333 103.078 9.60667 103.078 10.98V17.18C103.078 20.26 104.318 21.8 106.798 21.8C108.185 21.8 109.205 21.3467 109.858 20.44C110.511 19.5333 110.838 18.3867 110.838 17V11.34C110.838 10.4333 110.745 9.72 110.558 9.2C110.371 8.68 109.985 8.08 109.398 7.4V7.36H112.638L112.738 7.4C112.151 8.08 111.765 8.68 111.578 9.2C111.391 9.72 111.298 10.4333 111.298 11.34V16.98C111.298 18.5667 110.898 19.8533 110.098 20.84C109.311 21.8133 108.025 22.3 106.238 22.3ZM114.984 22V21.96C115.304 21.3467 115.517 20.8 115.624 20.32C115.731 19.84 115.784 19.1933 115.784 18.38V10.98C115.784 10.1667 115.731 9.52 115.624 9.04C115.517 8.56 115.304 8.01333 114.984 7.4V7.36H118.884V7.4C118.551 8.01333 118.331 8.55333 118.224 9.02C118.131 9.48667 118.084 10.14 118.084 10.98V21.72L121.104 21.6C122.437 21.5467 123.877 20.34 125.424 17.98L125.584 18.04L124.704 22H114.984ZM134.084 22H130.184V21.96C130.504 21.3467 130.718 20.8 130.824 20.32C130.931 19.84 130.984 19.1933 130.984 18.38V7.7L128.804 7.78C128.551 7.79333 128.224 8 127.824 8.4C127.438 8.8 127.091 9.20667 126.784 9.62C126.478 10.0333 126.111 10.5467 125.684 11.16C125.564 11.3333 125.478 11.46 125.424 11.54L125.264 11.48L126.024 7.36H138.244L139.004 11.48L138.844 11.54C138.711 11.3667 138.491 11.06 138.184 10.62C137.878 10.18 137.624 9.83333 137.424 9.58C137.238 9.32667 137.011 9.04667 136.744 8.74C136.491 8.42 136.258 8.18667 136.044 8.04C135.831 7.88 135.638 7.79333 135.464 7.78L133.284 7.7V18.38C133.284 19.22 133.331 19.8733 133.424 20.34C133.531 20.8067 133.751 21.3467 134.084 21.96V22ZM141.164 21.96C141.497 21.3467 141.71 20.8067 141.804 20.34C141.91 19.8733 141.964 19.22 141.964 18.38V10.98C141.964 10.14 141.91 9.48667 141.804 9.02C141.71 8.55333 141.497 8.01333 141.164 7.4V7.36H145.064V7.4C144.73 8.01333 144.51 8.55333 144.404 9.02C144.31 9.48667 144.264 10.14 144.264 10.98V18.38C144.264 19.22 144.31 19.8733 144.404 20.34C144.51 20.8067 144.73 21.3467 145.064 21.96V22H141.164V21.96ZM152.443 10.3L150.243 16.08H154.623L152.443 10.3ZM149.703 22H147.003V21.96C147.443 21.4933 147.783 21.0267 148.023 20.56C148.276 20.08 148.57 19.4 148.903 18.52L153.203 7.2H153.603L157.983 18.74C158.53 20.22 159.136 21.2933 159.803 21.96V22H155.823V21.96C156.01 21.7067 156.083 21.2733 156.043 20.66C156.016 20.0333 155.87 19.36 155.603 18.64L154.783 16.48H150.083L149.663 17.6C148.97 19.4 148.983 20.8533 149.703 21.96V22ZM170.556 10.3L168.356 16.08H172.736L170.556 10.3ZM167.816 22H165.116V21.96C165.556 21.4933 165.896 21.0267 166.136 20.56C166.39 20.08 166.683 19.4 167.016 18.52L171.316 7.2H171.716L176.096 18.74C176.643 20.22 177.25 21.2933 177.916 21.96V22H173.936V21.96C174.123 21.7067 174.196 21.2733 174.156 20.66C174.13 20.0333 173.983 19.36 173.716 18.64L172.896 16.48H168.196L167.776 17.6C167.083 19.4 167.096 20.8533 167.816 21.96V22ZM179.851 21.96C180.171 21.4267 180.384 20.96 180.491 20.56C180.598 20.16 180.651 19.6133 180.651 18.92V10.44C180.651 9.74667 180.598 9.2 180.491 8.8C180.384 8.4 180.171 7.93333 179.851 7.4V7.36C180.678 7.36 181.571 7.34667 182.531 7.32C183.504 7.29333 184.438 7.28 185.331 7.28C187.838 7.28 189.798 7.92 191.211 9.2C192.624 10.4667 193.331 12.2733 193.331 14.62C193.331 17.0067 192.638 18.8333 191.251 20.1C189.878 21.3667 187.904 22 185.331 22H179.851V21.96ZM182.951 7.68V21.66L185.171 21.6C187.171 21.5467 188.604 20.9733 189.471 19.88C190.351 18.7867 190.791 17.1267 190.791 14.9C190.791 12.4333 190.331 10.6133 189.411 9.44C188.491 8.26667 187.071 7.68 185.151 7.68H182.951ZM200.602 22.16L196.182 10.62C195.649 9.18 195.049 8.10667 194.382 7.4V7.36H198.542V7.4C198.329 7.72 198.215 8.16667 198.202 8.74C198.202 9.31333 198.329 9.97333 198.582 10.72L201.742 19.1L204.562 11.7C205.255 9.83333 205.269 8.4 204.602 7.4V7.36H207.262V7.4C206.489 8.25333 205.855 9.38667 205.362 10.8L201.002 22.16H200.602ZM209.195 21.96C209.528 21.3467 209.742 20.8067 209.835 20.34C209.942 19.8733 209.995 19.22 209.995 18.38V10.98C209.995 10.14 209.942 9.48667 209.835 9.02C209.742 8.55333 209.528 8.01333 209.195 7.4V7.36H213.095V7.4C212.762 8.01333 212.542 8.55333 212.435 9.02C212.342 9.48667 212.295 10.14 212.295 10.98V18.38C212.295 19.22 212.342 19.8733 212.435 20.34C212.542 20.8067 212.762 21.3467 213.095 21.96V22H209.195V21.96ZM224.554 11.26L224.374 11.32C223.708 9.90667 223.041 8.91333 222.374 8.34C221.708 7.75333 220.994 7.46 220.234 7.46C219.554 7.46 219.021 7.66667 218.634 8.08C218.248 8.48 218.054 9.02 218.054 9.7C218.054 10.06 218.121 10.4 218.254 10.72C218.401 11.04 218.561 11.3067 218.734 11.52C218.908 11.7333 219.174 11.96 219.534 12.2C219.908 12.44 220.208 12.62 220.434 12.74C220.674 12.86 221.034 13.0333 221.514 13.26C222.021 13.5133 222.421 13.72 222.714 13.88C223.008 14.0267 223.354 14.2533 223.754 14.56C224.168 14.8533 224.481 15.1467 224.694 15.44C224.921 15.7333 225.114 16.1067 225.274 16.56C225.448 17.0133 225.534 17.5067 225.534 18.04C225.534 19.4533 225.041 20.52 224.054 21.24C223.068 21.9467 221.814 22.3 220.294 22.3C218.948 22.3 217.574 22.04 216.174 21.52L215.774 17.82L215.934 17.76C216.694 19.1867 217.474 20.2333 218.274 20.9C219.074 21.5667 219.934 21.9 220.854 21.9C221.721 21.9 222.388 21.64 222.854 21.12C223.321 20.5867 223.554 19.9333 223.554 19.16C223.554 18.2933 223.281 17.5867 222.734 17.04C222.201 16.4933 221.441 15.98 220.454 15.5C220.041 15.3 219.741 15.1533 219.554 15.06C219.368 14.9667 219.094 14.8133 218.734 14.6C218.374 14.3867 218.101 14.2067 217.914 14.06C217.741 13.9133 217.528 13.72 217.274 13.48C217.021 13.2267 216.834 12.9867 216.714 12.76C216.608 12.52 216.508 12.24 216.414 11.92C216.321 11.5867 216.274 11.24 216.274 10.88C216.274 9.58667 216.714 8.62667 217.594 8C218.474 7.37333 219.574 7.06 220.894 7.06C222.001 7.06 223.088 7.25333 224.154 7.64L224.554 11.26ZM235.249 22.3C233.316 22.3 231.576 21.5533 230.029 20.06C228.496 18.5533 227.729 16.7667 227.729 14.7C227.729 12.6333 228.496 10.8467 230.029 9.34C231.576 7.82 233.316 7.06 235.249 7.06C236.502 7.06 237.709 7.4 238.869 8.08C240.029 8.74667 240.976 9.67333 241.709 10.86C242.442 12.0467 242.809 13.3267 242.809 14.7C242.809 16.0733 242.442 17.3533 241.709 18.54C240.976 19.7133 240.029 20.6333 238.869 21.3C237.709 21.9667 236.502 22.3 235.249 22.3ZM235.249 21.9C236.916 21.9 238.169 21.2467 239.009 19.94C239.849 18.6333 240.269 16.8867 240.269 14.7C240.269 12.5267 239.842 10.78 238.989 9.46C238.149 8.12667 236.902 7.46 235.249 7.46C233.596 7.46 232.349 8.12667 231.509 9.46C230.682 10.78 230.269 12.5267 230.269 14.7C230.269 16.86 230.682 18.6 231.509 19.92C232.349 21.24 233.596 21.9 235.249 21.9ZM245.398 21.96C245.718 21.3467 245.931 20.8 246.038 20.32C246.145 19.84 246.198 19.1933 246.198 18.38V10.98C246.198 10.1667 246.145 9.52 246.038 9.04C245.931 8.56 245.718 8.01333 245.398 7.4V7.36H250.498C253.871 7.36 255.558 8.52667 255.558 10.86C255.558 11.7267 255.318 12.4867 254.838 13.14C254.358 13.78 253.631 14.2533 252.658 14.56L255.038 19.22C255.451 20.0467 255.805 20.6267 256.098 20.96C256.405 21.2933 256.825 21.5933 257.358 21.86V22H253.838L250.238 14.94H248.498V18.38C248.498 19.22 248.545 19.8733 248.638 20.34C248.745 20.8067 248.965 21.3467 249.298 21.96V22H245.398V21.96ZM250.058 7.76H249.458C249.071 7.76 248.751 7.76667 248.498 7.78V14.54H250.058C252.165 14.54 253.218 13.3067 253.218 10.84C253.218 9.85333 252.978 9.09333 252.498 8.56C252.031 8.02667 251.218 7.76 250.058 7.76Z" fill="#192533"/>
<circle cx="16.2969" cy="16" r="16" fill="#192533"/>
<g clip-path="url(#clip0_516_1182)">
<path d="M23.2053 17.9502L18.9053 18.7719" stroke="white" stroke-width="1.5" stroke-linecap="round" stroke-linejoin="round"/>
<path d="M18.3098 13.065L15.4198 14.02C15.1962 14.0936 14.9533 14.0824 14.7374 13.9885C14.5215 13.8946 14.3476 13.7246 14.249 13.5108C14.1426 13.2826 14.1292 13.022 14.2115 12.7841C14.2937 12.5462 14.4653 12.3496 14.6898 12.2358L17.489 10.8283C17.7276 10.708 17.9883 10.6379 18.2551 10.6224C18.5218 10.6069 18.7889 10.6464 19.0398 10.7383L23.184 12.2541" stroke="white" stroke-width="1.5" stroke-linecap="round" stroke-linejoin="round"/>
<path d="M9.36816 17.9567H11.4057L14.3323 21.2367C14.4814 21.4094 14.6797 21.5324 14.9006 21.5892C15.1216 21.646 15.3546 21.6339 15.5685 21.5544C15.7823 21.475 15.9667 21.332 16.097 21.1447C16.2273 20.9575 16.2972 20.7348 16.2973 20.5067V19.9942L16.4432 20.0525C16.6525 20.1363 16.8792 20.1674 17.1034 20.1433C17.3276 20.1192 17.5424 20.0405 17.7291 19.9141C17.9159 19.7877 18.0688 19.6175 18.1745 19.4184C18.2803 19.2192 18.3356 18.9972 18.3357 18.7717H18.7432C18.9702 18.7716 19.1927 18.7082 19.3858 18.5888C19.5789 18.4694 19.735 18.2985 19.8365 18.0955C19.9381 17.8924 19.9811 17.6651 19.9608 17.4389C19.9404 17.2128 19.8576 16.9968 19.7215 16.815L17.1057 13.4634" stroke="white" stroke-width="1.5" stroke-linecap="round" stroke-linejoin="round"/>
<path d="M15.116 12.0207L14.8177 11.7749C14.5171 11.5535 14.1535 11.4341 13.7802 11.4341C13.5578 11.434 13.3374 11.4767 13.131 11.5599L9.42188 13.0432" stroke="white" stroke-width="1.5" stroke-linecap="round" stroke-linejoin="round"/>
<path d="M6.92188 11.6252H8.58854C8.80015 11.6164 9.00664 11.6918 9.16282 11.8348C9.31899 11.9779 9.41214 12.177 9.42187 12.3885V17.736C9.41214 17.9477 9.31902 18.1469 9.16287 18.2901C9.00672 18.4332 8.80023 18.5088 8.58854 18.5002H6.92188" stroke="white" stroke-width="1.5" stroke-linecap="round" stroke-linejoin="round"/>
<path d="M25.6719 18.5002H24.0052C23.7935 18.5088 23.587 18.4332 23.4309 18.2901C23.2747 18.1469 23.1816 17.9477 23.1719 17.736V12.3885C23.1816 12.177 23.2748 11.9779 23.4309 11.8348C23.5871 11.6918 23.7936 11.6164 24.0052 11.6252H25.6719" stroke="white" stroke-width="1.5" stroke-linecap="round" stroke-linejoin="round"/>
<path d="M16.2964 19.9942L15.4814 19.1792" stroke="white" stroke-width="1.5" stroke-linecap="round" stroke-linejoin="round"/>
<path d="M18.3356 18.7717L17.1123 17.5483" stroke="white" stroke-width="1.5" stroke-linecap="round" stroke-linejoin="round"/>
</g>
<defs>
<clipPath id="clip0_516_1182">
<rect width="20" height="20" fill="white" transform="translate(6.29688 6)"/>
</clipPath>
</defs>
</svg>
