<svg width="206" height="32" viewBox="0 0 206 32" fill="none" xmlns="http://www.w3.org/2000/svg">
<path d="M52.7 20.86C52.4067 21.1 51.7067 21.4 50.6 21.76C49.5067 22.12 48.3733 22.3 47.2 22.3C44.9333 22.3 43.1 21.5733 41.7 20.12C40.3 18.6667 39.6 16.8533 39.6 14.68C39.6 12.5333 40.3533 10.7267 41.86 9.26C43.3667 7.79333 45.2733 7.06 47.58 7.06C49.3267 7.06 51.0067 7.38 52.62 8.02L53.02 11.3L52.86 11.36C51.82 9.89333 50.9133 8.88 50.14 8.32C49.38 7.74667 48.44 7.46 47.32 7.46C45.56 7.46 44.2533 8.11333 43.4 9.42C42.56 10.7267 42.14 12.48 42.14 14.68C42.14 16.8667 42.56 18.62 43.4 19.94C44.24 21.2467 45.5067 21.9 47.2 21.9C48.52 21.9 49.6133 21.5 50.48 20.7C51.3467 19.9 52.1667 18.7133 52.94 17.14L53.1 17.2L52.7 20.86ZM63.1591 22.3C61.2257 22.3 59.4857 21.5533 57.9391 20.06C56.4057 18.5533 55.6391 16.7667 55.6391 14.7C55.6391 12.6333 56.4057 10.8467 57.9391 9.34C59.4857 7.82 61.2257 7.06 63.1591 7.06C64.4124 7.06 65.6191 7.4 66.7791 8.08C67.9391 8.74667 68.8857 9.67333 69.6191 10.86C70.3524 12.0467 70.7191 13.3267 70.7191 14.7C70.7191 16.0733 70.3524 17.3533 69.6191 18.54C68.8857 19.7133 67.9391 20.6333 66.7791 21.3C65.6191 21.9667 64.4124 22.3 63.1591 22.3ZM63.1591 21.9C64.8257 21.9 66.0791 21.2467 66.9191 19.94C67.7591 18.6333 68.1791 16.8867 68.1791 14.7C68.1791 12.5267 67.7524 10.78 66.8991 9.46C66.0591 8.12667 64.8124 7.46 63.1591 7.46C61.5057 7.46 60.2591 8.12667 59.4191 9.46C58.5924 10.78 58.1791 12.5267 58.1791 14.7C58.1791 16.86 58.5924 18.6 59.4191 19.92C60.2591 21.24 61.5057 21.9 63.1591 21.9ZM74.5081 9.46L74.5881 18.02C74.5881 18.9133 74.6748 19.62 74.8481 20.14C75.0348 20.6467 75.4081 21.2533 75.9681 21.96V22H72.8881V21.96C73.3815 21.28 73.7081 20.68 73.8681 20.16C74.0281 19.6267 74.1081 18.9133 74.1081 18.02V10.18C74.0548 9.52667 73.9215 9.01333 73.7081 8.64C73.4948 8.26667 73.1081 7.85333 72.5481 7.4V7.36H75.7481L84.1281 18.74L84.0681 11.34C84.0681 10.46 83.9815 9.76 83.8081 9.24C83.6481 8.70667 83.3281 8.09333 82.8481 7.4V7.36H85.7281V7.4C85.2348 8.10667 84.9081 8.72 84.7481 9.24C84.5881 9.76 84.5081 10.46 84.5081 11.34V22L83.7881 22.06L74.5081 9.46ZM96.4995 11.26L96.3195 11.32C95.6529 9.90667 94.9862 8.91333 94.3195 8.34C93.6529 7.75333 92.9395 7.46 92.1795 7.46C91.4995 7.46 90.9662 7.66667 90.5795 8.08C90.1929 8.48 89.9995 9.02 89.9995 9.7C89.9995 10.06 90.0662 10.4 90.1995 10.72C90.3462 11.04 90.5062 11.3067 90.6795 11.52C90.8529 11.7333 91.1195 11.96 91.4795 12.2C91.8529 12.44 92.1529 12.62 92.3795 12.74C92.6195 12.86 92.9795 13.0333 93.4595 13.26C93.9662 13.5133 94.3662 13.72 94.6595 13.88C94.9529 14.0267 95.2995 14.2533 95.6995 14.56C96.1129 14.8533 96.4262 15.1467 96.6395 15.44C96.8662 15.7333 97.0595 16.1067 97.2195 16.56C97.3929 17.0133 97.4795 17.5067 97.4795 18.04C97.4795 19.4533 96.9862 20.52 95.9995 21.24C95.0129 21.9467 93.7595 22.3 92.2395 22.3C90.8929 22.3 89.5195 22.04 88.1195 21.52L87.7195 17.82L87.8795 17.76C88.6395 19.1867 89.4195 20.2333 90.2195 20.9C91.0195 21.5667 91.8795 21.9 92.7995 21.9C93.6662 21.9 94.3329 21.64 94.7995 21.12C95.2662 20.5867 95.4995 19.9333 95.4995 19.16C95.4995 18.2933 95.2262 17.5867 94.6795 17.04C94.1462 16.4933 93.3862 15.98 92.3995 15.5C91.9862 15.3 91.6862 15.1533 91.4995 15.06C91.3129 14.9667 91.0395 14.8133 90.6795 14.6C90.3195 14.3867 90.0462 14.2067 89.8595 14.06C89.6862 13.9133 89.4729 13.72 89.2195 13.48C88.9662 13.2267 88.7795 12.9867 88.6595 12.76C88.5529 12.52 88.4529 12.24 88.3595 11.92C88.2662 11.5867 88.2195 11.24 88.2195 10.88C88.2195 9.58667 88.6595 8.62667 89.5395 8C90.4195 7.37333 91.5195 7.06 92.8395 7.06C93.9462 7.06 95.0329 7.25333 96.0995 7.64L96.4995 11.26ZM105.941 22.3C104.341 22.3 103.028 21.8867 102.001 21.06C100.988 20.22 100.481 18.9467 100.481 17.24V10.98C100.481 10.14 100.428 9.48667 100.321 9.02C100.228 8.55333 100.015 8.01333 99.6813 7.4V7.36H103.581V7.4C103.048 8.41333 102.781 9.60667 102.781 10.98V17.18C102.781 20.26 104.021 21.8 106.501 21.8C107.888 21.8 108.908 21.3467 109.561 20.44C110.215 19.5333 110.541 18.3867 110.541 17V11.34C110.541 10.4333 110.448 9.72 110.261 9.2C110.075 8.68 109.688 8.08 109.101 7.4V7.36H112.341L112.441 7.4C111.855 8.08 111.468 8.68 111.281 9.2C111.095 9.72 111.001 10.4333 111.001 11.34V16.98C111.001 18.5667 110.601 19.8533 109.801 20.84C109.015 21.8133 107.728 22.3 105.941 22.3ZM114.687 22V21.96C115.007 21.3467 115.22 20.8 115.327 20.32C115.434 19.84 115.487 19.1933 115.487 18.38V10.98C115.487 10.1667 115.434 9.52 115.327 9.04C115.22 8.56 115.007 8.01333 114.687 7.4V7.36H118.587V7.4C118.254 8.01333 118.034 8.55333 117.927 9.02C117.834 9.48667 117.787 10.14 117.787 10.98V21.72L120.807 21.6C122.14 21.5467 123.58 20.34 125.127 17.98L125.287 18.04L124.407 22H114.687ZM133.788 22H129.888V21.96C130.208 21.3467 130.421 20.8 130.528 20.32C130.634 19.84 130.688 19.1933 130.688 18.38V7.7L128.508 7.78C128.254 7.79333 127.928 8 127.528 8.4C127.141 8.8 126.794 9.20667 126.488 9.62C126.181 10.0333 125.814 10.5467 125.388 11.16C125.268 11.3333 125.181 11.46 125.128 11.54L124.968 11.48L125.728 7.36H137.948L138.708 11.48L138.548 11.54C138.414 11.3667 138.194 11.06 137.888 10.62C137.581 10.18 137.328 9.83333 137.128 9.58C136.941 9.32667 136.714 9.04667 136.447 8.74C136.194 8.42 135.961 8.18667 135.748 8.04C135.534 7.88 135.341 7.79333 135.168 7.78L132.988 7.7V18.38C132.988 19.22 133.034 19.8733 133.128 20.34C133.234 20.8067 133.454 21.3467 133.788 21.96V22ZM140.867 21.96C141.2 21.3467 141.413 20.8067 141.507 20.34C141.613 19.8733 141.667 19.22 141.667 18.38V10.98C141.667 10.14 141.613 9.48667 141.507 9.02C141.413 8.55333 141.2 8.01333 140.867 7.4V7.36H144.767V7.4C144.433 8.01333 144.213 8.55333 144.107 9.02C144.013 9.48667 143.967 10.14 143.967 10.98V18.38C143.967 19.22 144.013 19.8733 144.107 20.34C144.213 20.8067 144.433 21.3467 144.767 21.96V22H140.867V21.96ZM152.146 10.3L149.946 16.08H154.326L152.146 10.3ZM149.406 22H146.706V21.96C147.146 21.4933 147.486 21.0267 147.726 20.56C147.979 20.08 148.273 19.4 148.606 18.52L152.906 7.2H153.306L157.686 18.74C158.233 20.22 158.839 21.2933 159.506 21.96V22H155.526V21.96C155.713 21.7067 155.786 21.2733 155.746 20.66C155.719 20.0333 155.573 19.36 155.306 18.64L154.486 16.48H149.786L149.366 17.6C148.673 19.4 148.686 20.8533 149.406 21.96V22ZM173.959 22H170.059V21.96C170.379 21.3467 170.593 20.8 170.699 20.32C170.806 19.84 170.859 19.1933 170.859 18.38V7.7L168.679 7.78C168.426 7.79333 168.099 8 167.699 8.4C167.313 8.8 166.966 9.20667 166.659 9.62C166.353 10.0333 165.986 10.5467 165.559 11.16C165.439 11.3333 165.353 11.46 165.299 11.54L165.139 11.48L165.899 7.36H178.119L178.879 11.48L178.719 11.54C178.586 11.3667 178.366 11.06 178.059 10.62C177.753 10.18 177.499 9.83333 177.299 9.58C177.113 9.32667 176.886 9.04667 176.619 8.74C176.366 8.42 176.133 8.18667 175.919 8.04C175.706 7.88 175.513 7.79333 175.339 7.78L173.159 7.7V18.38C173.159 19.22 173.206 19.8733 173.299 20.34C173.406 20.8067 173.626 21.3467 173.959 21.96V22ZM183.955 10.3L181.755 16.08H186.135L183.955 10.3ZM181.215 22H178.515V21.96C178.955 21.4933 179.295 21.0267 179.535 20.56C179.788 20.08 180.081 19.4 180.415 18.52L184.715 7.2H185.115L189.495 18.74C190.041 20.22 190.648 21.2933 191.315 21.96V22H187.335V21.96C187.521 21.7067 187.595 21.2733 187.555 20.66C187.528 20.0333 187.381 19.36 187.115 18.64L186.295 16.48H181.595L181.175 17.6C180.481 19.4 180.495 20.8533 181.215 21.96V22ZM195.439 22H192.039V21.96C193.052 21.2667 194.032 20.2333 194.979 18.86L197.819 14.78L195.019 10.12C194.592 9.41333 194.199 8.85333 193.839 8.44C193.492 8.01333 193.092 7.66667 192.639 7.4V7.36H197.299V7.4C197.099 7.6 197.026 7.96 197.079 8.48C197.146 8.98667 197.332 9.49333 197.639 10L199.499 13.08L200.979 10.96C201.526 10.1867 201.839 9.52 201.919 8.96C201.999 8.4 201.892 7.88 201.599 7.4V7.36H204.999V7.4C203.839 8.14667 202.792 9.18 201.859 10.5L199.739 13.48L203.219 19.22C204.032 20.58 204.826 21.4933 205.599 21.96V22H200.939V21.96C201.139 21.76 201.206 21.4067 201.139 20.9C201.086 20.38 200.906 19.8667 200.599 19.36L198.079 15.18L195.859 18.4C195.499 18.92 195.266 19.4133 195.159 19.88C195.066 20.3467 195.046 20.7 195.099 20.94C195.152 21.1667 195.266 21.5067 195.439 21.96V22Z" fill="#243D31"/>
<circle cx="16" cy="16" r="16" fill="#243D31"/>
<g clip-path="url(#clip0_417_1150)">
<path d="M22.9084 17.9502L18.6084 18.7719" stroke="white" stroke-width="1.5" stroke-linecap="round" stroke-linejoin="round"/>
<path d="M18.0134 13.065L15.1234 14.02C14.8998 14.0936 14.6569 14.0824 14.441 13.9885C14.2251 13.8946 14.0512 13.7246 13.9526 13.5108C13.8463 13.2826 13.8328 13.022 13.9151 12.7841C13.9973 12.5462 14.1689 12.3496 14.3934 12.2358L17.1926 10.8283C17.4312 10.708 17.6919 10.6379 17.9587 10.6224C18.2254 10.6069 18.4925 10.6464 18.7434 10.7383L22.8876 12.2541" stroke="white" stroke-width="1.5" stroke-linecap="round" stroke-linejoin="round"/>
<path d="M9.0708 17.9567H11.1083L14.035 21.2367C14.184 21.4094 14.3823 21.5324 14.6033 21.5892C14.8242 21.646 15.0572 21.6339 15.2711 21.5544C15.4849 21.475 15.6694 21.332 15.7997 21.1447C15.9299 20.9575 15.9998 20.7348 16 20.5067V19.9942L16.1458 20.0525C16.3552 20.1363 16.5818 20.1674 16.806 20.1433C17.0302 20.1192 17.2451 20.0405 17.4318 19.9141C17.6185 19.7877 17.7714 19.6175 17.8772 19.4184C17.9829 19.2192 18.0382 18.9972 18.0383 18.7717H18.4458C18.6728 18.7716 18.8954 18.7082 19.0885 18.5888C19.2816 18.4694 19.4376 18.2985 19.5392 18.0955C19.6407 17.8924 19.6837 17.6651 19.6634 17.4389C19.6431 17.2128 19.5602 16.9968 19.4241 16.815L16.8083 13.4634" stroke="white" stroke-width="1.5" stroke-linecap="round" stroke-linejoin="round"/>
<path d="M14.8192 12.0207L14.5208 11.7749C14.2202 11.5535 13.8567 11.4341 13.4833 11.4341C13.2609 11.434 13.0405 11.4767 12.8342 11.5599L9.125 13.0432" stroke="white" stroke-width="1.5" stroke-linecap="round" stroke-linejoin="round"/>
<path d="M6.625 11.6252H8.29167C8.50328 11.6164 8.70976 11.6918 8.86594 11.8348C9.02212 11.9779 9.11527 12.177 9.125 12.3885V17.736C9.11526 17.9477 9.02214 18.1469 8.86599 18.2901C8.70984 18.4332 8.50336 18.5088 8.29167 18.5002H6.625" stroke="white" stroke-width="1.5" stroke-linecap="round" stroke-linejoin="round"/>
<path d="M25.375 18.5002H23.7083C23.4966 18.5088 23.2902 18.4332 23.134 18.2901C22.9779 18.1469 22.8847 17.9477 22.875 17.736V12.3885C22.8847 12.177 22.9779 11.9779 23.1341 11.8348C23.2902 11.6918 23.4967 11.6164 23.7083 11.6252H25.375" stroke="white" stroke-width="1.5" stroke-linecap="round" stroke-linejoin="round"/>
<path d="M16.0001 19.9942L15.1851 19.1792" stroke="white" stroke-width="1.5" stroke-linecap="round" stroke-linejoin="round"/>
<path d="M18.0383 18.7717L16.8149 17.5483" stroke="white" stroke-width="1.5" stroke-linecap="round" stroke-linejoin="round"/>
</g>
<defs>
<clipPath id="clip0_417_1150">
<rect width="20" height="20" fill="white" transform="translate(6 6)"/>
</clipPath>
</defs>
</svg>
