<svg width="119" height="24" viewBox="0 0 119 24" fill="none" xmlns="http://www.w3.org/2000/svg">
<g clip-path="url(#clip0_103_877)">
<path opacity="0.3" d="M22 12C22 6.47715 17.5228 2 12 2C6.47715 2 2 6.47715 2 12C2 17.5228 6.47715 22 12 22C17.5228 22 22 17.5228 22 12Z" fill="#F23936"/>
<path fill-rule="evenodd" clip-rule="evenodd" d="M6.16793 14.5548C5.86158 14.0953 5.98576 13.4744 6.44528 13.1681C6.90481 12.8617 7.52568 12.9859 7.83203 13.4454C8.98907 15.181 10.3543 16.0001 12 16.0001C13.6457 16.0001 15.0109 15.181 16.1679 13.4454C16.4743 12.9859 17.0952 12.8617 17.5547 13.1681C18.0142 13.4744 18.1384 14.0953 17.832 14.5548C16.3224 16.8193 14.3543 18.0001 12 18.0001C9.64565 18.0001 7.67757 16.8193 6.16793 14.5548Z" fill="#F23936"/>
</g>
<path d="M34.9606 19.36C33.6673 19.36 32.494 19.1 31.4406 18.58C30.4006 18.0467 29.574 17.26 28.9606 16.22C28.3473 15.18 28.0406 13.9067 28.0406 12.4C28.0406 11.2533 28.2273 10.2467 28.6006 9.38C28.974 8.51333 29.4806 7.78667 30.1206 7.2C30.774 6.61333 31.5206 6.17333 32.3606 5.88C33.214 5.58667 34.114 5.44 35.0606 5.44C35.8206 5.44 36.5206 5.52667 37.1606 5.7C37.8006 5.87333 38.4006 6.11333 38.9606 6.42L39.0406 8.88H38.8406L37.8406 7.28C37.7073 7.02667 37.5606 6.8 37.4006 6.6C37.2406 6.38667 37.0406 6.22667 36.8006 6.12C36.6006 6.02667 36.4006 5.96 36.2006 5.92C36.014 5.86667 35.774 5.84 35.4806 5.84C34.7073 5.84 34.0006 6.04667 33.3606 6.46C32.734 6.87333 32.2273 7.56 31.8406 8.52C31.4673 9.46667 31.2806 10.7667 31.2806 12.42C31.2806 14.06 31.4606 15.36 31.8206 16.32C32.1806 17.2667 32.6673 17.9467 33.2806 18.36C33.9073 18.76 34.6073 18.96 35.3806 18.96C35.8073 18.96 36.1473 18.9333 36.4006 18.88C36.654 18.8133 36.9073 18.72 37.1606 18.6C37.414 18.4933 37.6073 18.34 37.7406 18.14C37.874 17.9267 37.994 17.7 38.1006 17.46L38.9806 15.5H39.1806L39.1206 18.36C38.5606 18.6533 37.934 18.8933 37.2406 19.08C36.5473 19.2667 35.7873 19.36 34.9606 19.36ZM46.1514 19.3C45.1381 19.3 44.2581 19.0933 43.5114 18.68C42.7647 18.2533 42.1847 17.6533 41.7714 16.88C41.3714 16.1067 41.1714 15.2 41.1714 14.16C41.1714 13.12 41.3847 12.22 41.8114 11.46C42.2514 10.7 42.8447 10.1133 43.5914 9.7C44.3514 9.28667 45.2047 9.08 46.1514 9.08C47.0981 9.08 47.9447 9.28667 48.6914 9.7C49.4381 10.1 50.0247 10.68 50.4514 11.44C50.8914 12.2 51.1114 13.1067 51.1114 14.16C51.1114 15.2133 50.9047 16.1267 50.4914 16.9C50.0914 17.66 49.5181 18.2533 48.7714 18.68C48.0381 19.0933 47.1647 19.3 46.1514 19.3ZM46.1514 18.9C46.6181 18.9 46.9914 18.7667 47.2714 18.5C47.5514 18.2333 47.7514 17.76 47.8714 17.08C48.0047 16.4 48.0714 15.44 48.0714 14.2C48.0714 12.9467 48.0047 11.98 47.8714 11.3C47.7514 10.62 47.5514 10.1467 47.2714 9.88C46.9914 9.61333 46.6181 9.48 46.1514 9.48C45.6847 9.48 45.3047 9.61333 45.0114 9.88C44.7314 10.1467 44.5247 10.62 44.3914 11.3C44.2714 11.98 44.2114 12.9467 44.2114 14.2C44.2114 15.44 44.2714 16.4 44.3914 17.08C44.5247 17.76 44.7314 18.2333 45.0114 18.5C45.3047 18.7667 45.6847 18.9 46.1514 18.9ZM52.9898 19V18.8L53.2698 18.72C53.7365 18.5867 53.9698 18.26 53.9698 17.74V11.48C53.9698 11.1867 53.9232 10.9733 53.8298 10.84C53.7365 10.6933 53.5565 10.5933 53.2898 10.54L52.9898 10.46V10.26L56.4098 9.1L56.6098 9.3L56.7698 10.5C57.2365 10.0867 57.7632 9.74667 58.3498 9.48C58.9365 9.21333 59.5165 9.08 60.0898 9.08C60.9698 9.08 61.6432 9.32 62.1098 9.8C62.5898 10.28 62.8298 11.0133 62.8298 12V17.76C62.8298 18.28 63.0832 18.6067 63.5898 18.74L63.7698 18.8V19H59.0498V18.8L59.3098 18.72C59.7765 18.5733 60.0098 18.2467 60.0098 17.74V11.36C60.0098 10.5067 59.5832 10.08 58.7298 10.08C58.1432 10.08 57.5032 10.3733 56.8098 10.96V17.76C56.8098 18.28 57.0432 18.6067 57.5098 18.74L57.6898 18.8V19H52.9898ZM69.0123 19.3C68.359 19.3 67.7723 19.22 67.2523 19.06C66.7323 18.9133 66.2523 18.7267 65.8123 18.5L65.8323 16.12H66.0323L66.7123 17.32C67.0057 17.8533 67.3257 18.2533 67.6723 18.52C68.0323 18.7733 68.4857 18.9 69.0323 18.9C69.6723 18.9 70.1857 18.76 70.5723 18.48C70.9723 18.1867 71.1723 17.8 71.1723 17.32C71.1723 16.88 71.0323 16.52 70.7523 16.24C70.4723 15.96 69.9523 15.7067 69.1923 15.48L68.3523 15.22C67.539 14.98 66.899 14.6067 66.4323 14.1C65.9657 13.5933 65.7323 12.9733 65.7323 12.24C65.7323 11.36 66.079 10.6133 66.7723 10C67.4657 9.38667 68.459 9.08 69.7523 9.08C70.2723 9.08 70.759 9.14 71.2123 9.26C71.679 9.36667 72.1257 9.53333 72.5523 9.76L72.4323 11.92H72.2323L71.5323 10.68C71.279 10.24 71.0257 9.93333 70.7723 9.76C70.5323 9.57333 70.1657 9.48 69.6723 9.48C69.219 9.48 68.7923 9.60667 68.3923 9.86C67.9923 10.1133 67.7923 10.4733 67.7923 10.94C67.7923 11.3933 67.959 11.7533 68.2923 12.02C68.639 12.2867 69.1457 12.5333 69.8123 12.76L70.7123 13.02C71.6723 13.3133 72.359 13.72 72.7723 14.24C73.1857 14.7467 73.3923 15.36 73.3923 16.08C73.3923 17.0533 73.0057 17.8333 72.2323 18.42C71.4723 19.0067 70.399 19.3 69.0123 19.3ZM78.7661 19.3C78.2461 19.3 77.7661 19.2 77.3261 19C76.8994 18.8 76.5594 18.48 76.3061 18.04C76.0661 17.5867 75.9528 16.9933 75.9661 16.26L76.0261 11.12C76.0261 10.8133 75.9728 10.5933 75.8661 10.46C75.7594 10.3267 75.5928 10.2333 75.3661 10.18L75.1261 10.1V9.9L78.7061 9.2L78.9061 9.4L78.8061 12.24V17.06C78.8061 17.4867 78.9261 17.8 79.1661 18C79.4194 18.2 79.7328 18.3 80.1061 18.3C80.4794 18.3 80.8128 18.2467 81.1061 18.14C81.3994 18.0333 81.6928 17.8733 81.9861 17.66L82.0661 11.14C82.0661 10.8333 82.0194 10.62 81.9261 10.5C81.8328 10.3667 81.6594 10.2733 81.4061 10.22L81.2061 10.16V9.96L84.7061 9.2L84.9061 9.4L84.8461 12.24V17.66C84.8461 17.9533 84.8861 18.18 84.9661 18.34C85.0461 18.5 85.2194 18.6333 85.4861 18.74L85.6861 18.8V19L82.1861 19.2L82.0061 18.02C81.5661 18.38 81.0861 18.6867 80.5661 18.94C80.0594 19.18 79.4594 19.3 78.7661 19.3ZM87.5538 19V18.8L87.7938 18.72C88.2738 18.56 88.5138 18.2267 88.5138 17.72V7.02C88.5138 6.75333 88.4604 6.55333 88.3538 6.42C88.2471 6.27333 88.0604 6.16667 87.7938 6.1L87.5338 6.04V5.84L91.1938 4.98L91.4338 5.16L91.3538 7.96V14.8C91.3538 15.2933 91.3538 15.7867 91.3538 16.28C91.3671 16.76 91.3738 17.24 91.3738 17.72C91.3738 17.9867 91.4271 18.2067 91.5338 18.38C91.6404 18.54 91.8204 18.66 92.0738 18.74L92.3338 18.8V19H87.5538ZM98.0164 19.3C97.1631 19.3 96.4964 19.0867 96.0164 18.66C95.5497 18.2333 95.3164 17.5533 95.3164 16.62V9.78H93.9364V9.58L94.4164 9.5C94.8297 9.40667 95.1831 9.27333 95.4764 9.1C95.7831 8.92667 96.0831 8.69333 96.3764 8.4L98.0164 6.58H98.2164L98.1564 9.38H100.396V9.78H98.1364V16.98C98.1364 17.4467 98.2364 17.8 98.4364 18.04C98.6497 18.28 98.9164 18.4 99.2364 18.4C99.5164 18.4 99.7631 18.3333 99.9764 18.2C100.19 18.0533 100.403 17.86 100.616 17.62L100.816 17.82C100.55 18.2733 100.183 18.6333 99.7164 18.9C99.2497 19.1667 98.6831 19.3 98.0164 19.3ZM104.843 8.04C104.39 8.04 104.003 7.9 103.683 7.62C103.376 7.32667 103.223 6.96 103.223 6.52C103.223 6.06667 103.376 5.7 103.683 5.42C104.003 5.14 104.39 5 104.843 5C105.296 5 105.676 5.14 105.983 5.42C106.29 5.7 106.443 6.06667 106.443 6.52C106.443 6.96 106.29 7.32667 105.983 7.62C105.676 7.9 105.296 8.04 104.843 8.04ZM102.483 19V18.8L102.763 18.72C103.03 18.64 103.21 18.52 103.303 18.36C103.41 18.2 103.463 17.9867 103.463 17.72V11.46C103.463 11.18 103.41 10.9733 103.303 10.84C103.21 10.6933 103.03 10.5933 102.763 10.54L102.483 10.48V10.28L106.143 9.1L106.343 9.3L106.283 12.14V17.74C106.283 18.0067 106.33 18.22 106.423 18.38C106.53 18.54 106.71 18.66 106.963 18.74L107.163 18.8V19H102.483ZM111.968 19.3C111.195 19.3 110.542 19.08 110.008 18.64C109.488 18.2 109.228 17.5667 109.228 16.74C109.228 16.1133 109.548 15.54 110.188 15.02C110.828 14.4867 111.835 14.0867 113.208 13.82C113.422 13.78 113.662 13.74 113.928 13.7C114.195 13.6467 114.475 13.5933 114.768 13.54V11.96C114.768 11.0533 114.655 10.42 114.428 10.06C114.215 9.68667 113.875 9.5 113.408 9.5C113.088 9.5 112.835 9.60667 112.648 9.82C112.462 10.02 112.342 10.3733 112.288 10.88L112.248 11.1C112.222 11.6733 112.082 12.0933 111.828 12.36C111.575 12.6267 111.262 12.76 110.888 12.76C110.542 12.76 110.255 12.6533 110.028 12.44C109.802 12.2267 109.688 11.94 109.688 11.58C109.688 11.0333 109.875 10.5733 110.248 10.2C110.635 9.82667 111.142 9.54667 111.768 9.36C112.395 9.17333 113.075 9.08 113.808 9.08C114.995 9.08 115.908 9.37333 116.548 9.96C117.202 10.5333 117.528 11.4733 117.528 12.78V17.2C117.528 17.8 117.808 18.1 118.368 18.1H118.808L118.988 18.26C118.735 18.58 118.455 18.8267 118.148 19C117.855 19.1733 117.435 19.26 116.888 19.26C116.302 19.26 115.835 19.1267 115.488 18.86C115.155 18.58 114.935 18.2133 114.828 17.76C114.428 18.1867 114.015 18.5533 113.588 18.86C113.175 19.1533 112.635 19.3 111.968 19.3ZM113.188 18.08C113.455 18.08 113.702 18.02 113.928 17.9C114.168 17.7667 114.448 17.5667 114.768 17.3V13.94C114.635 13.9667 114.502 13.9933 114.368 14.02C114.235 14.0467 114.082 14.0733 113.908 14.1C113.295 14.26 112.802 14.5333 112.428 14.92C112.068 15.2933 111.888 15.8 111.888 16.44C111.888 16.9867 112.015 17.4 112.268 17.68C112.522 17.9467 112.828 18.08 113.188 18.08Z" fill="#F23936"/>
<defs>
<clipPath id="clip0_103_877">
<rect width="24" height="24" fill="white"/>
</clipPath>
</defs>
</svg>
