<svg width="159" height="32" viewBox="0 0 159 32" fill="none" xmlns="http://www.w3.org/2000/svg">
<path d="M46.68 24.22C45.3067 24.22 44.1067 23.9133 43.08 23.3C42.0533 22.6733 41.2533 21.8067 40.68 20.7C40.1067 19.58 39.82 18.2733 39.82 16.78C39.82 15.2867 40.1133 13.98 40.7 12.86C41.2867 11.74 42.1 10.8667 43.14 10.24C44.1933 9.61333 45.4067 9.3 46.78 9.3C47.8733 9.3 48.86 9.50667 49.74 9.92C50.62 10.32 51.3533 10.8867 51.94 11.62C52.5267 12.3533 52.9067 13.2133 53.08 14.2H50.98C50.7133 13.2533 50.2 12.5133 49.44 11.98C48.68 11.4467 47.7733 11.18 46.72 11.18C45.7467 11.18 44.8933 11.4133 44.16 11.88C43.44 12.3333 42.88 12.98 42.48 13.82C42.08 14.6467 41.88 15.6267 41.88 16.76C41.88 17.88 42.08 18.86 42.48 19.7C42.88 20.54 43.4467 21.1933 44.18 21.66C44.9133 22.1133 45.76 22.34 46.72 22.34C47.7867 22.34 48.7067 22.08 49.48 21.56C50.2667 21.0267 50.7933 20.3133 51.06 19.42H53.14C52.94 20.38 52.5333 21.22 51.92 21.94C51.32 22.66 50.5667 23.22 49.66 23.62C48.7667 24.02 47.7733 24.22 46.68 24.22ZM69.5833 16.76C69.5833 18.2267 69.2833 19.5267 68.6833 20.66C68.0966 21.78 67.2766 22.66 66.2233 23.3C65.1833 23.9267 63.9766 24.24 62.6033 24.24C61.2566 24.24 60.0566 23.9267 59.0033 23.3C57.9633 22.66 57.1499 21.78 56.5633 20.66C55.9766 19.54 55.6833 18.24 55.6833 16.76C55.6833 15.2933 55.9766 14 56.5633 12.88C57.1633 11.76 57.9833 10.88 59.0233 10.24C60.0633 9.6 61.2633 9.28 62.6233 9.28C63.9966 9.28 65.2033 9.6 66.2433 10.24C67.2833 10.88 68.0966 11.76 68.6833 12.88C69.2833 14 69.5833 15.2933 69.5833 16.76ZM67.5233 16.76C67.5233 15.64 67.3166 14.66 66.9033 13.82C66.5033 12.98 65.9366 12.3333 65.2033 11.88C64.4699 11.4133 63.6099 11.18 62.6233 11.18C61.6499 11.18 60.7966 11.4133 60.0633 11.88C59.3299 12.3333 58.7566 12.98 58.3433 13.82C57.9433 14.66 57.7433 15.64 57.7433 16.76C57.7433 17.88 57.9433 18.86 58.3433 19.7C58.7566 20.54 59.3299 21.1933 60.0633 21.66C60.7966 22.1267 61.6499 22.36 62.6233 22.36C63.6099 22.36 64.4699 22.1267 65.2033 21.66C65.9366 21.18 66.5033 20.52 66.9033 19.68C67.3166 18.84 67.5233 17.8667 67.5233 16.76ZM75.0502 24H73.0902V9.54H75.0502L82.9902 21.54H82.4502V9.54H84.4102V24H82.4502L74.5102 12H75.0502V24ZM87.7814 13.44C87.7814 12.6133 87.9881 11.8867 88.4014 11.26C88.8147 10.6333 89.3947 10.1467 90.1414 9.8C90.9014 9.45333 91.7747 9.28 92.7614 9.28C93.6814 9.28 94.4814 9.44667 95.1614 9.78C95.8547 10.1 96.3947 10.56 96.7814 11.16C97.1814 11.76 97.4081 12.48 97.4614 13.32H95.4814C95.4281 12.6 95.1614 12.04 94.6814 11.64C94.2014 11.24 93.5547 11.04 92.7414 11.04C91.8347 11.04 91.1081 11.2533 90.5614 11.68C90.0147 12.0933 89.7414 12.66 89.7414 13.38C89.7414 13.9667 89.9081 14.44 90.2414 14.8C90.5747 15.1467 91.0814 15.4 91.7614 15.56L94.1414 16.12C95.3281 16.3867 96.2147 16.8467 96.8014 17.5C97.4014 18.14 97.7014 18.9667 97.7014 19.98C97.7014 20.8467 97.4881 21.6 97.0614 22.24C96.6481 22.88 96.0547 23.3733 95.2814 23.72C94.5214 24.0667 93.6281 24.24 92.6014 24.24C91.6281 24.24 90.7681 24.08 90.0214 23.76C89.2881 23.4267 88.7081 22.96 88.2814 22.36C87.8681 21.7467 87.6347 21.0333 87.5814 20.22H89.5814C89.5947 20.9133 89.8747 21.4667 90.4214 21.88C90.9681 22.28 91.6947 22.48 92.6014 22.48C93.5614 22.48 94.3214 22.2667 94.8814 21.84C95.4547 21.4133 95.7414 20.8467 95.7414 20.14C95.7414 19.5667 95.5814 19.1 95.2614 18.74C94.9414 18.38 94.4347 18.12 93.7414 17.96L91.3614 17.42C90.1881 17.1533 89.2947 16.6867 88.6814 16.02C88.0814 15.34 87.7814 14.48 87.7814 13.44ZM101.064 18.86V9.54H103.024V18.74C103.024 19.9 103.331 20.7933 103.944 21.42C104.571 22.0333 105.458 22.34 106.604 22.34C107.738 22.34 108.611 22.0267 109.224 21.4C109.838 20.7733 110.144 19.8867 110.144 18.74V9.54H112.124V18.86C112.124 19.9667 111.898 20.92 111.444 21.72C111.004 22.52 110.371 23.14 109.544 23.58C108.718 24.02 107.738 24.24 106.604 24.24C105.471 24.24 104.484 24.0267 103.644 23.6C102.818 23.16 102.178 22.54 101.724 21.74C101.284 20.9267 101.064 19.9667 101.064 18.86ZM118.343 9.54V24H116.383V9.54H118.343ZM116.723 24V22.18H124.703V24H116.723ZM131.268 10.44V24H129.308V10.44H131.268ZM124.948 11.34V9.54H135.608V11.34H124.948ZM140.538 9.54V24H138.578V9.54H140.538ZM150.91 24.22C149.537 24.22 148.337 23.9133 147.31 23.3C146.284 22.6733 145.484 21.8067 144.91 20.7C144.337 19.58 144.05 18.2733 144.05 16.78C144.05 15.2867 144.344 13.98 144.93 12.86C145.517 11.74 146.33 10.8667 147.37 10.24C148.424 9.61333 149.637 9.3 151.01 9.3C152.104 9.3 153.09 9.50667 153.97 9.92C154.85 10.32 155.584 10.8867 156.17 11.62C156.757 12.3533 157.137 13.2133 157.31 14.2H155.21C154.944 13.2533 154.43 12.5133 153.67 11.98C152.91 11.4467 152.004 11.18 150.95 11.18C149.977 11.18 149.124 11.4133 148.39 11.88C147.67 12.3333 147.11 12.98 146.71 13.82C146.31 14.6467 146.11 15.6267 146.11 16.76C146.11 17.88 146.31 18.86 146.71 19.7C147.11 20.54 147.677 21.1933 148.41 21.66C149.144 22.1133 149.99 22.34 150.95 22.34C152.017 22.34 152.937 22.08 153.71 21.56C154.497 21.0267 155.024 20.3133 155.29 19.42H157.37C157.17 20.38 156.764 21.22 156.15 21.94C155.55 22.66 154.797 23.22 153.89 23.62C152.997 24.02 152.004 24.22 150.91 24.22Z" fill="#192533"/>
<circle cx="16" cy="16" r="16" fill="#192533"/>
<g clip-path="url(#clip0_667_1593)">
<path d="M22.9074 17.9502L18.6074 18.7719" stroke="white" stroke-width="1.5" stroke-linecap="round" stroke-linejoin="round"/>
<path d="M18.0129 13.065L15.1229 14.02C14.8993 14.0936 14.6564 14.0824 14.4405 13.9885C14.2246 13.8946 14.0508 13.7246 13.9521 13.5108C13.8458 13.2826 13.8323 13.022 13.9146 12.7841C13.9968 12.5462 14.1684 12.3496 14.3929 12.2358L17.1921 10.8283C17.4307 10.708 17.6914 10.6379 17.9582 10.6224C18.2249 10.6069 18.492 10.6464 18.7429 10.7383L22.8871 12.2541" stroke="white" stroke-width="1.5" stroke-linecap="round" stroke-linejoin="round"/>
<path d="M9.07031 17.9567H11.1078L14.0345 21.2367C14.1835 21.4094 14.3818 21.5324 14.6028 21.5892C14.8237 21.646 15.0568 21.6339 15.2706 21.5544C15.4845 21.475 15.6689 21.332 15.7992 21.1447C15.9295 20.9575 15.9994 20.7348 15.9995 20.5067V19.9942L16.1453 20.0525C16.3547 20.1363 16.5813 20.1674 16.8055 20.1433C17.0297 20.1192 17.2446 20.0405 17.4313 19.9141C17.618 19.7877 17.7709 19.6175 17.8767 19.4184C17.9824 19.2192 18.0377 18.9972 18.0378 18.7717H18.4453C18.6724 18.7716 18.8949 18.7082 19.088 18.5888C19.2811 18.4694 19.4371 18.2985 19.5387 18.0955C19.6402 17.8924 19.6832 17.6651 19.6629 17.4389C19.6426 17.2128 19.5598 16.9968 19.4236 16.815L16.8078 13.4634" stroke="white" stroke-width="1.5" stroke-linecap="round" stroke-linejoin="round"/>
<path d="M14.8192 12.0207L14.5208 11.7749C14.2202 11.5535 13.8567 11.4341 13.4833 11.4341C13.2609 11.434 13.0405 11.4767 12.8342 11.5599L9.125 13.0432" stroke="white" stroke-width="1.5" stroke-linecap="round" stroke-linejoin="round"/>
<path d="M6.625 11.6252H8.29167C8.50328 11.6164 8.70976 11.6918 8.86594 11.8348C9.02212 11.9779 9.11527 12.177 9.125 12.3885V17.736C9.11526 17.9477 9.02214 18.1469 8.86599 18.2901C8.70984 18.4332 8.50336 18.5088 8.29167 18.5002H6.625" stroke="white" stroke-width="1.5" stroke-linecap="round" stroke-linejoin="round"/>
<path d="M25.375 18.5002H23.7083C23.4966 18.5088 23.2902 18.4332 23.134 18.2901C22.9779 18.1469 22.8847 17.9477 22.875 17.736V12.3885C22.8847 12.177 22.9779 11.9779 23.1341 11.8348C23.2902 11.6918 23.4967 11.6164 23.7083 11.6252H25.375" stroke="white" stroke-width="1.5" stroke-linecap="round" stroke-linejoin="round"/>
<path d="M16.0005 19.9942L15.1855 19.1792" stroke="white" stroke-width="1.5" stroke-linecap="round" stroke-linejoin="round"/>
<path d="M18.0378 18.7717L16.8145 17.5483" stroke="white" stroke-width="1.5" stroke-linecap="round" stroke-linejoin="round"/>
</g>
<defs>
<clipPath id="clip0_667_1593">
<rect width="20" height="20" fill="white" transform="translate(6 6)"/>
</clipPath>
</defs>
</svg>
