<svg width="706" height="510" viewBox="0 0 706 510" fill="none" xmlns="http://www.w3.org/2000/svg">
<path d="M349.837 376.338C346.576 372.206 341.855 369.741 336.967 368.891C332.073 367.911 327.106 368.656 322.483 370.315C317.881 372.056 313.553 374.595 309.592 377.685C305.565 380.684 302.019 384.067 301.68 388.013C301.425 389.96 301.934 391.684 303.144 392.859C304.332 394.049 306.343 394.681 308.485 394.73C310.67 394.787 312.805 394.33 314.894 393.309C317.021 392.287 319.112 390.907 321.289 389.464C323.466 388.028 325.714 386.465 328.274 385.304C330.826 384.141 333.516 383.349 336.247 382.977C341.7 382.251 347.302 383.095 352 385.509C346.879 384.264 341.617 384.286 336.796 385.654C331.859 386.882 327.939 389.655 323.892 392.958C321.853 394.589 319.694 396.29 317.15 397.642C314.61 399.055 311.528 399.953 308.462 399.998C305.407 400.052 301.974 399.22 299.336 396.778C296.681 394.351 295.66 390.543 296.098 387.367C296.481 384.13 298.109 381.194 300.052 378.988C302.016 376.745 304.225 375 306.432 373.464C310.884 370.388 315.753 367.655 321.149 366.197C326.476 364.68 332.388 364.501 337.663 366.263C342.897 367.945 347.647 371.523 349.837 376.338Z" fill="#BCCBE3"/>
<path d="M446 424C446.33 424.335 446.663 424.669 447 425" stroke="#EAEAEA" stroke-miterlimit="10"/>
<path d="M449.099 427.061C484.397 469.914 553.931 479.557 599.912 448.028C647.059 415.699 662.981 345.895 635.619 295.721C608.258 245.548 542.101 220.988 488.154 239.925C466.461 247.54 446.187 262.279 437.294 283.468C424.466 314.037 439.945 352.08 468.251 369.361C496.556 386.643 534.057 384.687 563.358 369.151C614.927 341.81 639.513 273.594 619.301 218.863C599.09 164.132 538.008 128.437 480.049 135.402C422.089 142.368 371.962 189.845 359.574 246.855C347.773 301.166 366.629 361.391 342.481 411.455C322.728 452.407 278.313 476.071 234.099 486.77C184.324 498.814 129.279 497.153 84.9591 471.508C40.6392 445.863 10.4585 392.871 21.168 342.823C28.5226 308.454 53.2148 280.051 81.4765 259.133C114.344 234.805 154.476 218.292 195.326 220.339C236.176 222.385 277.104 245.472 293.692 282.834C310.28 320.196 296.687 370.34 260.216 388.842C228.964 404.697 189.712 395.091 161.336 374.534C111.826 338.667 89.0124 269.892 107.279 211.573C125.546 153.253 183.526 109.751 244.663 108.495C276.832 107.834 308.142 117.661 339.652 124.162C371.163 130.663 405.238 133.596 434.401 120.012C463.564 106.428 484.734 71.4308 473.129 41.4407C464.561 19.2978 440.981 5.9651 417.515 2.26851C377.194 -4.08355 334.98 13.9409 308.142 44.6756C281.303 75.4107 269.158 117.38 270.668 158.145C272.178 198.909 286.549 238.484 307.407 273.549C336.632 322.679 380.099 368.352 381.795 425.482C382.154 437.576 380.402 450.101 374.12 460.444C368.33 469.978 358.129 477.301 347.098 477.909" stroke="#EAEAEA" stroke-miterlimit="10" stroke-dasharray="2.82 2.82"/>
<path d="M345 478.034C344.667 478.035 344.333 478.024 344 478" stroke="#EAEAEA" stroke-miterlimit="10"/>
<path d="M613.615 507C622.718 502.101 631.518 496.597 640 490.93C618.302 485.719 594.967 487.5 574.321 495.944C567.164 498.871 560.347 502.598 554 507L613.615 507Z" fill="#869EC9"/>
<path d="M587.53 508C596.296 501.112 604.185 493.099 610.861 484.134C625.428 464.574 636.389 439.402 656 425C629.668 428.413 605.625 442.562 585.965 460.547C570.531 474.666 557.476 491.122 545 508L587.53 508Z" fill="#BCCBE3"/>
<path d="M565.79 508C567.568 505.363 569.238 502.648 570.821 499.899C596.706 454.952 604.486 399.556 589.241 350C564.221 377.013 548.023 412.033 543.654 448.556C541.896 463.252 542.001 478.132 540.027 492.801C539.341 497.9 538.362 503.012 537 508H565.79Z" fill="#E8EDF7"/>
<path d="M507.314 508H542.663C551.371 492.462 556.532 475.387 557.732 456.563C559.66 426.283 551.161 396.547 533.355 372C518.428 386.867 509.636 407.104 505.764 427.828C501.891 448.552 502.638 469.871 504.664 490.857C505.209 496.503 505.99 502.357 507.314 508Z" fill="#BCCBE3"/>
<path d="M594.64 475.782C596.996 469.296 597.763 462.248 596.858 455.412M562 505C573.575 498.269 583.31 488.176 592.368 478.145C604.446 464.771 616.605 450.619 633 443" stroke="white" stroke-miterlimit="10"/>
<path d="M605.161 464.695C610.087 462.48 615.719 461.879 621 463.005M612.807 457.096C614.66 453.531 615.262 449.327 614.485 445.383M590.494 481C596.206 478.55 602.848 478.367 608.686 480.498M531 447.696C535.394 440.152 541.606 433.683 548.957 429" stroke="white" stroke-miterlimit="10"/>
<path d="M529.146 507C525.306 489.241 527.3 470.166 529.841 451.921C532.939 429.678 536.691 406.733 531.2 385" stroke="white" stroke-miterlimit="10"/>
<path d="M533.796 429.151C531.977 422.714 528.066 416.884 522.795 412.756M534.921 415.866C536.827 411.283 540.336 407.383 544.697 405M529.999 456C527.778 448.631 522.667 442.172 516 438.309M569 438.504C566.634 430.209 562.255 422.495 556.344 416.206" stroke="white" stroke-miterlimit="10"/>
<path d="M549 506C562.535 487.926 566.11 464.578 568.541 442.215C570.972 419.851 572.911 396.637 584 377" stroke="white" stroke-miterlimit="10"/>
<path d="M570.656 419.077C574.11 413.299 579.488 408.629 585.782 405.942M572.936 405.942C572.213 401.034 569.724 396.388 566 393M567.563 446C571.656 439.421 578.387 434.439 586 432.356" stroke="white" stroke-miterlimit="10"/>
<path d="M92.3845 507C83.2825 502.101 74.4817 496.597 66 490.93C87.6977 485.719 111.033 487.5 131.679 495.944C138.836 498.871 145.653 502.598 152 507L92.3845 507Z" fill="#869EC9"/>
<path d="M118.47 508C109.704 501.112 101.815 493.099 95.1389 484.134C80.5722 464.574 69.6109 439.402 50 425C76.332 428.413 100.375 442.562 120.035 460.547C135.469 474.666 148.524 491.122 161 508L118.47 508Z" fill="#BCCBE3"/>
<path d="M141.21 508C139.432 505.363 137.762 502.648 136.179 499.899C110.294 454.952 102.514 399.556 117.759 350C142.778 377.013 158.977 412.033 163.346 448.556C165.104 463.252 164.999 478.132 166.973 492.801C167.659 497.9 168.638 503.012 170 508H141.21Z" fill="#E8EDF7"/>
<path d="M202.686 508H167.337C158.629 492.462 153.468 475.387 152.268 456.563C150.34 426.283 158.839 396.547 176.645 372C191.572 386.867 200.364 407.104 204.236 427.828C208.109 448.552 207.361 469.871 205.336 490.857C204.791 496.503 204.011 502.357 202.686 508Z" fill="#BCCBE3"/>
<path d="M117.36 475.782C115.004 469.296 114.236 462.248 115.142 455.412M150 505C138.425 498.269 128.691 488.176 119.632 478.145C107.554 464.771 95.3951 450.619 79 443" stroke="white" stroke-miterlimit="10"/>
<path d="M106.839 464.695C101.913 462.48 96.2808 461.879 91 463.005M99.1929 457.096C97.3397 453.531 96.7378 449.327 97.5152 445.383M121.506 481C115.794 478.55 109.152 478.367 103.314 480.498M181 447.696C176.606 440.152 170.394 433.683 163.043 429" stroke="white" stroke-miterlimit="10"/>
<path d="M181.854 507C185.694 489.241 183.7 470.166 181.159 451.921C178.061 429.678 174.309 406.733 179.8 385" stroke="white" stroke-miterlimit="10"/>
<path d="M177.204 429.151C179.023 422.714 182.934 416.884 188.204 412.756M176.079 415.866C174.173 411.283 170.664 407.383 166.303 405M181.001 456C183.222 448.631 188.333 442.172 195 438.309M142 438.504C144.366 430.209 148.745 422.495 154.656 416.206" stroke="white" stroke-miterlimit="10"/>
<path d="M163 506C149.465 487.926 145.89 464.578 143.459 442.215C141.028 419.851 139.089 396.637 128 377" stroke="white" stroke-miterlimit="10"/>
<path d="M140.344 419.077C136.89 413.299 131.512 408.629 125.219 405.942M138.064 405.942C138.787 401.034 141.276 396.388 145 393M143.437 446C139.345 439.421 132.613 434.439 125 432.356" stroke="white" stroke-miterlimit="10"/>
<path d="M0 507H706V510H0V507Z" fill="#869EC9"/>
<path d="M242.297 289.646C244.06 294.399 244.584 299.671 243.566 304.996C240.592 320.551 225.598 330.741 210.08 327.763C206.44 327.065 203.083 325.701 200.138 323.816C196.021 331.749 187.072 336.392 177.874 334.627C175.147 334.104 172.649 333.072 170.469 331.634C166.904 333.674 162.626 334.497 158.293 333.665C149.373 331.954 143.303 323.854 143.907 314.995C133.795 312.251 127.361 302.113 129.366 291.627C130.745 284.416 135.778 278.831 142.175 276.447C141.954 274.14 142.065 271.814 142.502 269.538C144.602 258.554 153.759 250.7 164.361 249.819C164.169 247.945 164.252 246.053 164.608 244.203C166.335 235.175 174.047 228.796 182.847 228.444C185.47 221.244 193.004 216.799 200.757 218.286C204.582 219.02 207.81 221.055 210.078 223.855C213.211 222.015 216.904 221.38 220.47 222.069C223.647 222.679 226.401 224.251 228.477 226.425C233.152 222.463 239.503 220.573 245.985 221.817C257.343 223.996 264.8 234.99 262.622 246.379C261.363 252.965 257.155 258.241 251.629 261.08C253.316 265.099 253.882 269.66 252.999 274.277C251.722 280.955 247.686 286.396 242.297 289.646Z" fill="#384562"/>
<path d="M173.03 312.679C170.972 314.068 168.756 314.86 166.382 315.055C164.007 315.251 161.742 314.839 159.586 313.818C157.415 312.776 155.6 311.174 154.14 309.011C152.694 306.87 151.901 304.609 151.761 302.228C151.607 299.826 152.065 297.562 153.135 295.434C154.205 293.307 155.769 291.549 157.828 290.161C159.907 288.758 162.123 287.966 164.476 287.785C166.851 287.589 169.112 288.019 171.262 289.075C173.418 290.095 175.219 291.677 176.665 293.818C178.125 295.981 178.932 298.263 179.086 300.665C179.247 303.031 178.793 305.278 177.723 307.406C176.653 309.533 175.088 311.291 173.03 312.679ZM170.372 308.742C171.696 307.85 172.663 306.77 173.274 305.502C173.871 304.213 174.077 302.821 173.893 301.326C173.709 299.83 173.121 298.348 172.129 296.878C171.136 295.408 169.988 294.319 168.684 293.61C167.366 292.879 166.004 292.56 164.599 292.652C163.194 292.744 161.83 293.237 160.507 294.129C159.184 295.021 158.206 296.109 157.574 297.391C156.962 298.659 156.749 300.04 156.933 301.536C157.103 303.01 157.684 304.482 158.677 305.952C159.669 307.421 160.824 308.521 162.142 309.252C163.461 309.982 164.83 310.312 166.249 310.241C167.675 310.134 169.049 309.635 170.372 308.742ZM195.351 297.716C193.67 298.849 191.91 299.502 190.07 299.673C188.215 299.824 186.439 299.479 184.741 298.639C183.063 297.784 181.622 296.464 180.417 294.679C179.212 292.895 178.538 291.058 178.393 289.169C178.27 287.266 178.643 285.486 179.512 283.831C180.367 282.154 181.634 280.749 183.315 279.616C184.995 278.482 186.773 277.833 188.648 277.668C190.509 277.483 192.289 277.81 193.988 278.65C195.707 279.477 197.169 280.782 198.374 282.567C199.579 284.352 200.233 286.203 200.335 288.12C200.458 290.023 200.082 291.82 199.206 293.511C198.337 295.167 197.052 296.568 195.351 297.716ZM192.757 293.873C193.555 293.335 194.173 292.643 194.611 291.798C195.055 290.917 195.226 289.947 195.121 288.887C195.017 287.826 194.589 286.74 193.838 285.627C192.718 283.968 191.419 282.996 189.942 282.709C188.471 282.387 187.106 282.651 185.846 283.501C184.585 284.351 183.83 285.517 183.578 287.001C183.333 288.45 183.771 290.003 184.891 291.662C186.01 293.321 187.285 294.325 188.713 294.676C190.149 294.991 191.496 294.723 192.757 293.873ZM201.831 271.206C201.86 270.025 202.19 268.84 202.823 267.649C203.462 266.423 204.423 265.378 205.704 264.514C207.195 263.508 208.787 262.969 210.48 262.896C212.195 262.81 213.859 263.215 215.474 264.112C217.095 264.974 218.508 266.298 219.713 268.082C220.918 269.867 221.631 271.693 221.852 273.561C222.081 275.393 221.841 277.098 221.133 278.675C220.446 280.239 219.357 281.523 217.866 282.529C216.585 283.393 215.274 283.896 213.932 284.036C212.612 284.163 211.377 284.033 210.23 283.646L217.523 294.449L213.112 297.424L195.72 271.661L200.13 268.686L201.831 271.206ZM215.208 271.121C214.499 270.071 213.669 269.317 212.718 268.859C211.773 268.365 210.809 268.16 209.826 268.242C208.863 268.311 207.973 268.622 207.154 269.174C206.355 269.712 205.741 270.432 205.311 271.334C204.887 272.2 204.717 273.171 204.8 274.245C204.904 275.305 205.311 276.36 206.02 277.41C206.729 278.46 207.555 279.232 208.5 279.725C209.465 280.204 210.436 280.42 211.413 280.373C212.396 280.29 213.287 279.98 214.085 279.441C214.904 278.889 215.518 278.169 215.928 277.281C216.359 276.38 216.522 275.399 216.417 274.339C216.334 273.264 215.931 272.192 215.208 271.121ZM235.72 270.486C234.292 271.449 232.841 272.062 231.366 272.323C229.878 272.563 228.5 272.469 227.232 272.04C225.986 271.597 224.97 270.862 224.184 269.834L228.626 266.837C229.164 267.453 229.865 267.789 230.729 267.848C231.615 267.892 232.489 267.624 233.35 267.043C234.19 266.476 234.727 265.869 234.963 265.222C235.219 264.56 235.17 263.967 234.816 263.442C234.433 262.875 233.855 262.653 233.083 262.777C232.317 262.865 231.191 263.167 229.704 263.681C228.189 264.244 226.899 264.641 225.832 264.872C224.786 265.088 223.725 265.056 222.648 264.773C221.592 264.477 220.667 263.741 219.873 262.565C219.221 261.6 218.899 260.534 218.906 259.367C218.935 258.187 219.308 257.019 220.025 255.863C220.763 254.693 221.836 253.633 223.243 252.684C225.322 251.281 227.336 250.687 229.284 250.901C231.217 251.094 232.842 252.03 234.159 253.709L229.938 256.556C229.407 255.906 228.744 255.558 227.95 255.513C227.162 255.433 226.338 255.684 225.477 256.265C224.679 256.803 224.159 257.368 223.916 257.959C223.694 258.537 223.761 259.088 224.115 259.613C224.512 260.2 225.111 260.454 225.912 260.372C226.698 260.269 227.817 259.957 229.269 259.436C230.742 258.901 232.001 258.526 233.047 258.309C234.093 258.093 235.151 258.143 236.221 258.46C237.298 258.742 238.236 259.454 239.037 260.594C239.717 261.602 240.043 262.696 240.015 263.876C240.008 265.043 239.635 266.211 238.896 267.381C238.165 268.516 237.106 269.551 235.72 270.486ZM236.623 236.921L246.388 252.473L242.671 254.98L231.866 240.13L236.623 236.921ZM249.6 261.033C248.801 261.571 247.977 261.776 247.126 261.647C246.282 261.483 245.611 261.034 245.115 260.299C244.619 259.564 244.46 258.785 244.638 257.962C244.823 257.104 245.314 256.406 246.113 255.868C246.89 255.343 247.7 255.163 248.545 255.327C249.375 255.47 250.038 255.909 250.534 256.644C251.03 257.379 251.196 258.168 251.032 259.012C250.854 259.835 250.377 260.508 249.6 261.033Z" fill="white"/>
<path d="M571 218.926V334.056C571 339.548 566.596 344 561.143 344H519.857C514.421 344 510 339.548 510 334.056V218.926C510 213.452 514.421 209 519.857 209H561.143C566.596 209 571 213.452 571 218.926Z" fill="#E8EDF7"/>
<path d="M557 237.991C557 246.828 549.844 254 541 254C532.156 254 525 246.828 525 237.991C525 229.171 532.156 222 541 222C549.844 222 557 229.171 557 237.991Z" fill="#5972BA"/>
<path d="M549 233.399V235.798H544.346V233.399C544.345 233.084 544.405 232.772 544.522 232.481C544.639 232.19 544.81 231.925 545.027 231.702C545.243 231.479 545.499 231.303 545.782 231.182C546.064 231.062 546.367 231 546.673 231C547.94 231 549 232.072 549 233.399ZM537.655 233.399V235.798H533V233.399C533 233.084 533.06 232.772 533.177 232.481C533.293 232.19 533.465 231.925 533.681 231.702C533.897 231.479 534.154 231.303 534.436 231.182C534.719 231.062 535.021 231 535.327 231C536.595 231 537.655 232.072 537.655 233.399ZM538.673 242.601V240.202H543.327V242.601C543.327 242.916 543.267 243.228 543.15 243.519C543.034 243.81 542.862 244.075 542.646 244.298C542.43 244.521 542.173 244.697 541.891 244.818C541.608 244.938 541.306 245 541 245C539.733 245 538.673 243.927 538.673 242.601Z" fill="#384562"/>
<path d="M557 277.991C557 286.828 549.844 294 541 294C532.156 294 525 286.828 525 277.991C525 269.171 532.156 262 541 262C549.844 262 557 269.172 557 277.991Z" fill="#5972BA"/>
<path d="M549 273.399V275.798H544.346V273.399C544.345 273.084 544.405 272.772 544.522 272.481C544.639 272.19 544.81 271.925 545.027 271.702C545.243 271.479 545.499 271.303 545.782 271.182C546.064 271.062 546.367 271 546.673 271C547.94 271 549 272.073 549 273.399ZM537.655 273.399V275.798H533V273.399C533 273.084 533.06 272.772 533.177 272.481C533.293 272.19 533.465 271.925 533.681 271.702C533.897 271.479 534.154 271.303 534.436 271.182C534.719 271.062 535.021 271 535.327 271C536.595 271 537.655 272.073 537.655 273.399ZM538.673 282.601V280.202H543.327V282.601C543.327 282.916 543.267 283.228 543.15 283.519C543.034 283.81 542.862 284.075 542.646 284.298C542.43 284.521 542.173 284.697 541.891 284.818C541.608 284.938 541.306 285 541 285C539.733 285 538.673 283.928 538.673 282.601Z" fill="#384562"/>
<path d="M557 317.991C557 326.828 549.844 334 541 334C532.156 334 525 326.828 525 317.991C525 309.171 532.156 302 541 302C549.844 302 557 309.172 557 317.991Z" fill="#5972BA"/>
<path d="M549 313.399V315.798H544.346V313.399C544.345 313.084 544.405 312.772 544.522 312.481C544.639 312.19 544.81 311.925 545.027 311.702C545.243 311.479 545.499 311.303 545.782 311.182C546.064 311.062 546.367 311 546.673 311C547.94 311 549 312.072 549 313.399ZM537.655 313.399V315.798H533V313.399C533 313.084 533.06 312.772 533.177 312.481C533.293 312.19 533.465 311.925 533.681 311.702C533.897 311.479 534.154 311.303 534.436 311.182C534.719 311.062 535.021 311 535.327 311C536.595 311 537.655 312.072 537.655 313.399ZM538.673 322.601V320.202H543.327V322.601C543.327 322.916 543.267 323.228 543.15 323.519C543.034 323.81 542.862 324.075 542.646 324.298C542.43 324.521 542.173 324.697 541.891 324.818C541.608 324.938 541.306 325 541 325C539.733 325 538.673 323.928 538.673 322.601Z" fill="#384562"/>
<path d="M483.334 322C485.95 332.192 488.581 342.48 488.957 352.996C489.333 363.511 487.277 374.416 481.24 383.038C475.203 391.66 464.721 397.567 454.26 396.346C443.856 395.131 435.501 387.568 426.165 382.824C410.754 374.992 391.556 375.096 376.231 383.093C359.383 391.884 348.469 408.572 336.976 423.696C325.483 438.82 311.118 453.903 292.321 456.719C277.06 459.005 260.821 453.129 249.897 442.241C224.581 417.007 179.193 434.83 175 485" stroke="#5972BA" stroke-width="3" stroke-miterlimit="10"/>
<path d="M490.138 335L491.926 344.703C492.378 347.154 490.701 349.49 488.174 349.929C485.648 350.367 483.24 348.74 482.788 346.289L481 336.586L490.138 335Z" fill="#384562"/>
<path d="M484.51 342.767C473.879 344.429 463.918 337.021 462.258 326.181L459.634 308.859L459.473 307.824L459.366 307.17L458 298.073L496.507 292L497.873 301.124L497.979 301.804L498.14 302.84L500.764 320.135C502.425 330.975 495.141 341.079 484.51 342.767Z" fill="#5972BA"/>
<path d="M497.33 292.18C497.694 294.459 489.182 297.641 478.319 299.265C467.483 300.884 458.375 300.335 458.012 298.056C457.641 295.734 466.153 292.551 476.989 290.932C487.852 289.308 496.96 289.858 497.33 292.18ZM499 302.677C494.434 304.952 487.954 306.725 479.696 307.968C475.075 308.657 470.509 309 466.517 309C465.067 309 462.47 309 459.681 308.524L459.517 307.519L459.407 306.883C462.278 307.412 465.04 307.412 466.517 307.412C470.427 307.412 474.884 307.068 479.45 306.407C487.845 305.137 494.325 303.337 498.728 301.009L498.837 301.67L499 302.677Z" fill="#384562"/>
<path d="M496.989 292.138C497.349 294.373 488.912 297.494 478.143 299.087C467.4 300.675 458.372 300.136 458.012 297.901C457.644 295.624 466.082 292.502 476.824 290.914C487.593 289.321 496.622 289.861 496.989 292.138Z" fill="#384562"/>
<path d="M466.362 275.705L469.449 295.794C469.678 297.284 465.343 297.957 465.114 296.467L462.026 276.378C461.842 275.176 462.647 274.039 463.844 273.853C465.041 273.667 466.177 274.504 466.362 275.705ZM476.455 276.402L479.543 296.491C479.772 297.981 475.437 298.654 475.208 297.164L472.12 277.075C471.935 275.873 472.74 274.735 473.937 274.55C475.135 274.364 476.271 275.2 476.455 276.402ZM485.904 272.879L488.991 292.967C489.22 294.457 484.885 295.13 484.656 293.64L481.568 273.552C481.384 272.35 482.189 271.212 483.386 271.026C484.583 270.84 485.719 271.677 485.904 272.879Z" fill="#5972BA"/>
<path d="M486.145 248L479.724 263.372L486.358 261.136L481.048 272.238L493 257.382L484.272 259.702L486.145 248ZM461.495 249.334L460 265.976L465.643 261.77L463.923 274L470.838 256.117L463.227 261.058L461.495 249.334Z" fill="#7977C6"/>
<path d="M343.504 368L286 214.737L389.454 195L423 337.689L343.504 368Z" fill="#7977C6"/>
<path d="M405.111 328C405.344 326.815 404.762 325.801 404.046 325.061C403.32 324.335 402.363 323.797 401.322 323.158C400.289 322.522 399.19 321.541 398.408 320.473C397.594 319.403 397.044 318.22 396.549 317.078C396.072 315.937 395.631 314.813 395.331 313.506C395.025 312.221 394.861 310.774 395.151 309.205C395.417 307.655 396.341 306.021 397.646 304.956C398.947 303.891 400.491 303.294 402.054 303.075C403.596 302.87 405.312 303.091 406.712 303.669C408.083 304.236 409.326 305.068 410.366 306.114C411.359 307.127 412.18 308.248 412.784 309.461C413.415 310.679 413.868 312.022 413.975 313.493C414.092 314.935 413.81 316.621 412.863 317.894C411.941 319.121 410.916 319.778 410.209 320.494C408.778 321.722 408.236 324.105 409.224 326.28C407.329 324.747 406.777 321.524 408.332 319.094C409.051 317.961 409.864 317.092 410.161 316.314C410.449 315.589 410.481 314.839 410.267 313.993C409.822 312.338 408.612 310.548 407.22 309.346C405.796 308.129 404.208 307.52 402.69 307.748C401.916 307.836 401.189 308.139 400.658 308.542C400.117 308.941 399.805 309.435 399.586 310.153C399.154 311.591 399.579 313.765 400.088 315.922C400.646 318.054 401.264 319.851 402.831 321.396C403.584 322.248 404.56 323.124 405.15 324.345C405.725 325.496 405.878 327.012 405.111 328Z" fill="#384562"/>
<path d="M470.004 398.123C462.119 432.521 410.845 456.886 410.845 456.886C410.845 456.886 405.472 475.866 381.802 485.165C368.031 490.597 351.686 498.314 334.03 502.963C329.104 504.257 324.098 505.328 318.996 506.03C317.717 506.206 316.421 506.366 315.126 506.478C311.027 506.926 306.901 507.086 302.779 506.957C301.492 506.928 300.207 506.858 298.925 506.749C297.389 506.637 295.854 506.478 294.319 506.286C290.352 505.759 287.665 504.512 286.05 502.659C284.883 501.348 284.243 499.751 284.067 497.914C283.619 493.744 285.443 488.392 288.561 482.512C291.632 476.697 295.966 470.37 300.572 464.251C310.008 451.645 320.58 439.823 323.73 434.678C326.673 429.853 328.88 420.618 330.799 410.249C332.415 401.654 333.838 392.292 335.357 384.047C336.893 375.708 338.54 368.518 340.571 364.46C345.337 354.954 365.633 333.785 395.636 324.949C401.183 323.296 406.867 322.147 412.621 321.515C414.843 321.259 417.099 321.099 419.402 321.003C423.24 320.86 431.317 325.317 439.361 332.171C446.398 338.146 453.403 345.959 457.562 354.108C457.562 354.14 457.577 354.155 457.594 354.187C458.473 355.929 459.225 357.67 459.817 359.428C459.817 359.428 468.645 361.553 471.268 374.542C472.403 380.15 472.387 387.77 470.004 398.123Z" fill="#7977C6"/>
<path d="M425.504 350.32C429.056 345.054 427.665 337.908 422.398 334.359C417.131 330.809 409.982 332.201 406.431 337.466C402.879 342.732 404.27 349.877 409.537 353.427C414.804 356.976 421.952 355.585 425.504 350.32Z" fill="#161540"/>
<path d="M346.032 404.999C342.705 409.94 336.66 411.961 331.238 410.389C332.854 401.759 334.277 392.36 335.796 384.083C338.099 384.227 340.403 384.981 342.45 386.36C348.559 390.499 350.174 398.856 346.032 404.999ZM387.16 366.995C394.293 371.829 396.167 381.535 391.347 388.69C386.528 395.844 376.85 397.723 369.717 392.89C362.584 388.056 360.71 378.35 365.529 371.195C370.348 364.041 380.026 362.162 387.16 366.995ZM342.45 443.584C348.588 447.744 350.202 456.104 346.061 462.252C341.914 468.409 333.578 470.027 327.44 465.868C321.301 461.708 319.688 453.348 323.834 447.192C327.976 441.044 336.311 439.425 342.45 443.584ZM362.554 426.101C359.809 430.178 354.29 431.242 350.226 428.488C346.162 425.734 345.095 420.207 347.841 416.131C350.587 412.055 356.097 410.985 360.161 413.739C364.225 416.493 365.3 422.025 362.554 426.101ZM382.528 335.919C387.165 339.061 388.385 345.381 385.252 350.033C382.119 354.684 375.818 355.907 371.18 352.765C366.542 349.622 365.323 343.302 368.456 338.652C371.589 334 377.89 332.777 382.528 335.919ZM304.45 480.164C301.059 485.185 294.262 486.516 289.24 483.116C289.16 483.068 289.08 483.003 289 482.939C292.071 477.1 296.405 470.749 301.011 464.605C301.182 464.698 301.347 464.799 301.507 464.91C306.529 468.294 307.84 475.128 304.45 480.164ZM458 354.023C454.065 354.553 449.94 353.687 446.389 351.281C440.008 346.966 437.513 338.994 439.8 332C446.837 337.999 453.842 345.843 458 354.023Z" fill="#161540"/>
<path opacity="0.1" d="M471 374.165L467.853 373.124C466.846 372.931 461.926 372.05 455.184 372.05C441.333 372.05 422.225 375.575 409.939 392.35C395.465 412.137 392.046 424.523 389.298 434.472C387.972 439.263 386.822 443.413 384.713 447.515C380.432 455.894 357.442 485.407 333.909 502.951C328.989 504.249 323.988 505.323 318.892 506.027C317.613 506.203 316.32 506.364 315.026 506.476C310.931 506.925 306.809 507.086 302.692 506.957C301.407 506.928 300.123 506.858 298.841 506.748C297.308 506.636 295.774 506.476 294.24 506.283C290.278 505.755 287.594 504.505 285.981 502.646C284.815 501.332 284.175 499.73 284 497.888L285.853 497.84C288.681 497.776 291.604 497.616 294.815 497.359C318.46 495.405 360.349 446.281 366.788 433.688C368.449 430.467 369.408 426.958 370.638 422.504C373.434 412.362 377.252 398.471 392.797 377.21C407.463 357.198 429.701 353 445.773 353C450.678 353 454.736 353.417 457.34 353.753C458.218 355.499 458.969 357.246 459.56 359.008C459.561 359.008 468.38 361.139 471 374.165Z" fill="black"/>
<path d="M470.005 397.952C462.11 432.398 410.833 456.804 410.833 456.804C410.833 456.804 405.457 475.812 381.772 485.137C364.154 492.068 342.38 502.78 318.946 506.036C317.665 506.204 316.384 506.372 315.082 506.476C310.983 506.922 306.857 507.084 302.735 506.959C301.434 506.918 300.153 506.854 298.872 506.75C297.339 506.644 295.806 506.476 294.273 506.287C290.305 505.762 287.617 504.502 286 502.654C288.877 502.591 291.943 502.423 295.218 502.15C322.453 499.923 365.183 447.688 371.189 435.968C377.215 424.248 374.989 410.008 396.827 380.225C418.686 350.463 459.814 359.194 459.814 359.194C459.814 359.194 477.9 363.528 470.005 397.952Z" fill="#384562"/>
<path d="M450.767 399.437C447.299 404.065 440.995 405.393 436.709 402.4C432.408 399.396 431.759 393.211 435.227 388.584C438.708 383.94 444.997 382.6 449.298 385.604C453.584 388.597 454.248 394.793 450.767 399.437Z" fill="#2B3951"/>
<path d="M448.549 398.034C446.294 401.042 442.197 401.906 439.411 399.96C436.615 398.007 436.193 393.987 438.448 390.979C440.71 387.961 444.798 387.09 447.594 389.042C450.38 390.988 450.811 395.015 448.549 398.034Z" fill="#384562"/>
<path d="M417.767 417.437C414.299 422.065 407.995 423.393 403.709 420.4C399.408 417.396 398.759 411.211 402.227 406.584C405.708 401.94 411.997 400.6 416.298 403.604C420.584 406.597 421.248 412.793 417.767 417.437Z" fill="#2B3951"/>
<path d="M414.549 415.034C412.294 418.042 408.197 418.906 405.411 416.96C402.615 415.007 402.193 410.987 404.448 407.979C406.71 404.961 410.798 404.09 413.594 406.042C416.38 407.988 416.811 412.015 414.549 415.034Z" fill="#384562"/>
<path d="M407.767 449.437C404.299 454.065 397.995 455.393 393.709 452.4C389.408 449.396 388.759 443.212 392.227 438.584C395.708 433.94 401.997 432.6 406.298 435.604C410.584 438.597 411.248 444.793 407.767 449.437Z" fill="#2B3951"/>
<path d="M404.549 448.034C402.294 451.042 398.197 451.906 395.411 449.96C392.615 448.007 392.193 443.987 394.448 440.979C396.71 437.961 400.798 437.09 403.594 439.042C406.38 440.988 406.811 445.015 404.549 448.034Z" fill="#384562"/>
<path d="M436.391 446.143C432.065 450.069 426.576 451.182 424.151 448.626C421.717 446.06 423.272 440.8 427.598 436.874C431.939 432.935 437.419 431.812 439.853 434.377C442.278 436.934 440.732 442.204 436.391 446.143Z" fill="#2B3951"/>
<path d="M434.184 444.505C431.54 447.045 428.186 447.765 426.704 446.111C425.216 444.451 426.166 441.047 428.81 438.507C431.463 435.958 434.812 435.231 436.299 436.891C437.781 438.545 436.837 441.955 434.184 444.505Z" fill="#384562"/>
<path d="M461.696 421.496C458.601 425.631 453.531 427.206 450.388 425.006C447.233 422.799 447.205 417.658 450.299 413.522C453.404 409.372 458.464 407.79 461.618 409.997C464.761 412.195 464.801 417.346 461.696 421.496Z" fill="#2B3951"/>
<path d="M458.56 420.085C456.626 422.761 453.457 423.78 451.492 422.357C449.521 420.929 449.503 417.602 451.437 414.926C453.378 412.241 456.54 411.217 458.511 412.645C460.476 414.067 460.5 417.4 458.56 420.085Z" fill="#384562"/>
<path d="M361.42 490.988C356.944 494.694 351.097 495.026 348.381 491.728C345.654 488.418 347.094 482.735 351.569 479.029C356.061 475.309 361.898 474.965 364.625 478.275C367.341 481.573 365.911 487.268 361.42 490.988Z" fill="#2B3951"/>
<path d="M359.107 488.992C356.28 491.463 352.588 491.684 350.872 489.485C349.15 487.279 350.059 483.49 352.886 481.019C355.722 478.54 359.409 478.31 361.131 480.517C362.847 482.716 361.944 486.512 359.107 488.992Z" fill="#384562"/>
<path d="M333.571 503.854C328.248 506.052 322.765 504.993 321.342 501.491C319.914 497.976 323.089 493.354 328.412 491.155C333.753 488.949 339.232 489.995 340.66 493.51C342.083 497.012 338.912 501.647 333.571 503.854Z" fill="#2B3951"/>
<path d="M333.171 501.236C329.711 502.702 326.147 501.995 325.222 499.661C324.294 497.317 326.358 494.236 329.818 492.77C333.29 491.299 336.851 491.997 337.779 494.34C338.704 496.675 336.643 499.765 333.171 501.236Z" fill="#384562"/>
<path d="M319 506.027C317.724 506.197 316.448 506.366 315.151 506.472C311.067 506.922 306.956 507.084 302.85 506.959C301.553 506.917 300.277 506.853 299 506.748C300.276 503.57 304.147 501.176 308.812 501.007C313.477 500.859 317.515 502.956 319 506.027Z" fill="#2B3951"/>
<path d="M315 506.505C311.016 506.927 307.006 507.079 303 506.962C303.979 505.295 306.245 504.084 308.919 504.004C311.551 503.925 313.877 504.938 315 506.505Z" fill="#384562"/>
<path opacity="0.1" d="M469 368.698C468.834 368.643 468.742 368.624 468.742 368.624C468.742 368.624 427.73 359.896 405.931 389.653C384.15 419.429 386.367 433.677 380.345 445.387C375.468 454.929 346.372 491.264 321.063 505.698H321.045C320.324 505.827 319.603 505.92 318.865 506.031C317.59 506.198 316.297 506.364 315.004 506.476C310.919 506.924 306.808 507.085 302.7 506.958C301.389 506.92 300.114 506.846 298.839 506.754C297.306 506.643 295.791 506.476 294.258 506.291C290.305 505.771 287.607 504.512 286 502.659C288.882 502.585 291.93 502.418 295.2 502.159C322.356 499.917 364.975 447.685 370.96 435.975C376.964 424.246 374.747 410.016 396.528 380.223C418.327 350.466 459.339 359.193 459.339 359.193C459.339 359.193 465.453 360.675 469 368.698Z" fill="black"/>
<path d="M445 357.893C441.401 357.957 437.353 358.262 433.127 359C425.85 344.59 411.889 331.495 396 324.45C401.572 322.79 407.282 321.635 413.062 321C427.312 330.275 438.863 343.482 445 357.893Z" fill="#E8EDF7"/>
<path d="M253.082 151V125.545H261.683C263.68 125.545 265.313 125.906 266.58 126.627C267.856 127.339 268.801 128.305 269.414 129.523C270.027 130.741 270.334 132.1 270.334 133.599C270.334 135.099 270.027 136.462 269.414 137.689C268.809 138.915 267.873 139.893 266.605 140.622C265.337 141.343 263.713 141.703 261.733 141.703H255.568V138.969H261.634C263.001 138.969 264.099 138.733 264.927 138.26C265.756 137.788 266.357 137.15 266.729 136.346C267.111 135.534 267.301 134.619 267.301 133.599C267.301 132.58 267.111 131.669 266.729 130.865C266.357 130.061 265.752 129.432 264.915 128.976C264.078 128.512 262.968 128.28 261.584 128.28H256.165V151H253.082ZM280.519 151.447C279.31 151.447 278.212 151.22 277.226 150.764C276.24 150.3 275.457 149.633 274.877 148.763C274.297 147.884 274.007 146.824 274.007 145.581C274.007 144.487 274.222 143.601 274.653 142.921C275.084 142.233 275.66 141.695 276.381 141.305C277.101 140.916 277.897 140.626 278.767 140.435C279.645 140.237 280.528 140.079 281.414 139.963C282.574 139.814 283.515 139.702 284.236 139.627C284.965 139.545 285.495 139.408 285.827 139.217C286.166 139.027 286.336 138.695 286.336 138.223V138.124C286.336 136.897 286.001 135.944 285.329 135.265C284.666 134.585 283.66 134.246 282.309 134.246C280.909 134.246 279.811 134.552 279.015 135.165C278.22 135.779 277.661 136.433 277.338 137.129L274.553 136.135C275.051 134.975 275.713 134.072 276.542 133.425C277.379 132.771 278.29 132.315 279.276 132.058C280.271 131.793 281.249 131.661 282.21 131.661C282.823 131.661 283.527 131.735 284.323 131.884C285.126 132.025 285.901 132.319 286.647 132.767C287.401 133.214 288.026 133.889 288.524 134.793C289.021 135.696 289.269 136.906 289.269 138.422V151H286.336V148.415H286.187C285.988 148.829 285.657 149.272 285.193 149.745C284.729 150.217 284.111 150.619 283.341 150.95C282.57 151.282 281.63 151.447 280.519 151.447ZM280.967 148.812C282.127 148.812 283.105 148.585 283.9 148.129C284.704 147.673 285.309 147.085 285.715 146.364C286.129 145.643 286.336 144.885 286.336 144.089V141.405C286.212 141.554 285.938 141.691 285.516 141.815C285.102 141.931 284.621 142.035 284.074 142.126C283.535 142.209 283.009 142.283 282.496 142.349C281.99 142.407 281.58 142.457 281.265 142.499C280.503 142.598 279.79 142.76 279.127 142.983C278.473 143.199 277.942 143.526 277.536 143.965C277.139 144.396 276.94 144.984 276.94 145.73C276.94 146.749 277.317 147.52 278.071 148.042C278.833 148.556 279.798 148.812 280.967 148.812ZM302.329 158.557C300.912 158.557 299.694 158.375 298.675 158.01C297.656 157.654 296.806 157.181 296.127 156.593C295.456 156.013 294.921 155.392 294.524 154.729L296.86 153.088C297.126 153.436 297.461 153.834 297.867 154.281C298.273 154.737 298.828 155.131 299.533 155.462C300.245 155.802 301.177 155.972 302.329 155.972C303.87 155.972 305.142 155.599 306.145 154.853C307.147 154.107 307.649 152.939 307.649 151.348V147.47H307.4C307.185 147.818 306.878 148.249 306.48 148.763C306.091 149.268 305.527 149.72 304.79 150.118C304.061 150.507 303.075 150.702 301.832 150.702C300.291 150.702 298.907 150.337 297.681 149.608C296.463 148.879 295.497 147.818 294.785 146.426C294.08 145.034 293.728 143.344 293.728 141.355C293.728 139.4 294.072 137.697 294.76 136.247C295.448 134.788 296.405 133.662 297.631 132.866C298.857 132.062 300.274 131.661 301.882 131.661C303.125 131.661 304.111 131.868 304.84 132.282C305.577 132.688 306.141 133.152 306.53 133.674C306.928 134.188 307.234 134.61 307.45 134.942H307.748V131.909H310.582V151.547C310.582 153.188 310.209 154.522 309.463 155.549C308.726 156.585 307.732 157.343 306.48 157.824C305.237 158.312 303.854 158.557 302.329 158.557ZM302.23 148.067C303.406 148.067 304.401 147.797 305.213 147.259C306.025 146.72 306.642 145.946 307.065 144.935C307.487 143.924 307.698 142.714 307.698 141.305C307.698 139.93 307.491 138.716 307.077 137.664C306.663 136.611 306.05 135.787 305.237 135.19C304.425 134.594 303.423 134.295 302.23 134.295C300.987 134.295 299.951 134.61 299.122 135.24C298.302 135.87 297.685 136.715 297.271 137.776C296.864 138.836 296.661 140.013 296.661 141.305C296.661 142.631 296.869 143.804 297.283 144.823C297.706 145.834 298.327 146.629 299.147 147.209C299.976 147.781 301.003 148.067 302.23 148.067ZM323.956 151.398C322.116 151.398 320.529 150.992 319.195 150.18C317.869 149.359 316.846 148.216 316.125 146.749C315.413 145.274 315.056 143.559 315.056 141.604C315.056 139.648 315.413 137.925 316.125 136.433C316.846 134.933 317.849 133.765 319.133 132.928C320.426 132.083 321.934 131.661 323.657 131.661C324.652 131.661 325.633 131.826 326.603 132.158C327.572 132.489 328.455 133.028 329.25 133.773C330.046 134.511 330.68 135.489 331.152 136.707C331.624 137.925 331.86 139.424 331.86 141.206V142.449H317.144V139.913H328.877C328.877 138.836 328.662 137.875 328.231 137.03C327.809 136.185 327.204 135.518 326.416 135.029C325.638 134.54 324.718 134.295 323.657 134.295C322.489 134.295 321.478 134.585 320.625 135.165C319.779 135.737 319.129 136.483 318.673 137.403C318.217 138.322 317.99 139.308 317.99 140.361V142.051C317.99 143.493 318.238 144.715 318.735 145.718C319.241 146.712 319.941 147.47 320.836 147.992C321.731 148.506 322.771 148.763 323.956 148.763C324.726 148.763 325.422 148.655 326.044 148.44C326.673 148.216 327.216 147.884 327.672 147.445C328.128 146.998 328.48 146.443 328.728 145.78L331.562 146.575C331.264 147.536 330.762 148.382 330.058 149.111C329.354 149.832 328.484 150.395 327.448 150.801C326.412 151.199 325.248 151.398 323.956 151.398ZM349.099 139.516V151H346.166V131.909H349V134.892H349.248C349.696 133.923 350.375 133.144 351.287 132.555C352.198 131.959 353.375 131.661 354.817 131.661C356.109 131.661 357.24 131.926 358.21 132.456C359.179 132.978 359.933 133.773 360.472 134.842C361.01 135.903 361.28 137.245 361.28 138.869V151H358.347V139.068C358.347 137.568 357.957 136.4 357.178 135.563C356.399 134.718 355.33 134.295 353.972 134.295C353.035 134.295 352.198 134.498 351.461 134.904C350.732 135.31 350.156 135.903 349.733 136.682C349.311 137.461 349.099 138.405 349.099 139.516ZM374.395 151.398C372.672 151.398 371.16 150.988 369.859 150.167C368.566 149.347 367.555 148.199 366.826 146.724C366.105 145.25 365.745 143.526 365.745 141.554C365.745 139.565 366.105 137.829 366.826 136.346C367.555 134.863 368.566 133.711 369.859 132.891C371.16 132.071 372.672 131.661 374.395 131.661C376.119 131.661 377.627 132.071 378.92 132.891C380.22 133.711 381.231 134.863 381.952 136.346C382.681 137.829 383.046 139.565 383.046 141.554C383.046 143.526 382.681 145.25 381.952 146.724C381.231 148.199 380.22 149.347 378.92 150.167C377.627 150.988 376.119 151.398 374.395 151.398ZM374.395 148.763C375.705 148.763 376.782 148.427 377.627 147.756C378.472 147.085 379.098 146.202 379.504 145.109C379.91 144.015 380.113 142.83 380.113 141.554C380.113 140.278 379.91 139.089 379.504 137.987C379.098 136.885 378.472 135.994 377.627 135.315C376.782 134.635 375.705 134.295 374.395 134.295C373.086 134.295 372.009 134.635 371.164 135.315C370.319 135.994 369.693 136.885 369.287 137.987C368.881 139.089 368.678 140.278 368.678 141.554C368.678 142.83 368.881 144.015 369.287 145.109C369.693 146.202 370.319 147.085 371.164 147.756C372.009 148.427 373.086 148.763 374.395 148.763ZM395.826 131.909V134.395H385.933V131.909H395.826ZM388.816 127.335H391.749V145.531C391.749 146.36 391.87 146.981 392.11 147.396C392.358 147.802 392.673 148.075 393.054 148.216C393.444 148.348 393.854 148.415 394.285 148.415C394.608 148.415 394.873 148.398 395.08 148.365C395.287 148.324 395.453 148.29 395.578 148.266L396.174 150.901C395.975 150.975 395.698 151.05 395.341 151.124C394.985 151.207 394.533 151.249 393.987 151.249C393.158 151.249 392.346 151.07 391.551 150.714C390.763 150.358 390.109 149.815 389.587 149.086C389.073 148.357 388.816 147.437 388.816 146.327V127.335ZM261.186 173.909V176.395H250.895V173.909H261.186ZM253.977 193V171.274C253.977 170.18 254.234 169.269 254.748 168.54C255.262 167.811 255.929 167.264 256.749 166.899C257.569 166.535 258.435 166.352 259.347 166.352C260.067 166.352 260.656 166.41 261.112 166.526C261.567 166.642 261.907 166.75 262.131 166.849L261.286 169.385C261.136 169.335 260.929 169.273 260.664 169.199C260.407 169.124 260.067 169.087 259.645 169.087C258.675 169.087 257.975 169.331 257.544 169.82C257.122 170.309 256.911 171.026 256.911 171.97V193H253.977ZM272.267 193.398C270.543 193.398 269.031 192.988 267.73 192.167C266.437 191.347 265.426 190.199 264.697 188.724C263.976 187.25 263.616 185.526 263.616 183.554C263.616 181.565 263.976 179.829 264.697 178.346C265.426 176.863 266.437 175.711 267.73 174.891C269.031 174.071 270.543 173.661 272.267 173.661C273.99 173.661 275.498 174.071 276.791 174.891C278.092 175.711 279.102 176.863 279.823 178.346C280.552 179.829 280.917 181.565 280.917 183.554C280.917 185.526 280.552 187.25 279.823 188.724C279.102 190.199 278.092 191.347 276.791 192.167C275.498 192.988 273.99 193.398 272.267 193.398ZM272.267 190.763C273.576 190.763 274.653 190.427 275.498 189.756C276.343 189.085 276.969 188.202 277.375 187.109C277.781 186.015 277.984 184.83 277.984 183.554C277.984 182.278 277.781 181.089 277.375 179.987C276.969 178.885 276.343 177.994 275.498 177.315C274.653 176.635 273.576 176.295 272.267 176.295C270.957 176.295 269.88 176.635 269.035 177.315C268.19 177.994 267.564 178.885 267.158 179.987C266.752 181.089 266.549 182.278 266.549 183.554C266.549 184.83 266.752 186.015 267.158 187.109C267.564 188.202 268.19 189.085 269.035 189.756C269.88 190.427 270.957 190.763 272.267 190.763ZM297.426 185.195V173.909H300.359V193H297.426V189.768H297.227C296.78 190.738 296.084 191.562 295.139 192.242C294.194 192.913 293.001 193.249 291.559 193.249C290.366 193.249 289.306 192.988 288.378 192.466C287.45 191.935 286.72 191.14 286.19 190.079C285.66 189.01 285.395 187.664 285.395 186.04V173.909H288.328V185.841C288.328 187.233 288.717 188.343 289.496 189.172C290.283 190 291.286 190.415 292.504 190.415C293.233 190.415 293.975 190.228 294.729 189.855C295.491 189.483 296.129 188.911 296.643 188.14C297.165 187.37 297.426 186.388 297.426 185.195ZM308.665 181.516V193H305.732V173.909H308.565V176.892H308.814C309.261 175.923 309.941 175.144 310.852 174.555C311.764 173.959 312.94 173.661 314.382 173.661C315.675 173.661 316.806 173.926 317.775 174.456C318.745 174.978 319.499 175.773 320.037 176.842C320.576 177.903 320.845 179.245 320.845 180.869V193H317.912V181.068C317.912 179.568 317.522 178.4 316.744 177.563C315.965 176.718 314.896 176.295 313.537 176.295C312.601 176.295 311.764 176.498 311.026 176.904C310.297 177.31 309.721 177.903 309.299 178.682C308.876 179.461 308.665 180.405 308.665 181.516ZM333.414 193.398C331.823 193.398 330.419 192.996 329.201 192.192C327.983 191.38 327.03 190.237 326.342 188.762C325.654 187.279 325.31 185.526 325.31 183.504C325.31 181.499 325.654 179.759 326.342 178.284C327.03 176.809 327.987 175.67 329.213 174.866C330.439 174.062 331.856 173.661 333.464 173.661C334.707 173.661 335.688 173.868 336.409 174.282C337.139 174.688 337.694 175.152 338.075 175.674C338.464 176.188 338.767 176.61 338.982 176.942H339.231V167.545H342.164V193H339.33V190.067H338.982C338.767 190.415 338.46 190.854 338.062 191.384C337.665 191.906 337.097 192.374 336.36 192.789C335.622 193.195 334.64 193.398 333.414 193.398ZM333.812 190.763C334.988 190.763 335.983 190.456 336.795 189.843C337.607 189.222 338.224 188.364 338.647 187.27C339.069 186.168 339.28 184.896 339.28 183.455C339.28 182.029 339.073 180.782 338.659 179.713C338.245 178.636 337.632 177.799 336.82 177.203C336.007 176.598 335.005 176.295 333.812 176.295C332.569 176.295 331.533 176.614 330.704 177.252C329.884 177.882 329.267 178.74 328.853 179.825C328.447 180.902 328.244 182.112 328.244 183.455C328.244 184.813 328.451 186.048 328.865 187.158C329.288 188.26 329.909 189.139 330.729 189.793C331.558 190.44 332.585 190.763 333.812 190.763Z" fill="#869EC9"/>
<path d="M421.532 58.0029C421.532 87.2561 397.794 111 368.515 111C339.235 111 315.497 87.2561 315.497 58.0029C315.497 28.751 339.235 5.03364 368.515 5.03364C397.794 5.03364 421.532 28.751 421.532 58.0029ZM290.59 110.966H264.672V91.3386H226.641C214.035 91.3386 206.625 77.1846 213.818 66.8413C229.523 44.2601 250.521 14.0742 251.265 13.031C253.95 9.26716 256.994 5 263.735 5H290.59V65.4441H308.453V91.3389H290.59V110.966ZM246.26 65.4438H264.672V39.0056C259.523 46.3686 252.845 55.963 246.26 65.4438ZM505.137 111H479.219V91.3722H441.188C428.582 91.3722 421.172 77.2182 428.365 66.875C444.07 44.2937 465.068 14.1079 465.812 13.0646C468.497 9.3008 471.541 5.03364 478.282 5.03364H505.137V65.4775H523V91.3722H505.137L505.137 111ZM460.807 65.4775H479.219V39.0393C474.07 46.4022 467.392 55.9969 460.807 65.4775Z" fill="#7977C6"/>
<path d="M392 44.8549V51.7099H378.327V44.8549C378.327 41.0641 381.384 38 385.163 38C388.887 37.9997 392 41.0641 392 44.8549ZM358.673 44.8549V51.7099H345V44.8549C345 41.0641 348.056 38 351.836 38C355.56 37.9997 358.673 41.0641 358.673 44.8549ZM361.664 71.145V64.2901H375.337V71.145C375.337 74.9359 372.28 78 368.5 78C364.776 78 361.664 74.9356 361.664 71.145Z" fill="#384562"/>
</svg>
