<svg width="13" height="13" viewBox="0 0 13 13" fill="none" xmlns="http://www.w3.org/2000/svg">
<path d="M11.9258 0.754681C11.8243 0.505362 11.6301 0.307236 11.3858 0.203697C11.2656 0.151414 11.1365 0.123682 11.0058 0.12207H1.0058C0.740582 0.12207 0.486228 0.22957 0.298692 0.420921C0.111155 0.612272 0.00579834 0.8718 0.00579834 1.14241C0.00579834 1.41302 0.111155 1.67255 0.298692 1.8639C0.486228 2.05525 0.740582 2.16275 1.0058 2.16275H8.5958L0.295798 10.6214C0.20207 10.7162 0.127676 10.8291 0.0769072 10.9534C0.0261385 11.0778 0 11.2111 0 11.3458C0 11.4805 0.0261385 11.6139 0.0769072 11.7382C0.127676 11.8626 0.20207 11.9754 0.295798 12.0703C0.388761 12.1659 0.499362 12.2418 0.621222 12.2936C0.743081 12.3454 0.873786 12.3721 1.0058 12.3721C1.13781 12.3721 1.26852 12.3454 1.39038 12.2936C1.51223 12.2418 1.62284 12.1659 1.7158 12.0703L10.0058 3.60143V11.3458C10.0058 11.6164 10.1112 11.876 10.2987 12.0673C10.4862 12.2587 10.7406 12.3662 11.0058 12.3662C11.271 12.3662 11.5254 12.2587 11.7129 12.0673C11.9004 11.876 12.0058 11.6164 12.0058 11.3458V1.14241C12.0042 1.00908 11.977 0.877349 11.9258 0.754681Z" fill="#7977C6"/>
</svg>
