<svg width="12" height="12" viewBox="0 0 12 12" fill="none" xmlns="http://www.w3.org/2000/svg">
<path d="M11.92 0.6197C11.8186 0.375469 11.6245 0.181387 11.3803 0.0799613C11.2601 0.0287451 11.1311 0.00157922 11.0005 0H1.00531C0.740224 0 0.485993 0.105306 0.298547 0.292752C0.111102 0.480198 0.00579554 0.734429 0.00579554 0.999517C0.00579554 1.26461 0.111102 1.51884 0.298547 1.70628C0.485993 1.89373 0.740224 1.99903 1.00531 1.99903H8.59165L0.295655 10.285C0.201972 10.3779 0.127614 10.4885 0.07687 10.6103C0.0261259 10.7321 0 10.8627 0 10.9947C0 11.1266 0.0261259 11.2573 0.07687 11.3791C0.127614 11.5009 0.201972 11.6114 0.295655 11.7043C0.388574 11.798 0.499121 11.8724 0.620921 11.9231C0.742722 11.9739 0.873364 12 1.00531 12C1.13726 12 1.2679 11.9739 1.3897 11.9231C1.5115 11.8724 1.62205 11.798 1.71497 11.7043L10.001 3.40835V10.9947C10.001 11.2598 10.1063 11.514 10.2937 11.7015C10.4812 11.8889 10.7354 11.9942 11.0005 11.9942C11.2656 11.9942 11.5198 11.8889 11.7072 11.7015C11.8947 11.514 12 11.2598 12 10.9947V0.999517C11.9984 0.868903 11.9713 0.739865 11.92 0.6197Z" fill="#7977C6"/>
</svg>
