<svg width="13" height="13" viewBox="0 0 13 13" fill="none" xmlns="http://www.w3.org/2000/svg">
<path d="M12.9199 1.15906C12.8185 0.914713 12.6243 0.720537 12.3799 0.619062C12.2597 0.567821 12.1306 0.540642 11.9999 0.539062H1.99994C1.73472 0.539062 1.48037 0.64442 1.29283 0.831956C1.1053 1.01949 0.999939 1.27385 0.999939 1.53906C0.999939 1.80428 1.1053 2.05863 1.29283 2.24617C1.48037 2.43371 1.73472 2.53906 1.99994 2.53906H9.58994L1.28994 10.8291C1.19621 10.922 1.12182 11.0326 1.07105 11.1545C1.02028 11.2763 0.994141 11.4071 0.994141 11.5391C0.994141 11.6711 1.02028 11.8018 1.07105 11.9236C1.12182 12.0455 1.19621 12.1561 1.28994 12.2491C1.3829 12.3428 1.4935 12.4172 1.61536 12.468C1.73722 12.5187 1.86793 12.5449 1.99994 12.5449C2.13195 12.5449 2.26266 12.5187 2.38452 12.468C2.50638 12.4172 2.61698 12.3428 2.70994 12.2491L10.9999 3.94906V11.5391C10.9999 11.8043 11.1053 12.0586 11.2928 12.2462C11.4804 12.4337 11.7347 12.5391 11.9999 12.5391C12.2652 12.5391 12.5195 12.4337 12.707 12.2462C12.8946 12.0586 12.9999 11.8043 12.9999 11.5391V1.53906C12.9984 1.40839 12.9712 1.27928 12.9199 1.15906Z" fill="#09120E"/>
</svg>
