<svg width="13" height="13" viewBox="0 0 13 13" fill="none" xmlns="http://www.w3.org/2000/svg">
<path d="M12.2774 1.43836C12.1759 1.19401 11.9817 0.999834 11.7374 0.898359C11.6171 0.847118 11.488 0.819939 11.3574 0.818359H1.35736C1.09214 0.818359 0.837791 0.923716 0.650254 1.11125C0.462718 1.29879 0.357361 1.55314 0.357361 1.81836C0.357361 2.08358 0.462718 2.33793 0.650254 2.52547C0.837791 2.713 1.09214 2.81836 1.35736 2.81836H8.94736L0.647361 11.1084C0.553632 11.2013 0.479238 11.3119 0.42847 11.4338C0.377701 11.5556 0.351562 11.6863 0.351562 11.8184C0.351562 11.9504 0.377701 12.0811 0.42847 12.2029C0.479238 12.3248 0.553632 12.4354 0.647361 12.5284C0.740324 12.6221 0.850925 12.6965 0.972784 12.7473C1.09464 12.798 1.22535 12.8242 1.35736 12.8242C1.48937 12.8242 1.62008 12.798 1.74194 12.7473C1.8638 12.6965 1.9744 12.6221 2.06736 12.5284L10.3574 4.22836V11.8184C10.3574 12.0836 10.4627 12.3379 10.6503 12.5255C10.8378 12.713 11.0921 12.8184 11.3574 12.8184C11.6226 12.8184 11.8769 12.713 12.0645 12.5255C12.252 12.3379 12.3574 12.0836 12.3574 11.8184V1.81836C12.3558 1.68768 12.3286 1.55858 12.2774 1.43836Z" fill="#7977C6"/>
</svg>
