<svg width="33" height="32" viewBox="0 0 33 32" fill="none" xmlns="http://www.w3.org/2000/svg">
<g clip-path="url(#clip0_14_110)">
<path fill-rule="evenodd" clip-rule="evenodd" d="M17.9109 14.0343H31.9588C32.0406 1.62954 16.6697 -4.70736 7.97754 4.10092L17.9109 14.0343Z" fill="#FFDE11"/>
<path d="M30.2346 16.729H16.4459L6.69589 6.97891C6.46283 6.73652 6.04384 6.73652 5.81078 6.97891C0.121107 12.5039 0.103959 22.2114 5.81091 27.7307C11.2727 33.4228 21.1009 33.4234 26.5626 27.7305C29.3341 24.9592 30.8604 21.2743 30.8604 17.3548C30.8604 17.0092 30.5803 16.729 30.2346 16.729ZM6.26344 8.3166L14.6758 16.729H2.77886C2.92211 13.5867 4.14271 10.6399 6.26344 8.3166ZM2.77904 17.9806H15.8254L22.3477 29.2776C13.8818 33.8312 3.07875 27.5757 2.77904 17.9806ZM23.4307 28.6501L17.2707 17.9806H29.5944C29.3881 22.456 26.9799 26.366 23.4307 28.6501Z" fill="#026939"/>
<path d="M12.6351 23.2818L12.0095 23.0226C11.7464 22.9203 11.6088 22.588 11.7225 22.3296C11.7762 22.2 11.8783 22.0985 12.01 22.0439C12.1417 21.9894 12.2856 21.9889 12.4154 22.0426L12.7282 22.1722C13.0475 22.3046 13.4137 22.1528 13.5459 21.8335C13.6782 21.5142 13.5266 21.1481 13.2072 21.0158L12.8943 20.8862C12.8332 20.8609 12.7713 20.8392 12.7086 20.8209V20.5376C12.6778 19.7082 11.4875 19.7088 11.457 20.5376V20.9201C11.052 21.1092 10.7374 21.437 10.5661 21.8507C10.3844 22.2893 10.3849 22.7735 10.5674 23.214C10.7499 23.6546 11.0919 23.9973 11.5304 24.1789L12.1561 24.4381C12.4262 24.55 12.555 24.8608 12.4431 25.131C12.3894 25.2607 12.2873 25.3622 12.1556 25.4167C12.0239 25.4713 11.8799 25.4717 11.7502 25.418L11.4373 25.2885C11.1179 25.1561 10.7519 25.3079 10.6197 25.6272C10.4874 25.9465 10.6391 26.3126 10.9584 26.4448L11.2712 26.5744C11.3323 26.5997 11.3943 26.6215 11.4569 26.6397V26.9229C11.4877 27.7524 12.6781 27.7518 12.7086 26.9229V26.5404C13.1135 26.3514 13.4281 26.0235 13.5994 25.6099C13.9755 24.7023 13.5428 23.6579 12.6351 23.2818Z" fill="#026939"/>
<path d="M18.8707 9.55168C19.2163 9.55168 19.4965 9.2715 19.4965 8.92586V8.27456H20.799V8.92586C20.8298 9.75532 22.0202 9.7547 22.0507 8.92586V6.37174C21.9547 3.85005 18.3399 3.85199 18.2449 6.37174V8.92586C18.2449 9.2715 18.5251 9.55168 18.8707 9.55168ZM19.4965 6.37174C19.5294 5.50873 20.7665 5.50936 20.799 6.37174V7.02291H19.4965V6.37174Z" fill="#026939"/>
<path d="M23.1449 9.46652C23.4382 9.63906 23.8257 9.54256 24.0008 9.24129L24.5777 8.25236L25.1545 9.24129C25.3297 9.54256 25.7171 9.63906 26.0104 9.46652C26.309 9.29235 26.4098 8.90916 26.2356 8.61064L25.3021 7.01029L26.2356 5.40999C26.4098 5.11141 26.3089 4.72822 26.0103 4.55412C25.7118 4.37995 25.3286 4.48083 25.1545 4.77935L24.5776 5.76828L24.0007 4.77935C23.8265 4.48077 23.4433 4.37995 23.1448 4.55412C22.8462 4.72828 22.7454 5.11147 22.9196 5.40999L23.8531 7.01029L22.9195 8.61064C22.7455 8.90916 22.8464 9.29235 23.1449 9.46652Z" fill="#026939"/>
<path d="M14.7681 5.72064H15.2597V8.92599C15.2905 9.75545 16.4809 9.75483 16.5113 8.92599V5.72064H17.0029C17.8324 5.68985 17.8318 4.49947 17.0029 4.46899H14.7681C13.9386 4.49978 13.9393 5.69016 14.7681 5.72064Z" fill="#026939"/>
</g>
<defs>
<clipPath id="clip0_14_110">
<rect width="32" height="32" fill="white" transform="translate(0.748047)"/>
</clipPath>
</defs>
</svg>
