<svg width="33" height="32" viewBox="0 0 33 32" fill="none" xmlns="http://www.w3.org/2000/svg">
<g clip-path="url(#clip0_14_123)">
<path d="M24.7722 6.56006L18.3952 0.183062C18.278 0.065875 18.119 0 17.9533 0L1.37305 6.25e-05C1.02786 6.25e-05 0.748047 0.279875 0.748047 0.625063V28.6839C0.748047 28.8496 0.813922 29.0086 0.931109 29.1258C1.0483 29.243 1.2073 29.3089 1.37305 29.3089H18.591C19.4194 29.2781 19.4187 28.0893 18.591 28.0589H1.99805V1.25006H17.3283V7.00206C17.3283 7.34725 17.6081 7.62706 17.9533 7.62706H23.7054V14.4154C23.7361 15.2437 24.9249 15.2431 24.9554 14.4154V7.002C24.9553 6.83625 24.8895 6.67725 24.7722 6.56006ZM18.5783 2.13387L22.8215 6.377H18.5783V2.13387Z" fill="#026939"/>
<path d="M14.1271 7.62691C14.4723 7.62691 14.7521 7.34709 14.7521 7.00191V3.80078H15.2431C16.0714 3.77003 16.0708 2.58122 15.2431 2.55078H13.0112C12.1828 2.58153 12.1834 3.77034 13.0112 3.80078H13.5021V7.00191C13.5021 7.34709 13.7819 7.62691 14.1271 7.62691Z" fill="#026939"/>
<path d="M11.0979 7.6271C11.4431 7.6271 11.7229 7.34729 11.7229 7.0021V4.45129C11.6271 1.93291 8.01706 1.93485 7.92212 4.45129V7.00204C7.95287 7.83041 9.14168 7.82979 9.17212 7.00204V6.3516H10.4729V7.00204C10.4729 7.34729 10.7527 7.6271 11.0979 7.6271ZM9.17212 5.10166V4.45129C9.20493 3.58941 10.4404 3.59004 10.4729 4.45129V5.1016H9.17212V5.10166Z" fill="#026939"/>
<path d="M4.76564 7.19954C4.95133 7.76467 5.76595 7.76436 5.95151 7.19954L7.22695 3.37336C7.33614 3.04586 7.15914 2.69192 6.8317 2.58279C6.5042 2.47361 6.15026 2.65061 6.04114 2.97804L5.35858 5.02554L4.67608 2.97804C4.56689 2.65061 4.21308 2.47373 3.88551 2.58279C3.55808 2.69198 3.38108 3.04592 3.49026 3.37336L4.76564 7.19954Z" fill="#026939"/>
<path d="M21.6201 10.4424H4.08321C3.25483 10.4731 3.25546 11.6619 4.08321 11.6924H21.6201C22.4485 11.6616 22.4478 10.4728 21.6201 10.4424Z" fill="#026939"/>
<path d="M15.4025 13.1526H4.08321C3.25483 13.1833 3.25546 14.3722 4.08321 14.4026H15.4025C16.2308 14.3718 16.2302 13.183 15.4025 13.1526Z" fill="#026939"/>
<path d="M4.08321 17.1128H12.8516C13.68 17.082 13.6794 15.8932 12.8516 15.8628H4.08321C3.25483 15.8935 3.25546 17.0824 4.08321 17.1128Z" fill="#026939"/>
<path d="M15.4025 18.573H4.08321C3.25483 18.6037 3.25546 19.7926 4.08321 19.823H15.4025C16.2308 19.7922 16.2302 18.6034 15.4025 18.573Z" fill="#026939"/>
<path d="M15.4025 21.2832H4.08321C3.25483 21.314 3.25546 22.5028 4.08321 22.5332H15.4025C16.2308 22.5025 16.2302 21.3136 15.4025 21.2832Z" fill="#026939"/>
<path d="M15.4025 23.9934H4.08321C3.25483 24.0242 3.25546 25.213 4.08321 25.2434H15.4025C16.2308 25.2127 16.2302 24.0238 15.4025 23.9934Z" fill="#026939"/>
<path fill-rule="evenodd" clip-rule="evenodd" d="M19.2287 13.7776H31.4727C32.1742 13.7776 32.7481 14.3515 32.7481 15.053V30.7246C32.7481 31.4261 32.1742 32 31.4727 32H19.2287C18.5273 32 17.9534 31.426 17.9534 30.7246V15.053C17.9534 14.3515 18.5273 13.7776 19.2287 13.7776Z" fill="#FFDE11"/>
<path d="M20.5042 19.5042H30.1973C30.5425 19.5042 30.8223 19.2244 30.8223 18.8792V16.3284C30.8223 15.9832 30.5425 15.7034 30.1973 15.7034H20.5042C20.159 15.7034 19.8792 15.9832 19.8792 16.3284V18.8792C19.8792 19.2244 20.159 19.5042 20.5042 19.5042ZM21.1292 16.9534H29.5723V18.2542H21.1292V16.9534Z" fill="#026939"/>
<path d="M21.1099 20.8052H20.5041C19.6757 20.8359 19.6764 22.0247 20.5041 22.0552H21.1099C21.9383 22.0245 21.9377 20.8356 21.1099 20.8052Z" fill="#026939"/>
<path d="M21.1099 23.478H20.5041C19.6757 23.5088 19.6764 24.6976 20.5041 24.728H21.1099C21.9383 24.6973 21.9377 23.5084 21.1099 23.478Z" fill="#026939"/>
<path d="M21.1099 26.1511H20.5041C19.6757 26.1819 19.6764 27.3707 20.5041 27.4011H21.1099C21.9383 27.3704 21.9377 26.1816 21.1099 26.1511Z" fill="#026939"/>
<path d="M21.1099 28.8242H20.5041C19.6757 28.855 19.6764 30.0438 20.5041 30.0742H21.1099C21.9383 30.0435 21.9377 28.8547 21.1099 28.8242Z" fill="#026939"/>
<path d="M24.1392 20.8052H23.5334C22.705 20.8359 22.7057 22.0247 23.5334 22.0552H24.1392C24.9676 22.0245 24.967 20.8356 24.1392 20.8052Z" fill="#026939"/>
<path d="M24.1392 23.478H23.5334C22.705 23.5088 22.7057 24.6976 23.5334 24.728H24.1392C24.9676 24.6973 24.967 23.5084 24.1392 23.478Z" fill="#026939"/>
<path d="M24.1392 26.1511H23.5334C22.705 26.1819 22.7057 27.3707 23.5334 27.4011H24.1392C24.9676 27.3704 24.967 26.1816 24.1392 26.1511Z" fill="#026939"/>
<path d="M24.1392 28.8242H23.5334C22.705 28.855 22.7057 30.0438 23.5334 30.0742H24.1392C24.9676 30.0435 24.967 28.8547 24.1392 28.8242Z" fill="#026939"/>
<path d="M27.1683 20.8052H26.5625C25.7341 20.8359 25.7347 22.0247 26.5625 22.0552H27.1683C27.9966 22.0245 27.996 20.8356 27.1683 20.8052Z" fill="#026939"/>
<path d="M27.1683 23.478H26.5625C25.7341 23.5088 25.7347 24.6976 26.5625 24.728H27.1683C27.9966 24.6973 27.996 23.5084 27.1683 23.478Z" fill="#026939"/>
<path d="M26.5625 27.4011H27.1683C27.9966 27.3704 27.996 26.1816 27.1683 26.1511H26.5625C25.7341 26.1819 25.7347 27.3707 26.5625 27.4011Z" fill="#026939"/>
<path d="M30.1974 28.8242H26.5625C25.7341 28.855 25.7347 30.0438 26.5625 30.0742H30.1974C31.0257 30.0435 31.0251 28.8547 30.1974 28.8242Z" fill="#026939"/>
<path d="M30.1973 20.8052H29.5915C28.7631 20.8359 28.7638 22.0247 29.5915 22.0552H30.1973C31.0256 22.0245 31.025 20.8356 30.1973 20.8052Z" fill="#026939"/>
<path d="M30.1973 23.478H29.5915C28.7631 23.5088 28.7638 24.6976 29.5915 24.728H30.1973C31.0256 24.6973 31.025 23.5084 30.1973 23.478Z" fill="#026939"/>
<path d="M30.1973 26.1511H29.5915C28.7631 26.1819 28.7638 27.3707 29.5915 27.4011H30.1973C31.0256 27.3704 31.025 26.1816 30.1973 26.1511Z" fill="#026939"/>
</g>
<defs>
<clipPath id="clip0_14_123">
<rect width="32" height="32" fill="white" transform="translate(0.748047)"/>
</clipPath>
</defs>
</svg>
