<svg width="33" height="32" viewBox="0 0 33 32" fill="none" xmlns="http://www.w3.org/2000/svg">
<path fill-rule="evenodd" clip-rule="evenodd" d="M27.1231 18.25H9.62316C9.62316 19.6307 8.50385 20.75 7.12317 20.75V26.375C8.50385 26.375 9.62316 27.4943 9.62316 28.875H27.1231C27.1231 27.4943 28.2424 26.375 29.6231 26.375V20.75C28.2424 20.75 27.1231 19.6307 27.1231 18.25Z" fill="#FFDE11"/>
<path d="M32.123 15.1251H26.9979V6.87497C26.9979 6.70922 26.9321 6.55029 26.8149 6.43304L20.5649 0.183062C20.4477 0.0658747 20.2888 0 20.123 0H1.37304C1.02792 0 0.748047 0.279874 0.748047 0.624998V28.8749C0.748047 29.22 1.02786 29.4999 1.37304 29.4999H3.9981V31.375C3.9981 31.7201 4.27791 32 4.62309 32H32.123C32.4681 32 32.748 31.7201 32.748 31.375V15.7501C32.748 15.4049 32.4682 15.1251 32.123 15.1251ZM20.748 2.13393L24.8641 6.25004H20.748V2.13393ZM1.99804 28.2499V1.25H19.498V6.87504C19.498 7.22016 19.7778 7.50003 20.123 7.50003H25.7479V15.1251H4.62316C4.27797 15.1251 3.99816 15.4049 3.99816 15.7501V28.2499H1.99804ZM31.498 30.75H5.24809V16.3751H31.498V30.75Z" fill="#026939"/>
<path d="M17.8583 24.0259L18.4094 24.2543C18.6064 24.3359 18.7039 24.5713 18.6223 24.7684C18.5825 24.8644 18.5067 24.9396 18.4089 24.9802C18.3112 25.0207 18.2043 25.021 18.1082 24.9814L17.8327 24.8673C17.5137 24.7353 17.1482 24.8866 17.0161 25.2054C16.884 25.5244 17.0354 25.8899 17.3543 26.022L17.6299 26.1362C17.669 26.1524 17.7084 26.1669 17.748 26.1799V26.3751C17.7787 27.2035 18.9675 27.2029 18.998 26.3751V26.0848C19.3379 25.9138 19.6206 25.625 19.7772 25.2467C20.124 24.4094 19.7249 23.4462 18.8879 23.0995L18.3367 22.8711C18.1396 22.7895 18.0421 22.5541 18.1237 22.357C18.1636 22.2609 18.2393 22.1858 18.3371 22.1452C18.435 22.1047 18.5418 22.1043 18.6379 22.1441L18.9134 22.2582C19.2322 22.3901 19.5979 22.2388 19.73 21.9199C19.8621 21.6009 19.7106 21.2354 19.3917 21.1033L19.1161 20.9892C19.0771 20.9731 19.0377 20.9585 18.998 20.9454V20.7502C18.9672 19.9218 17.7785 19.9224 17.748 20.7502V21.0409C16.9926 21.4024 16.6332 22.3667 16.9699 23.136C17.1383 23.5423 17.4537 23.8583 17.8583 24.0259Z" fill="#026939"/>
<path d="M24.6621 25.5937C25.7822 25.5937 26.6934 24.6825 26.6934 23.5624C26.5913 20.8714 22.7325 20.8721 22.6309 23.5624C22.6309 24.6825 23.5421 25.5937 24.6621 25.5937ZM24.6621 22.7812C25.0929 22.7812 25.4434 23.1316 25.4434 23.5624C25.4041 24.5974 23.92 24.5972 23.8809 23.5624C23.8809 23.1316 24.2314 22.7812 24.6621 22.7812Z" fill="#026939"/>
<path d="M12.0841 25.5937C13.2041 25.5937 14.1154 24.6825 14.1154 23.5624C14.0132 20.8714 10.1545 20.8721 10.0529 23.5624C10.0529 24.6825 10.9641 25.5937 12.0841 25.5937ZM12.0841 22.7812C12.5149 22.7812 12.8654 23.1316 12.8654 23.5624C12.8261 24.5974 11.342 24.5972 11.3029 23.5624C11.3029 23.1316 11.6533 22.7812 12.0841 22.7812Z" fill="#026939"/>
<path d="M4.62312 3.75H5.09187V7.5C5.12262 8.32837 6.31143 8.32775 6.34187 7.5V3.75H6.81062C7.639 3.71925 7.63837 2.53044 6.81062 2.5H4.62312C3.79475 2.53075 3.79537 3.71956 4.62312 3.75Z" fill="#026939"/>
<path d="M8.63879 8.12497C8.98398 8.12497 9.26379 7.8451 9.26379 7.49997V6.56241H10.5138V7.49997C10.5445 8.32835 11.7334 8.32772 11.7638 7.49997V4.37497C11.6692 1.89035 8.10748 1.89222 8.01379 4.37497V7.49997C8.01379 7.8451 8.29361 8.12497 8.63879 8.12497ZM9.26379 4.37497C9.29529 3.54679 10.4825 3.54741 10.5138 4.37497V5.31241H9.26379V4.37497Z" fill="#026939"/>
<path d="M12.8515 8.05914C13.1536 8.21207 13.535 8.09145 13.69 7.77957L14.2247 6.71014L14.7594 7.77957C14.9144 8.09145 15.2958 8.21201 15.598 8.05914C15.9067 7.90476 16.0319 7.52932 15.8775 7.22064L14.9235 5.31264L15.8775 3.40464C16.0319 3.09595 15.9067 2.72051 15.598 2.56614C15.2891 2.41176 14.9138 2.53682 14.7594 2.8457L14.2247 3.91514L13.69 2.8457C13.5357 2.53695 13.1604 2.41182 12.8515 2.56614C12.5427 2.72051 12.4176 3.09595 12.572 3.40464L13.526 5.31264L12.572 7.22064C12.4176 7.52939 12.5427 7.90482 12.8515 8.05914Z" fill="#026939"/>
<path d="M4.62312 11.25H23.1229C23.9512 11.2192 23.9506 10.0305 23.1229 10H4.62312C3.79475 10.0307 3.79537 11.2196 4.62312 11.25Z" fill="#026939"/>
<path d="M4.62312 13.8125H20.1229C20.9513 13.7817 20.9507 12.593 20.1229 12.5625H4.62312C3.79475 12.5932 3.79537 13.7821 4.62312 13.8125Z" fill="#026939"/>
</svg>
