<svg width="33" height="32" viewBox="0 0 33 32" fill="none" xmlns="http://www.w3.org/2000/svg">
<g clip-path="url(#clip0_14_158)">
<path d="M22.0605 16.2917C22.4057 16.2917 22.6855 16.0119 22.6855 15.6668V1.87499C22.6855 0.841122 21.8443 0 20.8105 0H4.56054C3.52667 0 2.68555 0.841122 2.68555 1.87499V30.125C2.68555 31.1589 3.52667 32 4.56054 32H20.8105C21.8443 32 22.6855 31.1589 22.6855 30.125V25.6667C22.6547 24.8383 21.4659 24.839 21.4355 25.6667V28.25H3.93554V3.74999H8.41765C8.67559 4.47754 9.37071 4.99998 10.1855 4.99998H15.1855C16.0003 4.99998 16.6954 4.47754 16.9534 3.74999H21.4355V15.6668C21.4355 16.0119 21.7153 16.2917 22.0605 16.2917ZM21.4355 29.5V30.125C21.4355 30.4696 21.1551 30.75 20.8105 30.75H4.56054C4.21592 30.75 3.93554 30.4696 3.93554 30.125V29.5H21.4355ZM16.4355 2.49999C16.0903 2.49999 15.8105 2.7798 15.8105 3.12499C15.8105 3.46961 15.5301 3.74999 15.1855 3.74999H10.1855C9.84089 3.74999 9.56052 3.46961 9.56052 3.12499C9.56052 2.7798 9.28071 2.49999 8.93552 2.49999H3.93554V1.87499C3.93554 1.53037 4.21592 1.25 4.56054 1.25H20.8105C21.1551 1.25 21.4355 1.53037 21.4355 1.87499V2.49999H16.4355Z" fill="#026939"/>
<path d="M7.65202 6.25C7.30683 6.25 7.02702 6.52981 7.02702 6.875V7.16531C6.68708 7.33631 6.40452 7.62512 6.24783 8.00344C6.08027 8.40794 6.08064 8.8545 6.24895 9.26081C6.41727 9.66712 6.7327 9.98319 7.1372 10.1507L7.68839 10.3791C7.88539 10.4607 7.98289 10.6961 7.90127 10.8932C7.8197 11.0902 7.58408 11.1877 7.38727 11.1061L7.1117 10.9919C6.79277 10.8599 6.4272 11.0112 6.29508 11.3301C6.16295 11.6491 6.31439 12.0147 6.63327 12.1467L6.90895 12.2609C6.94808 12.2771 6.98745 12.2917 7.02702 12.3047V12.5C7.05777 13.3284 8.24658 13.3277 8.27701 12.5V12.2096C8.61695 12.0386 8.89951 11.7497 9.0562 11.3715C9.40295 10.5342 9.00401 9.571 8.16676 9.22419L7.61564 8.99594C7.42083 8.92019 7.31845 8.67312 7.40277 8.48181C7.48433 8.28475 7.71989 8.18731 7.91683 8.26881L8.19239 8.383C8.51133 8.51519 8.87689 8.36375 9.00902 8.04481C9.14114 7.72594 8.98977 7.36031 8.67083 7.22819L8.39514 7.11394C8.35601 7.09775 8.31664 7.08319 8.27708 7.07019V6.875C8.27701 6.52981 7.9972 6.25 7.65202 6.25Z" fill="#026939"/>
<path d="M11.9893 14.7292H5.8105C4.98213 14.76 4.98275 15.9488 5.8105 15.9792H11.9893C12.8177 15.9485 12.8171 14.7597 11.9893 14.7292Z" fill="#026939"/>
<path d="M11.9893 17.3855H5.8105C4.98213 17.4162 4.98275 18.6051 5.8105 18.6355H11.9893C12.8177 18.6048 12.8171 17.4159 11.9893 17.3855Z" fill="#026939"/>
<path d="M5.81058 21.2917H10.8175C11.6459 21.261 11.6453 20.0722 10.8175 20.0417H5.81058C4.98226 20.0725 4.98289 21.2613 5.81058 21.2917Z" fill="#026939"/>
<path d="M11.9893 22.698H5.8105C4.98213 22.7287 4.98275 23.9176 5.8105 23.948H11.9893C12.8177 23.9172 12.8171 22.7284 11.9893 22.698Z" fill="#026939"/>
<path d="M11.9893 25.3542H5.8105C4.98213 25.385 4.98275 26.5738 5.8105 26.6042H11.9893C12.8177 26.5735 12.8171 25.3847 11.9893 25.3542Z" fill="#026939"/>
<path d="M19.5605 6.40625H11.1456C10.3172 6.437 10.3178 7.62581 11.1456 7.65625H19.5605C20.3889 7.6255 20.3883 6.43669 19.5605 6.40625Z" fill="#026939"/>
<path d="M19.5605 9.0625H11.1456C10.3172 9.09325 10.3178 10.2821 11.1456 10.3125H19.5605C20.3889 10.2817 20.3883 9.09288 19.5605 9.0625Z" fill="#026939"/>
<path d="M20.1855 12.3438C20.1855 11.9986 19.9057 11.7188 19.5605 11.7188H11.1456C10.3172 11.7495 10.3178 12.9383 11.1456 12.9688H19.5605C19.9057 12.9688 20.1855 12.6889 20.1855 12.3438Z" fill="#026939"/>
<path fill-rule="evenodd" clip-rule="evenodd" d="M15.8105 15.3542H29.5605C30.248 15.3542 30.8105 15.9173 30.8105 16.6042V24.7292C30.8105 25.4158 30.2472 25.9792 29.5605 25.9792C24.0898 25.9792 21.2814 25.9792 15.8105 25.9792C15.1238 25.9792 14.5605 25.4167 14.5605 24.7292V21.9167L13.3105 20.6667L14.5605 19.4167V16.6042C14.5605 15.9167 15.1231 15.3542 15.8105 15.3542Z" fill="#FFDE11"/>
<path d="M22.4473 17.8542C21.4134 17.8542 20.5723 18.6954 20.5723 19.7292V22.8542C20.603 23.6826 21.7918 23.682 21.8223 22.8542V21.9167H23.0723V22.8542C23.103 23.6826 24.2918 23.682 24.3223 22.8542V19.7292C24.3223 18.6954 23.4811 17.8542 22.4473 17.8542ZM23.0723 20.6667H21.8223V19.7292C21.8538 18.9011 23.0411 18.9016 23.0723 19.7292V20.6667Z" fill="#026939"/>
<path d="M28.436 22.5746L27.482 20.6666L28.4359 18.7587C28.5903 18.4499 28.4651 18.0745 28.1564 17.9201C27.8475 17.7658 27.4722 17.8909 27.3178 18.1996L26.7831 19.2691L26.2485 18.1996C26.0941 17.8909 25.7188 17.7658 25.4099 17.9201C25.1011 18.0745 24.976 18.4499 25.1304 18.7587L26.0843 20.6666L25.1303 22.5746C24.976 22.8834 25.1011 23.2588 25.4098 23.4132C25.712 23.5662 26.0934 23.4455 26.2484 23.1337L26.7831 22.0642L27.3179 23.1337C27.4728 23.4456 27.8543 23.5662 28.1565 23.4132C28.4651 23.2588 28.5903 22.8834 28.436 22.5746Z" fill="#026939"/>
<path d="M19.3692 17.8542H17.1817C16.3533 17.885 16.354 19.0738 17.1817 19.1042H17.6505V22.8542C17.6812 23.6826 18.87 23.682 18.9005 22.8542V19.1042H19.3692C20.1976 19.0735 20.197 17.8847 19.3692 17.8542Z" fill="#026939"/>
</g>
<defs>
<clipPath id="clip0_14_158">
<rect width="32" height="32" fill="white" transform="translate(0.748047)"/>
</clipPath>
</defs>
</svg>
