<svg width="24" height="24" viewBox="0 0 24 24" fill="none" xmlns="http://www.w3.org/2000/svg">
<path d="M11.4281 15.9281C10.9172 16.4391 10.0828 16.4391 9.57187 15.9281L6.57187 12.9281C6.06094 12.4172 6.06094 11.5828 6.57187 11.0719C7.08281 10.5609 7.91719 10.5609 8.42813 11.0719L10.5 13.1437L15.5719 8.07187C16.0828 7.56094 16.9172 7.56094 17.4281 8.07187C17.9391 8.58281 17.9391 9.41719 17.4281 9.92813L11.4281 15.9281ZM24 12C24 18.6281 18.6281 24 12 24C5.37188 24 0 18.6281 0 12C0 5.37188 5.37188 0 12 0C18.6281 0 24 5.37188 24 12ZM12 2.25C6.61406 2.25 2.25 6.61406 2.25 12C2.25 17.3859 6.61406 21.75 12 21.75C17.3859 21.75 21.75 17.3859 21.75 12C21.75 6.61406 17.3859 2.25 12 2.25Z" fill="url(#paint0_linear_1022_5820)"/>
<defs>
<linearGradient id="paint0_linear_1022_5820" x1="10.5178" y1="6.75" x2="22.5415" y2="6.75" gradientUnits="userSpaceOnUse">
<stop stop-color="#3378F3"/>
<stop offset="1" stop-color="#C1D8FF"/>
</linearGradient>
</defs>
</svg>
