<svg width="40" height="40" viewBox="0 0 40 40" fill="none" xmlns="http://www.w3.org/2000/svg">
<path d="M37.8594 25.8282L29.9062 22.4173C28.4609 21.8166 26.7656 22.2317 25.7852 23.4391L23.1961 26.6008C19.0781 24.3594 15.6484 20.9298 13.4063 16.8126L16.5703 14.1485C17.7945 13.1391 18.1977 11.4798 17.5734 10.0204L14.1664 2.06725C13.4852 0.497724 11.775 -0.363214 10.1188 0.0188174L2.74453 1.73054C1.13047 2.17038 0 3.58601 0 5.24382C0 24.4063 15.5937 40.0001 34.7578 40.0001C36.4172 40.0001 37.8367 38.8719 38.2086 37.2555L39.9117 29.8751C40.2891 28.211 39.4297 26.5079 37.8594 25.8282ZM35.7734 36.6954C35.6641 37.1641 35.2344 37.5001 34.7578 37.5001C16.9687 37.5001 2.5 23.0313 2.5 5.24382C2.5 4.76038 2.83078 4.34694 3.30781 4.23757L10.6836 2.52585C10.7617 2.50754 10.8398 2.49899 10.9167 2.49899C11.3256 2.49899 11.7066 2.74071 11.8737 3.12641L15.2784 11.0717C15.4609 11.5001 15.3438 11.9923 14.9844 12.2891L11.0391 15.5219C10.5898 15.8906 10.4531 16.5196 10.7095 17.0407C13.3173 22.3383 17.6712 26.6891 22.9673 29.2985C23.4861 29.5573 24.118 29.4181 24.486 28.9689L27.7196 25.0236C28.0089 24.6672 28.5134 24.55 28.9305 24.7233L36.868 28.1264C37.3295 28.3266 37.5834 28.8271 37.4711 29.3155L35.7734 36.6954ZM38.75 6.74343e-05H28.75C28.0625 6.74343e-05 27.5 0.55913 27.5 1.25007C27.5 1.941 28.0625 2.50007 28.75 2.50007H35.7328L22.8656 15.3673C22.3773 15.8555 22.3773 16.6469 22.8656 17.1344C23.1094 17.3751 23.4297 17.5001 23.75 17.5001C24.0703 17.5001 24.3897 17.378 24.6336 17.1338L37.5 4.26804V11.2501C37.5 11.9376 38.0625 12.5001 38.75 12.5001C39.4375 12.5001 40 11.9376 40 11.2501V1.25007C40 0.55913 39.4375 6.74343e-05 38.75 6.74343e-05Z" fill="#7977C6"/>
</svg>
