<svg width="15" height="15" viewBox="0 0 15 15" fill="none" xmlns="http://www.w3.org/2000/svg">
<path d="M13.7316 11.0742C13.2522 10.5912 12.0912 9.88636 11.528 9.60231C10.7945 9.23283 10.7341 9.20265 10.1575 9.63099C9.77296 9.91685 9.51728 10.1722 9.06721 10.0762C8.61713 9.98024 7.6391 9.439 6.78273 8.58534C5.92635 7.73168 5.35372 6.72528 5.25743 6.27671C5.16113 5.82815 5.42073 5.57549 5.70388 5.19002C6.10294 4.64667 6.07275 4.55611 5.73165 3.82259C5.46571 3.25207 4.74034 2.10199 4.25555 1.62505C3.73696 1.11279 3.73696 1.20335 3.4028 1.3422C3.13075 1.45667 2.86976 1.5958 2.62309 1.75787C2.14011 2.07874 1.87206 2.34529 1.68461 2.74585C1.49715 3.14642 1.41293 4.08551 2.381 5.84415C3.34906 7.60279 4.02825 8.50203 5.43401 9.90387C6.83978 11.3057 7.92074 12.0595 9.50098 12.9457C11.4558 14.0406 12.2056 13.8271 12.6074 13.64C13.0092 13.4528 13.277 13.1872 13.5984 12.7042C13.7609 12.458 13.9004 12.1973 14.015 11.9254C14.1542 11.5925 14.2447 11.5925 13.7316 11.0742Z" stroke="#7977C6" stroke-width="1.5093" stroke-miterlimit="10"/>
</svg>
