<svg width="30" height="40" viewBox="0 0 30 40" fill="none" xmlns="http://www.w3.org/2000/svg">
<path d="M21.25 15C21.25 18.4531 18.4531 21.25 15 21.25C11.5469 21.25 8.75 18.4531 8.75 15C8.75 11.5469 11.5469 8.75 15 8.75C18.4531 8.75 21.25 11.5469 21.25 15ZM15 18.75C17.0703 18.75 18.75 17.0703 18.75 15C18.75 12.9297 17.0703 11.25 15 11.25C12.9297 11.25 11.25 12.9297 11.25 15C11.25 17.0703 12.9297 18.75 15 18.75ZM30 15C30 21.8281 20.8594 33.9844 16.8516 39C15.8906 40.1953 14.1094 40.1953 13.1484 39C9.07031 33.9844 0 21.8281 0 15C0 6.71562 6.71562 0 15 0C23.2812 0 30 6.71562 30 15ZM15 2.5C8.09375 2.5 2.5 8.09375 2.5 15C2.5 16.2188 2.92422 17.8906 3.79375 19.9531C4.64609 21.9766 5.84375 24.1719 7.19844 26.3672C9.85938 30.6875 13.0156 34.8203 15 37.3125C16.9844 34.8203 20.1406 30.6875 22.8047 26.3672C24.1562 24.1719 25.3516 21.9766 26.2031 19.9531C27.0781 17.8906 27.5 16.2188 27.5 15C27.5 8.09375 21.9063 2.5 15 2.5Z" fill="#7977C6"/>
</svg>
