<svg width="17" height="18" viewBox="0 0 17 18" fill="none" xmlns="http://www.w3.org/2000/svg">
<path d="M14.8327 9.83331C14.6493 9.83331 14.4577 9.77497 14.2743 9.73331C13.9031 9.65149 13.5382 9.54287 13.1827 9.40831C12.7961 9.26766 12.3711 9.27497 11.9896 9.42881C11.608 9.58265 11.2969 9.87217 11.116 10.2416L10.9327 10.6166C10.121 10.1651 9.37514 9.60433 8.71599 8.94997C8.06163 8.29082 7.50084 7.54497 7.04932 6.7333L7.39932 6.49997C7.76879 6.31907 8.0583 6.00791 8.21215 5.62638C8.36599 5.24485 8.3733 4.8199 8.23265 4.4333C8.10034 4.07699 7.99177 3.7123 7.90765 3.34164C7.86599 3.1583 7.83265 2.96664 7.80765 2.77497C7.70646 2.18799 7.39901 1.65642 6.94067 1.276C6.48233 0.895585 5.90323 0.691312 5.30765 0.699971H2.80765C2.44851 0.696599 2.09286 0.770649 1.76491 0.91708C1.43696 1.06351 1.14441 1.27888 0.907178 1.54854C0.669945 1.81819 0.493598 2.1358 0.390142 2.47973C0.286687 2.82367 0.258552 3.18585 0.307652 3.54164C0.751601 7.03279 2.34601 10.2765 4.83903 12.7605C7.33205 15.2445 10.5816 16.8271 14.0743 17.2583H14.391C15.0055 17.2592 15.5988 17.0337 16.0577 16.625C16.3213 16.3892 16.5319 16.1001 16.6755 15.7769C16.8192 15.4537 16.8926 15.1037 16.891 14.75V12.25C16.8808 11.6711 16.67 11.1138 16.2946 10.673C15.9192 10.2323 15.4025 9.93549 14.8327 9.83331ZM15.2493 14.8333C15.2492 14.9516 15.2238 15.0686 15.175 15.1763C15.1261 15.2841 15.0549 15.3802 14.966 15.4583C14.8729 15.5387 14.764 15.5988 14.6463 15.6346C14.5286 15.6705 14.4048 15.6814 14.2827 15.6666C11.1617 15.2665 8.26285 13.8387 6.04325 11.6085C3.82365 9.37838 2.40966 6.47275 2.02432 3.34997C2.01106 3.2279 2.02268 3.10441 2.05849 2.98696C2.0943 2.86951 2.15354 2.76054 2.23265 2.66664C2.31074 2.57775 2.40687 2.50651 2.51463 2.45765C2.6224 2.4088 2.73933 2.38345 2.85765 2.3833H5.35765C5.55144 2.37899 5.74067 2.44237 5.89277 2.56253C6.04487 2.68269 6.15033 2.85211 6.19099 3.04164C6.22432 3.26942 6.26599 3.49442 6.31599 3.71664C6.41225 4.15593 6.54037 4.58762 6.69932 5.00831L5.53265 5.54997C5.4329 5.59574 5.34317 5.66076 5.26862 5.7413C5.19406 5.82184 5.13615 5.91632 5.09821 6.0193C5.06027 6.12228 5.04305 6.23175 5.04753 6.34141C5.05201 6.45107 5.0781 6.55876 5.12432 6.6583C6.32365 9.22727 8.38869 11.2923 10.9577 12.4916C11.1605 12.575 11.3881 12.575 11.591 12.4916C11.6949 12.4545 11.7904 12.397 11.872 12.3226C11.9535 12.2482 12.0195 12.1584 12.066 12.0583L12.5827 10.8916C13.0135 11.0457 13.4531 11.1737 13.8993 11.275C14.1215 11.325 14.3465 11.3666 14.5743 11.4C14.7638 11.4406 14.9333 11.5461 15.0534 11.6982C15.1736 11.8503 15.237 12.0395 15.2327 12.2333L15.2493 14.8333ZM16.8493 1.2333C16.7648 1.02968 16.6029 0.867867 16.3993 0.783305C16.2991 0.740604 16.1916 0.717955 16.0827 0.716638H12.7493C12.5283 0.716638 12.3163 0.804435 12.1601 0.960716C12.0038 1.117 11.916 1.32896 11.916 1.54997C11.916 1.77099 12.0038 1.98295 12.1601 2.13923C12.3163 2.29551 12.5283 2.3833 12.7493 2.3833H14.066L11.3243 5.13331C11.1691 5.28944 11.082 5.50065 11.082 5.7208C11.082 5.94096 11.1691 6.15217 11.3243 6.30831C11.4805 6.46351 11.6917 6.55063 11.9118 6.55063C12.132 6.55063 12.3432 6.46351 12.4993 6.30831L15.2493 3.56664V4.8833C15.2493 5.10432 15.3371 5.31628 15.4934 5.47256C15.6497 5.62884 15.8616 5.71664 16.0827 5.71664C16.3037 5.71664 16.5156 5.62884 16.6719 5.47256C16.8282 5.31628 16.916 5.10432 16.916 4.8833V1.54997C16.9147 1.44107 16.892 1.33349 16.8493 1.2333Z" fill="#192533"/>
</svg>
