<svg width="15" height="15" viewBox="0 0 15 15" fill="none" xmlns="http://www.w3.org/2000/svg">
<path d="M13.4337 10.956C12.9543 10.473 11.7934 9.7682 11.2301 9.48415C10.4966 9.11467 10.4362 9.08448 9.85967 9.51282C9.4751 9.79869 9.21943 10.0541 8.76935 9.95807C8.31928 9.86208 7.34125 9.32084 6.48487 8.46718C5.6285 7.61352 5.05587 6.60712 4.95957 6.15855C4.86328 5.70999 5.12288 5.45733 5.40603 5.07185C5.80508 4.5285 5.7749 4.43795 5.4338 3.70443C5.16786 3.13391 4.44249 1.98382 3.9577 1.50688C3.4391 0.994625 3.4391 1.08518 3.10494 1.22404C2.8329 1.3385 2.57191 1.47764 2.32524 1.6397C1.84226 1.96058 1.57421 2.22712 1.38675 2.62769C1.1993 3.02826 1.11508 3.96735 2.08315 5.72598C3.05121 7.48462 3.7304 8.38387 5.13616 9.78571C6.54193 11.1875 7.62289 11.9413 9.20313 12.8276C11.158 13.9224 11.9078 13.709 12.3096 13.5218C12.7113 13.3347 12.9791 13.069 13.3006 12.5861C13.4631 12.3398 13.6025 12.0791 13.7171 11.8073C13.8563 11.4743 13.9469 11.4743 13.4337 10.956Z" stroke="#243D31" stroke-width="1.5093" stroke-miterlimit="10"/>
</svg>
