<svg width="17" height="17" viewBox="0 0 17 17" fill="none" xmlns="http://www.w3.org/2000/svg">
<path d="M14.4339 12.2197C13.9545 11.7367 12.7935 11.0319 12.2303 10.7478C11.4968 10.3783 11.4364 10.3482 10.8598 10.7765C10.4753 11.0624 10.2196 11.3177 9.76951 11.2217C9.31943 11.1257 8.34141 10.5845 7.48503 9.73085C6.62865 8.87719 6.05602 7.87079 5.95973 7.42222C5.86343 6.97366 6.12303 6.721 6.40618 6.33553C6.80524 5.79218 6.77505 5.70162 6.43395 4.9681C6.16801 4.39758 5.44264 3.24749 4.95785 2.77055C4.43926 2.2583 4.43926 2.34886 4.1051 2.48771C3.83305 2.60217 3.57206 2.74131 3.32539 2.90337C2.84241 3.22425 2.57436 3.49079 2.38691 3.89136C2.19945 4.29193 2.11523 5.23102 3.0833 6.98966C4.05137 8.7483 4.73055 9.64754 6.13631 11.0494C7.54208 12.4512 8.62304 13.205 10.2033 14.0912C12.1581 15.1861 12.9079 14.9727 13.3097 14.7855C13.7115 14.5983 13.9793 14.3327 14.3007 13.8497C14.4632 13.6035 14.6027 13.3428 14.7173 13.0709C14.8565 12.738 14.947 12.738 14.4339 12.2197Z" stroke="#F23936" stroke-width="1.5093" stroke-miterlimit="10"/>
</svg>
