<svg width="28" height="28" viewBox="0 0 28 28" fill="none" xmlns="http://www.w3.org/2000/svg">
<path d="M13.3636 26.9685C13.7711 27.1369 14.2288 27.1369 14.6364 26.9685C14.8384 26.8872 15.0226 26.7671 15.1785 26.615L26.9636 14.8299C27.2761 14.5173 27.4517 14.0934 27.4517 13.6514C27.4517 13.2093 27.2761 12.7854 26.9636 12.4729C26.651 12.1603 26.2271 11.9847 25.7851 11.9847C25.343 11.9847 24.9191 12.1603 24.6066 12.4729L15.6617 21.4178L15.6734 1.86625C15.6743 1.64623 15.6317 1.42821 15.5479 1.22477C15.4641 1.02133 15.3409 0.836485 15.1853 0.680907C15.0297 0.525329 14.8449 0.402096 14.6414 0.318315C14.438 0.234533 14.22 0.191863 14 0.192766C13.7799 0.191864 13.5619 0.234532 13.3585 0.318314C13.155 0.402094 12.9702 0.525329 12.8146 0.680907C12.659 0.836484 12.5358 1.02133 12.452 1.22477C12.3682 1.42821 12.3256 1.64623 12.3265 1.86625L12.3383 21.4178L3.39336 12.4729C3.08079 12.1603 2.65687 11.9847 2.21484 11.9847C1.77281 11.9847 1.34889 12.1603 1.03633 12.4729C0.723771 12.7854 0.548174 13.2093 0.548174 13.6514C0.548174 14.0934 0.723771 14.5173 1.03633 14.8299L12.8214 26.615C12.9773 26.7671 13.1615 26.8872 13.3636 26.9685Z" fill="#243D31"/>
</svg>
