<svg width="19" height="19" viewBox="0 0 19 19" fill="none" xmlns="http://www.w3.org/2000/svg">
<path d="M16.5859 11.1875H14.7051L13.0176 12.875H16.5859C16.8961 12.875 17.1484 13.1274 17.1484 13.4375V16.25C17.1484 16.5601 16.8961 16.8125 16.5859 16.8125H3.08594C2.77579 16.8125 2.52344 16.5601 2.52344 16.25V13.4375C2.52344 13.1281 2.77586 12.875 3.08594 12.875H6.6543L4.9668 11.1875H3.08594C1.84316 11.1875 0.835938 12.1947 0.835938 13.4375V16.25C0.835938 17.4928 1.84316 18.5 3.08594 18.5H16.5859C17.8287 18.5 18.8359 17.4928 18.8359 16.25V13.4375C18.8359 12.1965 17.827 11.1875 16.5859 11.1875ZM16.0234 14.8438C16.0234 14.3776 15.6455 14 15.1797 14C14.7139 14 14.3359 14.3762 14.3359 14.8438C14.3359 15.3096 14.7139 15.6875 15.1797 15.6875C15.6455 15.6875 16.0234 15.3113 16.0234 14.8438ZM9.23828 13.441C9.40352 13.6379 9.61797 13.7188 9.83594 13.7188C10.0539 13.7188 10.2677 13.6363 10.4325 13.4716L15.2138 8.69032C15.5434 8.36073 15.5434 7.82688 15.2138 7.49711C14.8842 7.16735 14.3504 7.16752 14.0206 7.49711L10.6797 10.8395V1.34375C10.6797 0.87793 10.3035 0.5 9.83594 0.5C9.36836 0.5 8.99219 0.87793 8.99219 1.34375V10.8395L5.6207 7.49609C5.29111 7.1665 4.75727 7.1665 4.4275 7.49609C4.09773 7.82568 4.09791 8.35953 4.4275 8.6893L9.23828 13.441Z" fill="white"/>
</svg>
