<svg width="25" height="24" viewBox="0 0 25 24" fill="none" xmlns="http://www.w3.org/2000/svg">
<path d="M3.45943 22.335C2.97938 22.337 2.49891 22.337 2.01886 22.3246C1.96699 22.3246 1.90273 22.3164 1.83639 22.3102C1.85292 22.0209 1.82544 21.6617 1.83123 21.5034C1.85561 20.8357 1.81366 20.1728 1.8614 19.5026C1.99613 17.6068 2.20402 15.7691 2.20464 13.8627C2.20526 12.1252 2.20567 10.3875 2.20609 8.65015C3.97378 9.80202 5.71998 10.9863 7.42443 12.2304C8.45975 12.9861 9.4802 13.7617 10.4804 14.5628C10.9728 14.9577 11.4605 15.358 11.9433 15.7647C12.2886 16.0555 12.668 16.5136 13.0887 16.6994C13.7986 17.0133 14.2237 16.5149 14.7085 16.0538C15.5892 15.2169 16.4879 14.3988 17.4038 13.6001C19.2397 11.9991 21.1495 10.4891 23.1158 9.05291C23.1239 9.22856 23.1226 9.39182 23.1309 9.48977C23.2508 10.9177 23.3338 12.3488 23.3795 13.7811C23.4647 16.458 23.412 19.1356 23.2429 21.808C16.6497 21.9237 10.0495 22.3184 3.45943 22.335ZM5.73176 9.62988C4.981 9.11181 4.22465 8.60117 3.46335 8.0986C4.1732 8.07504 4.88345 8.05458 5.59371 8.03722C5.63132 8.56873 5.67699 9.09941 5.73176 9.62988ZM12.7205 2.12846C14.8167 2.09271 16.8915 1.76868 18.9874 1.83749C19.0729 4.69072 19.499 7.52432 19.4815 10.3817C18.9479 10.8061 18.4176 11.2347 17.8946 11.6724C17.0176 12.4062 16.1552 13.1578 15.3086 13.9266C14.912 14.2865 14.5026 14.8108 14.0503 15.0925C13.8645 15.4128 13.594 15.5017 13.2386 15.3597C13.0253 15.177 12.8112 14.9956 12.5959 14.8154C10.7846 13.2988 8.90364 11.871 6.97889 10.504C6.65032 7.79007 6.54885 5.06745 6.6685 2.33883C7.57239 2.32602 8.46016 2.18425 9.36674 2.12742C10.4839 2.05716 11.6025 2.14726 12.7205 2.12846ZM22.0791 8.27735C22.1134 8.27921 22.1704 8.27756 22.2367 8.27549C21.6951 8.6735 21.1572 9.07606 20.6247 9.48564C20.6145 9.05849 20.5968 8.63155 20.5732 8.20502C21.0752 8.22817 21.5773 8.2509 22.0791 8.27735ZM24.4274 11.5211C24.3741 10.6179 24.3105 9.71399 24.2224 8.8132C24.1782 8.36208 24.1927 7.83181 23.8403 7.48712C23.5405 7.19388 23.0987 7.19058 22.7122 7.16144C21.9762 7.10585 21.2361 7.07733 20.4976 7.04716C20.356 5.12924 20.1518 3.21441 20.126 1.28946C20.1215 0.962534 19.865 0.735842 19.5507 0.714142C17.2627 0.556261 15.0044 0.938772 12.7205 0.977623C11.6025 0.996841 10.4839 0.906326 9.36674 0.976587C8.27707 1.04499 7.2151 1.23883 6.11923 1.18035C5.79623 1.16299 5.56024 1.45829 5.54391 1.75566C5.44864 3.46921 5.44431 5.18028 5.52573 6.88845C4.25689 6.91986 2.98826 6.95975 1.71984 7.0112C1.55493 6.97835 1.40346 7.0329 1.28835 7.13664C1.14928 7.23997 1.05587 7.39991 1.05567 7.58983C1.05525 9.83013 1.05442 12.0704 1.0538 14.3107C1.05318 16.34 0.681626 18.3352 0.671707 20.3561C0.66902 20.8843 0.689066 21.3844 0.651455 21.9113C0.62769 22.242 0.470431 22.8165 0.663649 23.1264C0.970112 23.6203 1.94447 23.4778 2.42617 23.4819C5.22009 23.517 8.00843 23.331 10.8005 23.2566C15.128 23.1409 19.4538 23.0128 23.7825 22.9467C24.1096 22.9425 24.3359 22.6863 24.3578 22.3722C24.6085 18.7595 24.6405 15.1367 24.4274 11.5211Z" fill="black"/>
<path d="M8.44816 5.43717C11.1528 5.34004 13.8558 5.36794 16.558 5.52169C17.2978 5.56405 17.2953 4.41301 16.558 4.37106C13.8558 4.21731 11.1528 4.1892 8.44816 4.28674C7.70979 4.31319 7.70628 5.46403 8.44816 5.43717Z" fill="black"/>
<path d="M8.9774 8.33177C8.23739 8.33797 8.23553 9.4888 8.9774 9.4824C11.6124 9.4607 14.2476 9.4392 16.8826 9.4173C17.6228 9.4111 17.6247 8.26026 16.8826 8.26667C14.2476 8.28837 11.6124 8.31007 8.9774 8.33177Z" fill="black"/>
</svg>
