<svg width="50" height="50" viewBox="0 0 50 50" fill="none" xmlns="http://www.w3.org/2000/svg">
<path d="M23.7682 44.3328C19.3455 42.6068 15.5922 39.6226 12.9141 35.7025C10.2358 31.7824 8.82031 27.2011 8.82031 22.4535V9.80146L24.9993 5.01367L41.1783 9.80146V22.4535C41.1783 27.201 39.7628 31.7825 37.0846 35.7025C34.4064 39.6226 30.6531 42.6068 26.2304 44.3328L24.9993 44.8132L23.7682 44.3328Z" fill="#E7EEFB"/>
<path d="M45.3692 5.78191L25.268 0.0375732C25.0926 -0.0125244 24.9067 -0.0125244 24.7313 0.0375732L4.63008 5.78191C4.21084 5.90173 3.92188 6.28494 3.92188 6.72087V22.4535C3.92188 34.1304 11.067 44.6345 21.9877 48.8963L24.6446 49.9332C24.8729 50.0222 25.1264 50.0222 25.3547 49.9332L28.0116 48.8963C38.8896 44.6512 46.0774 34.1763 46.0774 22.4535V6.72097C46.0775 6.28494 45.7885 5.90173 45.3692 5.78191ZM44.1244 22.4535C44.1244 33.4235 37.5211 43.0886 27.3017 47.0767L24.9997 47.9751L22.6978 47.0767C12.4783 43.0886 5.875 33.4235 5.875 22.4535V7.45749L24.9997 1.99216L44.1244 7.45749V22.4535Z" fill="#1456DA"/>
<path d="M28.4355 20.5879C28.4355 21.1345 28.8826 21.5645 29.4121 21.5645C29.943 21.5645 30.3887 21.1341 30.3887 20.5879C30.3887 20.0392 29.9413 19.6108 29.4126 19.6108C28.8691 19.6108 28.4355 20.0544 28.4355 20.5879Z" fill="#1456DA"/>
<path d="M25.4905 19.6108C24.947 19.6108 24.5137 20.0545 24.5137 20.5879C24.5137 21.1273 24.9544 21.5645 25.4902 21.5645C26.0193 21.5645 26.4668 21.1351 26.4668 20.5879C26.4668 20.0515 26.0302 19.6108 25.4905 19.6108Z" fill="#1456DA"/>
<path d="M21.5684 19.6108C21.0387 19.6105 20.5918 20.0402 20.5918 20.5879C20.5918 21.1451 21.0485 21.5645 21.5684 21.5645C22.0859 21.5645 22.5449 21.1475 22.5449 20.5879C22.5449 20.0616 22.1182 19.611 21.5684 19.6108Z" fill="#1456DA"/>
<path d="M24.5097 11.7666H19.6069C18.8142 11.7666 18.3512 12.6651 18.8123 13.3107L20.5109 15.6888H18.2494L16.5583 12.3064C16.3929 11.9756 16.0547 11.7666 15.6849 11.7666H12.7432C12.2038 11.7666 11.7666 12.2038 11.7666 12.7432V21.5681C11.7666 23.7286 13.5243 25.4863 15.6849 25.4863H22.6121L18.8124 30.806C18.3517 31.451 18.8136 32.3501 19.607 32.3501H24.5098C24.7463 32.3501 24.9748 32.2643 25.1528 32.1085L32.7211 25.4863H37.2569C37.7963 25.4863 38.2335 25.0491 38.2335 24.5098V22.516C38.2335 18.7815 35.198 15.6889 31.4063 15.6889H29.3593L25.1529 12.0083C24.9748 11.8525 24.7463 11.7666 24.5097 11.7666ZM35.3174 19.611H33.3347C32.7953 19.611 32.3581 20.0482 32.3581 20.5876C32.3581 21.127 32.7953 21.5642 33.3347 21.5642H36.1863C36.3283 22.2785 36.2642 22.7133 36.2803 23.5332H32.3541C32.1176 23.5332 31.8891 23.619 31.711 23.7748L24.1428 30.3971H21.5046L25.3044 25.0774C25.517 24.7798 25.5455 24.3882 25.378 24.063C25.2106 23.7377 24.8756 23.5333 24.5097 23.5333H15.6848C14.6012 23.5333 13.7196 22.6518 13.7196 21.5682V13.7198H15.0812L16.7723 17.1021C16.9377 17.433 17.2759 17.642 17.6457 17.642H31.4061C33.0062 17.642 34.4282 18.4169 35.3174 19.611ZM22.911 15.6889L21.5046 13.7198H24.1428L26.3931 15.6889H22.911Z" fill="#1456DA"/>
</svg>
