<svg width="50" height="50" viewBox="0 0 50 50" fill="none" xmlns="http://www.w3.org/2000/svg">
<path d="M23.2972 24.6467C19.1443 21.989 16.665 17.4586 16.665 12.5281V8.53481L24.9997 5.20093L33.3344 8.53481V12.5281C33.3344 17.4586 30.8551 21.9889 26.7022 24.6467L24.9997 25.7364L23.2972 24.6467Z" fill="#E7EEFB"/>
<path d="M20.6568 28.7728L24.4736 31.2156C24.7952 31.4213 25.2063 31.4206 25.5265 31.2156L29.3433 28.7728C34.8855 25.2257 38.2334 19.0943 38.2334 12.528V5.87925C38.2334 5.47993 37.9903 5.12085 37.6195 4.97251L25.3627 0.069873C25.1298 -0.023291 24.8701 -0.023291 24.6373 0.069873L12.3805 4.97261C12.0098 5.12095 11.7666 5.48003 11.7666 5.87935V12.5281C11.7666 19.1082 15.1264 25.2333 20.6568 28.7728ZM13.7197 6.54048L25.0001 2.02837L36.2803 6.54048V12.528C36.2803 18.4679 33.2934 23.9258 28.2904 27.1277L25.0001 29.2335L21.7097 27.1277C16.7066 23.9257 13.7197 18.4679 13.7197 12.528V6.54048Z" fill="#1456DA"/>
<path d="M23.3282 17.8462C23.7095 18.2275 24.3279 18.2276 24.7094 17.8462L29.1219 13.4337C29.5032 13.0523 29.5032 12.434 29.1219 12.0526C28.7404 11.6713 28.1222 11.6713 27.7407 12.0526L24.0188 15.7745L22.258 14.0136C21.8766 13.6323 21.2583 13.6323 20.8768 14.0136C20.4955 14.395 20.4955 15.0134 20.8768 15.3948L23.3282 17.8462Z" fill="#1456DA"/>
<path d="M42.5478 37.9037C43.5117 37.0085 44.1165 35.7314 44.1165 34.3152C44.1165 31.6141 41.9189 29.4165 39.2178 29.4165C36.5166 29.4165 34.319 31.6141 34.319 34.3152C34.319 35.7314 34.9237 37.0085 35.8877 37.9037C33.5605 38.8494 31.7271 40.7642 30.8909 43.1447C30.1334 42.1334 29.1201 41.3249 27.9488 40.8129C28.5516 40.1236 28.918 39.2228 28.918 38.2373C28.918 36.0768 27.1603 34.3191 24.9998 34.3191C22.8393 34.3191 21.0815 36.0769 21.0815 38.2373C21.0815 39.2227 21.448 40.1235 22.0508 40.8129C20.8794 41.3249 19.8662 42.1333 19.1088 43.1447C18.2726 40.7642 16.4392 38.8493 14.112 37.9037C15.076 37.0085 15.6807 35.7314 15.6807 34.3152C15.6807 31.6141 13.4831 29.4165 10.7819 29.4165C8.08076 29.4165 5.8832 31.6141 5.8832 34.3152C5.8832 35.7314 6.48789 37.0085 7.45186 37.9037C4.23516 39.2108 1.96094 42.3695 1.96094 46.0499V49.0234C1.96094 49.5628 2.39814 50 2.9375 50H47.0622C47.6015 50 48.0388 49.5628 48.0388 49.0234V46.0499C48.0386 42.3695 45.7645 39.2107 42.5478 37.9037ZM39.2177 31.3696C40.8419 31.3696 42.1633 32.691 42.1633 34.3152C42.1633 35.9395 40.8419 37.2608 39.2177 37.2608C37.5935 37.2608 36.2721 35.9395 36.2721 34.3152C36.2721 32.691 37.5935 31.3696 39.2177 31.3696ZM24.9998 36.2724C26.0833 36.2724 26.9648 37.1539 26.9648 38.2374C26.9648 39.321 26.0834 40.2024 24.9998 40.2024C23.9162 40.2024 23.0347 39.3209 23.0347 38.2374C23.0347 37.1539 23.9162 36.2724 24.9998 36.2724ZM10.7818 31.3696C12.4061 31.3696 13.7274 32.691 13.7274 34.3152C13.7274 35.9395 12.4061 37.2608 10.7818 37.2608C9.15762 37.2608 7.83623 35.9395 7.83623 34.3152C7.83623 32.691 9.15762 31.3696 10.7818 31.3696ZM3.91396 46.0499C3.91396 42.2806 6.98057 39.214 10.7499 39.214H10.8138C14.5831 39.214 17.6497 42.2806 17.6497 46.0499V48.0469H3.91396V46.0499ZM19.6028 47.5268C19.6028 44.5651 22.0122 42.1557 24.9738 42.1557H25.0256C27.9873 42.1557 30.3968 44.5651 30.3968 47.5268V48.0469H19.6028V47.5268ZM46.0854 48.0469H32.3499C32.3499 47.5725 32.3499 46.53 32.3499 46.0499C32.3499 42.2806 35.4164 39.214 39.1858 39.214H39.2495C43.0189 39.214 46.0854 42.2806 46.0854 46.0499V48.0469Z" fill="#1456DA"/>
</svg>
