<svg width="40" height="41" viewBox="0 0 40 41" fill="none" xmlns="http://www.w3.org/2000/svg">
<g clip-path="url(#clip0_1_277)">
<path d="M19.2486 16.1884C16.772 14.6034 15.2934 11.9016 15.2934 8.9611V6.04586L20 4.16321L24.7066 6.04586V8.9611C24.7066 11.9016 23.228 14.6034 20.7513 16.1884L20 16.6693L19.2486 16.1884Z" fill="#E7EEFB"/>
<path d="M13.0023 13.3345C13.1094 13.6 13.2258 13.861 13.3516 14.1173V14.1188C13.743 14.9174 14.2242 15.6689 14.7875 16.3603C15.1789 16.8415 15.6101 17.2931 16.0781 17.7095C16.5359 18.1181 17.0305 18.4938 17.557 18.8313L20 20.3946L22.443 18.8313C24.5266 17.4978 26.1008 15.5634 26.9977 13.3346L26.9973 13.3348H34.5122V30.5924H5.48788V13.3347H13.003" fill="#E7EEFB"/>
<path d="M39.2188 32.9491H38.4311V12.5505C38.4311 10.8221 37.0249 9.41595 35.2966 9.41595H28.6168C28.6222 9.26493 28.6256 9.1136 28.6256 8.96173V3.92165C28.6256 3.6022 28.4312 3.31485 28.1345 3.19626L20.2902 0.0585254C20.1038 -0.0159277 19.8961 -0.0159277 19.7098 0.0585254L11.8655 3.19626C11.5689 3.31485 11.3743 3.60212 11.3743 3.92165V8.96173C11.3743 9.11313 11.3781 9.26462 11.3838 9.41595H4.70344C2.975 9.41595 1.56883 10.8221 1.56883 12.5505V32.9491H0.78125C0.349766 32.9491 0 33.2989 0 33.7303V36.8777C0 38.6008 1.40188 40.0027 3.125 40.0027H36.875C38.5981 40.0027 40 38.6008 40 36.8777V33.7303C40 33.2988 39.6502 32.9491 39.2188 32.9491ZM12.9369 4.45071L20 1.6254L27.0631 4.45063V8.96173C27.0631 12.7092 25.1784 16.1527 22.0216 18.1734L20 19.4674L17.9784 18.1734C14.7507 16.108 12.9369 12.5829 12.9369 8.96173V4.45071ZM3.13133 12.5505C3.13133 11.6836 3.83656 10.9784 4.70344 10.9784H11.5407C12.1228 14.5227 14.1716 17.5927 17.1362 19.4895L19.5789 21.0529C19.8356 21.2173 20.1644 21.2172 20.4212 21.0529L22.8641 19.4894C25.8965 17.5482 27.9014 14.458 28.4637 10.9784H35.2966C36.1635 10.9784 36.8687 11.6835 36.8687 12.5504V32.949H3.13133V12.5505ZM38.4375 36.8777C38.4375 37.7392 37.7366 38.4402 36.875 38.4402H3.125C2.26344 38.4402 1.5625 37.7392 1.5625 36.8777V34.5116H38.4375V36.8777Z" fill="#1456DA"/>
<path d="M19.0553 12.3183C19.3603 12.6232 19.8551 12.6233 20.1602 12.3183L22.5135 9.96502C22.8186 9.65994 22.8186 9.16525 22.5135 8.8601C22.2083 8.5551 21.7138 8.5551 21.4086 8.8601L19.6077 10.661L18.9835 10.0367C18.6783 9.73182 18.1837 9.73182 17.8787 10.0367C17.5736 10.3418 17.5735 10.8365 17.8786 11.1417L19.0553 12.3183Z" fill="#1456DA"/>
<path d="M14.1167 26.6733H8.62561C8.19413 26.6733 7.84436 27.0232 7.84436 27.4546C7.84436 27.886 8.19413 28.2358 8.62561 28.2358H14.1167C14.5482 28.2358 14.898 27.886 14.898 27.4546C14.898 27.0232 14.5482 26.6733 14.1167 26.6733Z" fill="#1456DA"/>
<path d="M14.1167 23.5356H8.62561C8.19413 23.5356 7.84436 23.8854 7.84436 24.3169C7.84436 24.7483 8.19413 25.0981 8.62561 25.0981H14.1167C14.5482 25.0981 14.898 24.7483 14.898 24.3169C14.898 23.8854 14.5482 23.5356 14.1167 23.5356Z" fill="#1456DA"/>
<path d="M14.1167 20.3979H8.62561C8.19413 20.3979 7.84436 20.7478 7.84436 21.1792C7.84436 21.6106 8.19413 21.9604 8.62561 21.9604H14.1167C14.5482 21.9604 14.898 21.6106 14.898 21.1792C14.898 20.7477 14.5482 20.3979 14.1167 20.3979Z" fill="#1456DA"/>
<path d="M31.3744 26.6733H25.8833C25.4518 26.6733 25.102 27.0232 25.102 27.4546C25.102 27.886 25.4518 28.2358 25.8833 28.2358H31.3744C31.8058 28.2358 32.1556 27.886 32.1556 27.4546C32.1556 27.0232 31.8058 26.6733 31.3744 26.6733Z" fill="#1456DA"/>
<path d="M31.3744 23.5356H25.8833C25.4518 23.5356 25.102 23.8854 25.102 24.3169C25.102 24.7483 25.4518 25.0981 25.8833 25.0981H31.3744C31.8058 25.0981 32.1556 24.7483 32.1556 24.3169C32.1556 23.8854 31.8058 23.5356 31.3744 23.5356Z" fill="#1456DA"/>
<path d="M31.3744 20.3979H25.8833C25.4518 20.3979 25.102 20.7478 25.102 21.1792C25.102 21.6106 25.4518 21.9604 25.8833 21.9604H31.3744C31.8058 21.9604 32.1556 21.6106 32.1556 21.1792C32.1556 20.7477 31.8058 20.3979 31.3744 20.3979Z" fill="#1456DA"/>
</g>
<defs>
<clipPath id="clip0_1_277">
<rect width="40" height="40" fill="white" transform="translate(0 0.00244141)"/>
</clipPath>
</defs>
</svg>
