<svg width="40" height="41" viewBox="0 0 40 41" fill="none" xmlns="http://www.w3.org/2000/svg">
<g clip-path="url(#clip0_1_296)">
<path d="M19.0152 35.4688C11.8143 32.6585 7.05682 25.7247 7.05682 17.9654V7.84378L20 4.01355L32.9433 7.84371V17.9654C32.9433 25.695 28.2137 32.6477 20.9849 35.4688L20 35.8532L19.0152 35.4688Z" fill="#E7EEFB"/>
<path d="M25.6419 10.5924H14.3581C14.0825 10.5924 13.8329 10.7398 13.6956 10.9596L10.3768 16.2697C10.2161 16.5268 10.2148 16.8858 10.414 17.1519C10.4526 17.2037 19.3689 29.0919 19.375 29.1001C19.6871 29.5158 20.3127 29.5161 20.625 29.1001C20.6318 29.0912 29.5933 17.1423 29.5861 17.1518C29.7833 16.8883 29.7862 16.5311 29.6233 16.2697L26.3045 10.9596C26.1676 10.7405 25.918 10.5924 25.6419 10.5924ZM17.405 17.465H22.5951L20 25.9579L17.405 17.465ZM16.5547 15.0062L15.4854 12.1549H18.5149L16.5547 15.0062ZM20 12.7527L22.1654 15.9025H17.8345L20 12.7527ZM21.4851 12.1549H24.5146L23.4454 15.0062L21.4851 12.1549ZM14.1821 13.1294L15.222 15.9025H12.4489L14.1821 13.1294ZM15.7711 17.465L17.9501 24.596L12.6018 17.465H15.7711ZM22.0499 24.596L24.2289 17.465H27.3983L22.0499 24.596ZM24.778 15.9025L25.8179 13.1294L27.5511 15.9025H24.778Z" fill="#1456DA"/>
<path d="M36.2956 4.62802L20.2147 0.0325585C20.0743 -0.00759763 19.9256 -0.00759763 19.7853 0.0325585L3.70438 4.62802C3.36899 4.72388 3.13782 5.03036 3.13782 5.37919V17.9653C3.13782 27.3068 8.85382 35.7102 17.5904 39.1194L19.7161 39.9489C19.8945 40.0186 20.097 40.0219 20.2841 39.9489L22.4097 39.1194C31.1121 35.7234 36.8623 27.3435 36.8623 17.9653V5.37927C36.8622 5.03044 36.631 4.72388 36.2956 4.62802ZM35.2997 17.9653C35.2997 26.7413 30.0171 34.4734 21.8415 37.664L20 38.3826L18.1584 37.664C9.98296 34.4734 4.70024 26.7413 4.70024 17.9653V5.96856L20 1.59631L35.2997 5.96856V17.9653Z" fill="#1456DA"/>
</g>
<defs>
<clipPath id="clip0_1_296">
<rect width="40" height="40" fill="white" transform="translate(0 0.00244141)"/>
</clipPath>
</defs>
</svg>
