<svg width="50" height="50" viewBox="0 0 50 50" fill="none" xmlns="http://www.w3.org/2000/svg">
<g clip-path="url(#clip0_1_85)">
<path d="M23.2972 24.6467C19.1443 21.989 16.665 17.4586 16.665 12.5281V8.53481L24.9997 5.20093L33.3344 8.53481V12.5281C33.3344 17.4585 30.8552 21.9889 26.7022 24.6467L24.9997 25.7364L23.2972 24.6467Z" fill="#E7EEFB"/>
<path d="M28.6347 14.4921H25.9766V11.834C25.9766 11.2946 25.5393 10.8574 25 10.8574C24.4606 10.8574 24.0234 11.2946 24.0234 11.834V14.4921H21.3653C20.826 14.4921 20.3888 14.9293 20.3888 15.4687C20.3888 16.008 20.826 16.4452 21.3653 16.4452H24.0234V19.1033C24.0234 19.6427 24.4606 20.0799 25 20.0799C25.5393 20.0799 25.9766 19.6427 25.9766 19.1033V16.4452H28.6347C29.174 16.4452 29.6112 16.008 29.6112 15.4687C29.6112 14.9293 29.174 14.4921 28.6347 14.4921Z" fill="#1456DA"/>
<path d="M38.2334 12.528V5.87925C38.2334 5.47993 37.9902 5.12085 37.6195 4.97261L25.3627 0.069873C25.1299 -0.023291 24.8701 -0.023291 24.6373 0.069873L12.3805 4.97261C12.0098 5.12085 11.7666 5.47993 11.7666 5.87925V12.528C11.7666 19.1081 15.1264 25.2333 20.6568 28.7727L24.4736 31.2155C24.7946 31.4209 25.2056 31.4209 25.5265 31.2155L29.3433 28.7727C34.8855 25.2258 38.2334 19.0942 38.2334 12.528ZM25 29.2336L21.7097 27.1277C16.7065 23.9257 13.7197 18.468 13.7197 12.528V6.54048L25 2.02837L36.2803 6.54048V12.528C36.2803 18.4679 33.2934 23.9257 28.2903 27.1277L25 29.2336Z" fill="#1456DA"/>
<path d="M46.0818 11.7666C43.9277 11.7666 42.1741 13.5139 42.1637 15.6654L41.8001 25.4416C40.5502 24.8021 38.9915 24.9701 37.8978 25.9646C37.8838 25.9772 37.8702 25.9902 37.857 26.0037L27.7204 36.3499C27.5412 36.5329 27.441 36.7789 27.4414 37.0351C27.4414 37.052 27.4554 49.007 27.4554 49.0234C27.4554 49.5628 27.8926 50 28.4319 50H41.179C41.7184 50 42.1556 49.5628 42.1556 49.0234C42.1556 48.0359 42.1556 43.0124 42.1556 42.0258L49.7704 32.9832C49.9188 32.8071 50 32.5843 50 32.3542V15.6849C50 13.5243 48.2423 11.7666 46.0818 11.7666ZM40.2024 48.0469H29.4085V46.0778H40.2024V48.0469ZM48.0469 31.9977L40.432 41.0402C40.2838 41.2163 40.2024 41.4392 40.2024 41.6693V44.1247H29.4068L29.3952 37.4313L39.23 27.3932C39.8269 26.868 40.7279 26.895 41.2921 27.4592C41.8648 28.0319 41.8451 28.949 41.2473 29.547L36.6306 34.1637C36.2492 34.545 36.2492 35.1634 36.6307 35.5448C37.012 35.9262 37.6304 35.9261 38.0117 35.5447L42.6284 30.928C43.4094 30.1471 43.7523 29.1206 43.6545 28.1327L44.1161 15.7211C44.1165 15.709 44.1168 15.6969 44.1168 15.6848C44.1168 14.6012 44.9983 13.7196 46.0818 13.7196C47.1653 13.7196 48.0469 14.6013 48.0469 15.6849V31.9977Z" fill="#1456DA"/>
<path d="M12.143 26.0037C12.1298 25.9902 12.1162 25.9771 12.1023 25.9645C11.0086 24.9702 9.4499 24.8021 8.2 25.4416L7.83643 15.6654C7.82598 13.5138 6.07236 11.7666 3.91826 11.7666C1.75771 11.7665 0 13.5242 0 15.6848V32.3541C0 32.5842 0.08125 32.807 0.22959 32.9831L7.84443 42.0257V49.0233C7.84443 49.5627 8.28164 49.9999 8.821 49.9999H21.5681C22.1074 49.9999 22.5446 49.5627 22.5446 49.0233V45.1028L22.5586 37.0351C22.559 36.7789 22.4589 36.5328 22.2796 36.3499L12.143 26.0037ZM1.95312 31.9976V15.6848C1.95312 14.6012 2.83467 13.7196 3.91826 13.7196C5.00186 13.7196 5.8834 14.6012 5.8834 15.6848C5.8834 15.6969 5.88359 15.709 5.88408 15.7211L6.3457 28.1326C6.24795 29.1206 6.59082 30.1471 7.37178 30.928L11.9885 35.5447C12.3699 35.9262 12.9883 35.9262 13.3695 35.5448C13.7509 35.1634 13.7509 34.5451 13.3696 34.1637L8.75293 29.5469C8.15508 28.949 8.13535 28.0319 8.70811 27.4593C9.27227 26.8951 10.1733 26.8681 10.7702 27.3932L20.605 37.4313L20.5934 44.1247H9.79756V41.6693C9.79756 41.4392 9.71621 41.2163 9.56797 41.0402L1.95312 31.9976ZM20.5915 48.0468H9.79756V46.0777H20.5915V48.0468Z" fill="#1456DA"/>
</g>
<defs>
<clipPath id="clip0_1_85">
<rect width="50" height="50" fill="white"/>
</clipPath>
</defs>
</svg>
