<svg width="50" height="50" viewBox="0 0 50 50" fill="none" xmlns="http://www.w3.org/2000/svg">
<g clip-path="url(#clip0_1_114)">
<path d="M20.5881 37.2568H29.413V49.0234H20.5881V37.2568Z" fill="#E7EEFB"/>
<path d="M24.0612 19.2519C20.9655 17.2706 19.1172 13.8932 19.1172 10.2177V7.55425L25.0005 5.20093L30.8838 7.55425V10.2177C30.8838 13.8933 29.0354 17.2706 25.9396 19.2519L25.0005 19.8531L24.0612 19.2519Z" fill="#E7EEFB"/>
<path d="M19.1167 27.4553H15.1945C14.6552 27.4553 14.218 27.8925 14.218 28.4319V33.3346C14.218 33.874 14.6552 34.3112 15.1945 34.3112H19.1167C19.656 34.3112 20.0933 33.874 20.0933 33.3346V28.4319C20.0933 27.8925 19.656 27.4553 19.1167 27.4553ZM18.1401 32.3581H16.1711V29.4084H18.1401V32.3581Z" fill="#1456DA"/>
<path d="M26.9611 27.4553H23.0389C22.4995 27.4553 22.0623 27.8925 22.0623 28.4319V33.3346C22.0623 33.874 22.4995 34.3112 23.0389 34.3112H26.9611C27.5004 34.3112 27.9377 33.874 27.9377 33.3346V28.4319C27.9377 27.8925 27.5005 27.4553 26.9611 27.4553ZM25.9846 32.3581H24.0154V29.4084H25.9846V32.3581Z" fill="#1456DA"/>
<path d="M34.805 27.4553H30.8828C30.3436 27.4553 29.9062 27.8925 29.9062 28.4319V33.3346C29.9062 33.874 30.3436 34.3112 30.8828 34.3112H34.805C35.3443 34.3112 35.7815 33.874 35.7815 33.3346V28.4319C35.7815 27.8925 35.3443 27.4553 34.805 27.4553ZM33.8284 32.3581H31.8594V29.4084H33.8284V32.3581Z" fill="#1456DA"/>
<path d="M49.0234 27.4553H39.7042V22.5446H41.1791C41.7184 22.5446 42.1557 22.1074 42.1557 21.568V15.6847C42.1557 15.1454 41.7184 14.7082 41.1791 14.7082H35.1284C35.5563 13.2731 35.782 11.7637 35.782 10.2177V4.89868C35.782 4.49937 35.539 4.14028 35.1682 3.99194L25.3627 0.069873C25.1298 -0.023291 24.8701 -0.023291 24.6373 0.069873L14.8318 3.99204C14.4611 4.14038 14.218 4.49946 14.218 4.89878V10.2178C14.218 11.7639 14.4437 13.2732 14.8717 14.7083H8.821C8.28164 14.7083 7.84443 15.1455 7.84443 15.6848V21.5681C7.84443 22.1075 8.28164 22.5447 8.821 22.5447H10.2958V27.4554H0.976562C0.437207 27.4554 0 27.8926 0 28.432V32.3542C0 32.8935 0.437207 33.3307 0.976562 33.3307H1.96104V49.0234C1.96104 49.5627 2.39824 50 2.9376 50H47.0623C47.6016 50 48.0389 49.5627 48.0389 49.0234V33.3306H49.0234C49.5627 33.3306 50 32.8934 50 32.3541V28.4319C50 27.8925 49.5628 27.4553 49.0234 27.4553ZM40.2025 16.6614V20.5916H31.8478C32.8964 19.4138 33.7548 18.089 34.3995 16.6614H40.2025ZM16.1711 5.55991L25 2.02837L33.8289 5.55991V10.2177C33.8289 11.961 33.5022 13.6512 32.8894 15.217C32.8713 15.2502 32.8544 15.2844 32.8399 15.3202C31.98 17.4571 30.5821 19.3558 28.7973 20.8112C28.7892 20.8178 28.7817 20.8251 28.7738 20.8319C28.3779 21.1523 27.9627 21.4541 27.5271 21.733L25 23.3502L22.4729 21.7329C20.1229 20.2289 18.2352 17.992 17.16 15.3202C17.1457 15.2846 17.1288 15.2506 17.1107 15.2174C16.4978 13.6515 16.1711 11.961 16.1711 10.2177V5.55991ZM9.79756 16.6614H15.6005C16.2452 18.0889 17.1036 19.4138 18.1522 20.5916H9.79756V16.6614ZM1.95312 29.4085H10.2958V31.3775C9.49609 31.3775 3.22773 31.3775 1.95312 31.3775V29.4085ZM3.91426 33.3306H10.2958V48.0468H3.91426V33.3306ZM12.2489 22.5446H20.2409C20.6188 22.8381 21.0118 23.1167 21.4201 23.378L24.4736 25.3322C24.7939 25.5372 25.2048 25.5379 25.5265 25.3322L28.58 23.378C28.9884 23.1167 29.3813 22.8381 29.7592 22.5446H37.7512V48.0468H12.2489C12.2489 45.1866 12.2489 25.2353 12.2489 22.5446ZM46.0857 48.0468H39.7042V33.3306H46.0857V48.0468ZM48.0469 31.3775C47.2205 31.3775 40.8507 31.3775 39.7042 31.3775V29.4085H48.0469V31.3775Z" fill="#1456DA"/>
<path d="M23.8192 14.4142C24.2003 14.7953 24.819 14.7955 25.2003 14.4142L28.1419 11.4725C28.5233 11.0911 28.5233 10.4728 28.1419 10.0914C27.7605 9.71007 27.1423 9.71007 26.7608 10.0915L24.5097 12.3426L23.7294 11.5623C23.348 11.181 22.7297 11.1811 22.3484 11.5623C21.967 11.9437 21.9669 12.562 22.3484 12.9434L23.8192 14.4142Z" fill="#1456DA"/>
</g>
<defs>
<clipPath id="clip0_1_114">
<rect width="50" height="50" fill="white"/>
</clipPath>
</defs>
</svg>
