<svg width="40" height="41" viewBox="0 0 40 41" fill="none" xmlns="http://www.w3.org/2000/svg">
<g clip-path="url(#clip0_1_307)">
<path d="M19.2486 35.0149C16.772 33.4298 15.2934 30.728 15.2934 27.7875V24.8723L20 22.9896L24.7066 24.8723V27.7875C24.7066 30.728 23.228 33.4298 20.7513 35.0149L20 35.4958L19.2486 35.0149Z" fill="#E7EEFB"/>
<path d="M4.44195 3.92139L2.61163 7.05912H37.3884L35.558 3.92139H4.44195Z" fill="#E7EEFB"/>
<path d="M22.5135 27.6866C22.2084 27.3816 21.7138 27.3816 21.4086 27.6866L19.6077 29.4876L18.9835 28.8634C18.6784 28.5584 18.1837 28.5584 17.8786 28.8634C17.5735 29.1685 17.5735 29.6631 17.8786 29.9683L19.0553 31.1449C19.3605 31.45 19.855 31.4499 20.1602 31.1449L22.5135 28.7916C22.8186 28.4865 22.8186 27.9918 22.5135 27.6866Z" fill="#1456DA"/>
<path d="M39.8936 9.8033L34.4025 0.39002C34.2625 0.15002 34.0055 0.00244141 33.7277 0.00244141H6.27234C5.99445 0.00244141 5.7375 0.15002 5.5975 0.39002L0.106406 9.8033C0.0409375 9.91541 0 10.0585 0 10.197V13.727C0 15.5401 1.37547 17.0375 3.13773 17.2317V39.2212C3.13773 39.6526 3.4875 40.0024 3.91898 40.0024H36.081C36.5124 40.0024 36.8623 39.6526 36.8623 39.2212V17.2317C38.6245 17.0375 40 15.5401 40 13.727V10.197C40 10.0574 39.9585 9.91447 39.8936 9.8033ZM6.72109 1.56494H33.2789L37.8586 9.41572H2.14141L6.72109 1.56494ZM32.9464 13.727C32.9464 14.81 32.0652 15.6913 30.9821 15.6913C29.8991 15.6913 29.0178 14.8101 29.0178 13.727V10.9782H32.9463L32.9464 13.727ZM7.05359 10.9782H10.9821V13.727C10.9821 14.81 10.1009 15.6913 9.01781 15.6913C7.93469 15.6913 7.05352 14.8101 7.05352 13.727L7.05359 10.9782ZM12.5446 10.9782H16.4732V13.727C16.4732 14.81 15.592 15.6913 14.5088 15.6913C13.4258 15.6913 12.5445 14.8101 12.5445 13.727L12.5446 10.9782ZM18.0357 10.9782H21.9642V13.727C21.9642 14.81 21.083 15.6913 19.9999 15.6913C18.9169 15.6913 18.0356 14.8101 18.0356 13.727L18.0357 10.9782ZM23.5268 10.9782H27.4554V13.727C27.4554 14.81 26.5742 15.6913 25.4911 15.6913C24.408 15.6913 23.5268 14.8101 23.5268 13.727V10.9782ZM1.5625 13.727V10.9782H5.49109V13.727C5.49109 14.81 4.60992 15.6913 3.52672 15.6913C2.44367 15.6912 1.5625 14.81 1.5625 13.727ZM17.9783 36.9997C14.7504 34.9339 12.9369 31.4091 12.9369 27.788V23.277L20 20.4517L27.0631 23.2769V27.788C27.0631 31.5355 25.1784 34.9791 22.0216 36.9997L20 38.2936L17.9783 36.9997ZM22.67 38.4399L22.8639 38.3158C26.4717 36.0064 28.6256 32.0708 28.6256 27.788V22.7479C28.6256 22.4285 28.4312 22.1411 28.1345 22.0225L20.2902 18.8848C20.1038 18.8103 19.896 18.8103 19.7098 18.8848L11.8655 22.0225C11.5689 22.1411 11.3744 22.4284 11.3744 22.7479V27.788C11.3744 32.0136 13.5195 36.0014 17.1361 38.3158L17.33 38.4399H4.70023V17.0527C5.32266 16.8324 5.86539 16.4424 6.27234 15.9382C6.91938 16.74 7.90977 17.2537 9.01789 17.2537C10.126 17.2537 11.1163 16.74 11.7634 15.9382C12.4105 16.74 13.4009 17.2537 14.509 17.2537C15.6172 17.2537 16.6075 16.74 17.2546 15.9382C17.9016 16.74 18.892 17.2537 20.0002 17.2537C21.1083 17.2537 22.0986 16.74 22.7457 15.9382C23.3927 16.74 24.3831 17.2537 25.4912 17.2537C26.5994 17.2537 27.5897 16.74 28.2368 15.9382C28.8838 16.74 29.8742 17.2537 30.9823 17.2537C32.0905 17.2537 33.0808 16.74 33.7279 15.9382C34.1348 16.4424 34.6776 16.8324 35.3 17.0527V38.4399H22.67ZM36.4732 15.6912C35.3901 15.6912 34.5089 14.81 34.5089 13.7269V10.9782H38.4375V13.727C38.4375 14.81 37.5563 15.6912 36.4732 15.6912Z" fill="#1456DA"/>
</g>
<defs>
<clipPath id="clip0_1_307">
<rect width="40" height="40" fill="white" transform="translate(0 0.00244141)"/>
</clipPath>
</defs>
</svg>
