<svg width="40" height="41" viewBox="0 0 40 41" fill="none" xmlns="http://www.w3.org/2000/svg">
<g clip-path="url(#clip0_1_262)">
<path d="M16.4697 29.8079H23.5296V39.2211H16.4697V29.8079Z" fill="#E7EEFB"/>
<path d="M19.2482 15.4039C16.7716 13.8188 15.293 11.1169 15.293 8.17652V6.04574L19.9996 4.16309L24.7062 6.04574V8.17652C24.7062 11.117 23.2276 13.8188 20.7509 15.4039L19.9996 15.8848L19.2482 15.4039Z" fill="#E7EEFB"/>
<path d="M15.293 21.9668H12.1553C11.7238 21.9668 11.374 22.3166 11.374 22.748V26.6702C11.374 27.1017 11.7238 27.4515 12.1553 27.4515H15.293C15.7245 27.4515 16.0743 27.1017 16.0743 26.6702V22.748C16.0743 22.3166 15.7245 21.9668 15.293 21.9668ZM14.5118 25.889H12.9365V23.5293H14.5118V25.889Z" fill="#1456DA"/>
<path d="M21.5685 21.9668H18.4307C17.9992 21.9668 17.6494 22.3166 17.6494 22.748V26.6702C17.6494 27.1017 17.9992 27.4515 18.4307 27.4515H21.5685C21.9999 27.4515 22.3497 27.1017 22.3497 26.6702V22.748C22.3497 22.3166 22 21.9668 21.5685 21.9668ZM20.7872 25.889H19.2119V23.5293H20.7872V25.889Z" fill="#1456DA"/>
<path d="M27.8448 21.9668H24.707C24.2756 21.9668 23.9258 22.3166 23.9258 22.748V26.6702C23.9258 27.1017 24.2756 27.4515 24.707 27.4515H27.8448C28.2762 27.4515 28.626 27.1017 28.626 26.6702V22.748C28.626 22.3166 28.2762 21.9668 27.8448 21.9668ZM27.0635 25.889H25.4883V23.5293H27.0635V25.889Z" fill="#1456DA"/>
<path d="M39.2188 21.9667H31.7634V18.0381H32.9433C33.3747 18.0381 33.7245 17.6883 33.7245 17.2569V12.5502C33.7245 12.1187 33.3747 11.769 32.9433 11.769H28.1027C28.445 10.6209 28.6256 9.41342 28.6256 8.17662V3.92139C28.6256 3.60193 28.4312 3.31467 28.1345 3.196L20.2902 0.0583398C20.1038 -0.0161914 19.8961 -0.0161914 19.7098 0.0583398L11.8655 3.19607C11.5689 3.31475 11.3744 3.60201 11.3744 3.92146V8.1767C11.3744 9.41357 11.555 10.621 11.8973 11.769H7.0568C6.62531 11.769 6.27555 12.1188 6.27555 12.5503V17.2569C6.27555 17.6884 6.62531 18.0382 7.0568 18.0382H8.23664V21.9668H0.78125C0.349766 21.9668 0 22.3165 0 22.748V25.8858C0 26.3172 0.349766 26.667 0.78125 26.667H1.56883V39.2212C1.56883 39.6526 1.91859 40.0024 2.35008 40.0024H37.6498C38.0812 40.0024 38.4311 39.6526 38.4311 39.2212V26.6669H39.2188C39.6502 26.6669 40 26.3172 40 25.8857V22.748C40 22.3165 39.6502 21.9667 39.2188 21.9667ZM32.162 13.3315V16.4757H25.4782C26.3171 15.5335 27.0038 14.4737 27.5196 13.3315H32.162ZM12.9369 4.45037L20 1.62514L27.0631 4.45037V8.17662C27.0631 9.57123 26.8018 10.9234 26.3115 12.1761C26.297 12.2026 26.2835 12.23 26.272 12.2586C25.584 13.9681 24.4657 15.4871 23.0378 16.6514C23.0313 16.6567 23.0254 16.6625 23.0191 16.6679C22.7023 16.9243 22.3702 17.1657 22.0216 17.3888L20 18.6826L17.9784 17.3887C16.0984 16.1855 14.5881 14.3961 13.728 12.2586C13.7166 12.2301 13.703 12.2029 13.6886 12.1764C13.1982 10.9237 12.9369 9.57123 12.9369 8.17662V4.45037ZM7.83805 13.3315H12.4804C12.9962 14.4736 13.6829 15.5335 14.5218 16.4757H7.83805V13.3315ZM1.5625 23.5292H8.23664V25.1044C7.59688 25.1044 2.58219 25.1044 1.5625 25.1044V23.5292ZM3.13141 26.6669H8.23664V38.4399H3.13141V26.6669ZM9.79914 18.0381H16.1927C16.4951 18.2729 16.8095 18.4958 17.1361 18.7048L19.5789 20.2682C19.8352 20.4322 20.1638 20.4328 20.4212 20.2682L22.864 18.7048C23.1907 18.4958 23.505 18.2729 23.8073 18.0381H30.2009V38.4399H9.79914C9.79914 36.1517 9.79914 20.1907 9.79914 18.0381ZM36.8686 38.4399H31.7634V26.6669H36.8686V38.4399ZM38.4375 25.1044C37.7764 25.1044 32.6805 25.1044 31.7634 25.1044V23.5292H38.4375V25.1044Z" fill="#1456DA"/>
<path d="M19.0549 11.5337C19.3598 11.8386 19.8547 11.8388 20.1598 11.5337L22.5131 9.18032C22.8182 8.87524 22.8182 8.38056 22.5131 8.07548C22.2079 7.7704 21.7134 7.7704 21.4082 8.07556L19.6073 9.87642L18.9831 9.2522C18.6779 8.94712 18.1833 8.9472 17.8783 9.2522C17.5732 9.55728 17.5731 10.052 17.8783 10.357L19.0549 11.5337Z" fill="#1456DA"/>
</g>
<defs>
<clipPath id="clip0_1_262">
<rect width="40" height="40" fill="white" transform="translate(0 0.00244141)"/>
</clipPath>
</defs>
</svg>
