<svg width="25" height="25" viewBox="0 0 25 25" fill="none" xmlns="http://www.w3.org/2000/svg">
<g clip-path="url(#clip0_516_1041)">
<path fill-rule="evenodd" clip-rule="evenodd" d="M14.0545 15.1149L16.2586 12.9108C16.8673 12.3021 17.0182 11.3722 16.6332 10.6022L16.5083 10.3524C16.1233 9.58247 16.2743 8.65252 16.883 8.0438L19.6158 5.311C19.811 5.11574 20.1276 5.11574 20.3229 5.311C20.3609 5.349 20.3925 5.39288 20.4165 5.44094L21.5205 7.6489C22.3651 9.338 22.034 11.378 20.6987 12.7134L14.6998 18.7122C13.2463 20.1658 11.0963 20.6733 9.14615 20.0233L6.73167 19.2184C6.4697 19.1311 6.32812 18.848 6.41544 18.586C6.43999 18.5123 6.48134 18.4454 6.53623 18.3905L9.1875 15.7393C9.79622 15.1305 10.7262 14.9796 11.4961 15.3646L11.7459 15.4895C12.5159 15.8745 13.4458 15.7236 14.0545 15.1149Z" fill="#7977C6"/>
<path opacity="0.3" d="M15.1226 6.33817L14.9313 8.329C13.4527 8.18686 11.9843 8.69998 10.9139 9.77036C9.84704 10.8372 9.33369 12.2996 9.47122 13.7737L7.47986 13.9594C7.28762 11.8989 8.00741 9.84844 9.4997 8.35615C10.9969 6.85895 13.0558 6.13949 15.1226 6.33817ZM15.4727 2.35333L15.2876 4.34475C12.6364 4.09839 10.0046 5.02284 8.08549 6.94194C6.16904 8.85838 5.24443 11.4856 5.48731 14.1334L3.49568 14.3161C3.19908 11.0828 4.3302 7.8688 6.67127 5.52772C9.01559 3.1834 12.2352 2.0525 15.4727 2.35333Z" fill="#7977C6"/>
</g>
<defs>
<clipPath id="clip0_516_1041">
<rect width="24" height="24" fill="white" transform="translate(0.974609 0.331055)"/>
</clipPath>
</defs>
</svg>
