<svg width="25" height="25" viewBox="0 0 25 25" fill="none" xmlns="http://www.w3.org/2000/svg">
<path d="M21.7761 18.1445C21.0271 17.3899 19.2131 16.2885 18.333 15.8447C17.1869 15.2674 17.0926 15.2202 16.1917 15.8895C15.5908 16.3362 15.1913 16.7352 14.4881 16.5852C13.7848 16.4352 12.2567 15.5895 10.9186 14.2557C9.58048 12.9218 8.68574 11.3493 8.53528 10.6485C8.38483 9.94758 8.79045 9.5528 9.23286 8.9505C9.85639 8.10151 9.80923 7.96002 9.27626 6.81389C8.86073 5.92246 7.72734 4.12545 6.96986 3.38023C6.15955 2.57983 6.15955 2.72133 5.63742 2.93829C5.21235 3.11713 4.80455 3.33453 4.41914 3.58776C3.66448 4.08913 3.24565 4.5056 2.95275 5.13149C2.65986 5.75738 2.52826 7.2247 4.04087 9.97258C5.55347 12.7204 6.6147 14.1255 8.8112 16.3159C11.0077 18.5063 12.6967 19.684 15.1658 21.0688C18.2203 22.7795 19.3919 22.446 20.0197 22.1536C20.6474 21.8612 21.0658 21.4461 21.5681 20.6915C21.822 20.3067 22.0399 19.8993 22.219 19.4746C22.4364 18.9543 22.5779 18.9543 21.7761 18.1445Z" stroke="#243D31" stroke-width="1.5093" stroke-miterlimit="10"/>
</svg>
