<svg width="26" height="25" viewBox="0 0 26 25" fill="none" xmlns="http://www.w3.org/2000/svg">
<path d="M22.2551 18.1445C21.5061 17.3899 19.6921 16.2885 18.812 15.8447C17.6659 15.2674 17.5716 15.2202 16.6707 15.8895C16.0698 16.3362 15.6703 16.7352 14.9671 16.5852C14.2638 16.4352 12.7357 15.5895 11.3976 14.2557C10.0595 12.9218 9.16475 11.3493 9.01429 10.6485C8.86383 9.94758 9.26945 9.5528 9.71187 8.9505C10.3354 8.10151 10.2882 7.96002 9.75526 6.81389C9.33973 5.92246 8.20634 4.12545 7.44886 3.38023C6.63855 2.57983 6.63855 2.72133 6.11643 2.93829C5.69136 3.11713 5.28356 3.33453 4.89814 3.58776C4.14349 4.08913 3.72466 4.5056 3.43176 5.13149C3.13886 5.75738 3.00727 7.2247 4.51987 9.97258C6.03247 12.7204 7.0937 14.1255 9.29021 16.3159C11.4867 18.5063 13.1757 19.684 15.6448 21.0688C18.6993 22.7795 19.8709 22.446 20.4987 22.1536C21.1264 21.8612 21.5448 21.4461 22.0471 20.6915C22.301 20.3067 22.5189 19.8993 22.698 19.4746C22.9154 18.9543 23.0569 18.9543 22.2551 18.1445Z" stroke="#F23936" stroke-width="1.5093" stroke-miterlimit="10"/>
</svg>
