<svg width="33" height="33" viewBox="0 0 33 33" fill="none" xmlns="http://www.w3.org/2000/svg">
<g clip-path="url(#clip0_14_330)">
<path d="M32.252 14.6959C32.6024 14.6227 32.8233 14.2557 32.7243 13.9111C30.8403 6.89993 24.5824 1.94514 17.3735 1.67326V1.03644C17.3735 0.691315 17.0937 0.411438 16.7485 0.411438C16.4033 0.411438 16.1235 0.691315 16.1235 1.03644V1.67326C8.91461 1.94514 2.65656 6.89993 0.772673 13.9111C0.601359 14.5349 1.36393 14.9772 1.82074 14.5207C3.61232 12.6595 6.83028 12.662 8.61892 14.5261C8.86299 14.7701 9.2588 14.7702 9.5028 14.5261C11.2286 12.7285 14.3098 12.6511 16.1235 14.3522V19.5991C16.1235 19.9443 16.4033 20.2242 16.7485 20.2242C17.0937 20.2242 17.3735 19.9443 17.3735 19.5991V14.3522C19.1872 12.651 22.2684 12.7286 23.9942 14.5261C24.2382 14.7702 24.634 14.7702 24.878 14.5261C26.6665 12.6622 29.8838 12.6595 31.6755 14.5199C31.8234 14.6719 32.0442 14.7401 32.252 14.6959ZM2.57081 12.4718C4.40608 7.93381 8.31211 4.57128 12.9894 3.3814C10.4819 5.85598 9.37687 8.91369 8.61048 12.9038C6.8881 11.7039 4.45114 11.5337 2.57081 12.4718ZM12.9047 11.8671C11.8454 11.8671 10.8276 12.137 9.92987 12.6443C10.6966 8.91488 12.4291 3.95759 16.1235 3.07658V12.7898C15.1681 12.1888 14.0612 11.8671 12.9047 11.8671ZM17.3735 12.7898V3.07658C21.0661 3.95728 22.7993 8.91007 23.5672 12.6443C21.7046 11.5625 19.1816 11.6203 17.3735 12.7898ZM24.8866 12.9039C24.12 8.91363 23.0151 5.85611 20.5076 3.3814C25.1849 4.57122 29.0909 7.93375 30.9262 12.4718C29.0457 11.5337 26.609 11.7039 24.8866 12.9039Z" fill="#026939"/>
<path fill-rule="evenodd" clip-rule="evenodd" d="M16.7485 32.0993C20.3631 32.0993 23.3111 29.1513 23.3111 25.5368C22.9754 16.8437 10.5203 16.8461 10.1859 25.5368C10.186 29.1513 13.134 32.0993 16.7485 32.0993Z" fill="#FFDE11"/>
<path d="M16.6191 28.466C16.392 28.466 16.1651 28.4213 15.9495 28.332L15.6432 28.2051C15.3243 28.073 15.1729 27.7074 15.305 27.3885C15.4371 27.0697 15.8026 26.9184 16.1216 27.0504L16.4278 27.1771C16.5516 27.2284 16.6892 27.2279 16.815 27.1759C16.9408 27.1237 17.0384 27.0268 17.0897 26.9029C17.1983 26.6562 17.0668 26.3386 16.8156 26.241L16.2031 25.9873C15.3083 25.6165 14.8818 24.5869 15.2525 23.6921C15.4316 23.2597 15.7694 22.9225 16.2037 22.7427C16.638 22.5627 17.1153 22.5624 17.5476 22.7414L17.8538 22.8682C18.1728 23.0002 18.3242 23.3659 18.1921 23.6848C18.06 24.0037 17.6944 24.1552 17.3755 24.023L17.0693 23.8962C16.9455 23.845 16.808 23.8453 16.6821 23.8975C16.5563 23.9496 16.4587 24.0465 16.4074 24.1704C16.3005 24.4285 16.4235 24.7255 16.6816 24.8324L17.294 25.086C18.1713 25.428 18.6231 26.519 18.2446 27.3812C18.0656 27.8135 17.7278 28.1507 17.2935 28.3307C17.0757 28.4209 16.8473 28.466 16.6191 28.466Z" fill="#026939"/>
<path d="M16.7485 23.6704C16.4033 23.6704 16.1235 23.3905 16.1235 23.0454V22.4118C16.1543 21.5834 17.3431 21.584 17.3735 22.4118V23.0454C17.3735 23.3905 17.0937 23.6704 16.7485 23.6704Z" fill="#026939"/>
<path d="M16.7485 29.2868C16.4033 29.2868 16.1235 29.007 16.1235 28.6618V27.9713C16.1543 27.143 17.3431 27.1436 17.3735 27.9713V28.6618C17.3735 29.007 17.0937 29.2868 16.7485 29.2868Z" fill="#026939"/>
</g>
<defs>
<clipPath id="clip0_14_330">
<rect width="32" height="32" fill="white" transform="translate(0.748047 0.255371)"/>
</clipPath>
</defs>
</svg>
