<svg width="70" height="70" viewBox="0 0 70 70" fill="none" xmlns="http://www.w3.org/2000/svg">
<path d="M35.0003 19.213H30.882V15.0947H25.3909V19.213H21.2727V24.704H25.3909V28.8224H30.882V24.704H35.0003V19.213Z" fill="#1456DA"/>
<path d="M49.4725 61.2717C45.1385 58.4978 42.551 53.7697 42.551 48.6238V43.5222L50.7876 40.2275L59.0242 43.5222V48.6238C59.0242 53.7697 56.4366 58.4978 52.1024 61.2717L50.7876 62.1133L49.4725 61.2717Z" fill="#E7EEFB"/>
<path d="M31.5681 34.3191H10.9766C10.2215 34.3191 9.60941 34.9313 9.60941 35.6863C9.60941 36.4412 10.2215 37.0535 10.9766 37.0535H31.5681C32.3232 37.0535 32.9353 36.4412 32.9353 35.6863C32.9353 34.9313 32.3232 34.3191 31.5681 34.3191Z" fill="#1456DA"/>
<path d="M31.5681 39.8103H10.9766C10.2215 39.8103 9.60941 40.4225 9.60941 41.1775C9.60941 41.9325 10.2215 42.5447 10.9766 42.5447H31.5681C32.3232 42.5447 32.9353 41.9325 32.9353 41.1775C32.9353 40.4225 32.3232 39.8103 31.5681 39.8103Z" fill="#1456DA"/>
<path d="M31.5681 45.3013H10.9766C10.2215 45.3013 9.60941 45.9134 9.60941 46.6685C9.60941 47.4234 10.2215 48.0356 10.9766 48.0356H31.5681C32.3232 48.0356 32.9353 47.4234 32.9353 46.6685C32.9353 45.9134 32.3232 45.3013 31.5681 45.3013Z" fill="#1456DA"/>
<path d="M31.5681 50.7925H10.9766C10.2215 50.7925 9.60941 51.4047 9.60941 52.1597C9.60941 52.9146 10.2215 53.5269 10.9766 53.5269H31.5681C32.3232 53.5269 32.9353 52.9146 32.9353 52.1597C32.9353 51.4046 32.3232 50.7925 31.5681 50.7925Z" fill="#1456DA"/>
<path d="M20.5859 56.2834H10.9766C10.2215 56.2834 9.60941 56.8957 9.60941 57.6506C9.60941 58.4056 10.2215 59.0178 10.9766 59.0178H20.586C21.3411 59.0178 21.9532 58.4056 21.9532 57.6506C21.9531 56.8955 21.341 56.2834 20.5859 56.2834Z" fill="#1456DA"/>
<path d="M49.0079 50.5066C48.474 49.9728 47.6083 49.9728 47.0745 50.5066C46.5406 51.0406 46.5406 51.9061 47.0745 52.4402L49.1337 54.4993C49.4007 54.7662 49.7506 54.8997 50.1005 54.8997C50.4503 54.8997 50.8003 54.7662 51.0672 54.4993L55.1854 50.381C55.7193 49.8472 55.7193 48.9815 55.1854 48.4474C54.6515 47.9137 53.7858 47.9137 53.2518 48.4474L50.1003 51.5991L49.0079 50.5066Z" fill="#1456DA"/>
<path d="M65.0222 38.5351L52.154 33.388V12.3493C52.154 12.0029 52.0159 11.6458 51.7549 11.3839C51.7545 11.3835 51.7541 11.3828 51.7537 11.3824L40.7714 0.400449C40.5293 0.158184 40.1819 0 39.8047 0H5.48557C4.73047 0 4.11838 0.61209 4.11838 1.36719V68.6328C4.11838 69.3878 4.73047 70 5.48557 70H50.7869C51.0543 70 51.3152 69.918 51.524 69.7844L55.7989 67.0484C62.1126 63.0071 65.8819 56.1198 65.8819 48.6247V39.8046C65.8816 39.2457 65.5413 38.7428 65.0222 38.5351ZM41.1719 4.66799C41.9076 5.40367 46.7469 10.2428 47.4861 10.9822H41.1719V4.66799ZM6.85275 2.73438H38.4375V12.3493C38.4375 13.1042 39.0496 13.7164 39.8047 13.7164H49.4196V33.388L36.5515 38.5351C36.0324 38.7427 35.6918 39.2454 35.6918 39.8046V48.6247C35.6918 56.058 39.4778 63.0191 45.7748 67.0484L46.1141 67.2656H6.85275V2.73438ZM63.1472 48.6247C63.1472 55.1828 59.849 61.2093 54.3245 64.7452L50.7868 67.0096L47.2489 64.7452C41.7478 61.2246 38.4263 55.1387 38.4263 48.6247V40.7304L50.7868 35.7861L63.1472 40.7303V48.6247Z" fill="#1456DA"/>
</svg>
