<svg width="32" height="32" viewBox="0 0 32 32" fill="none" xmlns="http://www.w3.org/2000/svg">
<g clip-path="url(#clip0_14_349)">
<path fill-rule="evenodd" clip-rule="evenodd" d="M16 23.1876C19.9587 23.1876 23.1875 19.9588 23.1875 16.0001C22.8198 6.47913 9.17869 6.48175 8.8125 16.0001C8.8125 19.9587 12.0412 23.1876 16 23.1876Z" fill="#FFDE11"/>
<path d="M31.7938 25.9113L26.2588 20.9113C26.0755 20.7457 25.8119 20.7036 25.5861 20.8039C25.3604 20.9042 25.2149 21.128 25.2149 21.3751V22.7501H23.3799C29.0536 16.6812 24.89 6.4514 16.6248 6.01946V2.62498C16.6248 2.27979 16.345 1.99998 15.9998 1.99998H6.78487V0.624984C6.78487 0.377923 6.63937 0.154111 6.41362 0.0537988C6.188 -0.0464508 5.92425 -0.00445094 5.74094 0.161236L0.205896 5.16122C-0.0663532 5.39634 -0.0663532 5.85365 0.205896 6.08878L5.74094 11.0888C5.85812 11.1946 6.00806 11.25 6.16 11.25C6.24575 11.25 6.33218 11.2324 6.41362 11.1962C6.63937 11.0959 6.78487 10.8721 6.78487 10.625V9.25001H8.62805C2.98545 15.3671 6.99493 25.4673 15.3748 25.9806V29.3751C15.3748 29.7202 15.6546 30.0001 15.9998 30.0001H25.2148V31.375C25.2148 31.6221 25.3603 31.8459 25.586 31.9462C25.81 32.046 26.0749 32.0052 26.2587 31.8389L31.7938 26.8389C32.0661 26.6037 32.0661 26.1463 31.7938 25.9113ZM6.15987 7.99996C5.81469 7.99996 5.53487 8.27977 5.53487 8.62495V9.21814L1.55727 5.62496L5.53487 2.03185V2.62498C5.53487 2.97016 5.81469 3.24997 6.15987 3.24997H15.3748V6.0194C13.369 6.14371 11.5215 6.86196 10.0063 7.99996H6.15987ZM7.24993 16C7.24993 11.1753 11.1752 7.25002 15.9999 7.25002C24.1534 7.25121 27.8595 17.5779 21.5675 22.75H15.9999C15.6547 22.75 15.3749 23.0298 15.3749 23.375V24.728C10.787 24.4078 7.24993 20.6484 7.24993 16ZM26.4649 29.9682V29.375C26.4649 29.0298 26.185 28.75 25.8399 28.75H16.6249V24H25.8399C26.185 24 26.4649 23.7202 26.4649 23.375V22.7818L30.4425 26.375L26.4649 29.9682Z" fill="#026939"/>
<path d="M15.3748 19.4376C15.4056 20.266 16.5944 20.2653 16.6248 19.4376V18.9943C17.0633 18.7982 17.404 18.4487 17.5878 18.0051C17.9823 17.0525 17.5283 15.9566 16.5758 15.5621L15.9021 15.2831C15.5945 15.1635 15.4338 14.7755 15.5668 14.4733C15.6296 14.3216 15.7489 14.203 15.9027 14.1392C16.0565 14.0755 16.2249 14.075 16.3765 14.1378L16.7133 14.2773C17.0323 14.4095 17.3979 14.258 17.53 13.9391C17.6621 13.6201 17.5106 13.2546 17.1917 13.1225L16.8548 12.9829C16.7793 12.9516 16.7025 12.9255 16.6248 12.9045V12.5625C16.594 11.7341 15.4052 11.7347 15.3748 12.5625V13.0057C14.9363 13.2018 14.5956 13.5513 14.4119 13.9949C14.2213 14.4551 14.2218 14.9631 14.4133 15.4254C14.6047 15.8877 14.9636 16.2473 15.4238 16.438L16.0975 16.717C16.4131 16.8477 16.5636 17.211 16.4328 17.5268C16.37 17.6785 16.2507 17.7971 16.0969 17.8609C15.9431 17.9246 15.7748 17.9251 15.623 17.8623L15.2862 17.7228C14.9674 17.5906 14.6017 17.7421 14.4696 18.061C14.3375 18.38 14.489 18.7455 14.8079 18.8776L15.1447 19.0171C15.2203 19.0484 15.2971 19.0745 15.3748 19.0955V19.4376Z" fill="#026939"/>
</g>
<defs>
<clipPath id="clip0_14_349">
<rect width="32" height="32" fill="white"/>
</clipPath>
</defs>
</svg>
