<svg width="60" height="60" viewBox="0 0 60 60" fill="none" xmlns="http://www.w3.org/2000/svg">
<g clip-path="url(#clip0_1_456)">
<path d="M24.1172 25.2911C17.6297 25.2911 12.3517 20.0131 12.3517 13.5256V12.9373H35.8827V13.5256C35.8828 20.0131 30.6049 25.2911 24.1172 25.2911Z" fill="#E7EEFB"/>
<path d="M44.1678 52.5142C40.4533 50.1368 38.2354 46.0843 38.2354 41.674V36.4683L45.2948 33.6445L52.3541 36.4683V41.674C52.3541 46.0843 50.1364 50.1368 46.4217 52.5142L45.2948 53.2354L44.1678 52.5142Z" fill="#E7EEFB"/>
<path d="M33.5297 39.4177C31.3813 36.5572 27.9618 34.7036 24.1173 34.7036C17.6298 34.7036 12.3518 39.9816 12.3518 46.4691V47.0575H34.3751C33.8221 45.341 33.5297 43.5276 33.5297 41.6748V39.4177Z" fill="#E7EEFB"/>
<path d="M43.7707 43.2875C43.313 42.83 42.5713 42.83 42.1135 43.2875C41.6559 43.7451 41.6559 44.487 42.1135 44.9447L43.8783 46.7094C44.3361 47.1671 45.0777 47.1669 45.5355 46.7094L49.0653 43.1798C49.5228 42.7222 49.5228 41.9803 49.0653 41.5227C48.6077 41.0654 47.866 41.0654 47.408 41.5227L44.7069 44.2239L43.7707 43.2875Z" fill="#1456DA"/>
<path d="M57.4959 32.1941L45.7304 27.4879C45.4509 27.3762 45.1396 27.3762 44.8601 27.4879C43.9863 27.8374 36.6441 30.7743 33.9827 31.8389C32.8765 31.0911 31.7017 30.4778 30.476 30.0039C37.069 27.4676 41.7608 21.0681 41.7608 13.5926V9.40289H41.7799C44.3643 9.40289 46.467 7.30026 46.467 4.7158V4.68709C46.467 2.10263 44.3643 0 41.7799 0H6.45459C3.87013 0 1.7675 2.10263 1.7675 4.68709V4.7158C1.7675 7.30026 3.87013 9.40289 6.45459 9.40289H6.47369V13.5926C6.47369 21.072 11.1703 27.4742 17.7688 30.0078C11.1677 32.5624 6.47369 38.9775 6.47369 46.4691V50.5918H6.46889C3.87657 50.5918 1.7675 52.7009 1.7675 55.2933C1.7675 57.8857 3.87657 59.9947 6.46889 59.9947C47.029 59.962 45.3731 60.0787 45.7926 59.8828C45.9046 59.8301 45.7033 59.9514 49.5907 57.465C55.0019 54.0014 58.2325 48.0984 58.2325 41.6747V33.2821C58.2325 32.8029 57.9408 32.3721 57.4959 32.1941ZM4.11105 4.7158V4.68709C4.11105 3.39486 5.16236 2.34354 6.45459 2.34354H41.7799C43.0721 2.34354 44.1234 3.39486 44.1234 4.68709V4.7158C44.1234 6.00803 43.0721 7.05934 41.7799 7.05934C40.4714 7.05934 7.77986 7.05934 6.45459 7.05934C5.16236 7.05934 4.11105 6.00803 4.11105 4.7158ZM24.0503 28.8256C15.6507 28.8256 8.81723 21.9922 8.81723 13.5926V9.40289H39.4172V13.5926C39.4172 21.9922 32.5838 28.8256 24.1842 28.8256H24.0503ZM8.81723 46.4691C8.81723 38.0327 15.6808 31.1691 24.1172 31.1691C27.07 31.1691 29.8988 32.0009 32.3578 33.5781V41.6748C32.3578 44.7122 33.1083 47.8046 34.6165 50.592H8.81723V46.4691ZM4.11105 55.2933C4.11105 53.9931 5.16869 52.9354 6.46889 52.9354H36.1208C38.4162 55.9901 41.1584 57.5499 41.2907 57.6512H6.46889C5.16869 57.6512 4.11105 56.5935 4.11105 55.2933ZM55.889 41.6747C55.889 47.2954 53.0622 52.4605 48.3274 55.491L45.2952 57.4317L42.263 55.491C37.523 52.458 34.7014 47.2203 34.7014 41.6747V34.0754C35.9242 33.5863 43.9528 30.3748 45.2952 29.8379L55.889 34.0754V41.6747Z" fill="#1456DA"/>
</g>
<defs>
<clipPath id="clip0_1_456">
<rect width="60" height="60" fill="white"/>
</clipPath>
</defs>
</svg>
