<svg width="70" height="70" viewBox="0 0 70 70" fill="none" xmlns="http://www.w3.org/2000/svg">
<g clip-path="url(#clip0_1_480)">
<path d="M33.2764 62.0658C27.0847 59.6495 21.83 55.4715 18.0806 49.9835C14.3311 44.4953 12.3494 38.0814 12.3494 31.435V13.722L35 7.01904L57.6506 13.722V31.4348C57.6506 38.0814 55.6689 44.4954 51.9194 49.9833C48.17 55.4713 42.9153 59.6493 36.7235 62.0657L35 62.7384L33.2764 62.0658Z" fill="#E7EEFB"/>
<path d="M35 70C34.8314 70 34.6628 69.9688 34.503 69.9065L30.7832 68.4548C23.2999 65.5345 16.9493 60.485 12.4177 53.8522C7.88634 47.2195 5.49103 39.4678 5.49103 31.4349V9.40936C5.49103 8.79905 5.89558 8.26256 6.48251 8.09481L34.6243 0.0526025C34.8698 -0.0175342 35.13 -0.0175342 35.3756 0.0526025L63.5173 8.09481C64.1043 8.26256 64.5088 8.79905 64.5088 9.40936V31.435C64.5088 39.4679 62.1135 47.2198 57.5821 53.8524C53.0506 60.4852 46.7 65.5346 39.2167 68.4549L35.497 69.9066C35.3371 69.9688 35.1686 70 35 70ZM8.2254 10.4405V31.4349C8.2254 46.7929 17.4701 60.3241 31.7773 65.9074L35 67.1651L38.2227 65.9074C52.5298 60.3241 61.7746 46.7928 61.7746 31.4349V10.4405L35 2.78903L8.2254 10.4405Z" fill="#1456DA"/>
<path d="M35 53.5268C27.2403 53.5268 20.5915 46.359 20.5915 40.4911C20.5915 37.6427 22.1594 35.0011 25.0064 33.0533C27.6947 31.2139 31.2438 30.2009 35 30.2009C38.7562 30.2009 42.3053 31.2139 44.9936 33.0533C47.8405 35.0013 49.4085 37.6427 49.4085 40.4911C49.4085 46.359 42.7598 53.5268 35 53.5268ZM35 32.9353C31.7893 32.9353 28.7885 33.7787 26.5505 35.31C24.471 36.7327 23.326 38.5728 23.326 40.4911C23.326 42.5768 24.6315 45.1454 26.7329 47.1945C29.1125 49.5146 32.0484 50.7924 35 50.7924C37.9516 50.7924 40.8875 49.5146 43.2671 47.1945C45.3686 45.1455 46.674 42.5768 46.674 40.4911C46.674 38.5726 45.5289 36.7327 43.4494 35.31C41.2114 33.7786 38.2107 32.9353 35 32.9353Z" fill="#1456DA"/>
<path d="M35 27.4441C32.3537 27.4441 30.2009 25.2912 30.2009 22.645C30.2009 19.9989 32.3538 17.8459 35 17.8459C37.6462 17.8459 39.7991 19.9989 39.7991 22.645C39.7991 25.2912 37.6462 27.4441 35 27.4441ZM35 20.5803C33.8615 20.5803 32.9353 21.5066 32.9353 22.645C32.9353 23.7835 33.8615 24.7098 35 24.7098C36.1385 24.7098 37.0647 23.7835 37.0647 22.645C37.0647 21.5065 36.1385 20.5803 35 20.5803Z" fill="#1456DA"/>
<path d="M48.7277 31.5626C46.0815 31.5626 43.9286 29.4096 43.9286 26.7635C43.9286 24.1173 46.0813 21.9644 48.7277 21.9644C51.374 21.9644 53.5268 24.1173 53.5268 26.7635C53.5268 29.4096 51.374 31.5626 48.7277 31.5626ZM48.7277 24.6987C47.5892 24.6987 46.6629 25.625 46.6629 26.7635C46.6629 27.9019 47.5892 28.8282 48.7277 28.8282C49.8661 28.8282 50.7924 27.9019 50.7924 26.7635C50.7924 25.6249 49.8661 24.6987 48.7277 24.6987Z" fill="#1456DA"/>
<path d="M21.2723 31.5626C18.6261 31.5626 16.4732 29.4096 16.4732 26.7635C16.4732 24.1173 18.6261 21.9644 21.2723 21.9644C23.9185 21.9644 26.0714 24.1173 26.0714 26.7635C26.0714 29.4096 23.9185 31.5626 21.2723 31.5626ZM21.2723 24.6987C20.1339 24.6987 19.2076 25.625 19.2076 26.7635C19.2076 27.9019 20.1339 28.8282 21.2723 28.8282C22.4108 28.8282 23.3371 27.9019 23.3371 26.7635C23.3371 25.6249 22.4108 24.6987 21.2723 24.6987Z" fill="#1456DA"/>
</g>
<defs>
<clipPath id="clip0_1_480">
<rect width="70" height="70" fill="white"/>
</clipPath>
</defs>
</svg>
