<svg width="32" height="32" viewBox="0 0 32 32" fill="none" xmlns="http://www.w3.org/2000/svg">
<g clip-path="url(#clip0_14_313)">
<path fill-rule="evenodd" clip-rule="evenodd" d="M14.3458 14.5699L12.1896 12.4137L12.0496 12.5537L9.22021 15.1613L11.5979 17.5389L14.196 14.7197L14.3458 14.5699Z" fill="#FFDE11"/>
<path fill-rule="evenodd" clip-rule="evenodd" d="M16.6964 23.0708H30.7245C31.4259 23.0708 31.9998 23.6447 31.9998 24.3461V30.7225C31.9998 31.4239 31.4259 31.9978 30.7245 31.9978H16.6964C15.995 31.9978 15.4211 31.4239 15.4211 30.7225V24.3461C15.4211 23.6447 15.995 23.0708 16.6964 23.0708Z" fill="#FFDE11"/>
<path d="M18.6285 20.5495C18.7885 20.5495 18.9483 20.4884 19.0704 20.3664L26.5755 12.8613C26.8175 12.6285 26.8175 12.2101 26.5755 11.9774L24.4312 9.83311C24.1871 9.58913 23.7915 9.58913 23.5473 9.83311L23.4532 9.92723L16.8319 3.30601L16.9261 3.21189C17.1701 2.96785 17.1701 2.57214 16.9261 2.32804L14.7818 0.183728C14.549 -0.0583129 14.1306 -0.0583129 13.8979 0.183728L6.39282 7.6888C6.14878 7.93284 6.14878 8.32856 6.39282 8.57266L8.53713 10.717C8.76985 10.959 9.18825 10.959 9.42098 10.717L9.5151 10.6229L11.2933 12.401L0.835879 22.0381C-0.97902 23.7529 0.375858 26.8166 2.84582 26.7557C3.57407 26.7408 4.24007 26.4452 4.72103 25.9232L14.3582 15.4659L16.1364 17.2441L16.0423 17.3383C15.8002 17.571 15.8002 17.9893 16.0423 18.2221L18.1866 20.3664C18.3086 20.4884 18.4685 20.5495 18.6285 20.5495ZM7.71851 8.13076L14.3398 1.50948L15.6003 2.77L8.97902 9.39128L7.71851 8.13076ZM3.80193 25.0762C3.5537 25.3456 3.2051 25.4982 2.82026 25.5061C2.40224 25.5136 1.99471 25.3512 1.7013 25.0578C1.40795 24.7645 1.24459 24.3566 1.25309 23.939C1.2609 23.5541 1.41358 23.2055 1.68293 22.9572L12.1777 13.2856L13.4736 14.5814L3.80193 25.0762ZM10.399 9.73906L15.9481 4.18987L22.5694 10.8112L17.0202 16.3603L10.399 9.73906ZM23.9892 11.1589L25.2498 12.4194L18.6285 19.0407L17.368 17.7801L23.9892 11.1589Z" fill="#026939"/>
<path d="M23.627 24.9965C22.5792 24.9965 21.7268 25.849 21.7268 26.8967V29.4472C21.7576 30.2755 22.9462 30.2749 22.9767 29.4472V28.7969H24.2774V29.4472C24.3081 30.2755 25.4968 30.2749 25.5273 29.4472V26.8967C25.5273 25.8489 24.6748 24.9965 23.627 24.9965ZM24.2774 27.547H22.9767V26.8967C23.0094 26.0349 24.245 26.0356 24.2774 26.8967V27.547Z" fill="#026939"/>
<path d="M28.7741 27.5343L29.7063 25.9363C29.8802 25.6382 29.7795 25.2555 29.4813 25.0816C29.1832 24.9076 28.8005 25.0084 28.6266 25.3065L28.0505 26.2941L27.4745 25.3065C27.3007 25.0085 26.9182 24.9077 26.6197 25.0816C26.3216 25.2555 26.2209 25.6382 26.3948 25.9363L27.327 27.5343L26.3948 29.1323C26.2209 29.4305 26.3216 29.8132 26.6197 29.987C26.9127 30.1595 27.2995 30.063 27.4745 29.7621L28.0505 28.7746L28.6266 29.7621C28.8015 30.063 29.1883 30.1593 29.4813 29.987C29.7795 29.8132 29.8802 29.4305 29.7063 29.1323L28.7741 27.5343Z" fill="#026939"/>
<path d="M20.4865 24.9965H18.2548C17.4265 25.0273 17.4271 26.2159 18.2548 26.2464H18.7457V29.4473C18.7764 30.2756 19.9651 30.275 19.9956 29.4473V26.2464H20.4865C21.3148 26.2156 21.3141 25.027 20.4865 24.9965Z" fill="#026939"/>
</g>
<defs>
<clipPath id="clip0_14_313">
<rect width="32" height="32" fill="white"/>
</clipPath>
</defs>
</svg>
