<svg width="33" height="33" viewBox="0 0 33 33" fill="none" xmlns="http://www.w3.org/2000/svg">
<g clip-path="url(#clip0_14_289)">
<path d="M26.4303 7.12891L20.0533 0.75191C19.9361 0.634723 19.7771 0.568848 19.6114 0.568848L3.03113 0.56891C2.68594 0.56891 2.40613 0.848723 2.40613 1.19391V29.2527C2.40613 29.5979 2.68594 29.8777 3.03113 29.8777H20.7846C21.613 29.847 21.6124 28.6582 20.7846 28.6277H3.65613V1.81891L18.9864 1.81885V7.57085C18.9864 7.91604 19.2663 8.19585 19.6114 8.19585H25.3634V21.7633C25.3941 22.5917 26.5829 22.5911 26.6134 21.7633V7.57085C26.6134 7.4051 26.5475 7.2461 26.4303 7.12891ZM20.2364 2.70279L24.4795 6.94591H20.2364V2.70279Z" fill="#026939"/>
<path d="M15.7853 8.19588C16.1305 8.19588 16.4103 7.91606 16.4103 7.57088V4.36969H16.9012C17.7296 4.33894 17.729 3.15013 16.9012 3.11969H14.6693C13.8409 3.15044 13.8415 4.33925 14.6693 4.36969H15.1603V7.57088C15.1603 7.91606 15.4401 8.19588 15.7853 8.19588Z" fill="#026939"/>
<path d="M12.7561 8.19584C13.1013 8.19584 13.3811 7.91603 13.3811 7.57084V5.02003C13.2853 2.50171 9.67526 2.50365 9.58032 5.02003V7.57084C9.61107 8.39921 10.7999 8.39859 10.8303 7.57084V6.92034H12.1311V7.57084C12.1311 7.91603 12.4109 8.19584 12.7561 8.19584ZM10.8303 5.6704V5.02003C10.8631 4.15815 12.0986 4.15884 12.1311 5.02003V5.67034H10.8303V5.6704Z" fill="#026939"/>
<path d="M6.42384 7.76852C6.60953 8.33358 7.42422 8.33333 7.60972 7.76852L8.88515 3.94227C8.99434 3.61483 8.81734 3.26089 8.48984 3.15171C8.16253 3.04252 7.8084 3.21946 7.69928 3.54702L7.01678 5.59446L6.33428 3.54696C6.22509 3.21952 5.87115 3.04258 5.54372 3.15171C5.21628 3.26089 5.03928 3.61483 5.14847 3.94227L6.42384 7.76852Z" fill="#026939"/>
<path d="M23.2782 11.0112H5.74129C4.91291 11.042 4.91354 12.2308 5.74129 12.2612H23.2782C24.1066 12.2305 24.106 11.0417 23.2782 11.0112Z" fill="#026939"/>
<path d="M23.2782 13.7214H5.74129C4.91291 13.7522 4.91354 14.941 5.74129 14.9714H23.2782C24.1066 14.9407 24.106 13.7519 23.2782 13.7214Z" fill="#026939"/>
<path d="M5.74129 17.6816H14.5097C15.3381 17.6509 15.3375 16.4621 14.5097 16.4316H5.74129C4.91291 16.4624 4.91354 17.6512 5.74129 17.6816Z" fill="#026939"/>
<path d="M21.0082 19.1419H5.74129C4.91291 19.1727 4.91354 20.3615 5.74129 20.3919H21.0082C21.8366 20.3612 21.836 19.1723 21.0082 19.1419Z" fill="#026939"/>
<path d="M18.9193 22.4771C18.9193 22.1319 18.6394 21.8521 18.2943 21.8521H5.74129C4.91291 21.8829 4.91354 23.0717 5.74129 23.1021H18.2943C18.6394 23.1021 18.9193 22.8223 18.9193 22.4771Z" fill="#026939"/>
<path d="M5.74129 24.5624C4.91291 24.5931 4.91354 25.7819 5.74129 25.8124H17.2235C18.0518 25.7816 18.0512 24.5928 17.2235 24.5624H5.74129Z" fill="#026939"/>
<path fill-rule="evenodd" clip-rule="evenodd" d="M25.3506 32.5689C28.5118 32.5689 31.09 29.9907 31.09 26.8296C30.7964 19.227 19.9038 19.2291 19.6113 26.8296C19.6113 29.9907 22.1895 32.5689 25.3506 32.5689Z" fill="#FFDE11"/>
<path d="M24.6332 28.8894C24.4675 28.8894 24.3085 28.8235 24.1913 28.7063L22.7565 27.2715C22.5125 27.0274 22.5125 26.6317 22.7565 26.3876C23.0007 26.1436 23.3963 26.1436 23.6405 26.3876L24.6333 27.3805L27.061 24.9527C27.3051 24.7087 27.7008 24.7087 27.945 24.9527C28.189 25.1968 28.189 25.5926 27.945 25.8366L25.0752 28.7064C24.9579 28.8236 24.799 28.8894 24.6332 28.8894Z" fill="#026939"/>
</g>
<defs>
<clipPath id="clip0_14_289">
<rect width="32" height="32" fill="white" transform="translate(0.748047 0.568848)"/>
</clipPath>
</defs>
</svg>
