<svg width="33" height="33" viewBox="0 0 33 33" fill="none" xmlns="http://www.w3.org/2000/svg">
<g clip-path="url(#clip0_14_274)">
<path fill-rule="evenodd" clip-rule="evenodd" d="M10.4964 15.006H22.9995C23.6872 15.006 24.2498 15.5687 24.2498 16.2563V23.7581C24.2498 24.4457 23.6871 25.0084 22.9995 25.0084H10.4964C9.80879 25.0084 9.24609 24.4458 9.24609 23.7581V16.2563C9.24609 15.5686 9.80873 15.006 10.4964 15.006Z" fill="#FFDE11"/>
<path d="M32.1269 29.6971L32.1268 27.8216C32.1268 27.4763 31.8469 27.1964 31.5017 27.1964H30.8701L30.5706 12.8179H31.5016C31.8468 12.8179 32.1268 12.538 32.1268 12.1928V9.69214C32.9553 9.66138 32.9547 8.47228 32.1268 8.44183H31.6286L16.9919 2.23987C16.836 2.17379 16.66 2.17379 16.5041 2.23987L1.86731 8.44189H1.36925C0.540668 8.47265 0.541293 9.66176 1.36925 9.6922H1.36931V12.1928C1.36931 12.5381 1.64925 12.818 1.99446 12.818H2.9255L2.62593 27.1965H1.99446C1.64925 27.1965 1.36931 27.4764 1.36931 27.8217V29.6971H1.36925C0.540668 29.7279 0.541293 30.917 1.36925 30.9474H32.1269C32.9554 30.9166 32.9548 29.7275 32.1269 29.6971ZM29.6195 27.1965H27.1322L27.4318 12.818H29.32L29.6195 27.1965ZM7.61447 27.1965L7.3149 12.818H26.1812L25.8816 27.1965H7.61447ZM16.748 3.49443L28.424 8.44189H23.0716L16.9919 5.86576C16.836 5.79968 16.66 5.79968 16.5041 5.86576L10.4245 8.44189H5.07203L16.748 3.49443ZM19.8669 8.44189H13.6292L16.748 7.12038L19.8669 8.44189ZM2.61962 9.6922H30.8765V11.5677H2.61962V9.6922ZM4.17612 12.8179H6.06434L6.36391 27.1964H3.87655L4.17612 12.8179ZM2.61962 28.4468H30.8765V29.6971H2.61962V28.4468Z" fill="#026939"/>
<path d="M16.666 17.5066C15.6319 17.5066 14.7905 18.3479 14.7905 19.3821V21.8827C14.8213 22.7112 16.0104 22.7106 16.0408 21.8827V21.2575H17.2911V21.8827C17.3219 22.7112 18.511 22.7106 18.5415 21.8827V19.3821C18.5415 18.3479 17.7001 17.5066 16.666 17.5066ZM17.2911 20.0071H16.0408V19.3821C16.0723 18.5537 17.2599 18.5543 17.2911 19.3821V20.0071Z" fill="#026939"/>
<path d="M21.7267 20.0072L22.637 18.4468C23.0293 17.7173 21.9983 17.1166 21.557 17.8168L21.003 18.7666L20.449 17.8168C20.2751 17.5186 19.8925 17.4178 19.594 17.5918C19.2957 17.7658 19.195 18.1486 19.369 18.4468L20.2793 20.0072L19.369 21.5677C19.195 21.8659 19.2957 22.2487 19.594 22.4226C19.887 22.595 20.274 22.4986 20.449 22.1976L21.003 21.2478L21.557 22.1976C21.732 22.4987 22.1189 22.595 22.412 22.4226C22.7103 22.2487 22.811 21.8659 22.637 21.5677L21.7267 20.0072Z" fill="#026939"/>
<path d="M13.587 17.5066H11.399C10.5705 17.5373 10.5711 18.7265 11.399 18.7569H11.8678V21.8827C11.8986 22.7112 13.0877 22.7106 13.1181 21.8827V18.7569H13.587C14.4156 18.7261 14.415 17.537 13.587 17.5066Z" fill="#026939"/>
</g>
<defs>
<clipPath id="clip0_14_274">
<rect width="32" height="32" fill="white" transform="translate(0.748047 0.568848)"/>
</clipPath>
</defs>
</svg>
