<svg width="80" height="80" viewBox="0 0 80 80" fill="none" xmlns="http://www.w3.org/2000/svg">
<path d="M34.8385 53.0994L48.421 46.9702C49.2075 46.6153 49.5574 45.6898 49.2024 44.9033C48.8475 44.1167 47.9222 43.7669 47.1355 44.1219L33.553 50.2509C32.7664 50.6058 32.4166 51.5313 32.7714 52.3178C33.1275 53.1067 34.0539 53.4531 34.8385 53.0994Z" fill="#0F182C"/>
<path d="M78.4375 71.3741H39.8733C40.9489 69.6005 41.1642 67.344 40.2483 65.3144L38.8397 62.1929L52.5922 55.9871L54.0009 59.109C55.4747 62.3751 59.3191 63.8507 62.6117 62.3648L62.6484 62.3482C65.92 60.8719 67.3806 57.0093 65.9042 53.7376L64.4956 50.6158L66.3447 49.7815C69.4859 48.3641 70.8883 44.6552 69.4708 41.514L65.1547 31.9491C63.7372 28.8079 60.0284 27.4054 56.8872 28.823L56.1102 29.1737L46.8981 19.911C46.4389 19.4491 45.7414 19.3205 45.1475 19.5887L34.9042 24.211C34.1177 24.5658 33.7678 25.4913 34.1228 26.2779C34.4777 27.0644 35.4031 27.4144 36.1897 27.0593L45.4459 22.8824L53.068 30.5465C51.2044 31.3874 21.3166 44.874 19.4489 45.7169L18.7456 34.9308L26.6119 31.3813C27.3984 31.0262 27.7483 30.1008 27.3933 29.3143C27.0383 28.5276 26.113 28.1779 25.3264 28.5329L16.4733 32.5279C15.8795 32.7957 15.5144 33.4038 15.5567 34.0538L16.4067 47.0898L15.6297 47.4404C12.4884 48.8579 11.0861 52.5666 12.5036 55.708L16.8197 65.2726C18.2213 68.3788 21.8983 69.8377 25.0873 68.3988L26.9364 67.5644L28.345 70.6862C28.4534 70.9265 28.578 71.1541 28.7109 71.3743H1.5625C0.699531 71.3743 0 72.0738 0 72.9368C0 73.7998 0.699531 74.4993 1.5625 74.4993H78.4375C79.3005 74.4993 80 73.7998 80 72.9368C80 72.0737 79.3005 71.3741 78.4375 71.3741ZM61.3631 59.4996L61.3263 59.5163C59.6213 60.2855 57.6188 59.5285 56.8494 57.8232L55.4408 54.7016L61.6473 51.901L63.0561 55.0227C63.8234 56.7237 63.0641 58.7321 61.3631 59.4996ZM23.8019 65.5501C22.2277 66.2604 20.3786 65.5615 19.6681 63.9869L15.352 54.4223C14.6433 52.8516 15.3445 50.9971 16.9152 50.2883C60.3341 30.8069 58.1841 31.3948 59.4533 31.3948C60.6448 31.3948 61.7852 32.0796 62.3064 33.2343L66.6225 42.799C67.3313 44.3696 66.63 46.224 65.0594 46.9329C63.5467 47.6155 54.2259 51.8215 52.7311 52.496C51.9412 52.8524 25.6119 64.7333 23.8019 65.5501ZM31.1934 69.4005L29.7847 66.2788L35.9912 63.4782L37.4 66.5998C38.1675 68.3007 37.4081 70.3091 35.707 71.0766L35.6702 71.0933C34.028 71.8343 31.988 71.1616 31.1934 69.4005Z" fill="#0F182C"/>
<path d="M28.1598 54.3992C28.912 56.0661 28.1705 58.0273 26.5034 58.7795C24.8364 59.5317 22.8753 58.7901 22.123 57.1231C21.3708 55.4561 22.1123 53.495 23.7794 52.7428C25.4464 51.9907 27.4075 52.7321 28.1598 54.3992Z" fill="#1456DA"/>
<path d="M59.852 40.0979C60.6042 41.7649 59.8627 43.726 58.1956 44.4784C56.5286 45.2305 54.5675 44.489 53.8152 42.822C53.063 41.1551 53.8045 39.1938 55.4716 38.4416C57.1386 37.6893 59.0997 38.431 59.852 40.0979Z" fill="#1456DA"/>
<path d="M29.9419 5.50098L31.5363 18.8904L38.3363 15.7933L35.0146 22.8218L41.2591 26.5225L34.1096 27.9921L35.0027 35.1622L29.503 30.5083L24.0524 35.7557L24.6635 28.4755L11.0049 27.7199L23.2354 23.4246L18.6108 16.8772L26.2941 19.1586L29.9419 5.50098Z" fill="#1456DA"/>
</svg>
