<svg width="70" height="70" viewBox="0 0 70 70" fill="none" xmlns="http://www.w3.org/2000/svg">
<g clip-path="url(#clip0_1_499)">
<path d="M33.2764 62.0658C27.0847 59.6495 21.83 55.4715 18.0806 49.9835C14.3311 44.4953 12.3492 38.0814 12.3492 31.4348V13.722L35 7.01904L57.6507 13.722V31.4348C57.6507 38.0813 55.6689 44.4954 51.9193 49.9835C48.17 55.4715 42.9153 59.6495 36.7235 62.0658L35 62.7384L33.2764 62.0658Z" fill="#E7EEFB"/>
<path d="M63.5175 8.09467L35.3757 0.0526025C35.13 -0.0175342 34.87 -0.0175342 34.6243 0.0526025L6.48251 8.09467C5.89572 8.26243 5.49103 8.79891 5.49103 9.40922V31.4349C5.49103 39.4678 7.88634 47.2196 12.4177 53.8522C16.9493 60.485 23.3 65.5345 30.7832 68.4548L34.5029 69.9065C34.8225 70.0311 35.1775 70.0311 35.497 69.9065L39.2167 68.4548C46.6998 65.5345 53.0506 60.485 57.5821 53.8522C62.1136 47.2195 64.5088 39.4678 64.5088 31.4349V9.40936C64.509 8.79891 64.1043 8.26243 63.5175 8.09467ZM61.7746 31.4349C61.7746 46.7929 52.5299 60.3242 38.2226 65.9074L35 67.1651L31.7774 65.9074C17.4701 60.3242 8.2254 46.7929 8.2254 31.4349V10.4405L35 2.78903L61.7746 10.4405V31.4349Z" fill="#1456DA"/>
<path d="M34.3826 13.8748L17.223 22.5581C16.7632 22.7909 16.4732 23.2624 16.4732 23.778V30.0766C16.4732 31.0769 17.5168 31.742 18.425 31.3126L20.5915 30.2876V45.2956C20.5915 46.0507 21.2036 46.6628 21.9587 46.6628H48.0412C48.7963 46.6628 49.4084 46.0507 49.4084 45.2956V30.2876L51.5748 31.3126C52.4747 31.7383 53.5266 31.0855 53.5266 30.0766V23.778C53.5266 23.2626 53.2366 22.7909 52.7769 22.5581L35.6173 13.8748C35.2291 13.6785 34.7709 13.6785 34.3826 13.8748ZM32.9353 43.9284V35.6806H37.0646V43.9284H32.9353ZM46.6741 43.9284H39.7991V34.3134C39.7991 33.5583 39.1869 32.9462 38.4319 32.9462H31.5682C30.8133 32.9462 30.201 33.5583 30.201 34.3134V43.9284H23.326V28.9941L35 23.4711L46.6741 28.9941V43.9284ZM50.7924 24.6184V27.9174L35.5847 20.7228C35.2167 20.5487 34.7878 20.5467 34.4154 20.7228L19.2076 27.9174V24.6184L35 16.6269L50.7924 24.6184Z" fill="#1456DA"/>
</g>
<defs>
<clipPath id="clip0_1_499">
<rect width="70" height="70" fill="white"/>
</clipPath>
</defs>
</svg>
