<svg width="33" height="33" viewBox="0 0 33 33" fill="none" xmlns="http://www.w3.org/2000/svg">
<g clip-path="url(#clip0_14_362)">
<path fill-rule="evenodd" clip-rule="evenodd" d="M16.748 22.2544C19.674 22.2544 22.0605 19.8679 22.0605 16.9419C21.7888 9.90466 11.7062 9.90666 11.4355 16.942C11.4355 19.8679 13.822 22.2544 16.748 22.2544Z" fill="#FFDE11"/>
<path d="M27.0319 23.465C27.0282 23.4658 27.0245 23.4667 27.0209 23.4676L21.8092 24.7259C21.63 23.8868 20.7841 23.2484 19.9264 23.3447C19.6194 23.373 18.5826 23.4879 17.4849 23.6096C15.1323 23.8623 14.854 23.9967 12.6895 23.7571C8.9051 23.2956 4.41993 23.4021 2.70288 27.608L0.798198 32.0716C0.715824 32.2647 0.735824 32.4862 0.851573 32.6614C0.96726 32.8365 1.1632 32.9419 1.37307 32.9419H9.48791C9.74204 32.9419 9.97091 32.788 10.0668 32.5526L10.6023 31.2373L13.8073 31.3902C16.2736 31.5078 17.0608 31.3827 19.4222 30.4972C21.9136 29.5786 25.9754 27.8407 28.1982 26.9928C28.2003 26.9921 28.2023 26.9914 28.2044 26.9906C30.4821 26.0965 29.5563 22.9034 27.0319 23.465ZM27.7823 25.8141C25.5764 26.6519 21.4665 28.4118 18.9834 29.3269C16.7825 30.1521 16.1607 30.2511 13.8669 30.1417L10.22 29.9677C9.95491 29.9559 9.71141 30.1109 9.61141 30.3563L9.06754 31.692H2.31925L3.8525 28.0987C5.9493 23.2933 11.3793 25.2579 15.1875 25.1163C15.7713 25.0628 19.4344 24.6457 20.0413 24.5894C20.171 24.5775 20.3001 24.6191 20.4047 24.7065C20.5208 24.8035 20.5921 24.9421 20.6055 25.0968C20.614 25.1946 20.6365 25.4546 19.9401 25.7561C18.4055 26.4205 16.776 26.9775 15.4694 27.2843C15.1333 27.3632 14.9249 27.6996 15.0038 28.0356C15.0827 28.3717 15.4191 28.58 15.7551 28.5012C17.1307 28.1782 18.8371 27.5958 20.4367 26.9032C20.9941 26.6619 21.3448 26.3712 21.5584 26.0725L27.3083 24.6841C27.7843 24.5799 28.1265 24.7184 28.2245 25.0555C28.3028 25.3246 28.1962 25.6632 27.7823 25.8141Z" fill="#026939"/>
<path d="M16.748 13.5044C16.4029 13.5044 16.123 13.7842 16.123 14.1294V14.4197C15.7831 14.5907 15.5005 14.8795 15.3439 15.2579C14.9971 16.0951 15.396 17.0584 16.2333 17.4052L16.7844 17.6335C16.9815 17.7151 17.079 17.9505 16.9974 18.1476C16.9576 18.2437 16.8818 18.3189 16.784 18.3595C16.6862 18.4 16.5793 18.4004 16.4833 18.3606L16.2077 18.2465C15.8889 18.1144 15.5233 18.2658 15.3912 18.5847C15.259 18.9036 15.4105 19.2693 15.7294 19.4013L16.005 19.5155C16.044 19.5316 16.0834 19.5462 16.1231 19.5592V19.7545C16.1539 20.5828 17.3427 20.5822 17.3731 19.7545V19.4637C17.726 19.2867 18.0003 18.993 18.1523 18.626C18.499 17.7888 18.1001 16.8255 17.2629 16.4787L16.7117 16.2505C16.5147 16.1688 16.4172 15.9334 16.4988 15.7363C16.5804 15.5393 16.8158 15.4418 17.0129 15.5234L17.2885 15.6375C17.6074 15.7697 17.973 15.6181 18.105 15.2993C18.2372 14.9803 18.0857 14.6148 17.7668 14.4827L17.4912 14.3685C17.452 14.3523 17.4127 14.3378 17.3731 14.3248V14.1295C17.373 13.7842 17.0932 13.5044 16.748 13.5044Z" fill="#026939"/>
<path d="M32.6445 1.22239C32.5288 1.04727 32.3329 0.941895 32.123 0.941895H24.0082C23.7541 0.941895 23.5252 1.09577 23.4293 1.33121L22.8938 2.64651L19.6888 2.49364C17.2222 2.37608 16.4352 2.5012 14.0739 3.38657C11.5824 4.30519 7.52081 6.04287 5.29776 6.891C5.2957 6.89168 5.2937 6.89243 5.29164 6.89318C3.01408 7.78724 3.93964 10.9807 6.46413 10.4189C6.46782 10.418 6.47151 10.4172 6.47513 10.4163L11.6868 9.15792C11.776 9.54074 11.9846 9.88167 12.2897 10.1366C12.6512 10.4393 13.1089 10.5822 13.5696 10.5392C14.1511 10.486 17.8144 10.0689 18.4235 10.0124C20.777 9.93586 23.6107 10.6769 26.2089 10.064C28.3855 9.57836 29.9279 8.3038 30.7933 6.27587L32.6979 1.8122C32.7802 1.61908 32.7602 1.39758 32.6445 1.22239ZM29.6435 5.78512C28.0337 9.55773 24.0921 9.1833 20.9248 8.88224C19.9044 8.7853 19.0231 8.70155 18.3085 8.76755C17.7245 8.82105 14.0616 9.23805 13.4547 9.29436C13.3253 9.30624 13.1959 9.2648 13.0912 9.1773C12.9752 9.0803 12.9039 8.94168 12.8905 8.78699C12.882 8.68911 12.8595 8.42918 13.5559 8.12762C15.0903 7.46331 16.7198 6.90625 18.0266 6.59943C18.3626 6.5205 18.571 6.18412 18.4921 5.84812C18.4146 5.50956 18.068 5.303 17.7408 5.38256C16.3651 5.70563 14.6587 6.28812 13.0592 6.98062C12.5019 7.22193 12.1512 7.51262 11.9377 7.81137L6.1877 9.19974C5.71188 9.30386 5.36951 9.16542 5.27157 8.82836C5.19339 8.55918 5.29995 8.22049 5.71413 8.06962C7.92038 7.23162 12.0295 5.47213 14.5128 4.55694C16.7136 3.73176 17.3353 3.63282 19.6293 3.7422L23.2761 3.91613C23.5406 3.92851 23.7847 3.77301 23.8847 3.52757L24.4285 2.19189H31.1768L29.6435 5.78512Z" fill="#026939"/>
</g>
<defs>
<clipPath id="clip0_14_362">
<rect width="32" height="32" fill="white" transform="translate(0.748047 0.941895)"/>
</clipPath>
</defs>
</svg>
