<svg width="70" height="70" viewBox="0 0 70 70" fill="none" xmlns="http://www.w3.org/2000/svg">
<g clip-path="url(#clip0_1_400)">
<path d="M33.2764 62.0667C27.0852 59.6504 21.8311 55.473 18.0821 49.9855C14.333 44.4979 12.3514 38.0847 12.3514 31.4387V13.7276L34.9998 7.02539L57.6481 13.7276V31.4387C57.6481 38.0847 55.6666 44.498 51.9175 49.9855C48.1685 55.473 42.9143 59.6504 36.7231 62.0667L34.9998 62.7392L33.2764 62.0667Z" fill="#E7EEFB"/>
<path d="M63.5145 8.10086C33.8538 -0.298444 35.3357 -0.143967 34.6244 0.0595868L6.4854 8.10086C5.89853 8.26859 5.49402 8.80489 5.49402 9.41528V31.4387C5.49402 47.7849 15.496 62.4893 30.7836 68.4549L34.5031 69.9063C34.8147 70.028 35.1691 70.0344 35.4971 69.9063L39.2166 68.4549C54.4443 62.5125 64.5062 47.8491 64.5062 31.4387V9.41528C64.5059 8.80489 64.1014 8.26846 63.5145 8.10086ZM61.7718 31.4387C61.7718 46.7952 52.5281 60.3252 38.2223 65.9081L34.9999 67.1655L31.7775 65.9081C17.4718 60.3251 8.22812 46.7952 8.22812 31.4387V10.4464L35 2.79574L61.772 10.4464V31.4387H61.7718Z" fill="#1456DA"/>
<path d="M34.4089 17.9856L17.251 26.2214C16.7774 26.4487 16.4755 26.9348 16.4755 27.4539V34.3171C16.4755 35.0719 17.0875 35.6841 17.8425 35.6841C18.5975 35.6841 19.2096 35.0719 19.2096 34.3171V29.6266L21.966 30.9497V39.8077C21.966 40.3373 22.2718 40.819 22.7509 41.0446L34.4183 46.5351C34.7868 46.7087 35.2138 46.7087 35.5825 46.5351L47.2498 41.0446C47.729 40.8192 48.0348 40.3373 48.0348 39.8077V30.9497L52.7498 28.6864C53.7813 28.191 53.7824 26.7175 52.7498 26.2215L35.5919 17.9857C35.218 17.8062 34.7829 17.8062 34.4089 17.9856ZM45.3008 38.9401L35.0005 43.7873L24.7002 38.9401V32.262L34.409 36.9222C34.7829 37.1016 35.2181 37.1016 35.592 36.9222L45.3008 32.262V38.9401ZM48.9993 27.4539C47.2235 28.3063 36.5922 33.4093 35.0005 34.1732C33.3914 33.4009 22.7668 28.3011 21.0018 27.4539L35.0005 20.7346L48.9993 27.4539Z" fill="#1456DA"/>
</g>
<defs>
<clipPath id="clip0_1_400">
<rect width="70" height="70" fill="white"/>
</clipPath>
</defs>
</svg>
