<svg width="26" height="16" viewBox="0 0 26 16" fill="none" xmlns="http://www.w3.org/2000/svg">
<path fill-rule="evenodd" clip-rule="evenodd" d="M0.80258 8.4522C0.661928 8.31155 0.58291 8.12079 0.582909 7.92187C0.58291 7.72296 0.661928 7.53219 0.80258 7.39154L7.16654 1.02758C7.30719 0.886931 7.49796 0.807913 7.69687 0.807913C7.89578 0.807914 8.08655 0.886931 8.2272 1.02758C8.36785 1.16824 8.44687 1.359 8.44687 1.55791C8.44687 1.75683 8.36785 1.94759 8.2272 2.08824L3.14346 7.17199L24.6674 7.17093C24.766 7.17093 24.8637 7.19035 24.9548 7.22809C25.0459 7.26583 25.1287 7.32114 25.1984 7.39088C25.2682 7.46061 25.3235 7.54339 25.3612 7.6345C25.399 7.72561 25.4184 7.82326 25.4184 7.92187C25.4184 8.02049 25.399 8.11814 25.3612 8.20925C25.3235 8.30036 25.2682 8.38314 25.1984 8.45287C25.1287 8.52261 25.0459 8.57792 24.9548 8.61566C24.8637 8.6534 24.766 8.67282 24.6674 8.67282L3.14346 8.67176L8.2272 13.7555C8.36785 13.8962 8.44687 14.0869 8.44687 14.2858C8.44687 14.4847 8.36785 14.6755 8.2272 14.8162C8.08655 14.9568 7.89578 15.0358 7.69687 15.0358C7.49796 15.0358 7.30719 14.9568 7.16654 14.8162L0.80258 8.4522Z" fill="white"/>
</svg>
