<svg width="26" height="16" viewBox="0 0 26 16" fill="none" xmlns="http://www.w3.org/2000/svg">
<path fill-rule="evenodd" clip-rule="evenodd" d="M25.3634 7.39154C25.5041 7.5322 25.5831 7.72296 25.5831 7.92188C25.5831 8.12079 25.5041 8.31155 25.3634 8.45221L18.9995 14.8162C18.8588 14.9568 18.6681 15.0358 18.4691 15.0358C18.2702 15.0358 18.0795 14.9568 17.9388 14.8162C17.7982 14.6755 17.7191 14.4847 17.7191 14.2858C17.7191 14.0869 17.7982 13.8962 17.9388 13.7555L23.0226 8.67176L1.49858 8.67282C1.39997 8.67282 1.30232 8.6534 1.21121 8.61566C1.1201 8.57792 1.03732 8.52261 0.967584 8.45287C0.897852 8.38314 0.842538 8.30036 0.8048 8.20925C0.767061 8.11814 0.747637 8.02049 0.747637 7.92188C0.747637 7.82326 0.767061 7.72561 0.8048 7.6345C0.842538 7.54339 0.897852 7.46061 0.967584 7.39088C1.03732 7.32114 1.1201 7.26583 1.21121 7.22809C1.30232 7.19035 1.39997 7.17093 1.49858 7.17093L23.0226 7.17199L17.9388 2.08824C17.7982 1.94759 17.7191 1.75683 17.7191 1.55792C17.7191 1.359 17.7982 1.16824 17.9388 1.02758C18.0795 0.886933 18.2702 0.807916 18.4691 0.807915C18.6681 0.807915 18.8588 0.886932 18.9995 1.02758L25.3634 7.39154Z" fill="white"/>
</svg>
