<svg width="25" height="25" viewBox="0 0 25 25" fill="none" xmlns="http://www.w3.org/2000/svg">
<path opacity="0.3" d="M12.2246 11.9258C10.0155 11.9258 8.22461 10.1349 8.22461 7.92578C8.22461 5.71664 10.0155 3.92578 12.2246 3.92578C14.4337 3.92578 16.2246 5.71664 16.2246 7.92578C16.2246 10.1349 14.4337 11.9258 12.2246 11.9258Z" fill="white"/>
<path d="M3.22526 21.125C3.61287 16.3523 7.48652 13.9258 12.208 13.9258C16.9958 13.9258 20.9295 16.219 21.2225 21.1258C21.2342 21.3213 21.2225 21.9258 20.4713 21.9258C16.7657 21.9258 11.2593 21.9258 3.95211 21.9258C3.70132 21.9258 3.20415 21.385 3.22526 21.125Z" fill="white"/>
</svg>
