<svg width="41" height="41" viewBox="0 0 41 41" fill="none" xmlns="http://www.w3.org/2000/svg">
<g clip-path="url(#clip0_14_448)">
<path fill-rule="evenodd" clip-rule="evenodd" d="M9.30466 22.1587L28.925 16.9015C29.7551 16.679 30.6163 17.1763 30.8386 18.0063L33.2651 27.0619C33.4875 27.8919 32.9903 28.7531 32.1603 28.9755L12.5399 34.2328C11.7099 34.4552 10.8486 33.958 10.6262 33.128L8.19981 24.0723C7.97739 23.2423 8.47458 22.3812 9.30466 22.1587Z" fill="#FFDE11"/>
<path d="M36.9098 8.92097L29.0973 1.10847C28.9509 0.961982 28.7522 0.879639 28.5449 0.879639H5.10742C4.67594 0.879639 4.32617 1.22948 4.32617 1.66089V40.0984C4.32617 40.5298 4.67594 40.8796 5.10742 40.8796H36.3574C36.7889 40.8796 37.1387 40.5298 37.1387 40.0984V9.47339C37.1387 9.2662 37.0563 9.06753 36.9098 8.92097ZM29.3262 3.54698L34.4712 8.69214H29.3262V3.54698ZM5.88867 39.3171V2.44214H27.7637V9.47339C27.7637 9.90479 28.1134 10.2546 28.5449 10.2546H35.5762V39.3171H5.88867Z" fill="#026939"/>
<path d="M8.8183 5.56714V10.2546C8.85674 11.29 10.3428 11.2892 10.3808 10.2546V5.56714H10.9667C12.0022 5.5287 12.0014 4.04269 10.9667 4.00464H8.23236C7.19689 4.04308 7.19768 5.52909 8.23236 5.56714H8.8183Z" fill="#026939"/>
<path d="M13.252 11.0358C13.6834 11.0358 14.0332 10.6859 14.0332 10.2545V9.08257H15.5957V10.2545C15.6341 11.29 17.1202 11.2892 17.1582 10.2545V6.34835C17.04 3.24241 12.5877 3.24476 12.4707 6.34835V10.2545C12.4707 10.6859 12.8205 11.0358 13.252 11.0358ZM14.0332 6.34835C14.0726 5.31296 15.5567 5.31374 15.5957 6.34835V7.52007H14.0332V6.34835Z" fill="#026939"/>
<path d="M18.5178 10.9533C18.8955 11.1445 19.3723 10.9937 19.5661 10.6039L20.2345 9.2671L20.9029 10.6039C21.0967 10.9937 21.5734 11.1444 21.9511 10.9533C22.3371 10.7604 22.4935 10.2911 22.3005 9.90522L21.1078 7.52022L22.3003 5.13522C22.4933 4.74937 22.3369 4.28007 21.951 4.0871C21.5649 3.89405 21.0957 4.05046 20.9028 4.43655L20.2344 5.77335L19.5661 4.43655C19.3731 4.05062 18.9039 3.89421 18.5178 4.0871C18.1319 4.28007 17.9755 4.74937 18.1685 5.13522L19.361 7.52022L18.1685 9.9053C17.9755 10.2912 18.1319 10.7605 18.5178 10.9533Z" fill="#026939"/>
<path d="M32.4511 13.3796H9.01361C7.97814 13.4181 7.97893 14.9041 9.01361 14.9421H32.4511C33.4866 14.9037 33.4858 13.4177 32.4511 13.3796Z" fill="#026939"/>
<path d="M13.2519 16.5046H9.01361C7.97814 16.5431 7.97893 18.0291 9.01361 18.0671H13.2519C14.2874 18.0287 14.2866 16.5427 13.2519 16.5046Z" fill="#026939"/>
<path d="M19.9897 22.4343C19.4466 22.1208 18.8152 22.0369 18.2122 22.1985C17.6091 22.36 17.1043 22.7482 16.7906 23.2914C16.477 23.8346 16.3933 24.4659 16.5549 25.069L17.7681 29.5967C18.0735 30.59 19.5111 30.1959 19.2773 29.1923L18.8729 27.683L20.3821 27.2786L20.7866 28.7879C20.8983 29.2046 21.3266 29.452 21.7434 29.3403C22.1602 29.2286 22.4075 28.8002 22.2959 28.3835L21.0827 23.8558C20.9211 23.2529 20.533 22.748 19.9897 22.4343ZM18.4685 26.1738L18.0641 24.6648C18.0106 24.4648 18.0389 24.2546 18.1438 24.0728C18.2488 23.8911 18.4166 23.7615 18.6166 23.7079C18.8166 23.6543 19.0267 23.6827 19.2084 23.7877C19.3902 23.8926 19.5199 24.0605 19.5734 24.2604L19.9777 25.7695L18.4685 26.1738Z" fill="#026939"/>
<path d="M22.3627 21.0864C21.9459 21.1981 21.6986 21.6264 21.8103 22.0432L23.4279 28.0802C23.538 28.5004 23.9791 28.7449 24.3847 28.6326C24.8015 28.5209 25.0488 28.0925 24.9371 27.6758L23.3195 21.6388C23.2079 21.2221 22.7795 20.9747 22.3627 21.0864Z" fill="#026939"/>
<path d="M15.8001 25.2711C15.6385 24.668 15.2503 24.1632 14.7071 23.8496C14.1639 23.5359 13.5326 23.4523 12.9296 23.6138L11.4204 24.0182C11.0129 24.1188 10.7513 24.5718 10.868 24.975L12.4856 31.0121C12.5958 31.4324 13.037 31.6767 13.4425 31.5645C13.8592 31.4528 14.1066 31.0245 13.9949 30.6077L13.3883 28.3438L14.143 28.1416C15.3912 27.807 16.1346 26.5193 15.8001 25.2711ZM13.7385 26.6323L12.9838 26.8345L12.5795 25.3253L13.3342 25.1231C13.5339 25.0695 13.7442 25.0978 13.926 25.2028C14.1078 25.3078 14.2373 25.4756 14.2909 25.6755C14.4024 26.0916 14.1545 26.5208 13.7385 26.6323Z" fill="#026939"/>
<path d="M26.433 27.8468C26.6127 27.9507 26.8266 27.9784 27.0258 27.9249L28.535 27.5204C29.1381 27.3589 29.6429 26.9707 29.9565 26.4275C30.2701 25.8843 30.3539 25.2531 30.1923 24.65L29.3835 21.6314C29.2219 21.0284 28.8338 20.5236 28.2906 20.21C27.7473 19.8963 27.116 19.8126 26.5131 19.9742L25.0038 20.3786C24.5963 20.4792 24.3347 20.9322 24.4514 21.3354L26.069 27.3724C26.1226 27.5726 26.2535 27.7432 26.433 27.8468ZM26.9175 21.4834C27.1172 21.4297 27.3276 21.4581 27.5093 21.5631C27.691 21.6681 27.8207 21.8359 27.8742 22.0358L28.6831 25.0544C28.7367 25.2543 28.7083 25.4645 28.6034 25.6463C28.4985 25.828 28.3306 25.9576 28.1307 26.0112L27.376 26.2134L26.1628 21.6857L26.9175 21.4834Z" fill="#026939"/>
<path d="M32.4511 36.0359H9.01361C7.97814 36.0743 7.97893 37.5603 9.01361 37.5984H32.4511C33.4866 37.56 33.4858 36.0739 32.4511 36.0359Z" fill="#026939"/>
<path d="M32.4511 32.9109H28.2128C27.1774 32.9493 27.1781 34.4353 28.2128 34.4734H32.4511C33.4866 34.435 33.4858 32.9489 32.4511 32.9109Z" fill="#026939"/>
</g>
<defs>
<clipPath id="clip0_14_448">
<rect width="40" height="40" fill="white" transform="translate(0.732422 0.879639)"/>
</clipPath>
</defs>
</svg>
