<svg width="41" height="41" viewBox="0 0 41 41" fill="none" xmlns="http://www.w3.org/2000/svg">
<g clip-path="url(#clip0_14_431)">
<path d="M36.5458 3.21881H34.0064V1.65604C33.968 0.620447 32.4818 0.621228 32.4438 1.65604V3.21881H30.4904V1.65604C30.452 0.620447 28.9658 0.621228 28.9277 1.65604V3.21881H26.9743V1.65604C26.9359 0.620447 25.4497 0.621228 25.4117 1.65604V3.21881H23.4583V1.65604C23.4199 0.620447 21.9337 0.621228 21.8956 1.65604V3.21881H19.9422V1.65604C19.9038 0.620447 18.4176 0.621228 18.3796 1.65604V3.21881H16.4262V1.65604C16.3878 0.620447 14.9016 0.621228 14.8635 1.65604V3.21881H12.9101V1.65604C12.8717 0.620447 11.3855 0.621228 11.3475 1.65604V3.21881H9.39409V1.65604C9.35565 0.620447 7.86945 0.621228 7.8314 1.65604V3.21881H5.29203C3.99953 3.21881 2.948 4.27034 2.948 5.56284V38.5356C2.948 39.8281 3.99953 40.8796 5.29203 40.8796H36.5458C37.8383 40.8796 38.8899 39.8281 38.8899 38.5356V5.56284C38.8899 4.27034 37.8383 3.21881 36.5458 3.21881V3.21881ZM4.51069 5.56284C4.51069 5.13201 4.8612 4.7815 5.29203 4.7815H7.83148V6.34427C7.86992 7.37986 9.35612 7.37908 9.39417 6.34427V4.7815H11.3475V6.34427C11.386 7.37986 12.8722 7.37908 12.9102 6.34427V4.7815H14.8636V6.34427C14.902 7.37986 16.3882 7.37908 16.4263 6.34427V4.7815H18.3796V6.34427C18.4181 7.37986 19.9043 7.37908 19.9423 6.34427V4.7815H21.8957V6.34427C21.9341 7.37986 23.4203 7.37908 23.4584 6.34427V4.7815H25.4117V6.34427C25.4502 7.37986 26.9364 7.37908 26.9744 6.34427V4.7815H28.9278V6.34427C28.9662 7.37986 30.4524 7.37908 30.4905 6.34427V4.7815H32.4438V6.34427C32.4823 7.37986 33.9685 7.37908 34.0065 6.34427V4.7815H36.5459C36.9767 4.7815 37.3272 5.13201 37.3272 5.56284V8.68838H4.51077V5.56284H4.51069ZM36.5458 39.3169H5.29203C4.8612 39.3169 4.51069 38.9664 4.51069 38.5356V10.2511H37.3272V38.5357C37.3272 38.9664 36.9767 39.3169 36.5458 39.3169V39.3169Z" fill="#026939"/>
<path d="M34.9832 14.9392H30.6858C29.6502 14.9777 29.651 16.4638 30.6858 16.5019H34.2019V19.1897H30.2951C29.2595 19.2282 29.2603 20.7144 30.2951 20.7524H34.2019V23.4402H30.2951C30.0902 23.4402 29.9038 23.5192 29.7645 23.6482C29.2637 23.328 28.5638 23.716 28.5762 24.3153V27.6908H24.5132V25.0966C24.4748 24.061 22.9886 24.0618 22.9505 25.0966V27.6908H18.8875V25.0966C18.8491 24.061 17.3629 24.0618 17.3248 25.0966V27.6908H13.2619V24.3153C13.2743 23.7157 12.5742 23.328 12.0736 23.6482C11.9342 23.5192 11.7478 23.4403 11.5429 23.4403H7.63618V20.7525H11.5429C12.5785 20.714 12.5777 19.2279 11.5429 19.1898H7.63618V16.502H11.1522C12.1878 16.4635 12.187 14.9773 11.1522 14.9393H6.85483C6.42329 14.9393 6.07349 15.2891 6.07349 15.7206V36.9731C6.07349 37.4046 6.42329 37.7544 6.85483 37.7544H34.9832C35.4148 37.7544 35.7646 37.4046 35.7646 36.9731V15.7206C35.7646 15.289 35.4148 14.9392 34.9832 14.9392ZM34.2019 31.9412H30.1389V29.2534H34.2019V31.9412ZM30.1389 24.9873C30.1894 24.9975 30.2416 25.0029 30.2952 25.0029H34.202V27.6907H30.139V24.9873H30.1389ZM28.5762 29.2534V31.9411H24.5132V29.2534H28.5762ZM18.8876 33.5039H22.9506V36.1916H18.8876V33.5039ZM17.3249 36.1916H13.262V33.5039H17.3249V36.1916ZM24.5132 33.5039H28.5762V36.1916H24.5132V33.5039ZM22.9505 29.2534V31.9411H18.8875V29.2534H22.9505ZM17.3249 29.2534V31.9411H13.262V29.2534H17.3249ZM7.63618 29.2534H11.6992V31.9411H7.63618V29.2534ZM11.5429 25.0029C11.5964 25.0029 11.6488 24.9975 11.6992 24.9872V27.6907H7.63618V25.0029H11.5429ZM7.63618 33.5039H11.6992V36.1916H7.63618V33.5039ZM30.1389 36.1916V33.5039H34.2019V36.1916H30.1389Z" fill="#026939"/>
<path fill-rule="evenodd" clip-rule="evenodd" d="M10.7615 12.5952H31.0764V25.878H24.5131L20.919 30.1503L17.3248 25.878H10.7615V12.5952Z" fill="#FFDE11"/>
<path d="M17.0121 15.3298H14.2774C13.2418 15.3683 13.2426 16.8545 14.2774 16.8925H14.8634V22.3619C14.9018 23.3975 16.388 23.3967 16.4261 22.3619V16.8925H17.0121C18.0477 16.8541 18.0469 15.3679 17.0121 15.3298V15.3298Z" fill="#026939"/>
<path d="M20.8604 15.3298C19.5679 15.3298 18.5164 16.3814 18.5164 17.6739V22.3619C18.5548 23.3975 20.041 23.3967 20.079 22.3619V20.7992H21.6417V22.3619C21.6802 23.3975 23.1664 23.3967 23.2044 22.3619V17.6739C23.2044 16.3814 22.1529 15.3298 20.8604 15.3298V15.3298ZM21.6417 19.2365H20.079V17.6739C20.1184 16.6384 21.6027 16.6393 21.6417 17.6739V19.2365Z" fill="#026939"/>
<path d="M28.2762 22.0487L27.0459 19.2365L28.2762 16.4243C28.4492 16.029 28.2689 15.5682 27.8736 15.3953C27.4781 15.2224 27.0175 15.4027 26.8445 15.7979L26.1931 17.287L25.5416 15.7979C25.3687 15.4026 24.9081 15.2223 24.5125 15.3953C24.1172 15.5682 23.9369 16.029 24.1099 16.4243L25.3402 19.2365L24.1099 22.0487C23.9369 22.4441 24.1173 22.9048 24.5125 23.0777C24.8984 23.2493 25.3684 23.0744 25.5416 22.6751L26.1931 21.1859L26.8445 22.6751C27.0178 23.0745 27.4877 23.2493 27.8736 23.0777C28.2689 22.9047 28.4492 22.4441 28.2762 22.0487Z" fill="#026939"/>
</g>
<defs>
<clipPath id="clip0_14_431">
<rect width="40" height="40" fill="white" transform="translate(0.918945 0.879639)"/>
</clipPath>
</defs>
</svg>
