<svg width="40" height="40" viewBox="0 0 40 40" fill="none" xmlns="http://www.w3.org/2000/svg">
<g clip-path="url(#clip0_14_471)">
<path fill-rule="evenodd" clip-rule="evenodd" d="M21.5198 24.2797L26.9987 28.4223L27.0519 28.3916L28.6719 27.1667V11.094C26.9461 11.094 25.547 9.69485 25.547 7.96899H18.5157C18.5157 9.69485 17.1166 11.094 15.3907 11.094V26.6156L18.4803 24.2797C18.9357 23.9358 19.4702 23.77 20 23.7705C20.5299 23.77 21.0643 23.9358 21.5198 24.2797Z" fill="#FFDE11"/>
<path d="M34.953 16.6622L32.5782 15.023V4.84389C32.5782 4.41248 32.2284 4.06264 31.797 4.06264H28.5156V0.781247C28.5156 0.349842 28.1657 0 27.7343 0H8.20315C7.77175 0 7.4219 0.349842 7.4219 0.781247V15.023L5.04707 16.6622C3.84098 17.4947 3.59387 18.4602 3.59387 19.6536V37.3743C3.59387 38.8221 4.77176 39.9999 6.21949 39.9999H33.7806C35.2283 39.9999 36.4062 38.8221 36.4062 37.3743V19.6536C36.4062 18.4602 36.1591 17.4948 34.953 16.6622ZM34.8438 23.4796V33.3742L28.3004 28.4268L34.8438 23.4796ZM34.0655 17.9481C34.7262 18.4041 34.8438 18.7915 34.8438 19.6536V21.5208L32.5782 23.2337V16.9215L34.0655 17.9481ZM31.0157 24.4151L27.005 27.4475L21.9906 23.6562C21.4126 23.2198 20.7252 22.9891 20.0036 22.9891H19.9977C19.2749 22.9891 18.5873 23.2198 18.0091 23.6565L13.047 27.4083V5.62513H31.0156V24.4151H31.0157ZM5.15637 23.4796L11.6997 28.4269L5.15637 33.3742V23.4796ZM26.9531 1.56249V4.06264H12.2658C11.8344 4.06264 11.4845 4.41248 11.4845 4.84389V26.3054L8.9844 24.4151V1.56249H26.9531ZM5.93464 17.9481L7.4219 16.9216V23.2337L5.15637 21.5207V19.6536C5.15637 18.7915 5.27394 18.4041 5.93464 17.9481ZM33.7806 38.4375H6.21949C5.63324 38.4375 5.15637 37.9606 5.15637 37.3744V35.3331L18.9511 24.9031C19.2556 24.6732 19.6175 24.5516 19.9992 24.5516H20.0022C20.3825 24.5516 20.7445 24.6732 21.0486 24.9028L34.8438 35.3331V37.3744C34.8438 37.9606 34.3668 38.4375 33.7806 38.4375Z" fill="#026939"/>
<path d="M18.5158 20.4687H18.8788C19.0925 20.8937 19.4535 21.2469 19.9264 21.4428C20.1827 21.5489 20.4484 21.5992 20.7099 21.5992C21.5164 21.5991 22.2832 21.1212 22.6106 20.331L22.8959 19.6421C22.9456 19.522 23.0403 19.428 23.1626 19.3773C23.2847 19.3268 23.4182 19.3262 23.5385 19.3759C23.7848 19.478 23.9067 19.7722 23.8048 20.0184L23.662 20.3629C23.4969 20.7615 23.6861 21.2185 24.0847 21.3837C24.4834 21.5489 24.9403 21.3596 25.1055 20.961L25.2483 20.6164C25.2685 20.5675 25.2867 20.5183 25.303 20.4687H25.547C26.5825 20.4303 26.5817 18.9444 25.547 18.9062H25.1841C24.9703 18.4813 24.6093 18.1281 24.1365 17.9323C23.0899 17.4988 21.8858 17.9975 21.4524 19.0441L21.167 19.733C21.065 19.9793 20.7708 20.101 20.5244 19.9991C20.2781 19.897 20.1562 19.6028 20.2581 19.3566L20.4009 19.0121C20.566 18.6135 20.3768 18.1565 19.9782 17.9913C19.5796 17.8262 19.1226 18.0155 18.9574 18.414L18.8146 18.7586C18.7944 18.8074 18.7762 18.8567 18.76 18.9062H18.5159C17.4803 18.9447 17.4811 20.4306 18.5158 20.4687Z" fill="#026939"/>
<path d="M22.0314 15.342C22.4628 15.342 22.8126 14.9921 22.8126 14.5607V12.9982C22.7742 11.9628 21.2882 11.9635 21.2501 12.9982V14.5607C21.2501 14.9921 21.5999 15.342 22.0314 15.342Z" fill="#026939"/>
</g>
<defs>
<clipPath id="clip0_14_471">
<rect width="40" height="40" fill="white"/>
</clipPath>
</defs>
</svg>
