<svg width="218" height="224" viewBox="0 0 218 224" fill="none" xmlns="http://www.w3.org/2000/svg">
<path d="M202.706 223.7H12.9062V222.3H202.706V223.7Z" fill="black"/>
<path d="M7.20696 119.4C14.707 70.6 57.107 -19.5 119.307 16.8C172.607 47.9 135.907 85.6 179.807 101.1C254.707 127.6 189.607 239.4 98.707 220C7.80697 200.7 0.206964 164.8 7.20696 119.4Z" fill="#E6EBF0"/>
<path d="M195.308 56.9998C218.008 79.1998 230.108 106.5 195.308 95.0998C160.508 83.7998 154.408 50.5998 157.908 32.7998C163.208 5.99978 172.608 34.6998 195.308 56.9998Z" fill="#E6EBF0"/>
<path fill-rule="evenodd" clip-rule="evenodd" d="M175.507 168.2H157.607V158.4H175.507V168.2ZM158.707 167.2H174.407V159.5H158.707V167.2Z" fill="#AAB6C2"/>
<path fill-rule="evenodd" clip-rule="evenodd" d="M187.707 176.9H169.807V167.1H187.707V176.9ZM170.907 175.9H186.607V168.2H170.907V175.9Z" fill="#AAB6C2"/>
<path fill-rule="evenodd" clip-rule="evenodd" d="M131.507 84.2H113.707V74.5H131.507V84.2ZM114.707 83.1H130.507V75.4H114.707V83.1Z" fill="#AAB6C2"/>
<path fill-rule="evenodd" clip-rule="evenodd" d="M100.207 192.1H82.3066V182.3H100.207V192.1ZM83.4066 191.1H99.2066V183.3H83.4066V191.1Z" fill="#AAB6C2"/>
<path fill-rule="evenodd" clip-rule="evenodd" d="M117.007 192.1H99.207V182.3H117.007V192.1ZM100.207 191.1H116.007V183.3H100.207V191.1Z" fill="#AAB6C2"/>
<path fill-rule="evenodd" clip-rule="evenodd" d="M108.607 200.8H90.707V191H108.607V200.8ZM91.807 199.8H107.607V192.1H91.807V199.8Z" fill="#AAB6C2"/>
<path fill-rule="evenodd" clip-rule="evenodd" d="M71.507 131.5H53.707V121.7H71.507V131.5ZM54.707 130.5H70.507V122.8H54.707V130.5Z" fill="#AAB6C2"/>
<path fill-rule="evenodd" clip-rule="evenodd" d="M59.3062 140.3H41.4062V130.5H59.3062V140.3ZM42.5062 139.3H58.2062V131.5H42.5062V139.3Z" fill="#AAB6C2"/>
<path fill-rule="evenodd" clip-rule="evenodd" d="M68.007 49.4001H50.207V39.6001H68.007V49.4001ZM51.207 48.4001H67.007V40.6001H51.207V48.4001Z" fill="#AAB6C2"/>
<path fill-rule="evenodd" clip-rule="evenodd" d="M59.6066 58.1003H41.8066V48.3003H59.6066V58.1003ZM42.8066 57.1003H58.6066V49.4003H42.8066V57.1003Z" fill="#AAB6C2"/>
<path fill-rule="evenodd" clip-rule="evenodd" d="M145.806 29.9C144.906 31.8 143.706 33.5 142.206 34.9L144.106 38.8L138.206 42.4L135.506 38.9C133.606 39.5 131.606 39.8 129.506 39.8L128.006 44L121.306 42.3L121.906 37.9C120.106 37 118.406 35.8 117.006 34.3L113.006 36.2L109.406 30.3L113.006 27.6C112.406 25.7 112.006 23.7 112.106 21.6L107.906 20.2L109.606 13.4L113.906 14C114.906 12.2 116.106 10.5 117.606 9.10001L115.606 5.10001L121.606 1.5L124.206 5.10001C126.106 4.50001 128.206 4.10001 130.306 4.20001L131.706 0L138.506 1.70001L137.806 6C139.706 7 141.406 8.20001 142.806 9.70001L146.706 7.70001L150.306 13.7L146.806 16.3C147.406 18.2 147.706 20.3 147.706 22.4L151.906 23.8L150.206 30.6L145.806 29.9ZM142.106 25C143.806 18.2 139.706 11.4 132.906 9.70001C126.106 8.00001 119.306 12.2 117.606 18.9C115.906 25.7 120.106 32.6 126.806 34.2C133.606 35.9 140.406 31.8 142.106 25Z" fill="#AAB6C2"/>
<path fill-rule="evenodd" clip-rule="evenodd" d="M44.6066 99.3C43.5066 101.4 42.2066 103.3 40.5066 104.8L42.7066 109.3L36.0066 113.3L33.1066 109.3C31.0066 110 28.7066 110.4 26.4066 110.3L24.8066 115L17.2066 113.1L18.0066 108.3C15.9066 107.2 14.0066 105.8 12.5066 104.2L8.00664 106.4L4.00664 99.7L8.00664 96.8C7.30664 94.7 6.90664 92.4 7.00664 90L2.30664 88.4L4.20664 80.9L9.00664 81.6C10.1066 79.6 11.5066 77.7 13.1066 76.1L10.9066 71.7L17.6066 67.7L20.5066 71.7C22.6066 71 24.9066 70.6 27.3066 70.7L28.9066 66L36.4066 67.9L35.7066 72.7C37.7066 73.8 39.6066 75.1 41.2066 76.8L45.6066 74.6L49.6066 81.3L45.6066 84.2C46.3066 86.3 46.7066 88.6 46.6066 90.9L51.3066 92.5L49.4066 100.1L44.6066 99.3ZM40.5066 93.8C42.4066 86.3 37.8066 78.7 30.3066 76.8C22.7066 74.9 15.1066 79.5 13.2066 87.1C11.4066 94.6 16.0066 102.2 23.5066 104.1C31.1066 106 38.7066 101.4 40.5066 93.8Z" fill="#7977C6"/>
<path d="M83.2055 41.8001H80.1055V16.6001H83.2055V41.8001Z" fill="black"/>
<path d="M54.7055 221.6H53.1055L76.1055 157.7H77.6055L54.7055 221.6Z" fill="black"/>
<path d="M82.4062 221.6H80.9062V157.7H82.4062V221.6Z" fill="black"/>
<path d="M110.305 221.6H108.805L85.8047 157.7H87.3047L110.305 221.6Z" fill="black"/>
<path d="M64.8047 186.9L75.2047 157.7H78.3047L67.8047 186.9H64.8047Z" fill="black"/>
<path d="M80.1055 184.6V157.7H83.2055V184.6H80.1055Z" fill="black"/>
<path d="M95.5059 186.9L85.0059 157.7H88.0059L98.5059 186.9H95.5059Z" fill="black"/>
<path d="M88.0051 157.7H75.2051V154.4H88.0051V157.7Z" fill="black"/>
<path d="M87.4062 22.4001H75.9062V19.1001H87.4062V22.4001Z" fill="black"/>
<path d="M95.1051 159.9H68.2051V156.7H95.1051V159.9Z" fill="black"/>
<path d="M81.4055 194L61.1055 202.1V200.8L81.4055 192.7V194Z" fill="black"/>
<path d="M102.406 202.1L81.9062 194V192.7L102.406 200.8V202.1Z" fill="black"/>
<path d="M21.6055 156.2V153.3C21.6055 153 21.8055 152.8 22.1055 152.8H136.405C136.705 152.8 136.905 153 136.905 153.3V156.2C136.905 156.4 136.705 156.7 136.405 156.7H22.1055C21.8055 156.7 21.6055 156.4 21.6055 156.2Z" fill="black"/>
<path d="M21.6055 25.2999V23.2999C21.6055 22.7999 22.0055 22.3999 22.5055 22.3999H135.905C136.505 22.3999 136.905 22.7999 136.905 23.2999V25.2999C136.905 25.7999 136.505 26.1999 135.905 26.1999H22.5055C22.0055 26.1999 21.6055 25.7999 21.6055 25.2999Z" fill="black"/>
<path d="M27.1055 156.4V24.5996H134.505V156.4H27.1055Z" fill="white"/>
<path fill-rule="evenodd" clip-rule="evenodd" d="M134.805 156.7H26.8047V24.2998H134.805V156.7ZM27.3047 24.8998V156.2H134.305V24.8998H27.3047Z" fill="black"/>
<path d="M23.1055 156.2V153.3C23.1055 153 23.3055 152.8 23.6055 152.8H137.905C138.205 152.8 138.405 153 138.405 153.3V156.2C138.405 156.4 138.205 156.7 137.905 156.7H23.6055C23.3055 156.7 23.1055 156.4 23.1055 156.2Z" fill="black"/>
<path d="M23.1055 25.2999V23.2999C23.1055 22.7999 23.5055 22.3999 24.1055 22.3999H137.505C138.005 22.3999 138.405 22.7999 138.405 23.2999V25.2999C138.405 25.7999 138.005 26.1999 137.505 26.1999H24.1055C23.5055 26.1999 23.1055 25.7999 23.1055 25.2999Z" fill="black"/>
<path d="M58.1055 52.1001V54.0001H35.6055V52.1001H58.1055Z" fill="#AAB6C2"/>
<path d="M76.2055 57.7002V59.5002H35.6055V57.7002H76.2055Z" fill="#AAB6C2"/>
<path d="M73.3055 63.3003V65.1003H35.6055V63.3003H73.3055Z" fill="#AAB6C2"/>
<path d="M60.4062 52.1001H67.4062V54.0001H60.4062V52.1001Z" fill="#AAB6C2"/>
<path d="M58.1055 73.8003V75.6003H35.6055V73.8003H58.1055Z" fill="#AAB6C2"/>
<path d="M76.2055 79.4004V81.2004H35.6055V79.4004H76.2055Z" fill="#AAB6C2"/>
<path d="M73.3055 84.9004V86.8004H35.6055V84.9004H73.3055Z" fill="#AAB6C2"/>
<path d="M60.4062 73.8003H67.4062V75.6003H60.4062V73.8003Z" fill="#AAB6C2"/>
<path d="M107.606 52.1001L107.506 54.0001H85.0059V52.1001H107.606Z" fill="#AAB6C2"/>
<path d="M125.706 57.7002V59.5002H85.0059V57.7002H125.706Z" fill="#AAB6C2"/>
<path d="M122.806 63.3003V65.1003H85.0059V63.3003H122.806Z" fill="#AAB6C2"/>
<path d="M109.906 52.1001H116.906L116.806 54.0001H109.906V52.1001Z" fill="#AAB6C2"/>
<path d="M107.606 73.8003L107.506 75.6003H85.0059V73.8003H107.606Z" fill="#AAB6C2"/>
<path d="M125.706 79.4004V81.2004H85.0059V79.4004H125.706Z" fill="#AAB6C2"/>
<path d="M122.806 84.9004V86.8004H85.0059V84.9004H122.806Z" fill="#AAB6C2"/>
<path d="M109.906 73.8003H116.906L116.806 75.6003H109.906V73.8003Z" fill="#AAB6C2"/>
<path d="M105.705 145.9V95.6003C105.705 95.4003 105.805 95.3003 106.005 95.3003C106.105 95.3003 106.305 95.4003 106.305 95.6003V145.9C106.305 146.1 106.105 146.2 106.005 146.2C105.805 146.2 105.705 146.1 105.705 145.9Z" fill="#AAB6C2"/>
<path d="M33.2051 105.5C33.2051 105.3 33.3051 105.2 33.5051 105.2H129.505C129.605 105.2 129.805 105.3 129.805 105.5C129.805 105.6 129.605 105.8 129.505 105.8H33.5051C33.3051 105.8 33.2051 105.6 33.2051 105.5Z" fill="#AAB6C2"/>
<path d="M33.2051 116.4C33.2051 116.2 33.3051 116.1 33.5051 116.1H129.505C129.605 116.1 129.805 116.2 129.805 116.4C129.805 116.6 129.605 116.7 129.505 116.7H33.5051C33.3051 116.7 33.2051 116.6 33.2051 116.4Z" fill="#AAB6C2"/>
<path d="M33.2051 127.3C33.2051 127.2 33.3051 127 33.5051 127H129.505C129.605 127 129.805 127.2 129.805 127.3C129.805 127.5 129.605 127.6 129.505 127.6H33.5051C33.3051 127.6 33.2051 127.5 33.2051 127.3Z" fill="#AAB6C2"/>
<path d="M33.2051 138.2C33.2051 138.1 33.3051 137.9 33.5051 137.9H129.505C129.605 137.9 129.805 138.1 129.805 138.2C129.805 138.4 129.605 138.5 129.505 138.5H33.5051C33.3051 138.5 33.2051 138.4 33.2051 138.2Z" fill="#AAB6C2"/>
<path d="M95.9043 145.9V95.6003C95.9043 95.4003 96.0043 95.3003 96.2043 95.3003C96.3043 95.3003 96.5043 95.4003 96.5043 95.6003V145.9C96.5043 146.1 96.3043 146.2 96.2043 146.2C96.0043 146.2 95.9043 146.1 95.9043 145.9Z" fill="#AAB6C2"/>
<path d="M125.605 145.9V95.6003C125.605 95.4003 125.705 95.3003 125.805 95.3003C126.005 95.3003 126.105 95.4003 126.105 95.6003V145.9C126.105 146.1 126.005 146.2 125.805 146.2C125.705 146.2 125.605 146.1 125.605 145.9Z" fill="#AAB6C2"/>
<path d="M115.705 145.9V95.6003C115.705 95.4003 115.905 95.3003 116.005 95.3003C116.205 95.3003 116.305 95.4003 116.305 95.6003V145.9C116.305 146.1 116.205 146.2 116.005 146.2C115.905 146.2 115.705 146.1 115.705 145.9Z" fill="#AAB6C2"/>
<path d="M86.1055 145.9V95.6003C86.1055 95.4003 86.2055 95.3003 86.3055 95.3003C86.5055 95.3003 86.6055 95.4003 86.6055 95.6003V145.9C86.6055 146.1 86.5055 146.2 86.3055 146.2C86.2055 146.2 86.1055 146.1 86.1055 145.9Z" fill="#AAB6C2"/>
<path d="M76.2051 145.9V95.6003C76.2051 95.4003 76.4051 95.3003 76.5051 95.3003C76.7051 95.3003 76.8051 95.4003 76.8051 95.6003V145.9C76.8051 146.1 76.7051 146.2 76.5051 146.2C76.4051 146.2 76.2051 146.1 76.2051 145.9Z" fill="#AAB6C2"/>
<path d="M66.4043 145.9V95.6003C66.4043 95.4003 66.5043 95.3003 66.7043 95.3003C66.9043 95.3003 67.0043 95.4003 67.0043 95.6003V145.9C67.0043 146.1 66.9043 146.2 66.7043 146.2C66.5043 146.2 66.4043 146.1 66.4043 145.9Z" fill="#AAB6C2"/>
<path d="M56.6055 145.9V95.6003C56.6055 95.4003 56.7055 95.3003 56.9055 95.3003C57.0055 95.3003 57.2055 95.4003 57.2055 95.6003V145.9C57.2055 146.1 57.0055 146.2 56.9055 146.2C56.7055 146.2 56.6055 146.1 56.6055 145.9Z" fill="#AAB6C2"/>
<path d="M46.8047 145.9V95.6003C46.8047 95.4003 46.9047 95.3003 47.1047 95.3003C47.2047 95.3003 47.3047 95.4003 47.3047 95.6003V145.9C47.3047 146.1 47.2047 146.2 47.1047 146.2C46.9047 146.2 46.8047 146.1 46.8047 145.9Z" fill="#AAB6C2"/>
<path d="M36.9043 145.9V95.6003C36.9043 95.4003 37.1043 95.3003 37.2043 95.3003C37.4043 95.3003 37.5043 95.4003 37.5043 95.6003V145.9C37.5043 146.1 37.4043 146.2 37.2043 146.2C37.1043 146.2 36.9043 146.1 36.9043 145.9Z" fill="#AAB6C2"/>
<path d="M33.2057 141C32.9391 141 32.7057 140.934 32.5057 140.8C32.0057 140.4 32.0057 139.7 32.4057 139.3L44.6057 126.1C44.9057 125.8 45.5057 125.7 46.0057 125.9L58.5057 132.1L70.2057 116.4C70.3057 116.2 70.6057 116 71.0057 116C71.3057 115.9 71.6057 116 71.8057 116.2L84.0057 126.6L93.0057 110.3C93.2057 110.1 93.4057 109.9 93.7057 109.8C94.0057 109.7 94.3057 109.8 94.6057 109.9L106.106 116.4L118.506 100.7C118.906 100.2 119.606 100.1 120.106 100.5C120.606 100.8 120.706 101.5 120.306 101.9L107.406 118.5C107.006 118.9 106.406 119 105.906 118.7L94.4057 112.3L85.3057 128.7C85.1057 129 84.8057 129.2 84.5057 129.3C84.1057 129.4 83.8057 129.3 83.5057 129L71.3057 118.6L59.8057 134C59.5057 134.5 58.9057 134.6 58.4057 134.3L45.7057 128.2L34.1057 140.7C33.9057 140.9 33.5057 141 33.2057 141Z" fill="#7977C6"/>
<path d="M121.805 107.3C121.205 107.3 120.705 106.9 120.705 106.4L119.705 100.8L112.805 102.3C112.205 102.5 111.605 102.1 111.505 101.5C111.305 101 111.705 100.4 112.305 100.3L120.405 98.5003C120.705 98.4003 121.005 98.4003 121.305 98.6003C121.505 98.8003 121.705 99.0003 121.805 99.3003L122.905 106.1C123.005 106.6 122.605 107.2 121.905 107.3C121.838 107.3 121.805 107.3 121.805 107.3Z" fill="#7977C6"/>
<path fill-rule="evenodd" clip-rule="evenodd" d="M33.0059 33.8003H36.4059C37.0725 33.8003 37.5725 33.8003 37.9059 33.8003C38.2392 33.867 38.5392 34.0003 38.8059 34.2003C39.0725 34.4003 39.3059 34.6669 39.5059 35.0003C39.6392 35.3336 39.7059 35.6669 39.7059 36.0003C39.7059 36.4669 39.6059 36.867 39.4059 37.2003C39.2059 37.6003 38.9059 37.8669 38.5059 38.0003C39.0392 38.2003 39.4392 38.467 39.7059 38.8003C40.0392 39.2003 40.2059 39.667 40.2059 40.2003C40.2059 40.6003 40.1059 41.0003 39.9059 41.4003C39.7059 41.8003 39.4725 42.1336 39.2059 42.4003C38.8725 42.6003 38.4725 42.7336 38.0059 42.8003C37.7392 42.8003 37.0392 42.8336 35.9059 42.9003H33.0059V33.8003ZM34.7059 35.3003V37.4003H35.9059C36.5725 37.4003 36.9725 37.367 37.1059 37.3003C37.4392 37.3003 37.6725 37.2003 37.8059 37.0003C38.0059 36.8003 38.1059 36.567 38.1059 36.3003C38.1059 36.0336 38.0059 35.8003 37.8059 35.6003C37.6725 35.4669 37.4725 35.367 37.2059 35.3003C37.0059 35.3003 36.5059 35.3003 35.7059 35.3003H34.7059ZM34.7059 38.9003V41.3003H36.3059C36.9059 41.3003 37.3059 41.3003 37.5059 41.3003C37.7725 41.2336 37.9725 41.1003 38.1059 40.9003C38.3059 40.7003 38.4059 40.4336 38.4059 40.1003C38.4059 39.8336 38.3392 39.6003 38.2059 39.4003C38.0725 39.2003 37.8725 39.0669 37.6059 39.0003C37.4059 38.9336 36.9059 38.9003 36.1059 38.9003H34.7059Z" fill="black"/>
<path d="M41.6055 33.8003H43.3055V38.7003C43.3055 39.5003 43.3388 40.0003 43.4055 40.2003C43.4721 40.6003 43.6388 40.9003 43.9055 41.1003C44.2388 41.3003 44.6388 41.4003 45.1055 41.4003C45.5721 41.4003 45.9388 41.3003 46.2055 41.1003C46.4721 40.9003 46.6055 40.6336 46.6055 40.3003C46.6721 40.0336 46.7055 39.5336 46.7055 38.8003V33.8003H48.5055V38.5003C48.5055 39.6336 48.4388 40.4003 48.3055 40.8003C48.2388 41.267 48.0721 41.6669 47.8055 42.0003C47.5388 42.3336 47.2055 42.567 46.8055 42.7003C46.4055 42.9003 45.8388 43.0003 45.1055 43.0003C44.3055 43.0003 43.7055 42.9003 43.3055 42.7003C42.8388 42.5003 42.5055 42.2336 42.3055 41.9003C42.0388 41.5669 41.8721 41.2336 41.8055 40.9003C41.6721 40.3669 41.6055 39.6003 41.6055 38.6003V33.8003Z" fill="black"/>
<path d="M49.8066 39.9001L51.5066 39.7001C51.64 40.3001 51.84 40.7334 52.1066 41.0001C52.44 41.3334 52.8733 41.5001 53.4066 41.5001C53.94 41.5001 54.3733 41.3668 54.7066 41.1001C54.9733 40.8334 55.1066 40.5334 55.1066 40.2001C55.1066 40.0001 55.04 39.8334 54.9066 39.7001C54.7733 39.5001 54.5733 39.3668 54.3066 39.3001C54.1066 39.2334 53.64 39.1001 52.9066 38.9001C51.9733 38.6334 51.3066 38.3334 50.9066 38.0001C50.3733 37.4668 50.1066 36.8334 50.1066 36.1001C50.1066 35.6334 50.24 35.2001 50.5066 34.8001C50.7733 34.4001 51.14 34.1001 51.6066 33.9001C52.0733 33.7001 52.64 33.6001 53.3066 33.6001C54.3733 33.6001 55.1733 33.8668 55.7066 34.4001C56.24 34.8668 56.54 35.5334 56.6066 36.4001H54.8066C54.74 35.9334 54.6066 35.6001 54.4066 35.4001C54.14 35.2001 53.7733 35.1001 53.3066 35.1001C52.7733 35.1001 52.3733 35.2001 52.1066 35.4001C51.9066 35.6001 51.8066 35.8001 51.8066 36.0001C51.8066 36.2001 51.9066 36.4001 52.1066 36.6001C52.3066 36.8001 52.84 37.0001 53.7066 37.2001C54.5066 37.4001 55.1066 37.6001 55.5066 37.8001C55.9066 38.0668 56.24 38.4001 56.5066 38.8001C56.7066 39.1334 56.8066 39.6001 56.8066 40.2001C56.8066 40.7334 56.6733 41.2334 56.4066 41.7001C56.14 42.1001 55.74 42.4334 55.2066 42.7001C54.74 42.9001 54.14 43.0001 53.4066 43.0001C52.2733 43.0001 51.44 42.7334 50.9066 42.2001C50.3066 41.6668 49.94 40.9001 49.8066 39.9001Z" fill="black"/>
<path d="M58.2051 42.9003V33.8003H59.9051V42.9003H58.2051Z" fill="black"/>
<path d="M61.6055 42.9003V33.8003H63.3055L66.8055 39.8003V33.8003H68.4055V42.9003H66.7055L63.2055 36.9003V42.9003H61.6055Z" fill="black"/>
<path d="M70.2051 42.9003V33.8003H76.6051V35.3003H72.0051V37.3003H76.3051V38.8003H72.0051V41.3003H76.8051V42.9003H70.2051Z" fill="black"/>
<path d="M77.8066 39.9001L79.5066 39.7001C79.5733 40.3001 79.7733 40.7334 80.1066 41.0001C80.44 41.3334 80.84 41.5001 81.3066 41.5001C81.9066 41.5001 82.34 41.3668 82.6066 41.1001C82.8733 40.8334 83.0066 40.5334 83.0066 40.2001C83.0066 40.0001 82.94 39.8334 82.8066 39.7001C82.74 39.5001 82.54 39.3668 82.2066 39.3001C82.0066 39.2334 81.54 39.1001 80.8066 38.9001C79.8733 38.6334 79.24 38.3334 78.9066 38.0001C78.3733 37.4668 78.1066 36.8334 78.1066 36.1001C78.1066 35.6334 78.24 35.2001 78.5066 34.8001C78.7066 34.4001 79.04 34.1001 79.5066 33.9001C79.9733 33.7001 80.54 33.6001 81.2066 33.6001C82.2733 33.6001 83.1066 33.8668 83.7066 34.4001C84.24 34.8668 84.5066 35.5334 84.5066 36.4001H82.8066C82.74 35.9334 82.5733 35.6001 82.3066 35.4001C82.04 35.2001 81.6733 35.1001 81.2066 35.1001C80.74 35.1001 80.34 35.2001 80.0066 35.4001C79.8733 35.6001 79.8066 35.8001 79.8066 36.0001C79.8066 36.2001 79.8733 36.4001 80.0066 36.6001C80.2066 36.8001 80.74 37.0001 81.6066 37.2001C82.4733 37.4001 83.1066 37.6001 83.5066 37.8001C83.9066 38.0668 84.2066 38.4001 84.4066 38.8001C84.6733 39.1334 84.8066 39.6001 84.8066 40.2001C84.8066 40.7334 84.64 41.2334 84.3066 41.7001C84.04 42.1001 83.6733 42.4334 83.2066 42.7001C82.6733 42.9001 82.04 43.0001 81.3066 43.0001C80.24 43.0001 79.4066 42.7334 78.8066 42.2001C78.2733 41.6668 77.94 40.9001 77.8066 39.9001Z" fill="black"/>
<path d="M85.8066 39.9001L87.5066 39.7001C87.5733 40.3001 87.7733 40.7334 88.1066 41.0001C88.3733 41.3334 88.7733 41.5001 89.3066 41.5001C89.9066 41.5001 90.34 41.3668 90.6066 41.1001C90.8733 40.8334 91.0066 40.5334 91.0066 40.2001C91.0066 40.0001 90.94 39.8334 90.8066 39.7001C90.74 39.5001 90.54 39.3668 90.2066 39.3001C90.0066 39.2334 89.54 39.1001 88.8066 38.9001C87.8733 38.6334 87.24 38.3334 86.9066 38.0001C86.3733 37.4668 86.1066 36.8334 86.1066 36.1001C86.1066 35.6334 86.24 35.2001 86.5066 34.8001C86.7066 34.4001 87.04 34.1001 87.5066 33.9001C87.9733 33.7001 88.54 33.6001 89.2066 33.6001C90.2733 33.6001 91.0733 33.8668 91.6066 34.4001C92.2066 34.8668 92.5066 35.5334 92.5066 36.4001H90.8066C90.74 35.9334 90.5733 35.6001 90.3066 35.4001C90.04 35.2001 89.6733 35.1001 89.2066 35.1001C88.6733 35.1001 88.2733 35.2001 88.0066 35.4001C87.8066 35.6001 87.7066 35.8001 87.7066 36.0001C87.7066 36.2001 87.8066 36.4001 88.0066 36.6001C88.2066 36.8001 88.74 37.0001 89.6066 37.2001C90.4733 37.4001 91.1066 37.6001 91.5066 37.8001C91.9066 38.0668 92.2066 38.4001 92.4066 38.8001C92.6066 39.1334 92.7066 39.6001 92.7066 40.2001C92.7066 40.7334 92.5733 41.2334 92.3066 41.7001C92.04 42.1001 91.6733 42.4334 91.2066 42.7001C90.6733 42.9001 90.04 43.0001 89.3066 43.0001C88.24 43.0001 87.4066 42.7334 86.8066 42.2001C86.2066 41.6668 85.8733 40.9001 85.8066 39.9001Z" fill="black"/>
<path fill-rule="evenodd" clip-rule="evenodd" d="M97.5059 42.9003V33.8003H100.306C101.373 33.8003 102.073 33.8336 102.406 33.9003C102.873 34.0336 103.273 34.3336 103.606 34.8003C103.939 35.267 104.106 35.8669 104.106 36.6003C104.106 37.1336 104.006 37.6003 103.806 38.0003C103.606 38.3336 103.373 38.6336 103.106 38.9003C102.773 39.1003 102.473 39.2336 102.206 39.3003C101.806 39.367 101.206 39.4003 100.406 39.4003H99.3059V42.9003H97.5059ZM99.2059 35.3003V37.9003H100.106C100.839 37.9003 101.306 37.8336 101.506 37.7003C101.773 37.6336 101.939 37.5003 102.006 37.3003C102.139 37.1003 102.206 36.8669 102.206 36.6003C102.206 36.2669 102.139 36.0003 102.006 35.8003C101.806 35.5336 101.573 35.4003 101.306 35.4003C101.106 35.3336 100.673 35.3003 100.006 35.3003H99.2059Z" fill="black"/>
<path d="M105.605 42.9003V33.8003H107.305V41.3003H111.605V42.9003H105.605Z" fill="black"/>
<path fill-rule="evenodd" clip-rule="evenodd" d="M120.606 42.9003H118.706L117.906 40.8003H114.506L113.806 42.9003H112.006L115.306 33.8003H117.106L120.606 42.9003ZM117.406 39.3003L116.306 35.9003L115.106 39.3003H117.406Z" fill="black"/>
<path d="M121.506 42.9003V33.8003H123.206L126.706 39.8003V33.8003H128.306V42.9003H126.606L123.106 36.9003V42.9003H121.506Z" fill="black"/>
<path d="M97.0055 222.4H81.0055C78.3055 222.4 76.1055 220.2 76.1055 217.4C76.1055 214.7 78.3055 212.5 81.0055 212.5H97.0055V222.4Z" fill="#7977C6"/>
<path d="M76.1055 216.9C76.4055 214.4 78.5055 212.5 81.0055 212.5H97.0055V216.4C95.1055 217.1 92.9055 218 92.2055 216.9C91.4055 215.6 88.8055 213.7 88.8055 213.7C88.8055 213.7 83.6055 213.6 80.2055 213.6C76.7055 213.6 76.1055 216.8 76.1055 216.9Z" fill="#7977C6"/>
<path d="M91.7043 221.1C89.6043 221.1 87.9043 219.5 87.9043 217.4C87.9043 215.3 89.6043 213.6 91.7043 213.6H120.004V221.1H91.7043Z" fill="white"/>
<path fill-rule="evenodd" clip-rule="evenodd" d="M120.305 221.4H91.7051C89.5051 221.4 87.7051 219.6 87.7051 217.4C87.7051 215.2 89.5051 213.4 91.7051 213.4H120.305V221.4ZM91.7051 213.8C89.7051 213.8 88.2051 215.4 88.2051 217.3C88.2051 219.3 89.7051 220.9 91.7051 220.9H119.805V213.8H91.7051Z" fill="black"/>
<path d="M122.006 222.4H91.9059C89.2059 222.4 87.0059 220.2 87.0059 217.4C87.0059 214.7 89.2059 212.5 91.9059 212.5H122.006V214.2H91.9059C90.1059 214.2 88.7059 215.7 88.7059 217.4C88.7059 219.2 90.1059 220.7 91.9059 220.7H122.006V222.4Z" fill="black"/>
<path d="M99.9051 198.5H87.5051C85.4051 198.5 83.7051 196.8 83.7051 194.7C83.7051 192.5 85.4051 190.8 87.5051 190.8H99.9051V198.5Z" fill="#7977C6"/>
<path d="M95.8043 197.5C94.2043 197.5 92.9043 196.2 92.9043 194.6C92.9043 193 94.2043 191.7 95.8043 191.7H117.704V197.5H95.8043Z" fill="white"/>
<path fill-rule="evenodd" clip-rule="evenodd" d="M118.005 197.7H95.8051C94.1051 197.7 92.7051 196.3 92.7051 194.6C92.7051 192.9 94.1051 191.5 95.8051 191.5H118.005V197.7ZM95.8051 192C94.4051 192 93.2051 193.1 93.2051 194.6C93.2051 196 94.4051 197.2 95.8051 197.2H117.505V192H95.8051Z" fill="black"/>
<path d="M119.305 198.5H96.0051C93.9051 198.5 92.2051 196.8 92.2051 194.7C92.2051 192.5 93.9051 190.8 96.0051 190.8H119.305V192.1H96.0051C94.6051 192.1 93.5051 193.3 93.5051 194.7C93.5051 196 94.6051 197.2 96.0051 197.2H119.305V198.5Z" fill="black"/>
<path d="M101.406 204.3H88.0059C86.4059 204.3 85.0059 203 85.0059 201.4C85.0059 199.8 86.4059 198.5 88.0059 198.5H101.406V204.3Z" fill="#AAB6C2"/>
<path d="M85.1059 202.1C85.0392 201.9 85.0059 201.667 85.0059 201.4C85.0059 199.8 86.4059 198.5 88.0059 198.5H101.406V199.8L98.1059 199.5H88.1059C88.1059 199.5 85.5059 199.5 85.1059 202.1Z" fill="black"/>
<path d="M100.207 203.5C99.1074 203.5 98.1074 202.5 98.1074 201.4C98.1074 200.2 99.1074 199.2 100.207 199.2H121.707V203.5H100.207Z" fill="white"/>
<path fill-rule="evenodd" clip-rule="evenodd" d="M121.907 203.7H100.207C98.9066 203.7 97.8066 202.7 97.8066 201.4C97.8066 200 98.9066 199 100.207 199H121.907V203.7ZM100.207 199.4C99.2066 199.4 98.3066 200.3 98.3066 201.3C98.3066 202.3 99.2066 203.2 100.207 203.2H121.407V199.4H100.207Z" fill="black"/>
<path d="M122.906 204.3H100.406C98.8062 204.3 97.4062 203 97.4062 201.4C97.4062 199.8 98.8062 198.5 100.406 198.5H122.906V199.5H100.406C99.3062 199.5 98.4062 200.3 98.4062 201.4C98.4062 202.5 99.3062 203.3 100.406 203.3H122.906V204.3Z" fill="black"/>
<path d="M90.1055 204.3H114.705C116.905 204.3 118.805 206.2 118.805 208.4C118.805 210.7 116.905 212.5 114.705 212.5H90.1055V204.3Z" fill="#AAB6C2"/>
<path d="M114.705 204.3C116.905 204.3 118.805 206.2 118.805 208.4C118.805 208.533 118.805 208.7 118.805 208.9C118.705 208.9 117.605 206.1 114.305 206C111.005 206 96.7047 206 96.7047 206L92.8047 204.3H114.705Z" fill="black"/>
<path d="M80.4043 211.4V205.3H94.5043C96.2043 205.3 97.6043 206.7 97.6043 208.4C97.6043 210.1 96.2043 211.4 94.5043 211.4H80.4043Z" fill="white"/>
<path fill-rule="evenodd" clip-rule="evenodd" d="M97.8051 208.4C97.8051 210.2 96.3051 211.7 94.5051 211.7H80.2051V205H94.5051C96.3051 205 97.8051 206.5 97.8051 208.4ZM80.7051 205.5V211.2H94.5051C96.1051 211.2 97.3051 209.9 97.3051 208.4C97.3051 206.8 96.1051 205.5 94.5051 205.5H80.7051Z" fill="black"/>
<path d="M78.7051 211.1H94.3051C95.8051 211.1 97.0051 209.9 97.0051 208.4C97.0051 206.9 95.8051 205.7 94.3051 205.7H78.7051V204.3H94.3051C96.6051 204.3 98.4051 206.2 98.4051 208.4C98.4051 210.7 96.6051 212.5 94.3051 212.5H78.7051V211.1Z" fill="black"/>
<path d="M123.906 101.5C119.806 101.5 115.706 100.4 111.706 98.3003C107.306 95.9003 109.706 75.6003 112.706 69.6003L112.806 69.5003L112.706 69.3003C112.506 69.1003 112.206 68.8003 111.906 68.2003C111.206 67.1003 111.406 66.4003 111.506 66.2003C111.506 66.0003 111.706 66.0003 111.706 65.9003L112.806 67.3003L112.106 65.7003C111.806 65.2003 111.906 64.7003 112.106 64.4003C112.173 64.2669 112.239 64.2003 112.306 64.2003L112.806 64.5003L112.706 64.0003C112.606 63.7003 112.706 63.3003 112.906 63.0003C113.106 62.8003 113.306 62.7003 113.506 62.7003C113.773 62.7003 113.973 62.8336 114.106 63.1003L115.006 64.4003L114.606 62.9003C114.306 61.9003 113.106 60.3003 112.406 59.7003C112.106 59.4003 112.106 59.2003 112.106 59.0003C112.173 58.9336 112.273 58.867 112.406 58.8003C112.473 58.8003 112.506 58.8336 112.506 58.9003C112.806 58.9003 113.606 59.3003 115.206 61.3003C115.906 62.3003 117.206 64.3003 117.306 66.5003V66.9003L117.606 66.8003C117.739 66.7336 117.873 66.6669 118.006 66.6003H118.206V66.4003C118.206 66.1003 118.106 65.7003 118.106 65.5003C118.006 65.3003 118.106 65.2003 118.106 65.1003C118.206 65.0003 118.406 64.9003 118.506 64.9003C118.639 64.9003 118.739 64.9669 118.806 65.1003C119.106 65.8003 119.306 66.4003 119.106 67.0003C119.006 67.2003 117.306 69.9003 116.706 70.3003L116.606 70.4003L116.706 70.6003C116.906 71.6003 117.206 73.7003 117.506 76.0003C119.006 85.9003 119.606 88.6003 120.306 88.7003H120.406C121.306 88.7003 123.706 87.7003 127.606 86.0003C127.706 85.9003 128.606 85.6003 128.606 85.6003C128.873 85.4669 129.139 85.3336 129.406 85.2003H129.606C136.406 82.2003 142.906 80.5003 147.306 80.5003C148.239 80.5003 149.073 80.6003 149.806 80.8003C150.206 80.867 150.439 81.0336 150.506 81.3003C151.106 83.6003 143.006 91.2003 139.806 93.9003C139.706 94.0003 138.906 95.4003 137.206 97.1003C135.506 98.8003 133.906 99.6003 130.606 100.6H130.506C130.439 100.6 130.34 100.634 130.206 100.7C129.54 100.9 128.773 101.067 127.906 101.2C127.306 101.267 126.706 101.334 126.106 101.4C125.706 101.467 125.306 101.5 124.906 101.5C124.573 101.5 124.239 101.5 123.906 101.5Z" fill="white"/>
<path fill-rule="evenodd" clip-rule="evenodd" d="M112.607 58.6001C113.407 58.8001 114.807 60.4001 115.407 61.2001C116.507 62.7001 117.507 64.6001 117.507 66.5001C117.707 66.5001 117.873 66.4668 118.007 66.4001C118.007 66.1001 117.907 65.8001 117.807 65.5001C117.707 65.1001 118.107 64.7001 118.507 64.7001C118.707 64.7001 118.907 64.8001 119.007 65.0001C119.407 65.7001 119.607 66.3001 119.307 67.1001C119.307 67.2001 117.507 70.1001 116.907 70.5001C117.607 74.1001 119.307 88.3001 120.407 88.4001C121.307 88.4001 124.007 87.3001 127.507 85.8001C127.707 85.6668 127.94 85.5668 128.207 85.5001C128.54 85.3001 128.907 85.1334 129.307 85.0001C129.373 85.0001 129.407 85.0001 129.407 85.0001C135.607 82.3001 142.407 80.3001 147.307 80.3001C148.24 80.3001 149.073 80.3668 149.807 80.5001C154.507 81.5001 140.007 94.1001 140.007 94.1001C140.007 94.1001 139.107 95.6001 137.307 97.3001C135.607 99.0001 133.907 99.9001 130.707 100.8C130.573 100.8 130.44 100.833 130.307 100.9C129.573 101.1 128.807 101.267 128.007 101.4C127.407 101.533 126.773 101.633 126.107 101.7C125.707 101.7 125.307 101.733 124.907 101.8C124.573 101.8 124.24 101.8 123.907 101.8C120.307 101.8 116.107 101 111.607 98.5001C106.807 95.9001 109.607 75.4001 112.507 69.5001C112.207 69.2001 112.007 68.8001 111.707 68.3001C110.607 66.8001 111.307 65.7001 111.707 65.7001C111.773 65.7001 111.807 65.7334 111.807 65.8001C111.407 64.9001 111.807 64.0001 112.307 64.0001C112.307 64.0001 112.34 64.0001 112.407 64.0001C112.307 63.3001 112.907 62.4001 113.507 62.4001C113.807 62.4001 114.107 62.6001 114.307 62.9001C114.107 62.1001 112.907 60.5001 112.207 59.9001C111.607 59.3001 111.807 58.6001 112.407 58.6001C112.473 58.6001 112.54 58.6001 112.607 58.6001ZM112.307 59.1001C112.307 59.2001 112.407 59.3001 112.507 59.5001C113.307 60.2001 114.507 61.8001 114.807 62.8001L115.707 65.8001L113.907 63.2001C113.807 63.1001 113.707 62.9001 113.507 62.9001C113.407 62.9001 113.307 63.0001 113.107 63.2001C113.007 63.4001 112.907 63.7001 112.907 63.9001L113.207 65.0001L112.307 64.5001C112.207 64.7001 112.107 65.1001 112.307 65.6001L113.707 68.7001L111.707 66.3001C111.607 66.6001 111.507 67.2001 112.107 68.0001C112.407 68.6001 112.707 68.9001 112.907 69.2001L113.107 69.4001L113.007 69.7001C110.007 75.6001 107.507 95.7001 111.807 98.0001C115.807 100.2 119.807 101.3 123.907 101.3C124.24 101.3 124.573 101.3 124.907 101.3C125.373 101.233 125.773 101.2 126.107 101.2C126.707 101.133 127.307 101.067 127.907 101C128.773 100.8 129.54 100.6 130.207 100.4C130.273 100.4 130.34 100.4 130.407 100.4L130.507 100.3C133.807 99.4001 135.407 98.5001 137.007 97.0001C138.707 95.3001 139.507 93.9001 139.507 93.9001L139.607 93.8001V93.7001C144.007 90.0001 150.707 83.3001 150.207 81.4001C150.207 81.3001 150.207 81.1001 149.707 81.0001C149.04 80.8668 148.24 80.8001 147.307 80.8001C143.007 80.8001 136.507 82.5001 129.607 85.4001L129.507 85.5001C129.24 85.5668 128.973 85.6668 128.707 85.8001L128.407 85.9001C128.273 85.9668 128.14 86.0334 128.007 86.1001C127.94 86.1668 127.84 86.2001 127.707 86.2001C123.807 87.9001 121.307 88.9001 120.407 88.9001C120.407 88.9001 120.373 88.9001 120.307 88.9001C119.407 88.8001 118.907 87.1001 117.307 76.1001C116.907 73.7001 116.607 71.7001 116.407 70.6001L116.307 70.3001L116.607 70.1001C117.107 69.8001 118.707 67.2001 118.907 66.9001C119.107 66.4001 118.907 65.9001 118.607 65.2001C118.54 65.2001 118.507 65.2001 118.507 65.2001C118.44 65.2001 118.373 65.2334 118.307 65.3001C118.307 65.3668 118.307 65.4001 118.307 65.4001C118.407 65.7001 118.507 66.0001 118.507 66.4001V66.8001L118.107 66.9001C117.973 66.9001 117.84 66.9334 117.707 67.0001L117.007 67.2001V66.5001C117.007 64.4001 115.707 62.4001 115.007 61.5001C113.307 59.4001 112.707 59.1001 112.507 59.1001C112.507 59.1001 112.473 59.1001 112.407 59.1001C112.407 59.1001 112.373 59.1001 112.307 59.1001Z" fill="black"/>
<path d="M146.207 217.5C144.407 217.5 141.707 217 141.107 216.4C141.107 216.333 141.107 216.3 141.107 216.3C141.107 214.8 141.307 211.6 141.807 211.1C141.807 211.1 141.907 211.1 142.407 211.1C144.007 211.1 147.107 211.8 147.707 212.1C147.707 213.6 147.407 217.1 147.007 217.4C147.007 217.4 146.807 217.5 146.207 217.5Z" fill="white"/>
<path fill-rule="evenodd" clip-rule="evenodd" d="M147.907 212C148.007 213.1 147.707 217.1 147.107 217.6C147.007 217.7 146.607 217.7 146.207 217.7C144.407 217.7 140.807 217.1 140.807 216.3C140.807 215.4 141.007 211.5 141.607 211C141.707 210.9 142.007 210.8 142.407 210.8C144.107 210.8 147.907 211.7 147.907 212ZM141.907 211.4C141.607 211.8 141.307 214.6 141.307 216.2C141.707 216.6 144.307 217.2 146.207 217.2C146.607 217.2 146.707 217.2 146.807 217.2C147.207 216.7 147.407 213.7 147.407 212.2C146.707 212 143.907 211.3 142.407 211.3C142.107 211.3 142.007 211.3 141.907 211.4Z" fill="black"/>
<path d="M190.607 212.8C190.507 212.8 190.407 212.8 190.407 212.8C189.507 211.5 187.807 208.7 187.907 208.2C188.107 207.6 192.407 205.6 193.307 205.5C194.207 206.7 196.007 209.7 195.807 210.2C195.607 210.7 192.007 212.8 190.607 212.8Z" fill="white"/>
<path fill-rule="evenodd" clip-rule="evenodd" d="M193.407 205.2C194.107 206.1 196.307 209.5 196.007 210.3C195.907 210.9 192.007 213.1 190.607 213.1C190.407 213.1 190.273 213.033 190.207 212.9C189.707 212.2 187.607 208.9 187.707 208.1C187.807 207.3 192.607 205.2 193.307 205.2C193.373 205.2 193.407 205.2 193.407 205.2ZM188.207 208.2C188.207 208.8 189.607 211.2 190.507 212.6C190.573 212.6 190.607 212.6 190.607 212.6C191.807 212.6 195.107 210.7 195.607 210.1C195.507 209.5 194.007 206.9 193.107 205.7C192.207 206 188.607 207.6 188.207 208.2Z" fill="black"/>
<path d="M161.407 139.2C161.007 140.2 160.607 141.233 160.207 142.3C157.407 149.6 153.907 158.1 153.507 162.5C152.907 170.6 149.107 190.6 149.107 200.3C149.107 208.2 146.907 213.5 147.107 215.4L139.907 214C137.107 202.6 134.307 175.1 134.307 162.7C134.307 150.2 135.407 129.5 139.907 119.6C144.307 110.3 161.607 127.3 163.707 129.6C164.407 130.5 163.207 134.3 161.407 139.2Z" fill="black"/>
<path d="M161.406 139.2C161.006 140.2 160.606 141.233 160.206 142.3C157.406 149.6 153.906 158.1 153.506 162.5C152.906 170.6 149.606 212.6 148.906 215.3C147.606 216.1 145.106 215.5 143.406 214.7C142.806 207.7 146.106 201.1 146.906 194.3C148.406 181.3 143.906 167.5 149.406 155C151.006 151.5 153.506 147.9 153.306 143.9C153.106 142 151.906 139.7 153.006 137.8C155.006 134.4 158.806 136.7 160.506 139C160.706 139 161.006 138.9 161.206 139.1C161.273 139.166 161.34 139.2 161.406 139.2Z" fill="black"/>
<path d="M159.906 124.5C164.306 119.7 169.506 117 172.706 116.6C173.439 116.533 174.073 116.566 174.606 116.7C175.006 116.9 175.306 117.166 175.506 117.5C177.006 119.9 178.106 122.1 179.006 124.2C179.273 124.8 179.506 125.4 179.706 126C184.306 138.5 179.906 146.8 180.006 163.7C180.006 171.9 178.306 179.1 186.406 191.6C189.506 196.4 195.906 208 195.906 208L194.606 208.7L188.906 211.7C178.506 203.8 162.806 183.5 161.406 171.2C159.206 152 158.606 132.3 158.506 127.3C158.506 126.5 158.506 126.066 158.506 126C158.973 125.466 159.439 124.966 159.906 124.5Z" fill="black"/>
<path d="M175.706 151.7C177.306 143.6 178.206 135.9 175.806 127.8C175.706 127.5 175.806 127.3 176.006 127.2C176.073 127.067 176.173 127 176.306 127C177.206 126.7 178.406 126.2 179.706 126C184.306 138.5 179.906 146.8 180.006 163.7C180.006 171.9 178.306 179.1 186.406 191.6C189.506 196.4 195.906 208 195.906 208L194.606 208.7C190.006 204.4 185.206 200.1 182.406 194.4C179.306 187.9 177.306 180.5 175.706 173.5C174.106 166.1 174.306 159.1 175.706 151.7Z" fill="black"/>
<path d="M147.307 216.2C147.307 216.2 149.007 220.4 146.707 223C146.707 223 133.507 221.1 129.807 219.7C129.807 219.7 130.607 214.6 134.107 214.8C137.507 215.1 140.907 215.9 140.907 215.9C140.907 215.9 144.307 218.5 147.307 216.2Z" fill="black"/>
<path d="M195.607 208.7C195.607 208.7 199.607 210.9 199.407 214.4C199.407 214.4 188.107 221.3 184.207 222.6C184.207 222.6 181.707 218.1 184.507 216.1C187.307 214.1 190.407 212.6 190.407 212.6C190.407 212.6 194.707 212.4 195.607 208.7Z" fill="black"/>
<path d="M136.406 100.6C130.206 95.8003 129.006 87.6003 131.006 82.2003C137.406 76.8003 144.606 71.2003 149.006 70.4003C149.073 70.3336 149.139 70.3003 149.206 70.3003C149.473 70.3003 149.673 70.4003 149.806 70.6003C150.206 71.2003 150.406 73.6003 147.006 81.9003C145.506 85.4003 144.106 88.3003 144.106 88.3003L144.006 88.5003L144.106 88.6003C144.206 88.6003 146.806 92.0003 145.906 94.1003C145.606 95.0003 144.606 95.9003 143.006 96.9003C142.139 97.4336 141.206 97.9336 140.206 98.4003C138.906 99.1003 137.606 99.8003 136.406 100.6Z" fill="white"/>
<path fill-rule="evenodd" clip-rule="evenodd" d="M147.206 82.0001C145.806 85.5001 144.306 88.4001 144.306 88.4001C144.306 88.4001 147.106 91.9001 146.206 94.2001C145.706 95.3001 144.606 96.2001 143.106 97.1001C141.106 98.3001 138.506 99.5001 136.406 100.9C129.906 96.0001 128.806 87.5001 130.806 82.0001C136.606 77.1001 144.306 71.0001 149.006 70.1001C149.073 70.1001 149.139 70.1001 149.206 70.1001C151.706 70.1001 149.406 76.7001 147.206 82.0001ZM149.006 70.6001C144.706 71.4001 137.606 76.9001 131.206 82.3001C129.306 87.6001 130.506 95.6001 136.406 100.3C137.606 99.5001 138.806 98.9001 140.006 98.2001C141.006 97.6668 141.939 97.1668 142.806 96.7001C144.406 95.7001 145.406 94.9001 145.706 94.0001C146.406 92.4001 144.706 89.7001 143.906 88.8001L143.806 88.5001L143.906 88.2001C143.906 88.2001 145.306 85.3001 146.706 81.8001C150.306 73.3001 149.906 71.2001 149.606 70.7001C149.506 70.7001 149.406 70.6001 149.206 70.6001C149.139 70.6001 149.073 70.6001 149.006 70.6001Z" fill="black"/>
<path d="M177.805 128.4C171.905 128.4 140.205 121.1 139.205 119.5C139.605 117.7 140.405 114.8 141.305 111.8C142.405 108.3 143.605 104.2 144.105 101.1C144.205 100.4 144.305 99.8 144.405 99C144.505 97.1 144.305 94.3 144.005 91.1L143.905 89.9C143.105 81.3 142.705 72.8 146.705 71.2L147.005 71.1C147.205 71.0333 147.405 70.9667 147.605 70.9C148.805 70.4333 150.072 70.0667 151.405 69.8L151.505 69.7C153.572 69.2333 155.638 69 157.705 69C160.105 69 162.505 69.3 164.905 70C167.205 70.6 169.505 71.4 171.705 72.6C172.905 73.2 174.005 73.8667 175.005 74.6C175.805 75.1 176.305 75.4 176.705 75.8C178.505 77.2 179.505 84.6 179.505 96.1C179.505 97.7 179.405 99.5 179.405 101.7C179.205 107 179.905 113.7 180.405 119C180.805 123.2 181.105 126.7 180.805 127.3C180.705 127.5 180.405 128 178.405 128.3C178.272 128.367 178.072 128.4 177.805 128.4Z" fill="white"/>
<path fill-rule="evenodd" clip-rule="evenodd" d="M165.006 69.6998C167.606 70.3998 169.906 71.2998 171.806 72.3998C173.073 73.0664 174.206 73.7331 175.206 74.3998C175.806 74.7998 176.373 75.1998 176.906 75.5998C179.106 77.2998 179.806 86.3998 179.706 96.0998C179.706 97.9998 179.706 99.8998 179.606 101.7C179.306 111.4 181.706 126 181.006 127.4C180.806 127.9 179.906 128.3 178.406 128.6C178.273 128.6 178.073 128.6 177.806 128.6C172.006 128.6 139.006 121.1 139.006 119.6C139.706 115.4 142.906 106.8 143.906 101C144.039 100.333 144.106 99.6665 144.106 98.9998C144.306 96.8998 143.906 93.5998 143.606 89.8998C142.906 82.0998 142.306 72.6998 146.606 70.9998C146.939 70.8665 147.239 70.7665 147.506 70.6998C148.839 70.1665 150.106 69.7665 151.306 69.4998C153.506 68.9998 155.706 68.7998 157.706 68.7998C160.306 68.7998 162.806 69.0998 165.006 69.6998ZM151.806 69.8998V69.9998H151.406C150.139 70.2665 148.906 70.6331 147.706 71.0998C147.506 71.1665 147.306 71.2664 147.106 71.3998L146.806 71.4998C142.606 73.0998 143.606 83.5998 144.106 89.8998L144.206 91.0998C144.506 94.2998 144.706 97.0998 144.606 98.9998C144.606 99.7998 144.506 100.5 144.406 101.1C143.806 104.3 142.606 108.3 141.606 111.9C140.706 114.8 139.906 117.6 139.506 119.4C141.906 121.2 172.206 128.1 177.806 128.1C178.073 128.1 178.239 128.1 178.306 128.1C180.306 127.7 180.606 127.2 180.606 127.2C180.806 126.7 180.506 122.8 180.106 119.1C179.606 113.7 179.006 107 179.106 101.7C179.206 99.4998 179.206 97.6998 179.206 96.0998C179.306 84.6998 178.306 77.2998 176.606 75.9998C176.106 75.5998 175.606 75.2998 174.906 74.7998C173.839 74.0665 172.739 73.3998 171.606 72.7998C169.406 71.6998 167.206 70.7998 164.906 70.1998C162.506 69.5998 160.106 69.2998 157.706 69.2998C155.773 69.2998 153.806 69.4998 151.806 69.8998Z" fill="black"/>
<path d="M155.607 70.6999C155.473 70.6999 155.307 70.6999 155.107 70.6999C155.007 70.6999 155.007 70.5999 154.907 70.4999C154.807 70.1999 155.107 69.3999 155.307 68.9999V64.8999L160.207 62.8999V68.7999C159.707 69.0999 157.407 70.6999 155.607 70.6999Z" fill="white"/>
<path fill-rule="evenodd" clip-rule="evenodd" d="M160.407 68.9C160.407 68.9 157.807 71 155.607 71C155.473 71 155.307 70.9667 155.107 70.9C154.107 70.7 155.107 68.9 155.107 68.9V64.7L160.407 62.5V68.9ZM155.607 65V69L155.507 69.1C155.207 69.7 155.107 70.3 155.207 70.4C155.34 70.4667 155.473 70.5 155.607 70.5C157.307 70.5 159.307 69.1 159.907 68.6V63.2L155.607 65Z" fill="black"/>
<path d="M155.807 66.0998C153.807 66.0998 151.907 64.8998 151.807 63.3998C151.407 60.1998 152.107 56.3998 152.307 55.5998L160.607 54.2998C161.007 55.1998 162.607 59.6998 160.007 63.5998C159.007 65.2998 157.507 66.0998 155.807 66.0998Z" fill="white"/>
<path fill-rule="evenodd" clip-rule="evenodd" d="M160.307 63.8C159.007 65.7 157.407 66.4 155.807 66.4C153.607 66.4 151.707 65 151.507 63.5C151.107 59.7 152.107 55.4 152.107 55.4L160.807 54C160.807 54 163.207 59.2 160.307 63.8ZM152.507 55.8C152.307 56.9 151.707 60.4 152.007 63.4C152.107 64.6 153.807 65.9 155.807 65.9C157.407 65.9 158.807 65.1 159.807 63.5C162.207 59.9 160.907 55.8 160.507 54.5L152.507 55.8Z" fill="black"/>
<path d="M182.706 130C181.806 130.6 157.206 126.8 157.206 126.8C155.506 121.2 150.106 98.1999 150.306 95.8999C151.206 81.4999 164.506 69.8999 164.506 69.8999C169.806 69.6999 176.406 75.6999 176.406 75.6999C174.806 72.5999 168.106 72.7999 167.006 74.4999C164.806 77.8999 165.406 88.3999 167.506 92.7999C173.406 105.5 179.206 106.2 179.206 106.2L182.706 130Z" fill="#7977C6"/>
<path d="M153.007 101.5C153.707 103.4 143.307 123.3 143.307 123.3C143.307 123.3 136.007 121.9 135.807 121.8C135.807 121.8 138.907 113.5 141.207 107.6C141.673 106.466 142.107 105.366 142.507 104.3V104.2C142.907 103.1 143.207 102 143.407 101.2C143.607 100.3 143.707 99.4997 143.707 99.0997C143.807 96.9997 142.007 93.0997 141.907 89.3997C141.707 82.8997 144.107 71.8997 146.207 71.0997C146.407 71.033 146.607 70.9664 146.807 70.8997C146.873 70.833 146.973 70.7997 147.107 70.7997C148.373 70.333 149.607 69.9664 150.807 69.6997C150.873 69.6997 150.907 69.6997 150.907 69.6997C150.907 69.6997 148.107 89.0997 153.007 101.5Z" fill="#7977C6"/>
<path d="M150.507 53.6999C149.907 50.5999 155.207 51.1998 157.007 51.3998C158.207 51.4998 162.507 52.2999 162.707 54.1999C163.807 56.0999 163.907 58.7999 163.107 60.7999C163.107 61.2999 162.907 61.6998 162.407 62.0998C161.607 62.4998 160.607 62.1998 160.207 61.3998C159.507 60.2998 159.907 58.5999 159.807 57.2999C159.807 57.0999 159.707 56.1998 159.707 55.3998C159.007 55.0998 158.407 54.8998 157.407 55.0998C156.307 55.2998 155.307 55.5999 154.207 55.7999C152.507 55.9999 149.307 55.5999 150.507 53.6999Z" fill="black"/>
<path fill-rule="evenodd" clip-rule="evenodd" d="M159.007 96.7999C160.707 97.2999 161.707 99.1999 161.207 101C160.607 102.7 158.807 103.7 157.007 103.2C155.207 102.6 154.207 100.8 154.807 98.9999C155.307 97.1999 157.207 96.1999 159.007 96.7999ZM157.307 102C158.507 102.4 159.707 101.8 160.107 100.6C160.407 99.4999 159.807 98.1999 158.607 97.8999C157.507 97.4999 156.307 98.1999 155.907 99.2999C155.607 100.5 156.207 101.7 157.307 102Z" fill="black"/>
<path d="M140.908 121.2L147.608 99.5997C148.008 98.1997 149.608 97.3997 151.008 97.7997L165.008 102.1C166.408 102.6 167.208 104.1 166.808 105.5L160.108 127.2C159.708 128.6 158.108 129.4 156.708 128.9L142.708 124.6C141.308 124.2 140.508 122.7 140.908 121.2Z" fill="#AAB6C2"/>
<path d="M177.705 123.6C177.505 123.6 177.305 123.6 177.105 123.6L176.105 123.5C166.405 122.3 149.705 115.1 148.105 114.3V113.7L147.705 114.1C147.305 114.6 146.705 114.8 146.005 114.8C145.805 114.8 145.572 114.766 145.305 114.7C144.605 114.6 142.805 114.1 142.705 113.1C142.705 112.8 142.805 112.6 143.105 112.6L143.405 112.5L143.205 112.2C143.005 111.8 143.038 111.466 143.305 111.2L143.405 111.1L143.605 110.9L143.405 110.7C143.105 110.4 143.205 110.1 143.305 110C143.438 109.733 143.672 109.566 144.005 109.5H144.205V109.3C144.205 109.233 144.238 109.166 144.305 109.1C144.372 108.766 144.572 108.6 144.905 108.6C145.505 108.6 146.205 109 146.705 109.3L147.105 109.5V109C147.005 108.9 147.005 108.7 146.805 108.5C146.405 108 145.805 107.9 145.305 107.8C145.105 107.7 145.005 107.5 145.005 107.4C145.005 107.2 145.105 107 145.305 107C145.572 106.933 145.805 106.9 146.005 106.9C146.672 106.9 147.238 107.1 147.705 107.5C148.205 107.9 148.805 109.3 149.205 110.3V110.5H153.505C159.005 110.7 167.305 110.8 171.705 111C172.238 111 172.738 111 173.205 111C173.605 111.066 173.938 111.1 174.205 111.1C174.405 111.1 174.605 111.1 174.805 111.1H174.905H175.005L175.105 111C175.205 111 175.305 110.9 175.405 110.7C176.005 109.2 174.905 101.6 173.305 98.6997C172.405 97.0997 171.505 95.4997 170.805 94.4997C169.005 91.3997 168.205 87.8997 168.605 84.4997C169.005 81.6997 170.105 79.0997 171.805 76.8997C172.705 75.7997 174.005 75.1997 175.305 75.1997C176.905 75.1997 178.405 75.9997 179.205 77.2997C182.705 82.5997 184.405 85.2997 188.005 94.0997V94.1997C190.905 101.1 189.705 112.1 185.305 118.7C183.805 120.9 181.205 123.6 177.705 123.6Z" fill="white"/>
<path fill-rule="evenodd" clip-rule="evenodd" d="M179.406 77.0999C182.906 82.3999 184.606 85.1999 188.206 93.9999C188.273 93.9999 188.306 94.0332 188.306 94.0999C192.806 104.9 187.206 123.8 177.706 123.8C177.506 123.8 177.306 123.8 177.106 123.8C176.773 123.8 176.439 123.767 176.106 123.7C165.806 122.5 147.906 114.5 147.906 114.5C147.906 114.433 147.906 114.367 147.906 114.3C147.406 114.8 146.706 115.1 146.006 115.1C145.739 115.1 145.506 115.067 145.306 115C144.406 114.8 142.506 114.3 142.506 113.1C142.406 112.7 142.706 112.4 143.006 112.3C142.806 111.9 142.706 111.4 143.106 111C143.106 110.933 143.139 110.9 143.206 110.9C143.006 110.6 142.906 110.2 143.106 109.8C143.306 109.5 143.606 109.4 144.006 109.3C144.006 109.167 144.039 109.067 144.106 109C144.206 108.5 144.506 108.4 144.906 108.4C145.506 108.4 146.206 108.7 146.806 109.1C146.806 108.9 146.739 108.733 146.606 108.6C146.306 108.2 145.706 108.1 145.206 108C144.606 107.9 144.606 106.9 145.206 106.8C145.473 106.733 145.739 106.7 146.006 106.7C146.706 106.7 147.306 106.8 147.806 107.3C148.406 107.8 149.106 109.3 149.406 110.2C154.006 110.3 166.006 110.5 171.706 110.7C172.306 110.767 172.806 110.8 173.206 110.8C173.539 110.867 173.873 110.9 174.206 110.9C174.406 110.9 174.606 110.867 174.806 110.8C174.873 110.8 174.906 110.8 174.906 110.8C174.906 110.8 174.939 110.8 175.006 110.8C176.006 110.6 174.806 102.1 173.106 98.7999C172.306 97.2999 171.406 95.8999 170.606 94.5999C168.806 91.5999 167.906 87.9999 168.406 84.4999C168.906 81.0999 170.206 78.5999 171.606 76.6999C172.606 75.4999 174.006 74.8999 175.306 74.8999C176.906 74.8999 178.506 75.6999 179.406 77.0999ZM172.006 76.9999C170.306 79.1999 169.306 81.6999 168.906 84.5999C168.406 87.7999 169.206 91.2999 171.106 94.3999C172.006 95.7999 172.806 97.2999 173.506 98.5999C175.206 101.6 176.306 109.2 175.606 110.8C175.506 111.1 175.306 111.2 175.206 111.3H175.106H174.906C174.906 111.3 174.873 111.3 174.806 111.3C174.606 111.367 174.406 111.4 174.206 111.4C173.873 111.4 173.539 111.367 173.206 111.3H173.106C172.706 111.3 172.239 111.267 171.706 111.2C167.306 111.1 159.006 110.9 153.506 110.8C151.906 110.8 150.406 110.7 149.406 110.7H149.006L148.906 110.4C148.606 109.4 148.006 108.1 147.506 107.7C147.106 107.367 146.606 107.2 146.006 107.2C145.806 107.2 145.573 107.2 145.306 107.2C145.306 107.3 145.306 107.4 145.306 107.4V107.5C145.906 107.6 146.606 107.8 147.006 108.3C147.206 108.6 147.306 108.8 147.306 109L147.406 110L146.606 109.5C146.306 109.3 145.506 108.9 144.906 108.9C144.706 108.9 144.606 108.9 144.506 109.1C144.506 109.167 144.506 109.233 144.506 109.3V109.7L144.106 109.8C143.706 109.8 143.606 110 143.506 110.1C143.506 110.2 143.406 110.3 143.606 110.6L143.906 110.9L143.606 111.2C143.539 111.267 143.506 111.3 143.506 111.3C143.406 111.5 143.206 111.7 143.506 112.1L143.706 112.6L143.206 112.8C143.006 112.8 143.006 112.9 143.006 113.1C143.006 113.7 143.906 114.2 145.406 114.5C145.606 114.567 145.806 114.6 146.006 114.6C146.406 114.6 147.006 114.5 147.506 114L148.306 113.1L148.406 114.2C150.606 115.2 166.606 122.1 176.206 123.2C176.539 123.267 176.839 123.3 177.106 123.3C177.306 123.3 177.506 123.3 177.706 123.3C181.106 123.3 183.606 120.7 185.106 118.5C189.406 112 190.706 101.1 187.806 94.2999V94.1999C187.806 94.1999 187.773 94.1666 187.706 94.0999C184.206 85.4999 182.506 82.6999 179.006 77.3999C178.206 76.1999 176.806 75.3999 175.306 75.3999C174.006 75.3999 172.806 75.9999 172.006 76.9999Z" fill="black"/>
<path d="M172.109 98.1998C171.642 98.1998 171.142 98.1665 170.609 98.0998C164.509 86.7998 163.609 78.6998 168.009 73.8998C168.742 73.1664 169.842 72.7998 171.309 72.7998C174.509 72.7998 178.309 74.5998 179.809 75.7998C185.009 79.8998 187.509 88.6998 188.109 90.7998C183.309 95.5998 177.709 98.1998 172.109 98.1998Z" fill="white"/>
<path fill-rule="evenodd" clip-rule="evenodd" d="M180.008 75.6C185.408 79.9 188.008 89.4 188.308 90.9C183.708 95.5 178.008 98.4 172.108 98.4C171.574 98.4 171.041 98.4 170.508 98.4C166.308 90.8 162.008 80.1 167.908 73.8C168.708 72.9 169.908 72.5 171.308 72.5C174.408 72.5 178.308 74.3 180.008 75.6ZM168.208 74.1C163.908 78.8 164.708 86.8 170.808 97.9C171.274 97.9 171.708 97.9 172.108 97.9C177.608 97.9 183.108 95.4 187.808 90.7C187.208 88.4 184.608 79.9 179.708 76C178.208 74.8 174.408 73 171.308 73C169.908 73 168.874 73.3667 168.208 74.1Z" fill="black"/>
<path d="M165.407 51.0001C165.007 51.0001 164.707 50.9001 164.707 50.9001H164.307L164.507 50.6001C165.707 48.8001 164.907 45.3001 164.007 42.6001C158.207 38.7001 154.807 32.2001 154.807 25.2001C154.807 13.6001 164.207 4.1001 175.807 4.1001C187.507 4.1001 196.907 13.6001 196.907 25.2001C196.907 36.8001 187.507 46.3001 175.807 46.3001C175.473 46.3001 175.14 46.2668 174.807 46.2001H174.607C171.107 50.5001 167.007 51.0001 165.407 51.0001Z" fill="white"/>
<path fill-rule="evenodd" clip-rule="evenodd" d="M197.206 25.1999C197.206 36.9999 187.606 46.4999 175.806 46.4999C175.473 46.4999 175.106 46.4999 174.706 46.4999C171.106 50.7999 167.106 51.1999 165.406 51.1999C165.006 51.1999 164.706 51.1999 164.606 51.1999L163.906 51.0999L164.306 50.3999C165.106 49.0999 165.006 46.3999 163.806 42.7999C158.006 38.7999 154.506 32.1999 154.506 25.1999C154.506 13.3999 164.106 3.8999 175.806 3.8999C187.606 3.8999 197.206 13.3999 197.206 25.1999ZM155.006 25.1999C155.006 32.3999 158.706 38.6999 164.206 42.4999C165.106 45.1999 165.906 48.7999 164.706 50.6999C164.706 50.6999 165.006 50.6999 165.406 50.6999C167.006 50.6999 171.006 50.2999 174.506 45.9999C174.973 45.9999 175.406 45.9999 175.806 45.9999C187.306 45.9999 196.706 36.6999 196.706 25.1999C196.706 13.6999 187.306 4.3999 175.806 4.3999C164.306 4.3999 155.006 13.6999 155.006 25.1999Z" fill="black"/>
<path fill-rule="evenodd" clip-rule="evenodd" d="M175.105 39.6998V36.7998C173.639 36.5998 172.472 36.2665 171.605 35.7998C170.672 35.3331 169.872 34.5998 169.205 33.5998C168.605 32.5331 168.239 31.2665 168.105 29.7998L171.005 29.2998C171.205 30.8331 171.605 31.9665 172.205 32.6998C173.005 33.6998 173.972 34.2664 175.105 34.3998V25.1998C173.905 24.9998 172.672 24.5664 171.405 23.8998C170.539 23.3664 169.839 22.6331 169.305 21.6998C168.839 20.8331 168.605 19.8331 168.605 18.6998C168.605 16.6331 169.305 14.9665 170.705 13.6998C171.705 12.8331 173.139 12.2998 175.005 12.0998V10.7998H176.705V12.0998C178.372 12.2998 179.705 12.7998 180.705 13.5998C181.972 14.6665 182.739 16.0998 183.005 17.8998L180.005 18.2998C179.872 17.1665 179.539 16.2998 179.005 15.6998C178.405 15.0998 177.639 14.7331 176.705 14.5998L176.805 22.7998C178.205 23.1998 179.139 23.4998 179.605 23.6998C180.539 24.0998 181.272 24.5665 181.805 25.0998C182.405 25.6331 182.839 26.2998 183.105 27.0998C183.439 27.8998 183.605 28.7331 183.605 29.5998C183.605 31.5998 182.972 33.2665 181.705 34.5998C180.439 35.9331 178.805 36.6331 176.805 36.6998V39.6998H175.105ZM175.005 14.4998C173.939 14.6998 173.072 15.1664 172.405 15.8998C171.739 16.6331 171.405 17.4664 171.405 18.3998C171.405 19.3998 171.705 20.2331 172.305 20.8998C172.839 21.5664 173.772 22.0998 175.105 22.4998L175.005 14.4998ZM176.705 34.2998C177.772 34.1665 178.672 33.6665 179.405 32.7998C180.139 31.9998 180.505 30.9998 180.505 29.7998C180.505 28.7331 180.239 27.8998 179.705 27.2998C179.239 26.6331 178.239 26.0665 176.705 25.5998V34.2998Z" fill="black"/>
<path d="M38.0055 153C39.6055 153 41.1055 152.4 42.4055 151.5C42.5055 154.3 42.3055 157 41.8055 159.7C40.0055 162.6 35.1055 167.7 35.5055 167.7C36.8055 167.6 38.1055 167.2 39.4055 166.8C38.5388 168.533 37.5388 170.167 36.4055 171.7C34.0055 174.8 30.7055 177.3 29.4055 181.2C29.4055 181.267 29.3721 181.3 29.3055 181.3C29.2055 181.5 29.0055 181.7 28.8055 181.5C22.5055 175.5 21.3055 166.4 20.4055 158.1C20.3388 157.7 20.3055 157.3 20.3055 156.9C22.0055 158.7 23.9055 160.3 26.1055 161.5C26.4055 161.7 22.1055 154.8 20.1055 151.7C20.1055 149.7 20.4055 147.7 21.1055 145.8C22.6055 141.8 25.2055 138.1 27.6055 134.7C27.7388 134.567 27.8721 134.433 28.0055 134.3C28.6055 136 29.5055 137.7 30.7055 139.2C30.9055 139.5 30.2055 134.2 29.8055 131.8C30.4721 131 31.1055 130.233 31.7055 129.5C32.6055 128.5 33.6055 126.8 35.1055 127.1C36.6055 127.3 40.0055 133.3 40.4055 135C40.6055 135.733 40.7721 136.5 40.9055 137.3C40.9721 137.633 41.0388 137.933 41.1055 138.2C41.6055 141.3 42.0055 144.4 42.2055 147.4C42.1388 147.6 42.0388 147.767 41.9055 147.9C40.6055 149.6 37.7055 153 38.0055 153Z" fill="black"/>
<path d="M32.6064 211.5C30.2064 200.4 29.0064 190.6 28.8064 181.6C28.7397 181.467 28.7064 181.333 28.7064 181.2C28.7064 180.133 28.7397 179.067 28.8064 178C28.8064 176.333 28.8397 174.7 28.9064 173.1C28.9064 173.033 28.9397 172.967 29.0064 172.9C29.2064 168.5 29.6064 164.1 30.0064 159.7C30.0064 159.7 29.973 159.667 29.9064 159.6C28.4064 157.8 27.2064 155.8 26.4064 153.6C26.3397 153.4 26.373 153.2 26.5064 153C26.6064 152.9 26.8064 152.7 27.0064 152.7C27.2064 152.7 27.4064 152.9 27.5064 153.1C28.173 154.833 29.073 156.467 30.2064 158C30.3397 156.867 30.473 155.767 30.6064 154.7C30.5397 154.633 30.473 154.567 30.4064 154.5C28.4064 151.8 26.9064 148.8 25.9064 145.7C25.8397 145.5 25.873 145.3 26.0064 145.1C26.1064 145 26.3064 144.9 26.5064 144.9C26.8064 144.9 27.0064 145 27.0064 145.3C27.9064 148 29.2064 150.6 30.8064 153C31.5064 146.9 32.5064 140.9 33.7064 135.1C33.7064 134.8 34.0064 134.6 34.3064 134.6C34.5064 134.6 34.6064 134.7 34.7064 134.9C34.8397 135.033 34.9064 135.167 34.9064 135.3C34.0064 139.6 33.2064 144.2 32.6064 148.9C35.4064 148.3 37.6064 146.3 39.4064 144.7C39.5397 144.633 39.673 144.6 39.8064 144.6C40.0064 144.6 40.2064 144.7 40.3064 145C40.4064 145.2 40.4064 145.5 40.2064 145.7C37.8064 147.8 35.4064 149.7 32.4064 150.2C31.3064 157.6 30.6064 165.1 30.2064 172.5C31.2064 171.7 32.0397 170.8 32.7064 169.8C32.8397 169.6 33.0064 169.5 33.2064 169.5C33.4064 169.5 33.6064 169.6 33.7064 169.9C33.9064 170.1 33.8064 170.3 33.7064 170.5C32.8397 171.833 31.7397 172.967 30.4064 173.9C30.3397 173.967 30.2397 174 30.1064 174C30.1064 175.133 30.073 176.267 30.0064 177.4C29.8064 187.6 31.0064 198.4 33.8064 211.2V211.5L32.7064 211.8L32.6064 211.5Z" fill="white"/>
<path fill-rule="evenodd" clip-rule="evenodd" d="M34.9063 134.7C35.1063 134.9 35.173 135.133 35.1063 135.4C34.3063 139.6 33.5063 144 32.9063 148.6C35.4063 147.9 37.5063 146 39.2063 144.5C39.4063 144.367 39.6063 144.3 39.8063 144.3C40.1063 144.3 40.4063 144.5 40.6063 144.9C40.7063 145.2 40.6063 145.6 40.3063 145.8C38.0063 147.9 35.6063 149.8 32.6063 150.4C31.6063 157.6 30.9063 164.8 30.5063 172C31.3063 171.267 31.973 170.467 32.5063 169.6C32.7063 169.4 32.9063 169.3 33.2063 169.3C33.5063 169.3 33.8063 169.4 34.0063 169.7C34.1063 170 34.1063 170.4 33.9063 170.6C33.0396 172 31.9063 173.167 30.5063 174.1C30.4396 174.167 30.4063 174.2 30.4063 174.2C30.3396 175.267 30.3063 176.333 30.3063 177.4C30.1063 187.6 31.3063 198.3 34.0063 211.2L34.1063 211.7L33.7063 211.8H33.4063C33.273 211.867 33.1396 211.9 33.0063 211.9L32.5063 212.1L32.4063 211.6C30.0063 200.5 28.7063 190.7 28.5063 181.7C28.4396 181.567 28.4063 181.4 28.4063 181.2C28.473 180.133 28.5063 179.067 28.5063 178C28.573 176.333 28.6396 174.7 28.7063 173.1C28.7063 173.033 28.7063 172.967 28.7063 172.9C29.0063 168.5 29.3063 164.1 29.8063 159.8C29.8063 159.8 29.773 159.8 29.7063 159.8C28.2063 158 27.0063 155.9 26.2063 153.7C26.1063 153.4 26.1063 153.1 26.3063 152.9C26.4063 152.6 26.7063 152.5 27.0063 152.5C27.3063 152.5 27.6063 152.7 27.8063 153C28.3396 154.533 29.073 155.967 30.0063 157.3C30.073 156.5 30.173 155.667 30.3063 154.8C30.2396 154.8 30.2063 154.767 30.2063 154.7C28.2063 151.9 26.7063 148.9 25.7063 145.8C25.6063 145.5 25.6063 145.2 25.8063 145C25.9063 144.7 26.2063 144.6 26.5063 144.6C26.9063 144.6 27.2063 144.8 27.3063 145.2C28.1063 147.667 29.2063 150.033 30.6063 152.3C31.4063 146.4 32.3063 140.7 33.4063 135.1C33.5063 134.7 33.8063 134.4 34.3063 134.4C34.5063 134.4 34.8063 134.5 34.9063 134.7ZM33.9063 135.2C32.7063 141.333 31.7063 147.5 30.9063 153.7C29.1063 151.1 27.7396 148.3 26.8063 145.3C26.7063 145.2 26.6063 145.1 26.5063 145.1C26.3063 145.1 26.0063 145.3 26.1063 145.6C27.173 148.733 28.673 151.667 30.6063 154.4C30.673 154.467 30.7396 154.5 30.8063 154.5C30.673 155.9 30.5396 157.267 30.4063 158.6C29.073 157 28.0396 155.2 27.3063 153.2C27.2063 153.1 27.1063 153 27.0063 153C26.8063 153 26.5063 153.2 26.6063 153.5C27.473 155.7 28.6396 157.7 30.1063 159.5C30.173 159.5 30.2396 159.533 30.3063 159.6C29.8396 164 29.473 168.467 29.2063 173C29.2063 173 29.2063 173.033 29.2063 173.1C29.1396 174.767 29.073 176.4 29.0063 178C29.0063 179.067 28.973 180.133 28.9063 181.2C28.9063 181.333 28.9396 181.433 29.0063 181.5C29.2063 191.6 30.7063 201.6 32.8063 211.5C33.073 211.433 33.3063 211.367 33.5063 211.3C31.1063 200.1 29.5063 188.8 29.8063 177.4C29.8063 176.2 29.8396 175 29.9063 173.8C29.973 173.8 30.0063 173.8 30.0063 173.8C30.073 173.8 30.1396 173.767 30.2063 173.7C31.5396 172.833 32.6396 171.733 33.5063 170.4C33.7063 170.1 33.4063 169.8 33.2063 169.8C33.1396 169.8 33.0396 169.833 32.9063 169.9C32.1063 171.167 31.1063 172.2 29.9063 173C30.3063 165.267 31.073 157.6 32.2063 150C35.3063 149.5 37.7063 147.5 40.0063 145.5C40.3063 145.2 40.1063 144.8 39.8063 144.8C39.7396 144.8 39.673 144.833 39.6063 144.9C37.4063 146.8 35.2063 148.7 32.3063 149.2C32.973 144.533 33.7396 139.9 34.6063 135.3C34.7063 135 34.5063 134.9 34.3063 134.9C34.1063 134.9 33.9063 135 33.9063 135.2Z" fill="black"/>
<path d="M23.1072 189V188.9H22.9072C21.4072 187.2 19.2072 186.3 17.1072 185.4C16.1072 184.9 15.1072 184.5 14.2072 184C13.0072 183.333 11.8405 182.566 10.7072 181.7C11.6072 181.7 12.7072 181.5 13.8072 181.2L13.9072 181.1V181C14.0072 180.7 14.0072 180.7 11.8072 179.7C10.0072 178.9 7.5072 177.7 6.2072 176.8C5.14054 175.266 4.24054 173.466 3.50721 171.4C3.84054 171.466 4.20721 171.5 4.60721 171.5C5.60721 171.5 6.54054 171.3 7.40721 170.9H7.50721L7.60721 170.7C7.60721 170.5 7.50721 170.4 5.00721 169.2C4.20721 168.8 3.20721 168.3 2.60721 168C2.47387 167.933 2.37387 167.866 2.30721 167.8C1.50721 165 1.00721 162.7 0.607206 160.6C0.540539 160.333 0.507208 160.066 0.507208 159.8C0.440541 159.2 0.373874 158.6 0.307207 158C0.107207 156.6 1.30721 151.1 2.30721 150.5C2.57387 150.366 2.84054 150.3 3.10721 150.3C3.80721 150.3 4.5072 150.7 5.2072 151C5.34054 151.066 5.5072 151.133 5.7072 151.2C6.44054 151.533 7.14054 151.9 7.80721 152.3C8.00721 153.2 9.00721 158.2 9.50721 158.2H9.60721L9.7072 158C10.2405 156.666 10.5405 155.266 10.6072 153.8C13.6072 155.4 16.9072 157.4 19.3072 160C20.4072 161 21.2072 162.3 21.9072 163.8C21.6072 164.8 19.4072 173 19.6072 173.4L19.7072 173.5H19.9072L20.0072 173.4C21.3072 172.1 22.3072 170.6 23.4072 168.5C23.4072 168.633 23.4405 168.733 23.5072 168.8C25.0072 174.9 26.8072 182.4 23.2072 189C23.1405 189 23.1072 189 23.1072 189Z" fill="white"/>
<path fill-rule="evenodd" clip-rule="evenodd" d="M5.80633 151C6.53966 151.333 7.273 151.7 8.00633 152.1C8.40633 154 9.30633 158 9.50633 158C10.0397 156.467 10.3397 154.9 10.4063 153.3C10.5397 153.433 10.673 153.533 10.8063 153.6C13.8063 155.3 17.1063 157.3 19.5063 159.8C20.7063 161 21.5063 162.4 22.1063 163.8C21.3063 166.8 19.7063 173.2 19.8063 173.2C21.4063 171.6 22.5063 169.8 23.5063 167.9C23.573 168.167 23.6397 168.467 23.7063 168.8C25.3063 175.3 27.0063 182.5 23.4063 189.1C23.3397 189.233 23.273 189.3 23.2063 189.3C23.073 189.3 22.973 189.233 22.9063 189.1C22.8397 189.1 22.8063 189.1 22.8063 189.1C20.6063 186.6 17.0063 185.8 14.0063 184.2C12.6063 183.467 11.3063 182.6 10.1063 181.6C11.3063 181.5 12.5063 181.3 13.7063 181C14.0063 180.9 8.30633 178.6 6.00633 177C4.80633 175.2 3.80633 173.2 3.10633 171.1C3.573 171.167 4.073 171.2 4.60633 171.2C5.53966 171.2 6.43966 171.033 7.30633 170.7C7.60633 170.6 4.00633 169 2.50633 168.2C2.373 168.133 2.23966 168.033 2.10633 167.9C1.40633 165.6 0.80633 163.1 0.40633 160.7C0.339663 160.433 0.272996 160.167 0.206329 159.9C0.139662 159.233 0.0729986 158.6 0.00633196 158C-0.093668 156.6 1.00633 150.9 2.20633 150.3C2.473 150.1 2.773 150 3.10633 150C4.10633 150 5.00633 150.7 5.80633 151ZM2.40633 150.7C1.50633 151.2 0.406332 156.4 0.506332 158C0.572999 158.533 0.639662 159.133 0.706329 159.8C0.772996 160.067 0.839663 160.3 0.90633 160.5C1.20633 162.6 1.70633 164.9 2.50633 167.6C2.573 167.667 2.63966 167.7 2.70633 167.7C3.30633 168.1 4.30633 168.5 5.20633 169C7.70633 170.2 7.80633 170.3 7.80633 170.7V171L7.50633 171.2C6.573 171.533 5.60633 171.7 4.60633 171.7C4.33966 171.7 4.073 171.7 3.80633 171.7C4.60633 173.6 5.40633 175.2 6.40633 176.7C7.70633 177.5 10.3063 178.7 11.9063 179.5C14.2063 180.6 14.2063 180.6 14.2063 181V181.3L13.8063 181.4C13.0063 181.7 12.1063 181.8 11.4063 181.9C12.3397 182.633 13.3063 183.267 14.3063 183.8C15.2063 184.3 16.2063 184.7 17.2063 185.1C19.3063 186 21.5063 186.9 23.0063 188.6H23.1063C26.4063 182.3 24.8063 175.1 23.3063 169.2C22.3063 171 21.3063 172.3 20.2063 173.6L20.1063 173.7H19.8063H19.6063L19.4063 173.5C19.3063 173.3 19.2063 173.2 20.1063 169.5C20.6063 167.5 21.2063 165.3 21.6063 163.9C20.9063 162.4 20.1063 161.1 19.2063 160.1C16.8063 157.7 13.7063 155.8 10.8063 154.2C10.673 155.533 10.373 156.833 9.90633 158.1L9.80633 158.5H9.50633C9.00633 158.5 9.00633 158.4 8.30633 155.9C8.10633 154.7 7.80633 153.4 7.60633 152.4C6.93966 152.067 6.273 151.767 5.60633 151.5C5.40633 151.433 5.23966 151.333 5.10633 151.2C4.50633 150.9 3.70633 150.5 3.10633 150.5C2.83966 150.5 2.60633 150.567 2.40633 150.7Z" fill="black"/>
<path d="M28.0075 213.1C26.8075 203.9 24.9075 194.9 21.4075 186.3C21.0075 185.433 20.6075 184.566 20.2075 183.7C20.1408 183.766 20.0408 183.766 19.9075 183.7C18.5075 183.5 17.2408 183.033 16.1075 182.3C15.8075 182.1 16.2075 181.6 16.5075 181.8C17.5075 182.466 18.6408 182.9 19.9075 183.1C17.3742 177.433 14.5408 171.9 11.4075 166.5C11.3408 166.5 11.3075 166.5 11.3075 166.5C8.50749 167.2 5.90749 166.5 3.40749 165.7C3.00749 165.6 3.20749 165 3.60749 165.2C6.00749 165.9 8.40749 166.6 11.1075 166C9.17415 162.733 7.14082 159.5 5.00749 156.3C4.80749 156 5.40749 155.7 5.60749 156C8.40749 160.2 11.0408 164.5 13.5075 168.9C14.2408 166.366 14.6075 163.833 14.6075 161.3C14.6075 160.9 15.2075 160.9 15.2075 161.3C15.2742 163.966 14.8742 166.633 14.0075 169.3C13.9408 169.433 13.8742 169.5 13.8075 169.5C14.3408 170.5 14.8742 171.466 15.4075 172.4C16.0075 170.733 16.3408 169.066 16.4075 167.4C16.4075 167 17.1075 167 17.1075 167.4C17.0408 169.266 16.6075 171.133 15.8075 173C15.8075 173.066 15.7742 173.1 15.7075 173.1C17.4408 176.3 19.0408 179.533 20.5075 182.8C20.5742 182.866 20.6075 182.9 20.6075 182.9C21.1408 184.1 21.6742 185.333 22.2075 186.6C22.5408 187.4 22.8742 188.2 23.2075 189C23.2075 189.066 23.2075 189.133 23.2075 189.2C25.9075 196.8 27.6075 204.8 28.6075 212.9C28.4075 212.966 28.2075 213.033 28.0075 213.1Z" fill="black"/>
<path d="M5.60703 162.6C3.74037 162.2 2.00703 161.567 0.407032 160.7C0.340365 160.433 0.273698 160.167 0.207031 159.9C1.8737 160.9 3.74037 161.6 5.80703 162C6.20703 162.1 6.00703 162.7 5.60703 162.6Z" fill="black"/>
<path d="M66.3066 167.4C66.3066 170 60.3066 171.2 58.4066 171.9C54.2066 173.5 50.1066 175.1 47.0066 178.4C43.4066 182.4 40.2066 187 37.1066 191.4C36.9066 191.7 36.6066 191.8 36.3066 191.7C36.3066 191.7 35.9066 191 35.5066 189.8C34.4066 187.1 32.7066 182.2 33.1066 179.4C33.4066 177.5 34.1066 175.6 35.0066 173.9C35.2066 174.8 35.6066 175.6 36.2066 176.2C36.4066 176.4 36.7066 172.7 36.9066 171C37.1733 170.666 37.4733 170.366 37.8066 170.1C38.4733 169.366 39.2066 168.666 40.0066 168C40.1399 167.866 40.3066 167.733 40.5066 167.6C41.1066 167.133 41.7733 166.7 42.5066 166.3C42.7066 166.166 42.8733 166.066 43.0066 166C43.6733 165.6 44.3399 165.266 45.0066 165C45.3066 166.2 45.6066 167.5 46.2066 168.7C46.3066 168.9 46.6066 165.8 46.6066 164.4C47.2733 164.133 47.9399 163.9 48.6066 163.7C48.8066 164.5 49.0066 165.3 49.4066 166.1C49.5066 166.3 50.4066 164.1 50.7066 163.2C52.8066 162.8 55.0066 162.6 57.1066 162.7C57.3066 162.7 57.4733 162.7 57.6066 162.7C58.2066 162.766 58.7733 162.833 59.3066 162.9C61.4066 163.2 66.2066 164.5 66.3066 167.3C66.3066 167.366 66.3066 167.4 66.3066 167.4Z" fill="#AAB6C2"/>
<path d="M66.3073 167.4C66.3073 170 60.3073 171.2 58.4073 171.9C54.2073 173.5 50.1073 175.1 47.0073 178.4C43.4073 182.4 40.2073 187 37.1073 191.4C37.0406 191.467 36.9406 191.533 36.8073 191.6C36.1073 193.4 35.9073 195.3 35.8073 197.2C35.674 200.933 35.674 204.667 35.8073 208.4C35.8073 209.267 35.8406 210.133 35.9073 211C35.6406 211.067 35.4073 211.1 35.2073 211.1C35.1406 209.767 35.074 208.4 35.0073 207C34.9073 202.9 34.7073 198.5 35.4073 194.4C35.5073 193.2 35.9073 192 36.4073 191C36.7073 188.4 38.3073 179.2 43.4073 174.2C49.2073 168.4 58.4073 168.3 66.3073 167.4Z" fill="black"/>
<path d="M42.6079 171.8C42.2745 170 42.2412 168.167 42.5079 166.3C42.7079 166.167 42.8745 166.067 43.0079 166C42.7412 167.933 42.7745 169.833 43.1079 171.7C43.2079 172.1 42.7079 172.2 42.6079 171.8Z" fill="black"/>
<path d="M40.7078 172.9C40.3078 171.3 40.0745 169.667 40.0078 168C40.1411 167.867 40.3078 167.733 40.5078 167.6C40.5078 169.333 40.7411 171.067 41.2078 172.8C41.3078 173.1 40.8078 173.2 40.7078 172.9Z" fill="black"/>
<path d="M49.7059 207.2C49.7059 208.6 49.5725 209.933 49.3059 211.2C48.3059 215.7 45.7059 219.7 42.0059 222.3H20.1059C16.5059 219.7 13.8059 215.7 12.9059 211.2C12.6392 209.933 12.5059 208.6 12.5059 207.2C12.5059 205.8 12.6392 204.467 12.9059 203.2C13.1725 202.067 13.5059 201 13.9059 200H48.2059C48.6725 201 49.0059 202.067 49.2059 203.2C49.5392 204.467 49.7059 205.8 49.7059 207.2Z" fill="#7977C6"/>
<path d="M49.7055 207.2C49.7055 208.6 49.5721 209.933 49.3055 211.2C48.3055 215.7 45.7055 219.7 42.0055 222.3H20.1055C48.7055 223.7 48.2055 200 48.2055 200C48.6721 201 49.0055 202.067 49.2055 203.2C49.5388 204.467 49.7055 205.8 49.7055 207.2Z" fill="black"/>
</svg>
