<svg width="207" height="212" viewBox="0 0 207 212" fill="none" xmlns="http://www.w3.org/2000/svg">
<path d="M34.4604 94.5875C88.1922 70.9655 60.8269 -9.66831 130.738 13.555C200.55 36.7783 204.245 78.5405 206.742 110.335C209.139 142.13 196.155 216.086 110.963 210.206C44.8472 205.721 17.2821 179.706 9.09253 159.473C5.09759 149.705 -2.09325 132.064 7.69434 113.525C12.4883 104.256 24.8725 98.7737 34.4604 94.5875Z" fill="#E6EBF0"/>
<path d="M34.4604 94.5875C88.1922 70.9655 60.8269 -9.66831 130.738 13.555C200.55 36.7783 204.245 78.5405 206.742 110.335C209.139 142.13 196.155 216.086 110.963 210.206C44.8472 205.721 17.2821 179.706 9.09253 159.473C5.09759 149.705 -2.09325 132.064 7.69434 113.525C12.4883 104.256 24.8725 98.7737 34.4604 94.5875Z" fill="#E6EBF0"/>
<path d="M15.8829 62.2943C24.472 48.0413 48.0421 34.4861 62.4238 33.1903C76.7057 31.8946 62.1242 49.1377 48.7412 65.7827C36.8563 80.7334 25.271 84.1222 17.2811 83.3248C15.2836 83.1255 13.4859 81.8298 12.6869 79.936C11.3886 76.7465 10.5896 70.9656 15.8829 62.2943Z" fill="#E6EBF0"/>
<path d="M34.4604 94.5875C88.1922 70.9655 60.8269 -9.66831 130.738 13.555C200.55 36.7783 204.245 78.5405 206.742 110.335C209.139 142.13 196.155 216.086 110.963 210.206C44.8472 205.721 17.2821 179.706 9.09253 159.473C5.09759 149.705 -2.09325 132.064 7.69434 113.525C12.4883 104.256 24.8725 98.7737 34.4604 94.5875Z" fill="#E6EBF0"/>
<path d="M199.645 212H10.0859V210.604H199.645V212Z" fill="black"/>
<path fill-rule="evenodd" clip-rule="evenodd" d="M51.4376 146.317H33.6602V136.549H51.4376V146.317ZM34.6589 145.32H50.4389V137.646H34.6589V145.32Z" fill="#AAB6C2"/>
<path fill-rule="evenodd" clip-rule="evenodd" d="M39.254 154.988H21.4766V145.32H39.254V154.988ZM22.4753 153.991H38.2553V146.217H22.4753V153.991Z" fill="#AAB6C2"/>
<path fill-rule="evenodd" clip-rule="evenodd" d="M95.3829 62.6931H77.6055V52.9253H95.3829V62.6931ZM78.6042 61.6964H94.3842V53.922H78.6042V61.6964Z" fill="#AAB6C2"/>
<path fill-rule="evenodd" clip-rule="evenodd" d="M126.641 170.139H108.863V160.371H126.641V170.139ZM109.862 169.142H125.642V161.467H109.862V169.142Z" fill="#AAB6C2"/>
<path fill-rule="evenodd" clip-rule="evenodd" d="M109.863 170.139H92.0859V160.371H109.863V170.139ZM93.0847 169.142H108.865V161.467H93.0847V169.142Z" fill="#AAB6C2"/>
<path fill-rule="evenodd" clip-rule="evenodd" d="M118.254 178.81H100.477V169.142H118.254V178.81ZM101.475 177.713H117.255V170.039H101.475V177.713Z" fill="#AAB6C2"/>
<path fill-rule="evenodd" clip-rule="evenodd" d="M112.164 107.047H94.3867V97.3784H112.164V107.047ZM95.3855 105.95H111.165V98.2754H95.3855V105.95Z" fill="#AAB6C2"/>
<path fill-rule="evenodd" clip-rule="evenodd" d="M124.348 115.818H106.57V106.05H124.348V115.818ZM107.569 114.821H123.349V107.147H107.569V114.821Z" fill="#AAB6C2"/>
<path fill-rule="evenodd" clip-rule="evenodd" d="M182.172 74.0558H164.395V64.3877H182.172V74.0558ZM165.393 72.9594H181.173V65.2848H165.393V72.9594Z" fill="#AAB6C2"/>
<path fill-rule="evenodd" clip-rule="evenodd" d="M165.395 74.0558H147.617V64.3877H165.395V74.0558ZM148.616 72.9594H164.396V65.2848H148.616V72.9594Z" fill="#AAB6C2"/>
<path fill-rule="evenodd" clip-rule="evenodd" d="M173.785 82.8268H156.008V73.0591H173.785V82.8268ZM157.007 81.8301H172.787V74.1555H157.007V81.8301Z" fill="#AAB6C2"/>
<path fill-rule="evenodd" clip-rule="evenodd" d="M188.166 125.486C187.168 127.479 185.869 129.174 184.371 130.669L186.369 134.855L180.077 138.642L177.28 134.855C175.283 135.553 173.185 135.951 170.888 135.852L169.39 140.237L162.199 138.543L162.998 133.858C161.001 132.961 159.203 131.665 157.705 130.071L153.51 132.164L149.715 125.785L153.51 123.094C152.811 121.001 152.512 118.907 152.512 116.715L148.117 115.22L149.915 108.043L154.509 108.741C155.508 106.748 156.806 105.053 158.404 103.558L156.307 99.372L162.599 95.5846L165.395 99.2723C167.393 98.6743 169.59 98.2757 171.787 98.3753L173.285 93.8901L180.476 95.6842L179.777 100.269C181.675 101.266 183.472 102.561 184.97 104.156L189.165 102.063L192.96 108.342L189.165 111.133C189.864 113.127 190.164 115.319 190.164 117.512L194.558 119.007L192.761 126.183L188.166 125.486ZM184.271 120.303C186.069 113.226 181.675 105.95 174.584 104.256C167.393 102.462 160.202 106.847 158.404 113.924C156.706 121.1 161.001 128.277 168.192 130.071C175.283 131.765 182.573 127.479 184.271 120.303Z" fill="white"/>
<path fill-rule="evenodd" clip-rule="evenodd" d="M60.7318 53.1244C60.0327 54.5198 59.1338 55.7159 58.0352 56.7126L59.5333 59.7027L55.1389 62.2941L53.1415 59.7027C51.7432 60.1678 50.2784 60.4003 48.747 60.4003L47.6484 63.4902L42.6548 62.1945L43.1541 59.005C41.8558 58.3073 40.5574 57.4102 39.5586 56.3139L36.6624 57.8089L33.9658 53.4234L36.6624 51.43C36.163 50.0346 35.8634 48.5395 35.9632 47.0445L32.8672 45.9481L34.0656 40.9645L37.2616 41.4629C37.994 40.1339 38.8929 38.9379 39.9582 37.8747L38.5599 34.9843L42.9544 32.2932L44.852 34.8846C46.2502 34.4859 47.7483 34.1869 49.3463 34.2866L50.345 31.1968L55.3387 32.3928L54.8393 35.5823C56.2375 36.3132 57.436 37.2103 58.4347 38.2734L61.4309 36.878L64.0276 41.2636L61.4309 43.1573C61.897 44.5527 62.1301 46.0477 62.1301 47.6425L65.2261 48.6392L63.9278 53.6227L60.7318 53.1244ZM58.0352 49.5362C59.2337 44.5527 56.2375 39.5691 51.2438 38.3731C46.2502 37.0774 41.2565 40.1672 40.058 45.0511C38.7597 50.0346 41.8558 55.1178 46.8494 56.3139C51.7432 57.5099 56.8367 54.5198 58.0352 49.5362Z" fill="#AAB6C2"/>
<path fill-rule="evenodd" clip-rule="evenodd" d="M89.2917 34.0878C88.9588 34.8851 88.4595 35.5828 87.7936 36.1808L88.5926 37.8752L86.0958 39.3703L84.9971 37.8752C84.1982 38.141 83.3659 38.274 82.5003 38.274L81.9011 39.9683L79.1047 39.2707L79.4043 37.4765C78.6053 37.0779 77.9062 36.5795 77.307 35.9815L75.6091 36.7789L74.111 34.2871L75.6091 33.1907C75.3428 32.3933 75.2096 31.5295 75.2096 30.5993L73.5117 30.0012L74.2108 27.2105L76.0086 27.5095C76.408 26.7121 76.9074 26.0144 77.5067 25.4164L76.7077 23.8217L79.2045 22.3266L80.3032 23.8217C81.1021 23.4894 81.9344 23.3565 82.8 23.423L83.3992 21.6289L86.2955 22.3266L85.9959 24.1207C86.7949 24.5194 87.494 25.0509 88.0933 25.7154L89.6912 24.918L91.1893 27.4098L89.6912 28.4065C89.9575 29.2703 90.0907 30.1341 90.0907 30.9979L91.8884 31.596L91.1893 34.3868L89.2917 34.0878ZM87.6937 32.0943C88.3929 29.2039 86.695 26.4131 83.8986 25.7154C81.0022 25.0177 78.2058 26.7121 77.5067 29.5029C76.8075 32.3933 78.5054 35.1841 81.3019 35.8818C84.1982 36.5795 86.9946 34.8851 87.6937 32.0943Z" fill="black"/>
<path d="M143.519 95.3852C145.217 95.8836 144.118 97.7773 143.02 97.7773C143.419 98.2756 142.52 99.1727 141.322 99.073C141.821 99.2724 140.822 100.767 138.625 100.07C137.726 99.8704 137.127 99.671 136.728 99.372C132.233 104.057 119.649 111.532 115.455 110.136C110.561 108.442 109.262 108.243 106.067 106.15C105.767 105.95 105.467 105.651 105.168 105.452C104.768 105.053 104.369 104.688 103.969 104.356C103.437 103.758 102.937 103.193 102.471 102.661C102.404 102.595 102.338 102.528 102.271 102.462C100.374 100.07 99.4749 98.5747 99.1753 96.3819C98.7758 94.1891 98.8757 92.6941 98.8757 92.6941C98.8757 92.6941 94.5811 75.8497 98.576 77.5441C102.571 79.2385 107.565 85.3184 111.36 91.3984C111.426 91.3984 111.46 91.3984 111.46 91.3984C111.659 91.7306 111.859 92.0628 112.059 92.3951C112.192 92.5944 112.325 92.7937 112.458 92.9931C114.356 95.9832 115.754 98.3753 116.353 98.5747C117.252 99.073 132.932 95.4849 135.429 95.1858C135.496 95.0529 135.529 94.9865 135.529 94.9865C135.596 94.92 135.662 94.8536 135.729 94.7871C135.862 94.5878 135.995 94.4217 136.128 94.2888C136.528 93.4914 139.324 90.9 139.424 90.8003C140.123 90.3019 140.922 90.4016 141.721 90.7007C142.62 90.9 142.221 92.0961 141.422 92.0961C141.122 92.0961 140.822 92.0961 140.423 92.0961C140.423 92.3619 140.39 92.6276 140.323 92.8934C142.021 92.7938 143.619 93.0928 145.117 93.6908C146.116 94.0895 144.618 95.3852 143.519 95.3852Z" fill="white"/>
<path fill-rule="evenodd" clip-rule="evenodd" d="M116.755 110.535C116.223 110.535 115.757 110.469 115.357 110.336C114.358 110.004 113.493 109.705 112.76 109.439C109.864 108.542 108.466 108.044 105.869 106.349C105.603 106.15 105.336 105.95 105.07 105.751V105.651C104.604 105.253 104.171 104.854 103.772 104.455C103.173 103.924 102.673 103.392 102.274 102.861C102.207 102.794 102.174 102.728 102.174 102.661L102.074 102.562C100.076 100.07 99.2775 98.5748 98.878 96.4817C98.5784 94.4883 98.5784 92.9932 98.5784 92.6942C98.1789 91.1991 95.2825 79.2386 97.3799 77.4446C97.5796 77.2452 97.9791 77.0458 98.6782 77.3449C102.274 78.8399 107.167 84.0228 111.662 91.1991C111.662 91.2656 111.662 91.2988 111.662 91.2988C111.795 91.4981 111.928 91.7307 112.061 91.9965L112.461 92.4948C112.527 92.6277 112.594 92.7607 112.66 92.8935C114.258 95.485 115.856 98.1761 116.456 98.3754C117.055 98.6745 123.946 97.1794 128.44 96.2823C131.537 95.5846 134.233 95.0863 135.232 94.9866C135.298 94.9202 135.365 94.8537 135.432 94.7873C135.432 94.7208 135.465 94.6876 135.531 94.6876C135.531 94.6876 135.565 94.6544 135.631 94.588C135.698 94.4551 135.798 94.3222 135.931 94.1893C136.33 93.2922 139.127 90.7008 139.227 90.6011C140.126 90.0031 141.024 90.2024 141.823 90.4018C142.323 90.6011 142.523 90.9998 142.423 91.4981C142.423 91.8968 142.023 92.3952 141.424 92.2955C141.158 92.2955 140.925 92.2955 140.725 92.2955C140.725 92.4284 140.692 92.5281 140.625 92.5945C142.423 92.5945 144.121 93.0929 145.219 93.4915C145.719 93.6909 145.719 93.9899 145.719 94.1893C145.619 94.6876 144.92 95.186 144.22 95.485C144.62 95.784 144.62 96.2823 144.62 96.4817C144.52 97.0797 144.021 97.7774 143.322 97.9767C143.388 98.1096 143.388 98.2758 143.322 98.4751C143.122 98.8738 142.423 99.2724 141.724 99.2724C141.724 99.3389 141.69 99.4054 141.624 99.4718C141.424 100.169 140.225 100.867 138.528 100.269C137.729 100.07 137.229 99.9702 136.73 99.6712C132.735 103.857 121.949 110.535 116.755 110.535ZM98.079 77.6439C97.8793 77.6439 97.7794 77.7435 97.6795 77.8432C96.0815 79.1389 98.1789 89.0064 99.0777 92.5945V92.6942C99.0777 92.6942 98.9778 94.2889 99.3773 96.382C99.7768 98.3754 100.476 99.8705 102.473 102.263L102.573 102.362C102.573 102.429 102.607 102.495 102.673 102.562C103.073 103.027 103.539 103.558 104.071 104.156C104.471 104.489 104.904 104.854 105.37 105.253L105.47 105.352C105.669 105.552 105.902 105.751 106.169 105.95C108.666 107.645 110.064 108.043 112.86 108.941C113.593 109.206 114.458 109.505 115.457 109.838C119.552 111.233 131.936 104.057 136.53 99.1728L136.63 99.0732L136.83 99.1728C137.229 99.4718 137.829 99.5715 138.727 99.8705C139.826 100.17 140.625 99.9702 141.024 99.5715C141.124 99.3722 141.224 99.2724 141.224 99.2724L139.626 98.5748L141.324 98.7741C142.123 98.8738 142.722 98.4751 142.822 98.1761C142.922 98.0764 142.822 97.9767 142.822 97.9767L142.423 97.5781H142.922C143.521 97.4784 144.121 96.9801 144.121 96.382C144.187 96.0498 143.987 95.784 143.521 95.5847L141.923 95.186H143.521C144.22 95.0863 145.119 94.4883 145.219 94.0896C145.219 94.0896 145.219 93.9899 145.019 93.8903C143.921 93.4916 142.223 92.9932 140.425 93.0929H140.026L140.126 92.7938C140.192 92.5281 140.226 92.2955 140.226 92.0962V91.8968H140.425C140.725 91.7972 141.124 91.7971 141.424 91.7971C141.724 91.8968 141.923 91.5978 142.023 91.3985C142.023 91.2988 142.023 90.9998 141.724 90.9001C140.825 90.7008 140.225 90.6011 139.526 90.9998C139.327 91.0994 136.83 93.5912 136.33 94.2889V94.3886V94.4883C136.197 94.6212 136.097 94.7541 136.031 94.887C135.964 94.9534 135.898 95.0199 135.831 95.0863C135.831 95.0863 135.798 95.0863 135.731 95.0863C135.731 95.1528 135.698 95.2192 135.631 95.2856L135.531 95.3853H135.432C134.533 95.485 131.736 96.083 128.54 96.7807C120.451 98.4751 116.755 99.0731 116.156 98.8738C115.557 98.4751 114.258 96.4817 112.161 93.0929C112.095 93.0265 112.028 92.9267 111.961 92.7938L111.662 92.2955C111.529 92.0297 111.395 91.7972 111.262 91.5978C111.196 91.5314 111.162 91.4981 111.162 91.4981C107.767 86.0162 102.573 79.5376 98.4785 77.7436C98.2787 77.6771 98.1456 77.6439 98.079 77.6439Z" fill="black"/>
<path d="M103.38 105.153C102.182 103.858 100.384 102.462 98.6863 100.967C98.0205 100.436 97.4213 99.904 96.8886 99.3724C96.1895 98.6747 95.5903 97.8773 95.1908 97.2793C94.991 96.947 94.8579 96.6148 94.7913 96.2825C94.6914 95.6845 94.6914 93.6911 94.6914 91.1994C94.6914 84.6211 95.8899 75.7504 98.8861 76.7471C103.98 78.3418 108.873 85.2191 112.968 90.701C113.068 96.1829 110.172 102.063 103.38 105.153Z" fill="white"/>
<path fill-rule="evenodd" clip-rule="evenodd" d="M103.379 105.452L103.279 105.352C102.381 104.455 101.182 103.458 99.8837 102.362C99.4176 101.963 98.9515 101.565 98.4854 101.166C97.8196 100.568 97.2537 100.036 96.7876 99.5712C95.922 98.7074 95.3228 97.9765 94.9898 97.3785C94.7901 97.0462 94.657 96.714 94.5904 96.3818C94.4905 95.6841 94.3906 93.591 94.3906 91.1989C94.4905 85.5176 95.2895 78.2416 97.4867 76.7466C97.9527 76.4143 98.4521 76.3147 98.9848 76.4476C103.679 77.9426 108.073 83.8232 111.968 89.0061C112.368 89.5377 112.767 90.036 113.167 90.5012L113.267 90.6009V90.7005C113.367 97.0794 109.671 102.561 103.579 105.452H103.379ZM98.3856 76.8462C98.1858 76.8462 97.9528 76.9127 97.6864 77.0456C95.8887 78.441 94.9899 85.119 94.89 91.0992C94.89 93.89 94.9898 95.6841 94.9898 96.1824C95.0564 96.4482 95.1896 96.7472 95.3894 97.0795C95.7223 97.611 96.2882 98.2755 97.0872 99.0729C97.5533 99.6045 98.1193 100.169 98.7851 100.767C99.2511 101.099 99.7172 101.465 100.183 101.864C101.382 102.86 102.58 103.857 103.479 104.854C109.272 102.063 112.767 96.7804 112.667 90.7005C112.335 90.2354 111.968 89.737 111.569 89.2054C107.674 84.1222 103.379 78.3413 98.7851 76.8462C98.6519 76.8462 98.5187 76.8462 98.3856 76.8462Z" fill="black"/>
<path d="M100.281 80.2349C100.281 80.2349 102.478 87.9095 101.08 92.4944C100.581 94.1888 99.1825 96.3815 97.7842 100.169C96.9853 99.3717 95.587 97.8766 95.1875 97.2786L99.1824 89.4046L100.281 80.2349Z" fill="black"/>
<path d="M91.1846 204.525C90.885 205.521 88.0885 208.91 84.8926 204.923C84.3932 204.325 85.9912 199.242 86.3907 198.245C86.4905 197.946 91.8837 198.544 92.1833 199.342C92.5828 200.039 91.4842 203.727 91.1846 204.525Z" fill="white"/>
<path fill-rule="evenodd" clip-rule="evenodd" d="M88.0899 207.116C87.191 207.116 85.9925 206.618 84.6942 205.123C84.0949 204.325 86.0924 198.245 86.0924 198.146C86.1923 197.946 86.4919 197.946 86.7916 197.946C87.6904 197.946 91.9849 198.345 92.3844 199.242C92.8838 200.139 91.4855 204.624 91.4855 204.624C91.2858 205.322 90.1872 206.717 88.5893 207.016C88.4561 207.083 88.2896 207.116 88.0899 207.116ZM86.5918 198.445C85.9926 199.94 84.7941 204.325 85.0937 204.824C86.2256 206.153 87.3575 206.717 88.4893 206.518C89.8876 206.319 90.7864 205.023 90.9862 204.525C91.4855 203.03 92.1847 199.94 91.9849 199.441C91.6853 198.943 87.3908 198.245 86.5918 198.445Z" fill="black"/>
<path d="M90.9888 204.924C90.9888 204.924 94.3845 204.725 97.6803 205.024C101.076 205.323 101.176 210.406 101.176 210.406C97.2808 211.203 84.2973 210.904 84.2973 210.904C82.3997 208.014 84.7967 204.126 84.7967 204.126C87.2935 206.917 90.9888 204.924 90.9888 204.924Z" fill="black"/>
<path d="M99.4817 126.084C99.4817 126.084 113.963 146.815 112.166 165.852C111.167 177.115 101.379 201.335 92.9899 202.83C92.9899 202.83 89.9937 202.531 87.4969 201.634C85.9988 201.036 84.7004 200.139 84.5007 199.043C81.0051 192.764 95.0873 173.328 97.0848 165.454C97.684 163.46 94.7877 160.071 91.0924 156.085C85.0001 149.407 76.411 140.835 77.0102 133.16C78.0089 119.904 98.0835 118.907 99.4817 126.084Z" fill="black"/>
<path d="M64.2197 202.531C63.6204 203.229 59.7254 198.943 59.6255 198.246C59.4258 197.548 61.7229 194.458 62.422 193.76C62.6217 193.561 67.4156 196.053 67.5155 196.85C67.5155 197.548 64.8189 201.834 64.2197 202.531Z" fill="white"/>
<path fill-rule="evenodd" clip-rule="evenodd" d="M64.0213 202.83C63.9548 202.83 63.8882 202.83 63.8216 202.83C62.6232 202.531 59.5271 198.943 59.3273 198.246C59.1276 197.349 61.7243 194.059 62.2236 193.561C62.3235 193.461 62.6232 193.461 62.8229 193.561C63.7218 193.86 67.6168 195.854 67.7167 196.751C67.8165 197.747 64.8203 202.232 64.4209 202.631C64.4209 202.731 64.2211 202.83 64.0213 202.83ZM62.5232 193.96C61.5245 195.056 59.7268 197.648 59.8267 198.146C59.9266 198.644 62.4234 201.435 63.6219 202.232C63.9215 202.332 64.0213 202.332 64.0213 202.332C64.7204 201.535 67.3172 197.448 67.2173 196.85C67.1174 196.252 63.3222 194.159 62.5232 193.96Z" fill="black"/>
<path d="M83.9974 123.293C84.0972 134.556 92.7862 135.253 97.3804 149.606C98.6788 153.593 101.675 161.865 101.176 167.846C100.776 173.427 96.6813 181.501 94.2844 188.478C93.0859 191.966 91.5878 195.455 89.6902 198.544C88.9911 199.541 88.2919 200.637 87.4929 201.634C85.9948 201.036 84.6965 200.139 84.4967 199.043C80.5018 193.062 95.0833 173.328 97.0808 165.454C97.6801 163.46 90.8886 155.586 87.1933 151.599C86.7938 148.41 82.5992 145.719 81.8002 142.629C80.9014 138.542 84.0972 122.994 83.9974 123.293Z" fill="black"/>
<path d="M62.8278 122.795C69.2197 116.914 82.6027 119.505 82.9023 125.087C82.9023 125.087 95.9857 147.114 89.2942 163.66C84.8998 174.424 76.3106 202.232 66.523 199.94C66.523 199.94 62.9277 197.847 61.3297 195.554C61.0634 195.222 60.8636 194.89 60.7304 194.558C64.7253 191.368 69.5193 161.666 72.6154 154.689C74.6128 149.905 57.2349 139.34 59.8316 128.177C60.331 125.884 61.4296 124.09 62.8278 122.795Z" fill="black"/>
<path d="M62.8278 122.795C63.8265 122.994 64.8252 123.592 65.6242 124.39C66.1236 124.788 65.6242 125.486 65.1249 125.386C62.2285 133.161 67.7216 140.337 72.4156 146.118C75.8113 150.204 77.0098 155.686 76.3107 161.368C75.8113 164.756 74.7127 168.046 73.9137 171.335C73.0148 174.524 72.2158 177.813 71.2171 181.003C69.2196 186.784 65.9239 191.668 61.3297 195.555C61.0634 195.222 60.8636 194.89 60.7304 194.558C56.6356 188.378 69.5193 161.667 72.6154 154.69C74.6128 149.905 57.2349 139.34 59.8316 128.177C60.331 125.885 61.4296 124.091 62.8278 122.795Z" fill="black"/>
<path d="M62.1281 97.8769C64.0257 90.6009 66.5225 83.5242 68.7197 79.2384C69.5187 77.7433 70.118 76.5472 70.7172 75.8495C70.917 75.5838 71.1167 75.3844 71.3165 75.2515C72.1155 74.5539 73.214 74.0555 74.7121 73.7565C82.9018 71.6634 96.085 74.1552 101.578 78.142C103.076 82.3282 99.9801 89.8035 97.2835 96.5811C96.0851 99.7706 94.9864 102.561 94.5869 104.455C93.2886 110.435 99.1811 119.406 98.6817 123.791C97.9826 124.888 86.6969 130.868 77.9081 131.964C73.8133 132.463 70.0181 132.363 66.8222 131.865C61.0295 131.067 57.1345 129.273 56.9347 128.177C56.735 126.682 59.9309 106.548 62.1281 97.8769Z" fill="white"/>
<path fill-rule="evenodd" clip-rule="evenodd" d="M72.5139 132.562C70.583 132.562 68.6521 132.429 66.7213 132.164C61.428 131.366 56.9337 129.672 56.7339 128.276C56.4343 126.582 59.7301 106.349 61.9273 97.7772C63.6252 90.8002 66.2219 83.6239 68.519 79.039C69.3179 77.5108 70.0171 76.3812 70.6163 75.6503C70.7495 75.4509 70.916 75.2516 71.1157 75.0522C71.9147 74.3877 73.0799 73.8562 74.6113 73.4575C83.2004 71.2647 96.4835 74.1552 101.677 77.9427L101.777 78.0423C103.275 82.0292 100.578 88.8068 98.0815 95.3851L97.1826 97.5779C96.084 100.468 95.1852 102.86 94.7857 104.555C94.0866 107.844 95.6845 112.13 96.9828 116.017C98.0815 119.007 99.0802 121.898 98.8805 123.891V123.991C98.0815 125.087 86.7958 131.067 78.0069 132.164C76.2092 132.429 74.3782 132.562 72.5139 132.562ZM57.2333 128.177C57.3332 128.974 60.7289 130.768 66.8212 131.665C70.4166 132.164 74.2118 132.164 77.9071 131.665C86.6959 130.569 97.5821 124.688 98.3811 123.692C98.5808 121.898 97.5821 119.107 96.5834 116.117C95.1852 112.229 93.5872 107.844 94.2863 104.455C94.6858 102.761 95.5846 100.269 96.6832 97.4782L97.5821 95.1857C100.079 88.8068 102.676 82.1288 101.377 78.3413C96.1839 74.5538 83.2003 71.7631 74.7111 73.9559C73.3129 74.2549 72.2143 74.8529 71.4153 75.4509C71.2821 75.5838 71.1157 75.7499 70.9159 75.9493C70.3833 76.6802 69.7175 77.8098 68.9185 79.338C66.6214 83.8232 64.1246 90.9996 62.3269 97.8769C60.0298 106.847 57.0335 126.781 57.2333 128.177Z" fill="black"/>
<path d="M62.1242 97.8767C64.0218 90.6007 66.5186 83.5241 68.7158 79.2382C70.3138 79.0389 71.9118 79.5372 72.8107 80.8329C73.9093 82.328 73.6097 84.0224 72.3113 85.0191C72.3113 85.1188 76.8056 86.5142 76.8056 86.6139C73.4099 93.9895 68.2165 100.867 67.817 108.84C67.4175 116.515 67.1179 124.19 66.8183 131.864C61.0256 131.067 57.1305 129.273 56.9308 128.177C56.7311 126.682 59.927 106.548 62.1242 97.8767Z" fill="black"/>
<path d="M65.1224 202.133C65.1224 202.133 66.7203 203.229 68.7178 204.923C69.5168 205.521 69.3171 205.721 70.4157 205.721C74.2109 205.82 73.4119 210.206 73.4119 210.206C71.9138 210.605 66.8202 211.601 64.5231 209.807C59.9289 206.418 55.0352 202.432 55.0352 202.432C55.3348 198.644 60.0288 197.049 60.0288 197.049C60.4283 201.136 65.1224 202.133 65.1224 202.133Z" fill="black"/>
<path d="M64.321 121.599C63.1226 121.4 62.6231 119.506 62.5233 118.509C62.3235 117.213 62.8229 116.017 64.0214 115.419C65.0201 115.021 66.718 115.021 67.6168 115.718C67.6168 115.785 67.6501 115.851 67.7167 115.918C67.9164 115.918 68.2161 116.017 68.316 116.217C68.6156 117.114 70.3134 119.605 68.7154 120.104C68.5823 120.17 68.4824 120.203 68.4158 120.203C68.3159 120.602 68.1162 120.901 67.8166 121.101C67.4171 121.3 67.0176 121.2 66.718 120.901C66.6514 120.968 66.5848 121.001 66.5182 121.001C66.1187 121.4 65.6194 121.3 65.2199 121.001C65.0201 121.4 64.8204 121.599 64.321 121.599Z" fill="white"/>
<path fill-rule="evenodd" clip-rule="evenodd" d="M64.4193 121.798C64.3527 121.798 64.2861 121.798 64.2195 121.798C63.021 121.698 62.5217 120.004 62.322 118.609C62.0223 117.014 62.6215 115.818 63.9199 115.22C65.0185 114.721 66.8162 114.722 67.7151 115.519C67.7817 115.585 67.815 115.619 67.815 115.619C68.1479 115.685 68.3809 115.851 68.514 116.117C68.5806 116.25 68.6806 116.449 68.8137 116.715C69.2132 117.512 69.9123 118.908 69.5128 119.705C69.4462 120.037 69.2132 120.27 68.8137 120.403C68.7471 120.403 68.6805 120.403 68.614 120.403C68.4808 120.868 68.2477 121.167 67.9148 121.3C67.6152 121.499 67.2157 121.499 66.7163 121.2C66.4167 121.499 65.9174 121.599 65.3182 121.399C65.1184 121.665 64.8188 121.798 64.4193 121.798ZM65.7176 115.419C65.1184 115.419 64.619 115.519 64.1197 115.718C63.1209 116.117 62.5217 117.213 62.7214 118.509C62.9212 119.306 63.3207 121.2 64.3194 121.3C64.6523 121.366 64.8521 121.267 64.9186 121.001L65.0185 120.702L65.3182 120.801C65.7176 121.067 66.0838 121.067 66.4167 120.801C66.4833 120.801 66.5166 120.768 66.5166 120.702L66.7163 120.602L66.8163 120.702C67.1159 121.001 67.4155 121.001 67.6152 120.901C67.8816 120.768 68.048 120.502 68.1146 120.104L68.2144 119.904H68.4142C68.5141 119.904 68.614 119.904 68.614 119.904C68.8803 119.838 69.0467 119.705 69.1133 119.506C69.3131 118.908 68.7138 117.612 68.3143 116.914C68.2478 116.715 68.1812 116.516 68.1146 116.316C67.9814 116.183 67.8482 116.117 67.7151 116.117H67.6152L67.5153 116.017L67.4155 115.918C67.016 115.519 66.3168 115.419 65.7176 115.419Z" fill="black"/>
<path d="M69.817 118.907C69.7171 118.409 69.6172 117.811 69.2177 117.412C68.9181 117.113 68.5186 117.213 68.1191 117.213C67.1204 117.014 66.9206 116.017 67.1204 115.22C67.2203 114.522 67.1204 113.924 67.42 114.422C68.3189 114.721 70.1166 115.519 70.7158 116.316C71.315 117.113 71.3151 118.11 71.1153 119.007C70.9156 119.705 69.9169 119.605 69.817 118.907Z" fill="white"/>
<path fill-rule="evenodd" clip-rule="evenodd" d="M70.5163 119.705C70.4497 119.705 70.4165 119.705 70.4165 119.705C69.9171 119.705 69.6175 119.406 69.5176 119.007C69.5176 118.509 69.4178 117.911 69.1181 117.612C68.9184 117.512 68.7186 117.512 68.419 117.512C68.2858 117.446 68.1527 117.413 68.0195 117.413C67.1206 117.213 66.6213 116.316 66.8211 115.22C66.8211 115.02 66.8543 114.854 66.9209 114.721C66.9209 114.323 66.9209 114.024 67.2205 114.024C67.4203 113.924 67.5202 114.123 67.62 114.223C68.5189 114.522 70.3166 115.319 70.9158 116.117C71.5151 116.914 71.6483 117.911 71.3154 119.107C71.3154 119.506 70.9158 119.705 70.5163 119.705ZM67.4203 114.622C67.4203 114.688 67.4203 114.755 67.4203 114.821C67.3537 114.954 67.3204 115.087 67.3204 115.22C67.2206 115.618 67.2205 116.715 68.1194 116.914C68.2526 116.981 68.3857 117.014 68.5189 117.014C68.8185 117.014 69.1181 117.014 69.4177 117.313C69.9171 117.712 70.017 118.409 70.017 118.908C70.1168 119.107 70.3166 119.207 70.4165 119.207C70.6162 119.207 70.816 119.207 70.9158 119.007C71.1156 117.944 70.9824 117.08 70.5163 116.416C70.017 115.718 68.2193 114.921 67.4203 114.622Z" fill="black"/>
<path d="M175.085 0.598145C181.277 0.598145 186.37 5.58174 186.37 11.861C186.37 18.1403 181.277 23.2234 175.085 23.2234C168.793 23.2234 163.699 18.1403 163.699 11.861C163.699 5.58174 168.793 0.598145 175.085 0.598145Z" fill="#AAB6C2"/>
<path d="M175.088 5.78125C178.384 5.78125 181.181 8.4724 181.181 11.8612C181.181 15.25 178.384 17.9411 175.088 17.9411C171.693 17.9411 168.996 15.25 168.996 11.8612C168.996 8.4724 171.693 5.78125 175.088 5.78125Z" fill="white"/>
<path fill-rule="evenodd" clip-rule="evenodd" d="M175.087 18.2398C171.592 18.2398 168.695 15.3493 168.695 11.8609C168.695 8.37238 171.592 5.58154 175.087 5.58154C178.583 5.58154 181.379 8.37238 181.379 11.8609C181.379 15.3493 178.583 18.2398 175.087 18.2398ZM175.087 6.0799C171.791 6.0799 169.195 8.67139 169.195 11.8609C169.195 15.0503 171.791 17.7414 175.087 17.7414C178.283 17.7414 180.88 15.0503 180.88 11.8609C180.88 8.67139 178.283 6.0799 175.087 6.0799Z" fill="black"/>
<path d="M56.6352 120.402C56.735 121.299 55.2369 121.299 54.9373 120.701C54.4379 120.402 53.8387 121.499 53.639 121.499C53.1396 121.499 52.3406 121 51.8412 120.502C51.5416 120.602 50.6427 120.701 49.4443 120.801C45.4493 121.1 40.6554 120.502 35.1624 117.911C29.8691 115.319 29.2698 112.927 27.572 104.754C27.572 104.754 27.572 104.721 27.572 104.654C26.1738 98.2755 35.2623 100.169 35.3622 101.266C35.4287 101.731 35.5286 102.229 35.6618 102.761C36.4607 105.551 37.7591 109.339 38.1586 109.638C38.658 109.937 41.8539 112.628 42.7527 113.126C44.3507 114.023 44.2508 114.322 46.5479 115.12C49.7439 116.216 52.84 117.113 53.639 117.412C53.639 117.412 53.6722 117.379 53.7388 117.313C54.2382 117.213 55.5365 116.914 56.0359 117.113C56.3355 117.213 56.6351 117.612 56.2356 117.811C55.936 118.01 55.6364 118.01 55.3368 117.911C56.0359 118.409 56.4354 119.107 56.6352 120.402Z" fill="white"/>
<path fill-rule="evenodd" clip-rule="evenodd" d="M53.6359 121.698C53.0367 121.698 52.2377 121.299 51.7383 120.801C51.3388 120.801 50.5399 121 49.4413 121.1C44.8471 121.399 39.9533 120.402 35.0595 118.11C29.5664 115.419 28.9673 112.728 27.3693 104.854L27.2694 104.754C26.9365 103.026 27.2694 101.731 28.2681 100.867C29.8661 99.4714 32.9621 99.7704 34.5601 100.368C35.2259 100.634 35.5588 100.933 35.5588 101.265C35.6254 101.664 35.7586 102.129 35.9584 102.661C36.7573 105.85 37.9559 109.139 38.3553 109.438C38.5551 109.538 38.9546 109.937 39.6537 110.435C40.7523 111.332 42.2504 112.628 42.8496 112.927C43.349 113.226 43.6486 113.425 44.0481 113.625C44.6473 114.023 45.0468 114.322 46.6448 114.821C48.6423 115.518 50.6397 116.216 52.0379 116.615C52.7371 116.814 53.3363 117.013 53.6359 117.113C54.9343 116.814 55.7333 116.714 56.1328 116.914C56.3325 117.013 56.6321 117.213 56.6321 117.512C56.6321 117.611 56.6322 117.91 56.3325 118.01C56.1994 118.077 56.0995 118.143 56.0329 118.209C56.4324 118.708 56.732 119.406 56.8319 120.402C56.9318 120.801 56.6321 121.2 56.2326 121.299C55.7333 121.499 55.0341 121.299 54.7345 120.901C54.6347 120.801 54.3351 121.2 54.1353 121.399C53.9356 121.598 53.8357 121.698 53.6359 121.698ZM51.9381 120.203L52.0379 120.303C52.4374 120.801 53.2365 121.2 53.6359 121.2C53.6359 121.2 53.7358 121.1 53.8357 121C54.0355 120.701 54.5348 120.103 55.0341 120.502H55.134C55.2339 120.801 55.7333 120.901 56.1328 120.801C56.3325 120.701 56.3325 120.502 56.3325 120.402C56.2327 119.306 55.933 118.608 55.2339 118.11L54.6347 117.711H55.3338C55.6667 117.711 55.8997 117.678 56.0329 117.611C56.0995 117.611 56.1328 117.578 56.1328 117.512C56.1328 117.512 56.0329 117.412 55.933 117.312C55.7333 117.213 55.134 117.213 53.7358 117.611H53.536C53.2364 117.512 52.6372 117.312 51.8382 117.113C50.5399 116.615 48.5424 116.017 46.4451 115.319C44.8471 114.721 44.3477 114.422 43.7485 114.023C43.4488 113.824 43.1492 113.625 42.55 113.326C41.9507 113.027 40.4526 111.731 39.2542 110.834C38.7548 110.335 38.2554 109.937 38.0557 109.837C37.4564 109.438 36.0582 104.854 35.459 102.86C35.2592 102.262 35.1594 101.764 35.1594 101.365C35.0595 101.265 34.8597 101.066 34.0607 100.767C32.6625 100.269 29.966 100.069 28.4679 101.265C27.6689 101.996 27.4358 103.126 27.7687 104.654V104.754C29.4666 112.728 29.966 115.12 35.2592 117.611C40.153 119.904 44.8471 120.901 49.4413 120.602C50.6397 120.502 51.5386 120.303 51.8382 120.303L51.9381 120.203Z" fill="black"/>
<path d="M26.4718 105.75C25.2734 99.7702 23.7752 91.4975 26.5717 88.5074C28.2695 86.7133 31.3656 89.9028 32.664 91.3979C35.5603 94.7867 36.5591 101.863 36.6589 102.96C33.463 106.149 30.1671 106.747 26.4718 105.75Z" fill="black"/>
<path d="M16.6877 201.634C16.9873 195.355 17.4867 184.69 17.2869 181.7C17.0872 176.617 17.986 172.929 18.785 170.039C18.9848 169.308 19.1512 168.643 19.2844 168.045C19.3843 167.646 14.3906 161.766 14.3906 161.766L23.7787 154.291C23.7787 154.291 34.9645 164.557 32.8672 173.228C32.8672 173.228 24.1782 194.159 23.0796 198.146C21.9809 202.232 20.7825 208.013 20.7825 208.013L16.2882 207.515C16.2882 207.515 16.488 205.023 16.6877 201.634Z" fill="white"/>
<path fill-rule="evenodd" clip-rule="evenodd" d="M20.9811 208.312L16.0873 207.714V207.515C16.0873 207.515 16.1872 205.023 16.387 201.634C16.7865 195.156 17.1859 184.69 17.086 181.7C16.7864 176.717 17.6853 173.029 18.5841 169.939C18.7173 169.275 18.8838 168.643 19.0835 168.045C18.8838 167.547 16.387 164.557 14.1898 161.965L14.0898 161.766L23.7776 153.992L23.9773 154.091C24.4767 154.59 35.263 164.557 33.1657 173.328C33.0658 173.527 24.3768 194.259 23.2782 198.246C22.1796 202.232 21.081 208.013 20.9811 208.113V208.312ZM16.5867 207.216L20.6815 207.714C20.8813 206.618 21.88 201.634 22.8787 198.046C23.9773 194.059 32.3667 173.926 32.6663 173.129C34.5639 165.255 25.1758 155.885 23.8775 154.59L14.789 161.866C19.7826 167.547 19.6827 167.946 19.5829 168.045C19.4497 168.643 19.2833 169.308 19.0835 170.039C18.2845 173.029 17.3857 176.717 17.5854 181.7C17.6853 184.591 17.2858 195.056 16.9862 201.634C16.7864 204.425 16.6865 206.518 16.5867 207.216Z" fill="black"/>
<path d="M48.6465 148.609C48.6465 148.609 56.936 160.968 53.8399 174.822C53.8399 174.822 46.2495 197.149 45.3507 201.235C44.4518 205.322 43.7527 209.408 43.7527 209.408L39.0586 209.906C39.0586 209.906 39.558 207.415 39.7577 203.727C39.7577 203.594 39.791 203.428 39.8576 203.229C40.6566 184.291 40.4568 174.723 40.9562 172.032C40.9562 171.965 40.9562 171.899 40.9562 171.832C41.0894 171.434 41.156 171.035 41.156 170.636C41.3557 167.546 44.1522 155.187 44.1522 155.187L48.6465 148.609Z" fill="white"/>
<path fill-rule="evenodd" clip-rule="evenodd" d="M38.7578 210.205L38.8577 209.807C38.8577 209.807 39.357 207.315 39.5568 203.727C39.5568 203.594 39.5568 203.428 39.5568 203.228C40.0562 193.56 40.156 186.384 40.2559 181.201C40.3558 176.317 40.4557 173.327 40.6554 172.031C40.6554 171.898 40.6887 171.832 40.7553 171.832C40.8219 171.367 40.8885 170.968 40.955 170.636C41.1548 167.546 43.8514 155.685 43.9512 155.187V155.087L48.6453 148.11L48.8451 148.509C48.9449 148.609 57.2344 161.068 54.0384 174.822C53.9385 175.121 46.4481 197.248 45.6491 201.335C44.7502 205.321 43.9512 209.408 43.9512 209.408V209.607L38.7578 210.205ZM44.4506 155.386C44.2509 156.184 41.6542 167.746 41.4544 170.636C41.3878 171.035 41.3212 171.467 41.2546 171.932C41.2546 171.998 41.2214 172.031 41.1548 172.031C40.955 173.427 40.8552 176.317 40.7553 181.201C40.6554 186.484 40.5555 193.56 40.0562 203.228C40.0562 203.428 40.0562 203.627 40.0562 203.826C39.8564 206.617 39.5568 208.81 39.3571 209.607L43.5517 209.209C43.7515 208.312 44.3507 204.823 45.1497 201.235C46.0486 197.148 53.3393 175.62 53.639 174.722C56.4354 162.363 49.9436 151.1 48.6453 149.107L44.4506 155.386Z" fill="black"/>
<path d="M44.2481 205.521C44.2481 205.521 48.8422 206.618 52.0382 207.216C55.334 207.814 52.7373 211.003 52.7373 211.003C48.9421 211.402 38.8549 210.704 38.8549 210.704C37.3568 207.914 39.6539 204.824 39.6539 204.824C41.8511 207.415 44.2481 205.521 44.2481 205.521Z" fill="black"/>
<path d="M21.4746 205.721C21.4746 205.721 26.0688 206.817 29.2647 207.415C32.4607 207.914 29.9639 211.203 29.9639 211.203C26.1687 211.502 16.0815 210.904 16.0815 210.904C14.4835 208.213 16.3811 205.322 16.3811 205.322C18.5783 208.013 21.4746 205.721 21.4746 205.721Z" fill="black"/>
<path d="M58.626 159.772C55.2303 165.254 51.1355 166.749 45.8422 167.547C44.2443 167.846 42.5464 168.045 40.7487 168.244C40.5489 168.244 36.8536 169.44 36.8536 169.44C32.5591 172.431 27.6653 174.225 22.9712 173.328C20.6741 172.929 18.377 171.833 16.2797 169.939C12.884 160.769 8.88911 153.094 6.39228 145.519C4.99405 140.935 4.09518 136.35 4.19505 131.565C4.19505 131.366 4.19505 131.167 4.19505 130.967C4.29493 128.974 4.49469 126.781 4.89418 124.29C5.09393 123.492 5.89286 122.994 7.09134 122.695C9.78792 121.997 14.6817 122.495 19.6754 124.788C23.0711 119.107 28.1646 113.126 32.2594 117.113C39.1507 123.791 54.5312 149.407 58.626 159.772Z" fill="black"/>
<path d="M3.29913 84.1223C4.49761 84.4213 7.19421 85.5177 8.69231 83.3249C9.29155 82.5275 14.2852 71.8628 22.1752 74.5539C22.4748 74.6535 18.38 78.3414 18.6796 82.1289C19.179 87.4115 15.0842 89.3052 12.5873 90.6009C8.49253 92.694 2.69992 88.8068 2.4003 84.521C2.30043 84.0226 2.99951 83.8233 3.29913 84.1223Z" fill="black"/>
<path d="M11.4879 105.751C11.4879 105.551 11.5211 105.352 11.5877 105.153C11.5877 104.953 11.5877 104.787 11.5877 104.654C11.5877 103.857 11.5545 103.06 11.4879 102.262C10.9885 93.1921 8.09218 81.73 26.4689 85.4178C26.4689 85.4178 38.154 91.8964 37.0554 97.6773C36.4562 101.066 34.0592 102.561 32.661 104.555C31.5624 106.05 31.063 107.844 32.0617 110.734C32.2615 111.332 32.4613 111.93 32.661 112.528C34.9581 118.907 39.752 121.1 39.752 121.1C39.752 121.1 19.9771 129.074 7.29318 124.688C5.09597 123.891 3.0985 122.894 1.30078 121.499C1.30078 121.499 10.6889 114.422 11.4879 105.751Z" fill="#7977C6"/>
<path d="M11.4879 105.751C11.4879 105.551 11.5211 105.352 11.5877 105.153C12.3867 104.156 13.2523 103.193 14.1845 102.262C14.6838 101.764 15.5827 102.462 15.0833 103.06C15.0167 103.126 14.9168 103.193 14.7837 103.259C13.4853 106.05 13.785 109.14 13.1857 112.13C12.6864 114.721 11.388 117.014 10.0896 119.406C9.39051 120.602 8.49166 123.293 7.29318 124.688C5.09597 123.891 3.0985 122.894 1.30078 121.499C1.30078 121.499 10.6889 114.422 11.4879 105.751Z" fill="black"/>
<path d="M16.4869 103.259C15.3883 104.754 13.1911 107.545 11.4933 108.442C11.4933 108.043 11.5931 104.953 11.5931 104.555C11.5931 103.857 11.0938 95.3848 11.0938 94.4878C11.693 93.6904 18.4844 88.2085 18.4844 88.2085C20.4819 92.295 18.0849 101.066 16.4869 103.259Z" fill="black"/>
<path d="M28.6734 83.1252L28.2738 86.4143C28.2738 86.4143 28.973 88.1087 27.9742 88.2084C26.0766 88.308 23.6797 84.9192 23.6797 84.9192L24.2789 80.5337L28.6734 83.1252Z" fill="white"/>
<path fill-rule="evenodd" clip-rule="evenodd" d="M27.8732 88.5076C25.8757 88.5076 23.5786 85.2185 23.4788 85.1188L23.3789 85.0191L24.078 80.1353L28.9718 83.0257L28.5723 86.4145C28.6721 86.7135 28.9718 87.6106 28.5723 88.1089C28.4391 88.3083 28.2726 88.4411 28.0729 88.5076C28.0063 88.5076 27.9398 88.5076 27.8732 88.5076ZM23.8783 84.8197C24.2778 85.3181 26.2752 88.0092 27.8732 88.0092C27.9398 88.0092 27.9731 88.0092 27.9731 88.0092C28.0729 87.9095 28.1728 87.9096 28.1728 87.9096C28.3726 87.6106 28.1728 86.9128 28.0729 86.5142L27.9731 86.4145L28.4724 83.3247L24.4775 80.9326L23.8783 84.8197Z" fill="black"/>
<path d="M31.1594 73.7561C31.1594 73.7561 32.4578 77.5436 32.4578 80.8327C32.4578 83.2248 27.6639 85.7166 24.6677 81.9292C21.6715 78.2413 23.2694 73.3574 23.2694 73.3574L31.1594 73.7561Z" fill="white"/>
<path fill-rule="evenodd" clip-rule="evenodd" d="M28.464 84.1221C26.9659 84.1221 25.5677 83.4244 24.4691 82.1287C21.373 78.3412 22.9709 73.4573 23.0708 73.2579L23.1707 73.0586L31.3603 73.5569L31.4602 73.6567C31.4602 73.856 32.6587 77.5438 32.6587 80.8329C32.6587 82.1286 31.56 83.3247 30.0619 83.9227C29.5293 84.0556 28.9967 84.1221 28.464 84.1221ZM23.4703 73.5569C23.2706 74.454 22.2719 78.6402 24.8686 81.8296C26.1669 83.4244 28.0645 84.0224 29.8622 83.4244C31.1606 82.926 32.1593 81.8296 32.1593 80.8329C32.1593 77.9425 31.2604 74.753 30.9608 73.9557L23.4703 73.5569Z" fill="black"/>
<path d="M33.0609 75.9489C32.4617 76.6466 31.3631 76.4473 30.664 75.9489C30.1979 75.6831 29.7984 75.3176 29.4655 74.8525C29.2658 74.5535 29.066 74.1548 28.8663 73.8558C27.7677 73.7561 26.7689 74.2545 25.9699 75.0519C25.8701 75.4505 25.7702 75.9489 25.7702 76.4473C25.6703 77.8427 25.6703 79.1384 24.7714 80.3344C23.6728 81.9291 22.1747 80.7331 21.5755 79.2381C20.6766 77.444 20.7765 74.8525 21.6754 73.0584C22.4744 71.2644 25.8701 70.467 26.2695 70.3673C27.5679 70.2676 29.1659 70.5667 30.4642 71.2644C30.8637 71.4637 31.1633 71.7627 31.463 72.2611C31.8625 72.7594 31.5629 72.8591 32.1621 73.4572C32.3618 73.6565 32.6615 73.6565 32.8612 73.8558C33.5603 74.3542 33.6602 75.2512 33.0609 75.9489Z" fill="black"/>
<path d="M25.3696 78.8393C24.7703 78.939 23.8714 78.1417 24.2709 77.145C24.7703 76.0486 26.0686 76.8459 26.0686 76.8459C26.3682 77.3442 25.9688 78.7396 25.3696 78.8393Z" fill="white"/>
<path d="M26.7713 126.781C25.7726 126.881 25.2732 125.486 24.9736 124.788C24.674 123.891 24.8737 122.894 25.7726 122.296C26.3718 121.798 27.6702 121.599 28.3693 121.997C28.4359 122.064 28.5025 122.097 28.569 122.097C28.6689 122.097 28.8687 122.097 29.0684 122.296C29.368 122.894 30.966 124.589 29.8674 125.187C29.8009 125.187 29.7009 125.22 29.5678 125.286C29.5678 125.585 29.4679 125.785 29.2682 125.984C28.9685 126.183 28.7688 126.183 28.4692 125.984C28.4026 126.051 28.3693 126.084 28.3693 126.084C28.0697 126.383 27.6702 126.482 27.3706 126.283C27.2707 126.582 27.0709 126.781 26.7713 126.781Z" fill="white"/>
<path fill-rule="evenodd" clip-rule="evenodd" d="M26.6728 127.081C25.6741 127.081 25.0748 125.885 24.7752 124.888C24.3757 123.692 24.6753 122.695 25.5742 122.097C26.3731 121.599 27.6715 121.3 28.4705 121.798C28.5371 121.798 28.6037 121.831 28.6703 121.898C28.87 121.898 29.0697 121.997 29.2695 122.197C29.3361 122.263 29.4027 122.363 29.4692 122.496C29.9686 123.094 30.6677 123.991 30.468 124.788C30.4014 125.054 30.2349 125.253 29.9686 125.386C29.9686 125.386 29.9353 125.419 29.8688 125.486C29.8022 125.818 29.669 126.051 29.4692 126.184C29.2695 126.383 28.9698 126.483 28.5704 126.283C28.2707 126.483 27.9711 126.682 27.4718 126.582C27.3386 126.848 27.1056 127.014 26.7726 127.081C26.7061 127.081 26.6728 127.081 26.6728 127.081ZM27.4718 121.997C26.8725 121.997 26.2733 122.197 25.8738 122.496C25.1747 122.994 24.8751 123.791 25.2745 124.689C25.4743 125.287 25.9737 126.682 26.6728 126.582C26.9391 126.582 27.0723 126.483 27.0723 126.283L27.1722 125.984L27.3719 126.084C27.8713 126.184 28.071 126.084 28.1709 125.984L28.3707 125.685L28.5704 125.785C28.87 125.984 28.9699 125.885 29.1696 125.785C29.3028 125.718 29.3694 125.552 29.3694 125.287V124.988H29.5691C29.6357 124.988 29.7023 124.988 29.7688 124.988C29.9686 124.788 29.9686 124.689 29.9686 124.689C30.0685 124.19 29.4692 123.293 29.0697 122.795C28.9366 122.662 28.8367 122.562 28.7701 122.496C28.7701 122.363 28.7035 122.33 28.5704 122.396H28.4705L28.3707 122.296C28.3041 122.23 28.2707 122.197 28.2707 122.197C28.071 122.064 27.8047 121.997 27.4718 121.997Z" fill="black"/>
<path d="M30.472 124.09C30.3722 123.791 30.2723 123.293 29.8728 123.093C29.5732 122.894 29.2735 122.994 28.9739 122.994C28.2748 122.994 26.6769 122.495 26.6769 121.897C26.577 121.299 27.0763 121 27.6756 121.1C28.3747 121.2 30.2723 121.499 30.8715 121.997C31.3709 122.595 31.5706 123.293 31.4708 123.99C31.4708 124.489 30.6718 124.588 30.472 124.09Z" fill="white"/>
<path fill-rule="evenodd" clip-rule="evenodd" d="M30.9691 124.688C30.6695 124.688 30.3699 124.489 30.27 124.19C30.1701 123.891 30.0703 123.492 29.7707 123.293C29.6708 123.193 29.471 123.193 29.2713 123.293C29.2047 123.293 29.1048 123.293 28.9717 123.293C28.2726 123.293 26.375 122.795 26.375 121.898C26.375 121.599 26.4748 121.3 26.7745 121.1C27.0741 120.801 27.3737 120.801 27.7732 120.901C28.4723 121.001 30.3699 121.3 30.9691 121.798C31.5684 122.33 31.8347 123.06 31.7681 123.991C31.7681 124.389 31.4685 124.589 31.069 124.688C31.069 124.688 31.0357 124.688 30.9691 124.688ZM29.5709 122.695C29.7041 122.695 29.8372 122.761 29.9704 122.894C30.4698 123.094 30.5696 123.692 30.7694 124.09C30.7694 124.19 30.9691 124.19 31.069 124.19C31.069 124.19 31.2688 124.19 31.2688 123.991C31.3353 123.193 31.1356 122.595 30.6695 122.197C30.27 121.898 28.7719 121.499 27.6733 121.399C27.407 121.333 27.2072 121.366 27.0741 121.499C26.9409 121.565 26.8744 121.698 26.8744 121.898C26.8744 122.197 28.1727 122.795 28.9717 122.795C29.1048 122.795 29.2047 122.795 29.2713 122.795C29.3379 122.728 29.4377 122.695 29.5709 122.695Z" fill="black"/>
<path d="M8.05064 189.773C7.55127 178.909 10.8471 169.839 13.4438 162.464C15.7408 156.085 17.6385 150.603 16.5399 146.018C16.207 144.955 15.9073 143.925 15.641 142.928C13.3439 134.157 11.4463 127.28 18.2377 124.589C21.4337 123.293 27.3262 122.894 34.0177 122.496C42.3072 121.898 51.6953 121.299 58.187 118.907C62.3817 117.313 70.3716 116.814 79.5599 116.117C97.4372 114.921 119.609 113.326 131.494 104.256C150.67 89.7038 163.054 60.3009 163.154 29.3033V12.0602C163.154 5.3822 168.647 0 175.338 0C181.93 0 187.423 5.3822 187.423 12.0602V111.532H186.025V12.0602C186.025 6.17957 181.231 1.39542 175.338 1.39542C169.346 1.39542 164.552 6.17957 164.552 12.0602V29.3033C164.452 60.6996 151.768 90.6009 132.393 105.352C120.108 114.721 97.7369 116.216 79.6598 117.512C70.5713 118.11 62.6813 118.708 58.6864 120.203C51.9949 122.695 42.5069 123.293 34.1175 123.791C27.5259 124.29 21.7333 124.688 18.7371 125.785C13.4438 127.977 14.5424 133.26 17.0392 142.529C17.3056 143.593 17.5719 144.656 17.8382 145.719C19.1366 150.702 17.0392 156.384 14.7422 162.962C12.0456 170.537 8.94949 179.208 9.34898 189.773H8.05064Z" fill="#AAB6C2"/>
<path d="M68.718 120.104C68.5848 120.17 68.485 120.203 68.4184 120.203C68.3185 120.602 68.1188 120.901 67.8192 121.1C67.4197 121.3 67.0201 121.2 66.7205 120.901C66.6539 120.967 66.5873 121.001 66.5208 121.001C66.1213 121.399 65.6219 121.3 65.2224 121.001C65.0227 121.399 64.823 121.599 64.3236 121.599C63.1251 121.399 62.6257 119.506 62.5258 118.509C62.4592 118.177 62.4592 117.844 62.5258 117.512C62.3927 117.512 62.2595 117.479 62.1264 117.412C58.0316 116.416 45.5474 112.828 44.8483 106.349C44.1492 100.568 56.7332 76.9461 61.627 79.9363C64.1238 81.4313 69.3172 91.8968 66.2212 92.3951C63.1251 92.8935 54.9355 102.362 54.536 104.655C54.3362 105.751 67.8192 114.622 67.8192 114.622L67.0201 115.419C67.2199 115.486 67.4197 115.585 67.6194 115.718C67.6194 115.785 67.6527 115.851 67.7193 115.917C67.919 115.917 68.2187 116.017 68.3185 116.216C68.6181 117.113 70.316 119.605 68.718 120.104Z" fill="white"/>
<path fill-rule="evenodd" clip-rule="evenodd" d="M64.4223 121.798C64.3557 121.798 64.2891 121.798 64.2226 121.798C63.0241 121.698 62.5247 120.004 62.325 118.609C62.2584 118.276 62.2251 117.977 62.2251 117.711H62.0253C59.2289 117.014 45.3465 113.326 44.5475 106.449C44.0481 101.365 52.9369 83.7238 58.7295 80.1356C59.928 79.3382 60.9267 79.2053 61.7257 79.7369C64.0228 81.1323 67.9179 88.7073 67.4185 91.4981C67.2188 92.2954 66.7194 92.4948 66.3199 92.5945C63.3237 93.0928 55.1341 102.462 54.8345 104.655C54.9344 105.452 61.7257 110.236 67.9179 114.422L68.2175 114.622L67.4185 115.319C67.5517 115.386 67.6515 115.452 67.7181 115.519C67.7847 115.585 67.818 115.618 67.818 115.618C68.1509 115.685 68.3839 115.851 68.5171 116.117C68.5837 116.25 68.6836 116.449 68.8168 116.715C69.2163 117.512 69.9153 118.908 69.5158 119.705C69.4492 120.037 69.2163 120.27 68.8168 120.403C68.7502 120.403 68.6836 120.403 68.617 120.403C68.4838 120.868 68.2508 121.167 67.9179 121.3C67.6183 121.499 67.2188 121.499 66.7194 121.2C66.4198 121.499 65.9204 121.599 65.3212 121.399C65.1215 121.665 64.8218 121.798 64.4223 121.798ZM60.6271 79.9363C60.1611 79.9363 59.5951 80.1356 58.9293 80.5343C53.4363 84.0227 44.5475 101.565 45.0469 106.349C45.746 112.927 59.4287 116.515 62.1252 117.213L62.8244 117.313L62.7245 117.512C62.7245 117.844 62.7245 118.177 62.7245 118.509C62.9242 119.306 63.3237 121.2 64.3225 121.3C64.6554 121.366 64.8551 121.266 64.9217 121.001L65.0215 120.702L65.3212 120.801C65.7207 121.067 66.0869 121.067 66.4198 120.801C66.4864 120.801 66.5196 120.768 66.5196 120.702L66.7194 120.602L66.8193 120.702C67.1189 121.001 67.4185 121.001 67.6183 120.901C67.8846 120.768 68.0511 120.502 68.1176 120.104L68.2175 119.904H68.4172C68.5171 119.904 68.617 119.904 68.617 119.904C68.8833 119.838 69.0498 119.705 69.1164 119.506C69.3161 118.908 68.7169 117.612 68.3174 116.914C68.2508 116.715 68.1842 116.515 68.1176 116.316C68.0511 116.183 67.9179 116.117 67.7181 116.117H67.6183L67.5184 116.017L67.4185 115.917C67.2854 115.785 67.1189 115.685 66.9191 115.618L66.5196 115.519L67.4185 114.622C63.2238 111.831 54.1354 105.651 54.3351 104.555C54.7346 102.263 63.0241 92.6941 66.22 92.0961C66.4198 92.0961 66.8193 91.9964 66.9191 91.3984C67.4185 88.807 63.6233 81.4313 61.4261 80.1356C61.2264 80.0027 60.9601 79.9363 60.6271 79.9363Z" fill="black"/>
<path d="M69.4163 116.914L68.3177 117.014L65.6211 116.117L67.4188 114.622L67.9182 114.821L69.4163 116.914Z" fill="white"/>
<path d="M55.5352 79.8367C62.4264 75.8499 72.214 70.7666 77.0079 73.8564C80.0041 75.7502 78.6059 82.4282 77.2077 84.9199C74.2115 90.4018 66.1217 94.0897 64.9233 94.588C59.5301 90.9002 55.9346 85.6176 55.5352 79.8367Z" fill="white"/>
<path fill-rule="evenodd" clip-rule="evenodd" d="M64.8222 94.887L64.7223 94.7873C59.1294 90.9001 55.6339 85.4182 55.2344 79.8367V79.737L55.4341 79.6374C63.0245 75.1522 72.4126 70.5673 77.2065 73.6571C80.3026 75.6505 78.8045 82.5278 77.4063 85.0196C74.4101 90.4018 66.52 94.1893 65.0219 94.7873L64.8222 94.887ZM55.7337 80.036C56.1332 85.4183 59.4291 90.6012 64.8222 94.3887C66.62 93.5913 74.1104 90.0031 76.9069 84.8202C78.2052 82.5278 79.7034 75.9495 76.807 74.0558C72.3127 71.1653 63.2242 75.6505 55.7337 80.036Z" fill="black"/>
<path d="M140.027 97.6773C139.927 97.4779 139.827 97.2786 139.727 97.0793C139.527 96.2819 140.027 95.6838 140.826 95.7835C140.892 95.7835 140.959 95.7835 141.025 95.7835C140.726 95.2852 140.926 94.6871 141.525 94.4878C142.024 94.1888 142.524 94.1888 142.923 94.2884C142.923 94.2884 142.923 94.2552 142.923 94.1888C142.124 93.8898 141.225 92.9927 141.825 92.1954C142.324 91.5974 143.822 92.295 144.721 93.2917C145.42 93.8898 145.819 94.6872 145.32 95.6839C145.12 96.2819 144.621 96.5809 144.022 96.6806C144.088 96.747 144.122 96.7802 144.122 96.7802C144.222 97.5776 143.922 98.5743 143.123 98.8733C142.99 98.8733 142.89 98.8733 142.823 98.8733C142.757 99.0727 142.623 99.3053 142.424 99.5711C142.357 99.7039 142.257 99.8036 142.124 99.8701C142.058 99.9365 142.024 99.9697 142.024 99.9697C141.025 101.265 140.926 101.465 139.827 100.568C138.728 99.7704 138.529 98.076 140.027 97.6773Z" fill="white"/>
<path fill-rule="evenodd" clip-rule="evenodd" d="M140.825 101.365C140.525 101.365 140.125 101.166 139.626 100.767C138.927 100.269 138.527 99.3719 138.727 98.5746C138.827 98.0762 139.127 97.6775 139.626 97.4782C139.559 97.4117 139.526 97.2789 139.526 97.0795C139.326 96.6808 139.426 96.2821 139.726 95.9831C139.926 95.6841 140.225 95.5844 140.625 95.4847C140.625 95.3519 140.658 95.1857 140.725 94.9864C140.825 94.6874 141.024 94.3884 141.424 94.189C141.623 94.1226 141.823 94.0561 142.023 93.9897C141.723 93.7903 141.524 93.4914 141.424 93.0927C141.357 92.694 141.457 92.3285 141.723 91.9963C141.823 91.8966 141.923 91.6973 142.323 91.6973C143.122 91.6973 144.22 92.2953 144.919 93.0927C145.818 93.89 146.018 94.787 145.618 95.7837C145.352 96.3153 144.919 96.6808 144.32 96.8802C144.52 97.7772 144.12 98.7739 143.122 99.0729C143.055 99.0729 143.022 99.0729 143.022 99.0729C142.889 99.3387 142.755 99.538 142.622 99.6709C142.489 99.8703 142.356 100.003 142.223 100.07L142.123 100.169C141.524 100.967 141.224 101.365 140.825 101.365ZM139.926 100.369C140.824 101.066 140.825 101.066 141.823 99.8703V99.7706C141.823 99.7706 141.857 99.7706 141.923 99.7706V99.6709C142.056 99.6045 142.156 99.5048 142.223 99.3719C142.356 99.1726 142.489 98.9732 142.622 98.7739V98.6742L142.822 98.5746C142.889 98.5746 142.955 98.5746 143.022 98.5746C143.721 98.3752 144.02 97.5779 143.821 96.8802L143.721 96.4815L144.02 96.3818C144.553 96.3154 144.919 96.0496 145.119 95.5845C145.452 94.7871 145.286 94.0894 144.62 93.4913C143.921 92.694 142.922 92.1956 142.422 92.1956C142.356 92.1956 142.323 92.1956 142.323 92.1956C142.189 92.1956 142.09 92.2288 142.023 92.2953C141.89 92.4946 141.857 92.7272 141.923 92.993C142.023 93.3917 142.522 93.7903 143.022 93.9897C143.122 93.9897 143.122 94.0894 143.122 94.189L143.521 94.6874L142.922 94.5877C142.456 94.4549 142.023 94.4881 141.624 94.6874C141.424 94.7538 141.291 94.8868 141.224 95.0861C141.157 95.2854 141.157 95.4848 141.224 95.6841L141.524 96.0828H141.024C140.891 96.0828 140.791 96.0495 140.725 95.9831C140.525 95.9831 140.225 96.0828 140.025 96.2821C139.892 96.4814 139.859 96.714 139.926 96.9798C139.992 97.1127 140.092 97.2456 140.225 97.3785L140.425 97.7772L140.125 97.8769C139.593 98.0098 139.293 98.2755 139.227 98.6742C139.127 99.2723 139.426 99.97 139.926 100.369Z" fill="black"/>
<path d="M29.865 125.187C29.7984 125.187 29.6985 125.22 29.5653 125.287C29.5653 125.586 29.4655 125.785 29.2657 125.984C28.9661 126.184 28.7664 126.184 28.4667 125.984C28.4002 126.051 28.3669 126.084 28.3669 126.084C28.0673 126.383 27.6678 126.483 27.3682 126.283C27.2683 126.582 27.0685 126.782 26.7689 126.782C25.7702 126.881 25.2708 125.486 24.9712 124.788C24.9046 124.589 24.8713 124.423 24.8713 124.29C24.3387 124.223 23.6395 124.124 22.774 123.991C17.98 123.293 9.5907 119.406 3.69818 115.519C-2.09447 111.632 0.00287673 102.163 5.39603 95.784C5.39603 95.7175 5.39603 95.6843 5.39603 95.6843C9.69059 90.6011 14.5844 100.568 13.6855 101.366C13.3526 101.698 13.0197 102.096 12.6868 102.562C10.9889 104.954 9.0913 109.14 9.59066 109.439C10.09 109.738 12.7866 112.828 13.6855 113.525C15.3834 114.821 17.98 116.316 20.5767 117.712C24.5717 119.805 28.4667 121.599 28.5666 121.798C28.5666 121.798 28.5001 121.865 28.3669 121.997C28.4335 122.064 28.5 122.097 28.5666 122.097C28.6665 122.097 28.8662 122.097 29.066 122.296C29.3656 122.894 30.9636 124.589 29.865 125.187Z" fill="white"/>
<path fill-rule="evenodd" clip-rule="evenodd" d="M26.6715 127.08C25.6727 127.08 25.0735 125.884 24.7739 124.888C24.7073 124.755 24.674 124.622 24.674 124.489C24.0748 124.423 23.4422 124.356 22.7764 124.29C18.0823 123.592 9.89274 119.904 3.50085 115.718C1.60326 114.422 0.404757 112.429 0.105137 109.937C-0.494103 105.651 1.5034 99.9699 5.19871 95.6841V95.5844C6.26403 94.3219 7.42921 93.8236 8.69428 94.0894C11.291 94.6874 13.3883 98.4748 13.8877 100.269C14.0874 100.933 14.0874 101.365 13.8877 101.565C13.6214 101.83 13.2885 102.229 12.889 102.761C11.1911 105.053 9.59311 108.841 9.79286 109.339C9.99261 109.339 10.492 109.937 11.3909 110.934C12.2897 111.93 13.3883 113.027 13.8877 113.326C15.2859 114.422 17.583 115.818 20.6791 117.412C22.9762 118.708 25.1734 119.804 26.6715 120.602C28.3693 121.399 28.6689 121.499 28.7688 121.598L28.9685 121.798L28.8687 121.897C29.0019 121.964 29.135 122.064 29.2682 122.196C29.3347 122.263 29.4013 122.363 29.4679 122.496C29.9673 123.094 30.6664 123.991 30.4666 124.788C30.4001 125.054 30.2336 125.253 29.9673 125.386C29.9673 125.386 29.934 125.419 29.8674 125.486C29.8008 125.818 29.6677 126.05 29.4679 126.183C29.2682 126.383 28.9685 126.482 28.569 126.283C28.2694 126.482 27.9698 126.682 27.4704 126.582C27.3373 126.848 27.1042 127.014 26.7713 127.08C26.7047 127.08 26.6715 127.08 26.6715 127.08ZM7.99515 94.488C7.19617 94.488 6.39715 94.9532 5.59817 95.8834V95.9831C2.00273 100.169 0.0052638 105.651 0.604504 109.837C0.937415 112.229 2.00274 114.057 3.80046 115.319C9.99261 119.406 18.382 123.094 22.8763 123.791C23.5421 123.858 24.2079 123.924 24.8738 123.991H25.0735L25.1734 124.19C25.1734 124.389 25.2066 124.555 25.2732 124.688C25.473 125.286 25.9724 126.682 26.6715 126.582C26.9378 126.582 27.0709 126.482 27.0709 126.283L27.1708 125.984L27.3706 126.084C27.87 126.183 28.0697 126.084 28.1696 125.984L28.3693 125.685L28.569 125.785C28.8686 125.984 28.9686 125.884 29.1683 125.785C29.3015 125.718 29.3681 125.552 29.3681 125.286V124.987H29.5678C29.6343 124.987 29.7009 124.987 29.7675 124.987C29.9673 124.888 29.9673 124.688 29.9673 124.688C30.0671 124.19 29.4679 123.293 29.0684 122.795C28.9352 122.662 28.8354 122.562 28.7688 122.496C28.7688 122.363 28.7022 122.329 28.569 122.396H28.4692L28.3693 122.296C28.3027 122.296 28.2694 122.263 28.2694 122.196L27.9698 122.097L28.1696 121.897C27.8699 121.698 27.1708 121.399 26.4717 121C24.9736 120.203 22.7764 119.107 20.4793 117.911C17.3832 116.216 14.9863 114.821 13.588 113.724C12.9888 113.326 11.9901 112.229 11.0912 111.233C10.3921 110.535 9.693 109.738 9.49325 109.638C9.39338 109.638 9.29349 109.538 9.29349 109.339C9.09375 108.442 10.9914 104.555 12.4894 102.462C12.8889 101.93 13.2219 101.531 13.4882 101.266C13.7878 100.767 12.3896 96.9798 9.99262 95.2854C9.3268 94.7538 8.66097 94.488 7.99515 94.488Z" fill="black"/>
<path d="M30.067 122.794L28.7686 122.894L26.8711 121.2L28.8686 121.598L30.067 122.794Z" fill="white"/>
<path d="M3.80078 95.2854C7.79571 90.6009 13.5884 84.3216 17.9828 85.3183C20.6794 85.9164 20.2799 90.9 19.8804 93.0927C19.1813 97.7772 14.0877 102.86 13.2887 103.658C8.49483 102.362 5.69837 99.4716 3.80078 95.2854Z" fill="#7977C6"/>
<path d="M53.7381 120.9C53.7381 120.768 53.7714 120.635 53.838 120.502C54.1376 120.003 54.637 120.003 54.9366 120.402C54.9366 120.402 54.9698 120.435 55.0364 120.502C55.1363 120.203 55.436 120.003 55.8355 120.103C56.1684 120.236 56.4347 120.435 56.6344 120.701C56.6344 120.701 56.6344 120.668 56.6344 120.601C56.3348 120.103 56.4347 119.306 57.1338 119.206C57.5333 119.206 57.9328 120.203 57.8329 121.1C57.9328 121.698 57.733 122.196 57.0339 122.396C56.6344 122.595 56.3348 122.495 56.0352 122.296C55.9686 122.296 55.9353 122.329 55.9353 122.396C55.6357 122.794 55.0364 123.093 54.5371 122.794C54.4705 122.794 54.4372 122.761 54.4372 122.695C54.304 122.761 54.1376 122.827 53.9378 122.894C53.8047 122.894 53.7048 122.861 53.6382 122.794C53.5717 122.794 53.5383 122.794 53.5383 122.794C52.4397 122.994 52.3399 122.994 52.24 122.097C52.1401 121.199 52.8392 120.302 53.7381 120.9Z" fill="white"/>
<path fill-rule="evenodd" clip-rule="evenodd" d="M54.9376 123.193C54.7379 123.193 54.5714 123.127 54.4382 122.994C54.3717 122.994 54.3384 122.994 54.3384 122.994C54.2052 123.06 54.072 123.093 53.9389 123.093C53.8057 123.093 53.6725 123.093 53.5394 123.093C52.4407 123.193 52.1412 123.193 51.9414 122.097C51.9414 121.499 52.1412 120.901 52.6405 120.602C52.9069 120.402 53.2064 120.369 53.5394 120.502C53.6059 120.435 53.6393 120.369 53.6393 120.303C53.7391 120.103 54.0388 119.904 54.3384 119.904C54.5381 119.837 54.7379 119.904 54.9376 120.103C55.0042 120.037 55.104 119.97 55.2372 119.904C55.437 119.771 55.67 119.771 55.9363 119.904C56.0695 119.904 56.1694 119.937 56.2359 120.004C56.2359 119.804 56.3025 119.605 56.4357 119.405C56.5689 119.14 56.7686 119.007 57.0349 119.007C57.2347 119.007 57.3345 119.007 57.5343 119.206C57.9338 119.605 58.1336 120.402 58.1336 121.1C58.1336 121.897 57.8339 122.396 57.1348 122.695C56.7353 122.828 56.3691 122.794 56.0362 122.595C55.7366 122.994 55.3371 123.193 54.9376 123.193ZM54.4382 122.396L54.5381 122.495C54.6047 122.562 54.638 122.595 54.638 122.595C55.0375 122.794 55.5368 122.495 55.7366 122.196L55.9363 121.997L56.1361 122.097C56.4024 122.296 56.6687 122.329 56.9351 122.196C57.4011 121.997 57.6342 121.631 57.6342 121.1C57.6342 120.402 57.4344 119.804 57.2347 119.605C57.1681 119.538 57.1348 119.505 57.1348 119.505C57.0017 119.505 56.9018 119.572 56.8352 119.704C56.7353 119.904 56.7353 120.203 56.8352 120.602V120.701L56.7353 121.299L56.3359 120.801C56.2027 120.602 56.0029 120.435 55.7366 120.303C55.67 120.303 55.5701 120.303 55.437 120.303C55.3704 120.369 55.3038 120.469 55.2372 120.602L55.1374 121L54.7378 120.502C54.6047 120.435 54.4716 120.402 54.3384 120.402C54.2052 120.402 54.1053 120.469 54.0387 120.602C54.0387 120.668 54.0055 120.768 53.9389 120.901L53.839 121.2L53.5394 121.1C53.3396 120.901 53.1399 120.867 52.9401 121C52.6405 121.2 52.4408 121.598 52.4408 122.097C52.5406 122.695 52.5406 122.695 53.4395 122.595H53.6393C53.7724 122.595 53.8723 122.595 53.9389 122.595C54.072 122.595 54.2052 122.562 54.3384 122.495L54.4382 122.396Z" fill="black"/>
<path d="M199.653 210.605H175.184V110.834H199.653V210.605Z" fill="black"/>
<path d="M197.656 210.605H173.188V110.834H197.656V210.605Z" fill="#7977C6"/>
<path d="M168.793 210.605H144.324V128.875H168.793V210.605Z" fill="black"/>
<path d="M166.797 210.605H142.328V128.875H166.797V210.605Z" fill="#AAB6C2"/>
<path d="M137.93 210.604H113.461V150.204H137.93V210.604Z" fill="black"/>
<path d="M135.934 210.604H111.465V150.204H135.934V210.604Z" fill="white"/>
<path fill-rule="evenodd" clip-rule="evenodd" d="M136.234 210.804H111.266V149.905H136.234V210.804ZM111.765 210.305H135.735V150.403H111.765V210.305Z" fill="black"/>
<path d="M107.168 210.605H82.6992V173.627H107.168V210.605Z" fill="black"/>
<path d="M105.172 210.605H80.7031V173.627H105.172V210.605Z" fill="#7977C6"/>
<path d="M82.1039 82.5276L76.0116 81.3316L75.3125 73.3579H77.9092L82.1039 82.5276Z" fill="white"/>
<path d="M101.079 78.042L101.978 78.5403L102.977 80.8328L102.278 86.7134L99.9805 84.5206L101.079 78.042Z" fill="white"/>
<path d="M137.728 47.2441C137.728 56.3141 130.438 63.7894 121.249 63.7894C112.161 63.8891 104.67 56.5134 104.57 47.4434C104.57 38.2736 111.861 30.898 121.049 30.7984C130.138 30.6987 137.628 38.0743 137.728 47.2441Z" fill="#7977C6"/>
<path d="M119.251 57.0115C117.653 56.9118 114.957 54.2207 111.062 48.8385C110.662 48.1408 110.762 47.2438 111.461 46.7454C111.661 46.5461 111.927 46.4464 112.26 46.4464C112.76 46.4464 113.159 46.7454 113.459 47.1441C115.356 49.6358 117.554 52.327 118.752 53.523L118.952 53.7224L119.152 53.4233C121.149 50.1342 126.442 41.8615 128.64 38.373L128.739 38.2734C129.039 37.775 129.438 37.5757 129.938 37.5757C130.271 37.5757 130.537 37.6421 130.737 37.775C131.436 38.1737 131.636 39.0708 131.236 39.7685C131.136 39.9678 121.848 54.5197 121.049 56.1144C120.749 56.6128 120.15 57.0115 119.551 57.0115C119.484 57.0115 119.418 57.0115 119.351 57.0115H119.251Z" fill="white"/>
<path fill-rule="evenodd" clip-rule="evenodd" d="M130.835 37.5759C131.634 38.0742 131.933 39.1706 131.434 39.9679C128.837 43.9548 121.946 54.8189 121.247 56.2143C120.847 56.8124 120.248 57.211 119.549 57.3107C119.482 57.3107 119.416 57.3107 119.349 57.3107C119.283 57.3107 119.249 57.3107 119.249 57.3107C118.251 57.211 116.253 56.4136 110.86 48.9383C110.361 48.1409 110.46 47.1443 111.259 46.5462C111.592 46.3469 111.925 46.2472 112.258 46.2472C112.857 46.2472 113.357 46.4465 113.656 46.9449C115.454 49.337 117.651 52.1278 118.95 53.3238C121.347 49.4367 128.138 38.5726 128.537 38.0742C128.837 37.5759 129.436 37.2769 129.936 37.2769C130.269 37.2769 130.568 37.3765 130.835 37.5759ZM128.937 38.3732C128.637 38.8716 121.746 49.636 119.349 53.6228L119.05 54.1212L118.65 53.7226C117.352 52.5265 115.154 49.8354 113.257 47.2439C113.057 46.9449 112.658 46.7456 112.258 46.7456C111.992 46.7456 111.759 46.812 111.559 46.9449C111.293 47.1442 111.126 47.4101 111.06 47.7423C110.993 48.0745 111.06 48.3735 111.259 48.6393C115.055 53.9219 117.851 56.7127 119.249 56.8123H119.349C119.416 56.8123 119.449 56.8123 119.449 56.8123C120.048 56.7127 120.548 56.4136 120.747 55.9153C121.546 54.6195 128.438 43.7554 131.034 39.6689C131.334 39.0709 131.134 38.3732 130.635 37.9745C130.435 37.8416 130.202 37.7752 129.936 37.7752C129.536 37.7752 129.137 37.9745 128.937 38.3732Z" fill="black"/>
<path d="M93.2855 76.3483L89.3904 78.2421L87.9922 73.6572L88.7912 73.7569L92.1869 76.149L92.087 75.5509C92.087 75.2519 91.9871 74.4545 92.3866 74.3549C92.3866 74.3549 92.4532 74.3549 92.5864 74.3549C93.1856 74.3549 94.484 74.8533 94.9833 75.1523L96.4814 78.5411L93.2855 76.3483Z" fill="white"/>
<path fill-rule="evenodd" clip-rule="evenodd" d="M88.8899 73.4576L91.8861 75.5507C91.8861 75.5507 91.5865 74.3547 92.2856 74.1553C92.3522 74.0889 92.4521 74.0556 92.5852 74.0556C93.3842 74.0556 95.1819 74.9527 95.1819 74.9527L97.0795 79.2385L93.1844 76.6471L89.1895 78.5408L87.6914 73.3579L88.8899 73.4576ZM92.3855 74.554C92.2856 74.6536 92.2856 75.152 92.2856 75.451L92.4853 76.4477L92.9847 76.1487L93.2843 76.049L93.484 76.1487L95.881 77.8431L94.7824 75.3513C94.0833 74.9526 92.9847 74.554 92.4853 74.554C92.4187 74.554 92.3855 74.554 92.3855 74.554ZM89.4891 77.8431L92.2856 76.4477L91.4866 75.9494L88.6901 73.956H88.2907L89.4891 77.8431Z" fill="black"/>
<path d="M94.9878 77.4441L94.1888 79.0389L92.7906 78.9392L91.4922 77.2448L93.29 76.1484L94.9878 77.4441Z" fill="#7977C6"/>
<path d="M94.1869 79.0391C94.1869 79.0391 97.0832 88.5078 94.886 98.2756L91.8898 100.867L89.9922 98.1759C89.9922 98.1759 93.4878 85.5177 92.7887 78.9395L94.1869 79.0391Z" fill="#7977C6"/>
<path d="M94.6833 71.1649L93.9841 74.3544C93.9841 74.3544 95.0828 76.3478 94.1839 76.5471C90.988 77.2448 88.8906 73.3576 88.8906 73.3576L90.189 68.1748L94.6833 71.1649Z" fill="white"/>
<path fill-rule="evenodd" clip-rule="evenodd" d="M93.3837 76.8464C90.5873 76.8464 88.7896 73.657 88.6897 73.4576L88.5898 73.3579L90.0879 67.7764L94.9817 71.0655L94.1827 74.3546C94.3825 74.7533 94.9817 75.8497 94.6821 76.4477C94.6155 76.6471 94.4491 76.7467 94.1827 76.7467C93.9164 76.8132 93.6501 76.8464 93.3837 76.8464ZM89.1891 73.3579C89.4887 73.8563 91.4862 76.9461 94.0829 76.348C94.1495 76.2816 94.1827 76.2484 94.1827 76.2484C94.3825 75.8497 93.983 75.0523 93.7833 74.554L93.6834 74.4543L94.3825 71.2648L90.3876 68.5737L89.1891 73.3579Z" fill="black"/>
<path d="M98.7831 62.892C98.7831 62.892 98.6832 66.3805 97.5846 69.6697C96.6858 72.0618 91.2926 73.5568 89.5948 68.8722C87.8969 64.088 91.0929 59.9019 91.0929 59.9019L98.7831 62.892Z" fill="white"/>
<path fill-rule="evenodd" clip-rule="evenodd" d="M93.6866 72.1616C91.6891 72.1616 90.0911 70.9655 89.392 68.8724C87.5943 64.0882 90.8901 59.8024 90.8901 59.7027L91.0899 59.603L98.9798 62.7925V62.8922C98.9798 62.9918 98.88 66.4803 97.7814 69.7695C97.282 71.0652 95.5842 72.1616 93.6866 72.1616ZM91.1897 60.2011C90.6904 60.9985 88.2935 64.6863 89.7916 68.7728C90.6904 71.2645 92.588 71.6632 93.6866 71.6632C95.3844 71.6632 96.8826 70.7662 97.282 69.6698C98.2808 66.7794 98.4805 63.7892 98.4805 63.0915L91.1897 60.2011Z" fill="black"/>
<path d="M89.6915 60.7992C90.1908 56.5134 99.1795 57.5101 101.077 60.0019C102.076 61.2976 101.976 63.3907 100.178 63.9887C99.2793 64.3874 98.1807 63.9887 97.2819 63.6897C95.3843 63.0917 93.5866 62.5933 91.5891 62.1946C91.5891 62.2611 91.5891 62.2943 91.5891 62.2943C91.4892 62.5933 91.3894 62.8923 91.2895 63.0917C90.9899 64.2877 90.9898 65.7828 90.1908 66.7795C89.5916 67.3775 88.6927 67.4772 87.9936 66.8791C87.2945 66.1814 87.7939 65.3841 87.7939 64.4871C87.7939 63.9887 87.7939 63.6897 88.1934 63.291C88.2932 63.0917 88.3931 63.0917 88.5929 62.992C88.493 62.8923 88.5929 62.7926 88.5929 62.5933C88.6928 61.8956 89.0922 61.1979 89.6915 60.7992Z" fill="black"/>
</svg>
