<svg width="228" height="212" viewBox="0 0 228 212" fill="none" xmlns="http://www.w3.org/2000/svg">
<path d="M34.4604 94.5875C88.1922 70.9655 60.8269 -9.66831 130.738 13.555C200.55 36.7783 204.245 78.5405 206.742 110.335C209.139 142.13 196.155 216.086 110.963 210.206C44.8472 205.721 17.2821 179.706 9.09253 159.473C5.09759 149.705 -2.09325 132.064 7.69434 113.525C12.4883 104.256 24.8725 98.7737 34.4604 94.5875Z" fill="#E6EBF0"/>
<path d="M34.4604 94.5875C88.1922 70.9655 60.8269 -9.66831 130.738 13.555C200.55 36.7783 204.245 78.5405 206.742 110.335C209.139 142.13 196.155 216.086 110.963 210.206C44.8472 205.721 17.2821 179.706 9.09253 159.473C5.09759 149.705 -2.09325 132.064 7.69434 113.525C12.4883 104.256 24.8725 98.7737 34.4604 94.5875Z" fill="#E6EBF0"/>
<path d="M15.8829 62.2943C24.472 48.0413 48.0421 34.4861 62.4238 33.1903C76.7057 31.8946 62.1242 49.1377 48.7412 65.7827C36.8563 80.7334 25.271 84.1222 17.2811 83.3248C15.2836 83.1255 13.4859 81.8298 12.6869 79.936C11.3886 76.7465 10.5896 70.9656 15.8829 62.2943Z" fill="#E6EBF0"/>
<path d="M34.4604 94.5875C88.1922 70.9655 60.8269 -9.66831 130.738 13.555C200.55 36.7783 204.245 78.5405 206.742 110.335C209.139 142.13 196.155 216.086 110.963 210.206C44.8472 205.721 17.2821 179.706 9.09253 159.473C5.09759 149.705 -2.09325 132.064 7.69434 113.525C12.4883 104.256 24.8725 98.7737 34.4604 94.5875Z" fill="#E6EBF0"/>
<path d="M199.645 212H10.0859V210.604H199.645V212Z" fill="black"/>
<path fill-rule="evenodd" clip-rule="evenodd" d="M51.4376 146.317H33.6602V136.549H51.4376V146.317ZM34.6589 145.32H50.4389V137.646H34.6589V145.32Z" fill="#AAB6C2"/>
<path fill-rule="evenodd" clip-rule="evenodd" d="M39.254 154.988H21.4766V145.32H39.254V154.988ZM22.4753 153.991H38.2553V146.217H22.4753V153.991Z" fill="#AAB6C2"/>
<path fill-rule="evenodd" clip-rule="evenodd" d="M95.3829 62.6931H77.6055V52.9253H95.3829V62.6931ZM78.6042 61.6964H94.3842V53.922H78.6042V61.6964Z" fill="#AAB6C2"/>
<path fill-rule="evenodd" clip-rule="evenodd" d="M126.641 170.139H108.863V160.371H126.641V170.139ZM109.862 169.142H125.642V161.467H109.862V169.142Z" fill="#AAB6C2"/>
<path fill-rule="evenodd" clip-rule="evenodd" d="M109.863 170.139H92.0859V160.371H109.863V170.139ZM93.0847 169.142H108.865V161.467H93.0847V169.142Z" fill="#AAB6C2"/>
<path fill-rule="evenodd" clip-rule="evenodd" d="M118.254 178.81H100.477V169.142H118.254V178.81ZM101.475 177.713H117.255V170.039H101.475V177.713Z" fill="#AAB6C2"/>
<path fill-rule="evenodd" clip-rule="evenodd" d="M112.164 107.047H94.3867V97.3784H112.164V107.047ZM95.3855 105.95H111.165V98.2754H95.3855V105.95Z" fill="#AAB6C2"/>
<path fill-rule="evenodd" clip-rule="evenodd" d="M124.348 115.818H106.57V106.05H124.348V115.818ZM107.569 114.821H123.349V107.147H107.569V114.821Z" fill="#AAB6C2"/>
<path fill-rule="evenodd" clip-rule="evenodd" d="M182.172 74.0558H164.395V64.3877H182.172V74.0558ZM165.393 72.9594H181.173V65.2848H165.393V72.9594Z" fill="#AAB6C2"/>
<path fill-rule="evenodd" clip-rule="evenodd" d="M165.395 74.0558H147.617V64.3877H165.395V74.0558ZM148.616 72.9594H164.396V65.2848H148.616V72.9594Z" fill="#AAB6C2"/>
<path fill-rule="evenodd" clip-rule="evenodd" d="M173.785 82.8268H156.008V73.0591H173.785V82.8268ZM157.007 81.8301H172.787V74.1555H157.007V81.8301Z" fill="#AAB6C2"/>
<path d="M190.722 188.205C143.322 186.505 139.922 185.105 67.5217 203.405C-8.37834 222.505 -18.9783 105.105 29.1217 75.0055C77.2217 44.9055 92.4216 11.1055 122.322 5.2055C216.722 -13.3945 250.122 190.305 190.722 188.205Z" fill="#E6EBF0"/>
<path d="M29.0216 33.2054C40.0216 21.6054 53.7216 -13.2946 60.3216 5.40542C67.0216 24.2054 55.3216 43.6054 41.3216 54.8054C12.0216 78.1054 13.0216 50.0054 29.0216 33.2054Z" fill="#E6EBF0"/>
<path d="M213.821 206.905H6.62109V205.505H213.821V206.905Z" fill="black"/>
<path d="M203.722 148.406C205.022 148.406 206.322 148.006 207.322 147.206C207.422 149.506 207.222 151.706 206.822 154.006C205.322 156.306 201.322 160.606 201.622 160.506C202.722 160.406 203.822 160.106 204.822 159.806C204.155 161.206 203.355 162.539 202.422 163.806C200.422 166.406 197.722 168.406 196.622 171.606C196.622 171.672 196.589 171.706 196.522 171.706C196.522 171.906 196.322 172.006 196.122 171.906C190.922 166.906 190.022 159.406 189.222 152.606C189.222 152.339 189.189 152.039 189.122 151.706C190.622 153.106 192.122 154.406 193.922 155.406C194.222 155.606 190.722 149.906 188.922 147.306C189.022 145.706 189.222 144.106 189.822 142.506C191.122 139.206 193.122 136.206 195.222 133.406C195.289 133.272 195.355 133.139 195.422 133.006C196.022 134.472 196.789 135.839 197.722 137.106C197.822 137.306 197.322 133.006 197.022 131.006C197.489 130.339 197.989 129.706 198.522 129.106C199.222 128.306 200.122 126.906 201.322 127.106C202.522 127.306 205.322 132.206 205.722 133.606C205.855 134.272 205.989 134.906 206.122 135.506C206.189 135.772 206.222 136.039 206.222 136.306C206.722 138.806 207.022 141.306 207.222 143.906C207.089 144.039 206.989 144.172 206.922 144.306C205.922 145.606 203.422 148.406 203.722 148.406Z" fill="black"/>
<path d="M199.223 196.506C197.223 187.406 196.223 179.406 196.123 171.906C196.056 171.839 196.023 171.739 196.023 171.606C196.023 170.739 196.056 169.872 196.123 169.006C196.123 167.672 196.156 166.339 196.223 165.006C196.223 164.939 196.223 164.872 196.223 164.806C196.423 161.206 196.723 157.506 197.123 153.906C197.123 153.906 197.089 153.906 197.023 153.906C195.756 152.439 194.789 150.772 194.123 148.906C194.056 148.706 194.089 148.539 194.223 148.406C194.323 148.306 194.523 148.206 194.623 148.206C194.923 148.206 195.023 148.306 195.123 148.506C195.656 149.906 196.356 151.206 197.223 152.406C197.356 151.539 197.456 150.706 197.523 149.906C197.456 149.839 197.423 149.772 197.423 149.706C195.823 147.506 194.523 145.006 193.723 142.406C193.656 142.206 193.689 142.039 193.823 141.906C193.923 141.806 194.123 141.706 194.223 141.706C194.523 141.706 194.623 141.806 194.723 142.006C195.456 144.272 196.456 146.372 197.723 148.306C198.423 143.306 199.123 138.406 200.123 133.706C200.123 133.506 200.323 133.306 200.623 133.306C200.823 133.306 200.989 133.372 201.123 133.506C201.189 133.639 201.223 133.772 201.223 133.906C200.523 137.406 199.823 141.206 199.323 145.006C201.523 144.506 203.323 142.906 204.823 141.606C204.956 141.472 205.089 141.406 205.223 141.406C205.423 141.406 205.623 141.606 205.723 141.806C205.723 142.006 205.723 142.306 205.523 142.406C203.623 144.106 201.623 145.706 199.123 146.206C198.323 152.206 197.723 158.306 197.323 164.406C198.123 163.739 198.789 163.006 199.323 162.206C199.456 162.072 199.589 162.006 199.723 162.006C199.923 162.006 200.123 162.106 200.223 162.306C200.323 162.406 200.323 162.706 200.223 162.806C199.489 163.939 198.556 164.906 197.423 165.706C197.423 165.706 197.389 165.706 197.323 165.706C197.256 166.639 197.223 167.572 197.223 168.506C197.023 176.906 198.023 185.706 200.323 196.306V196.506L199.323 196.806L199.223 196.506Z" fill="white"/>
<path fill-rule="evenodd" clip-rule="evenodd" d="M201.223 133.306C201.423 133.506 201.489 133.739 201.423 134.006C200.723 137.406 200.123 141.006 199.623 144.706C201.623 144.106 203.323 142.606 204.723 141.406C204.856 141.273 205.023 141.206 205.223 141.206C205.523 141.206 205.823 141.406 205.923 141.706C206.023 142.006 205.923 142.406 205.723 142.606C203.823 144.306 201.823 145.906 199.323 146.406C198.523 152.206 198.023 158.006 197.623 163.806C198.223 163.273 198.723 162.706 199.123 162.106C199.323 161.806 199.523 161.706 199.723 161.706C200.023 161.706 200.323 161.906 200.423 162.106C200.623 162.406 200.623 162.706 200.423 163.006C199.689 164.139 198.756 165.106 197.623 165.906C197.556 165.906 197.523 165.906 197.523 165.906C197.523 166.773 197.489 167.639 197.423 168.506C197.323 176.906 198.223 185.706 200.523 196.306L200.623 196.706L200.123 196.806L199.923 196.906C199.789 196.906 199.689 196.939 199.623 197.006L199.123 197.106L199.023 196.606C197.023 187.506 196.023 179.406 195.823 172.006C195.756 171.873 195.723 171.739 195.723 171.606C195.789 170.739 195.823 169.873 195.823 169.006C195.823 167.606 195.889 166.239 196.023 164.906C196.023 164.839 196.023 164.773 196.023 164.706C196.223 161.206 196.523 157.606 196.823 154.006C195.556 152.539 194.589 150.873 193.923 149.006C193.823 148.806 193.823 148.506 194.023 148.306C194.123 148.106 194.423 147.906 194.623 147.906C195.023 147.906 195.223 148.106 195.423 148.406C195.823 149.606 196.389 150.706 197.123 151.706C197.189 151.106 197.256 150.539 197.323 150.006C197.256 149.939 197.223 149.906 197.223 149.906C195.623 147.606 194.323 145.106 193.523 142.506C193.423 142.206 193.423 142.006 193.623 141.806C193.723 141.606 194.023 141.406 194.223 141.406C194.623 141.406 194.923 141.606 195.023 142.006C195.623 143.939 196.489 145.806 197.623 147.606C198.223 142.906 198.923 138.206 199.823 133.706C199.923 133.306 200.223 133.006 200.623 133.006C200.923 133.006 201.123 133.106 201.223 133.306ZM200.323 133.806C199.323 138.806 198.523 143.873 197.923 149.006C196.456 146.873 195.323 144.573 194.523 142.106C194.456 141.973 194.356 141.906 194.223 141.906C194.123 141.906 193.923 142.106 193.923 142.306C194.789 144.906 196.023 147.339 197.623 149.606C197.689 149.673 197.756 149.706 197.823 149.706C197.689 150.839 197.556 151.939 197.423 153.006C196.356 151.673 195.523 150.206 194.923 148.606C194.856 148.473 194.756 148.406 194.623 148.406C194.523 148.406 194.323 148.606 194.323 148.806C195.056 150.606 196.023 152.239 197.223 153.706C197.289 153.773 197.323 153.806 197.323 153.806C196.989 157.473 196.723 161.139 196.523 164.806C196.523 164.873 196.523 164.939 196.523 165.006C196.389 166.339 196.323 167.673 196.323 169.006C196.323 169.873 196.289 170.773 196.223 171.706C196.223 171.773 196.256 171.839 196.323 171.906C196.523 180.206 197.723 188.406 199.523 196.506C199.656 196.439 199.823 196.406 200.023 196.406C198.123 187.206 196.723 177.906 196.923 168.506C196.989 167.506 197.023 166.506 197.023 165.506C197.089 165.506 197.123 165.506 197.123 165.506C197.189 165.506 197.256 165.506 197.323 165.506C198.389 164.706 199.289 163.773 200.023 162.706C200.123 162.506 199.923 162.206 199.723 162.206C199.656 162.206 199.589 162.239 199.523 162.306C198.856 163.373 198.056 164.239 197.123 164.906C197.456 158.573 198.056 152.239 198.923 145.906C201.523 145.506 203.423 143.906 205.323 142.206C205.623 142.006 205.423 141.706 205.223 141.706C205.156 141.706 205.089 141.739 205.023 141.806C203.223 143.306 201.423 144.906 199.023 145.306C199.556 141.506 200.189 137.706 200.923 133.906C201.023 133.706 200.823 133.506 200.623 133.506C200.523 133.506 200.423 133.606 200.323 133.806Z" fill="black"/>
<path d="M191.422 177.906H191.322C190.122 176.506 188.322 175.706 186.522 175.006C185.722 174.706 184.923 174.306 184.123 173.906C183.189 173.372 182.289 172.772 181.422 172.106C182.122 172.006 182.922 171.906 183.822 171.606H183.922L184.022 171.406C184.022 171.206 184.022 171.206 182.222 170.406C180.822 169.706 178.722 168.706 177.522 168.006C176.722 166.739 176.022 165.272 175.422 163.606C175.689 163.672 175.956 163.706 176.222 163.706C177.022 163.706 177.789 163.539 178.522 163.206H178.722V163.006C178.722 162.806 178.723 162.706 176.623 161.706C175.923 161.406 175.123 161.006 174.623 160.706C174.556 160.639 174.489 160.572 174.422 160.506C173.722 158.206 173.322 156.406 173.022 154.706C172.956 154.439 172.922 154.206 172.922 154.006C172.856 153.539 172.789 153.039 172.722 152.506C172.622 151.406 173.522 146.906 174.322 146.406C174.522 146.272 174.756 146.239 175.022 146.306C175.622 146.306 176.222 146.606 176.722 146.806C176.856 146.872 176.989 146.939 177.123 147.006C177.723 147.272 178.289 147.572 178.822 147.906C179.122 149.406 179.822 152.806 180.222 152.806H180.422L180.522 152.606C180.922 151.472 181.156 150.306 181.222 149.106C183.622 150.506 186.322 152.106 188.322 154.206C189.122 155.006 189.822 156.106 190.422 157.306C190.222 158.206 188.323 164.906 188.623 165.206V165.306H188.922V165.206C189.922 164.206 190.822 162.906 191.722 161.306C191.722 161.372 191.722 161.439 191.722 161.506C192.922 166.406 194.422 172.506 191.522 178.006L191.422 177.906Z" fill="white"/>
<path fill-rule="evenodd" clip-rule="evenodd" d="M177.222 146.806C177.822 147.073 178.456 147.373 179.122 147.706C179.422 149.206 180.122 152.506 180.222 152.506C180.689 151.239 180.956 149.973 181.022 148.706C181.089 148.773 181.189 148.839 181.322 148.906C183.822 150.306 186.522 151.906 188.522 154.006C189.422 155.006 190.122 156.106 190.722 157.306C190.022 159.806 188.622 165.006 188.822 165.006C190.022 163.706 190.922 162.206 191.822 160.606C191.889 160.873 191.922 161.139 191.922 161.406C193.322 166.706 194.722 172.706 191.722 178.106C191.656 178.239 191.589 178.306 191.522 178.306C191.456 178.239 191.389 178.173 191.322 178.106C191.256 178.106 191.222 178.106 191.222 178.106C189.322 176.106 186.422 175.406 184.022 174.106C182.822 173.506 181.756 172.773 180.822 171.906C181.722 171.806 182.722 171.706 183.722 171.406C183.922 171.306 179.322 169.406 177.422 168.206C176.422 166.706 175.622 165.006 175.022 163.306C175.422 163.373 175.822 163.406 176.222 163.406C176.956 163.406 177.689 163.273 178.422 163.006C178.722 162.906 175.822 161.606 174.522 160.906C174.389 160.839 174.289 160.773 174.222 160.706C173.622 158.806 173.122 156.706 172.722 154.706C172.722 154.506 172.689 154.306 172.622 154.106C172.556 153.573 172.522 153.039 172.522 152.506C172.322 151.406 173.222 146.706 174.222 146.206C174.489 146.073 174.756 146.006 175.022 146.006C175.822 146.006 176.622 146.506 177.222 146.806ZM174.522 146.606C173.822 147.006 172.822 151.206 173.022 152.506C173.022 152.973 173.056 153.473 173.122 154.006C173.189 154.206 173.222 154.406 173.222 154.606C173.522 156.306 173.922 158.106 174.622 160.406C174.689 160.406 174.722 160.439 174.722 160.506C175.222 160.806 176.022 161.106 176.722 161.506C178.822 162.506 179.022 162.606 179.022 163.006L178.922 163.306L178.622 163.506C177.889 163.773 177.089 163.906 176.222 163.906C176.089 163.906 175.922 163.906 175.722 163.906C176.322 165.373 177.022 166.673 177.822 167.806C178.922 168.506 180.922 169.506 182.322 170.106C184.222 171.006 184.222 171.006 184.222 171.406V171.806L183.822 171.906C183.222 172.106 182.622 172.239 182.022 172.306C182.756 172.773 183.489 173.239 184.222 173.706C185.022 174.106 185.822 174.406 186.622 174.806C188.322 175.506 190.122 176.206 191.422 177.606C194.022 172.506 192.722 166.706 191.622 162.006C190.822 163.406 190.022 164.406 189.122 165.406L189.022 165.506H188.822H188.522L188.422 165.306C188.222 165.106 188.122 165.106 188.922 161.906C189.322 160.406 189.822 158.606 190.122 157.406C189.589 156.206 188.922 155.173 188.122 154.306C186.322 152.406 183.722 150.906 181.422 149.506C181.356 150.639 181.122 151.706 180.722 152.706L180.622 153.006H180.222C179.922 153.006 179.622 153.006 178.622 148.006C178.089 147.739 177.556 147.473 177.022 147.206C176.889 147.206 176.756 147.139 176.622 147.006C176.122 146.806 175.522 146.506 175.022 146.506C174.822 146.506 174.656 146.539 174.522 146.606Z" fill="black"/>
<path d="M195.523 197.806C194.523 190.306 192.923 182.806 190.023 175.806C189.689 175.072 189.356 174.339 189.023 173.606C189.023 173.672 188.956 173.706 188.823 173.706C187.689 173.506 186.656 173.106 185.723 172.506C185.423 172.306 185.723 171.906 186.023 172.106C186.889 172.639 187.823 173.006 188.823 173.206C186.756 168.539 184.423 163.972 181.823 159.506C181.823 159.506 181.823 159.539 181.823 159.606C179.523 160.106 177.323 159.506 175.223 158.906C174.923 158.806 175.123 158.306 175.423 158.406C177.323 159.006 179.423 159.606 181.523 159.106C179.989 156.439 178.356 153.772 176.623 151.106C176.423 150.906 176.923 150.606 177.023 150.906C179.356 154.372 181.523 157.906 183.523 161.506C184.189 159.439 184.489 157.339 184.423 155.206C184.423 154.906 184.923 154.906 185.023 155.206C185.023 157.472 184.656 159.706 183.923 161.906C183.923 161.972 183.889 162.006 183.823 162.006C184.289 162.806 184.723 163.606 185.123 164.406C185.656 163.072 185.956 161.672 186.023 160.206C186.023 159.906 186.523 159.906 186.523 160.206C186.456 161.806 186.123 163.372 185.523 164.906C185.456 164.906 185.423 164.939 185.423 165.006C186.823 167.606 188.123 170.272 189.323 173.006C189.389 173.006 189.423 173.039 189.423 173.106C189.889 174.039 190.323 175.006 190.723 176.006C190.989 176.672 191.256 177.339 191.523 178.006C191.523 178.072 191.523 178.139 191.523 178.206C193.823 184.506 195.123 191.006 196.023 197.706C195.823 197.772 195.656 197.806 195.523 197.806Z" fill="black"/>
<path d="M177.123 156.306C175.523 156.039 174.056 155.506 172.723 154.706C172.723 154.506 172.69 154.306 172.623 154.106C174.023 154.973 175.556 155.573 177.223 155.906C177.623 155.906 177.423 156.406 177.123 156.306Z" fill="black"/>
<path d="M227.023 160.306C227.023 162.406 222.023 163.406 220.523 164.006C217.023 165.306 213.723 166.606 211.123 169.306C208.123 172.606 205.523 176.406 202.923 180.006C202.823 180.206 202.523 180.306 202.323 180.306C202.323 180.306 202.023 179.606 201.623 178.706C200.723 176.506 199.323 172.506 199.723 170.206C199.923 168.606 200.523 167.006 201.223 165.606C201.423 166.306 201.723 167.006 202.223 167.506C202.323 167.706 202.623 164.606 202.823 163.306C203.023 162.973 203.256 162.673 203.523 162.406C204.056 161.806 204.656 161.273 205.323 160.806C205.456 160.673 205.589 160.573 205.723 160.506C206.256 160.106 206.823 159.739 207.423 159.406C207.556 159.273 207.689 159.173 207.823 159.106C208.356 158.773 208.923 158.506 209.523 158.306C209.723 159.306 209.923 160.306 210.423 161.306C210.523 161.506 210.723 158.906 210.823 157.806C211.356 157.606 211.889 157.406 212.423 157.206C212.523 157.906 212.823 158.606 213.123 159.206C213.123 159.306 213.923 157.606 214.123 156.806C215.923 156.506 217.723 156.306 219.423 156.406C219.556 156.406 219.689 156.406 219.823 156.406C220.289 156.473 220.756 156.539 221.223 156.606C222.923 156.906 226.923 157.906 227.023 160.206C227.023 160.206 227.023 160.239 227.023 160.306Z" fill="#AAB6C2"/>
<path d="M227.023 160.306C227.023 162.406 222.023 163.406 220.523 164.006C217.023 165.306 213.723 166.606 211.123 169.306C208.123 172.606 205.523 176.406 202.923 180.006C202.856 180.073 202.79 180.139 202.723 180.206C202.123 181.606 202.023 183.206 201.923 184.806C201.79 187.873 201.79 190.939 201.923 194.006C201.923 194.739 201.956 195.439 202.023 196.106C201.823 196.173 201.623 196.206 201.423 196.206C201.356 195.073 201.29 193.973 201.223 192.906C201.223 189.406 201.023 185.906 201.523 182.506C201.656 181.506 201.956 180.573 202.423 179.706C202.623 177.506 203.923 170.006 208.123 165.906C212.923 161.106 220.423 161.006 227.023 160.306Z" fill="black"/>
<path d="M207.523 163.906C207.257 162.373 207.224 160.873 207.424 159.406C207.557 159.273 207.69 159.173 207.823 159.106C207.623 160.706 207.657 162.273 207.924 163.806C208.024 164.106 207.623 164.206 207.523 163.906Z" fill="black"/>
<path d="M205.922 164.806C205.589 163.473 205.389 162.139 205.322 160.806C205.456 160.673 205.589 160.573 205.722 160.506C205.789 161.906 205.989 163.306 206.322 164.706C206.422 164.906 206.022 165.006 205.922 164.806Z" fill="black"/>
<path d="M213.323 193.006C213.323 194.139 213.223 195.206 213.023 196.206C212.223 200.006 210.023 203.206 207.023 205.406H189.023C186.023 203.206 183.823 200.006 183.023 196.206C182.823 195.206 182.723 194.139 182.723 193.006C182.723 191.873 182.856 190.773 183.123 189.706C183.323 188.773 183.589 187.906 183.923 187.106H212.123C212.456 187.906 212.723 188.773 212.923 189.706C213.189 190.773 213.323 191.873 213.323 193.006Z" fill="#7977C6"/>
<path d="M213.323 193.006C213.323 194.139 213.223 195.206 213.023 196.206C212.223 200.006 210.023 203.206 207.023 205.406H189.023C212.523 206.606 212.123 187.106 212.123 187.106C212.457 187.906 212.723 188.773 212.923 189.706C213.19 190.773 213.323 191.873 213.323 193.006Z" fill="black"/>
<path fill-rule="evenodd" clip-rule="evenodd" d="M210.323 42.7056C209.123 45.1056 207.523 47.2056 205.623 49.0056L208.123 54.0056L200.523 58.6056L197.223 54.1056C194.823 54.9056 192.223 55.3056 189.523 55.3056L187.723 60.6056L179.123 58.4056L180.023 52.9056C177.623 51.7056 175.523 50.1056 173.723 48.3056L168.623 50.7056L164.123 43.2056L168.623 39.8056C167.823 37.4056 167.423 34.8056 167.423 32.1056L162.123 30.3056L164.223 21.7056L169.823 22.6056C171.023 20.2056 172.523 18.1056 174.423 16.3056L171.923 11.3056L179.523 6.70557L182.823 11.2056C185.323 10.4056 187.923 10.0056 190.523 10.1056L192.423 4.70557L201.023 6.90557L200.123 12.4056C202.523 13.6056 204.623 15.2056 206.423 17.0056L211.423 14.6056L216.023 22.2056L211.523 25.5056C212.323 27.9056 212.723 30.5056 212.623 33.2056L217.923 35.0056L215.823 43.6056L210.323 42.7056ZM205.623 36.5056C207.823 27.9056 202.523 19.2056 193.923 17.1056C185.323 14.9056 176.623 20.2056 174.523 28.8056C172.423 37.4056 177.623 46.1056 186.223 48.2056C194.823 50.3056 203.523 45.1056 205.623 36.5056Z" fill="#7977C6"/>
<path fill-rule="evenodd" clip-rule="evenodd" d="M218.723 80.7056C218.256 81.6389 217.623 82.4722 216.823 83.2056L217.923 85.3056L214.823 87.2056L213.423 85.3056C212.423 85.6389 211.39 85.8056 210.323 85.8056L209.523 88.0056L206.023 87.1056L206.423 84.8056C205.423 84.3389 204.556 83.7056 203.823 82.9056L201.723 83.9056L199.923 80.8056L201.723 79.5056C201.39 78.5056 201.223 77.4389 201.223 76.3056L199.123 75.6056L199.923 72.1056L202.223 72.4056C202.69 71.4722 203.323 70.6389 204.123 69.9056L203.123 67.8056L206.223 65.9056L207.523 67.8056C208.523 67.4722 209.59 67.3056 210.723 67.3056L211.423 65.2056L214.923 66.0056L214.623 68.3056C215.556 68.7722 216.39 69.4056 217.123 70.2056L219.223 69.2056L221.123 72.3056L219.223 73.6056C219.556 74.6056 219.723 75.6722 219.723 76.8056L221.923 77.5056L221.023 81.0056L218.723 80.7056ZM216.823 78.2056C217.723 74.7056 215.523 71.1056 212.023 70.3056C208.523 69.4056 204.923 71.5056 204.123 75.0056C203.223 78.5056 205.423 82.1056 208.923 83.0056C212.423 83.8056 215.923 81.7056 216.823 78.2056Z" fill="black"/>
<path fill-rule="evenodd" clip-rule="evenodd" d="M88.623 155.706C87.523 157.806 86.123 159.706 84.423 161.306L86.723 165.906L79.823 170.106L76.823 165.906C74.623 166.706 72.223 167.106 69.823 167.006L68.223 171.806L60.423 169.906L61.223 164.906C59.023 163.806 57.123 162.406 55.523 160.706L51.023 162.906L46.823 156.106L50.923 153.106C50.223 150.906 49.823 148.506 49.923 146.106L45.123 144.506L47.023 136.706L52.023 137.506C53.123 135.306 54.523 133.406 56.223 131.806L53.923 127.206L60.823 123.106L63.823 127.206C66.023 126.506 68.423 126.106 70.823 126.106L72.423 121.306L80.223 123.306L79.423 128.306C81.623 129.406 83.523 130.806 85.123 132.506L89.623 130.206L93.823 137.106L89.723 140.106C90.423 142.306 90.823 144.606 90.723 147.006L95.523 148.706L93.623 156.506L88.623 155.706ZM84.423 150.006C86.323 142.306 81.623 134.406 73.823 132.506C66.023 130.606 58.223 135.306 56.323 143.106C54.323 150.906 59.123 158.706 66.823 160.606C74.623 162.506 82.523 157.806 84.423 150.006Z" fill="#AAB6C2"/>
<path d="M111.021 130.605H114.021V146.605H111.021V130.605Z" fill="#AAB6C2"/>
<path d="M35.2207 129.906V32.9058H189.821V129.906H35.2207Z" fill="white"/>
<path fill-rule="evenodd" clip-rule="evenodd" d="M190.021 130.206H35.0215V32.7056H190.021V130.206ZM35.5215 33.1056V129.706H189.521V33.1056H35.5215Z" fill="black"/>
<path fill-rule="evenodd" clip-rule="evenodd" d="M104.521 151.906C104.521 147.406 108.121 143.906 112.521 143.906C116.921 143.906 120.521 147.406 120.521 151.906C120.521 156.306 116.921 159.906 112.521 159.906C108.121 159.906 104.521 156.306 104.521 151.906ZM108.122 151.906C108.122 154.306 110.121 156.206 112.521 156.206C114.921 156.206 116.922 154.306 116.922 151.906C116.922 149.506 114.921 147.506 112.521 147.506C110.121 147.506 108.122 149.506 108.122 151.906Z" fill="#7977C6"/>
<path d="M193.422 29.3056V35.1056C193.422 36.0056 192.721 36.7056 191.821 36.7056H33.2215C32.3215 36.7056 31.5215 36.0056 31.5215 35.1056V29.3056C31.5215 28.4056 32.3215 27.7056 33.2215 27.7056H191.821C192.721 27.7056 193.422 28.4056 193.422 29.3056Z" fill="black"/>
<path d="M193.422 126.806V132.606C193.422 133.506 192.721 134.206 191.821 134.206H33.2215C32.3215 134.206 31.5215 133.506 31.5215 132.606V126.806C31.5215 125.906 32.3215 125.206 33.2215 125.206H191.821C192.721 125.206 193.422 125.906 193.422 126.806Z" fill="black"/>
<path d="M151.32 113.806H77.3203V47.9058H78.0203V113.106H151.32V113.806Z" fill="black"/>
<path d="M80.5207 55.306H74.7207V54.606H80.5207V55.306Z" fill="black"/>
<path d="M80.5207 73.2059H74.7207V72.5059H80.5207V73.2059Z" fill="black"/>
<path d="M80.5207 91.1059H74.7207V90.5059H80.5207V91.1059Z" fill="black"/>
<path d="M97.2215 116.306H96.5215V110.506H97.2215V116.306Z" fill="black"/>
<path d="M118.221 116.306H117.621V110.506H118.221V116.306Z" fill="black"/>
<path d="M139.321 116.306H138.621V110.506H139.321V116.306Z" fill="black"/>
<path d="M100.521 63.5059V65.0059H85.5215V63.5059H100.521Z" fill="black"/>
<path d="M117.321 67.9058V69.4058H85.5215V67.9058H117.321Z" fill="black"/>
<path d="M110.721 72.3057L110.622 73.7057H85.5215V72.3057H110.721Z" fill="black"/>
<path d="M102.121 63.5059H106.721V65.0059H102.121V63.5059Z" fill="black"/>
<path d="M82.8203 106.105C82.8203 106.105 83.6203 106.205 85.0203 106.105C84.287 106.105 83.5536 106.105 82.8203 106.105Z" fill="black"/>
<path d="M137.62 63.3057C136.886 65.5723 136.086 67.7723 135.22 69.9057L134.72 71.0057C134.52 71.4057 134.353 71.7723 134.22 72.1057C134.02 72.5057 133.853 72.8723 133.72 73.2057L133.12 74.3057L132.92 74.9057L132.62 75.4057L132.02 76.5057C131.82 76.839 131.62 77.2057 131.42 77.6057C131.22 77.939 131.02 78.2723 130.82 78.6057C127.42 84.3057 123.12 89.5057 118.02 93.7057C115.42 95.8057 112.72 97.7057 109.92 99.3057C107.053 100.839 104.086 102.139 101.02 103.206C99.5529 103.672 98.0529 104.106 96.5195 104.506C94.9862 104.906 93.4529 105.206 91.9196 105.406C90.3862 105.672 88.8862 105.872 87.4196 106.006C86.6196 106.072 85.8195 106.106 85.0195 106.106C90.0195 105.906 102.52 104.006 115.82 91.2057C120.22 87.0057 123.82 82.0057 126.52 76.7057C128.72 72.3057 130.42 67.7057 131.62 62.9057L125.32 62.5057L137.72 46.8057L144.02 63.8057L137.62 63.3057Z" fill="black"/>
<path d="M84.7207 106.206C84.7207 106.206 85.5207 106.306 86.9207 106.206C86.1874 106.206 85.454 106.206 84.7207 106.206Z" fill="#7977C6"/>
<path d="M139.52 63.5059C138.787 65.7059 137.953 67.8725 137.02 70.0059L136.62 71.1059C136.42 71.5059 136.253 71.8725 136.12 72.2059C135.92 72.6059 135.72 72.9725 135.52 73.3059L135.02 74.4059L134.72 75.0059L134.42 75.5059L133.92 76.6059C133.72 77.0059 133.52 77.3725 133.32 77.7059C133.12 78.0392 132.887 78.4059 132.62 78.8059C129.32 84.4059 125.02 89.6059 119.92 93.8059C117.32 95.9059 114.62 97.8059 111.72 99.4059C108.853 100.939 105.92 102.239 102.92 103.306C101.453 103.773 99.9533 104.206 98.4199 104.606C96.8866 105.006 95.3532 105.339 93.8199 105.606C92.2866 105.806 90.7532 105.973 89.2199 106.106C88.4866 106.173 87.7199 106.206 86.9199 106.206C91.8199 106.006 104.42 104.106 117.72 91.3059C122.12 87.1059 125.72 82.2059 128.42 76.8059C130.62 72.4059 132.22 67.8059 133.42 63.1059L127.22 62.6059L139.62 47.0059L145.82 63.9059L139.52 63.5059Z" fill="#7977C6"/>
<path d="M137.721 46.8057L139.621 47.0057L138.321 48.5057L137.721 46.8057Z" fill="black"/>
<path d="M170.422 48.1055V49.5055H157.822V48.1055H170.422Z" fill="black"/>
<path d="M184.522 52.5054V53.9054H157.822V52.5054H184.522Z" fill="black"/>
<path d="M178.922 56.8057V58.3057H157.822V56.8057H178.922Z" fill="black"/>
<path d="M171.723 48.1055H175.623V49.5055H171.723V48.1055Z" fill="black"/>
<path d="M170.422 66.5054V68.0054H157.822V66.5054H170.422Z" fill="black"/>
<path d="M184.522 70.9053V72.3053H157.822V70.9053H184.522Z" fill="black"/>
<path d="M178.922 75.3052V76.7052H157.822V75.3052H178.922Z" fill="black"/>
<path d="M171.723 66.5054H175.623V68.0054H171.723V66.5054Z" fill="black"/>
<path d="M170.422 84.9053V86.4053H157.822V84.9053H170.422Z" fill="black"/>
<path d="M184.522 89.3052V90.8052H157.822V89.3052H184.522Z" fill="black"/>
<path d="M178.922 93.7051V95.2051H157.822V93.7051H178.922Z" fill="black"/>
<path d="M171.723 84.9053H175.623V86.4053H171.723V84.9053Z" fill="black"/>
<path d="M170.422 103.405V104.805H157.822V103.405H170.422Z" fill="black"/>
<path d="M184.522 107.705V109.205H157.822V107.705H184.522Z" fill="black"/>
<path d="M178.922 112.105V113.605H157.822V112.105H178.922Z" fill="black"/>
<path d="M171.723 103.405H175.623V104.805H171.723V103.405Z" fill="black"/>
<path d="M54.1215 48.1055V49.5055H41.5215V48.1055H54.1215Z" fill="black"/>
<path d="M68.3215 52.5054V53.9054H41.5215V52.5054H68.3215Z" fill="black"/>
<path d="M62.7215 56.8057V58.3057H41.5215V56.8057H62.7215Z" fill="black"/>
<path d="M55.5219 48.1055H59.3218V49.5055H55.4219L55.5219 48.1055Z" fill="black"/>
<path d="M54.1215 66.5054V68.0054H41.5215V66.5054H54.1215Z" fill="black"/>
<path d="M68.3215 70.9053V72.3053H41.5215V70.9053H68.3215Z" fill="black"/>
<path d="M62.7215 75.3052V76.7052H41.5215V75.3052H62.7215Z" fill="black"/>
<path d="M55.5219 66.5054H59.3218V68.0054H55.4219L55.5219 66.5054Z" fill="black"/>
<path d="M54.1215 84.9053V86.4053H41.5215V84.9053H54.1215Z" fill="black"/>
<path d="M68.3215 89.3052V90.8052H41.5215V89.3052H68.3215Z" fill="black"/>
<path d="M62.7215 93.7051V95.2051H41.5215V93.7051H62.7215Z" fill="black"/>
<path d="M55.5219 84.9053H59.3218V86.4053H55.4219L55.5219 84.9053Z" fill="black"/>
<path d="M54.1215 103.405V104.805H41.5215V103.405H54.1215Z" fill="black"/>
<path d="M68.3215 107.705V109.205H41.5215V107.705H68.3215Z" fill="black"/>
<path d="M62.7215 112.105V113.605H41.5215V112.105H62.7215Z" fill="black"/>
<path d="M55.5219 103.405H59.3218V104.805H55.4219L55.5219 103.405Z" fill="black"/>
<path d="M77.3218 112.406C76.1218 112.006 74.4219 111.606 72.4219 111.206C67.8219 110.106 61.4219 108.706 56.7219 105.406C49.1219 100.106 42.9219 81.4058 43.6219 78.4058C43.8219 77.4058 43.7219 76.9058 43.5219 76.7058C43.4219 76.5058 43.3218 76.5058 43.3218 76.5058H42.9219L43.1219 76.2058C43.3219 75.7058 48.9219 65.4058 52.2219 65.4058C52.6885 65.4058 53.0885 65.6058 53.4219 66.0058C55.0219 67.6058 56.6219 72.6058 58.7219 78.9058C60.2219 83.3058 61.9218 88.3058 63.8218 93.0058C66.1218 98.7058 72.5219 103.206 76.7219 106.206C79.1219 108.006 80.3219 108.906 80.4219 109.506C80.4219 109.639 80.3552 109.772 80.2219 109.906C80.0885 110.039 79.9219 110.239 79.7219 110.506C79.1219 111.206 78.4219 112.006 77.5219 112.406L77.4219 112.506L77.3218 112.406Z" fill="white"/>
<path fill-rule="evenodd" clip-rule="evenodd" d="M52.2215 65.7056C52.6215 65.7056 52.9548 65.8389 53.2215 66.1056C55.8215 68.8056 58.9215 81.7056 63.6215 93.1056C67.3215 102.206 81.3215 108.506 80.0215 109.706C79.5215 110.306 78.5215 111.706 77.4215 112.206C73.1215 110.706 63.5215 109.906 56.8215 105.206C49.4215 100.006 43.1215 81.6056 43.8215 78.4056C44.3215 76.4056 43.3215 76.3056 43.3215 76.3056C43.3215 76.3056 49.0215 65.7056 52.2215 65.7056ZM52.2215 65.2056C48.8215 65.2056 43.5215 74.9056 42.9215 76.0056L42.5215 76.8056H43.2215C43.3215 76.8056 43.6215 77.2056 43.3215 78.3056C42.5215 81.9056 49.1215 100.406 56.5215 105.606C61.3215 109.006 67.7215 110.406 72.3215 111.406C74.3215 111.906 76.0215 112.206 77.2215 112.706H77.4215H77.6215C78.5215 112.206 79.3215 111.306 79.9215 110.706C80.1215 110.439 80.2882 110.239 80.4215 110.106C80.5548 109.906 80.6215 109.706 80.6215 109.506C80.5215 108.706 79.5215 107.906 76.8215 106.006C72.6215 103.106 66.3215 98.5056 64.0215 92.9056C62.1215 88.2056 60.4215 83.2056 59.0215 78.8056C56.9215 72.5056 55.2215 67.4056 53.6215 65.8056C53.2215 65.4056 52.7548 65.2056 52.2215 65.2056Z" fill="black"/>
<path d="M49.2211 200.106C47.9211 200.106 47.1211 200.006 47.0211 199.806C46.6211 199.506 46.7211 196.206 46.9211 194.806C47.4211 194.706 49.3211 194.406 50.9211 194.406C52.3211 194.406 52.5211 194.606 52.5211 194.606C52.9211 195.106 52.7211 198.106 52.6211 199.506C52.6211 199.706 51.4211 200.106 49.2211 200.106Z" fill="white"/>
<path fill-rule="evenodd" clip-rule="evenodd" d="M52.7216 194.506C53.2216 195.106 52.9216 198.706 52.8216 199.506C52.8216 200.106 50.9216 200.306 49.2216 200.306C48.0216 200.306 47.0216 200.206 46.8216 200.006C46.3216 199.506 46.5216 195.706 46.7216 194.706C46.7216 194.506 49.1216 194.206 50.9216 194.206C51.8216 194.206 52.5216 194.306 52.7216 194.506ZM47.2216 195.006C47.0216 196.306 46.9216 199.106 47.2216 199.706C47.4216 199.706 48.0216 199.806 49.2216 199.806C51.0216 199.806 52.1216 199.606 52.3216 199.406C52.5216 197.906 52.6216 195.306 52.3216 194.806C52.2216 194.806 51.9216 194.706 50.9216 194.706C49.4216 194.706 47.7216 194.906 47.2216 195.006Z" fill="black"/>
<path d="M52.722 199.806C52.722 199.706 56.1219 199.606 59.5219 200.006C62.8219 200.506 62.722 205.306 62.722 205.306C58.822 205.906 45.722 205.306 45.722 205.306C43.922 202.506 46.422 198.906 46.422 198.906C48.922 201.506 52.722 199.706 52.722 199.706V199.806Z" fill="black"/>
<path d="M20.3226 200.106C19.0226 200.106 18.2227 200.006 18.1227 199.806C17.7227 199.506 17.8226 196.206 18.0226 194.806C18.4226 194.706 20.4226 194.406 22.0226 194.406C23.4226 194.406 23.6227 194.606 23.6227 194.606C23.9227 195.106 23.8226 198.106 23.7227 199.506C23.6227 199.706 22.5226 200.106 20.3226 200.106Z" fill="white"/>
<path fill-rule="evenodd" clip-rule="evenodd" d="M23.8232 194.506C24.3232 195.106 24.0232 198.706 23.9232 199.506C23.9232 200.106 21.9232 200.306 20.3232 200.306C19.1232 200.306 18.1232 200.206 17.9232 200.006C17.4232 199.506 17.6232 195.706 17.8232 194.706C17.8232 194.506 20.2232 194.206 22.0232 194.206C22.9232 194.206 23.6232 194.306 23.8232 194.506ZM18.2232 195.006C18.1232 196.306 18.0232 199.106 18.2232 199.706C18.4232 199.706 19.1232 199.806 20.3232 199.806C22.1232 199.806 23.2232 199.606 23.4232 199.406C23.6232 197.906 23.6232 195.306 23.4232 194.806C23.3232 194.806 23.0232 194.706 22.0232 194.706C20.5232 194.706 18.8232 194.906 18.2232 195.006Z" fill="black"/>
<path d="M23.8216 199.806C23.8216 199.706 27.1216 199.606 30.5216 200.006C33.9216 200.506 33.8216 205.306 33.8216 205.306C29.9216 205.906 16.8216 205.306 16.8216 205.306C15.0216 202.506 17.5216 198.906 17.5216 198.906C20.0216 201.506 23.8216 199.706 23.8216 199.706V199.806Z" fill="black"/>
<path d="M60.8214 150.406C60.8214 162.106 56.4214 186.706 53.4214 197.306H45.7214C45.7214 197.206 45.6214 185.106 45.7214 180.406C45.7214 171.906 43.3214 157.906 42.7214 150.206C42.4214 146.006 42.5214 135.706 39.9214 128.906C39.3881 127.639 38.9214 126.439 38.5214 125.306C36.9214 121.006 35.9214 117.706 36.6214 117.006C38.5214 114.806 54.8214 98.8056 58.9214 107.606C63.2214 116.906 60.8214 138.706 60.8214 150.406Z" fill="black"/>
<path d="M49.7215 197.306C47.6215 197.406 46.5215 197.306 45.7215 197.306C45.7215 197.206 46.5215 189.506 45.1215 178.206C41.4215 148.806 38.9215 126.406 38.5215 125.306C39.4215 123.506 40.7215 121.706 42.8215 121.706C44.5215 121.706 45.7215 122.806 46.0215 124.406C46.6215 127.406 45.3215 131.106 45.3215 134.206C45.4215 138.506 46.3215 142.706 47.1215 147.006C47.9215 150.606 48.6215 154.306 48.7215 158.006C48.9215 162.406 48.3215 166.706 48.4215 171.006C48.5215 178.606 51.4215 189.606 49.7215 197.306Z" fill="black"/>
<path d="M17.622 179.605C17.922 175.805 17.822 165.105 17.922 161.405C18.022 157.805 17.922 154.305 17.822 151.205C17.822 150.139 17.822 149.105 17.822 148.105C17.922 131.705 16.922 124.905 22.022 112.505C22.0886 112.305 22.1553 112.105 22.222 111.905C23.022 109.905 24.122 107.805 25.522 105.605C25.922 104.905 26.822 104.605 28.122 104.805C31.322 105.205 36.522 108.005 40.822 112.905C41.0886 113.172 41.322 113.405 41.522 113.605C41.522 113.672 41.4887 114.072 41.422 114.805C41.422 116.305 41.022 119.005 40.422 122.705C40.122 124.205 39.922 131.105 39.622 132.905C38.222 140.505 36.422 145.205 35.322 155.105C33.922 166.705 27.722 185.305 24.722 197.705H20.822H17.022C16.722 195.705 17.022 186.205 17.622 179.605Z" fill="black"/>
<path d="M29.3225 118.406C28.2558 118.406 27.2558 118.406 26.3225 118.406C22.5892 118.206 20.5226 117.739 20.1226 117.006C19.8226 116.306 19.9225 113.406 20.2225 108.306C20.4225 104.006 20.6225 98.6057 20.5225 94.1057C20.4559 92.639 20.4225 91.1723 20.4225 89.7057C20.3225 81.4057 20.8225 71.2057 23.2225 69.3057C23.6225 69.0057 24.1225 68.6057 24.8225 68.1057C25.8225 67.439 26.8559 66.8057 27.9225 66.2057C30.0225 65.1057 32.2225 64.3057 34.4225 63.7057C36.7225 63.1057 39.0225 62.8057 41.3225 62.8057C43.3892 62.8057 45.4225 63.039 47.4225 63.5057L47.6226 63.6057C48.8226 63.8723 49.9559 64.2057 51.0225 64.6057C51.2225 64.6723 51.4226 64.7723 51.6226 64.9057H51.9225C55.9225 66.6057 55.5225 74.7057 54.8225 83.0057L54.7225 84.0057C54.5225 87.1057 54.2225 89.7057 54.3225 91.4057C54.4225 92.2057 54.5226 92.8057 54.6226 93.3057C55.1226 96.2057 57.0226 100.506 58.6226 104.306C60.0226 107.506 61.4225 110.606 61.7225 112.506V112.606C61.4225 113.506 44.3225 117.106 41.5225 117.506C37.9225 118.106 33.4225 118.406 29.3225 118.406Z" fill="white"/>
<path fill-rule="evenodd" clip-rule="evenodd" d="M47.522 63.3055L47.822 63.4055C48.9553 63.6721 50.0554 64.0055 51.122 64.4055C51.322 64.4721 51.522 64.5388 51.722 64.6055L52.022 64.7055C56.222 66.4055 55.822 74.7055 55.122 83.0055L55.022 84.1055C54.722 87.1055 54.522 89.7055 54.622 91.4055C54.622 92.1055 54.722 92.7055 54.822 93.3055C55.322 96.2055 57.222 100.405 58.822 104.205C60.322 107.505 61.622 110.505 62.022 112.405V112.505L61.922 112.605C61.822 113.005 61.722 113.305 53.322 115.305C48.622 116.405 43.822 117.405 41.622 117.805C37.922 118.405 33.422 118.705 29.322 118.705C28.2553 118.705 27.2553 118.672 26.322 118.605C20.522 118.305 20.122 117.405 19.922 117.105C19.522 116.305 19.622 113.505 19.922 108.305C20.122 104.005 20.422 98.6055 20.322 94.1055C20.222 92.7055 20.222 91.3055 20.222 89.7055C20.122 81.3055 20.522 71.0055 23.022 69.1055C23.522 68.8055 24.022 68.4055 24.722 67.9055C25.722 67.2388 26.7553 66.6055 27.822 66.0055C29.922 64.9055 32.122 64.1055 34.422 63.5055C36.722 62.9055 39.022 62.6055 41.322 62.6055C43.3887 62.6055 45.4553 62.8388 47.522 63.3055ZM34.522 64.0055C32.122 64.6055 29.922 65.5055 28.122 66.5055C26.922 67.1055 25.8554 67.7055 24.922 68.3055C24.322 68.7055 23.7887 69.1055 23.322 69.5055C21.222 71.1055 20.622 80.2055 20.722 89.7055C20.722 91.1721 20.7553 92.6388 20.822 94.1055C21.022 103.105 19.722 115.505 20.322 116.905C20.722 117.505 23.022 118.005 26.322 118.105C27.2553 118.172 28.2553 118.205 29.322 118.205C33.122 118.205 37.622 117.905 41.522 117.305C46.122 116.605 61.322 113.105 61.522 112.505C60.822 108.505 55.222 98.8055 54.322 93.4055C54.2553 92.7388 54.1887 92.0721 54.122 91.4055C54.022 89.5055 54.322 86.4055 54.622 83.0055C55.222 75.6055 55.822 66.8055 51.822 65.2055C51.4887 65.0721 51.1887 64.9721 50.922 64.9055C49.722 64.4388 48.5554 64.0721 47.422 63.8055C47.3554 63.8055 47.322 63.8055 47.322 63.8055C45.322 63.3055 43.222 63.1055 41.322 63.1055C38.922 63.1055 36.622 63.4055 34.522 64.0055Z" fill="black"/>
<path d="M28.3217 70.6057C28.4217 70.7057 31.6217 74.1057 30.4217 80.0057C29.4217 84.9057 27.1217 88.8057 26.1217 93.7057C25.1217 98.5057 25.6217 103.206 26.0217 108.006C26.2217 110.206 26.4217 112.439 26.6217 114.706C26.7217 115.906 26.9217 117.106 26.3217 118.106C23.0217 118.006 20.7217 117.506 20.3217 116.906C19.7217 115.506 21.0217 103.106 20.8217 94.1057C20.755 92.639 20.7217 91.1724 20.7217 89.7057C20.9217 89.239 21.155 88.7724 21.4217 88.3057C23.6217 84.7057 24.0217 76.0057 26.6217 72.7057C27.0217 72.1057 28.7217 70.0057 28.3217 70.6057Z" fill="black"/>
<path d="M37.8223 63.1057L38.8223 62.9057L42.0223 64.2057C42.0223 63.8057 42.1223 63.2057 42.6223 63.0057C42.7556 62.8723 42.9889 62.8057 43.3223 62.8057C44.0223 62.8057 44.9223 63.1057 44.9223 63.1057H45.0223L48.0223 67.9057L43.8223 65.4057L40.0223 68.3057L37.8223 63.1057Z" fill="#FDFCFF"/>
<path fill-rule="evenodd" clip-rule="evenodd" d="M45.0215 62.8055L45.2215 62.9055L45.3215 63.1055L47.6215 66.9055L48.7215 68.7055L46.9215 67.6055L43.8215 65.7055L40.4215 68.3055L39.9215 68.7055L39.7215 68.1055L37.7215 63.5055L37.5215 62.9055L38.1215 62.8055L38.7215 62.7055H38.9215H39.0215L41.8215 63.9055C41.8215 63.4055 42.0215 62.9055 42.5215 62.7055C42.7215 62.6388 42.9881 62.6055 43.3215 62.6055C44.1215 62.6055 45.0215 62.8055 45.0215 62.8055ZM42.7215 63.2055C42.0215 63.5055 42.4215 64.6055 42.4215 64.6055L38.8215 63.2055L38.2215 63.3055L40.1215 67.9055L43.8215 65.1055L47.2215 67.2055L44.9215 63.3055C44.9215 63.3055 44.0215 63.1055 43.3215 63.1055C43.0548 63.1055 42.8548 63.1388 42.7215 63.2055Z" fill="#20110E"/>
<path d="M43.3215 64.9055C41.6215 64.9055 39.5215 63.4055 39.0215 63.1055V57.6055L43.5215 59.4055V63.3055H43.6215C43.8215 63.7055 44.1215 64.4055 43.9215 64.7055C43.9215 64.8055 43.9215 64.8055 43.7215 64.9055C43.5882 64.9055 43.4548 64.9055 43.3215 64.9055Z" fill="white"/>
<path fill-rule="evenodd" clip-rule="evenodd" d="M43.8223 59.3056V63.2056C43.8223 63.2056 44.7223 64.9056 43.8223 65.1056C43.6223 65.1722 43.4556 65.2056 43.3223 65.2056C41.3223 65.2056 38.8223 63.2056 38.8223 63.2056V57.2056L43.8223 59.3056ZM39.3223 63.0056C39.9223 63.4056 41.8223 64.7056 43.3223 64.7056C43.4556 64.7056 43.589 64.6722 43.7223 64.6056C43.8223 64.5056 43.6223 63.9056 43.3223 63.5056V63.4056V59.6056L39.3223 58.0056V63.0056Z" fill="black"/>
<path d="M41.8234 60.2052C40.6234 60.2052 39.4234 59.7052 38.3234 58.7052C35.3234 55.6052 35.9235 51.1052 36.0235 50.2052L43.9235 49.8052C44.2235 50.5052 45.6235 53.9052 45.9235 56.9052C45.9235 57.5052 45.7235 58.2052 45.1235 58.8052C44.3235 59.7052 43.1234 60.2052 41.8234 60.2052Z" fill="white"/>
<path fill-rule="evenodd" clip-rule="evenodd" d="M46.1229 56.9054C46.3229 58.5054 44.2229 60.5054 41.8229 60.5054C40.6229 60.5054 39.3229 60.0054 38.2229 58.8054C34.6229 55.2054 35.8229 49.9054 35.8229 49.9054L44.1229 49.5054C44.1229 49.5054 45.8229 53.4054 46.1229 56.9054ZM36.2229 50.4054C36.0229 51.6054 35.7229 55.6054 38.5229 58.5054C39.5229 59.5054 40.6229 60.0054 41.8229 60.0054C43.0229 60.0054 44.2229 59.5054 44.9229 58.6054C45.4229 58.1054 45.7229 57.4054 45.6229 56.9054C45.4229 54.1054 44.2229 51.0054 43.8229 50.1054L36.2229 50.4054Z" fill="black"/>
<path d="M46.3223 48.8056C44.7223 51.5056 40.4223 51.8056 37.2223 51.9056C37.3223 52.2056 37.3223 52.6056 37.3223 52.8056C37.5223 54.0056 38.2223 55.5056 37.8223 56.7056C37.5223 57.5056 36.7224 57.9056 35.9224 57.7056C35.3224 57.5056 35.1223 57.1056 35.0223 56.7056C33.6223 54.7056 33.3224 51.0056 34.6224 49.1056C35.5224 47.9056 36.7224 47.5056 38.1224 47.2056C39.2224 47.0056 40.1223 46.8056 41.0223 46.2056C41.6223 45.8056 42.0223 45.4056 42.7223 45.3056C45.3223 44.6056 48.0223 46.1056 46.3223 48.8056Z" fill="black"/>
<path d="M45.6227 66.2055L45.0226 67.8055L43.6227 67.9055L42.2227 66.3055L43.8226 65.1055L45.6227 66.2055Z" fill="#7977C6"/>
<path d="M45.0215 67.8057C45.0215 67.8057 48.8215 76.6057 47.7215 86.4057L45.0215 89.3057L43.0215 86.9057C43.0215 86.9057 45.0215 74.2057 43.6215 67.9057L45.0215 67.8057Z" fill="#7977C6"/>
<path d="M80.9233 114.505C79.9233 114.505 78.8233 113.705 77.6233 112.005C76.9233 110.505 78.1232 109.305 78.3232 109.105C78.4566 109.039 78.6899 109.005 79.0232 109.005L79.2232 108.905V108.705C79.2232 108.605 79.2232 108.305 80.5232 107.905C80.6566 107.905 80.7899 107.905 80.9233 107.905C81.7233 107.905 82.7233 108.305 82.9233 108.605C83.0233 108.805 83.0233 108.905 82.9233 109.005C82.8566 109.072 82.7566 109.105 82.6233 109.105C82.5566 109.105 82.4899 109.072 82.4233 109.005C82.1233 108.905 81.7233 108.805 81.6233 108.805H80.0232L81.5232 109.305C82.1232 109.505 82.6899 109.772 83.2232 110.105C83.7232 110.305 84.1233 111.305 84.1233 111.505C84.0233 111.605 84.0232 111.605 84.0232 111.605C83.8232 111.605 83.8232 111.505 83.7232 111.405C83.6232 111.005 83.1232 110.605 82.7232 110.605C82.5899 110.605 82.4899 110.605 82.4233 110.605C82.3233 110.705 82.2232 111.005 81.8232 112.605C81.6232 113.205 81.4232 114.105 81.3232 114.505C81.1899 114.505 81.0566 114.505 80.9233 114.505Z" fill="white"/>
<path fill-rule="evenodd" clip-rule="evenodd" d="M83.1229 108.405C83.2229 108.705 83.3228 108.905 83.0228 109.205C82.9562 109.272 82.8229 109.305 82.6229 109.305C82.4895 109.305 82.3562 109.272 82.2228 109.205C82.1228 109.105 81.8229 109.105 81.6229 109.105C81.5562 109.105 81.5228 109.105 81.5228 109.105C82.1228 109.305 82.7562 109.572 83.4229 109.905C83.9229 110.105 84.4228 111.205 84.3228 111.505C84.3228 111.705 84.2228 111.905 84.0228 111.905C83.9562 111.905 83.9229 111.905 83.9229 111.905C83.7229 111.905 83.5228 111.705 83.5228 111.505C83.4228 111.205 82.9228 110.805 82.7228 110.805C82.6562 110.805 82.6229 110.805 82.6229 110.805C82.3229 111.005 81.6229 114.805 81.4229 114.805C81.3562 114.805 81.3228 114.772 81.3228 114.705C81.1895 114.772 81.0562 114.805 80.9229 114.805C79.9229 114.805 78.8229 114.105 77.4229 112.205C76.6229 110.505 77.8229 109.105 78.1229 108.905C78.3229 108.772 78.5895 108.705 78.9229 108.705C78.9229 108.405 79.3229 108.005 80.4229 107.705C80.5562 107.639 80.7229 107.605 80.9229 107.605C81.7229 107.605 82.9229 108.105 83.1229 108.405ZM79.5228 109.205H79.0228C78.6228 109.205 78.5229 109.305 78.4229 109.405C78.2229 109.505 77.2228 110.605 77.8228 111.905C79.0228 113.505 80.0229 114.305 80.9229 114.305C80.9895 114.305 81.0562 114.272 81.1229 114.205C81.2229 113.805 81.4228 113.105 81.5228 112.605C82.0228 110.805 82.0228 110.605 82.3228 110.405C82.4562 110.339 82.5895 110.305 82.7228 110.305C82.9228 110.305 83.2228 110.405 83.5228 110.705C83.3895 110.505 83.2562 110.372 83.1229 110.305C82.5895 109.972 82.0229 109.739 81.4229 109.605L79.5228 108.905V109.205ZM80.6229 108.205C80.0229 108.405 79.7228 108.605 79.5228 108.705L81.5228 108.605C81.7228 108.605 82.1229 108.705 82.4229 108.805C82.4895 108.872 82.5562 108.905 82.6229 108.905C82.6895 108.905 82.7228 108.872 82.7228 108.805C82.7228 108.805 82.6895 108.805 82.6229 108.805C82.5229 108.605 81.6229 108.205 80.9229 108.205C80.7895 108.205 80.6895 108.205 80.6229 108.205Z" fill="black"/>
<path d="M81.9223 115.305C81.8223 115.305 81.6223 115.205 81.4223 115.105C81.0223 114.905 80.8223 114.505 80.8223 114.205C80.8223 113.939 80.9556 113.739 81.2223 113.605L81.5223 113.505L81.3223 113.205C81.2223 113.105 81.1223 113.005 81.1223 112.905C81.0556 112.772 81.0223 112.639 81.0223 112.505C81.0889 112.372 81.2223 112.305 81.4223 112.305H82.0223L81.7223 111.905C81.6556 111.772 81.6223 111.672 81.6223 111.605C81.689 111.472 81.7556 111.372 81.8223 111.305C82.0889 111.172 82.3556 111.105 82.6223 111.105H83.2223L82.8223 110.605H82.7223L82.6223 110.505C82.3223 110.405 82.0223 110.205 81.8223 110.005C81.8223 109.872 81.8556 109.739 81.9223 109.605C81.9223 109.605 81.989 109.605 82.1223 109.605C82.5223 109.605 83.1223 109.805 83.5223 110.105C84.1223 110.405 84.3223 110.805 84.1223 111.405C84.0556 111.672 83.889 111.872 83.6223 112.005L83.3223 112.105L83.4223 112.305C83.6223 112.805 83.6223 113.305 83.2223 113.605H82.9223L82.8223 113.805C82.8223 113.939 82.789 114.072 82.7223 114.205C82.7223 114.272 82.689 114.339 82.6223 114.405L82.5223 114.505V114.605C82.2223 115.105 82.1223 115.305 81.9223 115.305Z" fill="white"/>
<path fill-rule="evenodd" clip-rule="evenodd" d="M83.7225 109.906C84.2225 110.206 84.5225 110.706 84.4225 111.406C84.3225 111.806 84.0225 112.106 83.7225 112.206C83.7225 112.272 83.7225 112.306 83.7225 112.306C83.9225 112.806 83.8225 113.506 83.3225 113.806C83.2558 113.806 83.1892 113.806 83.1225 113.806C83.1225 114.006 83.0558 114.172 82.9225 114.306C82.8558 114.439 82.7892 114.539 82.7225 114.606C82.7225 114.606 82.7225 114.639 82.7225 114.706C82.4225 115.306 82.2225 115.606 81.9225 115.606C81.7892 115.606 81.5891 115.539 81.3225 115.406C80.5225 114.906 80.1225 113.806 81.1225 113.406C81.0559 113.272 80.9558 113.139 80.8225 113.006C80.6225 112.606 80.9225 112.106 81.4225 112.006C81.4892 112.006 81.5225 112.006 81.5225 112.006C81.3225 111.806 81.3225 111.306 81.7225 111.106C81.9892 110.906 82.2892 110.806 82.6225 110.806C82.0225 110.606 81.3225 110.106 81.6225 109.506C81.7559 109.372 81.9225 109.306 82.1225 109.306C82.6225 109.306 83.2225 109.606 83.7225 109.906ZM82.1225 109.806C82.1225 109.872 82.1225 109.906 82.1225 109.906C82.1225 110.106 82.4225 110.206 82.7225 110.306C82.8225 110.306 82.9225 110.406 83.0225 110.406L83.8225 111.306H82.6225C82.3559 111.306 82.1558 111.372 82.0225 111.506C81.9558 111.506 81.9225 111.539 81.9225 111.606C81.9225 111.672 81.9225 111.706 81.9225 111.706L82.6225 112.506H81.6225C81.5559 112.506 81.4892 112.506 81.4225 112.506C81.3558 112.572 81.3225 112.606 81.3225 112.606C81.2558 112.672 81.2558 112.739 81.3225 112.806C81.3225 112.872 81.3558 112.939 81.4225 113.006L81.5225 113.106L81.9225 113.606L81.3225 113.806C81.1225 113.906 81.0225 114.106 81.0225 114.206C81.0225 114.406 81.2225 114.806 81.5225 114.906C81.7225 115.039 81.8558 115.106 81.9225 115.106C82.0225 115.006 82.1225 114.706 82.2225 114.506C82.2892 114.439 82.3225 114.406 82.3225 114.406V114.306H82.4225C82.4892 114.239 82.5225 114.172 82.5225 114.106C82.5892 113.972 82.6225 113.872 82.6225 113.806L82.7225 113.406H83.0225L83.1225 113.306C83.3225 113.206 83.3225 112.706 83.2225 112.506V112.406L83.0225 112.006L83.5225 111.806C83.7225 111.706 83.8225 111.506 83.9225 111.306C84.0225 110.906 83.9225 110.606 83.4225 110.306C83.0225 110.006 82.4225 109.806 82.1225 109.806Z" fill="black"/>
<path fill-rule="evenodd" clip-rule="evenodd" d="M11.5222 106.206L31.4222 83.4056C32.7222 81.9056 35.0222 81.7056 36.5222 83.0056L40.5222 86.5056C42.1222 84.6056 44.9222 84.4056 46.8222 86.0056C48.7222 87.7056 48.8222 90.5056 47.2222 92.4056L51.2222 95.9056C52.7222 97.2056 52.9222 99.4056 51.6222 101.006L31.7222 123.706C30.4222 125.306 28.1222 125.406 26.6222 124.106L11.9222 111.306C10.4222 109.906 10.2222 107.706 11.5222 106.206ZM46.0222 91.3056C47.1222 90.1056 47.0222 88.3056 45.7222 87.2056C44.5222 86.2056 42.7222 86.3056 41.7222 87.5056L46.0222 91.3056Z" fill="black"/>
<path d="M27.0222 121.305L14.6223 110.505C13.4223 109.405 13.2222 107.505 14.3222 106.205L32.1223 85.8053C33.2223 84.5053 35.1223 84.4053 36.4223 85.5053L48.7223 96.3053C50.0223 97.4053 50.1222 99.3053 49.0222 100.605L31.3222 121.005C30.2222 122.205 28.2222 122.405 27.0222 121.305Z" fill="#FDFCFF"/>
<path fill-rule="evenodd" clip-rule="evenodd" d="M29.0226 122.205C28.2226 122.205 27.5226 121.905 26.9226 121.405L14.5226 110.605C13.2226 109.505 13.0226 107.405 14.2226 106.105L32.0226 85.7055C32.5226 85.1055 33.3226 84.7055 34.2226 84.6055C35.0226 84.6055 35.8226 84.8055 36.5226 85.4055L48.9226 96.2055C49.5226 96.7055 49.9226 97.5055 49.9226 98.3055C50.0226 99.2055 49.7226 100.005 49.2226 100.705L31.4226 121.105C30.8226 121.705 30.0226 122.105 29.2226 122.205C29.156 122.205 29.0893 122.205 29.0226 122.205ZM34.4226 84.9055C34.356 84.9055 34.2893 84.9055 34.2226 84.9055C33.4226 85.0055 32.7226 85.3055 32.2226 85.9055L14.4226 106.305C13.9226 106.905 13.7226 107.605 13.7226 108.405C13.8226 109.205 14.1226 109.905 14.7226 110.405L27.1226 121.105C27.7226 121.605 28.4226 121.905 29.2226 121.805C29.9226 121.805 30.6226 121.405 31.1226 120.905L48.9226 100.505C49.4226 99.9055 49.7226 99.1055 49.6227 98.4055C49.6227 97.6055 49.2226 96.9055 48.6227 96.4055L36.3226 85.6055C35.7226 85.2055 35.1226 84.9055 34.4226 84.9055Z" fill="#20110E"/>
<path d="M44.3225 94.3056L38.9225 89.6056C38.3225 89.1056 38.2225 88.3056 38.7225 87.7056L40.1225 86.2056L47.5225 92.7056L46.2225 94.2056C45.7225 94.8056 44.9225 94.8056 44.3225 94.3056Z" fill="#7977C6"/>
<path d="M45.722 102.006C45.4554 102.006 45.222 101.939 45.022 101.806L31.722 90.2058C31.322 89.9058 31.3221 89.2058 31.6221 88.8058C32.0221 88.4058 32.7221 88.3058 33.1221 88.7058L46.422 100.206C46.822 100.606 46.822 101.306 46.522 101.706C46.322 101.906 46.022 102.106 45.722 102.006Z" fill="#AAB6C2"/>
<path d="M43.722 104.305C43.4554 104.305 43.222 104.239 43.022 104.105L29.722 92.5053C29.322 92.2053 29.3221 91.5053 29.6221 91.1053C30.0221 90.6053 30.7221 90.6053 31.1221 91.0053L44.422 102.505C44.822 102.905 44.822 103.605 44.522 104.005C44.322 104.205 44.022 104.305 43.722 104.305Z" fill="#AAB6C2"/>
<path d="M39.7221 108.905C39.4555 108.905 39.2221 108.839 39.0221 108.705L25.8221 97.1054C25.3221 96.7054 25.3221 96.1054 25.7221 95.7054C26.0221 95.2054 26.7222 95.2054 27.1222 95.6054L40.4222 107.105C40.8222 107.505 40.9221 108.105 40.5221 108.605C40.3221 108.805 40.0221 108.905 39.7221 108.905Z" fill="#AAB6C2"/>
<path d="M37.7221 111.206C37.4555 111.206 37.2221 111.139 37.0221 111.006L23.8221 99.4056C23.3221 99.0056 23.3221 98.4056 23.7221 97.9056C24.0221 97.5056 24.7222 97.5056 25.1222 97.8056L38.4222 109.406C38.8222 109.806 38.9221 110.406 38.5221 110.906C38.3221 111.106 38.0221 111.206 37.7221 111.206Z" fill="#AAB6C2"/>
<path d="M35.7221 113.505C35.4555 113.505 35.2221 113.405 35.0221 113.205L21.8221 101.705C21.3221 101.305 21.3221 100.705 21.7221 100.205C22.0221 99.8054 22.7222 99.8054 23.1222 100.105L36.4222 111.705C36.8222 112.105 36.9221 112.705 36.5221 113.105C36.3221 113.405 36.0221 113.505 35.7221 113.505Z" fill="#AAB6C2"/>
<path d="M29.7214 120.406C29.5214 120.406 29.3215 120.306 29.1215 120.106L15.8214 108.606C15.4214 108.206 15.3214 107.506 15.7214 107.106C16.1214 106.706 16.7215 106.606 17.1215 107.006L30.4215 118.606C30.8215 118.906 30.9214 119.606 30.5214 120.006C30.3214 120.306 30.0214 120.406 29.7214 120.406Z" fill="#AAB6C2"/>
<path d="M38.2226 118.906C37.4226 118.906 36.4226 118.406 35.3226 117.306C34.2226 116.306 33.9227 115.006 34.6227 113.706C34.6893 113.573 34.7893 113.406 34.9227 113.206L35.1227 113.006L34.8226 112.906C34.8226 112.906 34.8226 112.806 34.8226 112.506C34.9226 111.706 35.3226 110.906 35.5226 110.906H35.6227C36.5227 110.306 38.4226 109.606 39.5226 109.606C39.5893 109.606 39.656 109.606 39.7226 109.606C40.656 109.739 41.456 110.306 42.1227 111.306C42.2227 111.506 42.2227 111.706 42.1227 111.806C42.0227 112.006 41.8227 112.106 41.6227 112.106C41.556 112.106 41.4893 112.073 41.4227 112.006C40.9227 111.706 40.3227 111.306 39.6227 111.306C39.6227 111.306 39.5893 111.306 39.5226 111.306C39.3893 111.306 39.256 111.339 39.1227 111.406L38.6227 111.606L39.2226 111.906C40.1226 112.306 41.6226 112.906 41.8226 113.706C41.8893 113.973 41.856 114.206 41.7226 114.406C41.656 114.473 41.5893 114.539 41.5226 114.606L41.3226 114.806L41.4227 114.906C41.6227 115.306 41.656 115.673 41.5226 116.006C41.3893 116.273 41.1226 116.406 40.7226 116.406H40.5226L40.3226 116.606V116.806C40.1893 117.273 39.856 117.539 39.3226 117.606L39.0226 117.706L39.1227 118.006C39.2227 118.306 39.1226 118.606 38.8226 118.806C38.6226 118.873 38.4226 118.906 38.2226 118.906Z" fill="white"/>
<path fill-rule="evenodd" clip-rule="evenodd" d="M39.7229 109.406C40.9229 109.506 41.7228 110.206 42.3228 111.206C42.6228 111.706 42.1229 112.306 41.6229 112.306C41.4896 112.306 41.3562 112.272 41.2229 112.206C40.8229 111.906 40.2229 111.506 39.6229 111.506C39.6229 111.506 39.5895 111.506 39.5229 111.506C39.4562 111.506 39.3562 111.539 39.2229 111.606C40.5229 112.206 42.8229 113.206 41.9229 114.506C41.8562 114.639 41.7562 114.739 41.6229 114.806C41.8229 115.306 41.9229 115.706 41.7229 116.106C41.5229 116.506 41.1229 116.706 40.7229 116.706C40.6562 116.706 40.6229 116.706 40.6229 116.706C40.6229 116.772 40.6229 116.839 40.6229 116.906C40.4229 117.506 39.9228 117.806 39.3228 117.906C39.5228 118.306 39.4229 118.706 38.9229 119.006C38.7229 119.139 38.4895 119.206 38.2229 119.206C37.1229 119.206 35.8229 118.106 35.1229 117.506C34.0229 116.506 33.6228 115.006 34.3228 113.606C34.4562 113.472 34.5895 113.306 34.7229 113.106C34.2229 112.806 35.0229 110.606 35.5229 110.606C36.4229 110.106 38.3229 109.406 39.5229 109.406C39.5895 109.406 39.6562 109.406 39.7229 109.406ZM35.7229 111.106L35.6229 111.206V111.106C35.3229 111.406 35.0229 112.406 35.0229 112.706L35.4229 113.006L35.1229 113.406C34.9896 113.539 34.8895 113.706 34.8228 113.906C33.9228 115.406 35.0229 116.706 35.5229 117.106C36.5229 118.106 37.5229 118.706 38.2229 118.706C38.3562 118.706 38.4896 118.672 38.6229 118.606C38.9229 118.406 38.9228 118.206 38.8228 118.006L38.7229 117.506L39.2229 117.406C39.9229 117.306 40.0229 117.006 40.1229 116.806C40.1229 116.739 40.1229 116.672 40.1229 116.606L40.2229 116.206H40.6229H40.7229C41.1229 116.206 41.2228 116.006 41.3228 115.906C41.3228 115.706 41.4229 115.506 41.2229 115.106L41.0229 114.706L41.3228 114.406C41.3895 114.406 41.4562 114.372 41.5229 114.306C41.6229 114.006 41.6229 113.906 41.6229 113.806C41.4229 113.106 39.9229 112.506 39.1229 112.106L39.0229 112.006L38.0229 111.506L39.1229 111.106C39.2562 111.039 39.3895 111.006 39.5229 111.006C39.5229 111.006 39.5562 111.006 39.6229 111.006C40.4229 111.006 41.0229 111.506 41.5229 111.806C41.5229 111.806 41.5562 111.806 41.6229 111.806C41.7229 111.806 41.8229 111.806 41.9229 111.606C41.9229 111.506 41.9229 111.506 41.9229 111.506C41.2562 110.506 40.5229 109.972 39.7229 109.906C39.6562 109.906 39.5895 109.906 39.5229 109.906C38.5229 109.906 36.6229 110.606 35.7229 111.106Z" fill="black"/>
<path d="M27.5212 116.606C27.1879 116.606 26.8213 116.606 26.4213 116.606H26.3212C21.0212 116.406 16.8213 114.606 13.6213 111.206C13.288 110.939 12.9879 110.606 12.7213 110.206C11.8213 109.106 10.5213 106.306 10.1213 104.406C9.52129 101.606 9.42126 96.0056 11.2213 89.6056C11.3546 89.1389 11.488 88.6389 11.6213 88.1056C13.1213 83.3056 15.4212 78.7056 18.3212 74.5056C18.6546 74.1056 18.9879 73.6722 19.3212 73.2056L19.7213 72.8056C21.7213 70.1056 22.7212 68.8056 29.0212 65.7056H29.1213L29.3212 65.8056C29.3212 65.9056 30.8213 67.5056 32.2213 72.2056C32.3213 72.6056 32.4212 72.9056 32.5212 73.2056C32.7213 74.0722 32.8879 74.9722 33.0212 75.9056C33.5212 80.3056 32.2213 84.7056 29.2213 88.4056C28.8213 88.9389 28.4212 89.5056 28.0212 90.1056C27.7546 90.4389 27.4879 90.7722 27.2213 91.1056C25.8213 93.1722 24.7213 95.0722 23.9213 96.8056C23.7213 97.2056 23.5546 97.6056 23.4213 98.0056C22.6879 99.8722 22.3212 101.539 22.3212 103.006C22.3212 103.206 22.3546 103.439 22.4213 103.706C22.6213 104.206 26.2212 107.206 28.8212 108.506C29.2212 108.706 29.6213 108.872 30.0212 109.006C33.4212 110.506 35.5213 111.006 35.6213 111.006L35.8212 111.106L35.3212 113.706L33.6213 116.206H33.5212C31.3212 116.506 29.5212 116.606 27.8212 116.606H27.7213H27.5212Z" fill="white"/>
<path fill-rule="evenodd" clip-rule="evenodd" d="M29.4222 65.6057C29.5222 65.7057 31.0222 67.4057 32.4222 72.1057V72.2057C32.5556 72.4723 32.6556 72.7723 32.7222 73.1057C32.9222 74.039 33.0889 74.939 33.2222 75.8057C33.7222 80.3057 32.4222 84.8057 29.4222 88.6057C29.0222 89.139 28.6222 89.6723 28.2222 90.2057C27.9556 90.539 27.6889 90.9057 27.4222 91.3057C26.1222 93.3057 24.9222 95.2057 24.1222 96.9057C23.9889 97.3057 23.8222 97.7057 23.6222 98.1057C22.9556 99.9057 22.6222 101.539 22.6222 103.006C22.6222 103.206 22.6222 103.406 22.6222 103.606C23.0222 104.206 26.5222 107.006 28.9222 108.206C29.3222 108.406 29.7222 108.606 30.1222 108.806C33.4222 110.306 35.6222 110.806 35.6222 110.806L36.1222 110.906L36.0222 111.406L35.6222 113.706L35.5222 113.806V113.906L34.7222 115.106L33.9222 116.306L33.7222 116.406L33.5222 116.506C31.4222 116.706 29.6222 116.906 27.9222 116.906H27.7222H27.5222C27.1889 116.906 26.8222 116.906 26.4222 116.906H26.3222C20.9222 116.606 16.7222 114.906 13.4222 111.406C13.0889 111.072 12.7889 110.739 12.5222 110.406C11.5222 109.206 10.3222 106.306 9.92224 104.506C9.32224 101.606 9.22224 96.0057 10.9222 89.6057C11.0222 89.1057 11.2222 88.7057 11.4222 88.1057C12.9222 83.2057 15.1222 78.6057 18.1222 74.4057C18.4556 73.939 18.7889 73.5057 19.1222 73.1057L19.5222 72.6057C21.5222 69.9057 22.5222 68.6057 28.8222 65.5057L29.2222 65.3057L29.4222 65.6057ZM19.5222 73.4057C19.1889 73.8057 18.8555 74.239 18.5222 74.7057C15.2222 79.3057 13.1222 84.0057 11.8222 88.2057C11.6222 88.739 11.4889 89.239 11.4222 89.7057C9.62224 96.3057 9.7222 101.706 10.3222 104.406C10.7222 106.106 11.9222 108.906 12.8222 110.106C13.1555 110.439 13.4556 110.772 13.7222 111.106C17.4222 114.906 21.8222 116.206 26.3222 116.406C26.7222 116.406 27.0889 116.406 27.4222 116.406C27.5556 116.406 27.6556 116.406 27.7222 116.406C29.7222 116.406 31.6222 116.206 33.4222 116.006L34.2222 114.806L35.0222 113.606L35.5222 111.306C35.5222 111.306 33.3222 110.806 29.8222 109.306C29.4222 109.106 29.0222 108.906 28.6222 108.706C26.1222 107.406 22.2222 104.206 22.1222 103.806C22.0556 103.539 22.0222 103.272 22.0222 103.006C22.0222 101.406 22.4222 99.6057 23.1222 97.9057C23.3222 97.5057 23.4889 97.1057 23.6222 96.7057C24.6222 94.7057 25.8222 92.7057 27.0222 91.0057C27.2889 90.6723 27.5222 90.3057 27.7222 89.9057C28.1889 89.3723 28.6222 88.839 29.0222 88.3057C31.7222 84.8057 33.2222 80.3057 32.7222 75.9057C32.5889 74.9723 32.4222 74.1057 32.2222 73.3057C32.0889 72.9057 31.9889 72.5723 31.9222 72.3057C30.5222 67.6057 29.0222 66.0057 29.0222 66.0057C22.4222 69.2057 21.7222 70.4057 19.5222 73.4057Z" fill="black"/>
<path d="M33.5226 67.9055L34.7227 76.7055L31.6227 78.7055L28.2227 66.4055L29.8226 65.6055L33.5226 67.9055Z" fill="#FDFCFF"/>
<path d="M56.0223 71.5058C56.0223 71.9058 57.1223 82.7058 57.0223 82.9058C57.0223 83.1058 51.8223 81.9058 51.8223 81.9058L53.2223 66.4058L54.3223 67.5058C54.3223 67.5058 55.9223 71.0058 56.0223 71.5058Z" fill="#FDFCFF"/>
<path d="M158.721 204.806L152.021 149.706C151.921 149.006 152.421 148.306 153.121 148.206C153.921 148.106 154.521 148.606 154.621 149.306L161.321 204.406C161.421 205.206 160.921 205.806 160.121 205.906C160.121 205.906 160.087 205.906 160.021 205.906C159.321 205.906 158.821 205.506 158.721 204.806Z" fill="black"/>
<path d="M179.721 204.806L173.02 149.706C172.92 149.006 173.421 148.306 174.221 148.206C174.921 148.106 175.621 148.606 175.721 149.306L182.32 204.406C182.42 205.206 181.921 205.806 181.221 205.906C181.154 205.906 181.087 205.906 181.02 205.906C180.32 205.906 179.821 205.506 179.721 204.806Z" fill="black"/>
<path d="M157.42 187.306C157.42 186.606 158.02 186.006 158.72 186.006H177.22C178.02 186.006 178.62 186.606 178.62 187.306C178.62 188.006 178.02 188.606 177.22 188.606H158.72C158.02 188.606 157.42 188.006 157.42 187.306Z" fill="black"/>
<path d="M164.021 205.906C163.321 205.806 162.821 205.206 162.921 204.406L169.521 150.806C169.621 150.106 170.321 149.606 171.021 149.706C171.721 149.806 172.221 150.506 172.121 151.206L165.521 204.806C165.421 205.506 164.821 205.906 164.221 205.906C164.154 205.906 164.088 205.906 164.021 205.906Z" fill="black"/>
<path d="M143.021 205.906C142.221 205.806 141.721 205.206 141.821 204.406L148.521 150.806C148.621 150.106 149.221 149.606 150.021 149.706C150.721 149.806 151.221 150.506 151.121 151.206L144.421 204.806C144.421 205.506 143.821 205.906 143.121 205.906C143.121 205.906 143.088 205.906 143.021 205.906Z" fill="black"/>
<path d="M145.621 187.306C145.621 186.606 146.221 186.006 146.921 186.006H165.421C166.121 186.006 166.721 186.606 166.721 187.306C166.721 188.006 166.121 188.606 165.421 188.606H146.921C146.221 188.606 145.621 188.006 145.621 187.306Z" fill="black"/>
<path d="M181.921 144.606V149.506C181.921 150.706 180.921 151.806 179.621 151.806H169.221H156.421H145.921C144.721 151.806 143.721 150.706 143.721 149.506V144.606C143.721 143.406 144.721 142.406 145.921 142.406H156.421H169.221H179.621C180.921 142.406 181.921 143.406 181.921 144.606Z" fill="#AAB6C2"/>
<path d="M144.022 177.506C143.922 176.706 147.522 173.406 147.822 173.606C148.522 174.106 151.222 176.206 151.322 176.906C151.322 177.506 148.022 181.106 147.322 180.606C146.722 180.106 144.122 178.106 144.022 177.506Z" fill="white"/>
<path fill-rule="evenodd" clip-rule="evenodd" d="M147.522 180.906C147.388 180.906 147.288 180.872 147.222 180.806C147.122 180.806 143.922 178.406 143.822 177.506C143.622 176.606 146.722 173.906 147.322 173.506C147.522 173.406 147.722 173.306 147.922 173.406C148.222 173.606 151.522 176.006 151.522 176.906C151.522 177.606 149.222 180.106 148.122 180.706C148.022 180.806 147.722 180.906 147.522 180.906ZM147.922 180.206C149.122 179.506 151.022 177.306 151.022 176.906C151.022 176.406 148.822 174.606 147.722 173.906C147.022 174.206 144.322 176.906 144.322 177.406C144.422 177.906 146.422 179.606 147.522 180.406C147.522 180.406 147.622 180.406 147.922 180.206Z" fill="black"/>
<path d="M150.721 175.906C150.721 175.906 154.621 176.406 155.421 179.306C155.421 179.306 148.021 188.406 145.221 190.606C145.221 190.606 141.921 187.806 143.721 185.306C145.421 182.806 147.521 180.606 147.521 180.606C147.521 180.606 151.021 179.206 150.721 175.906Z" fill="#AAB6C2"/>
<path d="M162.522 135.106C160.022 141.206 149.722 144.306 142.122 147.006C137.522 148.606 137.122 150.406 136.822 152.106C135.422 158.906 146.922 168.106 149.922 173.706C150.022 174.706 149.022 175.706 147.822 176.506C145.922 177.906 143.322 178.806 143.322 178.806C133.922 169.006 119.722 155.606 121.122 146.006C123.622 129.906 147.022 120.806 147.022 120.806C150.822 115.906 166.822 124.606 162.522 135.106Z" fill="black"/>
<path d="M157.021 177.405C157.021 176.705 161.121 174.005 161.321 174.205C162.021 174.805 164.321 177.305 164.221 178.005C164.221 178.605 160.421 181.705 159.821 181.005C159.221 180.505 157.021 178.105 157.021 177.405Z" fill="white"/>
<path fill-rule="evenodd" clip-rule="evenodd" d="M160.021 181.405C159.887 181.405 159.754 181.339 159.621 181.205C159.621 181.205 156.821 178.405 156.721 177.405C156.721 176.605 160.221 174.405 160.921 174.105C161.121 174.005 161.321 173.905 161.521 174.005C161.721 174.305 164.621 177.105 164.521 178.005C164.421 178.705 161.721 180.905 160.521 181.305C160.421 181.305 160.221 181.405 160.021 181.405ZM159.921 180.905C159.921 180.905 160.021 180.905 160.421 180.805C161.721 180.305 163.921 178.305 164.021 177.905C164.021 177.505 162.121 175.305 161.221 174.505C160.521 174.705 157.321 176.905 157.221 177.405C157.321 177.905 159.021 179.905 159.921 180.905Z" fill="black"/>
<path d="M154.622 132.706C152.322 135.406 149.522 137.706 147.122 140.506C145.322 142.572 143.655 144.739 142.122 147.006C137.522 148.606 137.122 150.406 136.822 152.106C135.422 158.906 146.922 168.106 149.922 173.706C150.022 174.706 149.022 175.706 147.822 176.506C146.922 175.906 146.122 175.106 145.422 174.506C143.022 172.306 141.022 169.906 139.222 167.306C135.722 162.006 132.722 157.706 132.222 151.406C131.922 146.906 132.022 145.506 132.822 141.906C133.322 139.706 134.722 137.106 136.022 135.106C139.222 130.006 145.522 128.206 149.922 124.606C149.989 124.539 150.055 124.506 150.122 124.506C150.122 124.206 150.322 124.006 150.622 124.106C155.322 125.006 157.922 128.606 154.622 132.706Z" fill="black"/>
<path d="M163.822 177.005C163.822 177.005 167.622 178.005 168.022 181.005C168.022 181.005 159.222 188.805 156.122 190.605C156.122 190.605 153.322 187.305 155.422 185.105C157.622 182.905 160.022 181.105 160.022 181.105C160.022 181.105 163.622 180.205 163.822 177.005Z" fill="#AAB6C2"/>
<path d="M176.222 136.605C171.622 145.905 153.222 143.205 151.922 147.805C150.022 154.405 159.022 172.305 162.922 174.805C162.789 175.072 162.622 175.372 162.422 175.705C161.222 178.005 158.222 180.205 158.222 180.205C150.522 173.505 136.322 158.005 135.722 147.505C134.722 131.305 161.922 121.205 161.922 121.205C165.322 117.405 176.222 123.305 177.222 131.105C177.422 132.905 177.222 134.705 176.222 136.605Z" fill="black"/>
<path d="M176.222 136.605C171.622 145.905 153.222 143.205 151.922 147.805C150.022 154.405 159.022 172.305 162.922 174.805C162.789 175.072 162.622 175.372 162.422 175.705C157.922 172.705 154.522 168.505 152.222 163.505C150.922 160.705 149.922 157.805 148.922 155.005C147.822 152.105 146.922 152.305 147.522 149.305C148.522 144.105 152.322 142.805 157.022 141.805C163.622 140.505 171.622 138.705 174.122 131.605C173.722 131.405 172.922 125.205 173.422 125.205C174.522 125.105 176.422 126.405 177.222 131.105C177.422 132.905 177.222 134.705 176.222 136.605Z" fill="black"/>
<path d="M179.822 76.5055C180.122 80.9055 174.722 85.8055 170.222 84.3055C167.522 83.3055 165.622 80.6055 164.722 77.9055C164.322 76.5055 164.222 74.8055 163.522 73.4055C162.122 70.8055 160.422 71.2055 158.422 69.9055C158.355 69.8389 158.289 69.8055 158.222 69.8055C158.022 69.7055 157.922 69.5055 157.922 69.1055C158.522 66.1055 162.722 63.4055 165.722 64.5055C167.622 65.2055 168.922 66.9055 169.822 68.6055C170.522 70.0055 170.922 71.5055 171.522 72.9055C171.922 73.9055 172.422 75.5055 173.122 76.2055C175.022 78.2055 177.622 76.7055 178.722 76.1055C179.122 75.8055 179.822 75.9055 179.822 76.5055Z" fill="black"/>
<path d="M138.921 109.506C138.921 109.506 141.021 106.206 141.921 104.706C142.321 104.106 142.754 103.372 143.221 102.506C143.354 102.239 143.521 101.939 143.721 101.606C143.787 101.472 143.854 101.339 143.921 101.206C146.921 96.0055 150.821 90.0055 154.121 88.5055C157.321 87.0055 154.421 101.906 154.421 101.906C154.421 101.906 154.521 103.206 154.321 105.006C154.021 106.806 153.321 109.006 151.821 111.006C151.554 111.406 151.221 111.806 150.821 112.206C148.621 114.506 145.521 119.406 139.821 120.206C139.021 120.306 135.921 118.906 135.321 118.206C132.721 115.006 138.921 109.506 138.921 109.506Z" fill="white"/>
<path fill-rule="evenodd" clip-rule="evenodd" d="M139.721 120.506C138.721 120.506 135.821 119.106 135.121 118.306C132.421 115.006 138.221 109.706 138.721 109.306C138.921 109.006 140.921 106.006 141.721 104.606C142.055 103.939 142.455 103.206 142.921 102.406C143.055 102.206 143.188 102.006 143.321 101.806L143.521 101.506C143.588 101.372 143.621 101.272 143.621 101.206L143.721 101.006C146.521 96.3057 150.521 89.8057 154.021 88.2057C154.521 88.0057 154.821 88.1057 155.121 88.3057C156.921 89.8057 154.921 100.506 154.621 101.906C154.721 102.206 154.721 103.406 154.521 105.106C154.188 107.372 153.355 109.372 152.021 111.106C151.755 111.572 151.421 112.006 151.021 112.406C150.621 112.806 150.121 113.306 149.721 113.806C147.521 116.306 144.621 119.806 139.921 120.406C139.855 120.472 139.788 120.506 139.721 120.506ZM154.521 88.6057C154.455 88.6057 154.355 88.639 154.221 88.7057C150.821 90.2057 146.921 96.6057 144.221 101.306L144.121 101.506C144.055 101.572 143.988 101.639 143.921 101.706L143.721 102.006C143.588 102.272 143.488 102.506 143.421 102.706C142.955 103.506 142.521 104.239 142.121 104.906C141.221 106.306 139.121 109.606 139.121 109.606H139.021C139.021 109.706 133.021 115.006 135.521 118.006C136.121 118.706 139.021 120.106 139.821 120.006C144.321 119.306 147.221 116.006 149.321 113.506C149.788 112.972 150.221 112.472 150.621 112.006C151.021 111.606 151.355 111.206 151.621 110.806C152.888 109.139 153.688 107.206 154.021 105.006C154.321 103.206 154.121 102.006 154.121 101.906C155.121 97.1057 156.021 89.7057 154.721 88.7057C154.721 88.639 154.655 88.6057 154.521 88.6057Z" fill="black"/>
<path d="M154.421 101.906C154.421 101.906 154.521 103.206 154.321 105.006C153.921 107.106 153.121 110.006 151.021 112.406C148.821 114.906 141.221 102.806 143.421 99.8057C146.721 95.2057 151.021 89.5057 154.221 88.0057C157.521 86.5057 154.421 101.906 154.421 101.906Z" fill="#7977C6"/>
<path d="M151.721 101.806C154.021 103.506 150.122 112.806 149.122 112.406C148.222 111.906 146.521 109.706 146.521 109.706C146.521 109.706 148.322 108.506 148.922 106.406C149.622 104.306 148.622 101.006 148.622 101.006C148.622 101.006 149.421 100.206 151.721 101.806Z" fill="black"/>
<path d="M149.022 110.905C152.422 104.005 147.922 103.105 147.722 97.0054C147.422 90.9054 158.422 85.4054 158.422 85.4054C177.922 84.3054 173.322 95.7054 171.422 104.905C171.222 105.772 171.089 106.605 171.022 107.405C170.956 107.805 170.922 108.205 170.922 108.605C170.522 117.705 179.222 126.405 179.222 126.405C165.622 134.005 140.822 124.805 140.822 124.805C140.822 124.805 145.522 117.705 149.022 110.905Z" fill="#7977C6"/>
<path d="M165.521 90.0054C165.521 90.0054 165.221 98.2054 168.721 101.505C170.121 102.805 170.921 104.005 171.421 104.905C171.221 105.772 171.088 106.605 171.021 107.405C170.921 107.805 171.321 112.205 171.321 112.605C169.621 111.305 167.421 104.605 166.421 102.905C165.121 100.305 164.721 94.1054 165.521 90.0054Z" fill="black"/>
<path d="M161.321 80.7056V85.3056C161.321 85.3056 158.421 88.5056 156.421 88.1056C155.421 87.9056 156.421 86.2056 156.421 86.2056V82.8056L161.321 80.7056Z" fill="white"/>
<path fill-rule="evenodd" clip-rule="evenodd" d="M156.721 88.4057C156.588 88.4057 156.455 88.4057 156.321 88.4057C156.055 88.339 155.888 88.2057 155.821 88.0057C155.521 87.4057 156.021 86.4057 156.121 86.2057V82.6057L161.621 80.3057V85.4057L161.521 85.5057C161.421 85.6057 158.821 88.4057 156.721 88.4057ZM156.621 83.0057V86.4057C156.421 86.8057 156.121 87.5057 156.221 87.8057C156.321 87.8057 156.321 87.9057 156.421 87.9057C158.121 88.2057 160.721 85.7057 161.121 85.2057V81.1057L156.621 83.0057Z" fill="black"/>
<path d="M161.921 71.8052C161.921 71.8052 164.421 76.6052 161.821 80.9052C159.221 85.3052 154.021 83.4052 153.621 80.9052C153.121 77.5052 153.921 73.4052 153.921 73.4052L161.921 71.8052Z" fill="white"/>
<path fill-rule="evenodd" clip-rule="evenodd" d="M157.622 83.8054C157.289 83.8054 156.956 83.772 156.622 83.7054C154.922 83.3054 153.622 82.2054 153.422 81.0054C152.922 77.5054 153.622 73.4054 153.622 73.3054V73.2054L162.122 71.5054V71.6054C162.222 71.7054 164.622 76.6054 162.022 81.0054C161.022 82.8054 159.422 83.8054 157.622 83.8054ZM154.122 73.6054C153.922 74.4054 153.422 77.9054 153.922 80.9054C154.022 81.9054 155.222 82.9054 156.722 83.2054C158.622 83.6054 160.522 82.7054 161.622 80.8054C163.822 77.1054 162.222 72.9054 161.822 72.0054L154.122 73.6054Z" fill="black"/>
<path d="M152.121 73.8054C152.321 73.5054 152.621 73.4054 152.821 73.2054C153.421 72.6054 153.021 72.4054 153.321 71.8054C153.621 71.3054 153.821 71.0054 154.321 70.7054C155.421 69.8054 157.021 69.6054 158.321 69.5054C158.821 69.5054 158.921 69.9054 158.921 70.2054C160.221 70.1054 162.021 70.9054 162.821 71.6054C164.321 72.9054 165.321 75.6054 164.621 77.6054C164.221 79.2054 162.821 80.8054 161.521 79.3054C160.421 78.1054 160.221 76.8054 159.821 75.4054C159.754 74.872 159.654 74.4054 159.521 74.0054C158.521 73.2054 157.321 72.9054 156.321 73.2054C156.121 73.5054 156.021 74.0054 155.821 74.3054C155.554 74.8387 155.187 75.272 154.721 75.6054C154.121 76.2054 153.021 76.6054 152.221 75.9054C151.521 75.4054 151.621 74.4054 152.121 73.8054Z" fill="black"/>
<path d="M159.621 75.8053C159.621 75.8053 160.821 74.8053 161.421 75.8053C162.121 76.9053 161.221 77.8053 160.621 77.8053C160.021 77.7053 159.421 76.4053 159.621 75.8053Z" fill="white"/>
<path fill-rule="evenodd" clip-rule="evenodd" d="M160.722 78.0055C160.656 78.0055 160.622 78.0055 160.622 78.0055C160.289 78.0055 160.022 77.8055 159.822 77.4055C159.522 77.0055 159.222 76.2055 159.422 75.7055V75.6055C159.522 75.6055 160.222 75.0055 160.922 75.1055C161.256 75.1721 161.522 75.3721 161.722 75.7055C162.022 76.3055 162.022 76.9055 161.722 77.4055C161.422 77.8055 161.022 78.0055 160.722 78.0055ZM159.822 76.0055C159.822 76.3055 159.922 76.8055 160.222 77.2055C160.322 77.4055 160.522 77.5055 160.622 77.5055C160.822 77.6055 161.122 77.4055 161.222 77.1055C161.322 77.0055 161.622 76.5055 161.222 75.9055C161.156 75.7055 161.022 75.6055 160.822 75.6055C160.522 75.6055 160.022 75.8055 159.822 76.0055Z" fill="black"/>
<path d="M160.721 71.2056C160.021 70.2056 158.721 70.0056 157.621 69.9056C156.821 69.9056 157.021 68.7056 157.821 68.7056C159.321 68.8056 160.821 69.2056 161.721 70.4056C162.221 71.1056 161.221 71.8056 160.721 71.2056Z" fill="#7977C6"/>
<path d="M184.223 121.205C180.023 127.205 161.123 121.505 161.123 121.505L161.323 118.205C161.323 118.205 172.423 119.105 174.723 115.405C175.123 114.805 173.923 107.105 171.823 105.105C170.923 104.205 169.923 103.405 169.123 102.605C167.023 100.905 165.623 98.5052 165.123 95.8052C164.723 93.2052 165.023 91.1052 165.623 89.4052C166.523 87.0052 169.523 86.3052 171.423 87.8052C175.223 90.9052 181.223 98.7052 181.323 98.9052C186.723 105.905 188.523 115.205 184.223 121.205Z" fill="white"/>
<path fill-rule="evenodd" clip-rule="evenodd" d="M175.922 124.205C169.222 124.205 161.522 121.905 161.022 121.805L160.822 121.705L161.122 118.005H161.322C161.522 118.005 172.322 118.805 174.422 115.305C174.722 114.705 173.722 107.205 171.622 105.305C170.822 104.505 169.922 103.672 168.922 102.805C166.822 100.905 165.322 98.4054 164.922 95.8054C164.522 93.5388 164.689 91.3721 165.422 89.3054C165.822 88.1054 166.822 87.2054 168.022 86.9054C169.322 86.6054 170.622 86.8054 171.622 87.7054C175.022 90.5054 180.422 97.3054 181.522 98.7054C187.322 106.305 188.522 115.605 184.422 121.305C182.922 123.505 179.522 124.205 175.922 124.205ZM161.322 121.405C163.322 121.905 180.122 126.505 184.022 121.005C188.022 115.505 186.822 106.405 181.122 99.0054C180.122 97.7054 174.722 90.8054 171.322 88.0054C170.422 87.3054 169.222 87.1054 168.122 87.4054C167.122 87.7054 166.322 88.4054 165.922 89.5054C165.189 91.5054 165.022 93.5721 165.422 95.7054C165.822 98.3054 167.222 100.605 169.222 102.405C170.289 103.339 171.222 104.172 172.022 104.905C174.122 107.005 175.322 114.805 174.922 115.605C172.822 119.105 163.322 118.605 161.622 118.505L161.322 121.405Z" fill="black"/>
<path d="M171.821 106.806C171.021 106.006 165.321 100.706 164.421 95.5056C164.121 93.2056 164.721 87.3056 167.721 86.6056C172.421 85.5056 179.121 92.5056 183.521 97.7056C181.521 102.206 177.121 105.306 171.821 106.806Z" fill="#7977C6"/>
<path d="M148.121 122.706L160.421 123.406L148.621 126.706L148.121 122.706Z" fill="#AAB6C2"/>
<path d="M148.82 126.905L160.12 123.805L160.22 124.405L148.82 127.905V126.905Z" fill="white"/>
<path fill-rule="evenodd" clip-rule="evenodd" d="M160.421 124.605L148.621 128.205V126.705L160.421 123.405V124.605ZM149.021 127.105V127.605L159.821 124.305V124.105L149.021 127.105Z" fill="black"/>
<path d="M123.121 125.206L148.621 126.706V128.206L123.121 126.506V125.206Z" fill="#AAB6C2"/>
<path d="M123.421 125.005L121.521 111.705C121.454 111.505 121.521 111.305 121.721 111.105C121.854 110.972 122.021 110.905 122.221 110.905L145.721 112.305C146.021 112.305 146.321 112.605 146.421 112.905L148.321 126.505L123.421 125.005Z" fill="white"/>
<path fill-rule="evenodd" clip-rule="evenodd" d="M122.321 110.605L145.721 112.005C146.221 112.105 146.621 112.405 146.621 112.905L148.621 126.705L123.121 125.205L121.221 111.805C121.221 111.105 121.621 110.605 122.221 110.605C122.287 110.605 122.321 110.605 122.321 110.605ZM121.821 111.305C121.754 111.439 121.721 111.572 121.721 111.705L123.621 124.705L148.021 126.205L146.121 113.005C146.121 112.705 145.921 112.505 145.721 112.505L122.321 111.105H122.221C122.087 111.105 121.954 111.172 121.821 111.305Z" fill="black"/>
<path d="M151.62 117.506C152.42 117.206 153.32 117.106 154.12 117.206C154.253 117.206 154.386 117.172 154.52 117.106C154.453 117.039 154.386 116.972 154.32 116.906C154.02 116.206 154.02 115.206 154.72 114.906C155.52 114.506 156.12 115.606 156.52 116.106C157.02 116.706 157.52 117.206 158.22 117.606C158.92 117.906 159.62 117.906 160.42 118.106C160.92 118.206 161.82 118.206 162.12 118.706C162.32 119.106 162.32 120.006 162.22 120.406C162.12 121.006 161.62 121.306 161.12 121.506C160.72 121.706 160.22 121.906 159.72 121.906C158.82 122.206 158.02 122.306 157.12 122.106C156.92 122.039 156.753 121.972 156.62 121.906C155.82 122.239 155.02 122.339 154.22 122.206C153.82 122.106 153.72 121.706 153.82 121.406C153.62 121.406 153.453 121.339 153.32 121.206C153.186 121.006 153.12 120.839 153.12 120.706C152.987 120.572 152.853 120.439 152.72 120.306C152.22 119.906 152.22 119.306 152.32 118.806C151.52 119.206 150.92 119.806 150.32 120.506C149.92 120.806 149.52 120.706 149.32 120.306C148.72 119.006 150.62 117.806 151.62 117.506Z" fill="white"/>
<path fill-rule="evenodd" clip-rule="evenodd" d="M154.921 122.506C154.654 122.506 154.387 122.472 154.121 122.406C153.921 122.406 153.754 122.306 153.621 122.106C153.554 121.972 153.521 121.806 153.521 121.606C153.387 121.539 153.254 121.472 153.121 121.406C152.987 121.206 152.921 121.006 152.921 120.806C152.787 120.739 152.654 120.639 152.521 120.506C152.221 120.206 152.021 119.706 152.021 119.306C151.554 119.572 151.021 120.006 150.421 120.606C150.221 120.806 150.021 120.906 149.721 120.906C149.421 120.906 149.221 120.706 149.121 120.406C148.921 120.006 148.921 119.606 149.121 119.206C149.521 118.206 150.821 117.506 151.521 117.206C152.254 117.006 153.087 116.906 154.021 116.906C153.921 116.506 153.721 115.906 154.021 115.306C154.154 114.972 154.354 114.739 154.621 114.606C155.521 114.306 156.121 115.106 156.421 115.606C156.554 115.739 156.654 115.839 156.721 115.906C157.121 116.406 157.621 117.006 158.321 117.406C158.821 117.606 159.321 117.706 159.921 117.706C160.054 117.772 160.221 117.806 160.421 117.806C160.487 117.806 160.587 117.839 160.721 117.906C161.221 117.906 162.021 118.006 162.321 118.606C162.621 119.106 162.621 120.006 162.521 120.506C162.321 121.206 161.721 121.506 161.221 121.806C160.821 122.006 160.221 122.106 159.721 122.206C159.021 122.406 158.021 122.606 157.021 122.306C156.887 122.306 156.754 122.272 156.621 122.206C156.021 122.406 155.454 122.506 154.921 122.506ZM152.821 118.306L152.621 118.906C152.421 119.306 152.521 119.806 152.921 120.206C152.987 120.272 153.087 120.339 153.221 120.406L153.321 120.506L153.421 120.606C153.421 120.806 153.454 120.939 153.521 121.006C153.587 121.072 153.687 121.139 153.821 121.206L154.121 121.306L154.021 121.506C153.954 121.639 153.954 121.739 154.021 121.806C154.087 121.872 154.154 121.906 154.221 121.906C155.021 122.039 155.787 121.972 156.521 121.706L156.621 121.606L156.721 121.706C156.854 121.772 157.021 121.839 157.221 121.906C158.021 122.106 158.921 121.906 159.621 121.706C160.221 121.606 160.721 121.406 161.021 121.306C161.421 121.106 161.921 120.906 162.021 120.406C162.121 119.906 162.121 119.206 161.921 118.806C161.721 118.506 161.121 118.406 160.621 118.406C160.554 118.339 160.454 118.306 160.321 118.306C160.187 118.306 160.021 118.272 159.821 118.206C159.221 118.106 158.621 118.106 158.121 117.806C157.321 117.406 156.721 116.806 156.321 116.206C156.254 116.139 156.154 116.039 156.021 115.906C155.621 115.306 155.321 114.906 154.821 115.106C154.621 115.172 154.487 115.306 154.421 115.506C154.321 115.906 154.421 116.406 154.521 116.806C154.521 116.806 154.554 116.839 154.621 116.906C154.621 116.972 154.654 117.006 154.721 117.006L154.821 117.306L154.521 117.406C154.454 117.406 154.421 117.406 154.421 117.406C154.354 117.406 154.287 117.406 154.221 117.406H154.121C153.187 117.406 152.387 117.506 151.721 117.706C151.021 117.906 149.921 118.606 149.521 119.406C149.387 119.672 149.387 119.939 149.521 120.206C149.587 120.339 149.687 120.406 149.821 120.406C149.887 120.406 149.987 120.372 150.121 120.306C150.821 119.506 151.521 118.906 152.221 118.606L152.821 118.306Z" fill="black"/>
<path d="M130.622 127.306C130.556 127.239 130.522 127.206 130.522 127.206C130.422 127.306 130.222 127.506 129.922 127.506C129.722 127.506 129.522 127.306 129.422 127.106C129.422 127.106 129.422 127.072 129.422 127.006C129.122 127.406 128.722 127.806 128.222 127.706C127.822 127.606 127.722 127.206 127.722 126.806C127.589 126.939 127.456 127.072 127.322 127.206C126.822 127.606 126.222 127.106 126.122 126.706C126.056 126.639 126.056 126.572 126.122 126.506C126.122 126.506 126.122 126.472 126.122 126.406C126.256 126.006 126.422 125.606 126.622 125.206C126.822 124.906 127.022 124.506 127.322 124.406C127.922 124.006 128.122 124.706 128.222 125.106C128.422 124.706 128.722 124.306 129.222 124.506C129.622 124.706 129.822 124.906 129.922 125.306C130.056 125.106 130.222 124.939 130.422 124.806C130.822 124.506 131.222 125.006 131.322 125.406C131.322 125.539 131.322 125.706 131.322 125.906C131.322 125.839 131.356 125.806 131.422 125.806C131.822 125.706 132.022 126.206 132.022 126.406C132.222 127.106 131.322 127.706 130.622 127.306Z" fill="white"/>
<path fill-rule="evenodd" clip-rule="evenodd" d="M128.422 127.906C128.356 127.906 128.289 127.906 128.222 127.906C127.922 127.906 127.622 127.806 127.522 127.406C127.256 127.606 126.989 127.672 126.722 127.606C126.222 127.406 125.922 127.106 125.822 126.806C125.822 126.672 125.856 126.539 125.922 126.406C126.056 125.939 126.222 125.506 126.422 125.106L126.522 125.006C126.622 124.706 126.922 124.306 127.222 124.106C127.522 124.006 127.722 124.006 127.922 124.106C128.122 124.172 128.256 124.306 128.322 124.506C128.389 124.439 128.489 124.372 128.622 124.306C128.822 124.172 129.056 124.172 129.322 124.306C129.656 124.372 129.889 124.539 130.022 124.806C130.089 124.672 130.156 124.606 130.222 124.606C130.522 124.406 130.822 124.406 130.922 124.506C131.322 124.606 131.522 125.006 131.522 125.306C131.589 125.372 131.622 125.472 131.622 125.606C131.689 125.606 131.789 125.639 131.922 125.706C132.122 125.806 132.222 126.106 132.322 126.406C132.422 126.806 132.222 127.206 131.822 127.406C131.422 127.706 130.922 127.706 130.522 127.506C130.422 127.606 130.222 127.706 129.922 127.706C129.722 127.706 129.522 127.606 129.322 127.506C129.022 127.806 128.622 127.906 128.422 127.906ZM128.022 126.106V126.906C127.922 127.406 128.122 127.406 128.322 127.406C128.622 127.506 129.022 127.206 129.222 126.906L129.422 126.506L129.622 127.006C129.722 127.106 129.822 127.206 129.922 127.206C130.122 127.206 130.222 127.106 130.322 127.006L130.722 126.606L130.822 127.106C131.122 127.206 131.422 127.206 131.522 127.006C131.722 126.906 131.822 126.706 131.822 126.406C131.822 126.306 131.722 126.206 131.622 126.106C131.556 126.039 131.522 126.039 131.522 126.106L131.022 126.306V125.806C131.089 125.672 131.089 125.539 131.022 125.406C131.022 125.206 130.922 125.006 130.722 125.006C130.722 124.906 130.622 124.906 130.522 125.006C130.389 125.072 130.256 125.206 130.122 125.406L129.822 125.906L129.722 125.306C129.656 125.039 129.489 124.872 129.222 124.806C129.022 124.739 128.889 124.706 128.822 124.706C128.689 124.772 128.589 124.939 128.522 125.206L128.222 126.006L128.022 125.106C127.922 124.806 127.822 124.606 127.722 124.506C127.722 124.506 127.622 124.506 127.422 124.606C127.222 124.706 127.122 125.006 126.922 125.206V125.306C126.656 125.706 126.456 126.106 126.322 126.506V126.606C126.422 126.906 126.622 127.006 126.822 127.106C126.956 127.106 127.089 127.072 127.222 127.006C127.356 126.939 127.456 126.839 127.522 126.706L128.022 126.106Z" fill="black"/>
<path d="M159.822 75.3055C159.822 75.3055 160.422 77.8055 160.822 78.4055C161.322 79.0055 158.822 79.7055 158.822 79.7055L158.322 76.8055L158.622 75.1055L159.822 75.3055Z" fill="white"/>
<path d="M164.022 119.706C164.322 120.106 163.122 121.906 162.322 121.606C161.522 121.306 160.822 121.406 160.822 121.406V118.406L162.922 118.606C162.922 118.606 163.722 119.206 164.022 119.706Z" fill="white"/>
<path d="M169.921 168.706L165.521 204.806C165.421 205.506 164.821 205.906 164.221 205.906C164.154 205.906 164.088 205.906 164.021 205.906C163.321 205.806 162.821 205.206 162.921 204.406L167.321 168.706H169.921Z" fill="black"/>
</svg>
