<svg width="244" height="210" viewBox="0 0 244 210" fill="none" xmlns="http://www.w3.org/2000/svg">
<path d="M65.3597 36.4381C100.96 37.7381 103.96 27.338 142.16 10.738C147.36 8.53805 152.76 7.23805 158.26 6.83805C158.86 6.77139 159.46 6.73805 160.06 6.73805C194.36 5.33805 229.96 37.0381 220.76 72.8381C210.06 114.938 239.96 164.638 199.36 185.238C158.76 205.938 79.3597 224.138 38.8597 185.238C-1.64033 146.438 -26.4403 33.1381 65.3597 36.4381Z" fill="#E6EBF0"/>
<path d="M65.3597 36.4381C100.96 37.7381 103.96 27.338 142.16 10.738C147.36 8.53805 152.76 7.23805 158.26 6.83805C158.86 6.77139 159.46 6.73805 160.06 6.73805C194.36 5.33805 229.96 37.0381 220.76 72.8381C210.06 114.938 239.96 164.638 199.36 185.238C158.76 205.938 79.3597 224.138 38.8597 185.238C-1.64033 146.438 -26.4403 33.1381 65.3597 36.4381Z" fill="#E6EBF0"/>
<path d="M114.359 11.2381C97.3593 29.2381 76.9593 26.5381 69.9593 24.9381C68.2593 24.5381 67.1593 22.9382 67.3593 21.1382C69.8593 1.63815 134.259 -9.76187 114.359 11.2381Z" fill="#E6EBF0"/>
<path d="M206.06 209.538H16.2598V208.138H206.06V209.538Z" fill="black"/>
<path fill-rule="evenodd" clip-rule="evenodd" d="M167.459 22.9382H149.659V13.1382H167.459V22.9382ZM150.659 21.9382H166.459V14.2382H150.659V21.9382Z" fill="#AAB6C2"/>
<path fill-rule="evenodd" clip-rule="evenodd" d="M155.259 31.738H137.359V21.938H155.259V31.738ZM138.459 30.738H154.259V22.938H138.459V30.738Z" fill="#AAB6C2"/>
<path fill-rule="evenodd" clip-rule="evenodd" d="M172.36 113.738H154.56V103.938H172.36V113.738ZM155.56 112.738H171.36V105.038H155.56V112.738Z" fill="#AAB6C2"/>
<path fill-rule="evenodd" clip-rule="evenodd" d="M219.759 140.338H201.959V130.638H219.759V140.338ZM202.959 139.238H218.759V131.538H202.959V139.238Z" fill="#AAB6C2"/>
<path fill-rule="evenodd" clip-rule="evenodd" d="M104.36 190.038H86.5596V180.238H104.36V190.038ZM87.5596 189.038H103.36V181.338H87.5596V189.038Z" fill="#AAB6C2"/>
<path fill-rule="evenodd" clip-rule="evenodd" d="M87.5598 190.038H69.7598V180.238H87.5598V190.038ZM70.7598 189.038H86.5598V181.338H70.7598V189.038Z" fill="#AAB6C2"/>
<path fill-rule="evenodd" clip-rule="evenodd" d="M95.9601 198.738H78.1602V189.038H95.9601V198.738ZM79.1602 197.638H94.9601V189.938H79.1602V197.638Z" fill="#AAB6C2"/>
<path fill-rule="evenodd" clip-rule="evenodd" d="M40.6594 128.638H22.8594V118.838H40.6594V128.638ZM23.8594 127.638H39.6594V119.938H23.8594V127.638Z" fill="#AAB6C2"/>
<path fill-rule="evenodd" clip-rule="evenodd" d="M52.8596 137.338H35.0596V127.638H52.8596V137.338ZM36.0596 136.238H51.8596V128.538H36.0596V136.238Z" fill="#AAB6C2"/>
<path fill-rule="evenodd" clip-rule="evenodd" d="M121.56 72.4382H103.76V62.6382H121.56V72.4382ZM104.76 71.4382H120.56V63.7382H104.76V71.4382Z" fill="#AAB6C2"/>
<path fill-rule="evenodd" clip-rule="evenodd" d="M104.759 72.4382H86.8594V62.6382H104.759V72.4382ZM87.9594 71.4382H103.659V63.7382H87.9594V71.4382Z" fill="#AAB6C2"/>
<path fill-rule="evenodd" clip-rule="evenodd" d="M113.159 81.138H95.3594V71.438H113.159V81.138ZM96.3594 80.138H112.159V72.338H96.3594V80.138Z" fill="#AAB6C2"/>
<path fill-rule="evenodd" clip-rule="evenodd" d="M121.86 110.338C120.96 112.038 119.86 113.638 118.46 114.938L120.26 118.638L114.66 122.038L112.26 118.638C110.46 119.238 108.56 119.538 106.56 119.538L105.26 123.438L98.96 121.838L99.5599 117.838C97.8599 116.938 96.26 115.738 94.96 114.438L91.2599 116.238L87.86 110.638L91.2599 108.238C90.6599 106.438 90.36 104.538 90.36 102.538L86.46 101.238L88.0599 94.838L92.0599 95.538C92.9599 93.738 94.16 92.238 95.46 90.938L93.66 87.238L99.2599 83.838L101.66 87.138C103.46 86.538 105.36 86.238 107.36 86.338L108.66 82.438L115.06 83.938L114.36 88.038C116.16 88.938 117.66 90.038 118.96 91.438L122.66 89.638L126.06 95.238L122.76 97.638C123.36 99.438 123.66 101.338 123.56 103.338L127.46 104.638L125.96 110.938L121.86 110.338ZM118.36 105.838C119.96 99.438 116.06 93.038 109.76 91.538C103.46 89.938 97.0599 93.838 95.5599 100.138C93.9599 106.438 97.86 112.838 104.16 114.438C110.46 115.938 116.86 112.138 118.36 105.838Z" fill="#7977C6"/>
<path fill-rule="evenodd" clip-rule="evenodd" d="M146.36 39.6378C145.56 41.4378 144.36 42.9378 142.96 44.2378L144.86 47.9378L139.26 51.3378L136.76 48.0378C134.96 48.6378 133.06 48.9378 131.16 48.8378L129.86 52.7378L123.46 51.2378L124.16 47.1378C122.36 46.2378 120.86 45.1378 119.46 43.7378L115.76 45.5378L112.46 39.9378L115.76 37.5378C115.16 35.7378 114.86 33.8378 114.86 31.8378L110.96 30.5378L112.56 24.2378L116.66 24.8378C117.56 23.1378 118.66 21.5378 120.06 20.2378L118.26 16.5378L123.76 13.1378L126.26 16.5378C128.06 15.8378 129.96 15.5378 131.86 15.6378L133.26 11.7378L139.56 13.3378L138.96 17.3378C140.66 18.2378 142.26 19.4378 143.56 20.7378L147.26 18.9378L150.66 24.5378L147.26 26.9378C147.86 28.7378 148.16 30.6378 148.16 32.6378L152.06 33.9378L150.46 40.3378L146.36 39.6378ZM142.96 35.0378C144.46 28.7378 140.66 22.3378 134.36 20.7378C128.06 19.2378 121.66 23.0378 120.06 29.3378C118.46 35.6378 122.36 42.0378 128.66 43.6378C134.96 45.1378 141.36 41.3378 142.96 35.0378Z" fill="white"/>
<path fill-rule="evenodd" clip-rule="evenodd" d="M129.96 53.038L123.16 51.438L123.86 47.238C122.194 46.438 120.727 45.3713 119.46 44.038L115.66 45.838L112.06 39.938L115.46 37.438C114.927 35.7047 114.66 33.9047 114.66 32.038L110.66 30.738L112.36 23.938L116.46 24.538C117.327 22.938 118.427 21.4713 119.76 20.138L117.86 16.438L123.86 12.838L126.36 16.238C128.094 15.638 129.893 15.338 131.76 15.338L133.06 11.438L139.86 13.138L139.16 17.238C140.827 18.038 142.293 19.1047 143.56 20.438L147.36 18.638L150.96 24.638L147.56 27.038C148.16 28.838 148.427 30.638 148.36 32.438L152.36 33.838L150.66 40.538L146.56 39.938C145.693 41.538 144.593 43.0046 143.26 44.338L145.16 48.038L139.16 51.638L136.76 48.338C134.96 48.8713 133.16 49.138 131.36 49.138L129.96 53.038ZM123.66 50.938L129.56 52.438L130.96 48.538H131.06C132.993 48.6047 134.86 48.338 136.66 47.738L136.86 47.638L139.26 50.938L144.46 47.838L142.66 44.138L142.76 44.038C144.16 42.7047 145.293 41.1713 146.16 39.438V39.338L150.26 39.938L151.66 34.038L147.86 32.738V32.538C147.86 30.6713 147.56 28.8047 146.96 26.938V26.838L150.26 24.438L147.06 19.238L143.46 21.038L143.26 20.838C141.993 19.5046 140.493 18.4047 138.76 17.538L138.56 17.438L139.26 13.438L133.36 11.938L132.06 15.838H131.86C129.96 15.738 128.06 16.038 126.26 16.638L126.06 16.738L123.66 13.438L118.46 16.538L120.26 20.238L120.16 20.338C118.76 21.6713 117.66 23.2047 116.86 24.938L116.76 25.038L112.66 24.438L111.26 30.338L115.16 31.638L115.06 31.838C115.06 33.7046 115.36 35.5713 115.96 37.438L116.06 37.538L112.76 39.938L115.86 45.138L119.56 43.338L119.66 43.538C120.993 44.8713 122.493 45.9713 124.16 46.838L124.36 46.938L123.66 50.938ZM131.36 44.138C130.427 44.2047 129.493 44.1046 128.56 43.838C122.06 42.238 118.16 35.738 119.76 29.238C120.46 26.138 122.46 23.538 125.16 21.838C127.96 20.238 131.16 19.738 134.26 20.438C137.36 21.238 140.06 23.138 141.66 25.938C143.36 28.638 143.86 31.938 143.06 35.038C141.76 40.538 136.76 44.138 131.36 44.138ZM131.36 20.638C129.26 20.638 127.26 21.138 125.46 22.238C122.76 23.838 120.96 26.438 120.26 29.338C118.66 35.538 122.46 41.838 128.66 43.338C134.76 44.838 141.06 41.138 142.56 34.938C143.36 31.938 142.86 28.838 141.26 26.238C139.66 23.538 137.16 21.738 134.16 20.938C133.227 20.738 132.294 20.638 131.36 20.638Z" fill="black"/>
<path fill-rule="evenodd" clip-rule="evenodd" d="M205.26 54.6382C204.56 55.9382 203.66 57.1382 202.56 58.2382L203.96 61.1382L199.66 63.7382L197.76 61.1382C196.293 61.6049 194.793 61.8382 193.26 61.8382L192.26 64.8382L187.26 63.6382L187.76 60.4382C186.36 59.7382 185.16 58.8382 184.16 57.7382L181.26 59.2382L178.56 54.8382L181.16 52.9382C180.76 51.5382 180.46 50.0382 180.56 48.4382L177.46 47.4382L178.66 42.4382L181.86 42.9382C182.593 41.6048 183.493 40.4048 184.56 39.3382L183.16 36.4382L187.46 33.8382L189.46 36.4382C190.86 35.9382 192.36 35.7382 193.86 35.7382L194.86 32.6382L199.86 33.9382L199.36 37.1382C200.76 37.8049 201.96 38.6715 202.96 39.7382L205.86 38.3382L208.56 42.7382L205.96 44.6382C206.427 46.0382 206.627 47.5048 206.56 49.0382L209.66 50.1382L208.46 55.1382L205.26 54.6382ZM202.56 51.0382C203.76 46.0382 200.76 41.0382 195.76 39.8382C190.86 38.5382 185.86 41.6382 184.56 46.5382C183.36 51.5382 186.36 56.5382 191.36 57.7382C196.26 58.9382 201.36 55.9382 202.56 51.0382Z" fill="#AAB6C2"/>
<path fill-rule="evenodd" clip-rule="evenodd" d="M33.7596 49.3378C33.2262 50.4045 32.5263 51.3378 31.6596 52.1378L32.7596 54.4378L29.3596 56.5378L27.8596 54.4378C26.7263 54.8378 25.5596 55.0378 24.3596 55.0378L23.5596 57.4378L19.6596 56.4378L20.0596 53.9378C18.9929 53.4045 18.0596 52.7045 17.2596 51.8378L14.9596 52.9378L12.8596 49.5378L14.9596 48.0378C14.5596 46.9711 14.3929 45.8378 14.4596 44.6378L12.0596 43.7378L12.9596 39.9378L15.4596 40.2378C15.9929 39.1711 16.6929 38.2378 17.5596 37.4378L16.4596 35.1378L19.8596 33.1378L21.3596 35.1378C22.493 34.8045 23.6596 34.6378 24.8596 34.6378L25.6596 32.2378L29.5596 33.2378L29.1596 35.7378C30.2263 36.2711 31.1596 36.9711 31.9596 37.8378L34.2596 36.6378L36.2596 40.1378L34.2596 41.5378C34.6596 42.6711 34.8263 43.8378 34.7596 45.0378L37.1596 45.8378L36.2596 49.7378L33.7596 49.3378ZM31.6596 46.5378C32.5596 42.6378 30.2596 38.7378 26.3596 37.8378C22.4596 36.8378 18.5596 39.2378 17.5596 43.0378C16.6596 46.9378 18.9596 50.8378 22.8596 51.8378C26.7596 52.7378 30.6596 50.4378 31.6596 46.5378Z" fill="black"/>
<path d="M11.6597 201.538L0.0596357 112.838C-0.440364 108.938 2.25964 105.738 6.05964 105.738H136.26C140.16 105.738 143.76 108.938 144.26 112.838L155.76 201.538C156.36 205.338 153.66 208.538 149.76 208.538H19.6597C15.7597 208.538 12.1597 205.338 11.6597 201.538Z" fill="black"/>
<path d="M16.8598 194.938L5.25978 112.838C4.75978 108.938 7.45982 105.738 11.3598 105.738H141.46C145.36 105.738 148.96 108.938 149.46 112.838L161.06 194.938C161.56 198.738 158.86 201.938 155.06 201.938H24.8598C20.9598 201.938 17.3598 198.738 16.8598 194.938Z" fill="#AAB6C2"/>
<path d="M29.3597 197.938C25.9597 197.938 22.7597 195.138 22.2597 191.638L11.6597 115.938C11.3597 114.338 11.8597 112.738 12.8597 111.538C13.8597 110.438 15.2597 109.838 16.9597 109.838H136.96C140.36 109.838 143.56 112.638 144.06 116.038L154.66 191.738C154.96 193.338 154.46 194.938 153.46 196.138C152.46 197.238 151.06 197.938 149.36 197.938H29.3597Z" fill="white"/>
<path fill-rule="evenodd" clip-rule="evenodd" d="M144.26 116.038L154.96 191.638C155.46 195.238 152.96 198.138 149.36 198.138H29.3595C25.8595 198.138 22.5595 195.238 22.0595 191.638L11.3595 116.038C10.8595 112.438 13.3595 109.538 16.9595 109.538H136.96C140.46 109.538 143.76 112.438 144.26 116.038ZM16.9595 110.038C15.3595 110.038 13.9595 110.638 13.0595 111.738C12.0595 112.838 11.6595 114.338 11.8595 115.938L22.5595 191.638C22.9595 194.938 26.0595 197.638 29.3595 197.638H149.36C150.96 197.638 152.36 197.038 153.26 195.938C154.26 194.838 154.66 193.338 154.46 191.738L143.86 116.038C143.36 112.738 140.26 110.038 136.96 110.038H16.9595Z" fill="black"/>
<path opacity="0.5" d="M149.359 198.138H29.3594C25.8594 198.138 22.5594 195.238 22.0594 191.738L15.2594 143.138L14.8594 140.538L11.9594 119.738L11.3594 116.038C11.3594 115.971 11.3594 115.938 11.3594 115.938C10.9594 112.438 13.4594 109.538 16.9594 109.538H136.959C140.459 109.538 143.759 112.438 144.259 116.038L154.959 191.738C155.459 195.238 152.959 198.138 149.359 198.138Z" fill="#E6EBF0"/>
<path d="M16.2598 199.838V193.538H210.56V199.838C210.56 204.638 206.66 208.538 201.86 208.538H24.9598C20.1598 208.538 16.2598 204.638 16.2598 199.838Z" fill="black"/>
<path d="M16.6602 193.538H210.76V199.038H17.2601L16.6602 193.538Z" fill="#AAB6C2"/>
<path d="M39.3594 184.238L42.8594 181.838L67.1594 196.238L63.4594 199.638L39.3594 184.238Z" fill="black"/>
<path d="M233.559 92.7383L232.059 94.7383L229.559 98.0383L225.559 103.138L221.259 108.738L159.559 192.838C158.659 194.238 157.159 194.938 155.659 194.938H155.559C155.493 194.938 155.393 194.938 155.259 194.938C154.459 194.938 153.659 194.638 153.059 194.138L151.959 193.438L148.359 191.138L105.159 163.138L102.959 167.138L82.4594 199.738L78.5593 205.938H66.8594L96.3594 159.138H96.4594L99.3594 153.638C99.426 153.505 99.526 153.372 99.6594 153.238C100.259 152.238 101.359 151.438 102.459 151.138C102.859 151.005 103.226 150.938 103.559 150.938H103.859C104.759 150.938 105.559 151.238 106.259 151.638L149.659 179.738L154.859 183.138L199.859 120.738L208.359 109.738L219.259 95.5383L224.359 88.9383L224.859 88.2383L225.959 86.7383C226.459 86.1383 227.059 85.6383 227.659 85.3383C229.259 84.4383 231.359 84.4383 232.859 85.6383C233.459 86.1717 233.926 86.805 234.259 87.5383C234.959 89.1383 234.759 91.1383 233.559 92.7383Z" fill="black"/>
<path d="M238.659 118.638C236.359 118.638 234.359 116.838 234.059 114.338L231.259 87.1382L201.059 94.7382C198.459 95.3382 195.859 93.6382 195.359 90.9382C194.859 88.2382 196.659 85.5382 199.259 84.8382L234.659 76.0382C236.059 75.7382 237.359 75.9382 238.459 76.7382C239.559 77.5382 240.259 78.7382 240.459 80.1382L243.759 112.738C244.059 115.538 242.059 118.138 239.459 118.538C239.192 118.605 238.926 118.638 238.659 118.638Z" fill="black"/>
<path d="M94.2598 150.938H103.86L104.86 160.038L96.4598 159.538L94.2598 150.938Z" fill="black"/>
<path d="M148.16 188.438L157.16 190.438L155.66 194.938H148.66L148.16 188.438Z" fill="black"/>
<path d="M209.16 104.438L219.96 88.6381L228.06 88.0381L212.46 114.438L199.46 120.938L209.16 104.438Z" fill="black"/>
<path d="M222.36 75.938H236.06L234.96 83.738L219.76 84.038L222.36 75.938Z" fill="black"/>
<path d="M225.359 107.338L226.359 92.4384L236.059 86.3384L238.659 118.538H227.659L225.359 107.338Z" fill="black"/>
<path d="M183.359 87.6383C183.359 87.6383 203.059 86.7383 203.559 86.3383C204.159 85.9383 200.159 94.8383 200.159 94.8383H186.559L183.359 87.6383Z" fill="black"/>
<path d="M221.56 89.6383C221.56 90.7383 221.26 91.8383 220.56 92.7383L219.16 94.7383L208.36 109.738L200.76 120.338L154.56 189.838L152.46 192.838C152.26 193.105 152.093 193.305 151.96 193.438C151.06 194.438 149.86 194.938 148.66 194.938C147.76 194.938 146.76 194.738 145.96 194.238L102.96 167.138L96.5596 163.138L76.0596 199.038L72.1597 205.938H57.7596L38.7596 194.638C39.7596 195.538 12.1596 198.138 12.7596 196.938L39.3597 184.238L64.1597 198.938L64.2596 199.038L64.5596 198.638L66.1597 195.738L90.3597 153.638C90.9597 152.438 92.0597 151.538 93.3597 151.138C93.6264 151.005 93.9263 150.938 94.2596 150.938C94.3263 150.938 94.3597 150.938 94.3597 150.938H94.7596C95.5596 150.938 96.4597 151.238 97.1597 151.638L99.6597 153.238L104.46 156.238L147.16 183.138L149.66 179.738L208.36 92.9383L211.26 88.9383L212.76 86.7383C214.36 84.5383 217.36 84.0383 219.56 85.7383C220.46 86.4383 221.16 87.4383 221.36 88.5383C221.46 88.8383 221.56 89.2383 221.56 89.6383Z" fill="#7977C6"/>
<path d="M226.86 118.638C224.56 118.638 222.46 116.838 222.16 114.338L218.06 87.1382L188.16 94.7382C185.56 95.3382 182.96 93.6382 182.36 90.9382C181.66 88.2382 183.26 85.5382 185.96 84.8382L220.96 76.0382C222.26 75.7382 223.66 75.9382 224.76 76.7382C225.86 77.5382 226.66 78.7382 226.86 80.1382L231.76 112.738C232.16 115.538 230.26 118.138 227.66 118.538C227.393 118.605 227.126 118.638 226.86 118.638Z" fill="#7977C6"/>
<path d="M60.4596 104.438C64.5596 103.038 75.0595 101.738 75.0595 101.738C75.0595 101.738 96.9596 99.9381 97.6596 114.038C98.1596 124.138 94.3596 142.038 94.3596 142.038L91.7595 143.138C91.7595 143.138 85.1596 126.438 81.3596 122.438C75.7596 116.538 53.7596 118.538 48.9596 114.938C48.0596 114.238 60.2596 104.438 60.4596 104.438Z" fill="black"/>
<path d="M48.96 114.938C48.96 114.938 53.0599 107.938 57.5599 105.438C58.9599 104.638 87.16 107.938 91.46 120.038C96.26 133.538 91.7599 143.138 91.7599 143.138C91.7599 143.138 86.76 128.738 81.36 122.438C76.46 116.638 53.76 118.538 48.96 114.938Z" fill="black"/>
<path d="M42.7592 176.538L39.6592 180.338L37.6592 179.238L39.2592 173.938L42.7592 176.538Z" fill="white"/>
<path fill-rule="evenodd" clip-rule="evenodd" d="M39.6594 180.638L37.3594 179.338L39.1594 173.538L43.1594 176.438L39.6594 180.638ZM37.8594 179.038L39.4594 180.038L42.2593 176.538L39.2593 174.338L37.8594 179.038Z" fill="black"/>
<path d="M62.5596 102.238C62.5596 102.238 63.8596 119.438 58.9596 143.738C56.1596 157.938 42.7596 176.038 42.7596 176.038H38.6597C38.6597 176.038 44.2596 160.738 43.7596 140.838C43.3596 124.238 36.4596 111.738 39.0596 104.538C40.2596 100.938 62.5596 102.238 62.5596 102.238Z" fill="black"/>
<path d="M37.4596 175.638C36.7596 175.138 37.7596 174.838 37.7596 174.838C37.7596 174.838 37.2596 174.438 37.9596 173.738C38.5596 173.038 44.4596 175.838 44.4596 176.238C44.3596 176.538 43.9596 177.138 43.9596 177.138C43.9596 178.138 42.9596 178.138 42.9596 178.138C40.6596 177.938 38.1596 176.138 37.4596 175.638Z" fill="black"/>
<path d="M40.6594 179.138C40.6594 179.138 49.4594 183.938 48.6594 189.438L34.3594 181.438C34.3594 181.438 34.8593 177.638 38.0593 177.838C38.0593 177.838 38.5594 179.238 40.6594 179.138Z" fill="#AAB6C2"/>
<path d="M34.5594 180.938L44.3594 186.438C44.9594 185.438 45.7261 184.605 46.6594 183.938C46.7594 183.838 46.8594 184.038 46.7594 184.038C45.826 184.705 45.0927 185.505 44.5594 186.438L48.8594 188.838C48.9594 188.938 48.8594 189.038 48.7594 189.038L44.4594 186.638C44.3927 186.772 44.326 186.871 44.2594 186.938C44.2594 187.038 44.0594 186.938 44.1594 186.838C44.2261 186.771 44.2928 186.671 44.3594 186.538L34.4594 181.038C34.3594 181.038 34.4594 180.838 34.5594 180.938Z" fill="black"/>
<path fill-rule="evenodd" clip-rule="evenodd" d="M42.659 180.338C42.659 180.338 42.659 180.305 42.659 180.238C42.859 179.238 45.6591 177.138 46.3591 178.738C46.6591 179.238 46.2591 179.938 45.8591 180.338C45.7591 180.838 45.159 181.238 44.759 181.238C44.359 181.338 44.059 181.238 43.659 181.038C43.659 181.105 43.659 181.138 43.659 181.138C42.959 181.238 42.359 181.738 42.059 182.338C42.059 182.438 41.859 182.338 41.959 182.238C42.259 181.638 42.859 181.138 43.559 181.038C43.2923 180.838 43.0591 180.638 42.8591 180.438C42.8591 180.438 42.8257 180.438 42.759 180.438C42.759 180.505 42.759 180.538 42.759 180.538C41.959 180.638 41.359 181.038 40.959 181.738C40.959 181.838 40.7591 181.738 40.8591 181.638C41.1591 180.938 41.859 180.438 42.659 180.338ZM46.259 179.338C46.459 177.938 44.859 178.438 44.259 178.838C43.759 179.138 43.1591 179.538 42.8591 180.138C43.2591 179.638 43.8591 179.438 44.3591 179.438C44.8591 179.338 45.6591 179.538 45.8591 180.138C46.0591 179.938 46.1924 179.672 46.259 179.338ZM42.959 180.338C43.759 180.438 44.959 180.638 45.659 180.238C45.659 179.938 45.459 179.838 45.159 179.638C44.859 179.538 44.459 179.538 44.059 179.638C43.659 179.738 43.159 179.938 42.959 180.338ZM44.059 181.038C44.559 181.238 45.359 181.038 45.559 180.538C45.559 180.538 45.559 180.505 45.559 180.438C44.959 180.838 43.959 180.638 43.159 180.538C43.459 180.738 43.759 180.938 44.059 181.038Z" fill="black"/>
<path opacity="0.3" d="M36.2601 112.938C36.2601 112.938 36.2601 112.971 36.2601 113.038L34.6602 112.938C34.5268 112.671 34.3602 112.438 34.1602 112.238C33.8602 111.938 33.4601 111.738 32.9601 111.738H28.1602V111.038C28.1602 110.705 28.2601 110.371 28.4601 110.038L32.9601 110.138C33.8601 110.138 34.7602 110.438 35.3602 111.038C35.8602 111.638 36.1601 112.238 36.2601 112.938Z" fill="black"/>
<path d="M37.9601 112.938L38.9601 113.038H36.2601L34.6602 112.938H37.9601Z" fill="black"/>
<path d="M52.2601 136.738V139.138C52.1935 139.672 52.0935 140.172 51.9601 140.638C51.5601 140.705 51.1601 140.738 50.7601 140.738H48.1602C50.4602 140.738 52.1601 138.938 52.2601 136.638V136.738Z" fill="black"/>
<path d="M37.4598 112.438V110.538C37.4598 110.038 37.3598 109.638 36.9598 109.338C36.6598 109.038 36.2598 108.838 35.7598 108.838H30.0598C29.5598 108.838 29.1598 109.038 28.8598 109.338C28.5598 109.638 28.3598 110.038 28.3598 110.538V112.538H26.7598V110.538C26.7598 109.638 27.0598 108.838 27.6598 108.138C28.3598 107.538 29.1598 107.238 30.0598 107.238L35.7598 107.138C36.6598 107.138 37.5598 107.538 38.1598 108.138C38.7598 108.838 39.1598 109.638 39.1598 110.538V112.438H37.4598Z" fill="black"/>
<path d="M10.8598 136.238L10.7598 116.638C10.7598 114.338 12.6598 112.538 14.8598 112.538H47.0598C49.2598 112.438 51.1598 114.338 51.1598 116.538V136.138C51.1598 138.438 49.3598 140.238 47.0598 140.238L14.9598 140.338C12.6598 140.338 10.8598 138.438 10.8598 136.238Z" fill="black"/>
<path d="M13.46 136.238V116.638C13.46 114.338 15.2599 112.538 17.5599 112.538H49.66C51.86 112.438 53.7599 114.338 53.7599 116.538V136.138C53.7599 138.438 51.96 140.238 49.66 140.238L17.5599 140.338C15.2599 140.338 13.46 138.438 13.46 136.238Z" fill="#AAB6C2"/>
<path d="M13.46 122.338L53.7599 122.238V123.438L13.46 123.538V122.338Z" fill="black"/>
<path d="M44.6602 124.838V121.538H48.0601V124.838C48.0601 125.738 47.3601 126.338 46.5601 126.338H46.1602C45.3602 126.338 44.6602 125.738 44.6602 124.838Z" fill="#7977C6"/>
<path d="M19.96 124.938V121.638H23.36V124.838C23.36 125.738 22.6599 126.438 21.7599 126.438H21.5599C20.6599 126.438 19.96 125.738 19.96 124.938Z" fill="#7977C6"/>
<path d="M95.3606 142.538L94.5605 147.438L92.2606 147.538L91.0605 142.138L95.3606 142.538Z" fill="white"/>
<path fill-rule="evenodd" clip-rule="evenodd" d="M92.0601 147.738L90.6602 141.838L95.5601 142.338L94.7601 147.738H92.0601ZM91.3602 142.338L92.4601 147.238L94.3602 147.138L95.0601 142.738L91.3602 142.338Z" fill="black"/>
<path d="M94.6595 146.438C94.6595 146.438 104.96 146.438 106.96 151.538L90.5595 151.638C90.5595 151.638 89.1595 148.038 92.0595 146.638C92.0595 146.638 92.9595 147.638 94.6595 146.438Z" fill="#AAB6C2"/>
<path d="M90.4598 151.038H101.76C101.76 149.905 101.993 148.805 102.46 147.738C102.56 147.638 102.66 147.738 102.66 147.838C102.126 148.838 101.893 149.905 101.96 151.038H106.86C106.96 151.038 106.96 151.138 106.86 151.138H101.96C101.96 151.272 101.96 151.405 101.96 151.538C101.96 151.638 101.76 151.638 101.76 151.538C101.76 151.405 101.76 151.272 101.76 151.138L90.4598 151.238C90.3598 151.238 90.3598 151.038 90.4598 151.038Z" fill="black"/>
<path fill-rule="evenodd" clip-rule="evenodd" d="M97.259 146.638C97.259 146.572 97.2257 146.538 97.1591 146.538C96.9591 145.538 98.359 142.338 99.759 143.338C100.259 143.738 100.259 144.438 100.059 145.038C100.259 145.438 99.859 146.138 99.559 146.438C99.259 146.638 98.859 146.738 98.559 146.738C98.559 146.738 98.559 146.771 98.559 146.838C97.959 147.238 97.659 147.938 97.759 148.638C97.759 148.738 97.559 148.738 97.559 148.638C97.559 147.938 97.8591 147.238 98.3591 146.738C98.0924 146.738 97.7924 146.705 97.459 146.638C96.759 147.138 96.459 147.838 96.559 148.638C96.559 148.738 96.3591 148.738 96.3591 148.638C96.2591 147.838 96.659 147.138 97.259 146.638ZM99.959 143.938C99.459 142.638 98.259 143.838 97.959 144.438C97.659 145.038 97.2591 145.638 97.3591 146.238C97.4591 145.738 97.8591 145.238 98.3591 144.938C98.7591 144.638 99.559 144.438 99.959 144.838C100.026 144.571 100.026 144.271 99.959 143.938ZM97.459 146.438C98.259 146.138 99.4591 145.738 99.8591 145.038C99.6591 144.838 99.4591 144.738 99.1591 144.738C98.7591 144.838 98.4591 145.038 98.1591 145.238C97.8591 145.538 97.559 145.938 97.459 146.438ZM98.8591 146.538C99.3591 146.338 99.959 145.938 99.959 145.338C99.959 145.338 99.959 145.305 99.959 145.238C99.559 145.938 98.5591 146.238 97.8591 146.538C98.1591 146.538 98.5591 146.638 98.8591 146.538Z" fill="black"/>
<path d="M89.8596 144.738C88.9596 144.638 89.6596 143.938 89.6596 143.938C89.6596 143.938 89.0596 143.738 89.2596 142.838C89.5596 141.838 96.0596 141.738 96.1596 142.038C96.3596 142.338 96.2596 143.038 96.2596 143.038C96.7596 143.938 95.8596 144.438 95.8596 144.438C93.7596 145.338 90.6596 144.838 89.8596 144.738Z" fill="black"/>
<path d="M95.2606 41.0383C96.1606 42.4383 92.6607 44.6383 90.6607 45.4383C89.7607 47.9383 88.6607 48.6383 88.1607 48.3383C87.0607 47.5383 86.2606 44.6383 86.5606 41.1383C86.5606 40.2383 87.7606 39.0383 88.2606 38.9383C88.4606 38.9383 88.7607 38.9383 88.8607 39.2383C88.9607 39.5383 88.7606 39.8383 88.5606 40.0383C88.2606 40.3383 87.8606 41.3383 88.2606 41.6383C88.5606 41.8383 90.1607 40.9383 91.3607 39.0383C91.7607 38.4383 91.9607 37.3383 92.6607 37.0383C93.4607 36.8383 93.6607 37.6383 93.6607 37.7383C93.6607 37.6383 94.2607 37.3383 94.6607 37.3383C95.3607 37.3383 95.5606 38.4383 95.2606 38.8383C96.2606 38.8383 96.3606 40.3383 95.2606 41.0383Z" fill="white"/>
<path fill-rule="evenodd" clip-rule="evenodd" d="M88.4603 48.6381C88.2603 48.6381 88.1269 48.6048 88.0602 48.5381C86.7602 47.6381 85.9602 44.4381 86.2602 41.0381C86.3602 40.1381 87.5603 38.8381 88.1603 38.7381C88.7603 38.6381 89.0602 38.9381 89.0602 39.2381C89.2602 39.5381 89.0602 39.9381 88.7602 40.2381C88.5602 40.4381 88.3603 40.9381 88.3603 41.2381C88.3603 41.3047 88.3603 41.3714 88.3603 41.4381C88.6603 41.4381 89.9603 40.7381 91.1603 38.9381C91.2936 38.7381 91.3936 38.5047 91.4603 38.2381C91.6603 37.7381 91.9602 37.0381 92.5602 36.8381C92.8936 36.7714 93.1603 36.7714 93.3603 36.8381C93.5603 36.9381 93.6602 37.1381 93.7602 37.3381C93.9602 37.2381 94.3603 37.0381 94.6603 37.0381C95.0603 37.0381 95.3602 37.3381 95.5602 37.7381C95.6602 38.0381 95.6603 38.3381 95.6603 38.6381C95.9603 38.7381 96.1602 38.9381 96.2602 39.3381C96.4602 39.8381 96.2602 40.6381 95.5602 41.1381C95.6936 41.4048 95.6936 41.6714 95.5602 41.9381C95.1602 43.3381 92.2603 45.0381 90.8603 45.6381C90.2603 47.2381 89.4603 48.3381 88.6603 48.6381C88.5936 48.6381 88.5269 48.6381 88.4603 48.6381ZM88.4603 39.1381C88.3936 39.1381 88.3269 39.1714 88.2602 39.2381C87.9602 39.2381 86.8602 40.3381 86.7602 41.1381C86.4602 44.6381 87.3603 47.4381 88.3603 48.1381C88.3603 48.1381 88.4602 48.1381 88.5602 48.1381C89.0602 48.0381 89.7603 47.2381 90.4603 45.3381V45.2381H90.5602C92.2602 44.5381 94.7603 42.9381 95.1603 41.7381C95.2269 41.5381 95.1936 41.3714 95.0602 41.2381L94.9603 41.0381L95.1603 40.8381C95.7603 40.5381 95.8602 39.8381 95.7602 39.4381C95.7602 39.2381 95.5602 39.0381 95.2602 39.0381H94.6603L95.0602 38.6381C95.1602 38.5381 95.1602 38.2381 95.0602 37.9381C95.0602 37.8381 94.8603 37.5381 94.6603 37.5381C94.3603 37.5381 93.8603 37.8381 93.8603 37.8381L93.6603 38.0381L93.4603 37.8381L93.3603 37.7381C93.3603 37.6381 93.2603 37.4381 93.1603 37.3381C93.0269 37.2714 92.8936 37.2714 92.7602 37.3381C92.3602 37.4381 92.1603 37.9381 91.9603 38.4381C91.8269 38.7048 91.6936 38.9714 91.5602 39.2381C90.5602 40.7381 89.3602 41.7381 88.5602 41.8381C88.3602 41.9048 88.1936 41.9048 88.0602 41.8381C87.9602 41.7381 87.8603 41.6381 87.8603 41.3381C87.8603 40.8381 88.0603 40.1381 88.4603 39.8381C88.5603 39.7381 88.6603 39.5381 88.6603 39.3381C88.5603 39.2381 88.5603 39.1381 88.4603 39.1381Z" fill="black"/>
<path d="M36.7593 110.138C36.6593 111.338 35.9593 111.138 35.6593 110.038C35.0593 108.038 34.2593 107.838 34.7593 109.938C34.8593 110.638 34.7593 112.538 34.3593 112.638C33.4593 112.838 33.3593 109.938 33.0593 109.038C32.4593 108.338 32.7593 111.438 32.3593 111.838C31.3593 112.638 31.0593 108.538 30.7593 108.438C29.9593 108.138 31.4593 111.338 30.0593 110.838C29.0593 110.438 28.9593 106.638 28.5593 105.838C28.2593 105.138 27.5593 104.838 27.8593 104.138C28.2593 102.938 30.1593 103.038 31.5593 103.438C33.1593 103.238 36.0593 103.238 36.1593 104.938C36.2593 105.338 35.6593 105.438 35.3593 105.338C34.8593 105.038 34.4593 104.838 33.8593 104.838C35.3593 106.238 36.9593 108.238 36.7593 110.138Z" fill="white"/>
<path fill-rule="evenodd" clip-rule="evenodd" d="M34.2596 112.838C34.1263 112.838 34.0263 112.804 33.9596 112.738C33.4596 112.438 33.2596 111.538 33.0596 110.238C32.9929 109.971 32.9263 109.738 32.8596 109.538C32.8596 109.738 32.8596 110.038 32.8596 110.338C32.7596 111.238 32.7596 111.738 32.4596 112.038C32.2596 112.238 32.0596 112.238 31.9596 112.138C31.4596 112.038 31.1596 111.138 30.8596 109.838C30.9596 110.338 30.9596 110.838 30.6596 111.038C30.5263 111.171 30.293 111.171 29.9596 111.038C29.2596 110.838 28.9596 109.438 28.6596 107.638C28.5596 106.838 28.4596 106.238 28.3596 105.938C28.2263 105.738 28.093 105.571 27.9596 105.438C27.7596 105.038 27.3596 104.638 27.6596 104.038C28.0596 102.738 30.0596 102.738 31.5596 103.138C32.5596 103.038 34.8596 102.938 35.8596 103.838C36.193 104.104 36.393 104.471 36.4596 104.938C36.4596 105.204 36.3596 105.404 36.1596 105.538C35.8596 105.638 35.5596 105.638 35.2596 105.538L35.1596 105.438C34.9596 105.371 34.793 105.304 34.6596 105.238C35.9596 106.538 37.2596 108.438 36.9596 110.238C36.8596 111.038 36.5596 111.138 36.3596 111.138C35.9596 111.238 35.5596 110.838 35.3596 110.138C35.1596 109.438 34.9596 109.038 34.8596 108.838C34.8596 108.938 34.8596 109.338 34.9596 109.938C35.0596 110.438 35.0596 112.638 34.3596 112.838C34.3596 112.838 34.3263 112.838 34.2596 112.838ZM32.8596 108.638C32.9596 108.638 33.0596 108.738 33.2596 108.838V108.938C33.3596 109.238 33.4596 109.638 33.5596 110.138C33.6596 110.938 33.8596 112.138 34.1596 112.338C34.2263 112.338 34.2596 112.338 34.2596 112.338C34.4596 112.238 34.6596 110.638 34.4596 110.038C34.1596 108.538 34.4596 108.238 34.6596 108.238C35.2596 108.038 35.6596 109.238 35.8596 110.038C36.0596 110.538 36.2596 110.738 36.2596 110.638C36.3596 110.638 36.4596 110.538 36.4596 110.138C36.7596 108.138 34.8596 106.038 33.6596 105.038L33.2596 104.638L33.8596 104.538C34.4596 104.538 34.9596 104.838 35.3596 105.038L35.5596 105.138C35.6596 105.138 35.7596 105.138 35.8596 105.038C35.9263 105.038 35.9596 105.004 35.9596 104.938C35.9596 104.671 35.8263 104.438 35.5596 104.238C34.8596 103.538 33.0596 103.538 31.6596 103.638H31.5596C30.4596 103.338 28.4596 103.138 28.0596 104.138C27.9596 104.538 28.0596 104.738 28.3596 105.138C28.493 105.271 28.6263 105.471 28.7596 105.738C28.9596 106.038 29.0596 106.738 29.1596 107.538C29.3596 108.638 29.6596 110.438 30.1596 110.638C30.2596 110.638 30.3596 110.638 30.3596 110.638C30.4596 110.538 30.3596 109.838 30.2596 109.538C30.2596 108.938 30.1596 108.438 30.3596 108.238C30.4596 108.238 30.5596 108.138 30.7596 108.238C31.0596 108.338 31.0596 108.538 31.2596 109.438C31.4596 110.138 31.7596 111.638 32.0596 111.638C32.0596 111.638 32.093 111.638 32.1596 111.638C32.2596 111.538 32.3596 110.738 32.3596 110.338C32.3596 109.238 32.4596 108.838 32.7596 108.638C32.8263 108.638 32.8596 108.638 32.8596 108.638Z" fill="black"/>
<path d="M59.2596 62.7382C62.7596 58.4382 75.7596 62.8382 81.0596 64.7382C82.2596 65.1382 83.2597 65.4382 84.1597 65.5382C84.5597 65.6048 84.9597 65.6382 85.3597 65.6382C86.0597 65.6382 86.6597 65.3382 86.9597 64.7382C87.3597 64.0382 87.6596 62.9382 87.7596 61.7382C87.8263 61.3382 87.8597 60.9048 87.8597 60.4382C87.8597 60.1715 87.8597 59.9049 87.8597 59.6382C87.8597 58.3382 87.7596 56.8382 87.5596 55.4382C87.5596 55.0382 87.5263 54.6382 87.4597 54.2382C87.393 53.7715 87.3263 53.3715 87.2596 53.0382C86.7596 49.1382 86.2596 46.9382 86.2596 46.9382L89.7596 46.6382C91.0596 47.8382 92.5597 50.0382 93.9597 52.6382C94.093 52.9715 94.2597 53.3049 94.4597 53.6382C95.6597 56.1382 96.8597 59.0382 97.6597 61.7382C97.793 62.1382 97.893 62.5382 97.9597 62.9382C99.1597 67.6382 99.3597 72.1382 97.3597 74.3382C96.1597 75.6382 94.1597 76.6382 91.6597 77.1382C91.2597 77.2715 90.8264 77.3715 90.3597 77.4382C77.3597 79.7382 50.7596 73.0382 59.2596 62.7382Z" fill="#7977C6"/>
<path d="M67.5598 75.6382C60.9598 74.0382 61.1598 60.8381 61.1598 60.8381C66.1598 60.4381 70.1598 65.2381 70.1598 65.2381C78.3598 70.6381 78.6598 77.5381 78.6598 77.5381C78.6598 77.5381 73.6598 77.1382 67.5598 75.6382Z" fill="black"/>
<path d="M37.5601 98.8382C37.5601 98.4382 37.5601 98.0383 37.5601 97.6383C37.6601 95.1383 37.8601 92.1382 38.2601 88.9382C38.3267 88.6049 38.3601 88.2382 38.3601 87.8382C38.9601 83.5382 39.8601 79.0382 41.3601 74.8382C41.4935 74.5049 41.6267 74.1382 41.7601 73.7382C43.1601 70.1382 44.9601 66.9382 47.3601 64.4382C47.5601 64.1716 47.7934 63.9382 48.0601 63.7382C50.9601 60.9382 54.7601 59.3383 59.6601 59.5383C66.7601 59.8383 70.8601 63.1383 73.5601 69.6383C73.6934 70.0383 73.8268 70.4049 73.9601 70.7382C75.1601 74.1382 76.1601 78.2382 76.9601 83.2382C77.0268 83.5716 77.0934 83.9716 77.1601 84.4382C77.7601 87.7382 78.2601 91.5383 78.8601 95.6383C78.8601 96.0383 78.8934 96.4382 78.9601 96.8382C79.2268 98.8382 79.5268 100.972 79.8601 103.238C79.8601 103.238 77.7601 104.238 73.6601 105.238C73.3268 105.305 72.9601 105.372 72.5601 105.438C69.2601 106.238 64.8601 106.838 59.2601 107.038C58.8601 107.038 58.4601 107.038 58.0601 107.038C54.8601 107.038 51.2601 106.938 47.2601 106.538C46.8601 106.538 46.4934 106.505 46.1601 106.438C43.4268 106.172 40.5601 105.772 37.5601 105.238C37.5601 105.238 37.4601 102.738 37.5601 98.8382Z" fill="#7977C6"/>
<path d="M37.56 105.238C37.56 105.238 36.96 83.9383 41.66 75.2383L45.46 78.4383C45.46 78.4383 43.56 85.3383 42.36 90.4383C40.26 99.9383 40.56 105.738 40.56 105.738L37.56 105.238Z" fill="black"/>
<path d="M50.9594 64.5381C50.9594 64.5381 55.1594 68.5381 51.1594 75.2381C48.0594 80.1381 44.8594 80.5381 44.8594 80.5381L45.4594 78.4381C53.6594 72.8381 47.0593 64.6381 47.0593 64.6381L50.9594 64.5381Z" fill="black"/>
<path d="M18.4595 88.7381C18.4595 88.3381 18.4928 87.9381 18.5595 87.5381C18.7595 86.2048 19.1262 84.8047 19.6595 83.3381C20.4595 80.9381 22.9595 76.6381 27.4595 72.4381C27.7262 72.1047 28.0595 71.8048 28.4595 71.5381C31.4595 68.8381 35.2595 66.2381 40.0595 64.2381C40.4595 64.1047 40.9262 63.9381 41.4595 63.7381C44.5595 62.5381 48.0595 61.5381 51.9595 61.0381C51.9595 61.0381 52.6595 64.4381 51.5595 68.7381C51.4262 69.0714 51.3262 69.3714 51.2595 69.6381C50.3595 72.6381 48.5595 75.8381 45.0595 78.6381C45.0595 78.6381 42.7595 79.2381 39.9595 80.4381C39.5595 80.5714 39.1929 80.7047 38.8595 80.8381C37.0595 81.6381 35.1595 82.5381 33.5595 83.7381C33.2262 83.9381 32.8928 84.1381 32.5595 84.3381C31.2595 85.3381 30.0595 86.5381 29.3595 87.7381C29.2262 87.9381 29.1262 88.1714 29.0595 88.4381C28.8595 88.7714 28.7262 89.1714 28.6595 89.6381C28.0595 91.9381 28.5595 94.6381 29.2595 97.1381C29.3928 97.4714 29.5262 97.8381 29.6595 98.2381C30.7595 101.438 32.1595 104.038 32.1595 104.038L29.9595 104.338L28.6595 104.538L27.4595 104.738C26.1595 103.738 24.8595 102.538 23.5595 101.238C23.2928 100.971 23.0262 100.671 22.7595 100.338C20.1595 97.2381 18.1595 93.5381 18.4595 88.7381Z" fill="#7977C6"/>
<path d="M60.0591 60.9379C58.9258 60.9379 57.6258 60.5046 56.1592 59.6379C56.3592 58.9379 56.9592 56.7379 56.3592 54.3379L61.1592 55.4379C61.0592 56.1379 61.0591 57.8379 62.5591 59.9379C62.3591 60.2379 61.5591 60.9379 60.0591 60.9379Z" fill="white"/>
<path fill-rule="evenodd" clip-rule="evenodd" d="M61.4594 55.338C61.4594 55.338 60.9594 57.338 62.8594 59.838C62.8594 59.838 62.0593 61.238 60.0593 61.238C59.0593 61.238 57.6594 60.838 55.8594 59.738C55.8594 59.738 56.8593 56.938 56.0593 53.938L61.4594 55.338ZM56.4594 59.638C57.8594 60.438 59.0593 60.838 60.0593 60.838C61.2593 60.838 61.9593 60.338 62.2593 59.938C60.9593 58.138 60.8594 56.538 60.8594 55.738L56.7593 54.738C57.1593 56.838 56.6594 58.838 56.4594 59.638Z" fill="black"/>
<path d="M25.7598 105.038C26.2598 104.938 32.9598 101.538 32.9598 101.538L33.5598 103.438C30.6598 105.838 27.8598 106.738 27.8598 106.738L25.7598 105.038Z" fill="black"/>
<path d="M85.6602 46.9381C85.6602 46.9381 89.8601 45.2381 91.2601 45.9381L92.1602 47.9381L86.0601 48.7381L85.6602 46.9381Z" fill="black"/>
<path d="M64.46 49.3381C65.26 53.1381 63.76 56.7381 60.96 57.3381C58.26 57.9381 55.36 55.3381 54.46 51.5381C53.66 47.6381 55.16 44.0381 57.86 43.4381C60.66 42.8381 63.56 45.4381 64.46 49.3381Z" fill="white"/>
<path fill-rule="evenodd" clip-rule="evenodd" d="M60.1602 57.7382C59.0602 57.7382 57.8602 57.2383 56.8602 56.3383C55.5602 55.1383 54.6602 53.4383 54.2602 51.5383C53.7602 49.6383 53.9602 47.7383 54.6602 46.1383C55.2602 44.5383 56.4602 43.5383 57.8602 43.1383C59.2602 42.8383 60.7601 43.3383 62.0601 44.5383C63.3601 45.6383 64.2602 47.3382 64.6602 49.2382C65.0602 51.1382 64.9602 53.0383 64.2602 54.6383C63.5602 56.2383 62.4601 57.3383 61.0601 57.6383C60.7935 57.7049 60.4935 57.7382 60.1602 57.7382ZM57.9602 43.6383C56.7602 43.9383 55.6601 44.9383 55.0601 46.3383C54.4601 47.8383 54.3602 49.6383 54.7602 51.4383C55.1602 53.2383 55.9602 54.8383 57.1602 55.9383C58.3602 56.9383 59.6602 57.4383 60.9602 57.1383C62.1602 56.8383 63.1602 55.9383 63.8602 54.4383C64.4602 52.9383 64.5602 51.1383 64.1602 49.3383C63.7602 47.5383 62.8602 45.9383 61.6602 44.8383C60.5602 43.8383 59.2602 43.4383 57.9602 43.6383Z" fill="black"/>
<path d="M63.0598 49.1382C63.0598 49.1382 64.8598 51.4382 65.4598 52.7382C65.5598 52.9382 65.4598 53.2382 65.2598 53.2382C64.5598 53.4382 63.2598 53.8382 62.6598 53.7382C61.9598 53.7382 63.0598 49.1382 63.0598 49.1382Z" fill="white"/>
<path fill-rule="evenodd" clip-rule="evenodd" d="M62.7602 54.0381C62.6935 54.0381 62.6602 54.0381 62.6602 54.0381C62.5269 54.0381 62.4269 53.9714 62.3602 53.8381C61.8602 53.1381 62.5602 50.0381 62.7602 49.0381L62.8602 48.5381L63.1602 48.9381C63.2602 49.0381 65.0602 51.3381 65.6602 52.6381C65.7269 52.8381 65.7269 53.0048 65.6602 53.1381C65.5935 53.3381 65.4602 53.4714 65.2602 53.5381C64.5602 53.7381 63.3602 54.0381 62.7602 54.0381ZM63.1602 49.6381C62.7602 51.6381 62.5602 53.3381 62.7602 53.5381C63.0602 53.5381 63.9602 53.3381 65.1602 53.0381C65.2269 53.0381 65.2602 53.0047 65.2602 52.9381C65.2602 52.9381 65.2602 52.9047 65.2602 52.8381C64.7602 51.9381 63.6602 50.3381 63.1602 49.6381Z" fill="black"/>
<path d="M55.6601 54.4382C53.6601 54.5382 52.36 50.6382 51.96 48.2382C51.36 44.8382 54.66 41.1382 57.46 40.6382C59.06 40.3382 64.06 40.7382 65.96 42.2382C68.06 43.8382 66.66 46.1382 65.56 46.7382C64.06 47.6382 61.96 47.3382 60.56 46.6382C59.26 45.9382 57.36 45.8382 56.96 47.2382C56.56 48.7382 55.26 48.6382 55.26 48.6382C54.46 50.2382 55.1601 51.9382 55.6601 54.4382Z" fill="black"/>
<path d="M55.8596 52.7381C54.4596 53.6381 53.2595 50.7381 54.0595 49.8381C54.8595 48.9381 55.8596 50.1381 55.8596 50.1381C55.8596 50.1381 57.1596 51.7381 55.8596 52.7381Z" fill="white"/>
<path d="M55.9594 55.2383C55.4594 54.4383 55.3594 53.9383 55.3594 52.9383C55.5594 52.2383 56.0593 50.3383 55.7593 48.0383C55.7593 47.5383 56.4594 47.8383 56.4594 47.8383C56.4594 47.8383 59.2594 56.8383 64.3594 53.5383C64.3594 53.5383 64.6594 56.0383 63.9594 56.8383C62.2594 58.9383 58.4594 58.0383 57.3594 57.1383C56.9594 56.8383 56.0594 55.6383 55.9594 55.2383Z" fill="black"/>
<path d="M63.6602 48.7382L62.7601 54.1382L61.6602 53.6382L61.1602 51.0382L62.1602 47.6382L63.6602 48.7382Z" fill="white"/>
<path d="M118.759 142.338L117.559 140.538C114.859 136.638 116.459 130.538 121.159 126.838C125.859 123.238 131.859 123.438 134.659 127.338L135.859 129.238L135.659 129.438C136.759 133.238 134.959 138.038 131.059 141.138C127.059 144.238 122.059 144.538 119.059 142.138L118.759 142.338Z" fill="black"/>
<path d="M132.259 142.938C127.559 146.538 121.459 146.338 118.759 142.338C115.959 138.438 117.659 132.338 122.359 128.638C127.159 125.038 133.159 125.238 135.859 129.238C138.659 133.138 137.059 139.338 132.259 142.938Z" fill="#7977C6"/>
<path d="M131.459 141.638C127.559 144.638 122.459 144.438 120.259 141.238C118.059 137.938 119.459 132.938 123.259 129.938C127.159 126.938 132.159 127.138 134.359 130.338C136.559 133.638 135.259 138.638 131.459 141.638Z" fill="#7977C6"/>
<path fill-rule="evenodd" clip-rule="evenodd" d="M119.359 135.438C119.959 133.338 121.359 131.338 123.259 129.838C127.159 126.838 132.159 127.038 134.459 130.338C135.559 131.938 135.859 133.938 135.259 136.138C134.659 138.238 133.359 140.238 131.459 141.738C129.559 143.238 127.359 143.938 125.259 143.838C123.059 143.738 121.259 142.838 120.159 141.238C119.959 140.905 119.792 140.571 119.659 140.238C119.059 138.838 118.959 137.138 119.359 135.438ZM131.359 141.638C133.259 140.138 134.559 138.238 135.059 136.138C135.659 133.938 135.359 131.938 134.259 130.438C132.059 127.238 127.159 127.038 123.359 130.038C121.459 131.438 120.159 133.438 119.559 135.538C118.959 137.638 119.259 139.638 120.359 141.138C121.359 142.738 123.159 143.638 125.259 143.638C127.359 143.738 129.459 143.038 131.359 141.638Z" fill="black"/>
<path fill-rule="evenodd" clip-rule="evenodd" d="M126.16 140.338C125.76 140.338 125.426 140.272 125.16 140.138C124.826 140.005 124.526 139.805 124.26 139.538C124.06 139.338 123.86 139.105 123.66 138.838L122.26 139.538L121.76 138.538L123.16 137.738C123.093 137.405 123.06 137.038 123.06 136.638C123.06 136.505 123.093 136.338 123.16 136.138C123.16 136.072 123.16 136.038 123.16 136.038C123.16 135.972 123.193 135.905 123.26 135.838C123.26 135.771 123.26 135.705 123.26 135.638C123.393 135.305 123.56 135.005 123.76 134.738C123.76 134.738 123.793 134.705 123.86 134.638C123.86 134.638 123.86 134.605 123.86 134.538C123.86 134.538 123.893 134.538 123.96 134.538C124.16 134.272 124.393 134.005 124.66 133.738L125.26 134.838C125.06 135.038 124.86 135.205 124.66 135.338C124.593 135.538 124.493 135.705 124.36 135.838C124.36 135.905 124.36 135.938 124.36 135.938C124.293 136.005 124.26 136.072 124.26 136.138C124.193 136.272 124.16 136.405 124.16 136.538C124.093 136.738 124.093 136.938 124.16 137.138L124.66 136.938L124.76 136.838L124.86 136.738L127.16 135.438C127.16 135.105 127.16 134.772 127.16 134.438C127.16 134.438 127.16 134.405 127.16 134.338C127.16 134.271 127.16 134.205 127.16 134.138C127.16 134.072 127.16 134.005 127.16 133.938C127.16 133.738 127.193 133.572 127.26 133.438C127.326 133.105 127.46 132.838 127.66 132.638C127.726 132.438 127.86 132.272 128.06 132.138C128.126 132.072 128.226 132.005 128.36 131.938C128.56 131.805 128.793 131.738 129.06 131.738C129.126 131.671 129.193 131.638 129.26 131.638C129.526 131.638 129.793 131.705 130.06 131.838C130.393 131.905 130.693 132.038 130.96 132.238C131.16 132.438 131.36 132.672 131.56 132.938L132.46 132.438L132.96 133.538L132.06 134.038C132.193 134.305 132.26 134.605 132.26 134.938C132.326 135.272 132.326 135.571 132.26 135.838C132.193 136.171 132.06 136.471 131.86 136.738C131.66 137.071 131.426 137.338 131.16 137.538L130.66 136.538C130.926 136.205 131.093 135.872 131.16 135.538C131.226 135.272 131.226 134.938 131.16 134.538L128.36 136.138C128.36 136.405 128.393 136.638 128.46 136.838C128.46 137.105 128.46 137.372 128.46 137.638C128.393 137.838 128.36 138.071 128.36 138.338C128.293 138.538 128.226 138.738 128.16 138.938C128.026 139.138 127.893 139.338 127.76 139.538C127.626 139.672 127.46 139.805 127.26 139.938C126.86 140.205 126.493 140.338 126.16 140.338ZM128.56 133.338C128.493 133.471 128.426 133.605 128.36 133.738C128.293 133.871 128.26 134.038 128.26 134.238C128.26 134.438 128.26 134.638 128.26 134.838L130.56 133.538C130.36 133.205 130.093 133.005 129.76 132.938C129.493 132.805 129.226 132.838 128.96 133.038C128.826 133.105 128.693 133.205 128.56 133.338ZM126.66 138.938C126.793 138.805 126.893 138.672 126.96 138.538C127.093 138.405 127.16 138.238 127.16 138.038C127.226 137.838 127.26 137.638 127.26 137.438C127.26 137.172 127.26 136.938 127.26 136.738L124.56 138.238C124.76 138.438 124.926 138.605 125.06 138.738C125.26 138.871 125.426 138.972 125.56 139.038C125.76 139.105 125.96 139.105 126.16 139.038C126.293 139.038 126.46 139.005 126.66 138.938Z" fill="black"/>
<path d="M217.76 177.438L215.46 178.438C210.36 180.838 203.66 177.738 200.36 171.538C197.16 165.438 198.66 158.538 203.66 156.138L206.06 155.038L206.26 155.438C210.86 154.838 216.06 157.838 218.76 163.038C221.56 168.238 220.96 173.938 217.56 177.038L217.76 177.438Z" fill="black"/>
<path d="M221.16 161.938C224.36 168.138 222.86 175.138 217.76 177.438C212.66 179.838 205.96 176.638 202.76 170.438C199.46 164.338 200.96 157.438 206.06 155.038C211.16 152.738 217.86 155.738 221.16 161.938Z" fill="#7977C6"/>
<path d="M219.459 162.738C222.159 167.738 220.859 173.538 216.759 175.438C212.559 177.338 207.059 174.738 204.359 169.738C201.659 164.638 202.959 158.938 207.059 157.038C211.259 155.138 216.859 157.638 219.459 162.738Z" fill="#7977C6"/>
<path fill-rule="evenodd" clip-rule="evenodd" d="M209.959 175.338C207.559 174.238 205.559 172.238 204.259 169.738C201.559 164.638 202.859 158.938 207.059 156.938C209.059 156.038 211.559 156.038 213.859 157.138C216.259 158.238 218.259 160.238 219.559 162.638C220.859 165.138 221.359 167.838 220.759 170.238C220.259 172.738 218.859 174.538 216.759 175.538C216.359 175.738 215.926 175.905 215.459 176.038C213.759 176.438 211.859 176.138 209.959 175.338ZM219.359 162.738C218.159 160.338 216.159 158.438 213.859 157.338C211.459 156.338 209.159 156.238 207.159 157.138C203.059 159.038 201.859 164.638 204.459 169.638C205.759 172.138 207.759 174.038 210.059 175.138C212.359 176.138 214.659 176.238 216.659 175.338C218.659 174.438 220.059 172.638 220.559 170.238C221.059 167.838 220.659 165.138 219.359 162.738Z" fill="black"/>
<path fill-rule="evenodd" clip-rule="evenodd" d="M216.86 168.538C216.793 168.938 216.66 169.305 216.46 169.638C216.26 169.972 215.993 170.238 215.66 170.438C215.326 170.705 214.993 170.905 214.66 171.038L215.26 172.838L213.96 173.238L213.36 171.438C212.893 171.438 212.46 171.405 212.06 171.338C211.86 171.272 211.66 171.205 211.46 171.138C211.393 171.072 211.36 171.038 211.36 171.038C211.293 171.038 211.226 171.005 211.16 170.938C211.093 170.938 211.026 170.905 210.96 170.838C210.626 170.638 210.326 170.405 210.06 170.138C210.06 170.138 210.026 170.138 209.96 170.138C209.96 170.138 209.96 170.105 209.96 170.038C209.96 170.038 209.926 170.038 209.86 170.038C209.86 169.972 209.86 169.938 209.86 169.938C209.86 169.938 209.826 169.938 209.76 169.938C209.493 169.605 209.26 169.272 209.06 168.938L210.46 168.438C210.593 168.705 210.76 168.938 210.96 169.138C211.093 169.338 211.226 169.505 211.36 169.638C211.426 169.638 211.46 169.672 211.46 169.738C211.526 169.738 211.56 169.738 211.56 169.738C211.626 169.738 211.66 169.772 211.66 169.838C211.86 169.905 212.026 169.972 212.16 170.038C212.426 170.105 212.66 170.138 212.86 170.138L212.66 169.538V169.438L212.56 169.338L211.56 166.338C211.093 166.272 210.66 166.205 210.26 166.138C210.126 166.138 210.026 166.138 209.96 166.138C209.893 166.072 209.793 166.038 209.66 166.038C209.526 165.972 209.36 165.905 209.16 165.838C208.826 165.705 208.526 165.505 208.26 165.238C208.126 165.105 207.993 164.905 207.86 164.638C207.793 164.505 207.726 164.372 207.66 164.238C207.593 163.972 207.56 163.705 207.56 163.438C207.56 163.372 207.56 163.305 207.56 163.238C207.626 162.905 207.726 162.572 207.86 162.238C208.06 161.905 208.293 161.638 208.56 161.438C208.826 161.172 209.16 160.938 209.56 160.738L209.16 159.638L210.46 159.238L210.86 160.338C211.193 160.272 211.56 160.272 211.96 160.338C212.293 160.338 212.626 160.438 212.96 160.638C213.293 160.772 213.626 160.972 213.96 161.238C214.226 161.505 214.493 161.838 214.76 162.238L213.46 162.638C213.126 162.238 212.793 161.938 212.46 161.738C212.126 161.605 211.726 161.572 211.26 161.638L212.46 165.138C212.793 165.138 213.093 165.172 213.36 165.238C213.693 165.238 213.993 165.272 214.26 165.338C214.526 165.405 214.793 165.472 215.06 165.538C215.326 165.672 215.56 165.805 215.76 165.938C215.96 166.072 216.16 166.238 216.36 166.438C216.493 166.638 216.626 166.905 216.76 167.238C216.893 167.705 216.926 168.138 216.86 168.538ZM209.26 164.338C209.393 164.472 209.56 164.572 209.76 164.638C209.893 164.705 210.093 164.772 210.36 164.838C210.56 164.905 210.793 164.972 211.06 165.038L209.96 162.038C209.493 162.238 209.193 162.505 209.06 162.838C208.926 163.172 208.926 163.505 209.06 163.838C209.126 164.038 209.193 164.205 209.26 164.338ZM215.36 167.638C215.293 167.438 215.193 167.272 215.06 167.138C214.926 167.005 214.726 166.905 214.46 166.838C214.26 166.772 214.026 166.705 213.76 166.638C213.493 166.572 213.226 166.505 212.96 166.438L214.16 169.838C214.426 169.705 214.66 169.572 214.86 169.438C215.06 169.238 215.193 169.038 215.26 168.838C215.393 168.638 215.46 168.438 215.46 168.238C215.46 168.038 215.426 167.838 215.36 167.638Z" fill="black"/>
<path d="M164.16 93.9376L161.46 95.1376C155.36 97.9376 147.26 94.2376 143.36 86.8376C139.36 79.4376 141.16 71.2376 147.26 68.3376L150.06 67.0376L150.36 67.5376C155.86 66.8376 162.16 70.4376 165.36 76.6376C168.76 82.8376 167.96 89.7376 163.96 93.4376L164.16 93.9376Z" fill="black"/>
<path d="M168.259 75.3378C172.159 82.7378 170.259 91.1378 164.159 93.9378C158.059 96.7378 150.059 92.9378 146.159 85.5378C142.259 78.1378 143.959 69.8378 150.059 67.0378C156.159 64.2378 164.259 67.9378 168.259 75.3378Z" fill="#7977C6"/>
<path d="M166.259 76.2378C169.459 82.3378 167.959 89.2378 162.959 91.5378C157.959 93.8378 151.259 90.7378 148.059 84.6378C144.859 78.5378 146.359 71.7378 151.359 69.4378C156.359 67.1378 163.059 70.1378 166.259 76.2378Z" fill="#7977C6"/>
<path fill-rule="evenodd" clip-rule="evenodd" d="M154.759 91.3378C151.959 90.0378 149.559 87.6378 147.959 84.7378C144.759 78.5378 146.259 71.7378 151.259 69.3378C153.759 68.2378 156.659 68.3378 159.559 69.6378C162.359 70.8378 164.759 73.2378 166.359 76.2378C167.959 79.1378 168.459 82.4378 167.759 85.3378C167.159 88.2378 165.459 90.5378 162.959 91.6378C162.493 91.9045 161.959 92.1044 161.359 92.2378C159.359 92.6378 157.059 92.4378 154.759 91.3378ZM166.159 76.3378C164.559 73.3378 162.259 71.0378 159.459 69.8378C156.659 68.5378 153.759 68.4378 151.459 69.5378C146.459 71.8378 145.059 78.6378 148.259 84.6378C149.759 87.5378 152.159 89.8378 154.859 91.1378C157.659 92.4378 160.459 92.5378 162.859 91.4378C165.259 90.3378 166.959 88.1378 167.559 85.2378C168.159 82.4378 167.659 79.2378 166.159 76.3378Z" fill="black"/>
<path fill-rule="evenodd" clip-rule="evenodd" d="M163.059 83.2377C162.993 83.7043 162.859 84.1377 162.659 84.5377C162.393 84.9377 162.059 85.271 161.659 85.5377C161.259 85.871 160.859 86.1043 160.459 86.2377L161.159 88.4377L159.559 88.8377L158.859 86.7377C158.326 86.7377 157.826 86.671 157.359 86.5377C157.093 86.5377 156.826 86.471 156.559 86.3377C156.559 86.3377 156.526 86.3043 156.459 86.2377C156.393 86.2377 156.326 86.2044 156.259 86.1377C156.126 86.1377 156.026 86.1044 155.959 86.0377C155.559 85.771 155.193 85.471 154.859 85.1377C154.793 85.1377 154.759 85.1044 154.759 85.0377C154.693 84.971 154.659 84.9377 154.659 84.9377C154.259 84.5377 153.959 84.1044 153.759 83.6377L155.359 83.1377C155.559 83.471 155.759 83.771 155.959 84.0377C156.159 84.2377 156.359 84.4044 156.559 84.5377C156.559 84.6044 156.593 84.6377 156.659 84.6377C156.726 84.7044 156.793 84.7377 156.859 84.7377C157.059 84.871 157.259 84.971 157.459 85.0377C157.726 85.1044 157.993 85.171 158.259 85.2377L158.059 84.4377L157.959 84.3377V84.1377L156.659 80.6377C156.193 80.571 155.693 80.5043 155.159 80.4377C155.026 80.371 154.893 80.3377 154.759 80.3377C154.693 80.271 154.593 80.2377 154.459 80.2377C154.259 80.171 154.059 80.1044 153.859 80.0377C153.459 79.8377 153.093 79.6043 152.759 79.3377C152.559 79.1377 152.393 78.871 152.259 78.5377C152.193 78.4044 152.126 78.271 152.059 78.1377C151.926 77.8044 151.859 77.471 151.859 77.1377C151.859 77.071 151.893 76.971 151.959 76.8377C151.959 76.4377 152.059 76.0377 152.259 75.6377C152.459 75.3044 152.726 74.971 153.059 74.6377C153.459 74.371 153.859 74.1377 154.259 73.9377L153.759 72.5377L155.359 72.1377L155.859 73.4377C156.259 73.371 156.693 73.371 157.159 73.4377C157.626 73.4377 158.059 73.5377 158.459 73.7377C158.859 73.871 159.226 74.1043 159.559 74.4377C159.959 74.771 160.293 75.171 160.559 75.6377L158.959 76.1377C158.626 75.671 158.226 75.3377 157.759 75.1377C157.359 74.9377 156.893 74.871 156.359 74.9377L157.859 79.1377C158.193 79.1377 158.559 79.171 158.959 79.2377C159.293 79.3043 159.626 79.371 159.959 79.4377C160.293 79.5043 160.593 79.571 160.859 79.6377C161.193 79.771 161.493 79.9377 161.759 80.1377C162.026 80.271 162.259 80.471 162.459 80.7377C162.659 81.0043 162.793 81.3044 162.859 81.6377C163.126 82.2377 163.193 82.771 163.059 83.2377ZM154.059 78.1377C154.193 78.3377 154.359 78.471 154.559 78.5377C154.759 78.671 154.993 78.771 155.259 78.8377C155.526 78.9043 155.793 78.971 156.059 79.0377L154.759 75.4377C154.293 75.6377 153.959 75.9377 153.759 76.3377C153.559 76.7377 153.526 77.171 153.659 77.6377C153.726 77.8377 153.859 78.0044 154.059 78.1377ZM161.259 82.1377C161.193 81.9377 161.059 81.7377 160.859 81.5377C160.726 81.4044 160.526 81.3043 160.259 81.2377C159.993 81.1043 159.693 81.0043 159.359 80.9377C159.093 80.871 158.793 80.8043 158.459 80.7377L159.859 84.8377C160.193 84.7043 160.459 84.5377 160.659 84.3377C160.926 84.1377 161.093 83.9044 161.159 83.6377C161.293 83.4377 161.393 83.2043 161.459 82.9377C161.459 82.671 161.393 82.4044 161.259 82.1377Z" fill="black"/>
</svg>
