<svg width="249" height="213" viewBox="0 0 249 213" fill="none" xmlns="http://www.w3.org/2000/svg">
<path d="M196.918 208.721H7.11816V207.321H196.918V208.721Z" fill="black"/>
<path d="M103.418 4.42103C199.218 -18.979 200.218 55.1211 206.018 118.321C211.718 181.521 189.118 209.921 142.618 207.121C96.1177 204.221 131.418 158.721 75.7177 158.921C20.1177 159.221 -5.88227 128.021 1.11773 91.421C7.61773 57.221 42.9177 19.221 103.418 4.42103Z" fill="#E6EBF0"/>
<path d="M39.8177 168.621C57.0177 164.421 91.0177 160.921 101.818 177.021C112.718 193.121 101.918 199.021 82.3177 191.221C62.8177 183.421 15.9177 174.421 39.8177 168.621Z" fill="#E6EBF0"/>
<path d="M55.6174 56.9211V49.1211H68.4174V12.1211H72.0174V49.1211H85.8174V56.9211H93.3174V212.321H39.8174V56.9211H55.6174Z" fill="#C6D0DB"/>
<path d="M39.8174 56.9209H47.2174V196.621H39.8174V56.9209Z" fill="#AAB6C2"/>
<path d="M66.5176 93.9209H120.018V212.321H66.5176V93.9209Z" fill="#C6D0DB"/>
<path d="M66.5176 93.9209H73.9176V212.321H66.5176V93.9209Z" fill="#AAB6C2"/>
<path d="M104.918 98.9209H112.518V102.121H104.918V98.9209Z" fill="#AAB6C2"/>
<path d="M91.918 98.9209H99.618V102.121H91.918V98.9209Z" fill="#AAB6C2"/>
<path d="M104.918 110.521H112.518V113.721H104.918V110.521Z" fill="#AAB6C2"/>
<path d="M91.918 110.521H99.618V113.721H91.918V110.521Z" fill="#AAB6C2"/>
<path d="M79.0176 110.521H86.7176V113.721H79.0176V110.521Z" fill="#AAB6C2"/>
<path d="M104.918 122.121H112.518V125.321H104.918V122.121Z" fill="#AAB6C2"/>
<path d="M79.0176 122.121H86.7176V125.321H79.0176V122.121Z" fill="#AAB6C2"/>
<path d="M91.918 127.921H99.618V131.121H91.918V127.921Z" fill="#AAB6C2"/>
<path d="M104.918 133.721H112.518V136.921H104.918V133.721Z" fill="#AAB6C2"/>
<path d="M91.918 139.521H99.618V142.721H91.918V139.521Z" fill="#AAB6C2"/>
<path d="M104.918 145.421H112.518V148.521H104.918V145.421Z" fill="#AAB6C2"/>
<path d="M79.0176 145.421H86.7176V148.521H79.0176V145.421Z" fill="#AAB6C2"/>
<path d="M104.918 156.121H112.518V159.321H104.918V156.121Z" fill="#AAB6C2"/>
<path d="M91.918 156.121H99.618V159.321H91.918V156.121Z" fill="#AAB6C2"/>
<path d="M104.918 167.721H112.518V170.921H104.918V167.721Z" fill="#AAB6C2"/>
<path d="M91.918 167.721H99.618V170.921H91.918V167.721Z" fill="#AAB6C2"/>
<path d="M79.0176 167.721H86.7176V170.921H79.0176V167.721Z" fill="#AAB6C2"/>
<path d="M104.918 179.321H112.518V182.521H104.918V179.321Z" fill="#AAB6C2"/>
<path d="M79.0176 179.321H86.7176V182.521H79.0176V179.321Z" fill="#AAB6C2"/>
<path d="M91.918 185.121H99.618V188.321H91.918V185.121Z" fill="#AAB6C2"/>
<path d="M79.0176 185.121H86.7176V188.321H79.0176V185.121Z" fill="#AAB6C2"/>
<path d="M104.918 190.921H112.518V194.121H104.918V190.921Z" fill="#AAB6C2"/>
<path d="M91.918 196.721H99.618V199.921H91.918V196.721Z" fill="#AAB6C2"/>
<path d="M104.918 202.521H112.518V205.721H104.918V202.521Z" fill="#AAB6C2"/>
<path d="M79.0176 202.521H86.7176V205.721H79.0176V202.521Z" fill="#AAB6C2"/>
<path d="M194.518 93.9209H248.018V212.321H194.518V93.9209Z" fill="#C6D0DB"/>
<path d="M194.518 93.9209H202.018V212.321H194.518V93.9209Z" fill="#AAB6C2"/>
<path d="M118.518 37.6211H190.318V212.321H118.518V37.6211Z" fill="#C6D0DB"/>
<path d="M118.518 37.6211H125.918V212.321H118.518V37.6211Z" fill="#AAB6C2"/>
<path d="M171.518 46.021H182.818V50.621H171.518V46.021Z" fill="#AAB6C2"/>
<path d="M152.718 46.021H163.918V50.621H152.718V46.021Z" fill="#AAB6C2"/>
<path d="M171.518 62.9209H182.818V67.6209H171.518V62.9209Z" fill="#AAB6C2"/>
<path d="M152.718 62.9209H163.918V67.6209H152.718V62.9209Z" fill="#AAB6C2"/>
<path d="M133.817 62.9209H145.017V67.6209H133.817V62.9209Z" fill="#AAB6C2"/>
<path d="M171.518 79.9209H182.818V84.5209H171.518V79.9209Z" fill="#AAB6C2"/>
<path d="M133.817 79.9209H145.017V84.5209H133.817V79.9209Z" fill="#AAB6C2"/>
<path d="M152.718 88.3213H163.918V93.0213H152.718V88.3213Z" fill="#AAB6C2"/>
<path d="M171.518 96.8213H182.818V101.521H171.518V96.8213Z" fill="#AAB6C2"/>
<path d="M152.718 105.321H163.918V109.921H152.718V105.321Z" fill="#AAB6C2"/>
<path d="M171.518 113.721H182.818V118.421H171.518V113.721Z" fill="#AAB6C2"/>
<path d="M133.817 113.721H145.017V118.421H133.817V113.721Z" fill="#AAB6C2"/>
<path d="M171.518 129.421H182.818V134.121H171.518V129.421Z" fill="#AAB6C2"/>
<path d="M152.718 129.421H163.918V134.121H152.718V129.421Z" fill="#AAB6C2"/>
<path d="M171.518 146.321H182.818V151.021H171.518V146.321Z" fill="#AAB6C2"/>
<path d="M152.718 146.321H163.918V151.021H152.718V146.321Z" fill="#AAB6C2"/>
<path d="M133.817 146.321H145.017V151.021H133.817V146.321Z" fill="#AAB6C2"/>
<path d="M171.518 163.321H182.818V167.921H171.518V163.321Z" fill="#AAB6C2"/>
<path d="M133.817 163.321H145.017V167.921H133.817V163.321Z" fill="#AAB6C2"/>
<path d="M152.718 171.821H163.918V176.421H152.718V171.821Z" fill="#AAB6C2"/>
<path d="M133.817 171.821H145.017V176.421H133.817V171.821Z" fill="#AAB6C2"/>
<path d="M171.518 180.221H182.818V184.921H171.518V180.221Z" fill="#AAB6C2"/>
<path d="M152.718 188.721H163.918V193.421H152.718V188.721Z" fill="#AAB6C2"/>
<path d="M171.518 197.221H182.818V201.821H171.518V197.221Z" fill="#AAB6C2"/>
<path d="M133.817 197.221H145.017V201.821H133.817V197.221Z" fill="#AAB6C2"/>
<path d="M4.01758 102.021H49.3176V212.321H4.01758V102.021Z" fill="#C6D0DB"/>
<path d="M4.01758 102.021H8.71759V212.321H4.01758V102.021Z" fill="#AAB6C2"/>
<path d="M37.5176 107.321H44.5176V110.221H37.5176V107.321Z" fill="#AAB6C2"/>
<path d="M25.5176 107.321H32.6176V110.221H25.5176V107.321Z" fill="#AAB6C2"/>
<path d="M37.5176 118.021H44.5176V120.921H37.5176V118.021Z" fill="#AAB6C2"/>
<path d="M25.5176 118.021H32.6176V120.921H25.5176V118.021Z" fill="#AAB6C2"/>
<path d="M13.6172 118.021H20.7172V120.921H13.6172V118.021Z" fill="#AAB6C2"/>
<path d="M37.5176 128.721H44.5176V131.621H37.5176V128.721Z" fill="#AAB6C2"/>
<path d="M13.6172 128.721H20.7172V131.621H13.6172V128.721Z" fill="#AAB6C2"/>
<path d="M25.5176 134.021H32.6176V137.021H25.5176V134.021Z" fill="#AAB6C2"/>
<path d="M37.5176 139.421H44.5176V142.321H37.5176V139.421Z" fill="#AAB6C2"/>
<path d="M25.5176 144.721H32.6176V147.721H25.5176V144.721Z" fill="#AAB6C2"/>
<path d="M37.5176 150.121H44.5176V153.021H37.5176V150.121Z" fill="#AAB6C2"/>
<path d="M13.6172 150.121H20.7172V153.021H13.6172V150.121Z" fill="#AAB6C2"/>
<path d="M37.5176 160.021H44.5176V162.921H37.5176V160.021Z" fill="#AAB6C2"/>
<path d="M25.5176 160.021H32.6176V162.921H25.5176V160.021Z" fill="#AAB6C2"/>
<path d="M37.5176 170.621H44.5176V173.621H37.5176V170.621Z" fill="#AAB6C2"/>
<path d="M25.5176 170.621H32.6176V173.621H25.5176V170.621Z" fill="#AAB6C2"/>
<path d="M13.6172 170.621H20.7172V173.621H13.6172V170.621Z" fill="#AAB6C2"/>
<path d="M37.5176 181.321H44.5176V184.321H37.5176V181.321Z" fill="#AAB6C2"/>
<path d="M13.6172 181.321H20.7172V184.321H13.6172V181.321Z" fill="#AAB6C2"/>
<path d="M25.5176 186.721H32.6176V189.621H25.5176V186.721Z" fill="#AAB6C2"/>
<path d="M13.6172 186.721H20.7172V189.621H13.6172V186.721Z" fill="#AAB6C2"/>
<path d="M37.5176 192.021H44.5176V195.021H37.5176V192.021Z" fill="#AAB6C2"/>
<path d="M25.5176 197.421H32.6176V200.321H25.5176V197.421Z" fill="#AAB6C2"/>
<path d="M37.5176 202.721H44.5176V205.721H37.5176V202.721Z" fill="#AAB6C2"/>
<path d="M13.6172 202.721H20.7172V205.721H13.6172V202.721Z" fill="#AAB6C2"/>
<path d="M22.6182 105.121C22.6182 105.121 23.9182 105.221 26.2182 105.121C25.0182 105.188 23.8182 105.188 22.6182 105.121Z" fill="black"/>
<path d="M111.418 35.8211C110.284 39.4211 108.984 42.9878 107.518 46.5211L106.718 48.3211C106.451 48.9211 106.184 49.5211 105.918 50.1211C105.651 50.7211 105.351 51.3211 105.018 51.9211L104.218 53.6211L103.718 54.5211L103.318 55.4211L102.318 57.2211C101.984 57.7544 101.684 58.3211 101.418 58.9211C101.084 59.5211 100.718 60.0878 100.318 60.6211C94.9177 69.8211 87.9178 78.2211 79.6178 85.1211C75.5178 88.5211 71.1178 91.5211 66.5178 94.0211C61.8178 96.6211 57.1178 98.7211 52.2178 100.421C49.7511 101.221 47.2844 101.921 44.8177 102.521C42.3511 103.121 39.8844 103.621 37.4178 104.021C34.9511 104.421 32.4844 104.721 30.0178 104.921C28.7511 105.054 27.4844 105.121 26.2178 105.121C34.2178 104.821 54.5178 101.721 76.1178 81.0211C83.3178 74.2211 89.1178 66.1211 93.4178 57.5211C97.0178 50.3211 99.7178 42.8211 101.618 35.2211L91.5178 34.5211L111.618 9.12109L121.718 36.5211L111.418 35.8211Z" fill="black"/>
<path d="M25.6182 105.221C25.6182 105.221 26.9181 105.421 29.3181 105.321C28.1181 105.321 26.8848 105.288 25.6182 105.221Z" fill="#7977C6"/>
<path d="M114.418 36.0213C113.285 39.6213 111.985 43.1546 110.518 46.6213L109.718 48.4213C109.452 49.0213 109.185 49.6213 108.918 50.2213C108.652 50.8213 108.385 51.4213 108.118 52.0213L107.218 53.8213L106.818 54.7213L106.318 55.6213L105.418 57.3213C105.085 57.9213 104.752 58.5213 104.418 59.1213C104.085 59.7213 103.752 60.288 103.418 60.8213C98.0184 70.0213 90.9184 78.4213 82.7184 85.3213C78.5184 88.7213 74.1184 91.7213 69.5184 94.2213C64.9184 96.8213 60.1184 98.9213 55.2184 100.521C52.8184 101.388 50.385 102.121 47.9184 102.721C45.4517 103.321 42.985 103.821 40.5184 104.221C37.985 104.621 35.485 104.921 33.0184 105.121C31.7517 105.188 30.5184 105.255 29.3184 105.321C37.3184 105.021 57.6184 101.921 79.1184 81.2213C86.3184 74.4213 92.1184 66.3213 96.5184 57.7213C100.118 50.5213 102.718 43.0213 104.718 35.4213L94.5184 34.7213L114.618 9.32129L124.818 36.7213L114.418 36.0213Z" fill="#7977C6"/>
<path d="M111.618 9.12109L114.618 9.32111L112.618 11.8211L111.618 9.12109Z" fill="black"/>
<path d="M40.1178 207.321C40.0511 207.321 39.9844 207.321 39.9177 207.321C39.1177 207.221 38.6178 206.421 38.7178 205.721L45.9177 146.021C46.0177 145.221 46.7177 144.721 47.5177 144.821C48.3177 144.921 48.8178 145.621 48.7178 146.421L41.5177 206.121C41.4177 206.821 40.8178 207.321 40.1178 207.321Z" fill="black"/>
<path d="M17.3182 207.321C17.2515 207.321 17.1848 207.321 17.1182 207.321C16.4182 207.221 15.8182 206.421 15.9182 205.721L23.1182 146.021C23.2182 145.221 23.9182 144.721 24.7182 144.821C25.5182 144.921 26.0182 145.621 25.9182 146.421L18.8182 206.121C18.7182 206.821 18.0182 207.321 17.3182 207.321Z" fill="black"/>
<path d="M41.4185 188.521H21.4185C20.6185 188.521 20.0186 187.921 20.0186 187.121C20.0186 186.321 20.6185 185.721 21.4185 185.721H41.4185C42.2185 185.721 42.8185 186.321 42.8185 187.121C42.8185 187.921 42.2185 188.521 41.4185 188.521Z" fill="black"/>
<path d="M35.5183 207.321C34.8183 207.321 34.2183 206.821 34.1183 206.121L27.0183 148.021C26.8183 147.321 27.4183 146.521 28.2183 146.421C29.0183 146.321 29.7182 146.921 29.8182 147.621L37.0183 205.721C37.1183 206.421 36.5183 207.221 35.7183 207.321C35.6516 207.321 35.5849 207.321 35.5183 207.321Z" fill="black"/>
<path d="M58.3187 207.321C57.6187 207.321 57.0187 206.821 56.9187 206.121L49.7187 148.021C49.6187 147.321 50.1187 146.521 50.9187 146.421C51.7187 146.321 52.4187 146.921 52.5187 147.621L59.7187 205.721C59.8187 206.421 59.3187 207.221 58.5187 207.321C58.4521 207.321 58.3854 207.321 58.3187 207.321Z" fill="black"/>
<path d="M54.3184 188.521H34.2184C33.4184 188.521 32.8184 187.921 32.8184 187.121C32.8184 186.321 33.4184 185.721 34.2184 185.721H54.3184C55.0184 185.721 55.7184 186.321 55.7184 187.121C55.7184 187.921 55.0184 188.521 54.3184 188.521Z" fill="black"/>
<path d="M18.818 138.521H30.118H44.018H55.318C56.618 138.521 57.718 139.621 57.718 140.921V146.221C57.718 147.521 56.618 148.621 55.318 148.621H44.018H30.118H18.818C17.518 148.621 16.418 147.521 16.418 146.221V140.921C16.418 139.621 17.518 138.521 18.818 138.521Z" fill="#7977C6"/>
<path d="M53.8176 179.821C53.0176 180.421 49.5176 176.521 49.5176 175.821C49.6176 175.121 52.5176 172.821 53.3176 172.321C53.6176 172.121 57.5176 175.721 57.4176 176.521C57.2176 177.221 54.5176 179.421 53.8176 179.821Z" fill="white"/>
<path fill-rule="evenodd" clip-rule="evenodd" d="M53.6178 180.221C53.4178 180.221 53.1178 180.021 53.0178 180.021C51.8178 179.321 49.2178 176.621 49.2178 175.821C49.3178 174.821 52.8178 172.321 53.2178 172.021C53.4178 171.921 53.6177 172.021 53.8177 172.221C54.5177 172.621 57.8178 175.621 57.6178 176.521C57.5178 177.521 54.0178 180.121 54.0178 180.121C53.8844 180.188 53.7511 180.221 53.6178 180.221ZM53.4178 172.621C52.2178 173.321 49.8177 175.421 49.8177 175.821C49.8177 176.221 51.8178 178.621 53.1178 179.421C53.5178 179.721 53.6178 179.621 53.6178 179.621C54.8178 178.821 57.0178 176.921 57.1178 176.421C57.1178 175.921 54.1178 173.021 53.4178 172.621Z" fill="black"/>
<path d="M53.5176 179.921C53.5176 179.921 55.8176 182.221 57.7176 184.921C59.6176 187.621 56.1176 190.721 56.1176 190.721C53.1176 188.321 45.0176 178.421 45.0176 178.421C45.9176 175.321 50.1176 174.821 50.1176 174.821C49.8176 178.321 53.5176 179.921 53.5176 179.921Z" fill="black"/>
<path d="M54.2177 115.221C54.2177 115.221 79.5177 125.021 82.1177 142.421C83.7177 152.821 68.3177 167.321 58.1177 177.921C58.1177 177.921 55.3177 176.921 53.2177 175.421C51.9177 174.521 50.9177 173.521 51.0177 172.421C54.3177 166.321 66.8177 156.421 65.2177 149.021C64.8177 147.221 64.4177 145.221 59.5177 143.421C51.2177 140.621 40.1177 137.221 37.4177 130.721C32.7177 119.221 50.0177 109.821 54.2177 115.221Z" fill="black"/>
<path d="M40.3185 180.321C39.7185 181.021 35.6185 177.721 35.5185 177.021C35.4185 176.321 37.9186 173.621 38.7186 172.921C38.9186 172.721 43.3185 175.721 43.3185 176.421C43.3185 177.221 40.9185 179.821 40.3185 180.321Z" fill="white"/>
<path fill-rule="evenodd" clip-rule="evenodd" d="M40.1182 180.721C39.8182 180.721 39.6182 180.621 39.5182 180.621C38.2182 180.121 35.3182 177.821 35.2182 177.121C35.1182 176.121 38.2182 173.021 38.5182 172.721C38.6182 172.621 38.9182 172.721 39.1182 172.821C39.9182 173.121 43.6182 175.521 43.6182 176.421C43.6182 177.421 40.6182 180.521 40.5182 180.521C40.4182 180.721 40.2182 180.721 40.1182 180.721ZM38.8182 173.221C37.8182 174.121 35.7182 176.521 35.8182 177.021C35.9182 177.421 38.1182 179.421 39.5182 180.021C40.0182 180.221 40.1182 180.121 40.1182 180.121C41.1182 179.121 43.0182 177.021 43.0182 176.421C42.9182 175.921 39.6182 173.521 38.8182 173.221Z" fill="black"/>
<path d="M50.2177 118.621C50.6177 118.621 50.8177 118.821 50.8177 119.121C50.8844 119.188 50.9177 119.221 50.9177 119.221C55.8177 123.121 62.6177 125.121 66.1177 130.621C67.4177 132.821 69.0177 135.521 69.5177 138.021C70.4177 141.921 70.5177 143.421 70.1177 148.321C69.6177 155.121 66.4177 159.821 62.6177 165.421C60.7177 168.221 58.5177 170.921 55.9177 173.221C55.1177 174.021 54.2177 174.821 53.2177 175.421C51.9177 174.521 50.9177 173.521 51.0177 172.421C54.3177 166.321 66.8177 156.421 65.2177 149.021C64.8177 147.221 64.4177 145.221 59.5177 143.421C57.7844 141.021 55.9511 138.688 54.0177 136.421C51.4177 133.521 48.4177 131.021 46.0177 128.021C42.4177 123.621 45.1177 119.721 50.2177 118.621Z" fill="black"/>
<path d="M40.118 180.421C40.118 180.421 42.718 182.421 45.018 184.821C47.318 187.121 44.318 190.721 44.318 190.721C40.918 188.821 31.418 180.321 31.418 180.321C31.818 177.121 35.918 175.921 35.918 175.921C36.118 179.421 40.118 180.421 40.118 180.421Z" fill="black"/>
<path d="M21.4179 126.321C22.6179 117.821 34.3179 111.421 38.0179 115.521C38.0179 115.521 67.5179 126.521 66.4179 144.021C65.7179 155.421 50.3179 172.221 42.0179 179.421C42.0179 179.421 38.8179 177.021 37.4179 174.621C37.2179 174.288 37.0845 173.954 37.0179 173.621C41.2179 170.921 50.9179 151.521 48.8179 144.321C47.4179 139.421 27.6179 142.321 22.5179 132.221C21.5179 130.221 21.2179 128.221 21.4179 126.321Z" fill="black"/>
<path d="M21.4179 126.321C22.3179 121.221 24.4179 119.821 25.5179 119.921C26.1179 119.921 25.2179 126.621 24.8179 126.821C27.5179 134.521 36.2179 136.521 43.3179 137.921C48.4179 138.921 52.5179 140.421 53.6179 145.921C54.3179 149.221 53.3179 149.021 52.1179 152.221C51.0179 155.221 49.9179 158.321 48.5179 161.321C46.1179 166.821 42.3179 171.321 37.4179 174.621C37.2179 174.288 37.0845 173.954 37.0179 173.621C41.2179 170.921 50.9179 151.521 48.8179 144.321C47.4179 139.421 27.6179 142.321 22.5179 132.221C21.5179 130.221 21.2179 128.221 21.4179 126.321Z" fill="black"/>
<path d="M19.8176 66.8212C21.0176 67.3212 23.9176 69.0212 25.9176 66.8212C26.7176 66.0212 27.2176 64.4212 27.6176 63.3212C28.2176 61.7212 28.7176 60.1212 29.5176 58.6212C30.5176 56.8212 31.9176 54.9212 33.9176 54.2212C37.1176 53.0212 41.7176 55.9212 42.3176 59.2212C42.4176 59.5212 42.2176 59.8211 42.0176 59.9211C41.9509 59.9211 41.8843 59.9545 41.8176 60.0212C39.7176 61.4212 37.8176 60.9211 36.3176 63.9211C35.5176 65.3211 35.4176 67.1212 34.9176 68.7212C34.0176 71.6212 32.0176 74.6212 29.0176 75.6212C24.1176 77.2212 18.3176 71.9212 18.6176 67.1212C18.6176 66.5212 19.4176 66.4212 19.8176 66.8212Z" fill="black"/>
<path d="M66.818 112.321C66.118 113.121 62.818 114.621 61.918 114.521C55.818 113.621 52.4181 108.321 50.0181 105.821C49.6181 105.421 49.2514 104.988 48.918 104.521C47.318 102.321 46.618 100.021 46.318 98.0209C46.018 96.1209 46.1181 94.7209 46.1181 94.7209C46.1181 94.7209 43.0181 78.5209 46.5181 80.1209C50.0181 81.8209 54.218 88.3209 57.418 93.9209C57.5514 94.0543 57.6514 94.1876 57.7181 94.3209C57.9181 94.7209 58.118 95.0543 58.318 95.3209C58.8514 96.2543 59.3181 97.0543 59.7181 97.7209C60.6181 99.3209 62.918 102.821 62.918 102.821C62.918 102.821 69.718 108.821 66.818 112.321Z" fill="white"/>
<path fill-rule="evenodd" clip-rule="evenodd" d="M62.0179 114.821C61.9512 114.821 61.9179 114.821 61.9179 114.821C56.7179 114.021 53.6179 110.321 51.3179 107.621C50.8179 107.021 50.3179 106.421 49.8179 106.021C49.4179 105.554 49.0512 105.121 48.7179 104.721C47.3179 102.821 46.4179 100.621 46.0179 98.1212C45.7179 96.3212 45.8179 94.9212 45.9179 94.7212C45.6179 93.2212 43.4179 81.5211 45.4179 79.9211C45.6179 79.8211 46.0179 79.6211 46.6179 79.9211C50.3179 81.6211 54.7179 88.6212 57.7179 93.7212L57.8179 93.9211C57.8845 94.0545 57.9512 94.1545 58.0179 94.2212L58.2179 94.5211C58.3512 94.7878 58.4512 95.0212 58.5179 95.2212C59.0512 96.0878 59.5179 96.8878 59.9179 97.6212C60.8179 99.0212 62.9179 102.321 63.1179 102.721C63.7179 103.121 69.9179 108.921 67.0179 112.421C66.4179 113.321 63.2179 114.821 62.0179 114.821ZM46.0179 80.3212C45.8846 80.3212 45.8179 80.3545 45.8179 80.4211C44.4179 81.4211 45.4179 89.5212 46.4179 94.6212V94.7212C46.4179 94.7212 46.3179 96.1211 46.6179 98.0211C46.9179 100.421 47.8179 102.521 49.1179 104.321C49.4512 104.788 49.8179 105.221 50.2179 105.621C50.7179 106.121 51.2179 106.621 51.7179 107.221C53.9179 109.921 57.0179 113.521 61.9179 114.221C62.8179 114.321 66.0179 112.921 66.6179 112.121C69.2179 108.921 62.8179 103.121 62.7179 103.121V103.021C62.7179 103.021 60.4179 99.4211 59.4179 97.9211C59.0179 97.2211 58.6179 96.4211 58.1179 95.5211C57.9846 95.3211 57.8512 95.0878 57.7179 94.8212L57.5179 94.5211C57.4512 94.4545 57.3845 94.3545 57.3179 94.2212L57.2179 94.0211C54.3179 89.0211 50.0179 82.0211 46.4179 80.4211C46.2845 80.3545 46.1512 80.3212 46.0179 80.3212Z" fill="black"/>
<path d="M46.3181 79.6212C49.8181 81.2212 54.5182 87.4212 58.1182 92.4212C60.4182 95.7212 52.2181 108.721 49.9181 106.121C47.5181 103.421 46.6181 100.321 46.3181 98.0212C46.0181 96.1212 46.1182 94.7212 46.1182 94.7212C46.1182 94.7212 42.8181 78.0212 46.3181 79.6212Z" fill="#7977C6"/>
<path d="M52.4182 93.7211C52.4182 93.7211 51.4182 97.2211 52.1182 99.5211C52.8182 101.821 54.6182 103.121 54.6182 103.121C54.6182 103.121 52.9182 105.521 51.8182 106.021C50.8182 106.521 46.5182 96.4211 49.1182 94.6211C51.6182 92.8211 52.4182 93.7211 52.4182 93.7211Z" fill="black"/>
<path d="M60.8174 119.521C60.8174 119.521 34.1174 129.421 19.3174 121.121C19.3174 121.121 28.7174 111.821 28.3174 101.921C28.2507 101.521 28.2174 101.088 28.2174 100.621C28.0841 99.7545 27.9174 98.8878 27.7174 98.0212C25.7174 87.9212 20.7174 75.6212 41.8174 76.8212C41.8174 76.8212 53.7174 82.7212 53.4174 89.3212C53.1174 95.9212 48.2174 96.9212 52.0174 104.421C55.7174 111.821 60.8174 119.521 60.8174 119.521Z" fill="#7977C6"/>
<path d="M33.1178 95.7212C32.1178 97.5212 29.7178 104.921 27.9178 106.221C27.9178 105.821 28.2178 101.121 28.2178 100.621C28.0844 99.7545 27.9178 98.8878 27.7178 98.0212C28.3178 96.9212 29.2178 95.6212 30.6178 94.3212C34.5178 90.6212 34.1178 81.7212 34.1178 81.7212C35.0178 86.2212 34.6178 93.0212 33.1178 95.7212Z" fill="black"/>
<path d="M44.0172 74.0212V77.7212C44.0172 77.7212 45.0172 79.5212 44.0172 79.7212C41.8172 80.2212 38.6172 76.7212 38.6172 76.7212V71.7212L44.0172 74.0212Z" fill="white"/>
<path fill-rule="evenodd" clip-rule="evenodd" d="M43.6174 80.1213C41.3174 80.1213 38.5174 77.1213 38.4174 76.9213L38.3174 76.8213V71.3213L44.3174 73.8213V77.6213C44.4174 77.9213 44.9174 79.0213 44.6174 79.6213C44.5507 79.8213 44.3841 79.9546 44.1174 80.0213C43.9174 80.0879 43.7507 80.1213 43.6174 80.1213ZM38.9174 76.6213C39.4174 77.1213 42.1174 79.8213 43.9174 79.5213C44.1174 79.4213 44.1174 79.4213 44.1174 79.3213C44.3174 79.0213 44.0174 78.3213 43.7174 77.8213V77.7213V74.2213L38.9174 72.2213V76.6213Z" fill="black"/>
<path d="M46.7176 63.821C46.7176 63.821 47.5176 68.221 46.9176 72.021C46.5176 74.621 40.9176 76.621 38.1176 71.921C35.3176 67.221 38.0176 62.021 38.0176 62.021L46.7176 63.821Z" fill="white"/>
<path fill-rule="evenodd" clip-rule="evenodd" d="M42.7178 75.0212C40.7178 75.0212 39.0178 74.0212 37.9178 72.1212C35.0178 67.3212 37.6178 62.1212 37.7178 61.9212L37.8178 61.7212L47.0178 63.6212V63.7212C47.0178 63.9212 47.8178 68.3212 47.2178 72.0212C47.0178 73.4212 45.6178 74.6212 43.8178 74.9212C43.4178 74.9878 43.0511 75.0212 42.7178 75.0212ZM38.1178 62.3212C37.7178 63.3212 36.0178 67.8212 38.4178 71.8212C39.6178 73.8212 41.5178 74.8212 43.6178 74.4212C45.2178 74.1212 46.5178 73.0212 46.7178 71.9212C47.1178 68.7212 46.6178 64.9212 46.5178 64.0212L38.1178 62.3212Z" fill="black"/>
<path d="M48.518 66.5211C47.718 67.2211 46.518 66.8211 45.818 66.2211C45.2846 65.8211 44.8847 65.3544 44.618 64.8211C44.418 64.4211 44.318 63.9211 44.118 63.5211C42.918 63.2211 41.718 63.6211 40.718 64.4211C40.518 64.9211 40.318 65.3211 40.218 65.9211C39.918 67.5211 39.618 68.9211 38.518 70.1211C37.018 71.8211 35.618 70.1211 35.018 68.4211C34.418 66.2211 35.418 63.3211 37.118 61.8211C37.918 61.1211 39.818 60.2211 41.318 60.3211C41.218 60.0211 41.418 59.6211 41.918 59.6211C43.418 59.7211 45.018 59.9211 46.318 60.8211C46.718 61.2211 47.018 61.6211 47.318 62.1211C47.618 62.7211 47.218 62.9211 47.818 63.6211C48.018 63.8211 48.418 64.0211 48.618 64.2211C49.218 64.9211 49.218 65.9211 48.518 66.5211Z" fill="black"/>
<path d="M39.4179 68.621C38.7179 68.621 37.8179 67.621 38.5179 66.421C39.2179 65.321 40.5179 66.421 40.5179 66.421C40.7179 67.121 40.1179 68.521 39.4179 68.621Z" fill="white"/>
<path fill-rule="evenodd" clip-rule="evenodd" d="M39.4176 68.8211C38.9176 68.8211 38.5176 68.6211 38.3176 68.1211C37.9176 67.6211 37.9176 66.9211 38.3176 66.3211C38.5176 65.9211 38.7843 65.6877 39.1176 65.6211C39.8176 65.5211 40.6176 66.1211 40.7176 66.2211V66.3211H40.8176C40.9176 66.9211 40.7176 67.7211 40.3176 68.2211C40.0509 68.6211 39.7509 68.8211 39.4176 68.8211ZM39.3176 66.2211C39.2509 66.2211 39.2176 66.2211 39.2176 66.2211C39.0176 66.2211 38.8509 66.3544 38.7176 66.6211C38.4176 67.2211 38.6176 67.7211 38.7176 67.8211C38.9176 68.1211 39.2176 68.3211 39.4176 68.3211C39.5176 68.3211 39.7176 68.221 39.9176 67.921C40.1176 67.421 40.3176 66.9211 40.2176 66.6211C40.0176 66.4211 39.6176 66.2211 39.3176 66.2211Z" fill="black"/>
<path d="M38.2181 60.6212C39.2181 59.2212 40.9181 58.8212 42.5181 58.7212C43.3181 58.7212 43.5181 60.0212 42.7181 60.1212C41.4181 60.1212 40.1181 60.3212 39.3181 61.4212C38.8181 62.1212 37.7181 61.3212 38.2181 60.6212Z" fill="#7977C6"/>
<path d="M17.0178 91.4211C17.1178 91.2211 23.6179 82.7211 27.7179 79.4211C29.8179 77.7211 33.0178 78.5211 33.9178 81.1211C34.6178 82.9211 35.0178 85.3211 34.5178 88.0211C34.0178 90.9211 32.4179 93.5211 30.2179 95.5211C29.3179 96.2211 28.3178 97.2211 27.3178 98.1211C25.0178 100.321 23.8179 108.621 24.2179 109.321C26.6179 113.321 38.6179 112.321 38.6179 112.321L38.9178 115.921C38.9178 115.921 18.5178 122.021 13.8178 115.521C9.21783 109.021 11.2178 99.0211 17.0178 91.4211Z" fill="white"/>
<path fill-rule="evenodd" clip-rule="evenodd" d="M22.9178 118.821C18.9178 118.821 15.3178 118.021 13.6178 115.721C9.2178 109.521 10.5178 99.4209 16.7178 91.2209H16.8178C17.9178 89.7209 23.8178 82.3209 27.5178 79.2209C28.6178 78.3209 30.0178 78.0209 31.4178 78.4209C32.7178 78.8209 33.7178 79.7209 34.2178 81.0209C35.0178 83.2209 35.2178 85.6209 34.8178 88.1209C34.3178 90.9209 32.8178 93.6209 30.4178 95.7209C29.3178 96.6209 28.3178 97.5209 27.5178 98.3209C25.3178 100.421 24.1178 108.521 24.4178 109.221C26.7178 113.021 38.5178 112.121 38.6178 112.121L38.9178 112.021L39.2178 116.121L39.0178 116.221C38.5178 116.421 30.1178 118.821 22.9178 118.821ZM30.2178 78.8209C29.4178 78.8209 28.5178 79.1209 27.9178 79.7209C24.2178 82.7209 18.4178 90.1209 17.2178 91.5209V91.6209C11.1178 99.6209 9.8178 109.421 14.1178 115.421C18.3178 121.221 36.4178 116.321 38.6178 115.721L38.4178 112.621C36.5178 112.821 26.2178 113.321 24.0178 109.521C23.4178 108.621 24.7178 100.221 27.1178 97.9209C27.9178 97.1209 29.0178 96.2209 30.0178 95.2209C32.3178 93.3209 33.8178 90.7209 34.3178 88.0209C34.7178 85.6209 34.5178 83.3209 33.7178 81.2209C33.3178 80.1209 32.4178 79.3209 31.2178 79.0209C30.8845 78.8876 30.5511 78.8209 30.2178 78.8209Z" fill="black"/>
<path d="M14.6182 90.121C19.3182 84.521 26.6182 76.921 31.7182 78.121C34.9182 78.821 35.7182 85.221 35.2182 87.821C34.4182 93.421 28.2181 99.021 27.3181 99.921C21.5181 98.421 16.8182 95.021 14.6182 90.121Z" fill="#7977C6"/>
<path d="M52.4178 121.521L39.7178 118.021L53.0178 117.221L52.4178 121.521Z" fill="#AAB6C2"/>
<path d="M39.918 119.021V118.321L52.118 121.821V122.821L39.918 119.021Z" fill="white"/>
<path fill-rule="evenodd" clip-rule="evenodd" d="M52.4182 121.521V123.121L39.6182 119.221L39.7182 118.021L52.4182 121.521ZM40.2182 118.721L51.8181 122.321V121.921L40.2182 118.621V118.721Z" fill="black"/>
<path d="M80.018 121.321L52.418 123.121V121.521L80.018 119.921V121.321Z" fill="#AAB6C2"/>
<path d="M54.8177 106.621C54.9177 106.221 55.2178 105.921 55.6178 105.921L80.9178 104.421C81.1844 104.421 81.4178 104.488 81.6178 104.621C81.7511 104.821 81.8177 105.054 81.8177 105.321L79.7178 119.621L52.7178 121.221L54.8177 106.621Z" fill="white"/>
<path fill-rule="evenodd" clip-rule="evenodd" d="M82.018 105.321L80.018 119.921L52.418 121.521L54.518 106.621C54.618 106.121 55.018 105.721 55.618 105.621L80.918 104.121C80.918 104.121 80.9513 104.121 81.018 104.121C81.618 104.121 82.118 104.721 82.018 105.321ZM80.918 104.721L55.618 106.221C55.318 106.221 55.118 106.421 55.118 106.621L53.118 120.921L79.518 119.321L81.518 105.221C81.518 105.088 81.4846 104.954 81.418 104.821C81.2846 104.754 81.1513 104.721 81.018 104.721H80.918Z" fill="black"/>
<path d="M51.7175 114.621C51.5175 115.021 50.9175 115.121 50.6175 114.821C49.9175 114.021 49.2175 113.421 48.4175 113.021C48.6175 113.521 48.5175 114.121 48.0175 114.621C47.8842 114.754 47.7175 114.888 47.5175 115.021C47.5175 115.221 47.5175 115.421 47.3175 115.521C47.1842 115.654 47.0175 115.754 46.8175 115.821C46.9175 116.121 46.8175 116.521 46.4175 116.621C45.4842 116.754 44.6175 116.654 43.8175 116.321C43.6175 116.388 43.4175 116.454 43.2175 116.521C42.3175 116.821 41.3175 116.621 40.4175 116.421C39.8175 116.321 39.3175 116.121 38.9175 115.921C38.4175 115.721 37.8175 115.421 37.7175 114.721C37.5175 114.221 37.5175 113.321 37.8175 112.921C38.2175 112.321 39.1175 112.321 39.7175 112.221C40.5175 112.021 41.3175 112.021 42.0175 111.721C42.7175 111.321 43.4175 110.621 43.9175 110.021C44.3175 109.521 44.9175 108.321 45.8175 108.721C46.6175 109.021 46.6175 110.221 46.3175 110.921C46.2508 110.988 46.1842 111.088 46.1175 111.221C46.1842 111.221 46.2842 111.221 46.4175 111.221C47.4175 111.221 48.3175 111.221 49.1175 111.521C50.2175 111.921 52.3175 113.221 51.7175 114.621Z" fill="white"/>
<path fill-rule="evenodd" clip-rule="evenodd" d="M45.6175 117.021C45.0175 117.021 44.4175 116.888 43.8175 116.621C43.6842 116.688 43.5175 116.754 43.3175 116.821C42.2175 117.121 41.1175 116.921 40.3175 116.621C39.8175 116.621 39.2175 116.421 38.8175 116.221C38.2175 115.921 37.6175 115.621 37.4175 114.821C37.2175 114.321 37.2175 113.321 37.6175 112.721C37.9175 112.121 38.7175 112.021 39.3175 111.921C39.4508 111.921 39.5508 111.921 39.6175 111.921C39.8175 111.854 40.0175 111.821 40.2175 111.821C40.8175 111.721 41.4175 111.621 41.9175 111.421C42.6175 111.021 43.2175 110.421 43.7175 109.821C43.7842 109.754 43.8508 109.654 43.9175 109.521C44.3175 108.921 45.0175 108.121 45.9175 108.421C46.2508 108.621 46.4842 108.888 46.6175 109.221C46.9175 109.821 46.7175 110.521 46.5175 110.921C47.5175 110.854 48.4175 110.954 49.2175 111.221C50.0175 111.521 51.5175 112.321 51.9175 113.421C52.1175 113.888 52.1175 114.321 51.9175 114.721C51.8175 115.021 51.5175 115.221 51.2175 115.221C50.9175 115.321 50.6175 115.221 50.4175 115.021C49.8175 114.354 49.2509 113.854 48.7175 113.521C48.7175 114.021 48.5175 114.521 48.2175 114.821C48.0842 114.954 47.9508 115.054 47.8175 115.121C47.7508 115.388 47.6508 115.588 47.5175 115.721C47.4508 115.854 47.3175 115.954 47.1175 116.021C47.1842 116.221 47.1508 116.388 47.0175 116.521C46.8842 116.721 46.6842 116.854 46.4175 116.921C46.1508 116.988 45.8842 117.021 45.6175 117.021ZM43.8175 116.021H43.9175C44.7175 116.354 45.5175 116.454 46.3175 116.321C46.4508 116.321 46.5175 116.288 46.5175 116.221C46.5842 116.154 46.6175 116.054 46.6175 115.921L46.5175 115.621L46.7175 115.521C46.9175 115.521 47.0508 115.454 47.1175 115.321C47.1842 115.254 47.2175 115.154 47.2175 115.021L47.3175 114.821L47.4175 114.721C47.5508 114.654 47.6842 114.554 47.8175 114.421C48.2175 114.021 48.3175 113.521 48.1175 113.121L47.9175 112.421L48.5175 112.721C49.3175 113.121 50.0175 113.721 50.8175 114.621C50.8842 114.688 50.9842 114.721 51.1175 114.721C51.2508 114.654 51.3508 114.554 51.4175 114.421C51.5508 114.154 51.5508 113.888 51.4175 113.621C51.0175 112.821 49.8175 112.021 49.1175 111.821C48.3175 111.554 47.4175 111.454 46.4175 111.521H46.3175C46.2508 111.521 46.2175 111.521 46.2175 111.521C46.1509 111.521 46.0842 111.488 46.0175 111.421H45.6175L45.9175 110.921C45.9842 110.854 46.0175 110.788 46.0175 110.721C46.2175 110.421 46.3175 109.821 46.1175 109.421C46.0508 109.221 45.9175 109.088 45.7175 109.021C45.2175 108.821 44.8175 109.221 44.4175 109.821C44.2842 109.954 44.1842 110.088 44.1175 110.221C43.6175 110.821 43.0175 111.521 42.1175 111.921C41.5175 112.221 40.9175 112.321 40.3175 112.421C40.1175 112.421 39.9175 112.421 39.7175 112.421C39.6509 112.488 39.5508 112.521 39.4175 112.521C38.9175 112.621 38.3175 112.621 38.1175 113.021C37.8175 113.321 37.8175 114.221 37.9175 114.721C38.0175 115.221 38.5175 115.421 39.0175 115.721C39.3175 115.821 39.9175 116.021 40.5175 116.121C41.2175 116.321 42.2175 116.521 43.1175 116.321C43.3175 116.254 43.4842 116.154 43.6175 116.021H43.8175Z" fill="black"/>
<path d="M70.3182 121.221C70.4182 120.921 70.6182 120.521 71.0182 120.521C71.0849 120.588 71.1182 120.621 71.1182 120.621C71.1182 120.421 71.1515 120.254 71.2182 120.121C71.3182 119.721 71.6182 119.121 72.2182 119.421C72.4182 119.554 72.5515 119.721 72.6182 119.921C72.7182 119.621 72.9182 119.321 73.4182 119.121C74.0182 118.921 74.3182 119.321 74.4182 119.821C74.6182 119.321 74.8182 118.621 75.4182 119.021C75.8182 119.221 76.0182 119.621 76.2182 119.921C76.4849 120.321 76.6849 120.754 76.8182 121.221C76.8182 121.288 76.8182 121.321 76.8182 121.321C76.8182 121.388 76.8182 121.454 76.8182 121.521C76.6182 122.021 76.0182 122.521 75.4182 122.021C75.2849 121.954 75.1515 121.821 75.0182 121.621C75.1182 122.121 75.0182 122.521 74.5182 122.621C74.0182 122.721 73.5182 122.321 73.2182 121.921C73.1182 122.121 72.9182 122.421 72.6182 122.421C72.4182 122.421 72.2182 122.221 72.0182 122.021C72.0182 122.088 71.9849 122.121 71.9182 122.121C71.1182 122.621 70.2182 122.021 70.3182 121.221Z" fill="white"/>
<path fill-rule="evenodd" clip-rule="evenodd" d="M74.3178 122.921C74.0178 122.921 73.6178 122.821 73.3178 122.321C73.1178 122.521 72.9178 122.621 72.6178 122.721C72.4178 122.621 72.2178 122.521 72.0178 122.421C71.5178 122.721 71.0178 122.621 70.5178 122.321C70.2178 122.021 70.0178 121.621 70.1178 121.121C70.1178 120.821 70.4178 120.321 70.8178 120.321C70.8845 120.188 70.9178 120.088 70.9178 120.021C71.0178 119.721 71.2178 119.321 71.6178 119.121C71.7178 119.021 72.0178 119.021 72.3178 119.221C72.3845 119.288 72.4845 119.354 72.6178 119.421C72.7511 119.154 72.9845 118.988 73.3178 118.921C73.5845 118.788 73.8511 118.788 74.1178 118.921C74.2511 118.988 74.3511 119.054 74.4178 119.121C74.4845 118.921 74.6178 118.788 74.8178 118.721C75.0178 118.621 75.2178 118.521 75.6178 118.721C75.9178 118.921 76.2178 119.321 76.4178 119.621V119.821C76.6845 120.221 76.8845 120.688 77.0178 121.221C77.0845 121.354 77.1178 121.488 77.1178 121.621C76.9178 121.921 76.6178 122.321 76.2178 122.521C75.8845 122.588 75.5845 122.521 75.3178 122.321C75.3178 122.321 75.2845 122.321 75.2178 122.321C75.1178 122.721 74.8178 122.821 74.5178 122.821C74.4511 122.888 74.3845 122.921 74.3178 122.921ZM73.2178 121.321L73.5178 121.721C73.7178 122.021 74.0178 122.421 74.4178 122.321C74.6178 122.321 74.8178 122.221 74.7178 121.721V120.821L75.2178 121.521C75.3511 121.654 75.4845 121.754 75.6178 121.821C75.7511 121.954 75.8845 121.988 76.0178 121.921C76.2178 121.921 76.4178 121.721 76.5178 121.421V121.321C76.3845 120.854 76.1845 120.421 75.9178 120.021V119.921C75.7178 119.721 75.5178 119.321 75.3178 119.221C75.2178 119.121 75.1178 119.221 75.1178 119.221C74.9178 119.221 74.8178 119.521 74.7178 119.821L74.5178 120.821L74.2178 119.921C74.0845 119.654 73.9511 119.488 73.8178 119.421C73.7511 119.354 73.6511 119.354 73.5178 119.421C73.1845 119.554 72.9845 119.754 72.9178 120.021L72.8178 120.721L72.4178 120.121C72.2845 119.921 72.1511 119.788 72.0178 119.721C71.9178 119.621 71.8178 119.621 71.8178 119.621C71.6178 119.721 71.5178 119.921 71.4178 120.121C71.4178 120.254 71.4178 120.421 71.4178 120.621L71.5178 121.221L71.0178 120.821C70.8178 120.821 70.6178 121.121 70.6178 121.221C70.6178 121.521 70.7178 121.721 70.9178 121.821C71.1178 122.021 71.4178 122.121 71.7178 121.921L71.8178 121.421L72.2178 121.821C72.3178 121.921 72.5178 122.121 72.6178 122.121C72.7178 122.121 72.9178 121.921 73.0178 121.821L73.2178 121.321Z" fill="black"/>
<path d="M41.518 65.6211L41.918 67.5211L41.418 70.6211C41.418 70.6211 38.718 69.9211 39.218 69.2211C39.618 68.6211 40.318 65.8211 40.318 65.8211L41.518 65.6211Z" fill="white"/>
<path d="M37.0176 112.721L39.2176 112.521V115.721C39.2176 115.721 38.5176 115.721 37.6176 116.021C36.7176 116.321 35.4176 114.321 35.8176 113.921C36.1176 113.421 37.0176 112.721 37.0176 112.721Z" fill="white"/>
<path d="M32.2174 166.921L37.0174 205.721C37.1174 206.421 36.5174 207.221 35.7174 207.321C35.6507 207.321 35.5841 207.321 35.5174 207.321C34.8174 207.321 34.2174 206.821 34.1174 206.121L29.3174 166.921H32.2174Z" fill="black"/>
<path d="M176.117 21.6211H192.317V207.521H176.117V21.6211Z" fill="#7977C6"/>
<path d="M148.817 50.8213H165.117V207.521H148.817V50.8213Z" fill="#AAB6C2"/>
<path d="M121.617 104.221H137.917V207.521H121.617V104.221Z" fill="#7977C6"/>
<path d="M94.417 84.7212H110.717V207.521H94.417V84.7212Z" fill="#AAB6C2"/>
<path d="M67.2178 142.121H83.5178V207.521H67.2178V142.121Z" fill="#7977C6"/>
<path d="M40.0176 165.921H56.3176V207.521H40.0176V165.921Z" fill="#AAB6C2"/>
<path d="M12.8174 164.921H29.1174V207.521H12.8174V164.921Z" fill="#7977C6"/>
<path d="M26.1172 23.9211C26.1172 17.3211 31.5172 12.1211 38.0172 12.1211C44.6172 12.1211 49.9172 17.5211 49.9172 24.1211C49.8172 27.1211 48.7172 29.9211 46.8172 32.0211C44.4172 34.6211 42.7172 37.9211 42.7172 41.4211V41.8211L33.0172 41.7211V41.4211C33.1172 37.9211 31.4172 34.5211 29.1172 31.8211C27.2172 29.7211 26.1172 26.9211 26.1172 23.9211Z" fill="#7977C6"/>
<path fill-rule="evenodd" clip-rule="evenodd" d="M34.917 32.7211C34.917 32.7211 34.317 30.1211 33.917 27.5211C33.617 26.0211 33.517 24.9211 33.517 24.1211C33.2503 24.0544 33.017 23.9544 32.817 23.8211C31.017 22.5211 32.717 19.9211 32.717 19.8211C32.817 19.7211 33.017 19.6211 33.117 19.7211C33.317 19.8211 33.317 19.9211 33.317 20.0211C32.817 20.7211 31.917 22.7211 33.117 23.5211C33.2504 23.5878 33.3837 23.6544 33.517 23.7211C33.417 22.1211 33.817 22.0211 34.017 22.0211C34.417 21.9211 34.717 22.0211 34.917 22.3211C35.317 22.7211 35.017 23.7211 34.417 24.0211C34.2837 24.0878 34.1503 24.1211 34.017 24.1211C34.117 26.1211 34.717 29.5211 35.517 32.7211C35.517 32.9211 35.417 32.9211 35.217 32.9211C35.217 32.9211 35.1837 32.9211 35.117 32.9211C34.9837 32.8544 34.917 32.7878 34.917 32.7211ZM34.317 22.4211C34.117 22.4211 34.017 22.9211 34.017 23.6211C34.517 23.3211 34.717 22.6211 34.517 22.4211C34.517 22.4211 34.4837 22.4211 34.417 22.4211C34.417 22.4211 34.3837 22.4211 34.317 22.4211Z" fill="black"/>
<path fill-rule="evenodd" clip-rule="evenodd" d="M40.7172 32.9211C40.7172 32.9877 40.6838 33.0211 40.6172 33.0211C40.4172 33.0211 40.3172 32.9211 40.4172 32.8211C41.2172 29.6211 41.8172 26.2211 41.9172 24.2211C41.7838 24.1544 41.6838 24.1211 41.6172 24.1211C40.9172 23.7211 40.6172 22.8211 41.1172 22.3211C41.3172 22.1211 41.6172 22.0211 42.0172 22.0211C42.2172 22.1211 42.6172 22.1211 42.5172 23.8211C42.6505 23.7544 42.7505 23.6877 42.8172 23.6211C44.1172 22.8211 43.2172 20.8211 42.8172 20.1211C42.7172 20.0211 42.8172 19.9211 42.9172 19.8211C43.1172 19.7211 43.2172 19.7211 43.3172 19.8211C43.4172 19.9211 45.0172 22.6211 43.2172 23.9211C42.9505 24.0544 42.7172 24.1544 42.5172 24.2211C42.4172 25.0211 42.3172 26.0211 42.0172 27.6211C41.6172 30.1211 40.9172 32.7211 40.9172 32.7211C40.9172 32.8544 40.8505 32.9211 40.7172 32.9211ZM41.5172 22.4211C41.5172 22.4211 41.5172 22.4544 41.5172 22.5211C41.3172 22.7211 41.5172 23.4211 41.9172 23.7211C42.0172 22.9211 41.9172 22.5211 41.7172 22.4211C41.6505 22.4211 41.5838 22.4211 41.5172 22.4211Z" fill="black"/>
<path fill-rule="evenodd" clip-rule="evenodd" d="M34.9174 32.4211L35.2174 32.2211C36.8174 30.9211 39.1174 30.9211 40.6174 32.2211L40.9174 32.4211V42.0211H34.8174L34.9174 32.4211ZM40.4174 32.7211L40.3174 32.6211C38.9174 31.5211 37.0174 31.5211 35.6174 32.6211L35.5174 32.7211L35.4174 41.4211L40.3174 41.5211L40.4174 32.7211Z" fill="black"/>
<path d="M32.1172 41.721C32.1172 41.321 32.5172 41.021 32.9172 41.021H42.8172C43.2172 41.021 43.6172 41.421 43.6172 41.821C43.6172 42.221 43.2172 42.521 42.8172 42.521L32.9172 42.421C32.5172 42.421 32.1172 42.121 32.1172 41.721Z" fill="black"/>
<path d="M32.7168 43.2209C32.7168 42.8209 33.0168 42.4209 33.4168 42.4209L42.3168 42.5209C42.6168 42.5209 42.9168 42.8209 42.9168 43.3209C42.9168 43.7209 42.6168 44.0209 42.3168 44.0209L33.4168 43.9209C33.0168 43.9209 32.7168 43.6209 32.7168 43.2209Z" fill="#AAB6C2"/>
<path d="M32.7168 44.6209C32.7168 44.2209 33.0168 43.9209 33.4168 43.9209L42.3168 44.0209C42.6168 44.0209 42.9168 44.3209 42.9168 44.7209C42.9168 45.1209 42.6168 45.5209 42.3168 45.5209L33.4168 45.4209C33.0168 45.4209 32.7168 45.1209 32.7168 44.6209Z" fill="black"/>
<path d="M32.7168 46.1209C32.7168 45.7209 33.0168 45.4209 33.4168 45.4209L42.3168 45.5209C42.6168 45.5209 42.9168 45.8209 42.9168 46.2209C42.9168 46.6209 42.6168 46.9209 42.3168 46.9209H33.4168C33.0168 46.9209 32.7168 46.5209 32.7168 46.1209Z" fill="#AAB6C2"/>
<path d="M32.7168 47.6209C32.7168 47.2209 33.0168 46.9209 33.4168 46.9209H42.3168C42.6168 46.9209 42.9168 47.3209 42.9168 47.7209C42.9168 48.1209 42.6168 48.4209 42.2168 48.4209L33.3168 48.3209C33.0168 48.3209 32.7168 48.0209 32.7168 47.6209Z" fill="black"/>
<path d="M40.1176 49.9213L35.4176 49.8213C34.6176 49.8213 34.0176 49.1213 34.0176 48.3213L41.6176 48.4213C41.6176 49.2213 40.9176 49.9213 40.1176 49.9213Z" fill="#AAB6C2"/>
<path d="M37.9174 8.52109C37.5174 8.42109 37.3174 8.1211 37.3174 7.7211V2.92108C37.3174 2.52108 37.7174 2.12109 38.2174 2.12109C38.6174 2.12109 39.0174 2.52108 39.0174 2.92108V7.7211C39.0174 8.2211 38.6174 8.52109 38.1174 8.52109C38.0507 8.52109 37.9841 8.52109 37.9174 8.52109Z" fill="#7977C6"/>
<path d="M29.9173 10.0213C29.6506 10.0213 29.4506 9.92131 29.3173 9.72131L26.8173 5.5213C26.5173 5.1213 26.7173 4.6213 27.1173 4.4213C27.5173 4.1213 28.0173 4.32131 28.2173 4.72131L30.8173 8.82132C31.0173 9.22132 30.9173 9.7213 30.5173 9.9213C30.3173 10.0546 30.1173 10.088 29.9173 10.0213Z" fill="#7977C6"/>
<path d="M24.4173 16.321C24.3507 16.321 24.3173 16.2877 24.3173 16.221L19.8173 14.221C19.4173 14.021 19.2173 13.521 19.4173 13.121C19.6173 12.721 20.1173 12.521 20.5173 12.721L25.0173 14.721C25.4173 14.921 25.6173 15.421 25.4173 15.821C25.2173 16.221 24.8173 16.421 24.4173 16.321Z" fill="#7977C6"/>
<path d="M18.4174 26.4211C18.1174 26.3211 17.8174 26.0211 17.8174 25.6211C17.8174 25.1211 18.1174 24.8211 18.6174 24.7211L22.6174 24.6211C23.1174 24.6211 23.5174 24.9211 23.5174 25.4211C23.5174 25.9211 23.2174 26.3211 22.7174 26.3211L18.7174 26.4211C18.5841 26.4211 18.4841 26.4211 18.4174 26.4211Z" fill="#7977C6"/>
<path d="M46.517 10.2212C46.4503 10.1545 46.3836 10.1212 46.317 10.1212C45.917 9.82121 45.817 9.32119 46.017 8.92119L48.617 4.82122C48.917 4.42122 49.417 4.32121 49.817 4.62121C50.217 4.82121 50.317 5.32121 50.117 5.72121L47.417 9.82122C47.217 10.1212 46.917 10.2212 46.517 10.2212Z" fill="#7977C6"/>
<path d="M51.9177 16.5208C51.6177 16.4208 51.4177 16.3208 51.3177 16.0208C51.1177 15.6208 51.3177 15.1208 51.7177 14.9208L56.2177 13.0208C56.6177 12.8208 57.1177 13.0208 57.3177 13.4208C57.5177 13.8208 57.3177 14.3208 56.9177 14.5208L52.4177 16.4208C52.2177 16.5542 52.0511 16.5875 51.9177 16.5208Z" fill="#7977C6"/>
<path d="M53.7176 26.5213C53.3176 26.4213 53.0176 26.1213 53.0176 25.6213C53.1176 25.2213 53.5176 24.8213 53.9176 24.8213L57.9176 25.0213C58.4176 25.1213 58.8176 25.5213 58.7176 25.9213C58.7176 26.4213 58.3176 26.8213 57.9176 26.7213L53.8176 26.5213C53.8176 26.5213 53.7843 26.5213 53.7176 26.5213Z" fill="#7977C6"/>
<path d="M163.718 207.221V193.921H185.818C189.418 193.921 192.418 196.921 192.418 200.621C192.418 204.221 189.418 207.221 185.818 207.221H163.718Z" fill="white"/>
<path fill-rule="evenodd" clip-rule="evenodd" d="M192.718 200.621C192.718 204.421 189.618 207.521 185.818 207.521H163.418V193.621H185.818C189.618 193.621 192.718 196.721 192.718 200.621ZM164.018 194.221V206.921H185.818C189.318 206.921 192.118 204.021 192.118 200.621C192.118 197.121 189.318 194.221 185.818 194.221H164.018Z" fill="black"/>
<g opacity="0.3">
<path d="M187.018 195.221C182.118 195.221 175.018 195.221 175.018 195.221C175.018 195.221 171.218 198.021 170.118 199.821C169.118 201.321 166.118 200.121 163.418 199.121V193.621H185.818C189.318 193.621 192.318 196.321 192.718 199.821C192.618 199.721 191.818 195.221 187.018 195.221Z" fill="black"/>
</g>
<path d="M131.117 205.821V195.121H170.917C173.817 195.121 176.217 197.521 176.217 200.521C176.217 203.421 173.817 205.821 170.917 205.821H131.117Z" fill="white"/>
<path fill-rule="evenodd" clip-rule="evenodd" d="M176.517 200.521C176.517 203.621 174.017 206.121 170.917 206.121H130.817V194.821H170.917C174.017 194.821 176.517 197.321 176.517 200.521ZM131.417 195.421V205.521H170.917C173.717 205.521 175.917 203.221 175.917 200.521C175.917 197.721 173.717 195.421 170.917 195.421H131.417Z" fill="black"/>
<path d="M128.518 205.121H170.518C173.018 205.121 175.118 203.121 175.118 200.621C175.118 198.121 173.018 196.021 170.518 196.021H128.518V193.621H170.518C174.418 193.621 177.518 196.721 177.518 200.621C177.518 204.421 174.418 207.521 170.518 207.521H128.518V205.121Z" fill="black"/>
<path d="M159.617 173.721V163.621H176.717C179.517 163.621 181.717 165.921 181.717 168.721C181.717 171.521 179.517 173.721 176.717 173.721H159.617Z" fill="white"/>
<path fill-rule="evenodd" clip-rule="evenodd" d="M182.017 168.721C182.017 171.621 179.617 174.021 176.717 174.021H159.417V163.321H176.717C179.617 163.321 182.017 165.721 182.017 168.721ZM159.917 163.921V173.421H176.717C179.317 173.421 181.417 171.321 181.417 168.721C181.417 166.021 179.317 163.921 176.717 163.921H159.917Z" fill="black"/>
<path d="M134.417 172.721V164.521H165.117C167.417 164.521 169.217 166.321 169.217 168.621C169.217 170.821 167.417 172.721 165.117 172.721H134.417Z" fill="white"/>
<path fill-rule="evenodd" clip-rule="evenodd" d="M169.517 168.621C169.517 171.021 167.517 172.921 165.117 172.921H134.117V164.221H165.117C167.517 164.221 169.517 166.221 169.517 168.621ZM134.717 164.821V172.421H165.117C167.217 172.421 168.917 170.721 168.917 168.621C168.917 166.521 167.217 164.821 165.117 164.821H134.717Z" fill="black"/>
<path d="M132.317 172.221H164.917C166.817 172.221 168.417 170.621 168.417 168.721C168.417 166.721 166.817 165.121 164.917 165.121H132.317V163.321H164.917C167.817 163.321 170.217 165.721 170.217 168.721C170.217 171.621 167.817 174.021 164.917 174.021H132.317V172.221Z" fill="black"/>
<path d="M157.218 174.021H176.118C178.318 174.021 180.218 175.821 180.218 178.121C180.218 180.421 178.318 182.221 176.118 182.221H157.218V174.021Z" fill="#AAB6C2"/>
<g opacity="0.3">
<path d="M175.918 175.421H161.818L157.218 175.921V174.021H176.118C178.318 174.021 180.218 175.821 180.218 178.121C180.218 178.455 180.151 178.788 180.018 179.121C179.518 175.421 175.918 175.421 175.918 175.421Z" fill="black"/>
</g>
<path d="M128.918 181.121V175.021H158.918C160.618 175.021 162.018 176.421 162.018 178.021C162.018 179.721 160.618 181.121 158.918 181.121H128.918Z" fill="white"/>
<path fill-rule="evenodd" clip-rule="evenodd" d="M162.318 178.022C162.318 179.922 160.818 181.422 158.918 181.422H128.618V174.722H158.918C160.818 174.722 162.318 176.222 162.318 178.022ZM129.218 175.322V180.822H158.918C160.418 180.822 161.718 179.622 161.718 178.022C161.718 176.522 160.418 175.322 158.918 175.322H129.218Z" fill="black"/>
<path d="M127.218 180.822H158.718C160.218 180.822 161.418 179.621 161.418 178.121C161.418 176.621 160.218 175.421 158.718 175.421H127.218V174.021H158.718C161.018 174.021 162.818 175.821 162.818 178.121C162.818 180.421 161.018 182.221 158.718 182.221H127.218V180.822Z" fill="black"/>
<path d="M173.118 193.621H138.718C135.518 193.621 133.018 191.121 133.018 187.921C133.018 184.821 135.518 182.221 138.718 182.221H173.118V193.621Z" fill="#7977C6"/>
<g opacity="0.3">
<path d="M169.318 182.221L163.918 184.621C163.918 184.621 143.918 184.621 139.318 184.621C134.718 184.621 133.018 188.521 133.018 188.521C133.018 188.321 133.018 188.121 133.018 187.921C133.018 184.821 135.518 182.221 138.718 182.221H169.318Z" fill="black"/>
</g>
<path d="M166.918 192.221C164.518 192.221 162.518 190.321 162.518 187.821C162.518 185.421 164.518 183.521 166.918 183.521H186.718V192.221H166.918Z" fill="white"/>
<path fill-rule="evenodd" clip-rule="evenodd" d="M187.017 192.521H166.917C164.417 192.521 162.317 190.421 162.317 187.821C162.317 185.321 164.417 183.221 166.917 183.221H187.017V192.521ZM166.917 183.721C164.717 183.721 162.817 185.621 162.817 187.821C162.817 190.121 164.717 191.921 166.917 191.921H186.417V183.721H166.917Z" fill="black"/>
<path d="M189.018 193.621H167.218C164.018 193.621 161.518 191.121 161.518 187.921C161.518 184.821 164.018 182.221 167.218 182.221H189.018V184.221H167.218C165.118 184.221 163.418 185.821 163.418 187.921C163.418 190.021 165.118 191.721 167.218 191.721H189.018V193.621Z" fill="black"/>
<path d="M144.718 199.721C130.118 212.321 111.118 209.821 102.818 193.721C94.6179 177.721 99.7179 154.521 114.418 142.021C129.018 129.421 147.618 132.321 155.918 148.321C164.118 164.421 159.418 187.221 144.718 199.721Z" fill="black"/>
<path d="M122.618 206.121C113.618 206.121 105.818 201.121 101.318 192.321C93.2175 176.721 98.3176 154.121 112.518 141.921C118.318 136.921 124.918 134.321 131.518 134.321C140.618 134.321 148.418 139.321 152.918 148.021C160.918 163.721 155.918 186.321 141.618 198.521C135.818 203.521 129.218 206.121 122.618 206.121Z" fill="#7977C6"/>
<path fill-rule="evenodd" clip-rule="evenodd" d="M153.018 147.921C161.118 163.721 156.118 186.421 141.718 198.721C135.718 203.821 129.018 206.321 122.618 206.321C113.918 206.321 105.818 201.621 101.118 192.421C93.0176 176.721 98.0176 154.021 112.418 141.721C118.418 136.521 125.118 134.021 131.518 134.021C140.318 134.021 148.318 138.821 153.018 147.921ZM131.518 134.521C124.918 134.521 118.418 137.121 112.718 142.021C98.5176 154.221 93.4176 176.721 101.418 192.221C105.918 200.921 113.618 205.921 122.618 205.921C129.218 205.921 135.718 203.321 141.518 198.421C155.718 186.221 160.718 163.721 152.718 148.121C148.218 139.421 140.518 134.521 131.518 134.521V134.021V134.521Z" fill="black"/>
<path d="M123.317 201.021C115.517 201.021 108.817 196.721 105.017 189.221C98.1174 175.821 102.417 156.421 114.617 145.921C119.617 141.721 125.217 139.421 130.817 139.421C138.617 139.421 145.317 143.721 149.217 151.221C156.017 164.621 151.717 184.021 139.517 194.421C134.517 198.721 128.917 201.021 123.317 201.021Z" fill="white"/>
<path fill-rule="evenodd" clip-rule="evenodd" d="M149.317 151.121C156.317 164.621 151.917 184.121 139.617 194.621C134.517 199.021 128.717 201.221 123.317 201.221C115.817 201.221 108.817 197.121 104.817 189.321C97.8173 175.821 102.217 156.321 114.517 145.821C119.717 141.421 125.417 139.221 130.817 139.221C138.417 139.221 145.317 143.321 149.317 151.121ZM130.817 139.621C125.317 139.621 119.717 141.921 114.817 146.121C102.617 156.521 98.3173 175.821 105.217 189.121C109.017 196.521 115.617 200.821 123.317 200.821C128.917 200.821 134.417 198.521 139.417 194.321C151.517 183.921 155.817 164.621 149.017 151.321C145.117 143.921 138.517 139.621 130.817 139.621V139.221V139.621Z" fill="black"/>
<path d="M137.518 190.521C127.318 199.321 114.318 197.321 108.518 186.121C102.718 174.821 106.318 158.621 116.618 149.821C126.818 141.121 139.818 143.121 145.618 154.321C151.418 165.521 147.818 181.821 137.518 190.521Z" fill="#7977C6"/>
<path fill-rule="evenodd" clip-rule="evenodd" d="M123.918 196.221C122.785 196.221 121.685 196.121 120.618 195.921C115.418 194.921 111.018 191.421 108.318 186.221C102.518 174.921 106.218 158.521 116.518 149.721C121.618 145.321 127.818 143.421 133.518 144.521C138.718 145.521 143.118 149.021 145.818 154.221C151.618 165.521 148.018 181.921 137.718 190.721C133.518 194.321 128.618 196.221 123.918 196.221ZM130.318 144.621C125.618 144.621 120.818 146.521 116.718 150.021C106.618 158.721 102.918 174.821 108.718 186.021C111.318 191.121 115.618 194.521 120.718 195.521C126.318 196.621 132.318 194.721 137.418 190.421C147.618 181.721 151.218 165.521 145.418 154.421C142.818 149.321 138.518 145.921 133.418 144.921C132.418 144.721 131.385 144.621 130.318 144.621Z" fill="black"/>
<path d="M124.517 190.621C119.417 190.621 115.017 187.821 112.417 182.821C107.817 173.921 110.717 161.021 118.817 154.121C122.117 151.221 125.817 149.721 129.617 149.721C134.717 149.721 139.217 152.621 141.717 157.621C146.317 166.521 143.417 179.421 135.317 186.321C132.017 189.121 128.317 190.621 124.517 190.621Z" fill="white"/>
<path fill-rule="evenodd" clip-rule="evenodd" d="M141.917 157.521C146.517 166.521 143.617 179.421 135.417 186.521C132.017 189.421 128.217 190.821 124.517 190.821C119.517 190.821 114.917 188.121 112.217 182.921C107.617 173.921 110.517 160.921 118.717 153.921C122.117 151.021 126.017 149.521 129.617 149.521C134.617 149.521 139.217 152.321 141.917 157.521ZM118.917 154.221C110.917 161.121 108.017 173.921 112.617 182.721C115.117 187.621 119.517 190.421 124.517 190.421C128.217 190.421 131.917 188.921 135.217 186.121C143.217 179.321 146.117 166.521 141.517 157.721C139.017 152.821 134.717 149.921 129.617 149.921C125.917 149.921 122.217 151.421 118.917 154.221Z" fill="black"/>
<path d="M133.317 182.421C127.217 187.721 119.417 186.521 115.917 179.721C112.517 173.021 114.617 163.221 120.817 158.021C126.917 152.721 134.717 153.921 138.217 160.721C141.717 167.421 139.517 177.121 133.317 182.421Z" fill="#7977C6"/>
<path fill-rule="evenodd" clip-rule="evenodd" d="M125.117 185.921C124.517 185.921 123.884 185.854 123.218 185.721C120.018 185.121 117.418 183.021 115.718 179.821C112.218 173.021 114.417 163.121 120.617 157.821C123.817 155.221 127.517 154.021 130.917 154.721C134.117 155.321 136.717 157.421 138.417 160.621C141.917 167.421 139.717 177.221 133.517 182.521C130.917 184.721 128.017 185.921 125.117 185.921ZM129.017 154.921C126.217 154.921 123.417 156.021 120.917 158.121C114.817 163.321 112.717 173.021 116.117 179.621C117.717 182.721 120.217 184.721 123.317 185.321C126.617 185.921 130.218 184.821 133.218 182.221C139.318 177.021 141.417 167.421 138.017 160.721C136.417 157.721 133.917 155.721 130.917 155.121C130.251 154.988 129.617 154.921 129.017 154.921Z" fill="black"/>
<path d="M125.818 180.321C123.318 180.321 121.118 178.921 119.818 176.421C117.618 172.021 119.018 165.621 123.018 162.221C124.618 160.821 126.518 160.121 128.318 160.121C130.918 160.121 133.018 161.521 134.318 163.921C136.618 168.321 135.118 174.721 131.118 178.221C129.518 179.621 127.618 180.321 125.818 180.321Z" fill="white"/>
<path fill-rule="evenodd" clip-rule="evenodd" d="M134.518 163.821C136.818 168.321 135.418 174.821 131.318 178.321C129.518 179.821 127.618 180.521 125.818 180.521C123.318 180.521 121.018 179.121 119.618 176.521C117.318 172.021 118.818 165.621 122.918 162.021C124.618 160.621 126.518 159.921 128.318 159.921C130.818 159.921 133.118 161.221 134.518 163.821ZM123.118 162.421C119.218 165.721 117.818 172.021 120.018 176.421C121.218 178.721 123.318 180.121 125.818 180.121C127.618 180.121 129.418 179.421 131.018 178.021C134.918 174.621 136.318 168.321 134.118 164.021C132.918 161.621 130.818 160.321 128.318 160.321C126.518 160.321 124.718 161.021 123.118 162.421Z" fill="black"/>
<path d="M129.218 174.321C127.118 176.021 124.518 175.621 123.318 173.421C122.218 171.121 122.918 167.921 125.018 166.121C127.018 164.421 129.618 164.821 130.818 167.021C131.918 169.321 131.218 172.521 129.218 174.321Z" fill="#7977C6"/>
<path fill-rule="evenodd" clip-rule="evenodd" d="M126.418 175.621C126.218 175.621 125.985 175.587 125.718 175.521C124.618 175.321 123.718 174.621 123.218 173.521C122.018 171.121 122.718 167.821 124.818 166.021C125.918 165.021 127.218 164.721 128.418 164.921C129.518 165.121 130.418 165.821 131.018 166.921C132.218 169.221 131.418 172.621 129.318 174.421C128.418 175.221 127.418 175.621 126.418 175.621ZM127.718 165.221C126.818 165.221 125.918 165.621 125.118 166.321C123.118 168.021 122.418 171.121 123.518 173.321C124.018 174.221 124.918 174.921 125.818 175.121C126.918 175.321 128.018 174.921 129.018 174.121C131.018 172.421 131.718 169.321 130.618 167.121C130.118 166.121 129.318 165.521 128.318 165.321C128.118 165.254 127.918 165.221 127.718 165.221Z" fill="black"/>
<path d="M97.2182 141.221L127.318 169.121C127.618 169.421 127.618 169.921 127.318 170.321C127.018 170.621 126.518 170.621 126.118 170.321L96.1182 142.421L97.2182 141.221Z" fill="black"/>
<path d="M104.318 149.721L94.018 147.621L85.918 140.121L94.518 139.821L94.218 131.221L102.218 138.721L105.118 148.821L104.318 149.721Z" fill="black"/>
</svg>
