<svg width="208" height="213" viewBox="0 0 208 213" fill="none" xmlns="http://www.w3.org/2000/svg">
<path d="M34.8717 95.0944C88.6716 71.3944 61.2717 -9.50569 131.272 13.7943C201.172 37.0943 204.872 78.9943 207.372 110.894C209.772 142.794 196.772 216.994 111.472 211.094C45.2716 206.594 17.6716 180.494 9.47163 160.194C5.47163 150.394 -1.72834 132.694 8.07166 114.094C12.8717 104.794 25.2717 99.2944 34.8717 95.0944Z" fill="#E6EBF0"/>
<path d="M34.8717 95.0944C88.6716 71.3944 61.2717 -9.50569 131.272 13.7943C201.172 37.0943 204.872 78.9943 207.372 110.894C209.772 142.794 196.772 216.994 111.472 211.094C45.2716 206.594 17.6716 180.494 9.47163 160.194C5.47163 150.394 -1.72834 132.694 8.07166 114.094C12.8717 104.794 25.2717 99.2944 34.8717 95.0944Z" fill="#E6EBF0"/>
<path d="M16.271 62.6943C24.871 48.3943 48.471 34.7943 62.871 33.4943C77.171 32.1943 62.571 49.4943 49.171 66.1943C37.271 81.1943 25.671 84.5943 17.671 83.7943C15.671 83.5943 13.871 82.2943 13.071 80.3943C11.771 77.1943 10.971 71.3943 16.271 62.6943Z" fill="#E6EBF0"/>
<path d="M34.8717 95.0944C88.6716 71.3944 61.2717 -9.50569 131.272 13.7943C201.172 37.0943 204.872 78.9943 207.372 110.894C209.772 142.794 196.772 216.994 111.472 211.094C45.2716 206.594 17.6716 180.494 9.47163 160.194C5.47163 150.394 -1.72834 132.694 8.07166 114.094C12.8717 104.794 25.2717 99.2944 34.8717 95.0944Z" fill="#E6EBF0"/>
<path d="M200.271 212.894H10.4707V211.494H200.271V212.894Z" fill="black"/>
<path fill-rule="evenodd" clip-rule="evenodd" d="M51.8703 146.994H34.0703V137.194H51.8703V146.994ZM35.0703 145.994H50.8703V138.294H35.0703V145.994Z" fill="#AAB6C2"/>
<path fill-rule="evenodd" clip-rule="evenodd" d="M39.6711 155.694H21.8711V145.994H39.6711V155.694ZM22.8711 154.694H38.6711V146.894H22.8711V154.694Z" fill="#AAB6C2"/>
<path fill-rule="evenodd" clip-rule="evenodd" d="M95.8703 63.0945H78.0703V53.2944H95.8703V63.0945ZM79.0703 62.0945H94.8703V54.2944H79.0703V62.0945Z" fill="#AAB6C2"/>
<path fill-rule="evenodd" clip-rule="evenodd" d="M127.171 170.895H109.371V161.095H127.171V170.895ZM110.371 169.895H126.171V162.195H110.371V169.895Z" fill="#AAB6C2"/>
<path fill-rule="evenodd" clip-rule="evenodd" d="M110.37 170.895H92.5703V161.095H110.37V170.895ZM93.5703 169.895H109.37V162.195H93.5703V169.895Z" fill="#AAB6C2"/>
<path fill-rule="evenodd" clip-rule="evenodd" d="M118.771 179.595H100.971V169.895H118.771V179.595ZM101.971 178.495H117.771V170.794H101.971V178.495Z" fill="#AAB6C2"/>
<path fill-rule="evenodd" clip-rule="evenodd" d="M112.671 107.595H94.8711V97.8945H112.671V107.595ZM95.8711 106.495H111.671V98.7945H95.8711V106.495Z" fill="#AAB6C2"/>
<path fill-rule="evenodd" clip-rule="evenodd" d="M124.87 116.395H107.07V106.595H124.87V116.395ZM108.07 115.395H123.87V107.695H108.07V115.395Z" fill="#AAB6C2"/>
<path fill-rule="evenodd" clip-rule="evenodd" d="M182.773 74.4944H164.973V64.7944H182.773V74.4944ZM165.973 73.3945H181.773V65.6945H165.973V73.3945Z" fill="#AAB6C2"/>
<path fill-rule="evenodd" clip-rule="evenodd" d="M165.972 74.4944H148.172V64.7944H165.972V74.4944ZM149.172 73.3945H164.972V65.6945H149.172V73.3945Z" fill="#AAB6C2"/>
<path fill-rule="evenodd" clip-rule="evenodd" d="M174.372 83.2946H156.572V73.4946H174.372V83.2946ZM157.572 82.2946H173.372V74.5947H157.572V82.2946Z" fill="#AAB6C2"/>
<path fill-rule="evenodd" clip-rule="evenodd" d="M188.772 126.095C187.772 128.095 186.472 129.794 184.972 131.294L186.972 135.495L180.672 139.294L177.872 135.495C175.872 136.195 173.772 136.595 171.472 136.495L169.972 140.895L162.772 139.195L163.572 134.495C161.572 133.595 159.772 132.295 158.272 130.695L154.072 132.794L150.272 126.395L154.072 123.695C153.372 121.595 153.072 119.494 153.072 117.294L148.672 115.794L150.472 108.595L155.072 109.294C156.072 107.294 157.372 105.595 158.972 104.095L156.872 99.8945L163.172 96.0945L165.972 99.7945C167.972 99.1945 170.172 98.7945 172.372 98.8945L173.872 94.3945L181.072 96.1945L180.372 100.794C182.272 101.794 184.072 103.095 185.572 104.695L189.772 102.595L193.572 108.895L189.772 111.695C190.472 113.695 190.772 115.895 190.772 118.095L195.172 119.595L193.372 126.794L188.772 126.095ZM184.872 120.895C186.672 113.795 182.272 106.494 175.172 104.794C167.972 102.994 160.772 107.395 158.972 114.495C157.272 121.695 161.572 128.895 168.772 130.695C175.872 132.395 183.172 128.095 184.872 120.895Z" fill="white"/>
<path fill-rule="evenodd" clip-rule="evenodd" d="M61.1734 53.4941C60.4734 54.8941 59.5734 56.0942 58.4734 57.0942L59.9734 60.0942L55.5734 62.6942L53.5734 60.0942C52.1734 60.5608 50.7067 60.7941 49.1734 60.7941L48.0734 63.8942L43.0734 62.5942L43.5734 59.3942C42.2734 58.6942 40.9734 57.7942 39.9734 56.6942L37.0734 58.1942L34.3734 53.7941L37.0734 51.7941C36.5734 50.3941 36.2734 48.8942 36.3734 47.3942L33.2734 46.2941L34.4734 41.2941L37.6734 41.7941C38.4067 40.4608 39.3067 39.2608 40.3734 38.1942L38.9734 35.2941L43.3734 32.5942L45.2734 35.1942C46.6734 34.7942 48.1734 34.4942 49.7734 34.5942L50.7734 31.4941L55.7734 32.6942L55.2734 35.8942C56.6734 36.6275 57.8734 37.5275 58.8734 38.5942L61.8734 37.1942L64.4734 41.5942L61.8734 43.4941C62.3401 44.8941 62.5734 46.3941 62.5734 47.9941L65.6734 48.9941L64.3734 53.9941L61.1734 53.4941ZM58.4734 49.8942C59.6734 44.8942 56.6734 39.8942 51.6734 38.6942C46.6734 37.3942 41.6734 40.4942 40.4734 45.3942C39.1734 50.3942 42.2734 55.4942 47.2734 56.6942C52.1734 57.8942 57.2734 54.8942 58.4734 49.8942Z" fill="#AAB6C2"/>
<path fill-rule="evenodd" clip-rule="evenodd" d="M89.7727 34.3945C89.4394 35.1945 88.9394 35.8945 88.2727 36.4945L89.0727 38.1945L86.5727 39.6945L85.4727 38.1945C84.6727 38.4612 83.8393 38.5945 82.9727 38.5945L82.3727 40.2945L79.5727 39.5945L79.8727 37.7945C79.0727 37.3945 78.3727 36.8945 77.7727 36.2945L76.0727 37.0945L74.5727 34.5945L76.0727 33.4945C75.806 32.6945 75.6727 31.8279 75.6727 30.8945L73.9727 30.2945L74.6727 27.4945L76.4727 27.7945C76.8727 26.9945 77.3727 26.2945 77.9727 25.6945L77.1727 24.0945L79.6727 22.5945L80.7727 24.0945C81.5727 23.7612 82.406 23.6279 83.2727 23.6945L83.8727 21.8945L86.7727 22.5945L86.4727 24.3945C87.2727 24.7945 87.9727 25.3278 88.5727 25.9945L90.1727 25.1945L91.6727 27.6945L90.1727 28.6945C90.4393 29.5612 90.5727 30.4278 90.5727 31.2945L92.3727 31.8945L91.6727 34.6945L89.7727 34.3945ZM88.1727 32.3945C88.8727 29.4945 87.1727 26.6945 84.3727 25.9945C81.4727 25.2945 78.6727 26.9945 77.9727 29.7945C77.2727 32.6945 78.9727 35.4945 81.7727 36.1945C84.6727 36.8945 87.4727 35.1945 88.1727 32.3945Z" fill="black"/>
<path d="M144.072 95.8947C145.772 96.3947 144.672 98.2947 143.572 98.2947C143.972 98.7947 143.072 99.6947 141.872 99.5947C142.372 99.7947 141.372 101.295 139.172 100.595C138.272 100.395 137.672 100.195 137.272 99.8947C132.772 104.595 120.172 112.095 115.972 110.695C111.072 108.995 109.772 108.795 106.572 106.695C106.272 106.495 105.972 106.195 105.672 105.995C105.272 105.595 104.872 105.228 104.472 104.895C103.939 104.295 103.439 103.728 102.972 103.195C102.906 103.128 102.839 103.061 102.772 102.995C100.872 100.595 99.9723 99.0947 99.6723 96.8947C99.2723 94.6947 99.3723 93.1947 99.3723 93.1947C99.3723 93.1947 95.0723 76.2947 99.0723 77.9947C103.072 79.6947 108.072 85.7947 111.872 91.8947C111.939 91.8947 111.972 91.8947 111.972 91.8947C112.172 92.228 112.372 92.5614 112.572 92.8947C112.706 93.0947 112.839 93.2947 112.972 93.4947C114.872 96.4947 116.272 98.8947 116.872 99.0947C117.772 99.5947 133.472 95.9947 135.972 95.6947C136.039 95.5614 136.072 95.4947 136.072 95.4947C136.139 95.428 136.206 95.3613 136.272 95.2947C136.406 95.0947 136.539 94.928 136.672 94.7947C137.072 93.9947 139.872 91.3947 139.972 91.2947C140.672 90.7947 141.472 90.8947 142.272 91.1947C143.172 91.3947 142.772 92.5947 141.972 92.5947C141.672 92.5947 141.372 92.5947 140.972 92.5947C140.972 92.8614 140.939 93.128 140.872 93.3947C142.572 93.2947 144.172 93.5947 145.672 94.1947C146.672 94.5947 145.172 95.8947 144.072 95.8947Z" fill="white"/>
<path fill-rule="evenodd" clip-rule="evenodd" d="M117.273 111.095C116.74 111.095 116.273 111.028 115.873 110.895C114.873 110.561 114.006 110.261 113.273 109.995C110.373 109.095 108.973 108.595 106.373 106.895C106.106 106.695 105.84 106.495 105.573 106.295V106.195C105.106 105.795 104.673 105.395 104.273 104.995C103.673 104.461 103.173 103.928 102.773 103.395C102.706 103.328 102.673 103.261 102.673 103.195L102.573 103.095C100.573 100.595 99.773 99.0946 99.373 96.9946C99.073 94.9946 99.073 93.4946 99.073 93.1946C98.673 91.6946 95.773 79.6946 97.873 77.8946C98.073 77.6946 98.473 77.4946 99.173 77.7946C102.773 79.2946 107.673 84.4946 112.173 91.6946C112.173 91.7613 112.173 91.7946 112.173 91.7946C112.306 91.9946 112.44 92.2279 112.573 92.4946L112.973 92.9946C113.04 93.1279 113.106 93.2613 113.173 93.3946C114.773 95.9946 116.373 98.6946 116.973 98.8946C117.573 99.1946 124.473 97.6946 128.973 96.7946C132.073 96.0946 134.773 95.5946 135.773 95.4946C135.84 95.4279 135.906 95.3612 135.973 95.2946C135.973 95.2279 136.006 95.1946 136.073 95.1946C136.073 95.1946 136.106 95.1613 136.173 95.0946C136.24 94.9613 136.34 94.8279 136.473 94.6946C136.873 93.7946 139.673 91.1946 139.773 91.0946C140.673 90.4946 141.573 90.6946 142.373 90.8946C142.873 91.0946 143.073 91.4946 142.973 91.9946C142.973 92.3946 142.573 92.8946 141.973 92.7946C141.706 92.7946 141.473 92.7946 141.273 92.7946C141.273 92.9279 141.24 93.028 141.173 93.0946C142.973 93.0946 144.673 93.5946 145.773 93.9946C146.273 94.1946 146.273 94.4946 146.273 94.6946C146.173 95.1946 145.473 95.6946 144.773 95.9946C145.173 96.2946 145.173 96.7946 145.173 96.9946C145.073 97.5946 144.573 98.2946 143.873 98.4946C143.94 98.6279 143.94 98.7946 143.873 98.9946C143.673 99.3946 142.973 99.7946 142.273 99.7946C142.273 99.8612 142.24 99.9279 142.173 99.9946C141.973 100.695 140.773 101.395 139.073 100.795C138.273 100.595 137.773 100.495 137.273 100.195C133.273 104.395 122.473 111.095 117.273 111.095ZM98.573 78.0946C98.373 78.0946 98.273 78.1946 98.173 78.2946C96.573 79.5946 98.673 89.4946 99.573 93.0946V93.1946C99.573 93.1946 99.473 94.7946 99.873 96.8946C100.273 98.8946 100.973 100.395 102.973 102.795L103.073 102.895C103.073 102.961 103.106 103.028 103.173 103.095C103.573 103.561 104.04 104.095 104.573 104.695C104.973 105.028 105.406 105.395 105.873 105.795L105.973 105.895C106.173 106.095 106.406 106.295 106.673 106.495C109.173 108.195 110.573 108.595 113.373 109.495C114.106 109.761 114.973 110.061 115.973 110.395C120.073 111.795 132.473 104.595 137.073 99.6946L137.173 99.5946L137.373 99.6946C137.773 99.9946 138.373 100.095 139.273 100.395C140.373 100.695 141.173 100.495 141.573 100.095C141.673 99.8946 141.773 99.7946 141.773 99.7946L140.173 99.0946L141.873 99.2946C142.673 99.3946 143.273 98.9946 143.373 98.6946C143.473 98.5946 143.373 98.4946 143.373 98.4946L142.973 98.0946H143.473C144.073 97.9946 144.673 97.4946 144.673 96.8946C144.74 96.5613 144.54 96.2946 144.073 96.0946L142.473 95.6946H144.073C144.773 95.5946 145.673 94.9946 145.773 94.5946C145.773 94.5946 145.773 94.4946 145.573 94.3946C144.473 93.9946 142.773 93.4946 140.973 93.5946H140.573L140.673 93.2946C140.74 93.0279 140.773 92.7946 140.773 92.5946V92.3946H140.973C141.273 92.2946 141.673 92.2946 141.973 92.2946C142.273 92.3946 142.473 92.0946 142.573 91.8946C142.573 91.7946 142.573 91.4946 142.273 91.3946C141.373 91.1946 140.773 91.0946 140.073 91.4946C139.873 91.5946 137.373 94.0946 136.873 94.7946V94.8946V94.9946C136.74 95.1279 136.64 95.2613 136.573 95.3946C136.506 95.4613 136.44 95.528 136.373 95.5946C136.373 95.5946 136.34 95.5946 136.273 95.5946C136.273 95.6613 136.24 95.7279 136.173 95.7946L136.073 95.8946H135.973C135.073 95.9946 132.273 96.5946 129.073 97.2946C120.973 98.9946 117.273 99.5946 116.673 99.3946C116.073 98.9946 114.773 96.9946 112.673 93.5946C112.606 93.528 112.54 93.4279 112.473 93.2946L112.173 92.7946C112.04 92.5279 111.906 92.2946 111.773 92.0946C111.706 92.028 111.673 91.9946 111.673 91.9946C108.273 86.4946 103.073 79.9946 98.973 78.1946C98.773 78.1279 98.6397 78.0946 98.573 78.0946Z" fill="black"/>
<path d="M103.874 105.695C102.674 104.395 100.874 102.995 99.1738 101.495C98.5072 100.961 97.9072 100.428 97.3738 99.8946C96.6738 99.1946 96.0738 98.3946 95.6738 97.7946C95.4738 97.4612 95.3405 97.1279 95.2739 96.7946C95.1739 96.1946 95.1738 94.1946 95.1738 91.6946C95.1738 85.0946 96.3738 76.1946 99.3738 77.1946C104.474 78.7946 109.374 85.6946 113.474 91.1946C113.574 96.6946 110.674 102.595 103.874 105.695Z" fill="white"/>
<path fill-rule="evenodd" clip-rule="evenodd" d="M103.873 105.995L103.773 105.895C102.873 104.995 101.673 103.995 100.373 102.895C99.9064 102.495 99.4397 102.095 98.973 101.695C98.3064 101.095 97.7397 100.561 97.2731 100.095C96.4064 99.2279 95.8064 98.4945 95.473 97.8945C95.273 97.5612 95.1397 97.2279 95.0731 96.8945C94.9731 96.1945 94.873 94.0945 94.873 91.6945C94.973 85.9945 95.773 78.6945 97.973 77.1945C98.4397 76.8612 98.9397 76.7612 99.473 76.8945C104.173 78.3945 108.573 84.2945 112.473 89.4945C112.873 90.0279 113.273 90.5279 113.673 90.9945L113.773 91.0946V91.1945C113.873 97.5945 110.173 103.095 104.073 105.995H103.873ZM98.873 77.2945C98.673 77.2945 98.4397 77.3612 98.173 77.4945C96.373 78.8945 95.473 85.5946 95.373 91.5946C95.373 94.3946 95.473 96.1945 95.473 96.6945C95.5397 96.9612 95.673 97.2612 95.873 97.5946C96.2064 98.1279 96.7731 98.7946 97.5731 99.5946C98.0397 100.128 98.6064 100.695 99.2731 101.295C99.7397 101.628 100.206 101.995 100.673 102.395C101.873 103.395 103.073 104.395 103.973 105.395C109.773 102.595 113.273 97.2945 113.173 91.1945C112.84 90.7279 112.473 90.2279 112.073 89.6945C108.173 84.5945 103.873 78.7945 99.2731 77.2945C99.1397 77.2945 99.0064 77.2945 98.873 77.2945Z" fill="black"/>
<path d="M100.774 80.6943C100.774 80.6943 102.974 88.3943 101.574 92.9943C101.074 94.6943 99.6739 96.8943 98.2739 100.694C97.4739 99.8943 96.0738 98.3943 95.6738 97.7943L99.6738 89.8943L100.774 80.6943Z" fill="black"/>
<path d="M91.6732 205.394C91.3732 206.394 88.5732 209.794 85.3732 205.794C84.8732 205.194 86.4732 200.094 86.8732 199.094C86.9732 198.794 92.3732 199.394 92.6732 200.194C93.0732 200.894 91.9732 204.594 91.6732 205.394Z" fill="white"/>
<path fill-rule="evenodd" clip-rule="evenodd" d="M88.5729 207.994C87.6729 207.994 86.4728 207.494 85.1728 205.994C84.5728 205.194 86.5729 199.094 86.5729 198.994C86.6729 198.794 86.9729 198.794 87.2729 198.794C88.1729 198.794 92.4728 199.194 92.8728 200.094C93.3728 200.994 91.9728 205.494 91.9728 205.494C91.7728 206.194 90.6729 207.594 89.0729 207.894C88.9395 207.961 88.7729 207.994 88.5729 207.994ZM87.0729 199.294C86.4729 200.794 85.2729 205.194 85.5729 205.694C86.7062 207.028 87.8395 207.594 88.9728 207.394C90.3728 207.194 91.2728 205.894 91.4728 205.394C91.9728 203.894 92.6728 200.794 92.4728 200.294C92.1728 199.794 87.8729 199.094 87.0729 199.294Z" fill="black"/>
<path d="M91.4728 205.795C91.4728 205.795 94.8728 205.595 98.1728 205.895C101.573 206.195 101.673 211.295 101.673 211.295C97.7728 212.095 84.7728 211.795 84.7728 211.795C82.8728 208.895 85.2728 204.995 85.2728 204.995C87.7728 207.795 91.4728 205.795 91.4728 205.795Z" fill="black"/>
<path d="M99.9731 126.695C99.9731 126.695 114.473 147.495 112.673 166.595C111.673 177.895 101.873 202.195 93.4731 203.695C93.4731 203.695 90.4731 203.395 87.9731 202.495C86.4731 201.895 85.1731 200.995 84.9731 199.895C81.4731 193.595 95.5732 174.095 97.5732 166.195C98.1732 164.195 95.2732 160.795 91.5732 156.795C85.4732 150.095 76.8731 141.495 77.4731 133.795C78.4731 120.495 98.5731 119.495 99.9731 126.695Z" fill="black"/>
<path d="M64.6728 203.394C64.0728 204.094 60.1728 199.794 60.0728 199.094C59.8728 198.394 62.1728 195.294 62.8728 194.594C63.0728 194.394 67.8728 196.894 67.9728 197.694C67.9728 198.394 65.2728 202.694 64.6728 203.394Z" fill="white"/>
<path fill-rule="evenodd" clip-rule="evenodd" d="M64.4726 203.694C64.406 203.694 64.3393 203.694 64.2727 203.694C63.0727 203.394 59.9727 199.794 59.7727 199.094C59.5727 198.194 62.1726 194.894 62.6726 194.394C62.7726 194.294 63.0727 194.294 63.2727 194.394C64.1727 194.694 68.0726 196.694 68.1726 197.594C68.2726 198.594 65.2726 203.094 64.8726 203.494C64.8726 203.594 64.6726 203.694 64.4726 203.694ZM62.9726 194.794C61.9726 195.894 60.1727 198.494 60.2727 198.994C60.3727 199.494 62.8727 202.294 64.0727 203.094C64.3727 203.194 64.4726 203.194 64.4726 203.194C65.1726 202.394 67.7726 198.294 67.6726 197.694C67.5726 197.094 63.7726 194.994 62.9726 194.794Z" fill="black"/>
<path d="M84.473 123.894C84.573 135.194 93.273 135.894 97.873 150.294C99.173 154.294 102.173 162.594 101.673 168.594C101.273 174.194 97.1731 182.294 94.7731 189.294C93.5731 192.794 92.073 196.294 90.173 199.394C89.473 200.394 88.773 201.494 87.973 202.494C86.473 201.894 85.173 200.994 84.973 199.894C80.973 193.894 95.5731 174.094 97.5731 166.194C98.1731 164.194 91.373 156.294 87.673 152.294C87.273 149.094 83.0731 146.394 82.2731 143.294C81.3731 139.194 84.573 123.594 84.473 123.894Z" fill="black"/>
<path d="M63.2733 123.395C69.6733 117.495 83.0733 120.095 83.3733 125.695C83.3733 125.695 96.4733 147.795 89.7733 164.395C85.3733 175.195 76.7733 203.094 66.9733 200.794C66.9733 200.794 63.3733 198.695 61.7733 196.395C61.5067 196.061 61.3066 195.728 61.1733 195.395C65.1733 192.195 69.9733 162.395 73.0733 155.395C75.0733 150.595 57.6733 139.994 60.2733 128.794C60.7733 126.494 61.8733 124.695 63.2733 123.395Z" fill="black"/>
<path d="M63.2733 123.395C64.2733 123.595 65.2733 124.195 66.0733 124.995C66.5733 125.395 66.0733 126.095 65.5733 125.995C62.6733 133.795 68.1733 140.994 72.8733 146.794C76.2733 150.894 77.4733 156.395 76.7733 162.095C76.2733 165.495 75.1733 168.795 74.3733 172.095C73.4733 175.295 72.6733 178.594 71.6733 181.794C69.6733 187.594 66.3733 192.495 61.7733 196.395C61.5067 196.061 61.3066 195.728 61.1733 195.395C57.0733 189.195 69.9733 162.395 73.0733 155.395C75.0733 150.595 57.6733 139.994 60.2733 128.794C60.7733 126.494 61.8733 124.695 63.2733 123.395Z" fill="black"/>
<path d="M62.5742 98.3945C64.4742 91.0945 66.9742 83.9945 69.1742 79.6945C69.9742 78.1945 70.5742 76.9945 71.1742 76.2945C71.3742 76.0278 71.5742 75.8279 71.7742 75.6945C72.5742 74.9945 73.6742 74.4945 75.1742 74.1945C83.3742 72.0945 96.5742 74.5946 102.074 78.5946C103.574 82.7946 100.474 90.2946 97.7742 97.0946C96.5742 100.295 95.4742 103.095 95.0742 104.995C93.7742 110.995 99.6742 119.995 99.1742 124.395C98.4742 125.495 87.1742 131.495 78.3742 132.595C74.2742 133.095 70.4742 132.995 67.2742 132.495C61.4742 131.695 57.5742 129.895 57.3742 128.795C57.1742 127.295 60.3742 107.095 62.5742 98.3945Z" fill="white"/>
<path fill-rule="evenodd" clip-rule="evenodd" d="M72.9734 133.195C71.0401 133.195 69.1067 133.061 67.1734 132.795C61.8734 131.995 57.3734 130.295 57.1734 128.895C56.8734 127.195 60.1734 106.895 62.3734 98.2945C64.0734 91.2945 66.6734 84.0946 68.9734 79.4946C69.7734 77.9612 70.4734 76.8279 71.0734 76.0946C71.2068 75.8946 71.3734 75.6946 71.5734 75.4946C72.3734 74.8279 73.5401 74.2946 75.0734 73.8946C83.6734 71.6946 96.9734 74.5946 102.173 78.3946L102.273 78.4946C103.773 82.4946 101.073 89.2946 98.5734 95.8946L97.6734 98.0946C96.5734 100.995 95.6734 103.395 95.2734 105.095C94.5734 108.395 96.1734 112.695 97.4734 116.595C98.5734 119.595 99.5734 122.495 99.3734 124.495V124.595C98.5734 125.695 87.2734 131.695 78.4734 132.795C76.6734 133.061 74.8401 133.195 72.9734 133.195ZM57.6734 128.795C57.7734 129.595 61.1734 131.395 67.2734 132.295C70.8734 132.795 74.6734 132.795 78.3734 132.295C87.1734 131.195 98.0734 125.295 98.8734 124.295C99.0734 122.495 98.0734 119.695 97.0734 116.695C95.6734 112.795 94.0734 108.395 94.7734 104.995C95.1734 103.295 96.0734 100.795 97.1734 97.9946L98.0734 95.6946C100.573 89.2946 103.173 82.5945 101.873 78.7945C96.6734 74.9945 83.6734 72.1946 75.1734 74.3946C73.7734 74.6946 72.6734 75.2946 71.8734 75.8946C71.7401 76.0279 71.5734 76.1946 71.3734 76.3946C70.8401 77.1279 70.1734 78.2612 69.3734 79.7945C67.0734 84.2945 64.5734 91.4946 62.7734 98.3946C60.4734 107.395 57.4734 127.395 57.6734 128.795Z" fill="black"/>
<path d="M62.5722 98.3944C64.4722 91.0944 66.9722 83.9944 69.1722 79.6944C70.7722 79.4944 72.3722 79.9944 73.2722 81.2944C74.3722 82.7944 74.0722 84.4944 72.7722 85.4944C72.7722 85.5944 77.2722 86.9945 77.2722 87.0945C73.8722 94.4945 68.6722 101.394 68.2722 109.394C67.8722 117.094 67.5722 124.794 67.2722 132.494C61.4722 131.694 57.5722 129.894 57.3722 128.794C57.1722 127.294 60.3722 107.094 62.5722 98.3944Z" fill="black"/>
<path d="M65.5727 202.995C65.5727 202.995 67.1727 204.094 69.1727 205.794C69.9727 206.394 69.7727 206.595 70.8727 206.595C74.6727 206.695 73.8727 211.095 73.8727 211.095C72.3727 211.495 67.2727 212.495 64.9727 210.695C60.3727 207.295 55.4727 203.294 55.4727 203.294C55.7727 199.494 60.4727 197.895 60.4727 197.895C60.8727 201.995 65.5727 202.995 65.5727 202.995Z" fill="black"/>
<path d="M64.7726 122.195C63.5726 121.995 63.0725 120.095 62.9725 119.095C62.7725 117.795 63.2725 116.595 64.4725 115.995C65.4725 115.595 67.1726 115.595 68.0726 116.295C68.0726 116.362 68.1059 116.428 68.1726 116.495C68.3726 116.495 68.6726 116.595 68.7726 116.795C69.0726 117.695 70.7726 120.195 69.1726 120.695C69.0392 120.762 68.9392 120.795 68.8726 120.795C68.7726 121.195 68.5726 121.495 68.2726 121.695C67.8726 121.895 67.4726 121.795 67.1726 121.495C67.1059 121.562 67.0392 121.595 66.9725 121.595C66.5725 121.995 66.0726 121.895 65.6726 121.595C65.4726 121.995 65.2726 122.195 64.7726 122.195Z" fill="white"/>
<path fill-rule="evenodd" clip-rule="evenodd" d="M64.8732 122.395C64.8065 122.395 64.7399 122.395 64.6732 122.395C63.4732 122.295 62.9732 120.595 62.7732 119.195C62.4732 117.595 63.0732 116.395 64.3732 115.795C65.4732 115.295 67.2732 115.295 68.1732 116.095C68.2399 116.161 68.2732 116.195 68.2732 116.195C68.6066 116.261 68.8398 116.428 68.9732 116.695C69.0398 116.828 69.1399 117.028 69.2732 117.295C69.6732 118.095 70.3732 119.495 69.9732 120.295C69.9065 120.628 69.6732 120.861 69.2732 120.995C69.2066 120.995 69.1399 120.995 69.0732 120.995C68.9399 121.461 68.7065 121.761 68.3732 121.895C68.0732 122.095 67.6732 122.095 67.1732 121.795C66.8732 122.095 66.3732 122.195 65.7732 121.995C65.5732 122.261 65.2732 122.395 64.8732 122.395ZM66.1732 115.995C65.5732 115.995 65.0732 116.095 64.5732 116.295C63.5732 116.695 62.9732 117.795 63.1732 119.095C63.3732 119.895 63.7732 121.795 64.7732 121.895C65.1066 121.961 65.3065 121.861 65.3732 121.595L65.4732 121.295L65.7732 121.395C66.1732 121.661 66.5399 121.661 66.8732 121.395C66.9399 121.395 66.9732 121.361 66.9732 121.295L67.1732 121.195L67.2732 121.295C67.5732 121.595 67.8732 121.595 68.0732 121.495C68.3399 121.361 68.5065 121.095 68.5732 120.695L68.6732 120.495H68.8732C68.9732 120.495 69.0732 120.495 69.0732 120.495C69.3399 120.428 69.5065 120.295 69.5732 120.095C69.7732 119.495 69.1732 118.195 68.7732 117.495C68.7066 117.295 68.6399 117.095 68.5732 116.895C68.4399 116.761 68.3065 116.695 68.1732 116.695H68.0732L67.9732 116.595L67.8732 116.495C67.4732 116.095 66.7732 115.995 66.1732 115.995Z" fill="black"/>
<path d="M70.2717 119.495C70.1717 118.995 70.0716 118.395 69.6716 117.995C69.3716 117.695 68.9716 117.795 68.5716 117.795C67.5716 117.595 67.3716 116.595 67.5716 115.795C67.6716 115.095 67.5716 114.495 67.8716 114.995C68.7716 115.295 70.5716 116.095 71.1716 116.895C71.7716 117.695 71.7716 118.695 71.5716 119.595C71.3716 120.295 70.3717 120.195 70.2717 119.495Z" fill="white"/>
<path fill-rule="evenodd" clip-rule="evenodd" d="M70.9722 120.295C70.9056 120.295 70.8723 120.295 70.8723 120.295C70.3723 120.295 70.0722 119.995 69.9722 119.595C69.9722 119.095 69.8723 118.495 69.5723 118.195C69.3723 118.095 69.1723 118.095 68.8723 118.095C68.7389 118.028 68.6056 117.995 68.4722 117.995C67.5722 117.795 67.0723 116.895 67.2723 115.795C67.2723 115.595 67.3056 115.428 67.3723 115.295C67.3723 114.895 67.3723 114.595 67.6723 114.595C67.8723 114.495 67.9723 114.695 68.0723 114.795C68.9723 115.095 70.7723 115.895 71.3723 116.695C71.9723 117.495 72.1056 118.495 71.7723 119.695C71.7723 120.095 71.3722 120.295 70.9722 120.295ZM67.8723 115.195C67.8723 115.261 67.8723 115.328 67.8723 115.395C67.8056 115.528 67.7723 115.661 67.7723 115.795C67.6723 116.195 67.6723 117.295 68.5723 117.495C68.7056 117.561 68.8389 117.595 68.9722 117.595C69.2722 117.595 69.5723 117.595 69.8723 117.895C70.3723 118.295 70.4722 118.995 70.4722 119.495C70.5722 119.695 70.7723 119.795 70.8723 119.795C71.0723 119.795 71.2723 119.795 71.3723 119.595C71.5723 118.528 71.4389 117.661 70.9722 116.995C70.4722 116.295 68.6723 115.495 67.8723 115.195Z" fill="black"/>
<path d="M175.673 0.794434C181.873 0.794434 186.973 5.79448 186.973 12.0945C186.973 18.3945 181.873 23.4944 175.673 23.4944C169.373 23.4944 164.273 18.3945 164.273 12.0945C164.273 5.79448 169.373 0.794434 175.673 0.794434Z" fill="#AAB6C2"/>
<path d="M175.674 5.99463C178.974 5.99463 181.774 8.69467 181.774 12.0947C181.774 15.4947 178.974 18.1946 175.674 18.1946C172.274 18.1946 169.574 15.4947 169.574 12.0947C169.574 8.69467 172.274 5.99463 175.674 5.99463Z" fill="white"/>
<path fill-rule="evenodd" clip-rule="evenodd" d="M175.673 18.4944C172.173 18.4944 169.273 15.5945 169.273 12.0945C169.273 8.59448 172.173 5.79443 175.673 5.79443C179.173 5.79443 181.973 8.59448 181.973 12.0945C181.973 15.5945 179.173 18.4944 175.673 18.4944ZM175.673 6.29443C172.373 6.29443 169.773 8.89448 169.773 12.0945C169.773 15.2945 172.373 17.9944 175.673 17.9944C178.873 17.9944 181.473 15.2945 181.473 12.0945C181.473 8.89448 178.873 6.29443 175.673 6.29443Z" fill="black"/>
<path d="M57.0726 120.994C57.1726 121.894 55.6726 121.894 55.3726 121.294C54.8726 120.994 54.2726 122.094 54.0726 122.094C53.5726 122.094 52.7726 121.594 52.2726 121.094C51.9726 121.194 51.0726 121.294 49.8726 121.394C45.8726 121.694 41.0726 121.094 35.5726 118.494C30.2726 115.894 29.6726 113.494 27.9726 105.294C27.9726 105.294 27.9726 105.261 27.9726 105.194C26.5726 98.7942 35.6726 100.694 35.7726 101.794C35.8393 102.261 35.9393 102.761 36.0726 103.294C36.8726 106.094 38.1726 109.894 38.5726 110.194C39.0726 110.494 42.2726 113.194 43.1726 113.694C44.7726 114.594 44.6726 114.894 46.9726 115.694C50.1726 116.794 53.2726 117.694 54.0726 117.994C54.0726 117.994 54.1059 117.961 54.1726 117.894C54.6726 117.794 55.9726 117.494 56.4726 117.694C56.7726 117.794 57.0726 118.194 56.6726 118.394C56.3726 118.594 56.0726 118.594 55.7726 118.494C56.4726 118.994 56.8726 119.694 57.0726 120.994Z" fill="white"/>
<path fill-rule="evenodd" clip-rule="evenodd" d="M54.0719 122.294C53.4719 122.294 52.6719 121.894 52.1719 121.394C51.7719 121.394 50.9719 121.594 49.8719 121.694C45.2719 121.994 40.3719 120.994 35.4719 118.694C29.9719 115.994 29.3719 113.294 27.7719 105.394L27.6719 105.294C27.3385 103.561 27.6719 102.261 28.6719 101.394C30.2719 99.994 33.3719 100.294 34.9719 100.894C35.6385 101.161 35.9719 101.461 35.9719 101.794C36.0385 102.194 36.1719 102.661 36.3719 103.194C37.1719 106.394 38.3719 109.694 38.7719 109.994C38.9719 110.094 39.3719 110.494 40.0719 110.994C41.1719 111.894 42.6719 113.194 43.2719 113.494C43.7719 113.794 44.0719 113.994 44.4719 114.194C45.0719 114.594 45.4719 114.894 47.0719 115.394C49.0719 116.094 51.0719 116.794 52.4719 117.194C53.1719 117.394 53.7719 117.594 54.0719 117.694C55.3719 117.394 56.1719 117.294 56.5719 117.494C56.7719 117.594 57.0719 117.794 57.0719 118.094C57.0719 118.194 57.0719 118.494 56.7719 118.594C56.6386 118.661 56.5385 118.727 56.4719 118.794C56.8719 119.294 57.1719 119.994 57.2719 120.994C57.3719 121.394 57.0719 121.794 56.6719 121.894C56.1719 122.094 55.4719 121.894 55.1719 121.494C55.0719 121.394 54.7719 121.794 54.5719 121.994C54.3719 122.194 54.2719 122.294 54.0719 122.294ZM52.3719 120.794L52.4719 120.894C52.8719 121.394 53.6719 121.794 54.0719 121.794C54.0719 121.794 54.1719 121.694 54.2719 121.594C54.4719 121.294 54.9719 120.694 55.4719 121.094H55.5719C55.6719 121.394 56.1719 121.494 56.5719 121.394C56.7719 121.294 56.7719 121.094 56.7719 120.994C56.6719 119.894 56.3719 119.194 55.6719 118.694L55.0719 118.294H55.7719C56.1052 118.294 56.3385 118.261 56.4719 118.194C56.5385 118.194 56.5719 118.161 56.5719 118.094C56.5719 118.094 56.4719 117.994 56.3719 117.894C56.1719 117.794 55.5719 117.794 54.1719 118.194H53.9719C53.6719 118.094 53.0719 117.894 52.2719 117.694C50.9719 117.194 48.9719 116.594 46.8719 115.894C45.2719 115.294 44.7719 114.994 44.1719 114.594C43.8719 114.394 43.5719 114.194 42.9719 113.894C42.3719 113.594 40.8719 112.294 39.6719 111.394C39.1719 110.894 38.6719 110.494 38.4719 110.394C37.8719 109.994 36.4719 105.394 35.8719 103.394C35.6719 102.794 35.5719 102.294 35.5719 101.894C35.4719 101.794 35.2719 101.594 34.4719 101.294C33.0719 100.794 30.3719 100.594 28.8719 101.794C28.0719 102.527 27.8385 103.661 28.1719 105.194V105.294C29.8719 113.294 30.3719 115.694 35.6719 118.194C40.5719 120.494 45.2719 121.494 49.8719 121.194C51.0719 121.094 51.9719 120.894 52.2719 120.894L52.3719 120.794Z" fill="black"/>
<path d="M26.8722 106.294C25.6722 100.294 24.1721 91.994 26.9721 88.994C28.6721 87.194 31.7722 90.394 33.0722 91.894C35.9722 95.294 36.9722 102.394 37.0722 103.494C33.8722 106.694 30.5722 107.294 26.8722 106.294Z" fill="black"/>
<path d="M17.0734 202.494C17.3734 196.194 17.8734 185.494 17.6734 182.494C17.4734 177.394 18.3734 173.694 19.1734 170.794C19.3734 170.061 19.5401 169.394 19.6734 168.794C19.7734 168.394 14.7734 162.494 14.7734 162.494L24.1734 154.994C24.1734 154.994 35.3734 165.294 33.2734 173.994C33.2734 173.994 24.5734 194.994 23.4734 198.994C22.3734 203.094 21.1734 208.894 21.1734 208.894L16.6734 208.394C16.6734 208.394 16.8734 205.894 17.0734 202.494Z" fill="white"/>
<path fill-rule="evenodd" clip-rule="evenodd" d="M21.3727 209.194L16.4727 208.594V208.394C16.4727 208.394 16.5727 205.894 16.7727 202.494C17.1727 195.994 17.5727 185.494 17.4727 182.494C17.1727 177.494 18.0727 173.794 18.9727 170.694C19.106 170.028 19.2727 169.394 19.4727 168.794C19.2727 168.294 16.7727 165.294 14.5727 162.694L14.4727 162.494L24.1727 154.694L24.3727 154.794C24.8727 155.294 35.6727 165.294 33.5727 174.094C33.4727 174.294 24.7727 195.094 23.6727 199.094C22.5727 203.094 21.4727 208.894 21.3727 208.994V209.194ZM16.9727 208.094L21.0727 208.594C21.2727 207.494 22.2727 202.494 23.2727 198.894C24.3727 194.894 32.7727 174.694 33.0727 173.894C34.9727 165.994 25.5727 156.594 24.2727 155.294L15.1727 162.594C20.1727 168.294 20.0727 168.694 19.9727 168.794C19.8393 169.394 19.6727 170.061 19.4727 170.794C18.6727 173.794 17.7727 177.494 17.9727 182.494C18.0727 185.394 17.6727 195.894 17.3727 202.494C17.1727 205.294 17.0727 207.394 16.9727 208.094Z" fill="black"/>
<path d="M49.0727 149.294C49.0727 149.294 57.3727 161.694 54.2727 175.594C54.2727 175.594 46.6727 197.994 45.7727 202.094C44.8727 206.194 44.1727 210.294 44.1727 210.294L39.4727 210.794C39.4727 210.794 39.9727 208.294 40.1727 204.594C40.1727 204.461 40.206 204.294 40.2727 204.094C41.0727 185.094 40.8727 175.494 41.3727 172.794C41.3727 172.727 41.3727 172.661 41.3727 172.594C41.506 172.194 41.5727 171.794 41.5727 171.394C41.7727 168.294 44.5727 155.894 44.5727 155.894L49.0727 149.294Z" fill="white"/>
<path fill-rule="evenodd" clip-rule="evenodd" d="M39.1719 211.094L39.2719 210.694C39.2719 210.694 39.7719 208.194 39.9719 204.594C39.9719 204.461 39.9719 204.294 39.9719 204.094C40.4719 194.394 40.5719 187.194 40.6719 181.994C40.7719 177.094 40.8719 174.094 41.0719 172.794C41.0719 172.661 41.1052 172.594 41.1719 172.594C41.2385 172.127 41.3052 171.727 41.3719 171.394C41.5719 168.294 44.2719 156.394 44.3719 155.894V155.794L49.0719 148.794L49.2719 149.194C49.3719 149.294 57.6719 161.794 54.4719 175.594C54.3719 175.894 46.8719 198.094 46.0719 202.194C45.1719 206.194 44.3719 210.294 44.3719 210.294V210.494L39.1719 211.094ZM44.8719 156.094C44.6719 156.894 42.0719 168.494 41.8719 171.394C41.8052 171.794 41.7385 172.227 41.6719 172.694C41.6719 172.761 41.6386 172.794 41.5719 172.794C41.3719 174.194 41.2719 177.094 41.1719 181.994C41.0719 187.294 40.9719 194.394 40.4719 204.094C40.4719 204.294 40.4719 204.494 40.4719 204.694C40.2719 207.494 39.9719 209.694 39.7719 210.494L43.9719 210.094C44.1719 209.194 44.7719 205.694 45.5719 202.094C46.4719 197.994 53.7719 176.394 54.0719 175.494C56.8719 163.094 50.3719 151.794 49.0719 149.794L44.8719 156.094Z" fill="black"/>
<path d="M44.6716 206.394C44.6716 206.394 49.2716 207.494 52.4716 208.094C55.7716 208.694 53.1716 211.894 53.1716 211.894C49.3716 212.294 39.2716 211.594 39.2716 211.594C37.7716 208.794 40.0716 205.694 40.0716 205.694C42.2716 208.294 44.6716 206.394 44.6716 206.394Z" fill="black"/>
<path d="M21.871 206.594C21.871 206.594 26.471 207.694 29.671 208.294C32.871 208.794 30.371 212.094 30.371 212.094C26.571 212.394 16.4709 211.794 16.4709 211.794C14.8709 209.094 16.771 206.194 16.771 206.194C18.971 208.894 21.871 206.594 21.871 206.594Z" fill="black"/>
<path d="M59.072 160.494C55.672 165.994 51.572 167.494 46.272 168.294C44.672 168.594 42.972 168.794 41.172 168.994C40.972 168.994 37.272 170.194 37.272 170.194C32.972 173.194 28.072 174.994 23.372 174.094C21.072 173.694 18.772 172.594 16.672 170.694C13.272 161.494 9.27203 153.794 6.77203 146.194C5.37203 141.594 4.47202 136.994 4.57202 132.194C4.57202 131.994 4.57202 131.794 4.57202 131.594C4.67202 129.594 4.87203 127.394 5.27203 124.894C5.47203 124.094 6.27198 123.594 7.47198 123.294C10.172 122.594 15.072 123.094 20.072 125.394C23.472 119.694 28.572 113.694 32.672 117.694C39.572 124.394 54.972 150.094 59.072 160.494Z" fill="black"/>
<path d="M3.67137 84.5943C4.87137 84.8943 7.5714 85.9943 9.0714 83.7943C9.6714 82.9943 14.6714 72.2943 22.5714 74.9943C22.8714 75.0943 18.7714 78.7943 19.0714 82.5943C19.5714 87.8943 15.4714 89.7943 12.9714 91.0943C8.87136 93.1943 3.07141 89.2943 2.77141 84.9943C2.67141 84.4943 3.37137 84.2943 3.67137 84.5943Z" fill="black"/>
<path d="M11.8719 106.294C11.8719 106.094 11.9052 105.894 11.9719 105.694C11.9719 105.494 11.9719 105.328 11.9719 105.194C11.9719 104.394 11.9386 103.594 11.8719 102.794C11.3719 93.6942 8.47189 82.1943 26.8719 85.8943C26.8719 85.8943 38.5719 92.3942 37.4719 98.1942C36.8719 101.594 34.4719 103.094 33.0719 105.094C31.9719 106.594 31.4719 108.394 32.4719 111.294C32.6719 111.894 32.8719 112.494 33.0719 113.094C35.3719 119.494 40.1719 121.694 40.1719 121.694C40.1719 121.694 20.3719 129.694 7.67188 125.294C5.47187 124.494 3.47187 123.494 1.67188 122.094C1.67188 122.094 11.0719 114.994 11.8719 106.294Z" fill="#7977C6"/>
<path d="M11.8719 106.294C11.8719 106.094 11.9052 105.894 11.9719 105.694C12.7719 104.694 13.6386 103.727 14.5719 102.794C15.0719 102.294 15.9719 102.994 15.4719 103.594C15.4052 103.661 15.3052 103.727 15.1719 103.794C13.8719 106.594 14.1719 109.694 13.5719 112.694C13.0719 115.294 11.7719 117.594 10.4719 119.994C9.77186 121.194 8.87187 123.894 7.67188 125.294C5.47187 124.494 3.47187 123.494 1.67188 122.094C1.67188 122.094 11.0719 114.994 11.8719 106.294Z" fill="black"/>
<path d="M16.8727 103.794C15.7727 105.294 13.5727 108.094 11.8727 108.994C11.8727 108.594 11.9727 105.494 11.9727 105.094C11.9727 104.394 11.4727 95.8943 11.4727 94.9943C12.0727 94.1943 18.8727 88.6943 18.8727 88.6943C20.8727 92.7943 18.4727 101.594 16.8727 103.794Z" fill="black"/>
<path d="M29.0723 83.5942L28.6722 86.8942C28.6722 86.8942 29.3723 88.5942 28.3723 88.6942C26.4723 88.7942 24.0723 85.3942 24.0723 85.3942L24.6722 80.9941L29.0723 83.5942Z" fill="white"/>
<path fill-rule="evenodd" clip-rule="evenodd" d="M28.2715 88.9942C26.2715 88.9942 23.9715 85.6942 23.8715 85.5942L23.7715 85.4942L24.4714 80.5942L29.3715 83.4942L28.9714 86.8942C29.0714 87.1942 29.3714 88.0942 28.9714 88.5942C28.8381 88.7942 28.6714 88.9275 28.4714 88.9942C28.4048 88.9942 28.3382 88.9942 28.2715 88.9942ZM24.2715 85.2942C24.6715 85.7942 26.6715 88.4942 28.2715 88.4942C28.3382 88.4942 28.3715 88.4942 28.3715 88.4942C28.4715 88.3942 28.5715 88.3942 28.5715 88.3942C28.7715 88.0942 28.5714 87.3942 28.4714 86.9942L28.3715 86.8942L28.8715 83.7942L24.8715 81.3942L24.2715 85.2942Z" fill="black"/>
<path d="M31.5723 74.194C31.5723 74.194 32.8723 77.9939 32.8723 81.2939C32.8723 83.6939 28.0723 86.194 25.0723 82.394C22.0723 78.694 23.6723 73.7939 23.6723 73.7939L31.5723 74.194Z" fill="white"/>
<path fill-rule="evenodd" clip-rule="evenodd" d="M28.8719 84.5942C27.3719 84.5942 25.9719 83.8942 24.8719 82.5942C21.7719 78.7942 23.3718 73.8942 23.4718 73.6942L23.5719 73.4941L31.7719 73.9941L31.8719 74.0942C31.8719 74.2942 33.0719 77.9941 33.0719 81.2941C33.0719 82.5941 31.9718 83.7942 30.4718 84.3942C29.9385 84.5275 29.4052 84.5942 28.8719 84.5942ZM23.8719 73.9941C23.6719 74.8941 22.6719 79.0941 25.2719 82.2941C26.5719 83.8941 28.4719 84.4942 30.2719 83.8942C31.5719 83.3942 32.5719 82.2941 32.5719 81.2941C32.5719 78.3941 31.6719 75.1942 31.3719 74.3942L23.8719 73.9941Z" fill="black"/>
<path d="M33.4728 76.3942C32.8728 77.0942 31.7728 76.8942 31.0728 76.3942C30.6061 76.1275 30.2061 75.7608 29.8728 75.2941C29.6728 74.9941 29.4728 74.5941 29.2728 74.2941C28.1728 74.1941 27.1728 74.6942 26.3728 75.4942C26.2728 75.8942 26.1728 76.3942 26.1728 76.8942C26.0728 78.2942 26.0728 79.5941 25.1728 80.7941C24.0728 82.3941 22.5728 81.1942 21.9728 79.6942C21.0728 77.8942 21.1728 75.2942 22.0728 73.4942C22.8728 71.6942 26.2728 70.8941 26.6728 70.7941C27.9728 70.6941 29.5728 70.9942 30.8728 71.6942C31.2728 71.8942 31.5728 72.1942 31.8728 72.6942C32.2728 73.1942 31.9728 73.2942 32.5728 73.8942C32.7728 74.0942 33.0728 74.0941 33.2728 74.2941C33.9728 74.7941 34.0728 75.6942 33.4728 76.3942Z" fill="black"/>
<path d="M25.7715 79.2941C25.1715 79.3941 24.2714 78.5941 24.6714 77.5941C25.1714 76.4941 26.4714 77.2941 26.4714 77.2941C26.7714 77.7941 26.3715 79.1941 25.7715 79.2941Z" fill="white"/>
<path d="M27.1722 127.395C26.1722 127.495 25.6722 126.095 25.3722 125.395C25.0722 124.495 25.2722 123.495 26.1722 122.895C26.7722 122.395 28.0722 122.195 28.7722 122.595C28.8389 122.661 28.9055 122.695 28.9722 122.695C29.0722 122.695 29.2722 122.695 29.4722 122.895C29.7722 123.495 31.3722 125.195 30.2722 125.795C30.2056 125.795 30.1055 125.828 29.9722 125.895C29.9722 126.195 29.8722 126.395 29.6722 126.595C29.3722 126.795 29.1722 126.795 28.8722 126.595C28.8056 126.661 28.7722 126.695 28.7722 126.695C28.4722 126.995 28.0722 127.095 27.7722 126.895C27.6722 127.195 27.4722 127.395 27.1722 127.395Z" fill="white"/>
<path fill-rule="evenodd" clip-rule="evenodd" d="M27.0719 127.695C26.0719 127.695 25.4719 126.495 25.1719 125.495C24.7719 124.295 25.0719 123.295 25.9719 122.695C26.7719 122.195 28.0719 121.895 28.8719 122.395C28.9386 122.395 29.0052 122.428 29.0719 122.495C29.2719 122.495 29.4719 122.595 29.6719 122.795C29.7386 122.861 29.8052 122.961 29.8719 123.095C30.3719 123.695 31.0719 124.595 30.8719 125.395C30.8052 125.661 30.6386 125.861 30.3719 125.995C30.3719 125.995 30.3386 126.028 30.2719 126.095C30.2053 126.428 30.0719 126.661 29.8719 126.795C29.6719 126.995 29.3719 127.095 28.9719 126.895C28.6719 127.095 28.3719 127.295 27.8719 127.195C27.7386 127.461 27.5052 127.628 27.1719 127.695C27.1052 127.695 27.0719 127.695 27.0719 127.695ZM27.8719 122.595C27.2719 122.595 26.6719 122.795 26.2719 123.095C25.5719 123.595 25.2719 124.395 25.6719 125.295C25.8719 125.895 26.3719 127.295 27.0719 127.195C27.3386 127.195 27.4719 127.095 27.4719 126.895L27.5719 126.595L27.7719 126.695C28.2719 126.795 28.4719 126.695 28.5719 126.595L28.7719 126.295L28.9719 126.395C29.2719 126.595 29.3719 126.495 29.5719 126.395C29.7052 126.328 29.7719 126.161 29.7719 125.895V125.595H29.9719C30.0385 125.595 30.1052 125.595 30.1719 125.595C30.3719 125.395 30.3719 125.295 30.3719 125.295C30.4719 124.795 29.8719 123.895 29.4719 123.395C29.3385 123.261 29.2386 123.161 29.1719 123.095C29.1719 122.961 29.1052 122.928 28.9719 122.995H28.8719L28.7719 122.895C28.7053 122.828 28.6719 122.795 28.6719 122.795C28.4719 122.661 28.2052 122.595 27.8719 122.595Z" fill="black"/>
<path d="M30.8714 124.694C30.7714 124.394 30.6714 123.894 30.2714 123.694C29.9714 123.494 29.6714 123.594 29.3714 123.594C28.6714 123.594 27.0714 123.094 27.0714 122.494C26.9714 121.894 27.4714 121.594 28.0714 121.694C28.7714 121.794 30.6714 122.094 31.2714 122.594C31.7714 123.194 31.9714 123.894 31.8714 124.594C31.8714 125.094 31.0714 125.194 30.8714 124.694Z" fill="white"/>
<path fill-rule="evenodd" clip-rule="evenodd" d="M31.3715 125.294C31.0715 125.294 30.7714 125.094 30.6714 124.794C30.5714 124.494 30.4714 124.094 30.1714 123.894C30.0714 123.794 29.8714 123.794 29.6714 123.894C29.6048 123.894 29.5048 123.894 29.3715 123.894C28.6715 123.894 26.7715 123.394 26.7715 122.494C26.7715 122.194 26.8714 121.894 27.1714 121.694C27.4714 121.394 27.7714 121.394 28.1714 121.494C28.8714 121.594 30.7715 121.894 31.3715 122.394C31.9715 122.928 32.2381 123.661 32.1714 124.594C32.1714 124.994 31.8714 125.194 31.4714 125.294C31.4714 125.294 31.4381 125.294 31.3715 125.294ZM29.9714 123.294C30.1048 123.294 30.2381 123.361 30.3715 123.494C30.8715 123.694 30.9714 124.294 31.1714 124.694C31.1714 124.794 31.3714 124.794 31.4714 124.794C31.4714 124.794 31.6714 124.794 31.6714 124.594C31.7381 123.794 31.5381 123.194 31.0715 122.794C30.6715 122.494 29.1715 122.094 28.0715 121.994C27.8048 121.928 27.6048 121.961 27.4714 122.094C27.3381 122.161 27.2715 122.294 27.2715 122.494C27.2715 122.794 28.5715 123.394 29.3715 123.394C29.5048 123.394 29.6048 123.394 29.6714 123.394C29.7381 123.328 29.8381 123.294 29.9714 123.294Z" fill="black"/>
<path d="M8.07219 190.594C7.57219 179.694 10.8722 170.594 13.4722 163.194C15.7722 156.794 17.6722 151.294 16.5722 146.694C16.2389 145.628 15.9388 144.594 15.6722 143.594C13.3722 134.794 11.4722 127.894 18.2722 125.194C21.4722 123.894 27.3722 123.494 34.0722 123.094C42.3722 122.494 51.7722 121.894 58.2722 119.494C62.4722 117.894 70.4722 117.394 79.6722 116.694C97.5722 115.494 119.772 113.894 131.672 104.794C150.872 90.1943 163.272 60.6944 163.372 29.5944V12.2943C163.372 5.59431 168.872 0.194336 175.572 0.194336C182.172 0.194336 187.672 5.59431 187.672 12.2943V112.094H186.272V12.2943C186.272 6.39431 181.472 1.59436 175.572 1.59436C169.572 1.59436 164.772 6.39431 164.772 12.2943V29.5944C164.672 61.0944 151.972 91.0943 132.572 105.894C120.272 115.294 97.8722 116.794 79.7722 118.094C70.6722 118.694 62.7722 119.294 58.7722 120.794C52.0722 123.294 42.5722 123.894 34.1722 124.394C27.5722 124.894 21.7722 125.294 18.7722 126.394C13.4722 128.594 14.5722 133.894 17.0722 143.194C17.3389 144.261 17.6055 145.328 17.8722 146.394C19.1722 151.394 17.0722 157.094 14.7722 163.694C12.0722 171.294 8.97218 179.994 9.37218 190.594H8.07219Z" fill="#AAB6C2"/>
<path d="M69.1741 120.695C69.0408 120.761 68.9408 120.795 68.8741 120.795C68.7741 121.195 68.5741 121.495 68.2741 121.695C67.8741 121.895 67.4741 121.795 67.1741 121.495C67.1074 121.561 67.0407 121.595 66.9741 121.595C66.5741 121.995 66.0741 121.895 65.6741 121.595C65.4741 121.995 65.2741 122.195 64.7741 122.195C63.5741 121.995 63.0741 120.095 62.9741 119.095C62.9074 118.761 62.9074 118.428 62.9741 118.095C62.8407 118.095 62.7074 118.061 62.5741 117.995C58.4741 116.995 45.9741 113.395 45.2741 106.895C44.5741 101.095 57.1741 77.3946 62.0741 80.3946C64.5741 81.8946 69.7741 92.3946 66.6741 92.8946C63.5741 93.3946 55.3741 102.895 54.9741 105.195C54.7741 106.295 68.2741 115.195 68.2741 115.195L67.4741 115.995C67.6741 116.061 67.8741 116.161 68.0741 116.295C68.0741 116.361 68.1074 116.428 68.1741 116.495C68.3741 116.495 68.6741 116.595 68.7741 116.795C69.0741 117.695 70.7741 120.195 69.1741 120.695Z" fill="white"/>
<path fill-rule="evenodd" clip-rule="evenodd" d="M64.8733 122.395C64.8067 122.395 64.74 122.395 64.6733 122.395C63.4733 122.295 62.9734 120.595 62.7734 119.195C62.7067 118.861 62.6733 118.561 62.6733 118.294H62.4733C59.6733 117.594 45.7733 113.894 44.9733 106.994C44.4733 101.894 53.3733 84.1945 59.1733 80.5945C60.3733 79.7945 61.3733 79.6612 62.1733 80.1945C64.4733 81.5945 68.3733 89.1945 67.8733 91.9945C67.6733 92.7945 67.1734 92.9945 66.7734 93.0945C63.7734 93.5945 55.5734 102.995 55.2734 105.195C55.3734 105.995 62.1733 110.794 68.3733 114.994L68.6733 115.195L67.8733 115.895C68.0067 115.961 68.1067 116.028 68.1733 116.095C68.24 116.161 68.2734 116.195 68.2734 116.195C68.6067 116.261 68.84 116.428 68.9733 116.695C69.04 116.828 69.14 117.028 69.2734 117.294C69.6734 118.094 70.3733 119.494 69.9733 120.294C69.9066 120.628 69.6734 120.861 69.2734 120.994C69.2067 120.994 69.14 120.994 69.0734 120.994C68.94 121.461 68.7067 121.761 68.3733 121.895C68.0733 122.095 67.6733 122.094 67.1733 121.794C66.8733 122.094 66.3734 122.194 65.7734 121.994C65.5734 122.261 65.2733 122.395 64.8733 122.395ZM61.0734 80.3945C60.6067 80.3945 60.04 80.5945 59.3733 80.9945C53.8733 84.4945 44.9733 102.095 45.4733 106.895C46.1733 113.495 59.8734 117.094 62.5734 117.794L63.2734 117.895L63.1733 118.095C63.1733 118.428 63.1733 118.761 63.1733 119.095C63.3733 119.895 63.7734 121.795 64.7734 121.895C65.1067 121.961 65.3067 121.861 65.3733 121.595L65.4733 121.294L65.7734 121.395C66.1734 121.661 66.54 121.661 66.8733 121.395C66.94 121.395 66.9733 121.361 66.9733 121.294L67.1733 121.195L67.2734 121.294C67.5734 121.594 67.8734 121.594 68.0734 121.494C68.34 121.361 68.5067 121.095 68.5734 120.695L68.6733 120.494H68.8733C68.9733 120.494 69.0734 120.494 69.0734 120.494C69.34 120.428 69.5067 120.295 69.5734 120.095C69.7734 119.495 69.1734 118.194 68.7734 117.494C68.7067 117.294 68.64 117.095 68.5734 116.895C68.5067 116.761 68.3733 116.695 68.1733 116.695H68.0734L67.9733 116.595L67.8733 116.494C67.74 116.361 67.5733 116.261 67.3733 116.195L66.9733 116.095L67.8733 115.195C63.6733 112.395 54.5734 106.195 54.7734 105.095C55.1734 102.795 63.4733 93.1945 66.6733 92.5945C66.8733 92.5945 67.2733 92.4945 67.3733 91.8945C67.8733 89.2945 64.0733 81.8945 61.8733 80.5945C61.6733 80.4612 61.4067 80.3945 61.0734 80.3945Z" fill="black"/>
<path d="M69.8723 117.494L68.7723 117.594L66.0723 116.694L67.8723 115.194L68.3723 115.394L69.8723 117.494Z" fill="white"/>
<path d="M55.9727 80.2946C62.8727 76.2946 72.6727 71.1946 77.4727 74.2946C80.4727 76.1946 79.0727 82.8947 77.6727 85.3947C74.6727 90.8947 66.5727 94.5947 65.3727 95.0947C59.9727 91.3947 56.3727 86.0946 55.9727 80.2946Z" fill="white"/>
<path fill-rule="evenodd" clip-rule="evenodd" d="M65.2719 95.3945L65.1719 95.2945C59.5719 91.3945 56.0719 85.8945 55.6719 80.2945V80.1945L55.8719 80.0945C63.4719 75.5945 72.8719 70.9945 77.6719 74.0945C80.7719 76.0945 79.2719 82.9945 77.8719 85.4945C74.8719 90.8945 66.9719 94.6945 65.4719 95.2945L65.2719 95.3945ZM56.1719 80.4945C56.5719 85.8945 59.8719 91.0945 65.2719 94.8945C67.0719 94.0945 74.5719 90.4945 77.3719 85.2945C78.6719 82.9945 80.1719 76.3945 77.2719 74.4945C72.7719 71.5945 63.6719 76.0945 56.1719 80.4945Z" fill="black"/>
<path d="M140.573 98.1942C140.473 97.9942 140.373 97.7942 140.273 97.5942C140.073 96.7942 140.573 96.1941 141.373 96.2941C141.44 96.2941 141.506 96.2941 141.573 96.2941C141.273 95.7941 141.473 95.1941 142.073 94.9941C142.573 94.6941 143.073 94.6941 143.473 94.7941C143.473 94.7941 143.473 94.7608 143.473 94.6942C142.673 94.3942 141.773 93.4942 142.373 92.6942C142.873 92.0942 144.373 92.7941 145.273 93.7941C145.973 94.3941 146.373 95.1942 145.873 96.1942C145.673 96.7942 145.173 97.0942 144.573 97.1942C144.64 97.2608 144.673 97.2941 144.673 97.2941C144.773 98.0941 144.473 99.0942 143.673 99.3942C143.54 99.3942 143.44 99.3942 143.373 99.3942C143.306 99.5942 143.173 99.8275 142.973 100.094C142.906 100.228 142.806 100.328 142.673 100.394C142.606 100.461 142.573 100.494 142.573 100.494C141.573 101.794 141.473 101.994 140.373 101.094C139.273 100.294 139.073 98.5942 140.573 98.1942Z" fill="white"/>
<path fill-rule="evenodd" clip-rule="evenodd" d="M141.372 101.894C141.072 101.894 140.672 101.694 140.172 101.294C139.472 100.794 139.072 99.8944 139.272 99.0944C139.372 98.5944 139.672 98.1943 140.172 97.9943C140.106 97.9277 140.072 97.7944 140.072 97.5944C139.872 97.1944 139.972 96.7943 140.272 96.4943C140.472 96.1943 140.772 96.0943 141.172 95.9943C141.172 95.861 141.206 95.6943 141.272 95.4943C141.372 95.1943 141.572 94.8943 141.972 94.6943C142.172 94.6277 142.372 94.561 142.572 94.4943C142.272 94.2943 142.072 93.9944 141.972 93.5944C141.905 93.1944 142.006 92.8277 142.272 92.4943C142.372 92.3943 142.472 92.1943 142.872 92.1943C143.672 92.1943 144.772 92.7944 145.472 93.5944C146.372 94.3944 146.572 95.2943 146.172 96.2943C145.906 96.8276 145.472 97.1943 144.872 97.3943C145.072 98.2943 144.672 99.2944 143.672 99.5944C143.606 99.5944 143.572 99.5944 143.572 99.5944C143.439 99.861 143.306 100.061 143.172 100.194C143.039 100.394 142.906 100.528 142.772 100.594L142.672 100.694C142.072 101.494 141.772 101.894 141.372 101.894ZM140.472 100.894C141.372 101.594 141.372 101.594 142.372 100.394V100.294C142.372 100.294 142.405 100.294 142.472 100.294V100.194C142.605 100.128 142.706 100.028 142.772 99.8943C142.906 99.6943 143.039 99.4943 143.172 99.2943V99.1943L143.372 99.0944C143.439 99.0944 143.505 99.0944 143.572 99.0944C144.272 98.8944 144.572 98.0943 144.372 97.3943L144.272 96.9943L144.572 96.8943C145.105 96.8277 145.472 96.561 145.672 96.0944C146.006 95.2944 145.839 94.5943 145.172 93.9943C144.472 93.1943 143.472 92.6943 142.972 92.6943C142.905 92.6943 142.872 92.6943 142.872 92.6943C142.739 92.6943 142.639 92.7276 142.572 92.7943C142.439 92.9943 142.405 93.2277 142.472 93.4943C142.572 93.8943 143.072 94.2943 143.572 94.4943C143.672 94.4943 143.672 94.5943 143.672 94.6943L144.072 95.1943L143.472 95.0944C143.005 94.961 142.572 94.9943 142.172 95.1943C141.972 95.261 141.839 95.3944 141.772 95.5944C141.706 95.7944 141.706 95.9943 141.772 96.1943L142.072 96.5944H141.572C141.439 96.5944 141.339 96.561 141.272 96.4943C141.072 96.4943 140.772 96.5943 140.572 96.7943C140.439 96.9943 140.405 97.2277 140.472 97.4943C140.539 97.6277 140.639 97.761 140.772 97.8943L140.972 98.2943L140.672 98.3943C140.139 98.5277 139.839 98.7943 139.772 99.1943C139.672 99.7943 139.972 100.494 140.472 100.894Z" fill="black"/>
<path d="M30.2717 125.794C30.2051 125.794 30.105 125.828 29.9717 125.894C29.9717 126.194 29.8717 126.394 29.6717 126.594C29.3717 126.794 29.1717 126.794 28.8717 126.594C28.805 126.661 28.7717 126.694 28.7717 126.694C28.4717 126.994 28.0717 127.094 27.7717 126.894C27.6717 127.194 27.4717 127.394 27.1717 127.394C26.1717 127.494 25.6717 126.094 25.3717 125.394C25.305 125.194 25.2717 125.028 25.2717 124.894C24.7384 124.828 24.0384 124.728 23.1717 124.594C18.3717 123.894 9.97171 119.994 4.07171 116.094C-1.72829 112.194 0.371724 102.694 5.77172 96.2944C5.77172 96.2277 5.77172 96.1944 5.77172 96.1944C10.0717 91.0944 14.9717 101.094 14.0717 101.894C13.7384 102.228 13.405 102.628 13.0717 103.094C11.3717 105.494 9.47167 109.694 9.97167 109.994C10.4717 110.294 13.1717 113.394 14.0717 114.094C15.7717 115.394 18.3717 116.894 20.9717 118.294C24.9717 120.394 28.8717 122.194 28.9717 122.394C28.9717 122.394 28.9051 122.461 28.7717 122.594C28.8384 122.661 28.905 122.694 28.9717 122.694C29.0717 122.694 29.2717 122.694 29.4717 122.894C29.7717 123.494 31.3717 125.194 30.2717 125.794Z" fill="white"/>
<path fill-rule="evenodd" clip-rule="evenodd" d="M27.0725 127.694C26.0725 127.694 25.4725 126.494 25.1725 125.494C25.1058 125.361 25.0725 125.228 25.0725 125.094C24.4725 125.028 23.8391 124.961 23.1725 124.894C18.4725 124.194 10.2725 120.494 3.87248 116.294C1.97248 114.994 0.772458 112.994 0.472458 110.494C-0.127542 106.194 1.87249 100.494 5.57249 96.1944V96.0945C6.63916 94.8278 7.80583 94.3278 9.07249 94.5945C11.6725 95.1945 13.7725 98.9944 14.2725 100.794C14.4725 101.461 14.4725 101.894 14.2725 102.094C14.0058 102.361 13.6725 102.761 13.2725 103.294C11.5725 105.594 9.97247 109.394 10.1725 109.894C10.3725 109.894 10.8725 110.494 11.7725 111.494C12.6725 112.494 13.7725 113.594 14.2725 113.894C15.6725 114.994 17.9725 116.394 21.0725 117.994C23.3725 119.294 25.5725 120.394 27.0725 121.194C28.7725 121.994 29.0725 122.094 29.1725 122.194L29.3725 122.394L29.2725 122.494C29.4058 122.561 29.5391 122.661 29.6725 122.794C29.7391 122.861 29.8058 122.961 29.8725 123.094C30.3725 123.694 31.0725 124.594 30.8725 125.394C30.8058 125.661 30.6391 125.861 30.3725 125.994C30.3725 125.994 30.3392 126.028 30.2725 126.094C30.2058 126.428 30.0725 126.661 29.8725 126.794C29.6725 126.994 29.3725 127.094 28.9725 126.894C28.6725 127.094 28.3725 127.294 27.8725 127.194C27.7391 127.461 27.5058 127.628 27.1725 127.694C27.1058 127.694 27.0725 127.694 27.0725 127.694ZM8.37248 94.9944C7.57248 94.9944 6.77246 95.4611 5.97246 96.3945V96.4944C2.37246 100.694 0.372458 106.194 0.972458 110.394C1.30579 112.794 2.37247 114.628 4.17247 115.894C10.3725 119.994 18.7725 123.694 23.2725 124.394C23.9392 124.461 24.6058 124.528 25.2725 124.594H25.4725L25.5725 124.794C25.5725 124.994 25.6058 125.161 25.6725 125.294C25.8725 125.894 26.3725 127.294 27.0725 127.194C27.3392 127.194 27.4725 127.094 27.4725 126.894L27.5725 126.594L27.7725 126.694C28.2725 126.794 28.4725 126.694 28.5725 126.594L28.7725 126.294L28.9725 126.394C29.2725 126.594 29.3725 126.494 29.5725 126.394C29.7058 126.328 29.7725 126.161 29.7725 125.894V125.594H29.9725C30.0391 125.594 30.1058 125.594 30.1725 125.594C30.3725 125.494 30.3725 125.294 30.3725 125.294C30.4725 124.794 29.8725 123.894 29.4725 123.394C29.3391 123.261 29.2391 123.161 29.1725 123.094C29.1725 122.961 29.1058 122.928 28.9725 122.994H28.8725L28.7725 122.894C28.7058 122.894 28.6725 122.861 28.6725 122.794L28.3725 122.694L28.5725 122.494C28.2725 122.294 27.5725 121.994 26.8725 121.594C25.3725 120.794 23.1725 119.694 20.8725 118.494C17.7725 116.794 15.3725 115.394 13.9725 114.294C13.3725 113.894 12.3725 112.794 11.4725 111.794C10.7725 111.094 10.0725 110.294 9.87248 110.194C9.77248 110.194 9.67247 110.094 9.67247 109.894C9.47247 108.994 11.3725 105.094 12.8725 102.994C13.2725 102.461 13.6058 102.061 13.8725 101.794C14.1725 101.294 12.7725 97.4944 10.3725 95.7944C9.70582 95.2611 9.03915 94.9944 8.37248 94.9944Z" fill="black"/>
<path d="M30.4734 123.394L29.1734 123.494L27.2734 121.794L29.2734 122.194L30.4734 123.394Z" fill="white"/>
<path d="M4.17188 95.7943C8.17188 91.0943 13.9719 84.7943 18.3719 85.7943C21.0719 86.3943 20.6719 91.3943 20.2719 93.5943C19.5719 98.2943 14.4719 103.394 13.6719 104.194C8.87187 102.894 6.07187 99.9943 4.17188 95.7943Z" fill="#7977C6"/>
<path d="M54.1736 121.494C54.1736 121.361 54.207 121.227 54.2736 121.094C54.5736 120.594 55.0736 120.594 55.3736 120.994C55.3736 120.994 55.4069 121.027 55.4736 121.094C55.5736 120.794 55.8736 120.594 56.2736 120.694C56.607 120.827 56.8736 121.027 57.0736 121.294C57.0736 121.294 57.0736 121.261 57.0736 121.194C56.7736 120.694 56.8736 119.894 57.5736 119.794C57.9736 119.794 58.3736 120.794 58.2736 121.694C58.3736 122.294 58.1736 122.794 57.4736 122.994C57.0736 123.194 56.7736 123.094 56.4736 122.894C56.4069 122.894 56.3736 122.927 56.3736 122.994C56.0736 123.394 55.4736 123.694 54.9736 123.394C54.9069 123.394 54.8736 123.361 54.8736 123.294C54.7403 123.361 54.5736 123.427 54.3736 123.494C54.2403 123.494 54.1403 123.461 54.0736 123.394C54.0069 123.394 53.9736 123.394 53.9736 123.394C52.8736 123.594 52.7736 123.594 52.6736 122.694C52.5736 121.794 53.2736 120.894 54.1736 121.494Z" fill="white"/>
<path fill-rule="evenodd" clip-rule="evenodd" d="M55.373 123.794C55.173 123.794 55.0064 123.728 54.873 123.594C54.8064 123.594 54.7731 123.594 54.7731 123.594C54.6397 123.661 54.5064 123.694 54.373 123.694C54.2397 123.694 54.1064 123.694 53.973 123.694C52.873 123.794 52.573 123.794 52.373 122.694C52.373 122.094 52.5731 121.494 53.0731 121.194C53.3397 120.994 53.6397 120.961 53.973 121.094C54.0397 121.028 54.0731 120.961 54.0731 120.894C54.1731 120.694 54.4731 120.494 54.7731 120.494C54.9731 120.428 55.173 120.494 55.373 120.694C55.4397 120.628 55.5397 120.561 55.673 120.494C55.873 120.361 56.1064 120.361 56.373 120.494C56.5064 120.494 56.6064 120.528 56.673 120.594C56.673 120.394 56.7397 120.194 56.873 119.994C57.0064 119.728 57.2064 119.594 57.473 119.594C57.673 119.594 57.773 119.594 57.973 119.794C58.373 120.194 58.5731 120.994 58.5731 121.694C58.5731 122.494 58.2731 122.994 57.5731 123.294C57.1731 123.428 56.8064 123.394 56.473 123.194C56.173 123.594 55.773 123.794 55.373 123.794ZM54.873 122.994L54.973 123.094C55.0397 123.161 55.0731 123.194 55.0731 123.194C55.4731 123.394 55.973 123.094 56.173 122.794L56.373 122.594L56.5731 122.694C56.8397 122.894 57.1064 122.928 57.373 122.794C57.8397 122.594 58.0731 122.228 58.0731 121.694C58.0731 120.994 57.873 120.394 57.673 120.194C57.6064 120.128 57.5731 120.094 57.5731 120.094C57.4397 120.094 57.3397 120.161 57.2731 120.294C57.1731 120.494 57.1731 120.794 57.2731 121.194V121.294L57.173 121.894L56.7731 121.394C56.6397 121.194 56.4397 121.028 56.173 120.894C56.1064 120.894 56.0064 120.894 55.873 120.894C55.8064 120.961 55.7397 121.061 55.673 121.194L55.5731 121.594L55.173 121.094C55.0397 121.028 54.9064 120.994 54.7731 120.994C54.6397 120.994 54.5397 121.061 54.473 121.194C54.473 121.261 54.4397 121.361 54.373 121.494L54.2731 121.794L53.973 121.694C53.773 121.494 53.573 121.461 53.373 121.594C53.073 121.794 52.873 122.194 52.873 122.694C52.973 123.294 52.973 123.294 53.873 123.194H54.0731C54.2064 123.194 54.3064 123.194 54.373 123.194C54.5064 123.194 54.6397 123.161 54.7731 123.094L54.873 122.994Z" fill="black"/>
<path d="M200.273 211.495H175.773V111.395H200.273V211.495Z" fill="black"/>
<path d="M198.273 211.495H173.773V111.395H198.273V211.495Z" fill="#7977C6"/>
<path d="M169.373 211.494H144.873V129.494H169.373V211.494Z" fill="black"/>
<path d="M167.373 211.494H142.873V129.494H167.373V211.494Z" fill="#AAB6C2"/>
<path d="M138.473 211.494H113.973V150.894H138.473V211.494Z" fill="black"/>
<path d="M136.473 211.494H111.973V150.894H136.473V211.494Z" fill="white"/>
<path fill-rule="evenodd" clip-rule="evenodd" d="M136.773 211.694H111.773V150.594H136.773V211.694ZM112.273 211.194H136.273V151.094H112.273V211.194Z" fill="black"/>
<path d="M107.672 211.495H83.1719V174.395H107.672V211.495Z" fill="black"/>
<path d="M105.672 211.495H81.1719V174.395H105.672V211.495Z" fill="#7977C6"/>
<path d="M82.5734 82.9944L76.4734 81.7944L75.7734 73.7944H78.3734L82.5734 82.9944Z" fill="white"/>
<path d="M101.573 78.4941L102.473 78.9941L103.473 81.2941L102.773 87.1942L100.473 84.9941L101.573 78.4941Z" fill="white"/>
<path d="M138.272 47.5943C138.272 56.6943 130.972 64.1942 121.772 64.1942C112.672 64.2942 105.172 56.8942 105.072 47.7942C105.072 38.5942 112.372 31.1943 121.572 31.0943C130.672 30.9943 138.172 38.3943 138.272 47.5943Z" fill="#7977C6"/>
<path d="M119.772 57.394C118.172 57.294 115.472 54.594 111.572 49.194C111.172 48.494 111.272 47.5941 111.972 47.0941C112.172 46.8941 112.439 46.794 112.772 46.794C113.272 46.794 113.672 47.094 113.972 47.494C115.872 49.994 118.072 52.694 119.272 53.894L119.472 54.0941L119.672 53.794C121.672 50.494 126.972 42.194 129.172 38.694L129.272 38.5941C129.572 38.0941 129.972 37.894 130.472 37.894C130.805 37.894 131.072 37.9607 131.272 38.0941C131.972 38.4941 132.172 39.3941 131.772 40.0941C131.672 40.2941 122.372 54.894 121.572 56.494C121.272 56.994 120.672 57.394 120.072 57.394C120.005 57.394 119.939 57.394 119.872 57.394H119.772Z" fill="white"/>
<path fill-rule="evenodd" clip-rule="evenodd" d="M131.372 37.8942C132.172 38.3942 132.472 39.4942 131.972 40.2942C129.372 44.2942 122.472 55.1942 121.772 56.5942C121.372 57.1942 120.772 57.5942 120.072 57.6942C120.005 57.6942 119.939 57.6942 119.872 57.6942C119.805 57.6942 119.772 57.6942 119.772 57.6942C118.772 57.5942 116.772 56.7942 111.372 49.2942C110.872 48.4942 110.972 47.4942 111.772 46.8942C112.105 46.6942 112.439 46.5942 112.772 46.5942C113.372 46.5942 113.872 46.7942 114.172 47.2942C115.972 49.6942 118.172 52.4942 119.472 53.6942C121.872 49.7942 128.672 38.8942 129.072 38.3942C129.372 37.8942 129.972 37.5942 130.472 37.5942C130.805 37.5942 131.105 37.6942 131.372 37.8942ZM129.472 38.6942C129.172 39.1942 122.272 49.9942 119.872 53.9942L119.572 54.4942L119.172 54.0942C117.872 52.8942 115.672 50.1942 113.772 47.5942C113.572 47.2942 113.172 47.0942 112.772 47.0942C112.505 47.0942 112.272 47.1609 112.072 47.2942C111.805 47.4942 111.639 47.7609 111.572 48.0942C111.505 48.4276 111.572 48.7275 111.772 48.9942C115.572 54.2942 118.372 57.0942 119.772 57.1942H119.872C119.939 57.1942 119.972 57.1942 119.972 57.1942C120.572 57.0942 121.072 56.7942 121.272 56.2942C122.072 54.9942 128.972 44.0942 131.572 39.9942C131.872 39.3942 131.672 38.6942 131.172 38.2942C130.972 38.1609 130.739 38.0942 130.472 38.0942C130.072 38.0942 129.672 38.2942 129.472 38.6942Z" fill="black"/>
<path d="M93.7727 76.7947L89.8727 78.6947L88.4727 74.0947L89.2727 74.1947L92.6727 76.5947L92.5727 75.9947C92.5727 75.6947 92.4727 74.8947 92.8727 74.7947C92.8727 74.7947 92.9394 74.7947 93.0727 74.7947C93.6727 74.7947 94.9727 75.2947 95.4727 75.5947L96.9727 78.9947L93.7727 76.7947Z" fill="white"/>
<path fill-rule="evenodd" clip-rule="evenodd" d="M89.3719 73.8945L92.3719 75.9944C92.3719 75.9944 92.0719 74.7945 92.7719 74.5945C92.8386 74.5278 92.9386 74.4944 93.0719 74.4944C93.8719 74.4944 95.6719 75.3945 95.6719 75.3945L97.5719 79.6945L93.6719 77.0945L89.6719 78.9944L88.1719 73.7944L89.3719 73.8945ZM92.8719 74.9944C92.7719 75.0944 92.7719 75.5945 92.7719 75.8945L92.9719 76.8945L93.4719 76.5945L93.7719 76.4944L93.9719 76.5945L96.3719 78.2944L95.2719 75.7944C94.5719 75.3944 93.4719 74.9944 92.9719 74.9944C92.9052 74.9944 92.8719 74.9944 92.8719 74.9944ZM89.9719 78.2944L92.7719 76.8945L91.9719 76.3945L89.1719 74.3945H88.7719L89.9719 78.2944Z" fill="black"/>
<path d="M95.4727 77.8942L94.6727 79.4942L93.2727 79.3942L91.9727 77.6942L93.7727 76.5942L95.4727 77.8942Z" fill="#7977C6"/>
<path d="M94.6727 79.4945C94.6727 79.4945 97.5727 88.9945 95.3727 98.7945L92.3727 101.395L90.4727 98.6945C90.4727 98.6945 93.9727 85.9945 93.2727 79.3945L94.6727 79.4945Z" fill="#7977C6"/>
<path d="M95.173 71.5942L94.473 74.7942C94.473 74.7942 95.573 76.7942 94.673 76.9942C91.473 77.6942 89.373 73.7942 89.373 73.7942L90.673 68.5942L95.173 71.5942Z" fill="white"/>
<path fill-rule="evenodd" clip-rule="evenodd" d="M93.8723 77.2943C91.0723 77.2943 89.2722 74.0943 89.1722 73.8943L89.0723 73.7943L90.5723 68.1943L95.4722 71.4943L94.6722 74.7943C94.8722 75.1943 95.4722 76.2943 95.1722 76.8943C95.1056 77.0943 94.9389 77.1943 94.6722 77.1943C94.4056 77.261 94.1389 77.2943 93.8723 77.2943ZM89.6722 73.7943C89.9722 74.2943 91.9723 77.3943 94.5723 76.7943C94.6389 76.7276 94.6722 76.6943 94.6722 76.6943C94.8722 76.2943 94.4723 75.4943 94.2723 74.9943L94.1722 74.8943L94.8723 71.6943L90.8723 68.9943L89.6722 73.7943Z" fill="black"/>
<path d="M99.2739 63.2939C99.2739 63.2939 99.1739 66.794 98.0739 70.094C97.1739 72.494 91.7739 73.9939 90.0739 69.2939C88.3739 64.4939 91.5739 60.2939 91.5739 60.2939L99.2739 63.2939Z" fill="white"/>
<path fill-rule="evenodd" clip-rule="evenodd" d="M94.1732 72.5942C92.1732 72.5942 90.5732 71.3941 89.8732 69.2941C88.0732 64.4941 91.3732 60.1942 91.3732 60.0942L91.5732 59.9941L99.4732 63.1942V63.2941C99.4732 63.3941 99.3732 66.8942 98.2732 70.1942C97.7732 71.4942 96.0732 72.5942 94.1732 72.5942ZM91.6732 60.5942C91.1732 61.3942 88.7732 65.0942 90.2732 69.1942C91.1732 71.6942 93.0732 72.0942 94.1732 72.0942C95.8732 72.0942 97.3732 71.1942 97.7732 70.0942C98.7732 67.1942 98.9732 64.1941 98.9732 63.4941L91.6732 60.5942Z" fill="black"/>
<path d="M90.1726 61.1942C90.6726 56.8942 99.6726 57.8942 101.573 60.3942C102.573 61.6942 102.473 63.7942 100.673 64.3942C99.7726 64.7942 98.6727 64.3942 97.7727 64.0942C95.8727 63.4942 94.0726 62.9942 92.0726 62.5942C92.0726 62.6609 92.0726 62.6942 92.0726 62.6942C91.9726 62.9942 91.8727 63.2942 91.7727 63.4942C91.4727 64.6942 91.4726 66.1942 90.6726 67.1942C90.0726 67.7942 89.1726 67.8942 88.4726 67.2942C87.7726 66.5942 88.2727 65.7942 88.2727 64.8942C88.2727 64.3942 88.2726 64.0942 88.6726 63.6942C88.7726 63.4942 88.8726 63.4942 89.0726 63.3942C88.9726 63.2942 89.0726 63.1942 89.0726 62.9942C89.1726 62.2942 89.5726 61.5942 90.1726 61.1942Z" fill="black"/>
</svg>
