<svg width="228" height="208" viewBox="0 0 228 208" fill="none" xmlns="http://www.w3.org/2000/svg">
<path d="M191.21 188.656C143.81 186.956 140.41 185.556 68.0099 203.856C-7.89006 222.956 -18.49 105.556 29.61 75.4557C77.71 45.3557 92.9099 11.5557 122.81 5.65569C217.21 -12.9443 250.61 190.756 191.21 188.656Z" fill="#E6EBF0"/>
<path d="M29.5099 33.6556C40.5099 22.0556 54.2099 -12.8444 60.8099 5.85562C67.5099 24.6556 55.8099 44.0556 41.8099 55.2556C12.5099 78.5556 13.5099 50.4556 29.5099 33.6556Z" fill="#E6EBF0"/>
<path d="M214.309 207.356H7.10938V205.956H214.309V207.356Z" fill="black"/>
<path d="M204.21 148.856C205.51 148.856 206.81 148.456 207.81 147.656C207.91 149.956 207.71 152.156 207.31 154.456C205.81 156.756 201.81 161.056 202.11 160.956C203.21 160.856 204.31 160.556 205.31 160.256C204.643 161.656 203.843 162.989 202.91 164.256C200.91 166.856 198.21 168.856 197.11 172.056C197.11 172.123 197.077 172.156 197.01 172.156C197.01 172.356 196.81 172.456 196.61 172.356C191.41 167.356 190.51 159.856 189.71 153.056C189.71 152.789 189.677 152.489 189.61 152.156C191.11 153.556 192.61 154.856 194.41 155.856C194.71 156.056 191.21 150.356 189.41 147.756C189.51 146.156 189.71 144.556 190.31 142.956C191.61 139.656 193.61 136.656 195.71 133.856C195.777 133.723 195.843 133.589 195.91 133.456C196.51 134.923 197.277 136.289 198.21 137.556C198.31 137.756 197.81 133.456 197.51 131.456C197.977 130.789 198.477 130.156 199.01 129.556C199.71 128.756 200.61 127.356 201.81 127.556C203.01 127.756 205.81 132.656 206.21 134.056C206.343 134.723 206.477 135.356 206.61 135.956C206.677 136.223 206.71 136.489 206.71 136.756C207.21 139.256 207.51 141.756 207.71 144.356C207.577 144.489 207.477 144.623 207.41 144.756C206.41 146.056 203.91 148.856 204.21 148.856Z" fill="black"/>
<path d="M199.711 196.956C197.711 187.856 196.711 179.856 196.611 172.356C196.544 172.289 196.511 172.189 196.511 172.056C196.511 171.189 196.544 170.323 196.611 169.456C196.611 168.123 196.644 166.789 196.711 165.456C196.711 165.389 196.711 165.323 196.711 165.256C196.911 161.656 197.211 157.956 197.611 154.356C197.611 154.356 197.578 154.356 197.511 154.356C196.244 152.889 195.278 151.223 194.611 149.356C194.544 149.156 194.578 148.989 194.711 148.856C194.811 148.756 195.011 148.656 195.111 148.656C195.411 148.656 195.511 148.756 195.611 148.956C196.144 150.356 196.844 151.656 197.711 152.856C197.844 151.989 197.944 151.156 198.011 150.356C197.944 150.289 197.911 150.223 197.911 150.156C196.311 147.956 195.011 145.456 194.211 142.856C194.144 142.656 194.178 142.489 194.311 142.356C194.411 142.256 194.611 142.156 194.711 142.156C195.011 142.156 195.111 142.256 195.211 142.456C195.944 144.723 196.944 146.823 198.211 148.756C198.911 143.756 199.611 138.856 200.611 134.156C200.611 133.956 200.811 133.756 201.111 133.756C201.311 133.756 201.478 133.823 201.611 133.956C201.678 134.089 201.711 134.223 201.711 134.356C201.011 137.856 200.311 141.656 199.811 145.456C202.011 144.956 203.811 143.356 205.311 142.056C205.444 141.923 205.578 141.856 205.711 141.856C205.911 141.856 206.111 142.056 206.211 142.256C206.211 142.456 206.211 142.756 206.011 142.856C204.111 144.556 202.111 146.156 199.611 146.656C198.811 152.656 198.211 158.756 197.811 164.856C198.611 164.189 199.278 163.456 199.811 162.656C199.944 162.523 200.078 162.456 200.211 162.456C200.411 162.456 200.611 162.556 200.711 162.756C200.811 162.856 200.811 163.156 200.711 163.256C199.978 164.389 199.044 165.356 197.911 166.156C197.911 166.156 197.878 166.156 197.811 166.156C197.744 167.089 197.711 168.023 197.711 168.956C197.511 177.356 198.511 186.156 200.811 196.756V196.956L199.811 197.256L199.711 196.956Z" fill="white"/>
<path fill-rule="evenodd" clip-rule="evenodd" d="M201.711 133.756C201.911 133.956 201.978 134.189 201.911 134.456C201.211 137.856 200.611 141.456 200.111 145.156C202.111 144.556 203.811 143.056 205.211 141.856C205.344 141.723 205.511 141.656 205.711 141.656C206.011 141.656 206.311 141.856 206.411 142.156C206.511 142.456 206.411 142.856 206.211 143.056C204.311 144.756 202.311 146.356 199.811 146.856C199.011 152.656 198.511 158.456 198.111 164.256C198.711 163.723 199.211 163.156 199.611 162.556C199.811 162.256 200.011 162.156 200.211 162.156C200.511 162.156 200.811 162.356 200.911 162.556C201.111 162.856 201.111 163.156 200.911 163.456C200.178 164.589 199.244 165.556 198.111 166.356C198.044 166.356 198.011 166.356 198.011 166.356C198.011 167.223 197.978 168.089 197.911 168.956C197.811 177.356 198.711 186.156 201.011 196.756L201.111 197.156L200.611 197.256L200.411 197.356C200.278 197.356 200.178 197.389 200.111 197.456L199.611 197.556L199.511 197.056C197.511 187.956 196.511 179.856 196.311 172.456C196.244 172.323 196.211 172.189 196.211 172.056C196.278 171.189 196.311 170.323 196.311 169.456C196.311 168.056 196.378 166.689 196.511 165.356C196.511 165.289 196.511 165.223 196.511 165.156C196.711 161.656 197.011 158.056 197.311 154.456C196.044 152.989 195.078 151.323 194.411 149.456C194.311 149.256 194.311 148.956 194.511 148.756C194.611 148.556 194.911 148.356 195.111 148.356C195.511 148.356 195.711 148.556 195.911 148.856C196.311 150.056 196.878 151.156 197.611 152.156C197.678 151.556 197.744 150.989 197.811 150.456C197.744 150.389 197.711 150.356 197.711 150.356C196.111 148.056 194.811 145.556 194.011 142.956C193.911 142.656 193.911 142.456 194.111 142.256C194.211 142.056 194.511 141.856 194.711 141.856C195.111 141.856 195.411 142.056 195.511 142.456C196.111 144.389 196.978 146.256 198.111 148.056C198.711 143.356 199.411 138.656 200.311 134.156C200.411 133.756 200.711 133.456 201.111 133.456C201.411 133.456 201.611 133.556 201.711 133.756ZM200.811 134.256C199.811 139.256 199.011 144.323 198.411 149.456C196.944 147.323 195.811 145.023 195.011 142.556C194.944 142.423 194.844 142.356 194.711 142.356C194.611 142.356 194.411 142.556 194.411 142.756C195.278 145.356 196.511 147.789 198.111 150.056C198.178 150.123 198.244 150.156 198.311 150.156C198.178 151.289 198.044 152.389 197.911 153.456C196.844 152.123 196.011 150.656 195.411 149.056C195.344 148.923 195.244 148.856 195.111 148.856C195.011 148.856 194.811 149.056 194.811 149.256C195.544 151.056 196.511 152.689 197.711 154.156C197.778 154.223 197.811 154.256 197.811 154.256C197.478 157.923 197.211 161.589 197.011 165.256C197.011 165.323 197.011 165.389 197.011 165.456C196.878 166.789 196.811 168.123 196.811 169.456C196.811 170.323 196.778 171.223 196.711 172.156C196.711 172.223 196.744 172.289 196.811 172.356C197.011 180.656 198.211 188.856 200.011 196.956C200.144 196.889 200.311 196.856 200.511 196.856C198.611 187.656 197.211 178.356 197.411 168.956C197.478 167.956 197.511 166.956 197.511 165.956C197.578 165.956 197.611 165.956 197.611 165.956C197.678 165.956 197.744 165.956 197.811 165.956C198.878 165.156 199.778 164.223 200.511 163.156C200.611 162.956 200.411 162.656 200.211 162.656C200.144 162.656 200.078 162.689 200.011 162.756C199.344 163.823 198.544 164.689 197.611 165.356C197.944 159.023 198.544 152.689 199.411 146.356C202.011 145.956 203.911 144.356 205.811 142.656C206.111 142.456 205.911 142.156 205.711 142.156C205.644 142.156 205.578 142.189 205.511 142.256C203.711 143.756 201.911 145.356 199.511 145.756C200.044 141.956 200.678 138.156 201.411 134.356C201.511 134.156 201.311 133.956 201.111 133.956C201.011 133.956 200.911 134.056 200.811 134.256Z" fill="black"/>
<path d="M191.911 178.356H191.811C190.611 176.956 188.811 176.156 187.011 175.456C186.211 175.156 185.411 174.756 184.611 174.356C183.677 173.823 182.777 173.223 181.911 172.556C182.611 172.456 183.411 172.356 184.311 172.056H184.411L184.511 171.856C184.511 171.656 184.511 171.656 182.711 170.856C181.311 170.156 179.211 169.156 178.011 168.456C177.211 167.189 176.511 165.723 175.911 164.056C176.177 164.123 176.444 164.156 176.711 164.156C177.511 164.156 178.277 163.989 179.011 163.656H179.211V163.456C179.211 163.256 179.211 163.156 177.111 162.156C176.411 161.856 175.611 161.456 175.111 161.156C175.044 161.089 174.977 161.023 174.911 160.956C174.211 158.656 173.811 156.856 173.511 155.156C173.444 154.889 173.411 154.656 173.411 154.456C173.344 153.989 173.277 153.489 173.211 152.956C173.111 151.856 174.011 147.356 174.811 146.856C175.011 146.723 175.244 146.689 175.511 146.756C176.111 146.756 176.711 147.056 177.211 147.256C177.344 147.323 177.477 147.389 177.611 147.456C178.211 147.723 178.777 148.023 179.311 148.356C179.611 149.856 180.311 153.256 180.711 153.256H180.911L181.011 153.056C181.411 151.923 181.644 150.756 181.711 149.556C184.111 150.956 186.811 152.556 188.811 154.656C189.611 155.456 190.311 156.556 190.911 157.756C190.711 158.656 188.811 165.356 189.111 165.656V165.756H189.411V165.656C190.411 164.656 191.311 163.356 192.211 161.756C192.211 161.823 192.211 161.889 192.211 161.956C193.411 166.856 194.911 172.956 192.011 178.456L191.911 178.356Z" fill="white"/>
<path fill-rule="evenodd" clip-rule="evenodd" d="M177.711 147.256C178.311 147.523 178.944 147.823 179.611 148.156C179.911 149.656 180.611 152.956 180.711 152.956C181.177 151.689 181.444 150.423 181.51 149.156C181.577 149.223 181.677 149.289 181.81 149.356C184.31 150.756 187.01 152.356 189.01 154.456C189.91 155.456 190.611 156.556 191.211 157.756C190.511 160.256 189.11 165.456 189.31 165.456C190.51 164.156 191.41 162.656 192.31 161.056C192.377 161.323 192.411 161.589 192.411 161.856C193.811 167.156 195.211 173.156 192.211 178.556C192.144 178.689 192.077 178.756 192.01 178.756C191.944 178.689 191.877 178.623 191.81 178.556C191.744 178.556 191.711 178.556 191.711 178.556C189.811 176.556 186.91 175.856 184.51 174.556C183.31 173.956 182.244 173.223 181.31 172.356C182.21 172.256 183.211 172.156 184.211 171.856C184.411 171.756 179.811 169.856 177.911 168.656C176.911 167.156 176.11 165.456 175.51 163.756C175.91 163.823 176.311 163.856 176.711 163.856C177.444 163.856 178.177 163.723 178.911 163.456C179.211 163.356 176.31 162.056 175.01 161.356C174.877 161.289 174.777 161.223 174.711 161.156C174.111 159.256 173.611 157.156 173.211 155.156C173.211 154.956 173.177 154.756 173.111 154.556C173.044 154.023 173.01 153.489 173.01 152.956C172.81 151.856 173.711 147.156 174.711 146.656C174.977 146.523 175.244 146.456 175.51 146.456C176.31 146.456 177.111 146.956 177.711 147.256ZM175.01 147.056C174.31 147.456 173.31 151.656 173.51 152.956C173.51 153.423 173.544 153.923 173.611 154.456C173.677 154.656 173.711 154.856 173.711 155.056C174.011 156.756 174.411 158.556 175.111 160.856C175.177 160.856 175.211 160.889 175.211 160.956C175.711 161.256 176.511 161.556 177.211 161.956C179.311 162.956 179.51 163.056 179.51 163.456L179.411 163.756L179.111 163.956C178.377 164.223 177.577 164.356 176.711 164.356C176.577 164.356 176.411 164.356 176.211 164.356C176.811 165.823 177.51 167.123 178.31 168.256C179.41 168.956 181.41 169.956 182.81 170.556C184.71 171.456 184.711 171.456 184.711 171.856V172.256L184.31 172.356C183.71 172.556 183.11 172.689 182.51 172.756C183.244 173.223 183.977 173.689 184.711 174.156C185.511 174.556 186.311 174.856 187.111 175.256C188.811 175.956 190.611 176.656 191.911 178.056C194.511 172.956 193.211 167.156 192.111 162.456C191.311 163.856 190.511 164.856 189.611 165.856L189.51 165.956H189.31H189.01L188.911 165.756C188.711 165.556 188.611 165.556 189.411 162.356C189.811 160.856 190.311 159.056 190.611 157.856C190.077 156.656 189.411 155.623 188.611 154.756C186.811 152.856 184.211 151.356 181.911 149.956C181.844 151.089 181.611 152.156 181.211 153.156L181.111 153.456H180.711C180.411 153.456 180.111 153.456 179.111 148.456C178.577 148.189 178.044 147.923 177.51 147.656C177.377 147.656 177.244 147.589 177.111 147.456C176.611 147.256 176.01 146.956 175.51 146.956C175.31 146.956 175.144 146.989 175.01 147.056Z" fill="black"/>
<path d="M196.011 198.256C195.011 190.756 193.411 183.256 190.511 176.256C190.178 175.523 189.844 174.789 189.511 174.056C189.511 174.123 189.444 174.156 189.311 174.156C188.178 173.956 187.144 173.556 186.211 172.956C185.911 172.756 186.211 172.356 186.511 172.556C187.378 173.089 188.311 173.456 189.311 173.656C187.244 168.989 184.911 164.423 182.311 159.956C182.311 159.956 182.311 159.989 182.311 160.056C180.011 160.556 177.811 159.956 175.711 159.356C175.411 159.256 175.611 158.756 175.911 158.856C177.811 159.456 179.911 160.056 182.011 159.556C180.478 156.889 178.844 154.223 177.111 151.556C176.911 151.356 177.411 151.056 177.511 151.356C179.844 154.823 182.011 158.356 184.011 161.956C184.678 159.889 184.978 157.789 184.911 155.656C184.911 155.356 185.411 155.356 185.511 155.656C185.511 157.923 185.144 160.156 184.411 162.356C184.411 162.423 184.378 162.456 184.311 162.456C184.778 163.256 185.211 164.056 185.611 164.856C186.144 163.523 186.444 162.123 186.511 160.656C186.511 160.356 187.011 160.356 187.011 160.656C186.944 162.256 186.611 163.823 186.011 165.356C185.944 165.356 185.911 165.389 185.911 165.456C187.311 168.056 188.611 170.723 189.811 173.456C189.878 173.456 189.911 173.489 189.911 173.556C190.378 174.489 190.811 175.456 191.211 176.456C191.478 177.123 191.744 177.789 192.011 178.456C192.011 178.523 192.011 178.589 192.011 178.656C194.311 184.956 195.611 191.456 196.511 198.156C196.311 198.223 196.144 198.256 196.011 198.256Z" fill="black"/>
<path d="M177.611 156.756C176.011 156.489 174.545 155.956 173.211 155.156C173.211 154.956 173.178 154.756 173.111 154.556C174.511 155.423 176.045 156.023 177.711 156.356C178.111 156.356 177.911 156.856 177.611 156.756Z" fill="black"/>
<path d="M227.511 160.756C227.511 162.856 222.511 163.856 221.011 164.456C217.511 165.756 214.211 167.056 211.611 169.756C208.611 173.056 206.011 176.856 203.411 180.456C203.311 180.656 203.011 180.756 202.811 180.756C202.811 180.756 202.511 180.056 202.111 179.156C201.211 176.956 199.811 172.956 200.211 170.656C200.411 169.056 201.011 167.456 201.711 166.056C201.911 166.756 202.211 167.456 202.711 167.956C202.811 168.156 203.111 165.056 203.311 163.756C203.511 163.423 203.744 163.123 204.011 162.856C204.544 162.256 205.144 161.723 205.811 161.256C205.944 161.123 206.078 161.023 206.211 160.956C206.744 160.556 207.311 160.189 207.911 159.856C208.044 159.723 208.177 159.623 208.311 159.556C208.844 159.223 209.411 158.956 210.011 158.756C210.211 159.756 210.411 160.756 210.911 161.756C211.011 161.956 211.211 159.356 211.311 158.256C211.844 158.056 212.378 157.856 212.911 157.656C213.011 158.356 213.311 159.056 213.611 159.656C213.611 159.756 214.411 158.056 214.611 157.256C216.411 156.956 218.211 156.756 219.911 156.856C220.044 156.856 220.177 156.856 220.311 156.856C220.777 156.923 221.244 156.989 221.711 157.056C223.411 157.356 227.411 158.356 227.511 160.656C227.511 160.656 227.511 160.689 227.511 160.756Z" fill="#AAB6C2"/>
<path d="M227.511 160.756C227.511 162.856 222.511 163.856 221.011 164.456C217.511 165.756 214.211 167.056 211.611 169.756C208.611 173.056 206.011 176.856 203.411 180.456C203.345 180.523 203.278 180.59 203.211 180.656C202.611 182.056 202.511 183.656 202.411 185.256C202.278 188.323 202.278 191.39 202.411 194.456C202.411 195.19 202.445 195.89 202.511 196.556C202.311 196.623 202.111 196.656 201.911 196.656C201.845 195.523 201.778 194.423 201.711 193.356C201.711 189.856 201.511 186.356 202.011 182.956C202.145 181.956 202.445 181.023 202.911 180.156C203.111 177.956 204.411 170.456 208.611 166.356C213.411 161.556 220.911 161.456 227.511 160.756Z" fill="black"/>
<path d="M208.012 164.356C207.745 162.823 207.712 161.323 207.912 159.856C208.045 159.723 208.178 159.623 208.312 159.556C208.112 161.156 208.145 162.723 208.412 164.256C208.512 164.556 208.112 164.656 208.012 164.356Z" fill="black"/>
<path d="M206.411 165.256C206.077 163.923 205.877 162.589 205.811 161.256C205.944 161.123 206.077 161.023 206.211 160.956C206.277 162.356 206.477 163.756 206.811 165.156C206.911 165.356 206.511 165.456 206.411 165.256Z" fill="black"/>
<path d="M213.811 193.456C213.811 194.589 213.711 195.656 213.511 196.656C212.711 200.456 210.511 203.656 207.511 205.856H189.511C186.511 203.656 184.311 200.456 183.511 196.656C183.311 195.656 183.211 194.589 183.211 193.456C183.211 192.323 183.344 191.223 183.611 190.156C183.811 189.223 184.078 188.356 184.411 187.556H212.611C212.944 188.356 213.211 189.223 213.411 190.156C213.678 191.223 213.811 192.323 213.811 193.456Z" fill="#7977C6"/>
<path d="M213.812 193.456C213.812 194.589 213.712 195.656 213.512 196.656C212.712 200.456 210.512 203.656 207.512 205.856H189.512C213.012 207.056 212.612 187.556 212.612 187.556C212.945 188.356 213.212 189.223 213.412 190.156C213.678 191.223 213.812 192.323 213.812 193.456Z" fill="black"/>
<path fill-rule="evenodd" clip-rule="evenodd" d="M210.811 43.1558C209.611 45.5558 208.011 47.6558 206.111 49.4558L208.611 54.4558L201.011 59.0558L197.711 54.5558C195.311 55.3558 192.711 55.7558 190.011 55.7558L188.211 61.0558L179.611 58.8558L180.511 53.3558C178.111 52.1558 176.011 50.5558 174.211 48.7558L169.111 51.1558L164.611 43.6558L169.111 40.2558C168.311 37.8558 167.911 35.2558 167.911 32.5558L162.611 30.7558L164.711 22.1558L170.311 23.0558C171.511 20.6558 173.011 18.5558 174.911 16.7558L172.411 11.7558L180.011 7.15576L183.311 11.6558C185.811 10.8558 188.411 10.4558 191.011 10.5558L192.911 5.15576L201.511 7.35576L200.611 12.8558C203.011 14.0558 205.111 15.6558 206.911 17.4558L211.911 15.0558L216.511 22.6558L212.011 25.9558C212.811 28.3558 213.211 30.9558 213.111 33.6558L218.411 35.4558L216.311 44.0558L210.811 43.1558ZM206.111 36.9558C208.311 28.3558 203.011 19.6558 194.411 17.5558C185.811 15.3558 177.111 20.6558 175.011 29.2558C172.911 37.8558 178.111 46.5558 186.711 48.6558C195.311 50.7558 204.011 45.5558 206.111 36.9558Z" fill="#7977C6"/>
<path fill-rule="evenodd" clip-rule="evenodd" d="M219.211 81.1558C218.745 82.0891 218.111 82.9224 217.311 83.6558L218.411 85.7558L215.311 87.6558L213.911 85.7558C212.911 86.0891 211.878 86.2558 210.811 86.2558L210.011 88.4558L206.511 87.5558L206.911 85.2558C205.911 84.7891 205.045 84.1558 204.311 83.3558L202.211 84.3558L200.411 81.2558L202.211 79.9558C201.878 78.9558 201.711 77.8891 201.711 76.7558L199.611 76.0558L200.411 72.5558L202.711 72.8558C203.178 71.9224 203.811 71.0891 204.611 70.3558L203.611 68.2558L206.711 66.3558L208.011 68.2558C209.011 67.9224 210.078 67.7558 211.211 67.7558L211.911 65.6558L215.411 66.4558L215.111 68.7558C216.045 69.2224 216.878 69.8558 217.611 70.6558L219.711 69.6558L221.611 72.7558L219.711 74.0558C220.045 75.0558 220.211 76.1224 220.211 77.2558L222.411 77.9558L221.511 81.4558L219.211 81.1558ZM217.311 78.6558C218.211 75.1558 216.011 71.5558 212.511 70.7558C209.011 69.8558 205.411 71.9558 204.611 75.4558C203.711 78.9558 205.911 82.5558 209.411 83.4558C212.911 84.2558 216.411 82.1558 217.311 78.6558Z" fill="black"/>
<path fill-rule="evenodd" clip-rule="evenodd" d="M89.1113 156.156C88.0113 158.256 86.6113 160.156 84.9113 161.756L87.2113 166.356L80.3113 170.556L77.3113 166.356C75.1113 167.156 72.7113 167.556 70.3113 167.456L68.7113 172.256L60.9113 170.356L61.7113 165.356C59.5113 164.256 57.6113 162.856 56.0113 161.156L51.5113 163.356L47.3113 156.556L51.4113 153.556C50.7113 151.356 50.3113 148.956 50.4113 146.556L45.6113 144.956L47.5113 137.156L52.5113 137.956C53.6113 135.756 55.0113 133.856 56.7113 132.256L54.4113 127.656L61.3113 123.556L64.3113 127.656C66.5113 126.956 68.9113 126.556 71.3113 126.556L72.9113 121.756L80.7113 123.756L79.9113 128.756C82.1113 129.856 84.0113 131.256 85.6113 132.956L90.1113 130.656L94.3113 137.556L90.2113 140.556C90.9113 142.756 91.3113 145.056 91.2113 147.456L96.0113 149.156L94.1113 156.956L89.1113 156.156ZM84.9113 150.456C86.8113 142.756 82.1113 134.856 74.3113 132.956C66.5113 131.056 58.7113 135.756 56.8113 143.556C54.8113 151.356 59.6113 159.156 67.3113 161.056C75.1113 162.956 83.0113 158.256 84.9113 150.456Z" fill="#AAB6C2"/>
<path d="M111.51 131.056H114.51V147.056H111.51V131.056Z" fill="#AAB6C2"/>
<path d="M35.709 130.356V33.356H190.309V130.356H35.709Z" fill="white"/>
<path fill-rule="evenodd" clip-rule="evenodd" d="M190.51 130.656H35.5098V33.1558H190.51V130.656ZM36.0098 33.5558V130.156H190.01V33.5558H36.0098Z" fill="black"/>
<path fill-rule="evenodd" clip-rule="evenodd" d="M105.01 152.356C105.01 147.856 108.61 144.356 113.01 144.356C117.41 144.356 121.01 147.856 121.01 152.356C121.01 156.756 117.41 160.356 113.01 160.356C108.61 160.356 105.01 156.756 105.01 152.356ZM108.61 152.356C108.61 154.756 110.61 156.656 113.01 156.656C115.41 156.656 117.41 154.756 117.41 152.356C117.41 149.956 115.41 147.956 113.01 147.956C110.61 147.956 108.61 149.956 108.61 152.356Z" fill="#7977C6"/>
<path d="M193.91 29.7558V35.5558C193.91 36.4558 193.21 37.1558 192.31 37.1558H33.7098C32.8098 37.1558 32.0098 36.4558 32.0098 35.5558V29.7558C32.0098 28.8558 32.8098 28.1558 33.7098 28.1558H192.31C193.21 28.1558 193.91 28.8558 193.91 29.7558Z" fill="black"/>
<path d="M193.91 127.256V133.056C193.91 133.956 193.21 134.656 192.31 134.656H33.7098C32.8098 134.656 32.0098 133.956 32.0098 133.056V127.256C32.0098 126.356 32.8098 125.656 33.7098 125.656H192.31C193.21 125.656 193.91 126.356 193.91 127.256Z" fill="black"/>
<path d="M151.809 114.256H77.8086V48.356H78.5086V113.556H151.809V114.256Z" fill="black"/>
<path d="M81.009 55.7562H75.209V55.0562H81.009V55.7562Z" fill="black"/>
<path d="M81.009 73.6561H75.209V72.9561H81.009V73.6561Z" fill="black"/>
<path d="M81.009 91.5561H75.209V90.9561H81.009V91.5561Z" fill="black"/>
<path d="M97.7098 116.756H97.0098V110.956H97.7098V116.756Z" fill="black"/>
<path d="M118.709 116.756H118.109V110.956H118.709V116.756Z" fill="black"/>
<path d="M139.809 116.756H139.109V110.956H139.809V116.756Z" fill="black"/>
<path d="M101.01 63.9561V65.4561H86.0098V63.9561H101.01Z" fill="black"/>
<path d="M117.81 68.356V69.856H86.0098V68.356H117.81Z" fill="black"/>
<path d="M111.21 72.7559L111.11 74.1559H86.0098V72.7559H111.21Z" fill="black"/>
<path d="M102.609 63.9561H107.209V65.4561H102.609V63.9561Z" fill="black"/>
<path d="M83.3086 106.556C83.3086 106.556 84.1086 106.656 85.5086 106.556C84.7753 106.556 84.0419 106.556 83.3086 106.556Z" fill="black"/>
<path d="M138.108 63.7559C137.375 66.0225 136.574 68.2225 135.708 70.3559L135.208 71.4559C135.008 71.8559 134.841 72.2225 134.708 72.5559C134.508 72.9559 134.341 73.3225 134.208 73.6559L133.608 74.7559L133.408 75.3559L133.108 75.8559L132.508 76.9559C132.308 77.2892 132.108 77.6559 131.908 78.0559C131.708 78.3892 131.508 78.7225 131.308 79.0559C127.908 84.7559 123.608 89.9559 118.508 94.1559C115.908 96.2559 113.208 98.1559 110.408 99.7559C107.541 101.289 104.574 102.589 101.508 103.656C100.041 104.123 98.5411 104.556 97.0078 104.956C95.4745 105.356 93.9412 105.656 92.4078 105.856C90.8745 106.123 89.3745 106.323 87.9078 106.456C87.1078 106.523 86.3078 106.556 85.5078 106.556C90.5078 106.356 103.008 104.456 116.308 91.6559C120.708 87.4559 124.308 82.4559 127.008 77.1559C129.208 72.7559 130.908 68.1559 132.108 63.3559L125.808 62.9559L138.208 47.2559L144.508 64.2559L138.108 63.7559Z" fill="black"/>
<path d="M85.209 106.656C85.209 106.656 86.009 106.756 87.409 106.656C86.6757 106.656 85.9423 106.656 85.209 106.656Z" fill="#7977C6"/>
<path d="M140.008 63.9561C139.275 66.1561 138.442 68.3227 137.508 70.4561L137.108 71.5561C136.908 71.9561 136.742 72.3227 136.608 72.6561C136.408 73.0561 136.208 73.4227 136.008 73.7561L135.508 74.8561L135.208 75.4561L134.908 75.9561L134.408 77.0561C134.208 77.4561 134.008 77.8227 133.808 78.1561C133.608 78.4894 133.375 78.8561 133.108 79.2561C129.808 84.8561 125.508 90.0561 120.408 94.2561C117.808 96.3561 115.108 98.2561 112.208 99.8561C109.342 101.389 106.408 102.689 103.408 103.756C101.942 104.223 100.442 104.656 98.9082 105.056C97.3749 105.456 95.8415 105.789 94.3082 106.056C92.7748 106.256 91.2415 106.423 89.7082 106.556C88.9749 106.623 88.2082 106.656 87.4082 106.656C92.3082 106.456 104.908 104.556 118.208 91.7561C122.608 87.5561 126.208 82.6561 128.908 77.2561C131.108 72.8561 132.708 68.2561 133.908 63.5561L127.708 63.0561L140.108 47.4561L146.308 64.3561L140.008 63.9561Z" fill="#7977C6"/>
<path d="M138.209 47.2559L140.109 47.4559L138.809 48.9559L138.209 47.2559Z" fill="black"/>
<path d="M170.911 48.5557V49.9557H158.311V48.5557H170.911Z" fill="black"/>
<path d="M185.011 52.9556V54.3556H158.311V52.9556H185.011Z" fill="black"/>
<path d="M179.411 57.2559V58.7559H158.311V57.2559H179.411Z" fill="black"/>
<path d="M172.211 48.5557H176.111V49.9557H172.211V48.5557Z" fill="black"/>
<path d="M170.911 66.9556V68.4556H158.311V66.9556H170.911Z" fill="black"/>
<path d="M185.011 71.3555V72.7555H158.311V71.3555H185.011Z" fill="black"/>
<path d="M179.411 75.7554V77.1554H158.311V75.7554H179.411Z" fill="black"/>
<path d="M172.211 66.9556H176.111V68.4556H172.211V66.9556Z" fill="black"/>
<path d="M170.911 85.3555V86.8555H158.311V85.3555H170.911Z" fill="black"/>
<path d="M185.011 89.7554V91.2554H158.311V89.7554H185.011Z" fill="black"/>
<path d="M179.411 94.1553V95.6553H158.311V94.1553H179.411Z" fill="black"/>
<path d="M172.211 85.3555H176.111V86.8555H172.211V85.3555Z" fill="black"/>
<path d="M170.911 103.855V105.255H158.311V103.855H170.911Z" fill="black"/>
<path d="M185.011 108.155V109.655H158.311V108.155H185.011Z" fill="black"/>
<path d="M179.411 112.556V114.056H158.311V112.556H179.411Z" fill="black"/>
<path d="M172.211 103.855H176.111V105.255H172.211V103.855Z" fill="black"/>
<path d="M54.6098 48.5557V49.9557H42.0098V48.5557H54.6098Z" fill="black"/>
<path d="M68.8098 52.9556V54.3556H42.0098V52.9556H68.8098Z" fill="black"/>
<path d="M63.2098 57.2559V58.7559H42.0098V57.2559H63.2098Z" fill="black"/>
<path d="M56.0101 48.5557H59.8101V49.9557H55.9102L56.0101 48.5557Z" fill="black"/>
<path d="M54.6098 66.9556V68.4556H42.0098V66.9556H54.6098Z" fill="black"/>
<path d="M68.8098 71.3555V72.7555H42.0098V71.3555H68.8098Z" fill="black"/>
<path d="M63.2098 75.7554V77.1554H42.0098V75.7554H63.2098Z" fill="black"/>
<path d="M56.0101 66.9556H59.8101V68.4556H55.9102L56.0101 66.9556Z" fill="black"/>
<path d="M54.6098 85.3555V86.8555H42.0098V85.3555H54.6098Z" fill="black"/>
<path d="M68.8098 89.7554V91.2554H42.0098V89.7554H68.8098Z" fill="black"/>
<path d="M63.2098 94.1553V95.6553H42.0098V94.1553H63.2098Z" fill="black"/>
<path d="M56.0101 85.3555H59.8101V86.8555H55.9102L56.0101 85.3555Z" fill="black"/>
<path d="M54.6098 103.855V105.255H42.0098V103.855H54.6098Z" fill="black"/>
<path d="M68.8098 108.155V109.655H42.0098V108.155H68.8098Z" fill="black"/>
<path d="M63.2098 112.556V114.056H42.0098V112.556H63.2098Z" fill="black"/>
<path d="M56.0101 103.855H59.8101V105.255H55.9102L56.0101 103.855Z" fill="black"/>
<path d="M77.8101 112.856C76.6101 112.456 74.9102 112.056 72.9102 111.656C68.3102 110.556 61.9101 109.156 57.2101 105.856C49.6101 100.556 43.4102 81.856 44.1102 78.856C44.3102 77.856 44.2101 77.356 44.0101 77.156C43.9101 76.956 43.8101 76.956 43.8101 76.956H43.4102L43.6102 76.656C43.8102 76.156 49.4101 65.856 52.7101 65.856C53.1768 65.856 53.5768 66.056 53.9102 66.456C55.5102 68.056 57.1101 73.056 59.2101 79.356C60.7101 83.756 62.4101 88.756 64.3101 93.456C66.6101 99.156 73.0101 103.656 77.2101 106.656C79.6101 108.456 80.8102 109.356 80.9102 109.956C80.9102 110.089 80.8435 110.223 80.7101 110.356C80.5768 110.489 80.4101 110.689 80.2101 110.956C79.6101 111.656 78.9101 112.456 78.0101 112.856L77.9102 112.956L77.8101 112.856Z" fill="white"/>
<path fill-rule="evenodd" clip-rule="evenodd" d="M52.7098 66.1558C53.1098 66.1558 53.4431 66.2891 53.7098 66.5558C56.3098 69.2558 59.4098 82.1558 64.1098 93.5558C67.8098 102.656 81.8098 108.956 80.5098 110.156C80.0098 110.756 79.0098 112.156 77.9098 112.656C73.6098 111.156 64.0098 110.356 57.3098 105.656C49.9098 100.456 43.6098 82.0558 44.3098 78.8558C44.8098 76.8558 43.8098 76.7558 43.8098 76.7558C43.8098 76.7558 49.5098 66.1558 52.7098 66.1558ZM52.7098 65.6558C49.3098 65.6558 44.0098 75.3558 43.4098 76.4558L43.0098 77.2558H43.7098C43.8098 77.2558 44.1098 77.6558 43.8098 78.7558C43.0098 82.3558 49.6098 100.856 57.0098 106.056C61.8098 109.456 68.2098 110.856 72.8098 111.856C74.8098 112.356 76.5098 112.656 77.7098 113.156H77.9098H78.1098C79.0098 112.656 79.8098 111.756 80.4098 111.156C80.6098 110.889 80.7765 110.689 80.9098 110.556C81.0431 110.356 81.1098 110.156 81.1098 109.956C81.0098 109.156 80.0098 108.356 77.3098 106.456C73.1098 103.556 66.8098 98.9558 64.5098 93.3558C62.6098 88.6558 60.9098 83.6558 59.5098 79.2558C57.4098 72.9558 55.7098 67.8558 54.1098 66.2558C53.7098 65.8558 53.2431 65.6558 52.7098 65.6558Z" fill="black"/>
<path d="M49.7094 200.556C48.4094 200.556 47.6094 200.456 47.5094 200.256C47.1094 199.956 47.2094 196.656 47.4094 195.256C47.9094 195.156 49.8094 194.856 51.4094 194.856C52.8094 194.856 53.0094 195.056 53.0094 195.056C53.4094 195.556 53.2094 198.556 53.1094 199.956C53.1094 200.156 51.9094 200.556 49.7094 200.556Z" fill="white"/>
<path fill-rule="evenodd" clip-rule="evenodd" d="M53.2099 194.956C53.7099 195.556 53.4099 199.156 53.3099 199.956C53.3099 200.556 51.4099 200.756 49.7099 200.756C48.5099 200.756 47.5099 200.656 47.3099 200.456C46.8099 199.956 47.0099 196.156 47.2099 195.156C47.2099 194.956 49.6099 194.656 51.4099 194.656C52.3099 194.656 53.0099 194.756 53.2099 194.956ZM47.7099 195.456C47.5099 196.756 47.4099 199.556 47.7099 200.156C47.9099 200.156 48.5099 200.256 49.7099 200.256C51.5099 200.256 52.6099 200.056 52.8099 199.856C53.0099 198.356 53.1099 195.756 52.8099 195.256C52.7099 195.256 52.4099 195.156 51.4099 195.156C49.9099 195.156 48.2099 195.356 47.7099 195.456Z" fill="black"/>
<path d="M53.2102 200.256C53.2102 200.156 56.6102 200.056 60.0102 200.456C63.3102 200.956 63.2102 205.756 63.2102 205.756C59.3102 206.356 46.2102 205.756 46.2102 205.756C44.4102 202.956 46.9102 199.356 46.9102 199.356C49.4102 201.956 53.2102 200.156 53.2102 200.156V200.256Z" fill="black"/>
<path d="M20.8109 200.556C19.5109 200.556 18.711 200.456 18.611 200.256C18.211 199.956 18.3109 196.656 18.5109 195.256C18.9109 195.156 20.9109 194.856 22.5109 194.856C23.9109 194.856 24.111 195.056 24.111 195.056C24.411 195.556 24.3109 198.556 24.2109 199.956C24.1109 200.156 23.0109 200.556 20.8109 200.556Z" fill="white"/>
<path fill-rule="evenodd" clip-rule="evenodd" d="M24.3114 194.956C24.8114 195.556 24.5115 199.156 24.4115 199.956C24.4115 200.556 22.4114 200.756 20.8114 200.756C19.6114 200.756 18.6115 200.656 18.4115 200.456C17.9115 199.956 18.1114 196.156 18.3114 195.156C18.3114 194.956 20.7115 194.656 22.5115 194.656C23.4115 194.656 24.1114 194.756 24.3114 194.956ZM18.7115 195.456C18.6115 196.756 18.5115 199.556 18.7115 200.156C18.9115 200.156 19.6114 200.256 20.8114 200.256C22.6114 200.256 23.7115 200.056 23.9115 199.856C24.1115 198.356 24.1115 195.756 23.9115 195.256C23.8115 195.256 23.5115 195.156 22.5115 195.156C21.0115 195.156 19.3115 195.356 18.7115 195.456Z" fill="black"/>
<path d="M24.3098 200.256C24.3098 200.156 27.6099 200.056 31.0099 200.456C34.4099 200.956 34.3098 205.756 34.3098 205.756C30.4098 206.356 17.3098 205.756 17.3098 205.756C15.5098 202.956 18.0099 199.356 18.0099 199.356C20.5099 201.956 24.3098 200.156 24.3098 200.156V200.256Z" fill="black"/>
<path d="M61.3097 150.856C61.3097 162.556 56.9097 187.156 53.9097 197.756H46.2097C46.2097 197.656 46.1097 185.556 46.2097 180.856C46.2097 172.356 43.8097 158.356 43.2097 150.656C42.9097 146.456 43.0097 136.156 40.4097 129.356C39.8764 128.089 39.4097 126.889 39.0097 125.756C37.4097 121.456 36.4097 118.156 37.1097 117.456C39.0097 115.256 55.3097 99.2558 59.4097 108.056C63.7097 117.356 61.3097 139.156 61.3097 150.856Z" fill="black"/>
<path d="M50.2098 197.756C48.1098 197.856 47.0098 197.756 46.2098 197.756C46.2098 197.656 47.0098 189.956 45.6098 178.656C41.9098 149.256 39.4098 126.856 39.0098 125.756C39.9098 123.956 41.2098 122.156 43.3098 122.156C45.0098 122.156 46.2098 123.256 46.5098 124.856C47.1098 127.856 45.8098 131.556 45.8098 134.656C45.9098 138.956 46.8098 143.156 47.6098 147.456C48.4098 151.056 49.1098 154.756 49.2098 158.456C49.4098 162.856 48.8098 167.156 48.9098 171.456C49.0098 179.056 51.9098 190.056 50.2098 197.756Z" fill="black"/>
<path d="M18.1103 180.056C18.4103 176.256 18.3103 165.556 18.4103 161.856C18.5103 158.256 18.4103 154.756 18.3103 151.656C18.3103 150.589 18.3103 149.556 18.3103 148.556C18.4103 132.156 17.4103 125.356 22.5103 112.956C22.5769 112.756 22.6436 112.556 22.7103 112.356C23.5103 110.356 24.6103 108.256 26.0103 106.056C26.4103 105.356 27.3103 105.056 28.6103 105.256C31.8103 105.656 37.0103 108.456 41.3103 113.356C41.5769 113.622 41.8103 113.856 42.0103 114.056C42.0103 114.122 41.977 114.522 41.9103 115.256C41.9103 116.756 41.5103 119.456 40.9103 123.156C40.6103 124.656 40.4103 131.556 40.1103 133.356C38.7103 140.956 36.9103 145.656 35.8103 155.556C34.4103 167.156 28.2103 185.756 25.2103 198.156H21.3103H17.5103C17.2103 196.156 17.5103 186.656 18.1103 180.056Z" fill="black"/>
<path d="M29.8108 118.856C28.7441 118.856 27.7441 118.856 26.8108 118.856C23.0775 118.656 21.0108 118.189 20.6108 117.456C20.3108 116.756 20.4108 113.856 20.7108 108.756C20.9108 104.456 21.1108 99.0559 21.0108 94.5559C20.9441 93.0892 20.9108 91.6225 20.9108 90.1559C20.8108 81.8559 21.3108 71.6559 23.7108 69.7559C24.1108 69.4559 24.6108 69.0559 25.3108 68.5559C26.3108 67.8892 27.3442 67.2559 28.4108 66.6559C30.5108 65.5559 32.7108 64.7559 34.9108 64.1559C37.2108 63.5559 39.5108 63.2559 41.8108 63.2559C43.8775 63.2559 45.9108 63.4892 47.9108 63.9559L48.1108 64.0559C49.3108 64.3225 50.4441 64.6559 51.5108 65.0559C51.7108 65.1225 51.9108 65.2225 52.1108 65.3559H52.4108C56.4108 67.0559 56.0108 75.1559 55.3108 83.4559L55.2108 84.4559C55.0108 87.5559 54.7108 90.1559 54.8108 91.8559C54.9108 92.6559 55.0108 93.2559 55.1108 93.7559C55.6108 96.6559 57.5108 100.956 59.1108 104.756C60.5108 107.956 61.9108 111.056 62.2108 112.956V113.056C61.9108 113.956 44.8108 117.556 42.0108 117.956C38.4108 118.556 33.9108 118.856 29.8108 118.856Z" fill="white"/>
<path fill-rule="evenodd" clip-rule="evenodd" d="M48.0103 63.7557L48.3103 63.8557C49.4436 64.1223 50.5437 64.4557 51.6103 64.8557C51.8103 64.9223 52.0103 64.989 52.2103 65.0557L52.5103 65.1557C56.7103 66.8557 56.3103 75.1557 55.6103 83.4557L55.5103 84.5557C55.2103 87.5557 55.0103 90.1557 55.1103 91.8557C55.1103 92.5557 55.2103 93.1557 55.3103 93.7557C55.8103 96.6557 57.7103 100.856 59.3103 104.656C60.8103 107.956 62.1103 110.956 62.5103 112.856V112.956L62.4103 113.056C62.3103 113.456 62.2103 113.756 53.8103 115.756C49.1103 116.856 44.3103 117.856 42.1103 118.256C38.4103 118.856 33.9103 119.156 29.8103 119.156C28.7436 119.156 27.7436 119.122 26.8103 119.056C21.0103 118.756 20.6103 117.856 20.4103 117.556C20.0103 116.756 20.1103 113.956 20.4103 108.756C20.6103 104.456 20.9103 99.0557 20.8103 94.5557C20.7103 93.1557 20.7103 91.7557 20.7103 90.1557C20.6103 81.7557 21.0103 71.4557 23.5103 69.5557C24.0103 69.2557 24.5103 68.8557 25.2103 68.3557C26.2103 67.689 27.2436 67.0557 28.3103 66.4557C30.4103 65.3557 32.6103 64.5557 34.9103 63.9557C37.2103 63.3557 39.5103 63.0557 41.8103 63.0557C43.8769 63.0557 45.9436 63.289 48.0103 63.7557ZM35.0103 64.4557C32.6103 65.0557 30.4103 65.9557 28.6103 66.9557C27.4103 67.5557 26.3436 68.1557 25.4103 68.7557C24.8103 69.1557 24.2769 69.5557 23.8103 69.9557C21.7103 71.5557 21.1103 80.6557 21.2103 90.1557C21.2103 91.6223 21.2436 93.089 21.3103 94.5557C21.5103 103.556 20.2103 115.956 20.8103 117.356C21.2103 117.956 23.5103 118.456 26.8103 118.556C27.7436 118.622 28.7436 118.656 29.8103 118.656C33.6103 118.656 38.1103 118.356 42.0103 117.756C46.6103 117.056 61.8103 113.556 62.0103 112.956C61.3103 108.956 55.7103 99.2557 54.8103 93.8557C54.7436 93.189 54.677 92.5223 54.6103 91.8557C54.5103 89.9557 54.8103 86.8557 55.1103 83.4557C55.7103 76.0557 56.3103 67.2557 52.3103 65.6557C51.9769 65.5223 51.677 65.4223 51.4103 65.3557C50.2103 64.889 49.0436 64.5223 47.9103 64.2557C47.8436 64.2557 47.8103 64.2557 47.8103 64.2557C45.8103 63.7557 43.7103 63.5557 41.8103 63.5557C39.4103 63.5557 37.1103 63.8557 35.0103 64.4557Z" fill="black"/>
<path d="M28.8099 71.0559C28.9099 71.1559 32.11 74.5559 30.91 80.4559C29.91 85.3559 27.61 89.2559 26.61 94.1559C25.61 98.9559 26.11 103.656 26.51 108.456C26.71 110.656 26.91 112.889 27.11 115.156C27.21 116.356 27.4099 117.556 26.8099 118.556C23.5099 118.456 21.2099 117.956 20.8099 117.356C20.2099 115.956 21.5099 103.556 21.3099 94.5559C21.2433 93.0892 21.21 91.6226 21.21 90.1559C21.41 89.6892 21.6433 89.2226 21.91 88.7559C24.11 85.1559 24.51 76.4559 27.11 73.1559C27.51 72.5559 29.2099 70.4559 28.8099 71.0559Z" fill="black"/>
<path d="M38.3105 63.5559L39.3105 63.3559L42.5106 64.6559C42.5106 64.2559 42.6106 63.6559 43.1106 63.4559C43.2439 63.3225 43.4772 63.2559 43.8105 63.2559C44.5105 63.2559 45.4106 63.5559 45.4106 63.5559H45.5106L48.5106 68.3559L44.3105 65.8559L40.5106 68.7559L38.3105 63.5559Z" fill="#FDFCFF"/>
<path fill-rule="evenodd" clip-rule="evenodd" d="M45.5098 63.2557L45.7098 63.3557L45.8098 63.5557L48.1098 67.3557L49.2098 69.1557L47.4098 68.0557L44.3098 66.1557L40.9098 68.7557L40.4098 69.1557L40.2098 68.5557L38.2098 63.9557L38.0098 63.3557L38.6098 63.2557L39.2098 63.1557H39.4098H39.5098L42.3098 64.3557C42.3098 63.8557 42.5098 63.3557 43.0098 63.1557C43.2098 63.089 43.4764 63.0557 43.8098 63.0557C44.6098 63.0557 45.5098 63.2557 45.5098 63.2557ZM43.2098 63.6557C42.5098 63.9557 42.9098 65.0557 42.9098 65.0557L39.3098 63.6557L38.7098 63.7557L40.6098 68.3557L44.3098 65.5557L47.7098 67.6557L45.4098 63.7557C45.4098 63.7557 44.5098 63.5557 43.8098 63.5557C43.5431 63.5557 43.3431 63.589 43.2098 63.6557Z" fill="#20110E"/>
<path d="M43.8098 65.3557C42.1098 65.3557 40.0098 63.8557 39.5098 63.5557V58.0557L44.0098 59.8557V63.7557H44.1098C44.3098 64.1557 44.6098 64.8557 44.4098 65.1557C44.4098 65.2557 44.4098 65.2557 44.2098 65.3557C44.0764 65.3557 43.9431 65.3557 43.8098 65.3557Z" fill="white"/>
<path fill-rule="evenodd" clip-rule="evenodd" d="M44.3105 59.7558V63.6558C44.3105 63.6558 45.2105 65.3558 44.3105 65.5558C44.1105 65.6224 43.9439 65.6558 43.8105 65.6558C41.8105 65.6558 39.3105 63.6558 39.3105 63.6558V57.6558L44.3105 59.7558ZM39.8105 63.4558C40.4105 63.8558 42.3105 65.1558 43.8105 65.1558C43.9439 65.1558 44.0772 65.1224 44.2106 65.0558C44.3106 64.9558 44.1105 64.3558 43.8105 63.9558V63.8558V60.0558L39.8105 58.4558V63.4558Z" fill="black"/>
<path d="M42.3117 60.6554C41.1117 60.6554 39.9117 60.1554 38.8117 59.1554C35.8117 56.0554 36.4117 51.5554 36.5117 50.6554L44.4118 50.2554C44.7118 50.9554 46.1118 54.3554 46.4118 57.3554C46.4118 57.9554 46.2118 58.6554 45.6118 59.2554C44.8118 60.1554 43.6117 60.6554 42.3117 60.6554Z" fill="white"/>
<path fill-rule="evenodd" clip-rule="evenodd" d="M46.6112 57.3556C46.8112 58.9556 44.7111 60.9556 42.3111 60.9556C41.1111 60.9556 39.8112 60.4556 38.7112 59.2556C35.1112 55.6556 36.3111 50.3556 36.3111 50.3556L44.6112 49.9556C44.6112 49.9556 46.3112 53.8556 46.6112 57.3556ZM36.7112 50.8556C36.5112 52.0556 36.2111 56.0556 39.0111 58.9556C40.0111 59.9556 41.1111 60.4556 42.3111 60.4556C43.5111 60.4556 44.7112 59.9556 45.4112 59.0556C45.9112 58.5556 46.2112 57.8556 46.1112 57.3556C45.9112 54.5556 44.7111 51.4556 44.3111 50.5556L36.7112 50.8556Z" fill="black"/>
<path d="M46.8106 49.2558C45.2106 51.9558 40.9106 52.2558 37.7106 52.3558C37.8106 52.6558 37.8106 53.0558 37.8106 53.2558C38.0106 54.4558 38.7106 55.9558 38.3106 57.1558C38.0106 57.9558 37.2106 58.3558 36.4106 58.1558C35.8106 57.9558 35.6106 57.5558 35.5106 57.1558C34.1106 55.1558 33.8106 51.4558 35.1106 49.5558C36.0106 48.3558 37.2106 47.9558 38.6106 47.6558C39.7106 47.4558 40.6106 47.2558 41.5106 46.6558C42.1106 46.2558 42.5106 45.8558 43.2106 45.7558C45.8106 45.0558 48.5106 46.5558 46.8106 49.2558Z" fill="black"/>
<path d="M46.111 66.6557L45.5109 68.2557L44.111 68.3557L42.7109 66.7557L44.3109 65.5557L46.111 66.6557Z" fill="#7977C6"/>
<path d="M45.5098 68.2559C45.5098 68.2559 49.3098 77.0559 48.2098 86.8559L45.5098 89.7559L43.5098 87.3559C43.5098 87.3559 45.5098 74.6559 44.1098 68.3559L45.5098 68.2559Z" fill="#7977C6"/>
<path d="M81.4115 114.955C80.4115 114.955 79.3115 114.155 78.1115 112.455C77.4115 110.955 78.6115 109.755 78.8115 109.555C78.9448 109.489 79.1782 109.455 79.5115 109.455L79.7115 109.355V109.155C79.7115 109.055 79.7115 108.755 81.0115 108.355C81.1448 108.355 81.2782 108.355 81.4115 108.355C82.2115 108.355 83.2115 108.755 83.4115 109.055C83.5115 109.255 83.5115 109.355 83.4115 109.455C83.3449 109.522 83.2449 109.555 83.1115 109.555C83.0449 109.555 82.9782 109.522 82.9115 109.455C82.6115 109.355 82.2115 109.255 82.1115 109.255H80.5115L82.0115 109.755C82.6115 109.955 83.1782 110.222 83.7115 110.555C84.2115 110.755 84.6115 111.755 84.6115 111.955C84.5115 112.055 84.5115 112.055 84.5115 112.055C84.3115 112.055 84.3115 111.955 84.2115 111.855C84.1115 111.455 83.6115 111.055 83.2115 111.055C83.0782 111.055 82.9782 111.055 82.9115 111.055C82.8115 111.155 82.7115 111.455 82.3115 113.055C82.1115 113.655 81.9115 114.555 81.8115 114.955C81.6782 114.955 81.5449 114.955 81.4115 114.955Z" fill="white"/>
<path fill-rule="evenodd" clip-rule="evenodd" d="M83.6112 108.856C83.7112 109.156 83.8111 109.356 83.5111 109.656C83.4445 109.722 83.3112 109.756 83.1112 109.756C82.9778 109.756 82.8445 109.722 82.7111 109.656C82.6111 109.556 82.3112 109.556 82.1112 109.556C82.0445 109.556 82.0111 109.556 82.0111 109.556C82.6111 109.756 83.2445 110.022 83.9111 110.356C84.4111 110.556 84.9111 111.656 84.8111 111.956C84.8111 112.156 84.7111 112.356 84.5111 112.356C84.4445 112.356 84.4111 112.356 84.4111 112.356C84.2111 112.356 84.0111 112.156 84.0111 111.956C83.9111 111.656 83.4111 111.256 83.2111 111.256C83.1445 111.256 83.1112 111.256 83.1112 111.256C82.8112 111.456 82.1111 115.256 81.9111 115.256C81.8445 115.256 81.8111 115.222 81.8111 115.156C81.6778 115.222 81.5445 115.256 81.4111 115.256C80.4111 115.256 79.3111 114.556 77.9111 112.656C77.1111 110.956 78.3112 109.556 78.6112 109.356C78.8112 109.222 79.0778 109.156 79.4111 109.156C79.4111 108.856 79.8111 108.456 80.9111 108.156C81.0445 108.089 81.2111 108.056 81.4111 108.056C82.2111 108.056 83.4112 108.556 83.6112 108.856ZM80.0111 109.656H79.5111C79.1111 109.656 79.0111 109.756 78.9111 109.856C78.7111 109.956 77.7111 111.056 78.3111 112.356C79.5111 113.956 80.5111 114.756 81.4111 114.756C81.4778 114.756 81.5445 114.722 81.6112 114.656C81.7112 114.256 81.9111 113.556 82.0111 113.056C82.5111 111.256 82.5111 111.056 82.8111 110.856C82.9444 110.789 83.0778 110.756 83.2111 110.756C83.4111 110.756 83.7111 110.856 84.0111 111.156C83.8778 110.956 83.7445 110.822 83.6112 110.756C83.0778 110.422 82.5111 110.189 81.9111 110.056L80.0111 109.356V109.656ZM81.1112 108.656C80.5112 108.856 80.2111 109.056 80.0111 109.156L82.0111 109.056C82.2111 109.056 82.6111 109.156 82.9111 109.256C82.9778 109.322 83.0445 109.356 83.1112 109.356C83.1778 109.356 83.2111 109.322 83.2111 109.256C83.2111 109.256 83.1778 109.256 83.1112 109.256C83.0112 109.056 82.1111 108.656 81.4111 108.656C81.2778 108.656 81.1778 108.656 81.1112 108.656Z" fill="black"/>
<path d="M82.4106 115.756C82.3106 115.756 82.1106 115.656 81.9106 115.556C81.5106 115.356 81.3105 114.956 81.3105 114.656C81.3105 114.389 81.4439 114.189 81.7106 114.056L82.0106 113.956L81.8105 113.656C81.7105 113.556 81.6106 113.456 81.6106 113.356C81.5439 113.222 81.5106 113.089 81.5106 112.956C81.5772 112.822 81.7106 112.756 81.9106 112.756H82.5106L82.2106 112.356C82.1439 112.222 82.1106 112.122 82.1106 112.056C82.1773 111.922 82.2439 111.822 82.3105 111.756C82.5772 111.622 82.8439 111.556 83.1106 111.556H83.7106L83.3105 111.056H83.2106L83.1106 110.956C82.8106 110.856 82.5105 110.656 82.3105 110.456C82.3105 110.322 82.3439 110.189 82.4106 110.056C82.4106 110.056 82.4773 110.056 82.6106 110.056C83.0106 110.056 83.6106 110.256 84.0106 110.556C84.6106 110.856 84.8106 111.256 84.6106 111.856C84.5439 112.122 84.3773 112.322 84.1106 112.456L83.8105 112.556L83.9106 112.756C84.1106 113.256 84.1106 113.756 83.7106 114.056H83.4106L83.3105 114.256C83.3105 114.389 83.2772 114.522 83.2106 114.656C83.2106 114.722 83.1773 114.789 83.1106 114.856L83.0106 114.956V115.056C82.7106 115.556 82.6106 115.756 82.4106 115.756Z" fill="white"/>
<path fill-rule="evenodd" clip-rule="evenodd" d="M84.2108 110.356C84.7108 110.656 85.0108 111.156 84.9108 111.856C84.8108 112.256 84.5108 112.556 84.2108 112.656C84.2108 112.723 84.2108 112.756 84.2108 112.756C84.4108 113.256 84.3108 113.956 83.8108 114.256C83.7441 114.256 83.6775 114.256 83.6108 114.256C83.6108 114.456 83.5441 114.623 83.4108 114.756C83.3441 114.889 83.2774 114.989 83.2108 115.056C83.2108 115.056 83.2108 115.089 83.2108 115.156C82.9108 115.756 82.7108 116.056 82.4108 116.056C82.2775 116.056 82.0774 115.989 81.8108 115.856C81.0108 115.356 80.6108 114.256 81.6108 113.856C81.5441 113.723 81.4441 113.589 81.3108 113.456C81.1108 113.056 81.4108 112.556 81.9108 112.456C81.9775 112.456 82.0108 112.456 82.0108 112.456C81.8108 112.256 81.8108 111.756 82.2108 111.556C82.4774 111.356 82.7775 111.256 83.1108 111.256C82.5108 111.056 81.8108 110.556 82.1108 109.956C82.2441 109.823 82.4108 109.756 82.6108 109.756C83.1108 109.756 83.7108 110.056 84.2108 110.356ZM82.6108 110.256C82.6108 110.323 82.6108 110.356 82.6108 110.356C82.6108 110.556 82.9108 110.656 83.2108 110.756C83.3108 110.756 83.4108 110.856 83.5108 110.856L84.3108 111.756H83.1108C82.8441 111.756 82.6441 111.823 82.5108 111.956C82.4441 111.956 82.4108 111.989 82.4108 112.056C82.4108 112.123 82.4108 112.156 82.4108 112.156L83.1108 112.956H82.1108C82.0441 112.956 81.9775 112.956 81.9108 112.956C81.8441 113.023 81.8108 113.056 81.8108 113.056C81.7441 113.123 81.7441 113.189 81.8108 113.256C81.8108 113.323 81.8441 113.389 81.9108 113.456L82.0108 113.556L82.4108 114.056L81.8108 114.256C81.6108 114.356 81.5108 114.556 81.5108 114.656C81.5108 114.856 81.7108 115.256 82.0108 115.356C82.2108 115.489 82.3441 115.556 82.4108 115.556C82.5108 115.456 82.6108 115.156 82.7108 114.956C82.7774 114.889 82.8108 114.856 82.8108 114.856V114.756H82.9108C82.9775 114.689 83.0108 114.623 83.0108 114.556C83.0774 114.423 83.1108 114.323 83.1108 114.256L83.2108 113.856H83.5108L83.6108 113.756C83.8108 113.656 83.8108 113.156 83.7108 112.956V112.856L83.5108 112.456L84.0108 112.256C84.2108 112.156 84.3108 111.956 84.4108 111.756C84.5108 111.356 84.4108 111.056 83.9108 110.756C83.5108 110.456 82.9108 110.256 82.6108 110.256Z" fill="black"/>
<path fill-rule="evenodd" clip-rule="evenodd" d="M12.0105 106.656L31.9105 83.8558C33.2105 82.3558 35.5105 82.1558 37.0105 83.4558L41.0105 86.9558C42.6105 85.0558 45.4104 84.8558 47.3104 86.4558C49.2104 88.1558 49.3105 90.9558 47.7105 92.8558L51.7105 96.3558C53.2105 97.6558 53.4105 99.8558 52.1105 101.456L32.2105 124.156C30.9105 125.756 28.6105 125.856 27.1105 124.556L12.4105 111.756C10.9105 110.356 10.7105 108.156 12.0105 106.656ZM46.5104 91.7558C47.6104 90.5558 47.5105 88.7558 46.2105 87.6558C45.0105 86.6558 43.2105 86.7558 42.2105 87.9558L46.5104 91.7558Z" fill="black"/>
<path d="M27.5105 121.755L15.1106 110.955C13.9106 109.855 13.7105 107.955 14.8105 106.655L32.6106 86.2555C33.7106 84.9555 35.6105 84.8555 36.9105 85.9555L49.2105 96.7555C50.5105 97.8555 50.6105 99.7555 49.5105 101.055L31.8105 121.455C30.7105 122.655 28.7105 122.855 27.5105 121.755Z" fill="#FDFCFF"/>
<path fill-rule="evenodd" clip-rule="evenodd" d="M29.5109 122.656C28.7109 122.656 28.0109 122.356 27.4109 121.856L15.0109 111.056C13.7109 109.956 13.5109 107.856 14.7109 106.556L32.5109 86.1557C33.0109 85.5557 33.8109 85.1557 34.7109 85.0557C35.5109 85.0557 36.3109 85.2557 37.0109 85.8557L49.4109 96.6557C50.0109 97.1557 50.4109 97.9557 50.4109 98.7557C50.5109 99.6557 50.2109 100.456 49.7109 101.156L31.9109 121.556C31.3109 122.156 30.5109 122.556 29.7109 122.656C29.6442 122.656 29.5776 122.656 29.5109 122.656ZM34.9109 85.3557C34.8442 85.3557 34.7776 85.3557 34.7109 85.3557C33.9109 85.4557 33.2109 85.7557 32.7109 86.3557L14.9109 106.756C14.4109 107.356 14.2109 108.056 14.2109 108.856C14.3109 109.656 14.6109 110.356 15.2109 110.856L27.6109 121.556C28.2109 122.056 28.9109 122.356 29.7109 122.256C30.4109 122.256 31.1109 121.856 31.6109 121.356L49.4109 100.956C49.9109 100.356 50.2109 99.5557 50.1109 98.8557C50.1109 98.0557 49.7109 97.3557 49.1109 96.8557L36.8109 86.0557C36.2109 85.6557 35.6109 85.3557 34.9109 85.3557Z" fill="#20110E"/>
<path d="M44.8107 94.7558L39.4108 90.0558C38.8108 89.5558 38.7108 88.7558 39.2108 88.1558L40.6108 86.6558L48.0107 93.1558L46.7108 94.6558C46.2108 95.2558 45.4107 95.2558 44.8107 94.7558Z" fill="#7977C6"/>
<path d="M46.2103 102.456C45.9436 102.456 45.7103 102.389 45.5103 102.256L32.2103 90.656C31.8103 90.356 31.8103 89.656 32.1103 89.256C32.5103 88.856 33.2103 88.756 33.6103 89.156L46.9103 100.656C47.3103 101.056 47.3103 101.756 47.0103 102.156C46.8103 102.356 46.5103 102.556 46.2103 102.456Z" fill="#AAB6C2"/>
<path d="M44.2103 104.756C43.9436 104.756 43.7103 104.689 43.5103 104.556L30.2103 92.9555C29.8103 92.6555 29.8103 91.9555 30.1103 91.5555C30.5103 91.0555 31.2103 91.0555 31.6103 91.4555L44.9103 102.956C45.3103 103.356 45.3103 104.056 45.0103 104.456C44.8103 104.656 44.5103 104.756 44.2103 104.756Z" fill="#AAB6C2"/>
<path d="M40.2104 109.356C39.9438 109.356 39.7104 109.289 39.5104 109.156L26.3104 97.5556C25.8104 97.1556 25.8104 96.5556 26.2104 96.1556C26.5104 95.6556 27.2105 95.6556 27.6105 96.0556L40.9104 107.556C41.3104 107.956 41.4104 108.556 41.0104 109.056C40.8104 109.256 40.5104 109.356 40.2104 109.356Z" fill="#AAB6C2"/>
<path d="M38.2104 111.656C37.9438 111.656 37.7104 111.589 37.5104 111.456L24.3104 99.8558C23.8104 99.4558 23.8104 98.8558 24.2104 98.3558C24.5104 97.9558 25.2105 97.9558 25.6105 98.2558L38.9104 109.856C39.3104 110.256 39.4104 110.856 39.0104 111.356C38.8104 111.556 38.5104 111.656 38.2104 111.656Z" fill="#AAB6C2"/>
<path d="M36.2104 113.956C35.9438 113.956 35.7104 113.856 35.5104 113.656L22.3104 102.156C21.8104 101.756 21.8104 101.156 22.2104 100.656C22.5104 100.256 23.2105 100.256 23.6105 100.556L36.9104 112.156C37.3104 112.556 37.4104 113.156 37.0104 113.556C36.8104 113.856 36.5104 113.956 36.2104 113.956Z" fill="#AAB6C2"/>
<path d="M30.2097 120.856C30.0097 120.856 29.8098 120.756 29.6098 120.556L16.3097 109.056C15.9097 108.656 15.8097 107.956 16.2097 107.556C16.6097 107.156 17.2098 107.056 17.6098 107.456L30.9097 119.056C31.3097 119.356 31.4097 120.056 31.0097 120.456C30.8097 120.756 30.5097 120.856 30.2097 120.856Z" fill="#AAB6C2"/>
<path d="M38.7109 119.356C37.9109 119.356 36.9109 118.856 35.8109 117.756C34.7109 116.756 34.4109 115.456 35.1109 114.156C35.1776 114.023 35.2776 113.856 35.4109 113.656L35.6109 113.456L35.3109 113.356C35.3109 113.356 35.3109 113.256 35.3109 112.956C35.4109 112.156 35.8109 111.356 36.0109 111.356H36.1109C37.0109 110.756 38.9109 110.056 40.0109 110.056C40.0776 110.056 40.1443 110.056 40.2109 110.056C41.1443 110.189 41.9443 110.756 42.6109 111.756C42.7109 111.956 42.7109 112.156 42.6109 112.256C42.5109 112.456 42.3109 112.556 42.1109 112.556C42.0443 112.556 41.9776 112.523 41.9109 112.456C41.4109 112.156 40.8109 111.756 40.1109 111.756C40.1109 111.756 40.0776 111.756 40.0109 111.756C39.8776 111.756 39.7443 111.789 39.6109 111.856L39.1109 112.056L39.7109 112.356C40.6109 112.756 42.1109 113.356 42.3109 114.156C42.3776 114.423 42.3443 114.656 42.2109 114.856C42.1443 114.923 42.0776 114.989 42.0109 115.056L41.8109 115.256L41.9109 115.356C42.1109 115.756 42.1442 116.123 42.0109 116.456C41.8776 116.723 41.6109 116.856 41.2109 116.856H41.0109L40.8109 117.056V117.256C40.6776 117.723 40.3442 117.989 39.8109 118.056L39.5109 118.156L39.6109 118.456C39.7109 118.756 39.6109 119.056 39.3109 119.256C39.1109 119.323 38.9109 119.356 38.7109 119.356Z" fill="white"/>
<path fill-rule="evenodd" clip-rule="evenodd" d="M40.2111 109.856C41.4111 109.956 42.2111 110.656 42.8111 111.656C43.1111 112.156 42.6112 112.756 42.1112 112.756C41.9778 112.756 41.8445 112.723 41.7111 112.656C41.3111 112.356 40.7112 111.956 40.1112 111.956C40.1112 111.956 40.0778 111.956 40.0111 111.956C39.9445 111.956 39.8445 111.989 39.7111 112.056C41.0111 112.656 43.3112 113.656 42.4112 114.956C42.3445 115.089 42.2445 115.189 42.1112 115.256C42.3112 115.756 42.4111 116.156 42.2111 116.556C42.0111 116.956 41.6111 117.156 41.2111 117.156C41.1445 117.156 41.1112 117.156 41.1112 117.156C41.1112 117.223 41.1112 117.289 41.1112 117.356C40.9112 117.956 40.4111 118.256 39.8111 118.356C40.0111 118.756 39.9112 119.156 39.4112 119.456C39.2112 119.589 38.9778 119.656 38.7111 119.656C37.6111 119.656 36.3112 118.556 35.6112 117.956C34.5112 116.956 34.1111 115.456 34.8111 114.056C34.9445 113.923 35.0778 113.756 35.2111 113.556C34.7111 113.256 35.5111 111.056 36.0111 111.056C36.9111 110.556 38.8111 109.856 40.0111 109.856C40.0778 109.856 40.1445 109.856 40.2111 109.856ZM36.2111 111.556L36.1112 111.656V111.556C35.8112 111.856 35.5111 112.856 35.5111 113.156L35.9112 113.456L35.6112 113.856C35.4778 113.989 35.3778 114.156 35.3111 114.356C34.4111 115.856 35.5111 117.156 36.0111 117.556C37.0111 118.556 38.0111 119.156 38.7111 119.156C38.8445 119.156 38.9778 119.123 39.1112 119.056C39.4112 118.856 39.4111 118.656 39.3111 118.456L39.2111 117.956L39.7111 117.856C40.4111 117.756 40.5112 117.456 40.6112 117.256C40.6112 117.189 40.6112 117.123 40.6112 117.056L40.7111 116.656H41.1112H41.2111C41.6111 116.656 41.7111 116.456 41.8111 116.356C41.8111 116.156 41.9111 115.956 41.7111 115.556L41.5111 115.156L41.8111 114.856C41.8778 114.856 41.9445 114.823 42.0111 114.756C42.1111 114.456 42.1112 114.356 42.1112 114.256C41.9112 113.556 40.4112 112.956 39.6112 112.556L39.5111 112.456L38.5111 111.956L39.6112 111.556C39.7445 111.489 39.8778 111.456 40.0111 111.456C40.0111 111.456 40.0445 111.456 40.1112 111.456C40.9112 111.456 41.5111 111.956 42.0111 112.256C42.0111 112.256 42.0445 112.256 42.1112 112.256C42.2112 112.256 42.3112 112.256 42.4112 112.056C42.4112 111.956 42.4112 111.956 42.4112 111.956C41.7445 110.956 41.0111 110.423 40.2111 110.356C40.1445 110.356 40.0778 110.356 40.0111 110.356C39.0111 110.356 37.1111 111.056 36.2111 111.556Z" fill="black"/>
<path d="M28.0095 117.056C27.6762 117.056 27.3096 117.056 26.9096 117.056H26.8095C21.5095 116.856 17.3096 115.056 14.1096 111.656C13.7762 111.389 13.4762 111.056 13.2095 110.656C12.3095 109.556 11.0096 106.756 10.6096 104.856C10.0096 102.056 9.90954 96.4558 11.7095 90.0558C11.8429 89.5891 11.9762 89.0891 12.1096 88.5558C13.6096 83.7558 15.9095 79.1558 18.8095 74.9558C19.1429 74.5558 19.4762 74.1224 19.8095 73.6558L20.2095 73.2558C22.2095 70.5558 23.2095 69.2558 29.5095 66.1558H29.6096L29.8095 66.2558C29.8095 66.3558 31.3095 67.9558 32.7095 72.6558C32.8095 73.0558 32.9095 73.3558 33.0095 73.6558C33.2095 74.5224 33.3762 75.4224 33.5095 76.3558C34.0095 80.7558 32.7095 85.1558 29.7095 88.8558C29.3095 89.3891 28.9095 89.9558 28.5095 90.5558C28.2429 90.8891 27.9762 91.2224 27.7095 91.5558C26.3095 93.6224 25.2096 95.5224 24.4096 97.2558C24.2096 97.6558 24.0429 98.0558 23.9096 98.4558C23.1762 100.322 22.8095 101.989 22.8095 103.456C22.8095 103.656 22.8429 103.889 22.9096 104.156C23.1096 104.656 26.7095 107.656 29.3095 108.956C29.7095 109.156 30.1095 109.322 30.5095 109.456C33.9095 110.956 36.0096 111.456 36.1096 111.456L36.3095 111.556L35.8095 114.156L34.1096 116.656H34.0095C31.8095 116.956 30.0095 117.056 28.3095 117.056H28.2095H28.0095Z" fill="white"/>
<path fill-rule="evenodd" clip-rule="evenodd" d="M29.9105 66.0559C30.0105 66.1559 31.5105 67.8559 32.9105 72.5559V72.6559C33.0439 72.9225 33.1438 73.2225 33.2105 73.5559C33.4105 74.4892 33.5772 75.3892 33.7105 76.2559C34.2105 80.7559 32.9105 85.2559 29.9105 89.0559C29.5105 89.5892 29.1105 90.1225 28.7105 90.6559C28.4438 90.9892 28.1772 91.3559 27.9105 91.7559C26.6105 93.7559 25.4105 95.6559 24.6105 97.3559C24.4772 97.7559 24.3105 98.1559 24.1105 98.5559C23.4439 100.356 23.1105 101.989 23.1105 103.456C23.1105 103.656 23.1105 103.856 23.1105 104.056C23.5105 104.656 27.0105 107.456 29.4105 108.656C29.8105 108.856 30.2105 109.056 30.6105 109.256C33.9105 110.756 36.1105 111.256 36.1105 111.256L36.6105 111.356L36.5105 111.856L36.1105 114.156L36.0105 114.256V114.356L35.2105 115.556L34.4105 116.756L34.2105 116.856L34.0105 116.956C31.9105 117.156 30.1105 117.356 28.4105 117.356H28.2105H28.0105C27.6772 117.356 27.3105 117.356 26.9105 117.356H26.8105C21.4105 117.056 17.2105 115.356 13.9105 111.856C13.5772 111.523 13.2772 111.189 13.0105 110.856C12.0105 109.656 10.8105 106.756 10.4105 104.956C9.81052 102.056 9.71052 96.4559 11.4105 90.0559C11.5105 89.5559 11.7105 89.1559 11.9105 88.5559C13.4105 83.6559 15.6105 79.0559 18.6105 74.8559C18.9439 74.3892 19.2772 73.9559 19.6105 73.5559L20.0105 73.0559C22.0105 70.3559 23.0105 69.0559 29.3105 65.9559L29.7105 65.7559L29.9105 66.0559ZM20.0105 73.8559C19.6772 74.2559 19.3438 74.6892 19.0105 75.1559C15.7105 79.7559 13.6105 84.4559 12.3105 88.6559C12.1105 89.1892 11.9772 89.6892 11.9105 90.1559C10.1105 96.7559 10.2105 102.156 10.8105 104.856C11.2105 106.556 12.4105 109.356 13.3105 110.556C13.6438 110.889 13.9438 111.223 14.2105 111.556C17.9105 115.356 22.3105 116.656 26.8105 116.856C27.2105 116.856 27.5772 116.856 27.9105 116.856C28.0439 116.856 28.1438 116.856 28.2105 116.856C30.2105 116.856 32.1105 116.656 33.9105 116.456L34.7105 115.256L35.5105 114.056L36.0105 111.756C36.0105 111.756 33.8105 111.256 30.3105 109.756C29.9105 109.556 29.5105 109.356 29.1105 109.156C26.6105 107.856 22.7105 104.656 22.6105 104.256C22.5439 103.989 22.5105 103.723 22.5105 103.456C22.5105 101.856 22.9105 100.056 23.6105 98.3559C23.8105 97.9559 23.9772 97.5559 24.1105 97.1559C25.1105 95.1559 26.3105 93.1559 27.5105 91.4559C27.7772 91.1225 28.0105 90.7559 28.2105 90.3559C28.6772 89.8225 29.1105 89.2892 29.5105 88.7559C32.2105 85.2559 33.7105 80.7559 33.2105 76.3559C33.0772 75.4225 32.9105 74.5559 32.7105 73.7559C32.5772 73.3559 32.4772 73.0225 32.4105 72.7559C31.0105 68.0559 29.5105 66.4559 29.5105 66.4559C22.9105 69.6559 22.2105 70.8559 20.0105 73.8559Z" fill="black"/>
<path d="M34.0109 68.3557L35.2109 77.1557L32.111 79.1557L28.7109 66.8557L30.3109 66.0557L34.0109 68.3557Z" fill="#FDFCFF"/>
<path d="M56.5106 71.956C56.5106 72.356 57.6106 83.156 57.5106 83.356C57.5106 83.556 52.3105 82.356 52.3105 82.356L53.7106 66.856L54.8105 67.956C54.8105 67.956 56.4106 71.456 56.5106 71.956Z" fill="#FDFCFF"/>
<path d="M159.209 205.256L152.509 150.156C152.409 149.456 152.909 148.756 153.609 148.656C154.409 148.556 155.009 149.056 155.109 149.756L161.809 204.856C161.909 205.656 161.409 206.256 160.609 206.356C160.609 206.356 160.576 206.356 160.509 206.356C159.809 206.356 159.309 205.956 159.209 205.256Z" fill="black"/>
<path d="M180.209 205.256L173.509 150.156C173.409 149.456 173.909 148.756 174.709 148.656C175.409 148.556 176.109 149.056 176.209 149.756L182.809 204.856C182.909 205.656 182.409 206.256 181.709 206.356C181.642 206.356 181.575 206.356 181.509 206.356C180.809 206.356 180.309 205.956 180.209 205.256Z" fill="black"/>
<path d="M157.908 187.756C157.908 187.056 158.508 186.456 159.208 186.456H177.708C178.508 186.456 179.108 187.056 179.108 187.756C179.108 188.456 178.508 189.056 177.708 189.056H159.208C158.508 189.056 157.908 188.456 157.908 187.756Z" fill="black"/>
<path d="M164.509 206.356C163.809 206.256 163.309 205.656 163.409 204.856L170.009 151.256C170.109 150.556 170.809 150.056 171.509 150.156C172.209 150.256 172.709 150.956 172.609 151.656L166.009 205.256C165.909 205.956 165.309 206.356 164.709 206.356C164.643 206.356 164.576 206.356 164.509 206.356Z" fill="black"/>
<path d="M143.51 206.356C142.71 206.256 142.21 205.656 142.31 204.856L149.01 151.256C149.11 150.556 149.71 150.056 150.51 150.156C151.21 150.256 151.71 150.956 151.61 151.656L144.91 205.256C144.91 205.956 144.31 206.356 143.61 206.356C143.61 206.356 143.576 206.356 143.51 206.356Z" fill="black"/>
<path d="M146.109 187.756C146.109 187.056 146.709 186.456 147.409 186.456H165.909C166.609 186.456 167.209 187.056 167.209 187.756C167.209 188.456 166.609 189.056 165.909 189.056H147.409C146.709 189.056 146.109 188.456 146.109 187.756Z" fill="black"/>
<path d="M182.409 145.056V149.956C182.409 151.156 181.409 152.256 180.109 152.256H169.709H156.909H146.409C145.209 152.256 144.209 151.156 144.209 149.956V145.056C144.209 143.856 145.209 142.856 146.409 142.856H156.909H169.709H180.109C181.409 142.856 182.409 143.856 182.409 145.056Z" fill="#AAB6C2"/>
<path d="M144.51 177.956C144.41 177.156 148.01 173.856 148.31 174.056C149.01 174.556 151.71 176.656 151.81 177.356C151.81 177.956 148.51 181.556 147.81 181.056C147.21 180.556 144.61 178.556 144.51 177.956Z" fill="white"/>
<path fill-rule="evenodd" clip-rule="evenodd" d="M148.01 181.356C147.877 181.356 147.777 181.323 147.71 181.256C147.61 181.256 144.41 178.856 144.31 177.956C144.11 177.056 147.21 174.356 147.81 173.956C148.01 173.856 148.21 173.756 148.41 173.856C148.71 174.056 152.01 176.456 152.01 177.356C152.01 178.056 149.71 180.556 148.61 181.156C148.51 181.256 148.21 181.356 148.01 181.356ZM148.41 180.656C149.61 179.956 151.51 177.756 151.51 177.356C151.51 176.856 149.31 175.056 148.21 174.356C147.51 174.656 144.81 177.356 144.81 177.856C144.91 178.356 146.91 180.056 148.01 180.856C148.01 180.856 148.11 180.856 148.41 180.656Z" fill="black"/>
<path d="M151.209 176.356C151.209 176.356 155.109 176.856 155.909 179.756C155.909 179.756 148.509 188.856 145.709 191.056C145.709 191.056 142.409 188.256 144.209 185.756C145.909 183.256 148.009 181.056 148.009 181.056C148.009 181.056 151.509 179.656 151.209 176.356Z" fill="#AAB6C2"/>
<path d="M163.01 135.556C160.51 141.656 150.21 144.756 142.61 147.456C138.01 149.056 137.61 150.856 137.31 152.556C135.91 159.356 147.41 168.556 150.41 174.156C150.51 175.156 149.51 176.156 148.31 176.956C146.41 178.356 143.81 179.256 143.81 179.256C134.41 169.456 120.21 156.056 121.61 146.456C124.11 130.356 147.51 121.256 147.51 121.256C151.31 116.356 167.31 125.056 163.01 135.556Z" fill="black"/>
<path d="M157.51 177.856C157.51 177.156 161.61 174.456 161.81 174.656C162.51 175.256 164.81 177.756 164.71 178.456C164.71 179.056 160.91 182.156 160.31 181.456C159.71 180.956 157.51 178.556 157.51 177.856Z" fill="white"/>
<path fill-rule="evenodd" clip-rule="evenodd" d="M160.509 181.855C160.376 181.855 160.242 181.789 160.109 181.655C160.109 181.655 157.309 178.855 157.209 177.855C157.209 177.055 160.709 174.855 161.409 174.555C161.609 174.455 161.809 174.355 162.009 174.455C162.209 174.755 165.109 177.555 165.009 178.455C164.909 179.155 162.209 181.355 161.009 181.755C160.909 181.755 160.709 181.855 160.509 181.855ZM160.409 181.355C160.409 181.355 160.509 181.355 160.909 181.255C162.209 180.755 164.409 178.755 164.509 178.355C164.509 177.955 162.609 175.755 161.709 174.955C161.009 175.155 157.809 177.355 157.709 177.855C157.809 178.355 159.509 180.355 160.409 181.355Z" fill="black"/>
<path d="M155.11 133.156C152.81 135.856 150.01 138.156 147.61 140.956C145.81 143.022 144.144 145.189 142.61 147.456C138.01 149.056 137.61 150.856 137.31 152.556C135.91 159.356 147.41 168.556 150.41 174.156C150.51 175.156 149.51 176.156 148.31 176.956C147.41 176.356 146.61 175.556 145.91 174.956C143.51 172.756 141.51 170.356 139.71 167.756C136.21 162.456 133.21 158.156 132.71 151.856C132.41 147.356 132.51 145.956 133.31 142.356C133.81 140.156 135.21 137.556 136.51 135.556C139.71 130.456 146.01 128.656 150.41 125.056C150.477 124.989 150.544 124.956 150.61 124.956C150.61 124.656 150.81 124.456 151.11 124.556C155.81 125.456 158.41 129.056 155.11 133.156Z" fill="black"/>
<path d="M164.31 177.456C164.31 177.456 168.11 178.456 168.51 181.456C168.51 181.456 159.71 189.256 156.61 191.056C156.61 191.056 153.81 187.756 155.91 185.556C158.11 183.356 160.51 181.556 160.51 181.556C160.51 181.556 164.11 180.656 164.31 177.456Z" fill="#AAB6C2"/>
<path d="M176.711 137.056C172.111 146.356 153.711 143.656 152.411 148.256C150.511 154.856 159.511 172.756 163.411 175.256C163.277 175.522 163.111 175.822 162.911 176.156C161.711 178.456 158.711 180.656 158.711 180.656C151.011 173.956 136.811 158.456 136.211 147.956C135.211 131.756 162.411 121.656 162.411 121.656C165.811 117.856 176.711 123.756 177.711 131.556C177.911 133.356 177.711 135.156 176.711 137.056Z" fill="black"/>
<path d="M176.71 137.056C172.11 146.356 153.71 143.656 152.41 148.256C150.51 154.856 159.51 172.756 163.41 175.256C163.277 175.522 163.11 175.822 162.91 176.156C158.41 173.156 155.01 168.956 152.71 163.956C151.41 161.156 150.41 158.256 149.41 155.456C148.31 152.556 147.41 152.756 148.01 149.756C149.01 144.556 152.81 143.256 157.51 142.256C164.11 140.956 172.11 139.156 174.61 132.056C174.21 131.856 173.41 125.656 173.91 125.656C175.01 125.556 176.91 126.856 177.71 131.556C177.91 133.356 177.71 135.156 176.71 137.056Z" fill="black"/>
<path d="M180.31 76.9557C180.61 81.3557 175.21 86.2557 170.71 84.7557C168.01 83.7557 166.11 81.0557 165.21 78.3557C164.81 76.9557 164.71 75.2557 164.01 73.8557C162.61 71.2557 160.91 71.6557 158.91 70.3557C158.843 70.2891 158.777 70.2557 158.71 70.2557C158.51 70.1557 158.41 69.9557 158.41 69.5557C159.01 66.5557 163.21 63.8557 166.21 64.9557C168.11 65.6557 169.41 67.3557 170.31 69.0557C171.01 70.4557 171.41 71.9557 172.01 73.3557C172.41 74.3557 172.91 75.9557 173.61 76.6557C175.51 78.6557 178.11 77.1557 179.21 76.5557C179.61 76.2557 180.31 76.3557 180.31 76.9557Z" fill="black"/>
<path d="M139.409 109.956C139.409 109.956 141.509 106.656 142.409 105.156C142.809 104.556 143.242 103.822 143.709 102.956C143.842 102.689 144.009 102.389 144.209 102.056C144.276 101.922 144.342 101.789 144.409 101.656C147.409 96.4557 151.309 90.4557 154.609 88.9557C157.809 87.4557 154.909 102.356 154.909 102.356C154.909 102.356 155.009 103.656 154.809 105.456C154.509 107.256 153.809 109.456 152.309 111.456C152.042 111.856 151.709 112.256 151.309 112.656C149.109 114.956 146.009 119.856 140.309 120.656C139.509 120.756 136.409 119.356 135.809 118.656C133.209 115.456 139.409 109.956 139.409 109.956Z" fill="white"/>
<path fill-rule="evenodd" clip-rule="evenodd" d="M140.21 120.956C139.21 120.956 136.31 119.556 135.61 118.756C132.91 115.456 138.71 110.156 139.21 109.756C139.41 109.456 141.41 106.456 142.21 105.056C142.543 104.389 142.943 103.656 143.41 102.856C143.543 102.656 143.676 102.456 143.81 102.256L144.01 101.956C144.076 101.823 144.11 101.723 144.11 101.656L144.21 101.456C147.01 96.7559 151.01 90.2559 154.51 88.6559C155.01 88.4559 155.31 88.5559 155.61 88.7559C157.41 90.2559 155.41 100.956 155.11 102.356C155.21 102.656 155.21 103.856 155.01 105.556C154.676 107.823 153.843 109.823 152.51 111.556C152.243 112.023 151.91 112.456 151.51 112.856C151.11 113.256 150.61 113.756 150.21 114.256C148.01 116.756 145.11 120.256 140.41 120.856C140.343 120.923 140.276 120.956 140.21 120.956ZM155.01 89.0559C154.943 89.0559 154.843 89.0892 154.71 89.1559C151.31 90.6559 147.41 97.0559 144.71 101.756L144.61 101.956C144.543 102.023 144.476 102.089 144.41 102.156L144.21 102.456C144.076 102.723 143.976 102.956 143.91 103.156C143.443 103.956 143.01 104.689 142.61 105.356C141.71 106.756 139.61 110.056 139.61 110.056H139.51C139.51 110.156 133.51 115.456 136.01 118.456C136.61 119.156 139.51 120.556 140.31 120.456C144.81 119.756 147.71 116.456 149.81 113.956C150.276 113.423 150.71 112.923 151.11 112.456C151.51 112.056 151.843 111.656 152.11 111.256C153.376 109.589 154.176 107.656 154.51 105.456C154.81 103.656 154.61 102.456 154.61 102.356C155.61 97.5559 156.51 90.1559 155.21 89.1559C155.21 89.0892 155.143 89.0559 155.01 89.0559Z" fill="black"/>
<path d="M154.909 102.356C154.909 102.356 155.009 103.656 154.809 105.456C154.409 107.556 153.609 110.456 151.509 112.856C149.309 115.356 141.709 103.256 143.909 100.256C147.209 95.6559 151.509 89.9559 154.709 88.4559C158.009 86.9559 154.909 102.356 154.909 102.356Z" fill="#7977C6"/>
<path d="M152.21 102.256C154.51 103.956 150.61 113.256 149.61 112.856C148.71 112.356 147.01 110.156 147.01 110.156C147.01 110.156 148.81 108.956 149.41 106.856C150.11 104.756 149.11 101.456 149.11 101.456C149.11 101.456 149.91 100.656 152.21 102.256Z" fill="black"/>
<path d="M149.511 111.356C152.911 104.456 148.411 103.556 148.211 97.4556C147.911 91.3556 158.911 85.8556 158.911 85.8556C178.411 84.7556 173.811 96.1556 171.911 105.356C171.711 106.222 171.577 107.056 171.511 107.856C171.444 108.256 171.411 108.656 171.411 109.056C171.011 118.156 179.711 126.856 179.711 126.856C166.111 134.456 141.311 125.256 141.311 125.256C141.311 125.256 146.011 118.156 149.511 111.356Z" fill="#7977C6"/>
<path d="M166.01 90.4556C166.01 90.4556 165.71 98.6556 169.21 101.956C170.61 103.256 171.41 104.456 171.91 105.356C171.71 106.222 171.576 107.056 171.51 107.856C171.41 108.256 171.81 112.656 171.81 113.056C170.11 111.756 167.91 105.056 166.91 103.356C165.61 100.756 165.21 94.5556 166.01 90.4556Z" fill="black"/>
<path d="M161.809 81.1558V85.7558C161.809 85.7558 158.909 88.9558 156.909 88.5558C155.909 88.3558 156.909 86.6558 156.909 86.6558V83.2558L161.809 81.1558Z" fill="white"/>
<path fill-rule="evenodd" clip-rule="evenodd" d="M157.21 88.8559C157.076 88.8559 156.943 88.8559 156.81 88.8559C156.543 88.7892 156.376 88.6559 156.31 88.4559C156.01 87.8559 156.51 86.8559 156.61 86.6559V83.0559L162.11 80.7559V85.8559L162.01 85.9559C161.91 86.0559 159.31 88.8559 157.21 88.8559ZM157.11 83.4559V86.8559C156.91 87.2559 156.61 87.9559 156.71 88.2559C156.81 88.2559 156.81 88.3559 156.91 88.3559C158.61 88.6559 161.21 86.1559 161.61 85.6559V81.5559L157.11 83.4559Z" fill="black"/>
<path d="M162.41 72.2554C162.41 72.2554 164.91 77.0554 162.31 81.3554C159.71 85.7554 154.51 83.8554 154.11 81.3554C153.61 77.9554 154.41 73.8554 154.41 73.8554L162.41 72.2554Z" fill="white"/>
<path fill-rule="evenodd" clip-rule="evenodd" d="M158.111 84.2556C157.777 84.2556 157.444 84.2222 157.111 84.1556C155.411 83.7556 154.111 82.6556 153.911 81.4556C153.411 77.9556 154.111 73.8556 154.111 73.7556V73.6556L162.611 71.9556V72.0556C162.711 72.1556 165.11 77.0556 162.51 81.4556C161.51 83.2556 159.911 84.2556 158.111 84.2556ZM154.611 74.0556C154.411 74.8556 153.911 78.3556 154.411 81.3556C154.511 82.3556 155.711 83.3556 157.211 83.6556C159.111 84.0556 161.011 83.1556 162.111 81.2556C164.311 77.5556 162.71 73.3556 162.31 72.4556L154.611 74.0556Z" fill="black"/>
<path d="M152.609 74.2556C152.809 73.9556 153.109 73.8556 153.309 73.6556C153.909 73.0556 153.509 72.8556 153.809 72.2556C154.109 71.7556 154.309 71.4556 154.809 71.1556C155.909 70.2556 157.509 70.0556 158.809 69.9556C159.309 69.9556 159.409 70.3556 159.409 70.6556C160.709 70.5556 162.509 71.3556 163.309 72.0556C164.809 73.3556 165.809 76.0556 165.109 78.0556C164.709 79.6556 163.309 81.2556 162.009 79.7556C160.909 78.5556 160.709 77.2556 160.309 75.8556C160.242 75.3222 160.142 74.8556 160.009 74.4556C159.009 73.6556 157.809 73.3556 156.809 73.6556C156.609 73.9556 156.509 74.4556 156.309 74.7556C156.042 75.2889 155.676 75.7222 155.209 76.0556C154.609 76.6556 153.509 77.0556 152.709 76.3556C152.009 75.8556 152.109 74.8556 152.609 74.2556Z" fill="black"/>
<path d="M160.11 76.2555C160.11 76.2555 161.31 75.2555 161.91 76.2555C162.61 77.3555 161.71 78.2555 161.11 78.2555C160.51 78.1555 159.91 76.8555 160.11 76.2555Z" fill="white"/>
<path fill-rule="evenodd" clip-rule="evenodd" d="M161.21 78.4557C161.144 78.4557 161.11 78.4557 161.11 78.4557C160.777 78.4557 160.51 78.2557 160.31 77.8557C160.01 77.4557 159.71 76.6557 159.91 76.1557V76.0557C160.01 76.0557 160.71 75.4557 161.41 75.5557C161.744 75.6223 162.01 75.8223 162.21 76.1557C162.51 76.7557 162.51 77.3557 162.21 77.8557C161.91 78.2557 161.51 78.4557 161.21 78.4557ZM160.31 76.4557C160.31 76.7557 160.41 77.2557 160.71 77.6557C160.81 77.8557 161.01 77.9557 161.11 77.9557C161.31 78.0557 161.61 77.8557 161.71 77.5557C161.81 77.4557 162.11 76.9557 161.71 76.3557C161.644 76.1557 161.51 76.0557 161.31 76.0557C161.01 76.0557 160.51 76.2557 160.31 76.4557Z" fill="black"/>
<path d="M161.209 71.6558C160.509 70.6558 159.209 70.4558 158.109 70.3558C157.309 70.3558 157.509 69.1558 158.309 69.1558C159.809 69.2558 161.309 69.6558 162.209 70.8558C162.709 71.5558 161.709 72.2558 161.209 71.6558Z" fill="#7977C6"/>
<path d="M184.711 121.655C180.511 127.655 161.611 121.955 161.611 121.955L161.811 118.655C161.811 118.655 172.911 119.555 175.211 115.855C175.611 115.255 174.411 107.555 172.311 105.555C171.411 104.655 170.411 103.855 169.611 103.055C167.511 101.355 166.111 98.9554 165.611 96.2554C165.211 93.6554 165.511 91.5554 166.111 89.8554C167.011 87.4554 170.011 86.7554 171.911 88.2554C175.711 91.3554 181.711 99.1554 181.811 99.3554C187.211 106.355 189.011 115.655 184.711 121.655Z" fill="white"/>
<path fill-rule="evenodd" clip-rule="evenodd" d="M176.411 124.656C169.711 124.656 162.011 122.356 161.511 122.256L161.311 122.156L161.611 118.456H161.811C162.011 118.456 172.811 119.256 174.911 115.756C175.211 115.156 174.211 107.656 172.111 105.756C171.311 104.956 170.411 104.122 169.411 103.256C167.311 101.356 165.811 98.8556 165.411 96.2556C165.011 93.989 165.177 91.8223 165.911 89.7556C166.311 88.5556 167.311 87.6556 168.511 87.3556C169.811 87.0556 171.111 87.2556 172.111 88.1556C175.511 90.9556 180.911 97.7556 182.011 99.1556C187.811 106.756 189.011 116.056 184.911 121.756C183.411 123.956 180.011 124.656 176.411 124.656ZM161.811 121.856C163.811 122.356 180.611 126.956 184.511 121.456C188.511 115.956 187.311 106.856 181.611 99.4556C180.611 98.1556 175.211 91.2556 171.811 88.4556C170.911 87.7556 169.711 87.5556 168.611 87.8556C167.611 88.1556 166.811 88.8556 166.411 89.9556C165.677 91.9556 165.511 94.0223 165.911 96.1556C166.311 98.7556 167.711 101.056 169.711 102.856C170.777 103.789 171.711 104.622 172.511 105.356C174.611 107.456 175.811 115.256 175.411 116.056C173.311 119.556 163.811 119.056 162.111 118.956L161.811 121.856Z" fill="black"/>
<path d="M172.309 107.256C171.509 106.456 165.809 101.156 164.909 95.9558C164.609 93.6558 165.209 87.7558 168.209 87.0558C172.909 85.9558 179.609 92.9558 184.009 98.1558C182.009 102.656 177.609 105.756 172.309 107.256Z" fill="#7977C6"/>
<path d="M148.609 123.156L160.909 123.856L149.109 127.156L148.609 123.156Z" fill="#AAB6C2"/>
<path d="M149.309 127.355L160.609 124.255L160.709 124.855L149.309 128.355V127.355Z" fill="white"/>
<path fill-rule="evenodd" clip-rule="evenodd" d="M160.909 125.055L149.109 128.655V127.155L160.909 123.855V125.055ZM149.509 127.555V128.055L160.309 124.755V124.555L149.509 127.555Z" fill="black"/>
<path d="M123.609 125.656L149.109 127.156V128.656L123.609 126.956V125.656Z" fill="#AAB6C2"/>
<path d="M123.909 125.455L122.009 112.155C121.943 111.955 122.009 111.755 122.209 111.555C122.343 111.422 122.509 111.355 122.709 111.355L146.209 112.755C146.509 112.755 146.809 113.055 146.909 113.355L148.809 126.955L123.909 125.455Z" fill="white"/>
<path fill-rule="evenodd" clip-rule="evenodd" d="M122.809 111.056L146.209 112.456C146.709 112.556 147.109 112.856 147.109 113.356L149.109 127.156L123.609 125.656L121.709 112.256C121.709 111.556 122.109 111.056 122.709 111.056C122.776 111.056 122.809 111.056 122.809 111.056ZM122.309 111.756C122.242 111.889 122.209 112.022 122.209 112.156L124.109 125.156L148.509 126.656L146.609 113.456C146.609 113.156 146.409 112.956 146.209 112.956L122.809 111.556H122.709C122.576 111.556 122.442 111.622 122.309 111.756Z" fill="black"/>
<path d="M152.108 117.956C152.908 117.656 153.808 117.556 154.608 117.656C154.741 117.656 154.875 117.623 155.008 117.556C154.941 117.489 154.875 117.423 154.808 117.356C154.508 116.656 154.508 115.656 155.208 115.356C156.008 114.956 156.608 116.056 157.008 116.556C157.508 117.156 158.008 117.656 158.708 118.056C159.408 118.356 160.108 118.356 160.908 118.556C161.408 118.656 162.308 118.656 162.608 119.156C162.808 119.556 162.808 120.456 162.708 120.856C162.608 121.456 162.108 121.756 161.608 121.956C161.208 122.156 160.708 122.356 160.208 122.356C159.308 122.656 158.508 122.756 157.608 122.556C157.408 122.489 157.241 122.423 157.108 122.356C156.308 122.689 155.508 122.789 154.708 122.656C154.308 122.556 154.208 122.156 154.308 121.856C154.108 121.856 153.941 121.789 153.808 121.656C153.675 121.456 153.608 121.289 153.608 121.156C153.475 121.023 153.341 120.889 153.208 120.756C152.708 120.356 152.708 119.756 152.808 119.256C152.008 119.656 151.408 120.256 150.808 120.956C150.408 121.256 150.008 121.156 149.808 120.756C149.208 119.456 151.108 118.256 152.108 117.956Z" fill="white"/>
<path fill-rule="evenodd" clip-rule="evenodd" d="M155.409 122.956C155.142 122.956 154.876 122.922 154.609 122.856C154.409 122.856 154.242 122.756 154.109 122.556C154.042 122.422 154.009 122.256 154.009 122.056C153.876 121.989 153.742 121.922 153.609 121.856C153.476 121.656 153.409 121.456 153.409 121.256C153.276 121.189 153.142 121.089 153.009 120.956C152.709 120.656 152.509 120.156 152.509 119.756C152.042 120.022 151.509 120.456 150.909 121.056C150.709 121.256 150.509 121.356 150.209 121.356C149.909 121.356 149.709 121.156 149.609 120.856C149.409 120.456 149.409 120.056 149.609 119.656C150.009 118.656 151.309 117.956 152.009 117.656C152.742 117.456 153.576 117.356 154.509 117.356C154.409 116.956 154.209 116.356 154.509 115.756C154.642 115.422 154.842 115.189 155.109 115.056C156.009 114.756 156.609 115.556 156.909 116.056C157.042 116.189 157.142 116.289 157.209 116.356C157.609 116.856 158.109 117.456 158.809 117.856C159.309 118.056 159.809 118.156 160.409 118.156C160.542 118.222 160.709 118.256 160.909 118.256C160.976 118.256 161.076 118.289 161.209 118.356C161.709 118.356 162.509 118.456 162.809 119.056C163.109 119.556 163.109 120.456 163.009 120.956C162.809 121.656 162.209 121.956 161.709 122.256C161.309 122.456 160.709 122.556 160.209 122.656C159.509 122.856 158.509 123.056 157.509 122.756C157.376 122.756 157.242 122.722 157.109 122.656C156.509 122.856 155.942 122.956 155.409 122.956ZM153.309 118.756L153.109 119.356C152.909 119.756 153.009 120.256 153.409 120.656C153.476 120.722 153.576 120.789 153.709 120.856L153.809 120.956L153.909 121.056C153.909 121.256 153.942 121.389 154.009 121.456C154.076 121.522 154.176 121.589 154.309 121.656L154.609 121.756L154.509 121.956C154.442 122.089 154.442 122.189 154.509 122.256C154.576 122.322 154.642 122.356 154.709 122.356C155.509 122.489 156.276 122.422 157.009 122.156L157.109 122.056L157.209 122.156C157.342 122.222 157.509 122.289 157.709 122.356C158.509 122.556 159.409 122.356 160.109 122.156C160.709 122.056 161.209 121.856 161.509 121.756C161.909 121.556 162.409 121.356 162.509 120.856C162.609 120.356 162.609 119.656 162.409 119.256C162.209 118.956 161.609 118.856 161.109 118.856C161.042 118.789 160.942 118.756 160.809 118.756C160.676 118.756 160.509 118.722 160.309 118.656C159.709 118.556 159.109 118.556 158.609 118.256C157.809 117.856 157.209 117.256 156.809 116.656C156.742 116.589 156.642 116.489 156.509 116.356C156.109 115.756 155.809 115.356 155.309 115.556C155.109 115.622 154.976 115.756 154.909 115.956C154.809 116.356 154.909 116.856 155.009 117.256C155.009 117.256 155.042 117.289 155.109 117.356C155.109 117.422 155.142 117.456 155.209 117.456L155.309 117.756L155.009 117.856C154.942 117.856 154.909 117.856 154.909 117.856C154.842 117.856 154.776 117.856 154.709 117.856H154.609C153.676 117.856 152.876 117.956 152.209 118.156C151.509 118.356 150.409 119.056 150.009 119.856C149.876 120.122 149.876 120.389 150.009 120.656C150.076 120.789 150.176 120.856 150.309 120.856C150.376 120.856 150.476 120.822 150.609 120.756C151.309 119.956 152.009 119.356 152.709 119.056L153.309 118.756Z" fill="black"/>
<path d="M131.111 127.756C131.044 127.689 131.011 127.656 131.011 127.656C130.911 127.756 130.711 127.956 130.411 127.956C130.211 127.956 130.011 127.756 129.911 127.556C129.911 127.556 129.911 127.522 129.911 127.456C129.611 127.856 129.211 128.256 128.711 128.156C128.311 128.056 128.211 127.656 128.211 127.256C128.077 127.389 127.944 127.522 127.81 127.656C127.31 128.056 126.711 127.556 126.611 127.156C126.544 127.089 126.544 127.022 126.611 126.956C126.611 126.956 126.611 126.922 126.611 126.856C126.744 126.456 126.911 126.056 127.111 125.656C127.311 125.356 127.51 124.956 127.81 124.856C128.41 124.456 128.611 125.156 128.711 125.556C128.911 125.156 129.211 124.756 129.711 124.956C130.111 125.156 130.311 125.356 130.411 125.756C130.544 125.556 130.711 125.389 130.911 125.256C131.311 124.956 131.71 125.456 131.81 125.856C131.81 125.989 131.81 126.156 131.81 126.356C131.81 126.289 131.844 126.256 131.911 126.256C132.311 126.156 132.511 126.656 132.511 126.856C132.711 127.556 131.811 128.156 131.111 127.756Z" fill="white"/>
<path fill-rule="evenodd" clip-rule="evenodd" d="M128.911 128.356C128.844 128.356 128.777 128.356 128.711 128.356C128.411 128.356 128.111 128.256 128.011 127.856C127.744 128.056 127.477 128.123 127.211 128.056C126.711 127.856 126.411 127.556 126.311 127.256C126.311 127.123 126.344 126.989 126.411 126.856C126.544 126.389 126.711 125.956 126.911 125.556L127.011 125.456C127.111 125.156 127.411 124.756 127.711 124.556C128.011 124.456 128.211 124.456 128.411 124.556C128.611 124.623 128.744 124.756 128.811 124.956C128.877 124.889 128.977 124.823 129.111 124.756C129.311 124.623 129.544 124.623 129.811 124.756C130.144 124.823 130.377 124.989 130.511 125.256C130.577 125.123 130.644 125.056 130.711 125.056C131.011 124.856 131.311 124.856 131.411 124.956C131.811 125.056 132.011 125.456 132.011 125.756C132.077 125.823 132.111 125.923 132.111 126.056C132.177 126.056 132.277 126.089 132.411 126.156C132.611 126.256 132.711 126.556 132.811 126.856C132.911 127.256 132.711 127.656 132.311 127.856C131.911 128.156 131.411 128.156 131.011 127.956C130.911 128.056 130.711 128.156 130.411 128.156C130.211 128.156 130.011 128.056 129.811 127.956C129.511 128.256 129.111 128.356 128.911 128.356ZM128.511 126.556V127.356C128.411 127.856 128.611 127.856 128.811 127.856C129.111 127.956 129.511 127.656 129.711 127.356L129.911 126.956L130.111 127.456C130.211 127.556 130.311 127.656 130.411 127.656C130.611 127.656 130.711 127.556 130.811 127.456L131.211 127.056L131.311 127.556C131.611 127.656 131.911 127.656 132.011 127.456C132.211 127.356 132.311 127.156 132.311 126.856C132.311 126.756 132.211 126.656 132.111 126.556C132.044 126.489 132.011 126.489 132.011 126.556L131.511 126.756V126.256C131.577 126.123 131.577 125.989 131.511 125.856C131.511 125.656 131.411 125.456 131.211 125.456C131.211 125.356 131.111 125.356 131.011 125.456C130.877 125.523 130.744 125.656 130.611 125.856L130.311 126.356L130.211 125.756C130.144 125.489 129.977 125.323 129.711 125.256C129.511 125.189 129.377 125.156 129.311 125.156C129.177 125.223 129.077 125.389 129.011 125.656L128.711 126.456L128.511 125.556C128.411 125.256 128.311 125.056 128.211 124.956C128.211 124.956 128.111 124.956 127.911 125.056C127.711 125.156 127.611 125.456 127.411 125.656V125.756C127.144 126.156 126.944 126.556 126.811 126.956V127.056C126.911 127.356 127.111 127.456 127.311 127.556C127.444 127.556 127.577 127.523 127.711 127.456C127.844 127.389 127.944 127.289 128.011 127.156L128.511 126.556Z" fill="black"/>
<path d="M160.311 75.7557C160.311 75.7557 160.911 78.2557 161.311 78.8557C161.811 79.4557 159.311 80.1557 159.311 80.1557L158.811 77.2557L159.111 75.5557L160.311 75.7557Z" fill="white"/>
<path d="M164.511 120.156C164.811 120.556 163.611 122.356 162.811 122.056C162.011 121.756 161.311 121.856 161.311 121.856V118.856L163.411 119.056C163.411 119.056 164.211 119.656 164.511 120.156Z" fill="white"/>
<path d="M170.409 169.156L166.009 205.256C165.909 205.956 165.309 206.356 164.709 206.356C164.643 206.356 164.576 206.356 164.509 206.356C163.809 206.256 163.309 205.656 163.409 204.856L167.809 169.156H170.409Z" fill="black"/>
</svg>
