<svg width="218" height="225" viewBox="0 0 218 225" fill="none" xmlns="http://www.w3.org/2000/svg">
<path d="M203.155 224.694H13.3555V223.294H203.155V224.694Z" fill="black"/>
<path d="M7.65618 120.395C15.1562 71.5946 57.5562 -18.5053 119.756 17.7947C173.056 48.8947 136.356 86.5946 180.256 102.095C255.156 128.595 190.056 240.395 99.1562 220.995C8.25619 201.695 0.656182 165.795 7.65618 120.395Z" fill="#E6EBF0"/>
<path d="M195.757 57.9944C218.457 80.1944 230.557 107.494 195.757 96.0944C160.957 84.7944 154.857 51.5944 158.357 33.7944C163.657 6.99441 173.057 35.6944 195.757 57.9944Z" fill="#E6EBF0"/>
<path fill-rule="evenodd" clip-rule="evenodd" d="M175.957 169.195H158.057V159.395H175.957V169.195ZM159.157 168.195H174.857V160.495H159.157V168.195Z" fill="#AAB6C2"/>
<path fill-rule="evenodd" clip-rule="evenodd" d="M188.156 177.895H170.256V168.095H188.156V177.895ZM171.356 176.895H187.056V169.195H171.356V176.895Z" fill="#AAB6C2"/>
<path fill-rule="evenodd" clip-rule="evenodd" d="M131.956 85.1946H114.156V75.4946H131.956V85.1946ZM115.156 84.0946H130.956V76.3946H115.156V84.0946Z" fill="#AAB6C2"/>
<path fill-rule="evenodd" clip-rule="evenodd" d="M100.656 193.094H82.7559V183.294H100.656V193.094ZM83.8559 192.094H99.6559V184.294H83.8559V192.094Z" fill="#AAB6C2"/>
<path fill-rule="evenodd" clip-rule="evenodd" d="M117.456 193.094H99.6562V183.294H117.456V193.094ZM100.656 192.094H116.456V184.294H100.656V192.094Z" fill="#AAB6C2"/>
<path fill-rule="evenodd" clip-rule="evenodd" d="M109.056 201.795H91.1562V191.995H109.056V201.795ZM92.2562 200.795H108.056V193.095H92.2562V200.795Z" fill="#AAB6C2"/>
<path fill-rule="evenodd" clip-rule="evenodd" d="M71.9563 132.495H54.1562V122.695H71.9563V132.495ZM55.1562 131.495H70.9563V123.795H55.1562V131.495Z" fill="#AAB6C2"/>
<path fill-rule="evenodd" clip-rule="evenodd" d="M59.7555 141.295H41.8555V131.495H59.7555V141.295ZM42.9555 140.295H58.6555V132.495H42.9555V140.295Z" fill="#AAB6C2"/>
<path fill-rule="evenodd" clip-rule="evenodd" d="M68.4563 50.3947H50.6562V40.5947H68.4563V50.3947ZM51.6562 49.3947H67.4563V41.5947H51.6562V49.3947Z" fill="#AAB6C2"/>
<path fill-rule="evenodd" clip-rule="evenodd" d="M60.0559 59.0949H42.2559V49.2949H60.0559V59.0949ZM43.2559 58.0949H59.0559V50.3949H43.2559V58.0949Z" fill="#AAB6C2"/>
<path fill-rule="evenodd" clip-rule="evenodd" d="M146.255 30.8946C145.355 32.7946 144.155 34.4946 142.655 35.8946L144.555 39.7946L138.655 43.3946L135.955 39.8946C134.055 40.4946 132.055 40.7946 129.955 40.7946L128.455 44.9946L121.755 43.2946L122.355 38.8946C120.555 37.9946 118.855 36.7946 117.455 35.2946L113.455 37.1946L109.855 31.2946L113.455 28.5946C112.855 26.6946 112.455 24.6946 112.555 22.5946L108.355 21.1946L110.055 14.3946L114.355 14.9946C115.355 13.1946 116.555 11.4946 118.055 10.0946L116.055 6.09464L122.055 2.49463L124.655 6.09464C126.555 5.49464 128.655 5.09464 130.755 5.19464L132.155 0.994629L138.955 2.69464L138.255 6.99463C140.155 7.99463 141.855 9.19464 143.255 10.6946L147.155 8.69464L150.755 14.6946L147.255 17.2946C147.855 19.1946 148.155 21.2946 148.155 23.3946L152.355 24.7946L150.655 31.5946L146.255 30.8946ZM142.555 25.9946C144.255 19.1946 140.155 12.3946 133.355 10.6946C126.555 8.99464 119.755 13.1946 118.055 19.8946C116.355 26.6946 120.555 33.5946 127.255 35.1946C134.055 36.8946 140.855 32.7946 142.555 25.9946Z" fill="#AAB6C2"/>
<path fill-rule="evenodd" clip-rule="evenodd" d="M45.0559 100.295C43.9559 102.395 42.6559 104.295 40.9559 105.795L43.1559 110.295L36.4559 114.295L33.5559 110.295C31.4559 110.995 29.1559 111.395 26.8559 111.295L25.2559 115.995L17.6559 114.095L18.4559 109.295C16.3559 108.195 14.4559 106.795 12.9559 105.195L8.45586 107.395L4.45586 100.695L8.45586 97.7946C7.75586 95.6946 7.35586 93.3946 7.45586 90.9946L2.75586 89.3946L4.65586 81.8946L9.45586 82.5946C10.5559 80.5946 11.9559 78.6946 13.5559 77.0946L11.3559 72.6946L18.0559 68.6946L20.9559 72.6946C23.0559 71.9946 25.3559 71.5946 27.7559 71.6946L29.3559 66.9946L36.8559 68.8946L36.1559 73.6946C38.1559 74.7946 40.0559 76.0946 41.6559 77.7946L46.0559 75.5946L50.0559 82.2946L46.0559 85.1946C46.7559 87.2946 47.1559 89.5946 47.0559 91.8946L51.7559 93.4946L49.8559 101.095L45.0559 100.295ZM40.9559 94.7946C42.8559 87.2946 38.2559 79.6946 30.7559 77.7946C23.1559 75.8946 15.5559 80.4946 13.6559 88.0946C11.8559 95.5946 16.4559 103.195 23.9559 105.095C31.5559 106.995 39.1559 102.395 40.9559 94.7946Z" fill="#7977C6"/>
<path d="M83.6547 42.7947H80.5547V17.5947H83.6547V42.7947Z" fill="black"/>
<path d="M55.1547 222.595H53.5547L76.5547 158.695H78.0547L55.1547 222.595Z" fill="black"/>
<path d="M82.8555 222.595H81.3555V158.695H82.8555V222.595Z" fill="black"/>
<path d="M110.754 222.595H109.254L86.2539 158.695H87.7539L110.754 222.595Z" fill="black"/>
<path d="M65.2539 187.895L75.6539 158.695H78.7539L68.2539 187.895H65.2539Z" fill="black"/>
<path d="M80.5547 185.595V158.695H83.6547V185.595H80.5547Z" fill="black"/>
<path d="M95.9551 187.895L85.4551 158.695H88.4551L98.9551 187.895H95.9551Z" fill="black"/>
<path d="M88.4543 158.695H75.6543V155.395H88.4543V158.695Z" fill="black"/>
<path d="M87.8555 23.3947H76.3555V20.0947H87.8555V23.3947Z" fill="black"/>
<path d="M95.5543 160.895H68.6543V157.695H95.5543V160.895Z" fill="black"/>
<path d="M81.8547 194.995L61.5547 203.095V201.795L81.8547 193.695V194.995Z" fill="black"/>
<path d="M102.855 203.095L82.3555 194.995V193.695L102.855 201.795V203.095Z" fill="black"/>
<path d="M22.0547 157.194V154.294C22.0547 153.994 22.2547 153.794 22.5547 153.794H136.855C137.155 153.794 137.355 153.994 137.355 154.294V157.194C137.355 157.394 137.155 157.694 136.855 157.694H22.5547C22.2547 157.694 22.0547 157.394 22.0547 157.194Z" fill="black"/>
<path d="M22.0547 26.2946V24.2946C22.0547 23.7946 22.4547 23.3945 22.9547 23.3945H136.355C136.955 23.3945 137.355 23.7946 137.355 24.2946V26.2946C137.355 26.7946 136.955 27.1945 136.355 27.1945H22.9547C22.4547 27.1945 22.0547 26.7946 22.0547 26.2946Z" fill="black"/>
<path d="M27.5547 157.394V25.5942H134.955V157.394H27.5547Z" fill="white"/>
<path fill-rule="evenodd" clip-rule="evenodd" d="M135.254 157.694H27.2539V25.2944H135.254V157.694ZM27.7539 25.8944V157.194H134.754V25.8944H27.7539Z" fill="black"/>
<path d="M23.5547 157.194V154.294C23.5547 153.994 23.7547 153.794 24.0547 153.794H138.355C138.655 153.794 138.855 153.994 138.855 154.294V157.194C138.855 157.394 138.655 157.694 138.355 157.694H24.0547C23.7547 157.694 23.5547 157.394 23.5547 157.194Z" fill="black"/>
<path d="M23.5547 26.2946V24.2946C23.5547 23.7946 23.9547 23.3945 24.5547 23.3945H137.955C138.455 23.3945 138.855 23.7946 138.855 24.2946V26.2946C138.855 26.7946 138.455 27.1945 137.955 27.1945H24.5547C23.9547 27.1945 23.5547 26.7946 23.5547 26.2946Z" fill="black"/>
<path d="M58.5547 53.0947V54.9947H36.0547V53.0947H58.5547Z" fill="#AAB6C2"/>
<path d="M76.6547 58.6948V60.4948H36.0547V58.6948H76.6547Z" fill="#AAB6C2"/>
<path d="M73.7547 64.2949V66.0949H36.0547V64.2949H73.7547Z" fill="#AAB6C2"/>
<path d="M60.8555 53.0947H67.8555V54.9947H60.8555V53.0947Z" fill="#AAB6C2"/>
<path d="M58.5547 74.7949V76.5949H36.0547V74.7949H58.5547Z" fill="#AAB6C2"/>
<path d="M76.6547 80.395V82.195H36.0547V80.395H76.6547Z" fill="#AAB6C2"/>
<path d="M73.7547 85.895V87.795H36.0547V85.895H73.7547Z" fill="#AAB6C2"/>
<path d="M60.8555 74.7949H67.8555V76.5949H60.8555V74.7949Z" fill="#AAB6C2"/>
<path d="M108.055 53.0947L107.955 54.9947H85.4551V53.0947H108.055Z" fill="#AAB6C2"/>
<path d="M126.155 58.6948V60.4948H85.4551V58.6948H126.155Z" fill="#AAB6C2"/>
<path d="M123.255 64.2949V66.0949H85.4551V64.2949H123.255Z" fill="#AAB6C2"/>
<path d="M110.355 53.0947H117.355L117.255 54.9947H110.355V53.0947Z" fill="#AAB6C2"/>
<path d="M108.055 74.7949L107.955 76.5949H85.4551V74.7949H108.055Z" fill="#AAB6C2"/>
<path d="M126.155 80.395V82.195H85.4551V80.395H126.155Z" fill="#AAB6C2"/>
<path d="M123.255 85.895V87.795H85.4551V85.895H123.255Z" fill="#AAB6C2"/>
<path d="M110.355 74.7949H117.355L117.255 76.5949H110.355V74.7949Z" fill="#AAB6C2"/>
<path d="M106.154 146.895V96.5949C106.154 96.3949 106.254 96.2949 106.454 96.2949C106.554 96.2949 106.754 96.3949 106.754 96.5949V146.895C106.754 147.095 106.554 147.195 106.454 147.195C106.254 147.195 106.154 147.095 106.154 146.895Z" fill="#AAB6C2"/>
<path d="M33.6543 106.495C33.6543 106.295 33.7543 106.195 33.9543 106.195H129.954C130.054 106.195 130.254 106.295 130.254 106.495C130.254 106.595 130.054 106.795 129.954 106.795H33.9543C33.7543 106.795 33.6543 106.595 33.6543 106.495Z" fill="#AAB6C2"/>
<path d="M33.6543 117.395C33.6543 117.195 33.7543 117.095 33.9543 117.095H129.954C130.054 117.095 130.254 117.195 130.254 117.395C130.254 117.595 130.054 117.695 129.954 117.695H33.9543C33.7543 117.695 33.6543 117.595 33.6543 117.395Z" fill="#AAB6C2"/>
<path d="M33.6543 128.295C33.6543 128.195 33.7543 127.995 33.9543 127.995H129.954C130.054 127.995 130.254 128.195 130.254 128.295C130.254 128.495 130.054 128.595 129.954 128.595H33.9543C33.7543 128.595 33.6543 128.495 33.6543 128.295Z" fill="#AAB6C2"/>
<path d="M33.6543 139.195C33.6543 139.095 33.7543 138.895 33.9543 138.895H129.954C130.054 138.895 130.254 139.095 130.254 139.195C130.254 139.395 130.054 139.495 129.954 139.495H33.9543C33.7543 139.495 33.6543 139.395 33.6543 139.195Z" fill="#AAB6C2"/>
<path d="M96.3535 146.895V96.5949C96.3535 96.3949 96.4535 96.2949 96.6535 96.2949C96.7535 96.2949 96.9535 96.3949 96.9535 96.5949V146.895C96.9535 147.095 96.7535 147.195 96.6535 147.195C96.4535 147.195 96.3535 147.095 96.3535 146.895Z" fill="#AAB6C2"/>
<path d="M126.055 146.895V96.5949C126.055 96.3949 126.155 96.2949 126.255 96.2949C126.455 96.2949 126.555 96.3949 126.555 96.5949V146.895C126.555 147.095 126.455 147.195 126.255 147.195C126.155 147.195 126.055 147.095 126.055 146.895Z" fill="#AAB6C2"/>
<path d="M116.154 146.895V96.5949C116.154 96.3949 116.354 96.2949 116.454 96.2949C116.654 96.2949 116.754 96.3949 116.754 96.5949V146.895C116.754 147.095 116.654 147.195 116.454 147.195C116.354 147.195 116.154 147.095 116.154 146.895Z" fill="#AAB6C2"/>
<path d="M86.5547 146.895V96.5949C86.5547 96.3949 86.6547 96.2949 86.7547 96.2949C86.9547 96.2949 87.0547 96.3949 87.0547 96.5949V146.895C87.0547 147.095 86.9547 147.195 86.7547 147.195C86.6547 147.195 86.5547 147.095 86.5547 146.895Z" fill="#AAB6C2"/>
<path d="M76.6543 146.895V96.5949C76.6543 96.3949 76.8543 96.2949 76.9543 96.2949C77.1543 96.2949 77.2543 96.3949 77.2543 96.5949V146.895C77.2543 147.095 77.1543 147.195 76.9543 147.195C76.8543 147.195 76.6543 147.095 76.6543 146.895Z" fill="#AAB6C2"/>
<path d="M66.8535 146.895V96.5949C66.8535 96.3949 66.9535 96.2949 67.1535 96.2949C67.3535 96.2949 67.4535 96.3949 67.4535 96.5949V146.895C67.4535 147.095 67.3535 147.195 67.1535 147.195C66.9535 147.195 66.8535 147.095 66.8535 146.895Z" fill="#AAB6C2"/>
<path d="M57.0547 146.895V96.5949C57.0547 96.3949 57.1547 96.2949 57.3547 96.2949C57.4547 96.2949 57.6547 96.3949 57.6547 96.5949V146.895C57.6547 147.095 57.4547 147.195 57.3547 147.195C57.1547 147.195 57.0547 147.095 57.0547 146.895Z" fill="#AAB6C2"/>
<path d="M47.2539 146.895V96.5949C47.2539 96.3949 47.3539 96.2949 47.5539 96.2949C47.6539 96.2949 47.7539 96.3949 47.7539 96.5949V146.895C47.7539 147.095 47.6539 147.195 47.5539 147.195C47.3539 147.195 47.2539 147.095 47.2539 146.895Z" fill="#AAB6C2"/>
<path d="M37.3535 146.895V96.5949C37.3535 96.3949 37.5535 96.2949 37.6535 96.2949C37.8535 96.2949 37.9535 96.3949 37.9535 96.5949V146.895C37.9535 147.095 37.8535 147.195 37.6535 147.195C37.5535 147.195 37.3535 147.095 37.3535 146.895Z" fill="#AAB6C2"/>
<path d="M33.6549 141.995C33.3883 141.995 33.1549 141.928 32.9549 141.795C32.4549 141.395 32.455 140.695 32.855 140.295L45.0549 127.095C45.3549 126.795 45.9549 126.695 46.4549 126.895L58.9549 133.095L70.6549 117.395C70.7549 117.195 71.0549 116.995 71.4549 116.995C71.7549 116.895 72.0549 116.995 72.2549 117.195L84.4549 127.595L93.4549 111.295C93.6549 111.095 93.855 110.895 94.155 110.795C94.455 110.695 94.7549 110.795 95.0549 110.895L106.555 117.395L118.955 101.695C119.355 101.195 120.055 101.095 120.555 101.495C121.055 101.795 121.155 102.495 120.755 102.895L107.855 119.495C107.455 119.895 106.855 119.995 106.355 119.695L94.8549 113.295L85.7549 129.695C85.5549 129.995 85.2549 130.195 84.9549 130.295C84.5549 130.395 84.2549 130.295 83.9549 129.995L71.7549 119.595L60.2549 134.995C59.9549 135.495 59.3549 135.595 58.8549 135.295L46.1549 129.195L34.5549 141.695C34.3549 141.895 33.9549 141.995 33.6549 141.995Z" fill="#7977C6"/>
<path d="M122.254 108.295C121.654 108.295 121.154 107.895 121.154 107.395L120.154 101.795L113.254 103.295C112.654 103.495 112.054 103.095 111.954 102.495C111.754 101.995 112.154 101.395 112.754 101.295L120.854 99.4949C121.154 99.3949 121.454 99.3949 121.754 99.5949C121.954 99.7949 122.154 99.9949 122.254 100.295L123.354 107.095C123.454 107.595 123.054 108.195 122.354 108.295C122.288 108.295 122.254 108.295 122.254 108.295Z" fill="#7977C6"/>
<path fill-rule="evenodd" clip-rule="evenodd" d="M33.4551 34.7949H36.8551C37.5217 34.7949 38.0217 34.7949 38.3551 34.7949C38.6884 34.8616 38.9884 34.9949 39.2551 35.1949C39.5217 35.3949 39.7551 35.6616 39.9551 35.9949C40.0884 36.3282 40.1551 36.6616 40.1551 36.9949C40.1551 37.4616 40.0551 37.8616 39.8551 38.1949C39.6551 38.5949 39.3551 38.8616 38.9551 38.9949C39.4884 39.1949 39.8884 39.4616 40.1551 39.7949C40.4884 40.1949 40.6551 40.6616 40.6551 41.1949C40.6551 41.5949 40.5551 41.9949 40.3551 42.3949C40.1551 42.7949 39.9217 43.1282 39.6551 43.3949C39.3217 43.5949 38.9217 43.7283 38.4551 43.7949C38.1884 43.7949 37.4884 43.8282 36.3551 43.8949H33.4551V34.7949ZM35.1551 36.2949V38.3949H36.3551C37.0217 38.3949 37.4217 38.3616 37.5551 38.2949C37.8884 38.2949 38.1217 38.1949 38.2551 37.9949C38.4551 37.7949 38.5551 37.5616 38.5551 37.2949C38.5551 37.0283 38.4551 36.7949 38.2551 36.5949C38.1217 36.4616 37.9217 36.3616 37.6551 36.2949C37.4551 36.2949 36.9551 36.2949 36.1551 36.2949H35.1551ZM35.1551 39.8949V42.2949H36.7551C37.3551 42.2949 37.7551 42.2949 37.9551 42.2949C38.2217 42.2283 38.4217 42.0949 38.5551 41.8949C38.7551 41.6949 38.8551 41.4282 38.8551 41.0949C38.8551 40.8282 38.7884 40.5949 38.6551 40.3949C38.5217 40.1949 38.3217 40.0616 38.0551 39.9949C37.8551 39.9282 37.3551 39.8949 36.5551 39.8949H35.1551Z" fill="black"/>
<path d="M42.0547 34.7949H43.7547V39.6949C43.7547 40.4949 43.788 40.9949 43.8547 41.1949C43.9214 41.5949 44.088 41.8949 44.3547 42.0949C44.688 42.2949 45.088 42.3949 45.5547 42.3949C46.0214 42.3949 46.388 42.2949 46.6547 42.0949C46.9214 41.8949 47.0547 41.6283 47.0547 41.2949C47.1214 41.0283 47.1547 40.5283 47.1547 39.7949V34.7949H48.9547V39.4949C48.9547 40.6282 48.888 41.3949 48.7547 41.7949C48.688 42.2616 48.5214 42.6616 48.2547 42.9949C47.988 43.3282 47.6547 43.5616 47.2547 43.6949C46.8547 43.8949 46.288 43.9949 45.5547 43.9949C44.7547 43.9949 44.1547 43.8949 43.7547 43.6949C43.288 43.4949 42.9547 43.2282 42.7547 42.8949C42.488 42.5616 42.3214 42.2282 42.2547 41.8949C42.1214 41.3616 42.0547 40.5949 42.0547 39.5949V34.7949Z" fill="black"/>
<path d="M50.2559 40.8947L51.9559 40.6947C52.0892 41.2947 52.2892 41.7281 52.5559 41.9947C52.8892 42.3281 53.3225 42.4947 53.8559 42.4947C54.3892 42.4947 54.8225 42.3614 55.1559 42.0947C55.4225 41.8281 55.5559 41.5281 55.5559 41.1947C55.5559 40.9947 55.4892 40.8281 55.3559 40.6947C55.2225 40.4947 55.0225 40.3614 54.7559 40.2947C54.5559 40.2281 54.0892 40.0947 53.3559 39.8947C52.4225 39.628 51.7559 39.3281 51.3559 38.9947C50.8225 38.4614 50.5559 37.8281 50.5559 37.0947C50.5559 36.6281 50.6892 36.1947 50.9559 35.7947C51.2225 35.3947 51.5892 35.0947 52.0559 34.8947C52.5225 34.6947 53.0892 34.5947 53.7559 34.5947C54.8225 34.5947 55.6225 34.8614 56.1559 35.3947C56.6892 35.8614 56.9892 36.528 57.0559 37.3947H55.2559C55.1892 36.928 55.0559 36.5947 54.8559 36.3947C54.5892 36.1947 54.2225 36.0947 53.7559 36.0947C53.2225 36.0947 52.8225 36.1947 52.5559 36.3947C52.3559 36.5947 52.2559 36.7947 52.2559 36.9947C52.2559 37.1947 52.3559 37.3947 52.5559 37.5947C52.7559 37.7947 53.2892 37.9947 54.1559 38.1947C54.9559 38.3947 55.5559 38.5947 55.9559 38.7947C56.3559 39.0614 56.6892 39.3947 56.9559 39.7947C57.1559 40.1281 57.2559 40.5947 57.2559 41.1947C57.2559 41.7281 57.1225 42.2281 56.8559 42.6947C56.5892 43.0947 56.1892 43.4281 55.6559 43.6947C55.1892 43.8947 54.5892 43.9947 53.8559 43.9947C52.7225 43.9947 51.8892 43.7281 51.3559 43.1947C50.7559 42.6614 50.3892 41.8947 50.2559 40.8947Z" fill="black"/>
<path d="M58.6543 43.8949V34.7949H60.3543V43.8949H58.6543Z" fill="black"/>
<path d="M62.0547 43.8949V34.7949H63.7547L67.2547 40.7949V34.7949H68.8547V43.8949H67.1547L63.6547 37.8949V43.8949H62.0547Z" fill="black"/>
<path d="M70.6543 43.8949V34.7949H77.0543V36.2949H72.4543V38.2949H76.7543V39.7949H72.4543V42.2949H77.2543V43.8949H70.6543Z" fill="black"/>
<path d="M78.2559 40.8947L79.9559 40.6947C80.0225 41.2947 80.2225 41.7281 80.5559 41.9947C80.8892 42.3281 81.2892 42.4947 81.7559 42.4947C82.3559 42.4947 82.7892 42.3614 83.0559 42.0947C83.3225 41.8281 83.4559 41.5281 83.4559 41.1947C83.4559 40.9947 83.3892 40.8281 83.2559 40.6947C83.1892 40.4947 82.9892 40.3614 82.6559 40.2947C82.4559 40.2281 81.9892 40.0947 81.2559 39.8947C80.3225 39.628 79.6892 39.3281 79.3559 38.9947C78.8225 38.4614 78.5559 37.8281 78.5559 37.0947C78.5559 36.6281 78.6892 36.1947 78.9559 35.7947C79.1559 35.3947 79.4892 35.0947 79.9559 34.8947C80.4225 34.6947 80.9892 34.5947 81.6559 34.5947C82.7225 34.5947 83.5559 34.8614 84.1559 35.3947C84.6892 35.8614 84.9559 36.528 84.9559 37.3947H83.2559C83.1892 36.928 83.0225 36.5947 82.7559 36.3947C82.4892 36.1947 82.1225 36.0947 81.6559 36.0947C81.1892 36.0947 80.7892 36.1947 80.4559 36.3947C80.3225 36.5947 80.2559 36.7947 80.2559 36.9947C80.2559 37.1947 80.3225 37.3947 80.4559 37.5947C80.6559 37.7947 81.1892 37.9947 82.0559 38.1947C82.9225 38.3947 83.5559 38.5947 83.9559 38.7947C84.3559 39.0614 84.6559 39.3947 84.8559 39.7947C85.1225 40.1281 85.2559 40.5947 85.2559 41.1947C85.2559 41.7281 85.0892 42.2281 84.7559 42.6947C84.4892 43.0947 84.1225 43.4281 83.6559 43.6947C83.1225 43.8947 82.4892 43.9947 81.7559 43.9947C80.6892 43.9947 79.8559 43.7281 79.2559 43.1947C78.7225 42.6614 78.3892 41.8947 78.2559 40.8947Z" fill="black"/>
<path d="M86.2559 40.8947L87.9559 40.6947C88.0225 41.2947 88.2225 41.7281 88.5559 41.9947C88.8225 42.3281 89.2225 42.4947 89.7559 42.4947C90.3559 42.4947 90.7892 42.3614 91.0559 42.0947C91.3225 41.8281 91.4559 41.5281 91.4559 41.1947C91.4559 40.9947 91.3892 40.8281 91.2559 40.6947C91.1892 40.4947 90.9892 40.3614 90.6559 40.2947C90.4559 40.2281 89.9892 40.0947 89.2559 39.8947C88.3225 39.628 87.6892 39.3281 87.3559 38.9947C86.8225 38.4614 86.5559 37.8281 86.5559 37.0947C86.5559 36.6281 86.6892 36.1947 86.9559 35.7947C87.1559 35.3947 87.4892 35.0947 87.9559 34.8947C88.4225 34.6947 88.9892 34.5947 89.6559 34.5947C90.7225 34.5947 91.5225 34.8614 92.0559 35.3947C92.6559 35.8614 92.9559 36.528 92.9559 37.3947H91.2559C91.1892 36.928 91.0225 36.5947 90.7559 36.3947C90.4892 36.1947 90.1225 36.0947 89.6559 36.0947C89.1225 36.0947 88.7225 36.1947 88.4559 36.3947C88.2559 36.5947 88.1559 36.7947 88.1559 36.9947C88.1559 37.1947 88.2559 37.3947 88.4559 37.5947C88.6559 37.7947 89.1892 37.9947 90.0559 38.1947C90.9225 38.3947 91.5559 38.5947 91.9559 38.7947C92.3559 39.0614 92.6559 39.3947 92.8559 39.7947C93.0559 40.1281 93.1559 40.5947 93.1559 41.1947C93.1559 41.7281 93.0225 42.2281 92.7559 42.6947C92.4892 43.0947 92.1225 43.4281 91.6559 43.6947C91.1225 43.8947 90.4892 43.9947 89.7559 43.9947C88.6892 43.9947 87.8559 43.7281 87.2559 43.1947C86.6559 42.6614 86.3225 41.8947 86.2559 40.8947Z" fill="black"/>
<path fill-rule="evenodd" clip-rule="evenodd" d="M97.9551 43.8949V34.7949H100.755C101.822 34.7949 102.522 34.8282 102.855 34.8949C103.322 35.0282 103.722 35.3283 104.055 35.7949C104.388 36.2616 104.555 36.8616 104.555 37.5949C104.555 38.1282 104.455 38.5949 104.255 38.9949C104.055 39.3282 103.822 39.6282 103.555 39.8949C103.222 40.0949 102.922 40.2283 102.655 40.2949C102.255 40.3616 101.655 40.3949 100.855 40.3949H99.7551V43.8949H97.9551ZM99.6551 36.2949V38.8949H100.555C101.288 38.8949 101.755 38.8282 101.955 38.6949C102.222 38.6282 102.388 38.4949 102.455 38.2949C102.588 38.0949 102.655 37.8616 102.655 37.5949C102.655 37.2616 102.588 36.9949 102.455 36.7949C102.255 36.5283 102.022 36.3949 101.755 36.3949C101.555 36.3282 101.122 36.2949 100.455 36.2949H99.6551Z" fill="black"/>
<path d="M106.055 43.8949V34.7949H107.755V42.2949H112.055V43.8949H106.055Z" fill="black"/>
<path fill-rule="evenodd" clip-rule="evenodd" d="M121.055 43.8949H119.155L118.355 41.7949H114.955L114.255 43.8949H112.455L115.755 34.7949H117.555L121.055 43.8949ZM117.855 40.2949L116.755 36.8949L115.555 40.2949H117.855Z" fill="black"/>
<path d="M121.955 43.8949V34.7949H123.655L127.155 40.7949V34.7949H128.755V43.8949H127.055L123.555 37.8949V43.8949H121.955Z" fill="black"/>
<path d="M97.4547 223.395H81.4547C78.7547 223.395 76.5547 221.195 76.5547 218.395C76.5547 215.695 78.7547 213.495 81.4547 213.495H97.4547V223.395Z" fill="#7977C6"/>
<path d="M76.5547 217.895C76.8547 215.395 78.9547 213.495 81.4547 213.495H97.4547V217.395C95.5547 218.095 93.3547 218.995 92.6547 217.895C91.8547 216.595 89.2547 214.695 89.2547 214.695C89.2547 214.695 84.0547 214.595 80.6547 214.595C77.1547 214.595 76.5547 217.795 76.5547 217.895Z" fill="#7977C6"/>
<path d="M92.1535 222.095C90.0535 222.095 88.3535 220.495 88.3535 218.395C88.3535 216.295 90.0535 214.595 92.1535 214.595H120.454V222.095H92.1535Z" fill="white"/>
<path fill-rule="evenodd" clip-rule="evenodd" d="M120.754 222.395H92.1543C89.9543 222.395 88.1543 220.595 88.1543 218.395C88.1543 216.195 89.9543 214.395 92.1543 214.395H120.754V222.395ZM92.1543 214.795C90.1543 214.795 88.6543 216.395 88.6543 218.295C88.6543 220.295 90.1543 221.895 92.1543 221.895H120.254V214.795H92.1543Z" fill="black"/>
<path d="M122.455 223.395H92.3551C89.6551 223.395 87.4551 221.195 87.4551 218.395C87.4551 215.695 89.6551 213.495 92.3551 213.495H122.455V215.195H92.3551C90.5551 215.195 89.1551 216.695 89.1551 218.395C89.1551 220.195 90.5551 221.695 92.3551 221.695H122.455V223.395Z" fill="black"/>
<path d="M100.354 199.494H87.9543C85.8543 199.494 84.1543 197.794 84.1543 195.694C84.1543 193.494 85.8543 191.794 87.9543 191.794H100.354V199.494Z" fill="#7977C6"/>
<path d="M96.2535 198.495C94.6535 198.495 93.3535 197.195 93.3535 195.595C93.3535 193.995 94.6535 192.695 96.2535 192.695H118.154V198.495H96.2535Z" fill="white"/>
<path fill-rule="evenodd" clip-rule="evenodd" d="M118.454 198.695H96.2543C94.5543 198.695 93.1543 197.295 93.1543 195.595C93.1543 193.895 94.5543 192.495 96.2543 192.495H118.454V198.695ZM96.2543 192.995C94.8543 192.995 93.6543 194.095 93.6543 195.595C93.6543 196.995 94.8543 198.195 96.2543 198.195H117.954V192.995H96.2543Z" fill="black"/>
<path d="M119.754 199.494H96.4543C94.3543 199.494 92.6543 197.794 92.6543 195.694C92.6543 193.494 94.3543 191.794 96.4543 191.794H119.754V193.094H96.4543C95.0543 193.094 93.9543 194.294 93.9543 195.694C93.9543 196.994 95.0543 198.194 96.4543 198.194H119.754V199.494Z" fill="black"/>
<path d="M101.855 205.295H88.4551C86.8551 205.295 85.4551 203.995 85.4551 202.395C85.4551 200.795 86.8551 199.495 88.4551 199.495H101.855V205.295Z" fill="#AAB6C2"/>
<path d="M85.5551 203.095C85.4884 202.895 85.4551 202.661 85.4551 202.395C85.4551 200.795 86.8551 199.495 88.4551 199.495H101.855V200.795L98.5551 200.495H88.5551C88.5551 200.495 85.9551 200.495 85.5551 203.095Z" fill="black"/>
<path d="M100.657 204.495C99.5566 204.495 98.5566 203.495 98.5566 202.395C98.5566 201.195 99.5566 200.195 100.657 200.195H122.157V204.495H100.657Z" fill="white"/>
<path fill-rule="evenodd" clip-rule="evenodd" d="M122.356 204.695H100.656C99.3559 204.695 98.2559 203.695 98.2559 202.395C98.2559 200.995 99.3559 199.995 100.656 199.995H122.356V204.695ZM100.656 200.395C99.6559 200.395 98.7559 201.295 98.7559 202.295C98.7559 203.295 99.6559 204.195 100.656 204.195H121.856V200.395H100.656Z" fill="black"/>
<path d="M123.355 205.295H100.855C99.2555 205.295 97.8555 203.995 97.8555 202.395C97.8555 200.795 99.2555 199.495 100.855 199.495H123.355V200.495H100.855C99.7555 200.495 98.8555 201.295 98.8555 202.395C98.8555 203.495 99.7555 204.295 100.855 204.295H123.355V205.295Z" fill="black"/>
<path d="M90.5547 205.294H115.155C117.355 205.294 119.255 207.194 119.255 209.394C119.255 211.694 117.355 213.494 115.155 213.494H90.5547V205.294Z" fill="#AAB6C2"/>
<path d="M115.154 205.294C117.354 205.294 119.254 207.194 119.254 209.394C119.254 209.528 119.254 209.694 119.254 209.894C119.154 209.894 118.054 207.094 114.754 206.994C111.454 206.994 97.1539 206.994 97.1539 206.994L93.2539 205.294H115.154Z" fill="black"/>
<path d="M80.8535 212.394V206.294H94.9535C96.6535 206.294 98.0535 207.694 98.0535 209.394C98.0535 211.094 96.6535 212.394 94.9535 212.394H80.8535Z" fill="white"/>
<path fill-rule="evenodd" clip-rule="evenodd" d="M98.2543 209.395C98.2543 211.195 96.7543 212.695 94.9543 212.695H80.6543V205.995H94.9543C96.7543 205.995 98.2543 207.495 98.2543 209.395ZM81.1543 206.495V212.195H94.9543C96.5543 212.195 97.7543 210.895 97.7543 209.395C97.7543 207.795 96.5543 206.495 94.9543 206.495H81.1543Z" fill="black"/>
<path d="M79.1543 212.094H94.7543C96.2543 212.094 97.4543 210.894 97.4543 209.394C97.4543 207.894 96.2543 206.694 94.7543 206.694H79.1543V205.294H94.7543C97.0543 205.294 98.8543 207.194 98.8543 209.394C98.8543 211.694 97.0543 213.494 94.7543 213.494H79.1543V212.094Z" fill="black"/>
<path d="M124.355 102.495C120.255 102.495 116.155 101.395 112.155 99.2949C107.755 96.8949 110.155 76.5949 113.155 70.5949L113.255 70.4949L113.155 70.2949C112.955 70.0949 112.655 69.7949 112.355 69.1949C111.655 68.0949 111.855 67.3949 111.955 67.1949C111.955 66.9949 112.155 66.9949 112.155 66.8949L113.255 68.2949L112.555 66.6949C112.255 66.1949 112.355 65.6949 112.555 65.3949C112.622 65.2616 112.689 65.1949 112.755 65.1949L113.255 65.4949L113.155 64.9949C113.055 64.6949 113.155 64.2949 113.355 63.9949C113.555 63.7949 113.755 63.6949 113.955 63.6949C114.222 63.6949 114.422 63.8282 114.555 64.0949L115.455 65.3949L115.055 63.8949C114.755 62.8949 113.555 61.2949 112.855 60.6949C112.555 60.3949 112.555 60.1949 112.555 59.9949C112.622 59.9282 112.722 59.8616 112.855 59.7949C112.922 59.7949 112.955 59.8282 112.955 59.8949C113.255 59.8949 114.055 60.2949 115.655 62.2949C116.355 63.2949 117.655 65.2949 117.755 67.4949V67.8949L118.055 67.7949C118.189 67.7283 118.322 67.6616 118.455 67.5949H118.655V67.3949C118.655 67.0949 118.555 66.6949 118.555 66.4949C118.455 66.2949 118.555 66.1949 118.555 66.0949C118.655 65.9949 118.855 65.8949 118.955 65.8949C119.089 65.8949 119.189 65.9616 119.255 66.0949C119.555 66.7949 119.755 67.3949 119.555 67.9949C119.455 68.1949 117.755 70.8949 117.155 71.2949L117.055 71.3949L117.155 71.5949C117.355 72.5949 117.655 74.6949 117.955 76.9949C119.455 86.8949 120.055 89.5949 120.755 89.6949H120.855C121.755 89.6949 124.155 88.6949 128.055 86.9949C128.155 86.8949 129.055 86.5949 129.055 86.5949C129.322 86.4616 129.589 86.3282 129.855 86.1949H130.055C136.855 83.1949 143.355 81.4949 147.755 81.4949C148.689 81.4949 149.522 81.5949 150.255 81.7949C150.655 81.8616 150.889 82.0283 150.955 82.2949C151.555 84.5949 143.455 92.1949 140.255 94.8949C140.155 94.9949 139.355 96.3949 137.655 98.0949C135.955 99.7949 134.355 100.595 131.055 101.595H130.955C130.889 101.595 130.789 101.628 130.655 101.695C129.989 101.895 129.222 102.062 128.355 102.195C127.755 102.262 127.155 102.328 126.555 102.395C126.155 102.462 125.755 102.495 125.355 102.495C125.022 102.495 124.689 102.495 124.355 102.495Z" fill="white"/>
<path fill-rule="evenodd" clip-rule="evenodd" d="M113.056 59.5947C113.856 59.7947 115.256 61.3947 115.856 62.1947C116.956 63.6947 117.956 65.5947 117.956 67.4947C118.156 67.4947 118.323 67.4614 118.456 67.3947C118.456 67.0947 118.356 66.7947 118.256 66.4947C118.156 66.0947 118.556 65.6947 118.956 65.6947C119.156 65.6947 119.356 65.7947 119.456 65.9947C119.856 66.6947 120.056 67.2947 119.756 68.0947C119.756 68.1947 117.956 71.0947 117.356 71.4947C118.056 75.0947 119.756 89.2947 120.856 89.3947C121.756 89.3947 124.456 88.2947 127.956 86.7947C128.156 86.6614 128.389 86.5614 128.656 86.4947C128.989 86.2947 129.356 86.1281 129.756 85.9947C129.823 85.9947 129.856 85.9947 129.856 85.9947C136.056 83.2947 142.856 81.2947 147.756 81.2947C148.689 81.2947 149.523 81.3614 150.256 81.4947C154.956 82.4947 140.456 95.0947 140.456 95.0947C140.456 95.0947 139.556 96.5947 137.756 98.2947C136.056 99.9947 134.356 100.895 131.156 101.795C131.023 101.795 130.889 101.828 130.756 101.895C130.023 102.095 129.256 102.261 128.456 102.395C127.856 102.528 127.223 102.628 126.556 102.695C126.156 102.695 125.756 102.728 125.356 102.795C125.023 102.795 124.689 102.795 124.356 102.795C120.756 102.795 116.556 101.995 112.056 99.4947C107.256 96.8947 110.056 76.3947 112.956 70.4947C112.656 70.1947 112.456 69.7947 112.156 69.2947C111.056 67.7947 111.756 66.6947 112.156 66.6947C112.223 66.6947 112.256 66.7281 112.256 66.7947C111.856 65.8947 112.256 64.9947 112.756 64.9947C112.756 64.9947 112.789 64.9947 112.856 64.9947C112.756 64.2947 113.356 63.3947 113.956 63.3947C114.256 63.3947 114.556 63.5947 114.756 63.8947C114.556 63.0947 113.356 61.4947 112.656 60.8947C112.056 60.2947 112.256 59.5947 112.856 59.5947C112.923 59.5947 112.989 59.5947 113.056 59.5947ZM112.756 60.0947C112.756 60.1947 112.856 60.2947 112.956 60.4947C113.756 61.1947 114.956 62.7947 115.256 63.7947L116.156 66.7947L114.356 64.1947C114.256 64.0947 114.156 63.8947 113.956 63.8947C113.856 63.8947 113.756 63.9947 113.556 64.1947C113.456 64.3947 113.356 64.6947 113.356 64.8947L113.656 65.9947L112.756 65.4947C112.656 65.6947 112.556 66.0947 112.756 66.5947L114.156 69.6947L112.156 67.2947C112.056 67.5947 111.956 68.1947 112.556 68.9947C112.856 69.5947 113.156 69.8947 113.356 70.1947L113.556 70.3947L113.456 70.6947C110.456 76.5947 107.956 96.6947 112.256 98.9947C116.256 101.195 120.256 102.295 124.356 102.295C124.689 102.295 125.023 102.295 125.356 102.295C125.823 102.228 126.223 102.195 126.556 102.195C127.156 102.128 127.756 102.061 128.356 101.995C129.223 101.795 129.989 101.595 130.656 101.395C130.723 101.395 130.789 101.395 130.856 101.395L130.956 101.295C134.256 100.395 135.856 99.4947 137.456 97.9947C139.156 96.2947 139.956 94.8947 139.956 94.8947L140.056 94.7947V94.6947C144.456 90.9947 151.156 84.2947 150.656 82.3947C150.656 82.2947 150.656 82.0947 150.156 81.9947C149.489 81.8614 148.689 81.7947 147.756 81.7947C143.456 81.7947 136.956 83.4947 130.056 86.3947L129.956 86.4947C129.689 86.5614 129.423 86.6614 129.156 86.7947L128.856 86.8947C128.723 86.9614 128.589 87.0281 128.456 87.0947C128.389 87.1614 128.289 87.1947 128.156 87.1947C124.256 88.8947 121.756 89.8947 120.856 89.8947C120.856 89.8947 120.823 89.8947 120.756 89.8947C119.856 89.7947 119.356 88.0947 117.756 77.0947C117.356 74.6947 117.056 72.6947 116.856 71.5947L116.756 71.2947L117.056 71.0947C117.556 70.7947 119.156 68.1947 119.356 67.8947C119.556 67.3947 119.356 66.8947 119.056 66.1947C118.989 66.1947 118.956 66.1947 118.956 66.1947C118.889 66.1947 118.823 66.2281 118.756 66.2947C118.756 66.3614 118.756 66.3947 118.756 66.3947C118.856 66.6947 118.956 66.9947 118.956 67.3947V67.7947L118.556 67.8947C118.423 67.8947 118.289 67.9281 118.156 67.9947L117.456 68.1947V67.4947C117.456 65.3947 116.156 63.3947 115.456 62.4947C113.756 60.3947 113.156 60.0947 112.956 60.0947C112.956 60.0947 112.923 60.0947 112.856 60.0947C112.856 60.0947 112.823 60.0947 112.756 60.0947Z" fill="black"/>
<path d="M146.657 218.494C144.857 218.494 142.157 217.994 141.557 217.394C141.557 217.328 141.557 217.294 141.557 217.294C141.557 215.794 141.757 212.594 142.257 212.094C142.257 212.094 142.357 212.094 142.857 212.094C144.457 212.094 147.557 212.794 148.157 213.094C148.157 214.594 147.857 218.094 147.457 218.394C147.457 218.394 147.257 218.494 146.657 218.494Z" fill="white"/>
<path fill-rule="evenodd" clip-rule="evenodd" d="M148.356 212.994C148.456 214.094 148.156 218.094 147.556 218.594C147.456 218.694 147.056 218.694 146.656 218.694C144.856 218.694 141.256 218.094 141.256 217.294C141.256 216.394 141.456 212.494 142.056 211.994C142.156 211.894 142.456 211.794 142.856 211.794C144.556 211.794 148.356 212.694 148.356 212.994ZM142.356 212.394C142.056 212.794 141.756 215.594 141.756 217.194C142.156 217.594 144.756 218.194 146.656 218.194C147.056 218.194 147.156 218.194 147.256 218.194C147.656 217.694 147.856 214.694 147.856 213.194C147.156 212.994 144.356 212.294 142.856 212.294C142.556 212.294 142.456 212.294 142.356 212.394Z" fill="black"/>
<path d="M191.056 213.794C190.956 213.794 190.856 213.794 190.856 213.794C189.956 212.494 188.256 209.694 188.356 209.194C188.556 208.594 192.856 206.594 193.756 206.494C194.656 207.694 196.456 210.694 196.256 211.194C196.056 211.694 192.456 213.794 191.056 213.794Z" fill="white"/>
<path fill-rule="evenodd" clip-rule="evenodd" d="M193.856 206.194C194.556 207.094 196.756 210.494 196.456 211.294C196.356 211.894 192.456 214.094 191.056 214.094C190.856 214.094 190.722 214.028 190.656 213.894C190.156 213.194 188.056 209.894 188.156 209.094C188.256 208.294 193.056 206.194 193.756 206.194C193.822 206.194 193.856 206.194 193.856 206.194ZM188.656 209.194C188.656 209.794 190.056 212.194 190.956 213.594C191.022 213.594 191.056 213.594 191.056 213.594C192.256 213.594 195.556 211.694 196.056 211.094C195.956 210.494 194.456 207.894 193.556 206.694C192.656 206.994 189.056 208.594 188.656 209.194Z" fill="black"/>
<path d="M161.856 140.194C161.456 141.194 161.056 142.228 160.656 143.294C157.856 150.594 154.356 159.094 153.956 163.494C153.356 171.594 149.556 191.594 149.556 201.294C149.556 209.194 147.356 214.494 147.556 216.394L140.356 214.994C137.556 203.594 134.756 176.094 134.756 163.694C134.756 151.194 135.856 130.494 140.356 120.594C144.756 111.294 162.056 128.294 164.156 130.594C164.856 131.494 163.656 135.294 161.856 140.194Z" fill="black"/>
<path d="M161.856 140.194C161.456 141.194 161.056 142.228 160.656 143.294C157.856 150.594 154.356 159.094 153.956 163.494C153.356 171.594 150.056 213.594 149.356 216.294C148.056 217.094 145.556 216.494 143.856 215.694C143.256 208.694 146.556 202.094 147.356 195.294C148.856 182.294 144.356 168.494 149.856 155.994C151.456 152.494 153.956 148.894 153.756 144.894C153.556 142.994 152.356 140.694 153.456 138.794C155.456 135.394 159.256 137.694 160.956 139.994C161.156 139.994 161.456 139.894 161.656 140.094C161.722 140.161 161.789 140.194 161.856 140.194Z" fill="black"/>
<path d="M160.355 125.494C164.755 120.694 169.955 117.994 173.155 117.594C173.888 117.528 174.522 117.561 175.055 117.694C175.455 117.894 175.755 118.161 175.955 118.494C177.455 120.894 178.555 123.094 179.455 125.194C179.722 125.794 179.955 126.394 180.155 126.994C184.755 139.494 180.355 147.794 180.455 164.694C180.455 172.894 178.755 180.094 186.855 192.594C189.955 197.394 196.355 208.994 196.355 208.994L195.055 209.694L189.355 212.694C178.955 204.794 163.255 184.494 161.855 172.194C159.655 152.994 159.055 133.294 158.955 128.294C158.955 127.494 158.955 127.061 158.955 126.994C159.422 126.461 159.888 125.961 160.355 125.494Z" fill="black"/>
<path d="M176.156 152.695C177.756 144.595 178.656 136.895 176.256 128.795C176.156 128.495 176.256 128.295 176.456 128.195C176.522 128.061 176.622 127.995 176.756 127.995C177.656 127.695 178.856 127.195 180.156 126.995C184.756 139.495 180.356 147.795 180.456 164.695C180.456 172.895 178.756 180.095 186.856 192.595C189.956 197.395 196.356 208.995 196.356 208.995L195.056 209.695C190.456 205.395 185.656 201.095 182.856 195.395C179.756 188.895 177.756 181.495 176.156 174.495C174.556 167.095 174.756 160.095 176.156 152.695Z" fill="black"/>
<path d="M147.756 217.194C147.756 217.194 149.456 221.394 147.156 223.994C147.156 223.994 133.956 222.094 130.256 220.694C130.256 220.694 131.056 215.594 134.556 215.794C137.956 216.094 141.356 216.894 141.356 216.894C141.356 216.894 144.756 219.494 147.756 217.194Z" fill="black"/>
<path d="M196.056 209.694C196.056 209.694 200.056 211.894 199.856 215.394C199.856 215.394 188.556 222.294 184.656 223.594C184.656 223.594 182.156 219.094 184.956 217.094C187.756 215.094 190.856 213.594 190.856 213.594C190.856 213.594 195.156 213.394 196.056 209.694Z" fill="black"/>
<path d="M136.855 101.595C130.655 96.7949 129.455 88.5949 131.455 83.1949C137.855 77.7949 145.055 72.1949 149.455 71.3949C149.522 71.3282 149.588 71.2949 149.655 71.2949C149.922 71.2949 150.122 71.3949 150.255 71.5949C150.655 72.1949 150.855 74.5949 147.455 82.8949C145.955 86.3949 144.555 89.2949 144.555 89.2949L144.455 89.4949L144.555 89.5949C144.655 89.5949 147.255 92.9949 146.355 95.0949C146.055 95.9949 145.055 96.8949 143.455 97.8949C142.588 98.4282 141.655 98.9282 140.655 99.3949C139.355 100.095 138.055 100.795 136.855 101.595Z" fill="white"/>
<path fill-rule="evenodd" clip-rule="evenodd" d="M147.655 82.9947C146.255 86.4947 144.755 89.3947 144.755 89.3947C144.755 89.3947 147.555 92.8947 146.655 95.1947C146.155 96.2947 145.055 97.1947 143.555 98.0947C141.555 99.2947 138.955 100.495 136.855 101.895C130.355 96.9947 129.255 88.4947 131.255 82.9947C137.055 78.0947 144.755 71.9947 149.455 71.0947C149.522 71.0947 149.589 71.0947 149.655 71.0947C152.155 71.0947 149.855 77.6947 147.655 82.9947ZM149.455 71.5947C145.155 72.3947 138.055 77.8947 131.655 83.2947C129.755 88.5947 130.955 96.5947 136.855 101.295C138.055 100.495 139.255 99.8947 140.455 99.1947C141.455 98.6614 142.389 98.1614 143.255 97.6947C144.855 96.6947 145.855 95.8947 146.155 94.9947C146.855 93.3947 145.155 90.6947 144.355 89.7947L144.255 89.4947L144.355 89.1947C144.355 89.1947 145.755 86.2947 147.155 82.7947C150.755 74.2947 150.355 72.1947 150.055 71.6947C149.955 71.6947 149.855 71.5947 149.655 71.5947C149.589 71.5947 149.522 71.5947 149.455 71.5947Z" fill="black"/>
<path d="M178.254 129.395C172.354 129.395 140.654 122.095 139.654 120.495C140.054 118.695 140.854 115.795 141.754 112.795C142.854 109.295 144.054 105.195 144.554 102.095C144.654 101.395 144.754 100.795 144.854 99.9946C144.954 98.0946 144.754 95.2946 144.454 92.0946L144.354 90.8946C143.554 82.2946 143.154 73.7946 147.154 72.1946L147.454 72.0946C147.654 72.028 147.854 71.9613 148.054 71.8946C149.254 71.428 150.521 71.0613 151.854 70.7946L151.954 70.6946C154.021 70.228 156.088 69.9946 158.154 69.9946C160.554 69.9946 162.954 70.2946 165.354 70.9946C167.654 71.5946 169.954 72.3946 172.154 73.5946C173.354 74.1946 174.454 74.8613 175.454 75.5946C176.254 76.0946 176.754 76.3946 177.154 76.7946C178.954 78.1946 179.954 85.5946 179.954 97.0946C179.954 98.6946 179.854 100.495 179.854 102.695C179.654 107.995 180.354 114.695 180.854 119.995C181.254 124.195 181.554 127.695 181.254 128.295C181.154 128.495 180.854 128.995 178.854 129.295C178.721 129.361 178.521 129.395 178.254 129.395Z" fill="white"/>
<path fill-rule="evenodd" clip-rule="evenodd" d="M165.455 70.6944C168.055 71.3944 170.355 72.2944 172.255 73.3944C173.522 74.0611 174.655 74.7277 175.655 75.3944C176.255 75.7944 176.822 76.1944 177.355 76.5944C179.555 78.2944 180.255 87.3944 180.155 97.0944C180.155 98.9944 180.155 100.894 180.055 102.694C179.755 112.394 182.155 126.994 181.455 128.394C181.255 128.894 180.355 129.294 178.855 129.594C178.722 129.594 178.522 129.594 178.255 129.594C172.455 129.594 139.455 122.094 139.455 120.594C140.155 116.394 143.355 107.794 144.355 101.994C144.488 101.328 144.555 100.661 144.555 99.9944C144.755 97.8944 144.355 94.5944 144.055 90.8944C143.355 83.0944 142.755 73.6944 147.055 71.9944C147.388 71.8611 147.688 71.7611 147.955 71.6944C149.288 71.1611 150.555 70.7611 151.755 70.4944C153.955 69.9944 156.155 69.7944 158.155 69.7944C160.755 69.7944 163.255 70.0944 165.455 70.6944ZM152.255 70.8944V70.9944H151.855C150.588 71.2611 149.355 71.6278 148.155 72.0944C147.955 72.1611 147.755 72.2611 147.555 72.3944L147.255 72.4944C143.055 74.0944 144.055 84.5944 144.555 90.8944L144.655 92.0944C144.955 95.2944 145.155 98.0944 145.055 99.9944C145.055 100.794 144.955 101.494 144.855 102.094C144.255 105.294 143.055 109.294 142.055 112.894C141.155 115.794 140.355 118.594 139.955 120.394C142.355 122.194 172.655 129.094 178.255 129.094C178.522 129.094 178.688 129.094 178.755 129.094C180.755 128.694 181.055 128.194 181.055 128.194C181.255 127.694 180.955 123.794 180.555 120.094C180.055 114.694 179.455 107.994 179.555 102.694C179.655 100.494 179.655 98.6944 179.655 97.0944C179.755 85.6944 178.755 78.2944 177.055 76.9944C176.555 76.5944 176.055 76.2944 175.355 75.7944C174.288 75.0611 173.188 74.3944 172.055 73.7944C169.855 72.6944 167.655 71.7944 165.355 71.1944C162.955 70.5944 160.555 70.2944 158.155 70.2944C156.222 70.2944 154.255 70.4944 152.255 70.8944Z" fill="black"/>
<path d="M156.056 71.6945C155.922 71.6945 155.756 71.6945 155.556 71.6945C155.456 71.6945 155.456 71.5945 155.356 71.4945C155.256 71.1945 155.556 70.3945 155.756 69.9945V65.8945L160.656 63.8945V69.7946C160.156 70.0946 157.856 71.6945 156.056 71.6945Z" fill="white"/>
<path fill-rule="evenodd" clip-rule="evenodd" d="M160.856 69.8946C160.856 69.8946 158.256 71.9946 156.056 71.9946C155.922 71.9946 155.756 71.9613 155.556 71.8946C154.556 71.6946 155.556 69.8946 155.556 69.8946V65.6946L160.856 63.4946V69.8946ZM156.056 65.9946V69.9946L155.956 70.0946C155.656 70.6946 155.556 71.2946 155.656 71.3946C155.789 71.4613 155.922 71.4946 156.056 71.4946C157.756 71.4946 159.756 70.0946 160.356 69.5946V64.1946L156.056 65.9946Z" fill="black"/>
<path d="M156.256 67.0944C154.256 67.0944 152.356 65.8944 152.256 64.3944C151.856 61.1944 152.556 57.3944 152.756 56.5944L161.056 55.2944C161.456 56.1944 163.056 60.6944 160.456 64.5944C159.456 66.2944 157.956 67.0944 156.256 67.0944Z" fill="white"/>
<path fill-rule="evenodd" clip-rule="evenodd" d="M160.756 64.7946C159.456 66.6946 157.856 67.3946 156.256 67.3946C154.056 67.3946 152.156 65.9946 151.956 64.4946C151.556 60.6946 152.556 56.3946 152.556 56.3946L161.256 54.9946C161.256 54.9946 163.656 60.1946 160.756 64.7946ZM152.956 56.7946C152.756 57.8946 152.156 61.3946 152.456 64.3946C152.556 65.5946 154.256 66.8946 156.256 66.8946C157.856 66.8946 159.256 66.0946 160.256 64.4946C162.656 60.8946 161.356 56.7946 160.956 55.4946L152.956 56.7946Z" fill="black"/>
<path d="M183.155 130.995C182.255 131.595 157.655 127.795 157.655 127.795C155.955 122.195 150.555 99.1945 150.755 96.8945C151.655 82.4945 164.955 70.8945 164.955 70.8945C170.255 70.6945 176.855 76.6946 176.855 76.6946C175.255 73.5946 168.555 73.7945 167.455 75.4945C165.255 78.8945 165.855 89.3946 167.955 93.7946C173.855 106.495 179.655 107.195 179.655 107.195L183.155 130.995Z" fill="#7977C6"/>
<path d="M153.456 102.494C154.156 104.394 143.756 124.294 143.756 124.294C143.756 124.294 136.456 122.894 136.256 122.794C136.256 122.794 139.356 114.494 141.656 108.594C142.123 107.461 142.556 106.361 142.956 105.294V105.194C143.356 104.094 143.656 102.994 143.856 102.194C144.056 101.294 144.156 100.494 144.156 100.094C144.256 97.9943 142.456 94.0943 142.356 90.3943C142.156 83.8943 144.556 72.8943 146.656 72.0943C146.856 72.0277 147.056 71.961 147.256 71.8943C147.323 71.8277 147.423 71.7943 147.556 71.7943C148.823 71.3277 150.056 70.961 151.256 70.6943C151.323 70.6943 151.356 70.6943 151.356 70.6943C151.356 70.6943 148.556 90.0943 153.456 102.494Z" fill="#7977C6"/>
<path d="M150.956 54.6945C150.356 51.5945 155.656 52.1945 157.456 52.3945C158.656 52.4945 162.956 53.2945 163.156 55.1945C164.256 57.0945 164.356 59.7945 163.556 61.7945C163.556 62.2945 163.356 62.6945 162.856 63.0945C162.056 63.4945 161.056 63.1945 160.656 62.3945C159.956 61.2945 160.356 59.5945 160.256 58.2945C160.256 58.0945 160.156 57.1945 160.156 56.3945C159.456 56.0945 158.856 55.8945 157.856 56.0945C156.756 56.2945 155.756 56.5945 154.656 56.7945C152.956 56.9945 149.756 56.5945 150.956 54.6945Z" fill="black"/>
<path fill-rule="evenodd" clip-rule="evenodd" d="M159.456 97.7946C161.156 98.2946 162.156 100.195 161.656 101.995C161.056 103.695 159.256 104.695 157.456 104.195C155.656 103.595 154.656 101.795 155.256 99.9945C155.756 98.1945 157.656 97.1946 159.456 97.7946ZM157.756 102.995C158.956 103.395 160.156 102.795 160.556 101.595C160.856 100.495 160.256 99.1945 159.056 98.8945C157.956 98.4945 156.756 99.1946 156.356 100.295C156.056 101.495 156.656 102.695 157.756 102.995Z" fill="black"/>
<path d="M141.357 122.194L148.057 100.594C148.457 99.1944 150.057 98.3944 151.457 98.7944L165.457 103.094C166.857 103.594 167.657 105.094 167.257 106.494L160.557 128.194C160.157 129.594 158.557 130.394 157.157 129.894L143.157 125.594C141.757 125.194 140.957 123.694 141.357 122.194Z" fill="#AAB6C2"/>
<path d="M178.154 124.594C177.954 124.594 177.754 124.594 177.554 124.594L176.554 124.494C166.854 123.294 150.154 116.094 148.554 115.294V114.694L148.154 115.094C147.754 115.594 147.154 115.794 146.454 115.794C146.254 115.794 146.021 115.761 145.754 115.694C145.054 115.594 143.254 115.094 143.154 114.094C143.154 113.794 143.254 113.594 143.554 113.594L143.854 113.494L143.654 113.194C143.454 112.794 143.488 112.461 143.754 112.194L143.854 112.094L144.054 111.894L143.854 111.694C143.554 111.394 143.654 111.094 143.754 110.994C143.888 110.728 144.121 110.561 144.454 110.494H144.654V110.294C144.654 110.228 144.688 110.161 144.754 110.094C144.821 109.761 145.021 109.594 145.354 109.594C145.954 109.594 146.654 109.994 147.154 110.294L147.554 110.494V109.994C147.454 109.894 147.454 109.694 147.254 109.494C146.854 108.994 146.254 108.894 145.754 108.794C145.554 108.694 145.454 108.494 145.454 108.394C145.454 108.194 145.554 107.994 145.754 107.994C146.021 107.928 146.254 107.894 146.454 107.894C147.121 107.894 147.688 108.094 148.154 108.494C148.654 108.894 149.254 110.294 149.654 111.294V111.494H153.954C159.454 111.694 167.754 111.794 172.154 111.994C172.688 111.994 173.188 111.994 173.654 111.994C174.054 112.061 174.388 112.094 174.654 112.094C174.854 112.094 175.054 112.094 175.254 112.094H175.354H175.454L175.554 111.994C175.654 111.994 175.754 111.894 175.854 111.694C176.454 110.194 175.354 102.594 173.754 99.6943C172.854 98.0943 171.954 96.4943 171.254 95.4943C169.454 92.3943 168.654 88.8943 169.054 85.4943C169.454 82.6943 170.554 80.0943 172.254 77.8943C173.154 76.7943 174.454 76.1943 175.754 76.1943C177.354 76.1943 178.854 76.9943 179.654 78.2943C183.154 83.5943 184.854 86.2943 188.454 95.0943V95.1943C191.354 102.094 190.154 113.094 185.754 119.694C184.254 121.894 181.654 124.594 178.154 124.594Z" fill="white"/>
<path fill-rule="evenodd" clip-rule="evenodd" d="M179.855 78.0945C183.355 83.3945 185.055 86.1945 188.655 94.9945C188.722 94.9945 188.755 95.0279 188.755 95.0945C193.255 105.895 187.655 124.795 178.155 124.795C177.955 124.795 177.755 124.795 177.555 124.795C177.222 124.795 176.889 124.761 176.555 124.695C166.255 123.495 148.355 115.495 148.355 115.495C148.355 115.428 148.355 115.361 148.355 115.295C147.855 115.795 147.155 116.095 146.455 116.095C146.188 116.095 145.955 116.061 145.755 115.995C144.855 115.795 142.955 115.295 142.955 114.095C142.855 113.695 143.155 113.395 143.455 113.295C143.255 112.895 143.155 112.395 143.555 111.995C143.555 111.928 143.589 111.895 143.655 111.895C143.455 111.595 143.355 111.195 143.555 110.795C143.755 110.495 144.055 110.395 144.455 110.295C144.455 110.161 144.489 110.061 144.555 109.995C144.655 109.495 144.955 109.395 145.355 109.395C145.955 109.395 146.655 109.695 147.255 110.095C147.255 109.895 147.189 109.728 147.055 109.595C146.755 109.195 146.155 109.095 145.655 108.995C145.055 108.895 145.055 107.895 145.655 107.795C145.922 107.728 146.188 107.695 146.455 107.695C147.155 107.695 147.755 107.795 148.255 108.295C148.855 108.795 149.555 110.295 149.855 111.195C154.455 111.295 166.455 111.495 172.155 111.695C172.755 111.761 173.255 111.795 173.655 111.795C173.989 111.861 174.322 111.895 174.655 111.895C174.855 111.895 175.055 111.861 175.255 111.795C175.322 111.795 175.355 111.795 175.355 111.795C175.355 111.795 175.388 111.795 175.455 111.795C176.455 111.595 175.255 103.095 173.555 99.7946C172.755 98.2946 171.855 96.8945 171.055 95.5945C169.255 92.5945 168.355 88.9945 168.855 85.4945C169.355 82.0945 170.655 79.5945 172.055 77.6945C173.055 76.4945 174.455 75.8945 175.755 75.8945C177.355 75.8945 178.955 76.6945 179.855 78.0945ZM172.455 77.9945C170.755 80.1945 169.755 82.6945 169.355 85.5945C168.855 88.7945 169.655 92.2945 171.555 95.3945C172.455 96.7945 173.255 98.2945 173.955 99.5945C175.655 102.595 176.755 110.195 176.055 111.795C175.955 112.095 175.755 112.195 175.655 112.295H175.555H175.355C175.355 112.295 175.322 112.295 175.255 112.295C175.055 112.361 174.855 112.395 174.655 112.395C174.322 112.395 173.989 112.361 173.655 112.295H173.555C173.155 112.295 172.689 112.261 172.155 112.195C167.755 112.095 159.455 111.895 153.955 111.795C152.355 111.795 150.855 111.695 149.855 111.695H149.455L149.355 111.395C149.055 110.395 148.455 109.095 147.955 108.695C147.555 108.361 147.055 108.195 146.455 108.195C146.255 108.195 146.022 108.195 145.755 108.195C145.755 108.295 145.755 108.395 145.755 108.395V108.495C146.355 108.595 147.055 108.795 147.455 109.295C147.655 109.595 147.755 109.795 147.755 109.995L147.855 110.995L147.055 110.495C146.755 110.295 145.955 109.895 145.355 109.895C145.155 109.895 145.055 109.895 144.955 110.095C144.955 110.161 144.955 110.228 144.955 110.295V110.695L144.555 110.795C144.155 110.795 144.055 110.995 143.955 111.095C143.955 111.195 143.855 111.295 144.055 111.595L144.355 111.895L144.055 112.195C143.989 112.261 143.955 112.295 143.955 112.295C143.855 112.495 143.655 112.695 143.955 113.095L144.155 113.595L143.655 113.795C143.455 113.795 143.455 113.895 143.455 114.095C143.455 114.695 144.355 115.195 145.855 115.495C146.055 115.561 146.255 115.595 146.455 115.595C146.855 115.595 147.455 115.495 147.955 114.995L148.755 114.095L148.855 115.195C151.055 116.195 167.055 123.095 176.655 124.195C176.989 124.261 177.289 124.295 177.555 124.295C177.755 124.295 177.955 124.295 178.155 124.295C181.555 124.295 184.055 121.695 185.555 119.495C189.855 112.995 191.155 102.095 188.255 95.2946V95.1945C188.255 95.1945 188.222 95.1612 188.155 95.0945C184.655 86.4945 182.955 83.6945 179.455 78.3945C178.655 77.1945 177.255 76.3945 175.755 76.3945C174.455 76.3945 173.255 76.9945 172.455 77.9945Z" fill="black"/>
<path d="M172.558 99.1944C172.091 99.1944 171.591 99.1611 171.058 99.0944C164.958 87.7944 164.058 79.6944 168.458 74.8944C169.191 74.1611 170.291 73.7944 171.758 73.7944C174.958 73.7944 178.758 75.5944 180.258 76.7944C185.458 80.8944 187.958 89.6944 188.558 91.7944C183.758 96.5944 178.158 99.1944 172.558 99.1944Z" fill="white"/>
<path fill-rule="evenodd" clip-rule="evenodd" d="M180.457 76.5946C185.857 80.8946 188.457 90.3946 188.757 91.8946C184.157 96.4946 178.457 99.3946 172.557 99.3946C172.024 99.3946 171.49 99.3946 170.957 99.3946C166.757 91.7946 162.457 81.0946 168.357 74.7946C169.157 73.8946 170.357 73.4946 171.757 73.4946C174.857 73.4946 178.757 75.2946 180.457 76.5946ZM168.657 75.0946C164.357 79.7946 165.157 87.7946 171.257 98.8946C171.724 98.8946 172.157 98.8946 172.557 98.8946C178.057 98.8946 183.557 96.3946 188.257 91.6946C187.657 89.3946 185.057 80.8946 180.157 76.9946C178.657 75.7946 174.857 73.9946 171.757 73.9946C170.357 73.9946 169.324 74.3613 168.657 75.0946Z" fill="black"/>
<path d="M165.856 51.9947C165.456 51.9947 165.156 51.8947 165.156 51.8947H164.756L164.956 51.5947C166.156 49.7947 165.356 46.2947 164.456 43.5947C158.656 39.6947 155.256 33.1947 155.256 26.1947C155.256 14.5947 164.656 5.09473 176.256 5.09473C187.956 5.09473 197.356 14.5947 197.356 26.1947C197.356 37.7947 187.956 47.2947 176.256 47.2947C175.923 47.2947 175.589 47.2614 175.256 47.1947H175.056C171.556 51.4947 167.456 51.9947 165.856 51.9947Z" fill="white"/>
<path fill-rule="evenodd" clip-rule="evenodd" d="M197.655 26.1945C197.655 37.9945 188.055 47.4945 176.255 47.4945C175.922 47.4945 175.555 47.4945 175.155 47.4945C171.555 51.7945 167.555 52.1945 165.855 52.1945C165.455 52.1945 165.155 52.1945 165.055 52.1945L164.355 52.0945L164.755 51.3945C165.555 50.0945 165.455 47.3946 164.255 43.7946C158.455 39.7946 154.955 33.1945 154.955 26.1945C154.955 14.3945 164.555 4.89453 176.255 4.89453C188.055 4.89453 197.655 14.3945 197.655 26.1945ZM155.455 26.1945C155.455 33.3946 159.155 39.6945 164.655 43.4945C165.555 46.1945 166.355 49.7945 165.155 51.6945C165.155 51.6945 165.455 51.6945 165.855 51.6945C167.455 51.6945 171.455 51.2945 174.955 46.9945C175.422 46.9945 175.855 46.9945 176.255 46.9945C187.755 46.9945 197.155 37.6945 197.155 26.1945C197.155 14.6945 187.755 5.39453 176.255 5.39453C164.755 5.39453 155.455 14.6945 155.455 26.1945Z" fill="black"/>
<path fill-rule="evenodd" clip-rule="evenodd" d="M175.555 40.6944V37.7944C174.088 37.5944 172.921 37.2611 172.055 36.7944C171.121 36.3278 170.321 35.5944 169.655 34.5944C169.055 33.5278 168.688 32.2611 168.555 30.7944L171.455 30.2944C171.655 31.8278 172.055 32.9611 172.655 33.6944C173.455 34.6944 174.421 35.2611 175.555 35.3944V26.1944C174.355 25.9944 173.121 25.5611 171.855 24.8944C170.988 24.3611 170.288 23.6278 169.755 22.6944C169.288 21.8278 169.055 20.8278 169.055 19.6944C169.055 17.6278 169.755 15.9611 171.155 14.6944C172.155 13.8278 173.588 13.2944 175.455 13.0944V11.7944H177.155V13.0944C178.821 13.2944 180.155 13.7944 181.155 14.5944C182.421 15.6611 183.188 17.0944 183.455 18.8944L180.455 19.2944C180.321 18.1611 179.988 17.2944 179.455 16.6944C178.855 16.0944 178.088 15.7278 177.155 15.5944L177.255 23.7944C178.655 24.1944 179.588 24.4944 180.055 24.6944C180.988 25.0944 181.721 25.5611 182.255 26.0944C182.855 26.6278 183.288 27.2944 183.555 28.0944C183.888 28.8944 184.055 29.7278 184.055 30.5944C184.055 32.5944 183.421 34.2611 182.155 35.5944C180.888 36.9278 179.255 37.6278 177.255 37.6944V40.6944H175.555ZM175.455 15.4944C174.388 15.6944 173.521 16.1611 172.855 16.8944C172.188 17.6277 171.855 18.4611 171.855 19.3944C171.855 20.3944 172.155 21.2277 172.755 21.8944C173.288 22.5611 174.221 23.0944 175.555 23.4944L175.455 15.4944ZM177.155 35.2944C178.221 35.1611 179.121 34.6611 179.855 33.7944C180.588 32.9944 180.955 31.9944 180.955 30.7944C180.955 29.7278 180.688 28.8944 180.155 28.2944C179.688 27.6278 178.688 27.0611 177.155 26.5944V35.2944Z" fill="black"/>
<path d="M38.4547 153.995C40.0547 153.995 41.5547 153.395 42.8547 152.495C42.9547 155.295 42.7547 157.995 42.2547 160.695C40.4547 163.595 35.5547 168.695 35.9547 168.695C37.2547 168.595 38.5547 168.195 39.8547 167.795C38.988 169.528 37.988 171.161 36.8547 172.695C34.4547 175.795 31.1547 178.295 29.8547 182.195C29.8547 182.261 29.8214 182.295 29.7547 182.295C29.6547 182.495 29.4547 182.695 29.2547 182.495C22.9547 176.495 21.7547 167.395 20.8547 159.095C20.788 158.695 20.7547 158.295 20.7547 157.895C22.4547 159.695 24.3547 161.295 26.5547 162.495C26.8547 162.695 22.5547 155.795 20.5547 152.695C20.5547 150.695 20.8547 148.695 21.5547 146.795C23.0547 142.795 25.6547 139.095 28.0547 135.695C28.188 135.561 28.3214 135.428 28.4547 135.295C29.0547 136.995 29.9547 138.695 31.1547 140.195C31.3547 140.495 30.6547 135.195 30.2547 132.795C30.9214 131.995 31.5547 131.228 32.1547 130.495C33.0547 129.495 34.0547 127.795 35.5547 128.095C37.0547 128.295 40.4547 134.295 40.8547 135.995C41.0547 136.728 41.2214 137.495 41.3547 138.295C41.4214 138.628 41.488 138.928 41.5547 139.195C42.0547 142.295 42.4547 145.395 42.6547 148.395C42.588 148.595 42.488 148.761 42.3547 148.895C41.0547 150.595 38.1547 153.995 38.4547 153.995Z" fill="black"/>
<path d="M33.0556 212.495C30.6556 201.395 29.4556 191.595 29.2556 182.595C29.1889 182.461 29.1556 182.328 29.1556 182.195C29.1556 181.128 29.1889 180.061 29.2556 178.995C29.2556 177.328 29.2889 175.695 29.3556 174.095C29.3556 174.028 29.3889 173.961 29.4556 173.895C29.6556 169.495 30.0556 165.095 30.4556 160.695C30.4556 160.695 30.4223 160.661 30.3556 160.595C28.8556 158.795 27.6556 156.795 26.8556 154.595C26.7889 154.395 26.8223 154.195 26.9556 153.995C27.0556 153.895 27.2556 153.695 27.4556 153.695C27.6556 153.695 27.8556 153.895 27.9556 154.095C28.6223 155.828 29.5223 157.461 30.6556 158.995C30.7889 157.861 30.9223 156.761 31.0556 155.695C30.9889 155.628 30.9223 155.561 30.8556 155.495C28.8556 152.795 27.3556 149.795 26.3556 146.695C26.2889 146.495 26.3223 146.295 26.4556 146.095C26.5556 145.995 26.7556 145.895 26.9556 145.895C27.2556 145.895 27.4556 145.995 27.4556 146.295C28.3556 148.995 29.6556 151.595 31.2556 153.995C31.9556 147.895 32.9556 141.895 34.1556 136.095C34.1556 135.795 34.4556 135.595 34.7556 135.595C34.9556 135.595 35.0556 135.695 35.1556 135.895C35.2889 136.028 35.3556 136.161 35.3556 136.295C34.4556 140.595 33.6556 145.195 33.0556 149.895C35.8556 149.295 38.0556 147.295 39.8556 145.695C39.9889 145.628 40.1223 145.595 40.2556 145.595C40.4556 145.595 40.6556 145.695 40.7556 145.995C40.8556 146.195 40.8556 146.495 40.6556 146.695C38.2556 148.795 35.8556 150.695 32.8556 151.195C31.7556 158.595 31.0556 166.095 30.6556 173.495C31.6556 172.695 32.4889 171.795 33.1556 170.795C33.2889 170.595 33.4556 170.495 33.6556 170.495C33.8556 170.495 34.0556 170.595 34.1556 170.895C34.3556 171.095 34.2556 171.295 34.1556 171.495C33.2889 172.828 32.1889 173.961 30.8556 174.895C30.7889 174.961 30.6889 174.995 30.5556 174.995C30.5556 176.128 30.5223 177.261 30.4556 178.395C30.2556 188.595 31.4556 199.395 34.2556 212.195V212.495L33.1556 212.795L33.0556 212.495Z" fill="white"/>
<path fill-rule="evenodd" clip-rule="evenodd" d="M35.3555 135.695C35.5555 135.895 35.6222 136.128 35.5555 136.395C34.7555 140.595 33.9555 144.995 33.3555 149.595C35.8555 148.895 37.9555 146.995 39.6555 145.495C39.8555 145.361 40.0555 145.295 40.2555 145.295C40.5555 145.295 40.8555 145.495 41.0555 145.895C41.1555 146.195 41.0555 146.595 40.7555 146.795C38.4555 148.895 36.0555 150.795 33.0555 151.395C32.0555 158.595 31.3555 165.795 30.9555 172.995C31.7555 172.261 32.4222 171.461 32.9555 170.595C33.1555 170.395 33.3555 170.295 33.6555 170.295C33.9555 170.295 34.2555 170.395 34.4555 170.695C34.5555 170.995 34.5555 171.395 34.3555 171.595C33.4889 172.995 32.3555 174.161 30.9555 175.095C30.8889 175.161 30.8555 175.195 30.8555 175.195C30.7889 176.261 30.7555 177.328 30.7555 178.395C30.5555 188.595 31.7555 199.295 34.4555 212.195L34.5555 212.695L34.1555 212.795H33.8555C33.7222 212.861 33.5889 212.895 33.4555 212.895L32.9555 213.095L32.8555 212.595C30.4555 201.495 29.1555 191.695 28.9555 182.695C28.8889 182.561 28.8555 182.395 28.8555 182.195C28.9222 181.128 28.9555 180.061 28.9555 178.995C29.0222 177.328 29.0889 175.695 29.1555 174.095C29.1555 174.028 29.1555 173.961 29.1555 173.895C29.4555 169.495 29.7555 165.095 30.2555 160.795C30.2555 160.795 30.2222 160.795 30.1555 160.795C28.6555 158.995 27.4555 156.895 26.6555 154.695C26.5555 154.395 26.5555 154.095 26.7555 153.895C26.8555 153.595 27.1555 153.495 27.4555 153.495C27.7555 153.495 28.0555 153.695 28.2555 153.995C28.7889 155.528 29.5222 156.961 30.4555 158.295C30.5222 157.495 30.6222 156.661 30.7555 155.795C30.6889 155.795 30.6555 155.761 30.6555 155.695C28.6555 152.895 27.1555 149.895 26.1555 146.795C26.0555 146.495 26.0555 146.195 26.2555 145.995C26.3555 145.695 26.6555 145.595 26.9555 145.595C27.3555 145.595 27.6555 145.795 27.7555 146.195C28.5555 148.661 29.6555 151.028 31.0555 153.295C31.8555 147.395 32.7555 141.695 33.8555 136.095C33.9555 135.695 34.2555 135.395 34.7555 135.395C34.9555 135.395 35.2555 135.495 35.3555 135.695ZM34.3555 136.195C33.1555 142.328 32.1555 148.495 31.3555 154.695C29.5555 152.095 28.1889 149.295 27.2555 146.295C27.1555 146.195 27.0555 146.095 26.9555 146.095C26.7555 146.095 26.4555 146.295 26.5555 146.595C27.6222 149.728 29.1222 152.661 31.0555 155.395C31.1222 155.461 31.1889 155.495 31.2555 155.495C31.1222 156.895 30.9889 158.261 30.8555 159.595C29.5222 157.995 28.4889 156.195 27.7555 154.195C27.6555 154.095 27.5555 153.995 27.4555 153.995C27.2555 153.995 26.9555 154.195 27.0555 154.495C27.9222 156.695 29.0889 158.695 30.5555 160.495C30.6222 160.495 30.6889 160.528 30.7555 160.595C30.2889 164.995 29.9222 169.461 29.6555 173.995C29.6555 173.995 29.6555 174.028 29.6555 174.095C29.5889 175.761 29.5222 177.395 29.4555 178.995C29.4555 180.061 29.4222 181.128 29.3555 182.195C29.3555 182.328 29.3889 182.428 29.4555 182.495C29.6555 192.595 31.1555 202.595 33.2555 212.495C33.5222 212.428 33.7555 212.361 33.9555 212.295C31.5555 201.095 29.9555 189.795 30.2555 178.395C30.2555 177.195 30.2889 175.995 30.3555 174.795C30.4222 174.795 30.4555 174.795 30.4555 174.795C30.5222 174.795 30.5889 174.761 30.6555 174.695C31.9889 173.828 33.0889 172.728 33.9555 171.395C34.1555 171.095 33.8555 170.795 33.6555 170.795C33.5889 170.795 33.4889 170.828 33.3555 170.895C32.5555 172.161 31.5555 173.195 30.3555 173.995C30.7555 166.261 31.5222 158.595 32.6555 150.995C35.7555 150.495 38.1555 148.495 40.4555 146.495C40.7555 146.195 40.5555 145.795 40.2555 145.795C40.1889 145.795 40.1222 145.828 40.0555 145.895C37.8555 147.795 35.6555 149.695 32.7555 150.195C33.4222 145.528 34.1889 140.895 35.0555 136.295C35.1555 135.995 34.9555 135.895 34.7555 135.895C34.5555 135.895 34.3555 135.995 34.3555 136.195Z" fill="black"/>
<path d="M23.5564 189.994V189.894H23.3564C21.8564 188.194 19.6564 187.294 17.5564 186.394C16.5564 185.894 15.5564 185.494 14.6564 184.994C13.4564 184.328 12.2898 183.561 11.1564 182.694C12.0564 182.694 13.1564 182.494 14.2564 182.194L14.3564 182.094V181.994C14.4564 181.694 14.4564 181.694 12.2564 180.694C10.4564 179.894 7.95642 178.694 6.65642 177.794C5.58976 176.261 4.68976 174.461 3.95643 172.394C4.28976 172.461 4.65642 172.494 5.05642 172.494C6.05642 172.494 6.98976 172.294 7.85642 171.894H7.95643L8.05642 171.694C8.05642 171.494 7.95643 171.394 5.45643 170.194C4.65643 169.794 3.65642 169.294 3.05642 168.994C2.92309 168.928 2.82309 168.861 2.75643 168.794C1.95643 165.994 1.45642 163.694 1.05642 161.594C0.989758 161.328 0.956426 161.061 0.956426 160.794C0.88976 160.194 0.823092 159.594 0.756426 158.994C0.556426 157.594 1.75643 152.094 2.75643 151.494C3.02309 151.361 3.28976 151.294 3.55642 151.294C4.25642 151.294 4.95642 151.694 5.65642 151.994C5.78976 152.061 5.95642 152.128 6.15642 152.194C6.88976 152.528 7.58976 152.894 8.25643 153.294C8.45643 154.194 9.45643 159.194 9.95643 159.194H10.0564L10.1564 158.994C10.6898 157.661 10.9898 156.261 11.0564 154.794C14.0564 156.394 17.3564 158.394 19.7564 160.994C20.8564 161.994 21.6564 163.294 22.3564 164.794C22.0564 165.794 19.8564 173.994 20.0564 174.394L20.1564 174.494H20.3564L20.4564 174.394C21.7564 173.094 22.7564 171.594 23.8564 169.494C23.8564 169.628 23.8898 169.728 23.9564 169.794C25.4564 175.894 27.2564 183.394 23.6564 189.994C23.5898 189.994 23.5564 189.994 23.5564 189.994Z" fill="white"/>
<path fill-rule="evenodd" clip-rule="evenodd" d="M6.25555 151.995C6.98888 152.328 7.72222 152.695 8.45555 153.095C8.85555 154.995 9.75555 158.995 9.95555 158.995C10.4889 157.461 10.7889 155.895 10.8555 154.295C10.9889 154.428 11.1222 154.528 11.2556 154.595C14.2556 156.295 17.5556 158.295 19.9556 160.795C21.1556 161.995 21.9555 163.395 22.5555 164.795C21.7556 167.795 20.1555 174.195 20.2555 174.195C21.8555 172.595 22.9556 170.795 23.9556 168.895C24.0222 169.161 24.0889 169.461 24.1555 169.795C25.7555 176.295 27.4556 183.495 23.8556 190.095C23.7889 190.228 23.7222 190.295 23.6555 190.295C23.5222 190.295 23.4222 190.228 23.3556 190.095C23.2889 190.095 23.2555 190.095 23.2555 190.095C21.0555 187.595 17.4556 186.795 14.4556 185.195C13.0556 184.461 11.7555 183.595 10.5555 182.595C11.7555 182.495 12.9555 182.295 14.1555 181.995C14.4555 181.895 8.75555 179.595 6.45555 177.995C5.25555 176.195 4.25555 174.195 3.55555 172.095C4.02222 172.161 4.52222 172.195 5.05555 172.195C5.98888 172.195 6.88888 172.028 7.75555 171.695C8.05555 171.595 4.45555 169.995 2.95555 169.195C2.82222 169.128 2.68888 169.028 2.55555 168.895C1.85555 166.595 1.25555 164.095 0.855548 161.695C0.788882 161.428 0.722214 161.161 0.655548 160.895C0.588881 160.228 0.522217 159.595 0.455551 158.995C0.355551 157.595 1.45555 151.895 2.65555 151.295C2.92221 151.095 3.22222 150.995 3.55555 150.995C4.55555 150.995 5.45555 151.695 6.25555 151.995ZM2.85555 151.695C1.95555 152.195 0.855551 157.395 0.955551 158.995C1.02222 159.528 1.08888 160.128 1.15555 160.795C1.22221 161.061 1.28888 161.295 1.35555 161.495C1.65555 163.595 2.15555 165.895 2.95555 168.595C3.02222 168.661 3.08888 168.695 3.15555 168.695C3.75555 169.095 4.75555 169.495 5.65555 169.995C8.15555 171.195 8.25555 171.295 8.25555 171.695V171.995L7.95555 172.195C7.02222 172.528 6.05555 172.695 5.05555 172.695C4.78888 172.695 4.52222 172.695 4.25555 172.695C5.05555 174.595 5.85555 176.195 6.85555 177.695C8.15555 178.495 10.7555 179.695 12.3555 180.495C14.6555 181.595 14.6555 181.595 14.6555 181.995V182.295L14.2556 182.395C13.4556 182.695 12.5555 182.795 11.8555 182.895C12.7889 183.628 13.7556 184.261 14.7556 184.795C15.6556 185.295 16.6555 185.695 17.6555 186.095C19.7555 186.995 21.9556 187.895 23.4556 189.595H23.5555C26.8555 183.295 25.2555 176.095 23.7555 170.195C22.7555 171.995 21.7555 173.295 20.6555 174.595L20.5555 174.695H20.2555H20.0555L19.8556 174.495C19.7556 174.295 19.6556 174.195 20.5555 170.495C21.0555 168.495 21.6556 166.295 22.0555 164.895C21.3555 163.395 20.5555 162.095 19.6555 161.095C17.2555 158.695 14.1556 156.795 11.2556 155.195C11.1222 156.528 10.8222 157.828 10.3555 159.095L10.2556 159.495H9.95555C9.45555 159.495 9.45555 159.395 8.75555 156.895C8.55555 155.695 8.25555 154.395 8.05555 153.395C7.38888 153.061 6.72222 152.761 6.05555 152.495C5.85555 152.428 5.68888 152.328 5.55555 152.195C4.95555 151.895 4.15555 151.495 3.55555 151.495C3.28888 151.495 3.05555 151.561 2.85555 151.695Z" fill="black"/>
<path d="M28.4567 214.094C27.2567 204.894 25.3567 195.894 21.8567 187.294C21.4567 186.428 21.0567 185.561 20.6567 184.694C20.59 184.761 20.49 184.761 20.3567 184.694C18.9567 184.494 17.69 184.028 16.5567 183.294C16.2567 183.094 16.6567 182.594 16.9567 182.794C17.9567 183.461 19.09 183.894 20.3567 184.094C17.8234 178.428 14.99 172.894 11.8567 167.494C11.79 167.494 11.7567 167.494 11.7567 167.494C8.95671 168.194 6.35671 167.494 3.85671 166.694C3.45671 166.594 3.65671 165.994 4.05671 166.194C6.45671 166.894 8.85671 167.594 11.5567 166.994C9.62337 163.728 7.59004 160.494 5.45671 157.294C5.25671 156.994 5.85671 156.694 6.05671 156.994C8.85671 161.194 11.49 165.494 13.9567 169.894C14.69 167.361 15.0567 164.828 15.0567 162.294C15.0567 161.894 15.6567 161.894 15.6567 162.294C15.7234 164.961 15.3234 167.628 14.4567 170.294C14.39 170.428 14.3234 170.494 14.2567 170.494C14.79 171.494 15.3234 172.461 15.8567 173.394C16.4567 171.728 16.79 170.061 16.8567 168.394C16.8567 167.994 17.5567 167.994 17.5567 168.394C17.49 170.261 17.0567 172.128 16.2567 173.994C16.2567 174.061 16.2234 174.094 16.1567 174.094C17.89 177.294 19.49 180.528 20.9567 183.794C21.0234 183.861 21.0567 183.894 21.0567 183.894C21.59 185.094 22.1234 186.328 22.6567 187.594C22.99 188.394 23.3234 189.194 23.6567 189.994C23.6567 190.061 23.6567 190.128 23.6567 190.194C26.3567 197.794 28.0567 205.794 29.0567 213.894C28.8567 213.961 28.6567 214.028 28.4567 214.094Z" fill="black"/>
<path d="M6.05625 163.595C4.18958 163.195 2.45625 162.561 0.856251 161.695C0.789584 161.428 0.722917 161.161 0.65625 160.895C2.32292 161.895 4.18959 162.595 6.25625 162.995C6.65625 163.095 6.45625 163.695 6.05625 163.595Z" fill="black"/>
<path d="M66.7558 168.394C66.7558 170.994 60.7558 172.194 58.8558 172.894C54.6558 174.494 50.5558 176.094 47.4558 179.394C43.8558 183.394 40.6558 187.994 37.5558 192.394C37.3558 192.694 37.0558 192.794 36.7558 192.694C36.7558 192.694 36.3558 191.994 35.9558 190.794C34.8558 188.094 33.1558 183.194 33.5558 180.394C33.8558 178.494 34.5558 176.594 35.4558 174.894C35.6558 175.794 36.0558 176.594 36.6558 177.194C36.8558 177.394 37.1558 173.694 37.3558 171.994C37.6225 171.661 37.9225 171.361 38.2558 171.094C38.9225 170.361 39.6558 169.661 40.4558 168.994C40.5891 168.861 40.7558 168.728 40.9558 168.594C41.5558 168.128 42.2225 167.694 42.9558 167.294C43.1558 167.161 43.3225 167.061 43.4558 166.994C44.1225 166.594 44.7891 166.261 45.4558 165.994C45.7558 167.194 46.0558 168.494 46.6558 169.694C46.7558 169.894 47.0558 166.794 47.0558 165.394C47.7225 165.128 48.3891 164.894 49.0558 164.694C49.2558 165.494 49.4558 166.294 49.8558 167.094C49.9558 167.294 50.8558 165.094 51.1558 164.194C53.2558 163.794 55.4558 163.594 57.5558 163.694C57.7558 163.694 57.9225 163.694 58.0558 163.694C58.6558 163.761 59.2225 163.828 59.7558 163.894C61.8558 164.194 66.6558 165.494 66.7558 168.294C66.7558 168.361 66.7558 168.394 66.7558 168.394Z" fill="#AAB6C2"/>
<path d="M66.7565 168.395C66.7565 170.995 60.7565 172.195 58.8565 172.895C54.6565 174.495 50.5565 176.095 47.4565 179.395C43.8565 183.395 40.6565 187.995 37.5565 192.395C37.4899 192.461 37.3899 192.528 37.2565 192.595C36.5565 194.395 36.3565 196.295 36.2565 198.195C36.1232 201.928 36.1232 205.661 36.2565 209.395C36.2565 210.261 36.2899 211.128 36.3565 211.995C36.0899 212.061 35.8565 212.095 35.6565 212.095C35.5899 210.761 35.5232 209.395 35.4565 207.995C35.3565 203.895 35.1565 199.495 35.8565 195.395C35.9565 194.195 36.3565 192.995 36.8565 191.995C37.1565 189.395 38.7565 180.195 43.8565 175.195C49.6565 169.395 58.8565 169.295 66.7565 168.395Z" fill="black"/>
<path d="M43.0571 172.795C42.7237 170.995 42.6904 169.161 42.9571 167.295C43.1571 167.161 43.3237 167.061 43.4571 166.995C43.1904 168.928 43.2237 170.828 43.5571 172.695C43.6571 173.095 43.1571 173.195 43.0571 172.795Z" fill="black"/>
<path d="M41.157 173.895C40.757 172.295 40.5237 170.661 40.457 168.995C40.5904 168.861 40.757 168.728 40.957 168.595C40.957 170.328 41.1904 172.061 41.657 173.795C41.757 174.095 41.257 174.195 41.157 173.895Z" fill="black"/>
<path d="M50.1551 208.195C50.1551 209.595 50.0217 210.928 49.7551 212.195C48.7551 216.695 46.1551 220.695 42.4551 223.295H20.5551C16.9551 220.695 14.2551 216.695 13.3551 212.195C13.0884 210.928 12.9551 209.595 12.9551 208.195C12.9551 206.795 13.0884 205.461 13.3551 204.195C13.6217 203.061 13.9551 201.995 14.3551 200.995H48.6551C49.1217 201.995 49.4551 203.061 49.6551 204.195C49.9884 205.461 50.1551 206.795 50.1551 208.195Z" fill="#7977C6"/>
<path d="M50.1547 208.195C50.1547 209.595 50.0214 210.928 49.7547 212.195C48.7547 216.695 46.1547 220.695 42.4547 223.295H20.5547C49.1547 224.695 48.6547 200.995 48.6547 200.995C49.1214 201.995 49.4547 203.061 49.6547 204.195C49.988 205.461 50.1547 206.795 50.1547 208.195Z" fill="black"/>
</svg>
