<svg width="535" height="536" viewBox="0 0 535 536" fill="none" xmlns="http://www.w3.org/2000/svg">
<g opacity="0.2">
<circle cx="267.245" cy="267.991" r="265.1" stroke="#98C0AD" stroke-width="4.06584"/>
<path d="M490.502 267.991C490.502 391.29 390.435 491.248 266.99 491.248C143.546 491.248 43.4788 391.29 43.4788 267.991C43.4788 144.693 143.546 44.7351 266.99 44.7351C390.435 44.7351 490.502 144.693 490.502 267.991Z" stroke="#98C0AD" stroke-width="4.06584"/>
<path d="M454.269 267.992C454.269 371.568 370.418 455.529 266.987 455.529C163.557 455.529 79.7058 371.568 79.7058 267.992C79.7058 164.416 163.557 80.4553 266.987 80.4553C370.418 80.4553 454.269 164.416 454.269 267.992Z" stroke="#98C0AD" stroke-width="4.06584"/>
<circle cx="267.245" cy="268.501" r="158.961" stroke="#98C0AD" stroke-width="4.06584"/>
</g>
</svg>
