<svg width="200" height="60" viewBox="0 0 200 60" fill="none" xmlns="http://www.w3.org/2000/svg">
<path d="M199.357 47.9299C199.948 48.5105 199.956 49.4602 199.376 50.0512C198.795 50.6422 197.845 50.6506 197.254 50.0701L199.357 47.9299ZM151.915 21.3998L152.315 19.9541L151.915 21.3998ZM113.379 25.6887L114.328 26.8506L113.379 25.6887ZM107.859 34.0672L106.367 33.9124L106.387 33.7181L106.456 33.5354L107.859 34.0672ZM116.111 51.3555L117.069 50.2012L116.111 51.3555ZM133.8 57.4886L133.745 58.9876L133.8 57.4886ZM152.193 50.773L151.165 49.6807L151.211 49.6374L151.261 49.5982L152.193 50.773ZM131.342 19.3201L132.237 18.1164L131.342 19.3201ZM85.6806 3.02752L85.4636 4.51174L85.6806 3.02752ZM32.4525 9.58291L32.8848 11.0192L32.4525 9.58291ZM4.90693 23.9806L4.25446 22.6299L4.90693 23.9806ZM1.59167 27.6075C0.764728 27.5578 0.134596 26.8472 0.184236 26.0203L0.993092 12.5445C1.04272 11.7176 1.75333 11.0875 2.58027 11.1371C3.4072 11.1867 4.03733 11.8974 3.98769 12.7243L3.26872 24.7027L15.2472 25.4217C16.0741 25.4714 16.7042 26.182 16.6546 27.0089C16.605 27.8358 15.8944 28.466 15.0674 28.4163L1.59167 27.6075ZM197.254 50.0701C192.909 45.8017 184.474 39.8154 175.542 34.4512C166.601 29.081 157.386 24.47 151.515 22.8455L152.315 19.9541C158.603 21.6939 168.11 26.488 177.087 31.8794C186.074 37.2768 194.754 43.4084 199.357 47.9299L197.254 50.0701ZM151.515 22.8455C146.184 21.3704 139.007 20.592 132.054 21.1006C125.065 21.6119 118.548 23.4055 114.328 26.8506L112.43 24.5267C117.348 20.5122 124.594 18.6384 131.836 18.1086C139.114 17.5761 146.637 18.3831 152.315 19.9541L151.515 22.8455ZM114.328 26.8506C113.308 27.6831 112.493 28.4773 111.718 29.5989C110.931 30.7365 110.146 32.2653 109.261 34.5991L106.456 33.5354C107.391 31.0696 108.277 29.299 109.25 27.8922C110.234 26.4694 111.27 25.4741 112.43 24.5267L114.328 26.8506ZM109.351 34.2221C108.979 37.8055 109.579 40.6503 110.885 43.139C112.208 45.6593 114.303 47.9052 117.069 50.2012L115.154 52.5098C112.244 50.0951 109.813 47.5518 108.228 44.5332C106.627 41.4828 105.939 38.0389 106.367 33.9124L109.351 34.2221ZM117.069 50.2012C122.162 54.4276 126.887 55.7337 133.855 55.9896L133.745 58.9876C126.323 58.7151 120.896 57.2751 115.154 52.5098L117.069 50.2012ZM133.855 55.9896C140.174 56.2216 146.516 54.0559 151.165 49.6807L153.221 51.8653C147.941 56.8348 140.799 59.2466 133.745 58.9876L133.855 55.9896ZM151.261 49.5982C152.129 48.9086 152.537 48.1138 152.651 47.2052C152.77 46.2443 152.569 45.0558 152.005 43.6448C150.871 40.807 148.452 37.5172 145.513 34.2515C139.666 27.7543 132.192 21.8213 130.447 20.5239L132.237 18.1164C134.065 19.4757 141.711 25.5427 147.743 32.2446C150.743 35.5783 153.454 39.1878 154.791 42.531C155.462 44.2105 155.832 45.933 155.628 47.5762C155.416 49.2717 154.604 50.7742 153.126 51.9478L151.261 49.5982ZM130.447 20.5239C116.74 10.3317 102.24 6.96443 85.4636 4.51174L85.8976 1.5433C102.802 4.01471 117.915 7.46699 132.237 18.1164L130.447 20.5239ZM85.4636 4.51174C67.1655 1.83656 51.0016 5.56553 32.8848 11.0192L32.0201 8.14658C50.2183 2.66836 66.9145 -1.23204 85.8976 1.5433L85.4636 4.51174ZM32.8848 11.0192C27.9791 12.496 23.576 14.8796 19.1637 17.5126C14.7952 20.1195 10.3475 23.0182 5.55941 25.3312L4.25446 22.6299C8.88413 20.3934 13.1208 17.6251 17.6264 14.9364C22.0882 12.2738 26.7491 9.73332 32.0201 8.14658L32.8848 11.0192ZM5.55941 25.3312C4.22832 25.9743 3.6638 26.3572 2.67674 27.2325L0.686329 24.9879C1.88742 23.9228 2.6843 23.3884 4.25446 22.6299L5.55941 25.3312Z" fill="black"/>
</svg>
