<svg width="46" height="46" viewBox="0 0 46 46" fill="none" xmlns="http://www.w3.org/2000/svg">
<path fill-rule="evenodd" clip-rule="evenodd" d="M7.71799 19.3996C10.0634 15.1364 11.1675 10.7217 12.5424 6.12842C12.8108 5.23135 12.302 4.28943 11.408 4.02068C10.5134 3.75179 9.56952 4.26359 9.30059 5.16051C7.99695 9.51601 6.98061 13.7208 4.75372 17.7706C4.3031 18.5896 4.6017 19.6211 5.42054 20.0682C6.23737 20.5205 7.26792 20.2188 7.71799 19.3996Z" fill="#1456DA"/>
<path fill-rule="evenodd" clip-rule="evenodd" d="M14.8839 30.7994C24.3638 25.8795 33.9378 18.8485 41.3751 11.1515C42.024 10.479 42.0062 9.40593 41.3344 8.75892C40.6625 8.11192 39.5911 8.12839 38.9421 8.80091C31.7506 16.2427 22.4913 23.0429 13.3258 27.796C12.4968 28.2277 12.1733 29.25 12.6036 30.0775C13.0339 30.9049 14.055 31.231 14.8839 30.7994Z" fill="#1456DA"/>
<path fill-rule="evenodd" clip-rule="evenodd" d="M14.7759 38.9193C21.4326 41.9346 29.1366 41.8975 36.2123 40.8223C37.1362 40.6788 37.7714 39.8158 37.6307 38.8967C37.4909 37.972 36.627 37.3377 35.7045 37.4758C29.2599 38.4574 22.2349 38.5831 16.1719 35.8378C15.3214 35.4523 14.318 35.8313 13.9336 36.6798C13.5487 37.5281 13.9259 38.534 14.7759 38.9193Z" fill="#1456DA"/>
</svg>
