<svg width="51" height="51" viewBox="0 0 51 51" fill="none" xmlns="http://www.w3.org/2000/svg">
<path fill-rule="evenodd" clip-rule="evenodd" d="M18.286 39.1111C14.7751 35.7422 10.7966 33.5331 6.71568 31.0162C5.91865 30.5247 4.87714 30.7724 4.38615 31.5664C3.89488 32.361 4.14495 33.4051 4.9417 33.897C8.81139 36.2835 12.6099 38.3535 15.9453 41.5527C16.6198 42.1999 17.6934 42.1785 18.3371 41.5033C18.9855 40.8313 18.9608 39.7578 18.286 39.1111Z" fill="#1456DA"/>
<path fill-rule="evenodd" clip-rule="evenodd" d="M31.153 35.1397C28.8544 24.7094 24.5408 13.642 19.0311 4.46592C18.5494 3.66504 17.5083 3.4045 16.7095 3.88602C15.9106 4.36753 15.6492 5.40674 16.1309 6.20761C21.4578 15.0802 25.6298 25.784 27.8487 35.8674C28.0511 36.7799 28.9549 37.357 29.8655 37.1555C30.7762 36.954 31.3554 36.0521 31.153 35.1397Z" fill="#1456DA"/>
<path fill-rule="evenodd" clip-rule="evenodd" d="M38.9679 37.3454C43.6033 31.696 45.5614 24.2449 46.3541 17.132C46.4547 16.2024 45.7855 15.3655 44.8613 15.2635C43.9319 15.1593 43.0956 15.8295 42.9902 16.7563C42.2704 23.2354 40.5737 30.0535 36.3526 35.1994C35.7601 35.9212 35.8666 36.9885 36.5867 37.5794C37.3065 38.1708 38.3757 38.0667 38.9679 37.3454Z" fill="#1456DA"/>
</svg>
