<svg width="74" height="93" viewBox="0 0 74 93" fill="none" xmlns="http://www.w3.org/2000/svg">
<g opacity="0.4">
<path fill-rule="evenodd" clip-rule="evenodd" d="M4.24318 72.5314C5.88055 71.9372 7.60358 71.1475 8.9323 70.0042C10.5104 68.6462 11.1522 66.8972 11.5832 65.0562C12.1365 62.691 12.3576 60.1714 13.0285 57.8023C13.2769 56.9226 13.755 56.59 13.9602 56.4424C14.4787 56.0696 15.0028 55.97 15.4959 56.0073C16.0802 56.0505 16.8829 56.2757 17.4109 57.2733C17.4861 57.4161 17.584 57.6337 17.6498 57.9317C17.6978 58.1502 17.7289 58.8335 17.7797 59.1153C17.9067 59.8091 18.0131 60.503 18.1128 61.2007C18.445 63.5228 18.6361 65.4951 19.6853 67.6284C21.109 70.5246 22.5356 72.2966 24.4704 73.0815C26.3411 73.8405 28.5779 73.6977 31.4357 73.1026C31.7077 73.0355 31.9768 72.978 32.2431 72.931C33.5031 72.7068 34.7076 73.5492 34.9551 74.8276C35.2026 76.1051 34.4018 77.35 33.1531 77.6308C32.8924 77.6893 32.6355 77.7448 32.3815 77.7956C28.5195 78.7693 24.0488 82.2444 21.4506 85.2872C20.6498 86.2254 19.4773 88.8484 18.2813 90.5217C17.3986 91.7561 16.4068 92.5697 15.574 92.8572C15.0159 93.0508 14.5455 93.0211 14.1568 92.9234C13.5922 92.7816 13.1236 92.47 12.7641 91.9746C12.5684 91.7034 12.3867 91.3401 12.3002 90.8763C12.2588 90.653 12.2541 90.0857 12.255 89.8288C12.0113 88.9749 11.713 88.1411 11.4956 87.2796C10.9771 85.2239 9.95987 83.9224 8.75161 82.2031C7.62145 80.5941 6.40757 79.583 4.62811 78.7761C4.39662 78.7186 2.5287 78.2528 1.86905 77.9854C0.905449 77.5934 0.446209 76.9369 0.279649 76.5833C-0.00359634 75.9834 -0.0327421 75.4592 0.0237188 75.0222C0.107469 74.3772 0.391658 73.8252 0.896042 73.3795C1.20846 73.1026 1.67521 72.8333 2.30004 72.702C2.78278 72.5994 4.06345 72.54 4.24318 72.5314ZM15.2013 69.1809C15.2879 69.3774 15.3801 69.5748 15.478 69.7742C17.5633 74.0159 19.8951 76.384 22.7295 77.5331L22.8245 77.5704C20.9284 79.0041 19.2119 80.6065 17.9001 82.1428C17.36 82.7753 16.6449 84.0892 15.8723 85.4367C15.1703 83.1126 14.0223 81.47 12.5787 79.4143C11.4759 77.8455 10.3203 76.6648 8.9003 75.7026C10.0022 75.1266 11.0533 74.4519 11.9689 73.6642C13.4934 72.3522 14.5012 70.8322 15.2013 69.1809Z" fill="#192533"/>
<path fill-rule="evenodd" clip-rule="evenodd" d="M41.2432 41.5314C42.8806 40.9372 44.6036 40.1475 45.9323 39.0042C47.5104 37.6462 48.1522 35.8972 48.5832 34.0562C49.1365 31.691 49.3576 29.1714 50.0285 26.8023C50.2769 25.9226 50.755 25.59 50.9602 25.4424C51.4787 25.0696 52.0028 24.97 52.4959 25.0073C53.0802 25.0505 53.8829 25.2757 54.4109 26.2733C54.4861 26.4161 54.584 26.6337 54.6498 26.9317C54.6978 27.1502 54.7289 27.8335 54.7797 28.1153C54.9067 28.8091 55.0131 29.503 55.1128 30.2007C55.445 32.5228 55.6361 34.4951 56.6853 36.6284C58.109 39.5246 59.5356 41.2966 61.4704 42.0815C63.3411 42.8405 65.5779 42.6977 68.4357 42.1026C68.7077 42.0355 68.9768 41.978 69.2431 41.931C70.5031 41.7068 71.7076 42.5492 71.9551 43.8276C72.2026 45.1051 71.4018 46.35 70.1531 46.6308C69.8924 46.6893 69.6355 46.7448 69.3815 46.7956C65.5195 47.7693 61.0488 51.2444 58.4506 54.2872C57.6498 55.2254 56.4773 57.8484 55.2813 59.5217C54.3986 60.7561 53.4068 61.5697 52.574 61.8572C52.0159 62.0508 51.5455 62.0211 51.1568 61.9234C50.5922 61.7816 50.1236 61.47 49.7641 60.9746C49.5684 60.7034 49.3867 60.3401 49.3002 59.8763C49.2588 59.653 49.2541 59.0857 49.255 58.8288C49.0113 57.9749 48.713 57.1411 48.4956 56.2796C47.9771 54.2239 46.9599 52.9224 45.7516 51.2031C44.6214 49.5941 43.4076 48.583 41.6281 47.7761C41.3966 47.7186 39.5287 47.2528 38.869 46.9854C37.9054 46.5934 37.4462 45.9369 37.2796 45.5833C36.9964 44.9834 36.9673 44.4592 37.0237 44.0222C37.1075 43.3772 37.3917 42.8252 37.896 42.3795C38.2085 42.1026 38.6752 41.8333 39.3 41.702C39.7828 41.5994 41.0635 41.54 41.2432 41.5314ZM52.2013 38.1809C52.2879 38.3774 52.3801 38.5748 52.478 38.7742C54.5633 43.0159 56.8951 45.384 59.7295 46.5331L59.8245 46.5704C57.9284 48.0041 56.2119 49.6065 54.9001 51.1428C54.36 51.7753 53.6449 53.0892 52.8723 54.4367C52.1703 52.1126 51.0223 50.47 49.5787 48.4143C48.4759 46.8455 47.3203 45.6648 45.9003 44.7026C47.0022 44.1266 48.0533 43.4519 48.9689 42.6642C50.4934 41.3522 51.5012 39.8322 52.2013 38.1809Z" fill="#192533"/>
<path fill-rule="evenodd" clip-rule="evenodd" d="M4.24318 16.5314C5.88055 15.9372 7.60358 15.1475 8.9323 14.0042C10.5104 12.6462 11.1522 10.8972 11.5832 9.05619C12.1365 6.69095 12.3576 4.17139 13.0285 1.80233C13.2769 0.922552 13.755 0.589995 13.9602 0.442408C14.4787 0.0696056 15.0028 -0.0300442 15.4959 0.00733185C16.0802 0.0504581 16.8829 0.275657 17.4109 1.27331C17.4861 1.41611 17.584 1.63367 17.6498 1.93172C17.6978 2.15022 17.7289 2.83352 17.7797 3.11528C17.9067 3.80913 18.0131 4.50301 18.1128 5.20069C18.445 7.5228 18.6361 9.49508 19.6853 11.6284C21.109 14.5246 22.5356 16.2966 24.4704 17.0815C26.3411 17.8405 28.5779 17.6977 31.4357 17.1026C31.7077 17.0355 31.9768 16.978 32.2431 16.931C33.5031 16.7068 34.7076 17.5492 34.9551 18.8276C35.2026 20.1051 34.4018 21.35 33.1531 21.6308C32.8924 21.6893 32.6355 21.7448 32.3815 21.7956C28.5195 22.7693 24.0488 26.2444 21.4506 29.2872C20.6498 30.2254 19.4773 32.8484 18.2813 34.5217C17.3986 35.7561 16.4068 36.5697 15.574 36.8572C15.0159 37.0508 14.5455 37.0211 14.1568 36.9234C13.5922 36.7816 13.1236 36.47 12.7641 35.9746C12.5684 35.7034 12.3867 35.3401 12.3002 34.8763C12.2588 34.653 12.2541 34.0857 12.255 33.8288C12.0113 32.9749 11.713 32.1411 11.4956 31.2796C10.9771 29.2239 9.95987 27.9224 8.75161 26.2031C7.62145 24.5941 6.40757 23.583 4.62811 22.7761C4.39662 22.7186 2.5287 22.2528 1.86905 21.9854C0.905449 21.5934 0.446209 20.9369 0.279649 20.5833C-0.00359634 19.9834 -0.0327421 19.4592 0.0237188 19.0222C0.107469 18.3772 0.391658 17.8252 0.896042 17.3795C1.20846 17.1026 1.67521 16.8333 2.30004 16.702C2.78278 16.5994 4.06345 16.54 4.24318 16.5314ZM15.2013 13.1809C15.2879 13.3774 15.3801 13.5748 15.478 13.7742C17.5633 18.0159 19.8951 20.384 22.7295 21.5331L22.8245 21.5704C20.9284 23.0041 19.2119 24.6065 17.9001 26.1428C17.36 26.7753 16.6449 28.0892 15.8723 29.4367C15.1703 27.1126 14.0223 25.47 12.5787 23.4143C11.4759 21.8455 10.3203 20.6648 8.9003 19.7026C10.0022 19.1266 11.0533 18.4519 11.9689 17.6642C13.4934 16.3522 14.5012 14.8322 15.2013 13.1809Z" fill="#192533"/>
</g>
</svg>
