<svg width="211" height="33" viewBox="0 0 211 33" fill="none" xmlns="http://www.w3.org/2000/svg">
<path d="M209.542 14.0692C210.048 13.8471 210.277 13.2571 210.055 12.7514L206.435 4.51165C206.213 4.00601 205.623 3.7762 205.117 3.99835C204.612 4.2205 204.382 4.81049 204.604 5.31613L207.822 12.6404L200.498 15.8583C199.992 16.0805 199.762 16.6705 199.984 17.1761C200.206 17.6817 200.796 17.9115 201.302 17.6894L209.542 14.0692ZM3.82726 31.8121L4.74794 31.4217L3.96726 29.5804L3.04659 29.9707L3.82726 31.8121ZM12.5213 26.1636L11.5871 26.5203L12.3006 28.3887L13.2348 28.0319L12.5213 26.1636ZM17.9813 26.261L18.9208 25.9184L18.2358 24.0394L17.2963 24.382L17.9813 26.261ZM26.9118 21.0276L25.9633 21.3442L26.5966 23.2413L27.5451 22.9247L26.9118 21.0276ZM32.3624 21.351L33.315 21.0465L32.706 19.1415L31.7535 19.4459L32.3624 21.351ZM41.5068 16.4614L40.5471 16.7423L41.1088 18.6618L42.0685 18.3809L41.5068 16.4614ZM46.9512 16.9841L47.9143 16.7148L47.3758 14.7887L46.4127 15.0579L46.9512 16.9841ZM56.2376 12.4378L55.2684 12.6838L55.7605 14.6223L56.7298 14.3763L56.2376 12.4378ZM61.6547 13.1575L62.6269 12.9231L62.1582 10.9788L61.186 11.2132L61.6547 13.1575ZM71.1187 8.94684L70.1411 9.15726L70.5619 11.1125L71.5395 10.9021L71.1187 8.94684ZM76.4984 9.86711L77.4786 9.66896L77.0823 7.70862L76.1022 7.90676L76.4984 9.86711ZM86.1211 6.01517L85.1361 6.18786L85.4815 8.15781L86.4665 7.98513L86.1211 6.01517ZM91.458 7.14427L92.4452 6.98479L92.1263 5.01039L91.1391 5.16987L91.458 7.14427ZM101.227 3.68331L100.236 3.81511L100.499 5.79766L101.49 5.66586L101.227 3.68331ZM106.513 5.03522L107.506 4.91792L107.271 2.93172L106.278 3.04902L106.513 5.03522ZM116.42 2.00731L115.423 2.09399L115.597 4.08647L116.593 3.99979L116.42 2.00731ZM121.641 3.6016L122.638 3.5311L122.497 1.53608L121.5 1.60657L121.641 3.6016ZM131.682 1.06062L130.682 1.09674L130.755 3.09543L131.754 3.05931L131.682 1.06062ZM136.815 2.92241L137.814 2.90457L137.779 0.904893L136.779 0.922729L136.815 2.92241ZM146.98 0.936982L145.98 0.915782L145.938 2.91533L146.937 2.93653L146.98 0.936982ZM151.994 3.09614L152.993 3.13819L153.077 1.13996L152.078 1.09791L151.994 3.09614ZM162.265 1.75186L161.268 1.66512L161.095 3.65758L162.091 3.74432L162.265 1.75186ZM167.12 4.24266L168.113 4.35333L168.335 2.36561L167.341 2.25494L167.12 4.24266ZM177.463 3.64407L176.476 3.48206L176.152 5.45563L177.139 5.61765L177.463 3.64407ZM182.109 6.50444L183.091 6.69391L183.47 4.73013L182.488 4.54066L182.109 6.50444ZM192.466 6.77433L191.497 6.5261L191.001 8.4635L191.969 8.71173L192.466 6.77433ZM196.836 10.0426L197.797 10.3221L198.355 8.4018L197.395 8.12231L196.836 10.0426ZM207.114 11.3168L206.176 10.9711L205.484 12.8478L206.423 13.1935L207.114 11.3168ZM1.53996 32.7963C2.28266 32.4718 3.04527 32.1436 3.82726 31.8121L3.04659 29.9707C2.25811 30.305 1.48884 30.6361 0.739335 30.9635L1.53996 32.7963ZM13.2348 28.0319C14.7694 27.4458 16.3524 26.8549 17.9813 26.261L17.2963 24.382C15.658 24.9793 14.0655 25.5738 12.5213 26.1636L13.2348 28.0319ZM27.5451 22.9247C29.1197 22.399 30.7261 21.874 32.3624 21.351L31.7535 19.4459C30.109 19.9716 28.4946 20.4993 26.9118 21.0276L27.5451 22.9247ZM42.0685 18.3809C43.674 17.9111 45.302 17.4451 46.9512 16.9841L46.4127 15.0579C44.7557 15.5212 43.12 15.9893 41.5068 16.4614L42.0685 18.3809ZM56.7298 14.3763C58.3554 13.9636 59.9974 13.557 61.6547 13.1575L61.186 11.2132C59.5208 11.6146 57.8709 12.0231 56.2376 12.4378L56.7298 14.3763ZM71.5395 10.9021C73.1808 10.5488 74.8341 10.2035 76.4984 9.86711L76.1022 7.90676C74.4295 8.24488 72.768 8.59183 71.1187 8.94684L71.5395 10.9021ZM86.4665 7.98513C88.1221 7.69486 89.7863 7.41434 91.458 7.14427L91.1391 5.16987C89.4583 5.44138 87.7854 5.72339 86.1211 6.01517L86.4665 7.98513ZM101.49 5.66586C103.159 5.44397 104.834 5.23354 106.513 5.03522L106.278 3.04902C104.589 3.24851 102.905 3.46016 101.227 3.68331L101.49 5.66586ZM116.593 3.99979C118.273 3.85362 119.956 3.72067 121.641 3.6016L121.5 1.60657C119.804 1.72642 118.11 1.86023 116.42 2.00731L116.593 3.99979ZM131.754 3.05931C133.441 2.99835 135.128 2.9525 136.815 2.92241L136.779 0.922729C135.08 0.953038 133.38 0.999221 131.682 1.06062L131.754 3.05931ZM146.937 2.93653C148.625 2.97233 150.311 3.02531 151.994 3.09614L152.078 1.09791C150.381 1.02648 148.681 0.973064 146.98 0.936982L146.937 2.93653ZM162.091 3.74432C163.772 3.89073 165.449 4.05662 167.12 4.24266L167.341 2.25494C165.654 2.0671 163.962 1.89963 162.265 1.75186L162.091 3.74432ZM177.139 5.61765C178.804 5.89099 180.461 6.18635 182.109 6.50444L182.488 4.54066C180.821 4.21898 179.146 3.92035 177.463 3.64407L177.139 5.61765ZM191.969 8.71173C193.603 9.13031 195.225 9.5737 196.836 10.0426L197.395 8.12231C195.763 7.64723 194.12 7.19815 192.466 6.77433L191.969 8.71173ZM206.423 13.1935C207.211 13.4839 207.996 13.7812 208.777 14.0855L209.503 12.2219C208.71 11.9131 207.914 11.6115 207.114 11.3168L206.423 13.1935Z" fill="white"/>
</svg>
