<svg width="210" height="39" viewBox="0 0 210 39" fill="none" xmlns="http://www.w3.org/2000/svg">
<path d="M209.205 23.8835C209.468 23.3979 209.288 22.791 208.802 22.5278L200.889 18.2395C200.404 17.9764 199.797 18.1567 199.534 18.6423C199.271 19.1278 199.451 19.7348 199.936 19.9979L206.97 23.8097L203.158 30.8432C202.895 31.3288 203.075 31.9357 203.561 32.1989C204.047 32.462 204.653 32.2817 204.917 31.7962L209.205 23.8835ZM2.44059 3.42637L3.16027 4.12069L4.54889 2.68134L3.82922 1.98703L2.44059 3.42637ZM11.6681 8.51029L10.8605 7.92049L9.6809 9.53558L10.4884 10.1254L11.6681 8.51029ZM14.7776 13.0873L15.6145 13.6346L16.7091 11.9607L15.8721 11.4134L14.7776 13.0873ZM24.6861 16.6256L23.8046 16.1533L22.8601 17.9162L23.7415 18.3885L24.6861 16.6256ZM28.3804 20.7595L29.2793 21.1977L30.1557 19.3999L29.2568 18.9617L28.3804 20.7595ZM38.6403 23.1317L37.7132 22.7569L36.9637 24.6111L37.8908 24.9859L38.6403 23.1317ZM42.7425 26.8567L43.6812 27.2016L44.371 25.3244L43.4324 24.9794L42.7425 26.8567ZM53.1837 28.2307L52.2262 27.9425L51.6498 29.8576L52.6074 30.1458L53.1837 28.2307ZM57.6125 31.575L58.5778 31.8361L59.0999 29.9054L58.1346 29.6444L57.6125 31.575ZM68.1342 32.0608L67.1563 31.8516L66.738 33.8074L67.7159 34.0165L68.1342 32.0608ZM72.7976 35.0358L73.7805 35.2201L74.149 33.2544L73.1662 33.0701L72.7976 35.0358ZM83.3423 34.7204L82.3516 34.5841L82.0791 36.5655L83.0697 36.7018L83.3423 34.7204ZM88.2116 37.3482L89.2052 37.4615L89.4317 35.4743L88.4382 35.3611L88.2116 37.3482ZM98.6907 36.2972L97.6931 36.2283L97.5552 38.2235L98.5528 38.2924L98.6907 36.2972ZM103.737 38.5948L104.736 38.6424L104.831 36.6447L103.832 36.5971L103.737 38.5948ZM114.127 36.8743L113.127 36.8677L113.114 38.8677L114.114 38.8743L114.127 36.8743ZM119.294 38.8571L120.294 38.844L120.267 36.8442L119.267 36.8573L119.294 38.8571ZM129.584 36.5241L128.585 36.5752L128.687 38.5726L129.686 38.5215L129.584 36.5241ZM134.833 38.211L135.83 38.1418L135.692 36.1466L134.694 36.2158L134.833 38.211ZM144.963 35.3201L143.969 35.4244L144.177 37.4135L145.172 37.3092L144.963 35.3201ZM150.328 36.7244L151.321 36.6033L151.079 34.618L150.086 34.7391L150.328 36.7244ZM160.288 33.3245L159.3 33.4778L159.607 35.4541L160.595 35.3008L160.288 33.3245ZM165.728 34.4628L166.714 34.2939L166.376 32.3226L165.39 32.4915L165.728 34.4628ZM175.526 30.5954L174.546 30.794L174.943 32.7542L175.923 32.5556L175.526 30.5954ZM180.974 31.4938L181.951 31.281L181.525 29.3268L180.548 29.5396L180.974 31.4938ZM190.59 27.2028L189.619 27.443L190.1 29.3844L191.071 29.1442L190.59 27.2028ZM196.109 27.8608L197.077 27.6074L196.57 25.6727L195.603 25.9261L196.109 27.8608ZM205.536 23.1839L204.575 23.4625L205.132 25.3833L206.093 25.1047L205.536 23.1839ZM0.598401 1.56622C1.17543 2.17768 1.78956 2.79829 2.44059 3.42637L3.82922 1.98703C3.1996 1.37959 2.60753 0.781189 2.05297 0.193545L0.598401 1.56622ZM10.4884 10.1254C11.8365 11.11 13.2663 12.0991 14.7776 13.0873L15.8721 11.4134C14.3889 10.4435 12.9875 9.47395 11.6681 8.51029L10.4884 10.1254ZM23.7415 18.3885C25.2325 19.1873 26.7788 19.9787 28.3804 20.7595L29.2568 18.9617C27.6779 18.192 26.1543 17.4122 24.6861 16.6256L23.7415 18.3885ZM37.8908 24.9859C39.4663 25.6227 41.0835 26.247 42.7425 26.8567L43.4324 24.9794C41.7933 24.3771 40.1959 23.7605 38.6403 23.1317L37.8908 24.9859ZM52.6074 30.1458C54.2421 30.6378 55.9105 31.1147 57.6125 31.575L58.1346 29.6444C56.4508 29.189 54.8004 28.7172 53.1837 28.2307L52.6074 30.1458ZM67.7159 34.0165C69.3821 34.3729 71.076 34.713 72.7976 35.0358L73.1662 33.0701C71.4612 32.7504 69.7838 32.4136 68.1342 32.0608L67.7159 34.0165ZM83.0697 36.7018C84.7602 36.9343 86.4741 37.1501 88.2116 37.3482L88.4382 35.3611C86.716 35.1647 85.0174 34.9508 83.3423 34.7204L83.0697 36.7018ZM98.5528 38.2924C100.26 38.4104 101.988 38.5115 103.737 38.5948L103.832 36.5971C102.098 36.5144 100.384 36.4142 98.6907 36.2972L98.5528 38.2924ZM114.114 38.8743C115.823 38.8855 117.549 38.88 119.294 38.8571L119.267 36.8573C117.536 36.88 115.823 36.8854 114.127 36.8743L114.114 38.8743ZM129.686 38.5215C131.386 38.4344 133.102 38.3311 134.833 38.211L134.694 36.2158C132.975 36.3351 131.272 36.4377 129.584 36.5241L129.686 38.5215ZM145.172 37.3092C146.877 37.1305 148.595 36.9357 150.328 36.7244L150.086 34.7391C148.364 34.9491 146.657 35.1426 144.963 35.3201L145.172 37.3092ZM160.595 35.3008C162.294 35.0373 164.005 34.758 165.728 34.4628L165.39 32.4915C163.677 32.785 161.976 33.0625 160.288 33.3245L160.595 35.3008ZM175.923 32.5556C177.595 32.2167 179.279 31.8629 180.974 31.4938L180.548 29.5396C178.863 29.9066 177.189 30.2585 175.526 30.5954L175.923 32.5556ZM191.071 29.1442C192.74 28.7311 194.42 28.3034 196.109 27.8608L195.603 25.9261C193.922 26.3664 192.251 26.7919 190.59 27.2028L191.071 29.1442ZM206.093 25.1047C206.93 24.862 207.769 24.6156 208.61 24.3656L208.041 22.4484C207.203 22.6972 206.368 22.9424 205.536 23.1839L206.093 25.1047Z" fill="white"/>
</svg>
